<?xml version="1.0" encoding="utf-8"?>
<!-- Generator: Adobe Illustrator 17.1.0, SVG Export Plug-In . SVG Version: 6.00 Build 0)  -->
<!DOCTYPE svg PUBLIC "-//W3C//DTD SVG 1.1//EN" "http://www.w3.org/Graphics/SVG/1.1/DTD/svg11.dtd">
<svg version="1.1" id="Layer_1" xmlns="http://www.w3.org/2000/svg" xmlns:xlink="http://www.w3.org/1999/xlink" x="0px" y="0px"
	 viewBox="0 0 10 18" enable-background="new 0 0 10 18" xml:space="preserve">
<path fill-rule="evenodd" clip-rule="evenodd" fill="#3376B8" d="M9.7,9.7C9.7,9.7,9.7,9.7,9.7,9.7c-2.9,2.9,0,0-8,8
	c-0.4,0.4-1,0.4-1.4,0c-0.4-0.4-0.4-1,0-1.4C0.6,16,4.4,12.2,7.6,9C5.9,7.3,7.5,8.9,0.3,1.7c-0.4-0.4-0.4-1,0-1.4
	c0.4-0.4,1-0.4,1.4,0c0.3,0.3,4.7,4.7,8,8C10.1,8.7,10.1,9.3,9.7,9.7z"/>
</svg>
