<?xml version="1.0" standalone="no"?>
<!DOCTYPE svg PUBLIC "-//W3C//DTD SVG 1.1//EN" "http://www.w3.org/Graphics/SVG/1.1/DTD/svg11.dtd" >
<svg>
<metadata>
Created by FontForge 20090914 at Wed Jan 29 11:38:42 2014
 By www-data
&#194;&#169; 1992, 1994, 1997, 2000, 2004 Adobe Systems Incorporated. All rights reserved. Protected by U.S. Patents D454,582.
</metadata>
<defs>
<font id="MyriadPro-Light" horiz-adv-x="300" >
  <font-face 
    font-family="Myriad Pro Light"
    font-weight="300"
    font-stretch="normal"
    units-per-em="1000"
    panose-1="2 11 4 3 3 4 3 2 2 4"
    ascent="750"
    descent="-250"
    x-height="480"
    cap-height="674"
    bbox="-153 -250 1046 935"
    underline-thickness="50"
    underline-position="-50"
    unicode-range="U+0020-U+FB04"
  />
<missing-glyph horiz-adv-x="500" 
d="M0 0v700h500v-700h-500zM250 395l170 255h-340zM280 350l170 -255v510zM80 50h340l-170 255zM50 605v-510l170 255z" />
    <glyph glyph-name="f_f_j" unicode="ffj" horiz-adv-x="762" 
d="M658 688l-21.999 -37.002c-26 20 -58.333 30 -97 30c-85.333 0 -128 -57.667 -128 -173v-28h272v-447c0 -46 -3.66699 -83.833 -11 -113.5s-20.666 -55.167 -39.999 -76.5c-30.667 -32.667 -73 -50 -127 -52l-6 39c45.333 2 78.666 15.333 99.999 40
c13.333 16 22.666 37.333 27.999 64s8 70.334 8 131.001v376h-224v-441h-48v441h-231v-441h-48v441h-69v39h69v23c0 70 18.333 124.333 55 163c28.667 28.667 65.334 43 110.001 43c29.333 0 57.666 -8 84.999 -24l-18 -37c-25.333 14 -49 21 -71 21
c-31.333 0 -56 -10 -74 -30c-26 -28.667 -39 -75 -39 -139v-20h231v31c0 64 15.5 115 46.5 153s77.167 57 138.5 57c20 0 40.5 -3.16699 61.5 -9.5s37.167 -14.166 48.5 -23.499z" />
    <glyph glyph-name="f_j" unicode="fj" horiz-adv-x="483" 
d="M132 0l-48 -0.00195312v441h-69v39h69v31c0 64 15.5 115 46.5 153s76.833 57 137.5 57c20 0 40.5 -3.16699 61.5 -9.5s37.167 -14.166 48.5 -23.499l-22 -37c-26 20 -58.333 30 -97 30c-84.667 0 -127 -57.667 -127 -173v-28h271v-447c0 -46 -3.66699 -83.833 -11 -113.5
s-20.666 -55.167 -39.999 -76.5c-30.667 -32.667 -72.667 -50 -126 -52l-6 39c44.667 2 77.667 15.333 99 40c13.333 16 22.666 37.333 27.999 64s8 70.334 8 131.001v376h-223v-441z" />
    <glyph glyph-name="f_f" unicode="ff" horiz-adv-x="542" 
d="M411 0l-46.999 -0.000976562v441h-232v-441h-48v441h-69v39h69v19c0 78 18 135 54 171c26 26 60.667 39 104 39c28 0 52 -6.33301 72 -19l-17 -37c-17.333 10.667 -37 16 -59 16c-70.667 0 -106 -55 -106 -165v-24h232v26c0 80 17.667 137.667 53 173
c28 28 63.333 42 106 42c29.333 0 53.333 -5.33301 72 -16l-15 -37c-16 8.66699 -36.333 13 -61 13c-40.667 0 -68.834 -15.667 -84.501 -47s-23.5 -73.666 -23.5 -126.999v-27h129v-39h-129v-441z" />
    <glyph glyph-name="f_f_i" unicode="ffi" horiz-adv-x="763" 
d="M658 688l-22 -37.001c-26 20 -58.333 30 -97 30c-85.333 0 -128 -57.667 -128 -173v-28h272v-480h-48v441h-224v-441h-48v441h-231v-441h-48v441h-69v39h69v23c0 70 18.333 124.333 55 163c28.667 28.667 65.334 43 110.001 43c29.333 0 57.666 -8 84.999 -24l-18 -37
c-25.333 14 -49 21 -71 21c-31.333 0 -56 -10 -74 -30c-26 -28.667 -39 -75 -39 -139v-20h231v31c0 64 15.5 115 46.5 153s77.167 57 138.5 57c20 0 40.5 -3.16699 61.5 -9.5s37.167 -14.166 48.5 -23.499z" />
    <glyph glyph-name="f_f_l" unicode="ffl" horiz-adv-x="763" 
d="M334 688l-19 -36.999c-22 12 -45 18 -69 18c-31.333 0 -56.333 -10 -75 -30c-26 -28.667 -39 -74.667 -39 -138v-21h231v21c0 77.333 21.667 135.666 65 174.999c34 30 79.333 45 136 45c46 0 85.667 -8.66699 119 -26v-695h-48v666c-18.667 10 -45.667 15 -81 15
c-51.333 0 -88 -16 -110 -48s-33 -73.667 -33 -125v-28h128v-39h-128v-441h-48v441h-231v-441h-48v441h-69v39h69v14c0 78 18 135.333 54 172c28.667 28.667 66 43 112 43c30 0 58 -7 84 -21z" />
    <glyph glyph-name="f_i" unicode="fi" horiz-adv-x="484" 
d="M132 0l-48 -0.000976562v441h-69v39h69v31c0 64 15.5 115 46.5 153s76.833 57 137.5 57c20 0 40.5 -3.16699 61.5 -9.5s37.167 -14.166 48.5 -23.499l-22 -37c-26 20 -58.333 30 -97 30c-84.667 0 -127 -57.667 -127 -173v-28h271v-480h-48v441h-223v-441z" />
    <glyph glyph-name="f_l" unicode="fl" horiz-adv-x="484" 
d="M132 0l-47.998 0.000976562v441h-69v39h69v21c0 77.333 21.667 135.666 65 174.999c33.333 30 78.666 45 135.999 45c45.333 0 84.666 -8.66699 117.999 -26v-695h-48v666c-18.667 10 -45.667 15 -81 15c-50.667 0 -87 -16 -109 -48s-33 -73.667 -33 -125v-28h128v-39
h-128v-441z" />
    <glyph glyph-name=".notdef" horiz-adv-x="500" 
d="M0 0v700h500v-700h-500zM250 395l170 255h-340zM280 350l170 -255v510zM80 50h340l-170 255zM50 605v-510l170 255z" />
    <glyph glyph-name="space" unicode=" " horiz-adv-x="219" 
 />
    <glyph glyph-name="exclam" unicode="!" horiz-adv-x="207" 
d="M123 177h-40l-9 497h58zM102 -11c-11.333 0 -20.832 4.33301 -28.499 13s-11.167 19 -10.5 31c0 13.333 3.83301 24.166 11.5 32.499s17.5 12.5 29.5 12.5s21.667 -4.16699 29 -12.5s11 -19.166 11 -32.499c0 -12.667 -3.83301 -23.167 -11.5 -31.5
s-17.834 -12.5 -30.501 -12.5z" />
    <glyph glyph-name="quotedbl" unicode="&#x22;" horiz-adv-x="301" 
d="M60 692h57l-12 -221h-32zM183 692h57l-12 -221h-32z" />
    <glyph glyph-name="numbersign" unicode="#" horiz-adv-x="465" 
d="M167 245h112l20 165h-112zM136 0h-42l26 206h-83v39h88l21 165h-88v38h93l26 202h41l-26 -202h113l26 202h40l-25 -202h83v-38h-88l-21 -165h89v-38h-94l-26 -207h-41l26 207h-112z" />
    <glyph glyph-name="dollar" unicode="$" horiz-adv-x="488" 
d="M255 -84l-41.001 -0.000976562v103c-56.667 0 -104 15 -142 45l21 37c35.333 -28.667 78.333 -43 129 -43c39.333 0 71.333 11.333 96 34s37 51.334 37 86.001c0 31.333 -9.83301 57.833 -29.5 79.5s-48.834 41.167 -87.501 58.5
c-53.333 23.333 -92.666 47.5 -117.999 72.5s-38 56.833 -38 95.5c0 39.333 12.833 72.833 38.5 100.5s59.167 44.5 100.5 50.5v104h41v-103c46.667 -2 86.667 -14.333 120 -37l-21 -37c-32 23.333 -70.333 35 -115 35c-39.333 0 -69 -10.667 -89 -32
s-30 -45.666 -30 -72.999c0 -30 9.33301 -54.167 28 -72.5s51.334 -37.833 98.001 -58.5c50 -22.667 87.167 -47.834 111.5 -75.501s36.5 -62.167 36.5 -103.5c0 -39.333 -12.833 -74.333 -38.5 -105s-61.5 -49.667 -107.5 -57v-104z" />
    <glyph glyph-name="percent" unicode="%" horiz-adv-x="737" 
d="M175 661c40 0 72.333 -16.5 97 -49.5s37 -81.167 37 -144.5c0 -66 -13.167 -116.5 -39.5 -151.5s-59.833 -52.5 -100.5 -52.5c-38 0 -70.167 16.5 -96.5 49.5s-39.833 81.5 -40.5 145.5c0 66 14 116.333 42 151s61.667 52 101 52zM170 627
c-29.333 0 -52.499 -15.6689 -69.499 -47.002s-25.5 -70.666 -25.5 -117.999c-1.33301 -47.333 6.66699 -86.666 24 -117.999s41 -47 71 -47c32 0 56 15.333 72 46s24 71 24 121c0 48 -7.83301 87.167 -23.5 117.5s-39.834 45.5 -72.501 45.5zM193.001 -13.002h-39l388 676
h39zM571.001 391.998c40 0 72.333 -16.5 97 -49.5s37 -81.167 37 -144.5c0 -66 -13.167 -116.5 -39.5 -151.5s-59.833 -52.5 -100.5 -52.5c-38 0 -70.167 16.5 -96.5 49.5s-39.833 81.5 -40.5 145.5c0 66 14 116.333 42 151s61.667 52 101 52zM566.001 357.998
c-29.333 0 -52.5 -15.6689 -69.5 -47.002s-25.5 -70.666 -25.5 -117.999c-1.33301 -47.333 6.83398 -86.666 24.501 -117.999s41.167 -47 70.5 -47c32 0 56 15.333 72 46s24 71 24 121c0 48 -7.83301 87.167 -23.5 117.5s-39.834 45.5 -72.501 45.5z" />
    <glyph glyph-name="ampersand" unicode="&#x26;" horiz-adv-x="560" 
d="M559 0l-59.002 0.00195312l-36.5 37.5l-37.5 39.5c-60.667 -58.667 -129 -88 -205 -88c-54.667 0 -100 18 -136 54s-54 80.667 -54 134c0 82 44.333 148.333 133 199v3c-38.667 53.333 -58 102.666 -58 147.999c0 43.333 13.667 80.666 41 111.999s64.333 47 111 47
c36.667 0 67.334 -12.333 92.001 -37s37 -57 37 -97c0 -36.667 -12.167 -69.5 -36.5 -98.5s-64.833 -57.5 -121.5 -85.5v-3l197 -226c31.333 47.333 54.333 119.666 69 216.999h45c-19.333 -115.333 -48.666 -196.666 -87.999 -243.999zM232.998 28.002
c66 0 121.333 25.668 166 77.001c-12.667 15.333 -44 51 -94 107l-119 135c-72 -42.667 -108 -97.334 -108 -164.001c0 -44.667 14.667 -81.667 44 -111s66.333 -44 111 -44zM249.998 648.003c-31.333 0 -55.667 -11.167 -73 -33.5s-26 -49.833 -26 -82.5
c0 -41.333 18.333 -87 55 -137c45.333 24 79.333 47.5 102 70.5s34 50.5 34 82.5c0 27.333 -7.66699 50.833 -23 70.5s-38.333 29.5 -69 29.5z" />
    <glyph glyph-name="quotesingle" unicode="'" horiz-adv-x="178" 
d="M60 692h57l-12 -221h-32z" />
    <glyph glyph-name="parenleft" unicode="(" horiz-adv-x="265" 
d="M208 696h45c-93.333 -116 -140 -253.667 -140 -413c0 -150 46.667 -285.667 140 -407h-45c-94 117.333 -141 253.333 -141 408s47 292 141 412z" />
    <glyph glyph-name="parenright" unicode=")" horiz-adv-x="265" 
d="M57 -124h-45c93.333 120 140 257 140 411c0 152.667 -46.667 289 -140 409h45c94 -117.333 141 -254 141 -410c0 -153.333 -47 -290 -141 -410z" />
    <glyph glyph-name="asterisk" unicode="*" horiz-adv-x="391" 
d="M259 686l44 -25l-88 -123v-2l146 12v-47l-145 13v-3l88 -118l-46 -26l-63 131h-2l-69 -132l-39 26l87 120v3l-142 -14v47l141 -11v2l-86 120l44 26l65 -131h2z" />
    <glyph glyph-name="plus" unicode="+" horiz-adv-x="596" 
d="M277 532h43v-245h236v-40h-236v-247h-43v247h-236v40h236v245z" />
    <glyph glyph-name="comma" unicode="," horiz-adv-x="174" 
d="M64 -121l-38 -5.00098c8 21.333 17.5 54.333 28.5 99s18.833 82.334 23.5 113.001l63 10c-8.66699 -35.333 -21.5 -76.5 -38.5 -123.5s-29.833 -78.167 -38.5 -93.5z" />
    <glyph glyph-name="hyphen" unicode="-" horiz-adv-x="298" 
d="M30 296h238v-42h-238v42z" />
    <glyph glyph-name="period" unicode="." horiz-adv-x="174" 
d="M93 -11c-11.333 0 -20.832 4.50098 -28.499 13.501s-11.167 19.5 -10.5 31.5c0 13.333 3.83301 24.166 11.5 32.499s17.5 12.5 29.5 12.5s21.667 -4.16699 29 -12.5s11 -19.166 11 -32.499c0 -12.667 -3.83301 -23.334 -11.5 -32.001s-17.834 -13 -30.501 -13z" />
    <glyph glyph-name="slash" unicode="/" horiz-adv-x="351" 
d="M35 -39h-46l318 725h49z" />
    <glyph glyph-name="zero" unicode="0" horiz-adv-x="488" 
d="M251 661c60 0 108.001 -27.499 144.001 -82.499s54 -136.5 54 -244.5c0 -114 -18.833 -200 -56.5 -258s-89.834 -87 -156.501 -87c-55.333 0 -101.833 28 -139.5 84s-57.167 139 -58.5 249c0 111.333 20.5 195.666 61.5 252.999s91.5 86 151.5 86zM243.001 621.001
c-46 0 -83.5 -26.668 -112.5 -80.001s-43.5 -126.666 -43.5 -219.999c0 -90 14.167 -161.167 42.5 -213.5s65.833 -78.5 112.5 -78.5c52.667 0 92.167 27 118.5 81s39.5 127 39.5 219c0 90 -12.833 161.167 -38.5 213.5s-65.167 78.5 -118.5 78.5z" />
    <glyph glyph-name="one" unicode="1" horiz-adv-x="488" 
d="M236 0v601h-2l-106 -62l-12 38l123 73h44v-650h-47z" />
    <glyph glyph-name="two" unicode="2" horiz-adv-x="488" 
d="M433 0l-386.999 -0.00292969v30l60 62c98 96 165.833 170.167 203.5 222.5s56.5 104.833 56.5 157.5c0 42.667 -10.833 77.834 -32.5 105.501s-57.834 41.5 -108.501 41.5c-48.667 0 -94.667 -18.667 -138 -56l-19 33c48 43.333 103.333 65 166 65
c61.333 0 106.833 -18.333 136.5 -55s44.5 -78 44.5 -124c0 -59.333 -19.5 -116.666 -58.5 -171.999s-104.833 -128.666 -197.5 -219.999l-46 -47v-2h320v-41z" />
    <glyph glyph-name="three" unicode="3" horiz-adv-x="488" 
d="M46 33l19.002 37.999c14 -10 33.833 -19.333 59.5 -28s52.5 -13 80.5 -13c31.333 0 58.5 5 81.5 15s40.167 23 51.5 39s19.333 32 24 48s7 32 7 48c-0.666992 51.333 -19.5 89.666 -56.5 114.999s-82.167 38 -135.5 38h-41v40h44c41.333 0 78.833 11.5 112.5 34.5
s50.5 55.167 50.5 96.5c0 33.333 -10.333 61 -31 83s-52.334 33 -95.001 33c-44.667 0 -86.667 -15 -126 -45l-19 35c17.333 14 39.666 26 66.999 36s55.333 15 84 15c57.333 0 99.833 -14.667 127.5 -44s41.5 -65 41.5 -107c0 -33.333 -10.5 -63.666 -31.5 -90.999
s-50.833 -48.333 -89.5 -63v-2c42.667 -8.66699 77.834 -28.167 105.501 -58.5s41.5 -68.166 41.5 -113.499c0 -52.667 -18.833 -98 -56.5 -136s-91.834 -57 -162.501 -57c-62.667 0 -113.667 14.667 -153 44z" />
    <glyph glyph-name="four" unicode="4" horiz-adv-x="488" 
d="M366 0h-46v191h-310v32l317 427h39v-419h99v-40h-99v-191zM67 231h253v263c0 30.667 1 60.667 3 90l-3 1c-14 -26 -31 -53.333 -51 -82l-202 -270v-2z" />
    <glyph glyph-name="five" unicode="5" horiz-adv-x="488" 
d="M406 650v-42h-245l-32 -208c20 2.66699 40 4 60 4c45.333 0 85.666 -9.33301 120.999 -28c28 -14 51.833 -35.667 71.5 -65s29.5 -64 29.5 -104c0 -64 -21.167 -116.333 -63.5 -157s-94.166 -61 -155.499 -61c-62.667 0 -112.667 14 -150 42l19 38
c38 -26 82.667 -39 134 -39c47.333 0 87.333 15.833 120 47.5s48.667 71.834 48 120.501c-0.666992 49.333 -16.667 89.166 -48 119.499s-78 45.5 -140 45.5c-35.333 0 -66.333 -2.33301 -93 -7l42 294h282z" />
    <glyph glyph-name="six" unicode="6" horiz-adv-x="488" 
d="M391 661l0.00195312 -44c-26 0 -49.667 -2.33301 -71 -7c-67.333 -14 -121.333 -46.833 -162 -98.5s-64.334 -111.167 -71.001 -178.5h2c16.667 26 39.667 47.667 69 65s62.666 26 99.999 26c58.667 0 105.5 -19.5 140.5 -58.5s52.5 -89.167 52.5 -150.5
c0 -60.667 -18 -113.5 -54 -158.5s-85.333 -67.5 -148 -67.5c-61.333 0 -112 24 -152 72s-60 115 -60 201c0 122.667 35.667 221 107 295c47.333 50.667 108 82.667 182 96c21.333 5.33301 43 8 65 8zM252.002 29c44 0 80 16.666 108 49.999s42 77.333 42 132
c0 55.333 -14.5 97.833 -43.5 127.5s-66.5 44.5 -112.5 44.5c-30.667 0 -59.5 -8.5 -86.5 -25.5s-48.167 -39.833 -63.5 -68.5c-7.33301 -13.333 -11 -26 -11 -38c0 -67.333 14.667 -121.166 44 -161.499s70.333 -60.5 123 -60.5z" />
    <glyph glyph-name="seven" unicode="7" horiz-adv-x="488" 
d="M62 650h380v-35l-293 -615h-47l290 607v2h-330v41z" />
    <glyph glyph-name="eight" unicode="8" horiz-adv-x="488" 
d="M177 343l-1.00098 3.99902c-73.333 31.333 -110 80.333 -110 147c0 48.667 17.667 88.667 53 120s79.333 47 132 47s94.667 -15.167 126 -45.5s47 -67.166 47 -110.499c0 -69.333 -38.333 -121.333 -115 -156v-4c92 -36 138 -93.333 138 -172
c0 -53.333 -20.167 -97.333 -60.5 -132s-88.166 -52 -143.499 -52c-58 0 -106.167 16.5 -144.5 49.5s-57.5 74.167 -57.5 123.5c0 82 45.333 142.333 136 181zM242.999 28.999c46.667 0 84.166 12.833 112.499 38.5s42.5 58.5 42.5 98.5c0 43.333 -13.667 77.333 -41 102
s-69.333 45 -126 61c-45.333 -13.333 -80.166 -33.833 -104.499 -61.5s-36.5 -59.5 -36.5 -95.5c-2 -40 11 -73.833 39 -101.5s66 -41.5 114 -41.5zM245.998 621.999c-41.333 0 -73.835 -11.666 -97.502 -34.999s-35.5 -52 -35.5 -86
c-0.666992 -37.333 11.333 -66.833 36 -88.5s60.334 -38.5 107.001 -50.5c79.333 27.333 119 73.666 119 138.999c0 33.333 -10.667 61.833 -32 85.5s-53.666 35.5 -96.999 35.5z" />
    <glyph glyph-name="nine" unicode="9" horiz-adv-x="488" 
d="M100 -11l0.000976562 44.002c18 -2 42.667 -0.333008 74 5c55.333 9.33301 102.666 34.666 141.999 75.999c46.667 51.333 76 120 88 206l-3 -1c-43.333 -56 -99.333 -84 -168 -84c-58 0 -103.5 19.167 -136.5 57.5s-49.5 84.833 -49.5 139.5c0 62 19.5 115.667 58.5 161
s89.167 68 150.5 68c57.333 0 104.333 -23.833 141 -71.5s55 -114.167 55 -199.5c0 -130.667 -37.333 -233.334 -112 -308.001c-42.667 -44.667 -93.334 -72.667 -152.001 -84c-35.333 -7.33301 -64.666 -10.333 -87.999 -9zM246.001 621.002
c-44 0 -80.165 -17.502 -108.498 -52.502s-42.5 -79.5 -42.5 -133.5c0 -48 13.5 -86.5 40.5 -115.5s62.167 -43.5 105.5 -43.5c33.333 0 63.666 7.83301 90.999 23.5s48.666 35.834 63.999 60.501c5.33301 10.667 8 20.334 8 29.001c0 71.333 -13.333 127.833 -40 169.5
s-66 62.5 -118 62.5z" />
    <glyph glyph-name="colon" unicode=":" horiz-adv-x="174" 
d="M93 361c-11.333 0 -20.832 4.50098 -28.499 13.501s-11.167 19.5 -10.5 31.5c0 13.333 3.83301 24.166 11.5 32.499s17.5 12.5 29.5 12.5s21.667 -4.16699 29 -12.5s11 -19.166 11 -32.499c0 -12.667 -3.83301 -23.334 -11.5 -32.001s-17.834 -13 -30.501 -13z
M93.001 -10.999c-11.333 0 -20.832 4.50098 -28.499 13.501s-11.167 19.5 -10.5 31.5c0 13.333 3.83301 24.166 11.5 32.499s17.5 12.5 29.5 12.5s21.667 -4.16699 29 -12.5s11 -19.166 11 -32.499c0 -12.667 -3.83301 -23.334 -11.5 -32.001s-17.834 -13 -30.501 -13z" />
    <glyph glyph-name="semicolon" unicode=";" horiz-adv-x="174" 
d="M64 -121l-38 -5.00195c8 21.333 17.5 54.333 28.5 99s18.833 82.334 23.5 113.001l62 10c-8 -34.667 -20.5 -75.667 -37.5 -123s-29.833 -78.666 -38.5 -93.999zM102 360.998c-11.333 0 -20.832 4.50098 -28.499 13.501s-11.167 19.5 -10.5 31.5
c0 13.333 3.83301 24.166 11.5 32.499s17.5 12.5 29.5 12.5s21.667 -4.16699 29 -12.5s11 -19.166 11 -32.499c0 -12.667 -3.83301 -23.334 -11.5 -32.001s-17.834 -13 -30.501 -13z" />
    <glyph glyph-name="less" unicode="&#x3c;" horiz-adv-x="596" 
d="M71 249v35l454 248v-46l-408 -219v-2l408 -218v-47z" />
    <glyph glyph-name="equal" unicode="=" horiz-adv-x="596" 
d="M556 345h-516v40h516v-40zM556 155h-516v40h516v-40z" />
    <glyph glyph-name="greater" unicode="&#x3e;" horiz-adv-x="596" 
d="M525 284v-35l-454 -249v47l408 218v2l-408 219v46z" />
    <glyph glyph-name="question" unicode="?" horiz-adv-x="381" 
d="M188 175h-44.999l-3 26c-8.66699 58.667 12.666 119.667 63.999 183c27.333 32 47 59.833 59 83.5s18 48.167 18 73.5c0 31.333 -9.33301 56.166 -28 74.499s-45.667 27.5 -81 27.5c-41.333 0 -75.333 -10.667 -102 -32l-18 35c34 26.667 77 40 129 40
c48.667 0 86 -13.833 112 -41.5s39 -61.167 39 -100.5c0 -29.333 -6.83301 -57.166 -20.5 -83.499s-35.5 -57.5 -65.5 -93.5c-44.667 -54.667 -64.667 -108.667 -60 -162zM163.001 -11c-11.333 0 -20.832 4.50098 -28.499 13.501s-11.167 19.5 -10.5 31.5
c0 13.333 3.83301 24.166 11.5 32.499s17.5 12.5 29.5 12.5s21.667 -4.16699 29 -12.5s11 -19.166 11 -32.499c0 -12.667 -3.83301 -23.334 -11.5 -32.001s-17.834 -13 -30.501 -13z" />
    <glyph glyph-name="at" unicode="@" horiz-adv-x="717" 
d="M451 258l26 124.001c-16 6.66699 -36.667 10 -62 10c-50.667 0 -94.167 -20.167 -130.5 -60.5s-54.5 -88.5 -54.5 -144.5c0 -24.667 6.66699 -44.834 20 -60.501s32.333 -23.5 57 -23.5c32.667 0 63.167 17 91.5 51s45.833 68.667 52.5 104zM496 -27.999l13.999 -35
c-48.667 -28 -106.667 -42 -174 -42c-84 0 -154.667 28.667 -212 86s-86 132.666 -86 225.999c0 106.667 33.333 197.667 100 273s153.334 113 260.001 113c85.333 0 153.833 -27.167 205.5 -81.5s77.5 -123.5 77.5 -207.5c0 -72.667 -17 -130.5 -51 -173.5
s-73.667 -64.5 -119 -64.5c-20 0 -37 8 -51 24s-19.333 39.333 -16 70h-4c-37.333 -62.667 -87 -94 -149 -94c-28.667 0 -53.334 11.167 -74.001 33.5s-31 51.833 -31 88.5c0 64 23.167 120.167 69.5 168.5s102.5 72.5 168.5 72.5c36.667 0 70 -6.33301 100 -19l-36 -179
c-17.333 -84.667 -6.33301 -127 33 -127c29.333 -1.33301 55.833 16.167 79.5 52.5s35.5 82.5 35.5 138.5c0 78.667 -21.667 141.834 -65 189.501s-103.333 71.5 -180 71.5c-86.667 0 -159.667 -31.833 -219 -95.5s-89 -147.167 -89 -250.5c0 -82 24.333 -148.5 73 -199.5
s110.334 -76.5 185.001 -76.5c62 0 113.667 12.667 155 38z" />
    <glyph glyph-name="A" unicode="A" horiz-adv-x="585" 
d="M428 236h-266l-83 -236h-49l244 674h46l242 -674h-49zM177 276l237 -0.000976562l-82 225c-13.333 36.667 -25 76.334 -35 119.001h-3c-7.33301 -32.667 -19 -71.667 -35 -117z" />
    <glyph glyph-name="B" unicode="B" horiz-adv-x="505" 
d="M81 1l-0.000976562 663c42 10 87.333 15 136 15c80.667 0 139.334 -18.667 176.001 -56c28 -27.333 42 -64 42 -110c0 -34 -10.833 -64.5 -32.5 -91.5s-49.5 -46.5 -83.5 -58.5v-3c36 -8 68.833 -26.333 98.5 -55s44.5 -67.667 44.5 -117
c0 -50.667 -16.667 -93.667 -50 -129c-42.667 -42.667 -114 -64 -214 -64c-24 0 -63 2 -117 6zM128.999 632l-0.000976562 -254h98c48 0 86.5 12.5 115.5 37.5s43.5 56.5 43.5 94.5c0 86 -57.333 129 -172 129c-39.333 0 -67.666 -2.33301 -84.999 -7zM128.998 339
l-0.00195312 -299c16.667 -3.33301 44.334 -5 83.001 -5c58 0 105.833 12 143.5 36s56.5 62.667 56.5 116c0 50 -18.667 87.833 -56 113.5s-84.666 38.5 -141.999 38.5h-85z" />
    <glyph glyph-name="C" unicode="C" horiz-adv-x="570" 
d="M524 62l14 -37.999c-45.333 -22.667 -106 -34 -182 -34c-42 0 -81.667 6.83301 -119 20.5s-71.166 34 -101.499 61s-54.333 63 -72 108s-26.5 96.167 -26.5 153.5c0 102 31 186.167 93 252.5s145 99.5 249 99.5c67.333 0 119.333 -10 156 -30l-15 -40
c-38.667 19.333 -85.334 29 -140.001 29c-91.333 0 -163 -27.833 -215 -83.5s-78 -131.834 -78 -228.501c0 -92.667 25.167 -166 75.5 -220s120.166 -81 209.499 -81c58.667 0 109.334 10.333 152.001 31z" />
    <glyph glyph-name="D" unicode="D" horiz-adv-x="647" 
d="M81 1v663c58 10 115.667 15 173 15c123.333 0 214 -30.667 272 -92c56 -58 84 -136 84 -234c0 -105.333 -29.333 -190.333 -88 -255c-62 -68.667 -159 -103 -291 -103c-60.667 0 -110.667 2 -150 6zM129 628l0.00195312 -587.999c22.667 -3.33301 59 -5 109 -5
c106 0 186.333 27.833 241 83.5s82 133.167 82 232.5c1.33301 89.333 -23.834 159.666 -75.501 210.999s-129.834 77 -234.501 77c-46 0 -86.667 -3.66699 -122 -11z" />
    <glyph glyph-name="E" unicode="E" horiz-adv-x="466" 
d="M398 375v-40h-269v-295h301v-40h-349v674h333v-40h-285v-259h269z" />
    <glyph glyph-name="F" unicode="F" horiz-adv-x="462" 
d="M81 0v674h333v-40h-285v-268h262v-40h-262v-326h-48z" />
    <glyph glyph-name="G" unicode="G" horiz-adv-x="624" 
d="M565 334v-303.999c-60 -24.667 -125.667 -37 -197 -37c-97.333 0 -176.666 29.333 -237.999 88c-28.667 28 -51.334 64.167 -68.001 108.5s-25 92.833 -25 145.5c0 98 31.167 180.167 93.5 246.5s148.5 99.5 258.5 99.5c64.667 0 117 -10 157 -30l-16 -40
c-40 19.333 -88 29 -144 29c-92 0 -164.833 -27.5 -218.5 -82.5s-80.5 -128.5 -80.5 -220.5c0 -94.667 25.833 -168.834 77.5 -222.501s122.167 -80.5 211.5 -80.5c64.667 0 111.667 7.66699 141 23v238h-156v39h204z" />
    <glyph glyph-name="H" unicode="H" horiz-adv-x="630" 
d="M81 674h48v-297h372v297h48v-674h-48v337h-372v-337h-48v674z" />
    <glyph glyph-name="I" unicode="I" horiz-adv-x="211" 
d="M81 674h48v-674h-48v674z" />
    <glyph glyph-name="J" unicode="J" horiz-adv-x="345" 
d="M223 219v455.001h48v-466c0 -146 -60.667 -219 -182 -219c-32 0 -59.333 5.33301 -82 16l10 38c21.333 -8.66699 45 -13 71 -13c46 0 80 13.667 102 41s33 76.666 33 147.999z" />
    <glyph glyph-name="K" unicode="K" horiz-adv-x="498" 
d="M81 0v674.001h48v-341h3c12 15.333 31.333 38.666 58 69.999l239 271h58l-256 -286l280 -388h-57l-256 355l-69 -76v-279h-48z" />
    <glyph glyph-name="L" unicode="L" horiz-adv-x="448" 
d="M81 0v674h48v-634h300v-40h-348z" />
    <glyph glyph-name="M" unicode="M" horiz-adv-x="778" 
d="M670 0l-20.001 320.002c-9.33301 157.333 -14 256.666 -14 297.999h-2c-33.333 -96.667 -63.666 -180.334 -90.999 -251.001l-142 -367h-33l-133 358c-44 122 -73 208.667 -87 260h-2c-2.66699 -101.333 -7.66699 -204 -15 -308l-21 -310h-47l49 674h55l145 -388
c31.333 -83.333 56 -156.333 74 -219h3c12.667 47.333 37.667 120 75 218l151 389h57l45 -674h-47z" />
    <glyph glyph-name="N" unicode="N" horiz-adv-x="638" 
d="M128 0l-45.999 0.000976562v674h45l262 -398c57.333 -88 99.666 -158.667 126.999 -212l2 1c-5.33301 69.333 -8 160.666 -8 273.999v335h46v-674h-44l-257 392c-65.333 102 -109 174.667 -131 218l-2 -1c4 -66.667 6 -156 6 -268v-341z" />
    <glyph glyph-name="O" unicode="O" horiz-adv-x="671" 
d="M340 686c86 0 156.499 -31.167 211.499 -93.5s82.5 -145.166 82.5 -248.499c0 -112.667 -29.333 -200 -88 -262s-130 -93 -214 -93c-84.667 0 -155 31.167 -211 93.5s-84 145.166 -84 248.499c0 108 28.833 194.167 86.5 258.5s129.834 96.5 216.501 96.5zM336.999 646
c-54.667 0 -101.334 -15.5 -140.001 -46.5s-66.667 -69.667 -84 -116s-26 -96.833 -26 -151.5c0 -81.333 22.333 -152.166 67 -212.499s105 -90.5 181 -90.5c76.667 0 137.334 30.167 182.001 90.5s67 134.166 67 221.499c0 50 -8.5 97.5 -25.5 142.5
s-44.833 83.333 -83.5 115s-84.667 47.5 -138 47.5z" />
    <glyph glyph-name="P" unicode="P" horiz-adv-x="502" 
d="M81 0l0.000976562 666c48 8.66699 96.333 13 145 13c79.333 0 138.666 -19 177.999 -57c34.667 -32.667 52 -76.667 52 -132s-15.667 -100.333 -47 -135c-44 -50 -110 -75 -198 -75c-36.667 0 -64 2.66699 -82 8v-288h-48zM129.001 631v-300.999
c19.333 -6.66699 48 -10 86 -10c61.333 0 108.833 14.167 142.5 42.5s50.5 69.166 50.5 122.499c0 51.333 -16.667 89.833 -50 115.5s-78 38.5 -134 38.5c-39.333 0 -71 -2.66699 -95 -8z" />
    <glyph glyph-name="Q" unicode="Q" horiz-adv-x="671" 
d="M641 -44l-14.999 -44.002c-86 20.667 -170.333 43.334 -253 68.001c-20.667 6 -33.334 9 -38.001 9c-86 2 -157.167 33.167 -213.5 93.5s-84.5 142.833 -84.5 247.5c0 109.333 28.667 196 86 260s130 96 218 96c86 0 156.333 -31.167 211 -93.5s82 -145.166 82 -248.499
c0 -90 -19 -163.667 -57 -221s-90 -96.333 -156 -117v-4c110.667 -24.667 184 -40 220 -46zM334.001 28.998c77.333 0 138.332 30.1689 182.999 90.502s67 134.166 67 221.499c0 36.667 -5 72.667 -15 108s-24.667 67.833 -44 97.5s-45.166 53.667 -77.499 72
s-68.5 27.5 -108.5 27.5c-41.333 0 -78.5 -9 -111.5 -27s-59.5 -42 -79.5 -72s-35.167 -63.333 -45.5 -100s-15.5 -75.334 -15.5 -116.001c0 -81.333 22.333 -152 67 -212s104.667 -90 180 -90z" />
    <glyph glyph-name="R" unicode="R" horiz-adv-x="505" 
d="M81 0l-0.000976562 664.003c42 10 90.667 15 146 15c83.333 0 144 -19 182 -57c31.333 -29.333 47 -69 47 -119c0 -86.667 -44 -145.334 -132 -176.001v-2c52.667 -16.667 87.334 -64.334 104.001 -143.001c21.333 -98.667 38 -159.334 50 -182.001h-49
c-8.66699 16 -23 70.667 -43 164c-10.667 49.333 -27.667 85.333 -51 108s-57 35 -101 37h-105v-309h-48zM128.999 631.003l-0.000976562 -283.001h107c52 0 93.667 13.333 125 40s47 62.334 47 107.001c0 49.333 -16.333 85.833 -49 109.5s-77 35.5 -133 35.5
c-39.333 0 -71.666 -3 -96.999 -9z" />
    <glyph glyph-name="S" unicode="S" horiz-adv-x="464" 
d="M42 35l17.9971 39c42.667 -29.333 91.667 -44 147 -44c50 0 89.667 12.833 119 38.5s44 59.5 44 101.5c0 38 -10.5 69 -31.5 93s-56.167 45.667 -105.5 65c-115.333 40.667 -173 102.667 -173 186c0 49.333 18.333 90.166 55 122.499s83.667 48.5 141 48.5
c58.667 0 103.334 -10.667 134.001 -32l-18 -40c-29.333 21.333 -69 32 -119 32c-49.333 0 -86 -12.667 -110 -38s-36 -53.666 -36 -84.999c0 -36.667 10.833 -66.167 32.5 -88.5s57.5 -43.166 107.5 -62.499c58.667 -24 101.667 -50.667 129 -80s41 -68 41 -116
c0 -52.667 -18.5 -96.834 -55.5 -132.501s-89.833 -53.5 -158.5 -53.5c-29.333 0 -59.166 4.33301 -89.499 13s-54.166 19.667 -71.499 33z" />
    <glyph glyph-name="T" unicode="T" horiz-adv-x="465" 
d="M209 0v634h-220v40h488v-40h-220v-634h-48z" />
    <glyph glyph-name="U" unicode="U" horiz-adv-x="626" 
d="M81 674l47.999 0.00195312v-407c0 -80.667 16.5 -140.334 49.5 -179.001s76.167 -58 129.5 -58c58.667 0 104.834 19.667 138.501 59s50.5 98.666 50.5 177.999v407h48v-402c0 -97.333 -22.333 -168.833 -67 -214.5s-102 -68.5 -172 -68.5c-66 0 -120 21.833 -162 65.5
s-63 113.5 -63 209.5v410z" />
    <glyph glyph-name="V" unicode="V" horiz-adv-x="509" 
d="M269 0h-45l-224 674h50l119 -361c40.667 -124 67 -210 79 -258h3c15.333 57.333 44 143.333 86 258l131 361h51z" />
    <glyph glyph-name="W" unicode="W" horiz-adv-x="820" 
d="M238 0h-45.001l-178 674h49l98 -380c30 -119.333 48.667 -196.333 56 -231h2c8 44.667 28.667 121.667 62 231l110 380h46l100 -377c28.667 -107.333 47 -185.333 55 -234h2c6.66699 34 27 111.333 61 232l111 379h49l-202 -674h-46l-101 388
c-27.333 100 -44.666 176 -51.999 228h-2c-8.66699 -48 -28.667 -124 -60 -228z" />
    <glyph glyph-name="X" unicode="X" horiz-adv-x="546" 
d="M515 0h-55l-102 166c-37.333 56 -67 102.667 -89 140h-2c-28 -49.333 -56.333 -96.333 -85 -141l-97 -165h-55l214 341l-205 333h54l109 -180c28.667 -45.333 51.667 -84 69 -116h2c8 15.333 31.667 54 71 116l113 180h56l-215 -328z" />
    <glyph glyph-name="Y" unicode="Y" horiz-adv-x="503" 
d="M277 0l-48.001 -0.00195312v292l-214 382h53l111 -201c34.667 -63.333 60.334 -111.666 77.001 -144.999h2c8 18.667 34 67.334 78 146.001l115 200h53l-227 -383v-291z" />
    <glyph glyph-name="Z" unicode="Z" horiz-adv-x="539" 
d="M34 0v31l406 600v3h-373v40h434v-32l-407 -599v-3h412v-40h-472z" />
    <glyph glyph-name="bracketleft" unicode="[" horiz-adv-x="265" 
d="M260 -112h-170v798h170v-37h-127v-724h127v-37z" />
    <glyph glyph-name="backslash" unicode="\" horiz-adv-x="348" 
d="M359 -39h-48l-316 725h48z" />
    <glyph glyph-name="bracketright" unicode="]" horiz-adv-x="265" 
d="M6 686h170v-798h-170v37h126v724h-126v37z" />
    <glyph glyph-name="asciicircum" unicode="^" horiz-adv-x="596" 
d="M525 196h-46l-179 408h-2l-180 -408h-46l205 454h43z" />
    <glyph glyph-name="underscore" unicode="_" horiz-adv-x="500" 
d="M0 -75h500v-50h-500v50z" />
    <glyph glyph-name="grave" unicode="`" 
d="M33 688h70l89 -138h-37z" />
    <glyph glyph-name="a" unicode="a" horiz-adv-x="454" 
d="M380 302l-0.00195312 -188c0 -47.333 2.33301 -85.333 7 -114h-44l-7 69h-2c-14 -21.333 -34.333 -40 -61 -56s-57.667 -24 -93 -24c-45.333 0 -80.166 13.167 -104.499 39.5s-36.5 57.166 -36.5 92.499c0 56.667 24.833 100.334 74.5 131.001s122.5 45.667 218.5 45v13
c0 94.667 -41 141.667 -123 141c-47.333 0 -87.666 -12 -120.999 -36l-15 35c41.333 27.333 88.333 41 141 41c110.667 0 166 -63 166 -189zM331.998 154l0.000976562 102.998c-162 4.66699 -243 -38 -243 -128c0 -32.667 9.16699 -57.5 27.5 -74.5
s41.166 -25.5 68.499 -25.5c37.333 0 68 9.33301 92 28s40.667 41.334 50 68.001c3.33301 8.66699 5 18.334 5 29.001z" />
    <glyph glyph-name="b" unicode="b" horiz-adv-x="552" 
d="M80 112l-0.000976562 598h48v-320h2c34.667 67.333 93 101 175 101c60.667 0 110.167 -23 148.5 -69s57.5 -105 57.5 -177c0 -80.667 -21.333 -143.5 -64 -188.5s-92.667 -67.5 -150 -67.5c-77.333 0 -134.666 32.667 -171.999 98h-2l-4 -87h-43
c2.66699 30 4 67.333 4 112zM127.999 281l-0.000976562 -95.999c0 -12.667 1.33301 -24.334 4 -35.001c10.667 -36.667 30.334 -66 59.001 -88s61.667 -33 99 -33c54 0 96.333 19.833 127 59.5s46 91.5 46 155.5c0 58 -15.167 107 -45.5 147s-71.5 60 -123.5 60
c-36 0 -68.833 -11.5 -98.5 -34.5s-50.167 -54.167 -61.5 -93.5c-4 -16 -6 -30 -6 -42z" />
    <glyph glyph-name="c" unicode="c" horiz-adv-x="446" 
d="M399 59l12.999 -38c-43.333 -20.667 -90.333 -31 -141 -31c-68.667 0 -124.167 22.667 -166.5 68s-63.5 104.333 -63.5 177c0 75.333 23.167 136.833 69.5 184.5s105.5 71.5 177.5 71.5c56 0 98 -10 126 -30l-17 -39c-33.333 18.667 -71 28 -113 28
c-61.333 0 -109.166 -20.333 -143.499 -61s-51.5 -90.667 -51.5 -150c0 -62.667 17.667 -113 53 -151s81 -57 137 -57c39.333 0 79.333 9.33301 120 28z" />
    <glyph glyph-name="d" unicode="d" horiz-adv-x="544" 
d="M416 710l48 -0.000976562v-598c0 -44.667 1.33301 -82 4 -112h-43l-4 91h-2c-14 -29.333 -35.5 -53.666 -64.5 -72.999s-64.5 -29 -106.5 -29c-60 0 -109.5 22.5 -148.5 67.5s-58.5 103.167 -58.5 174.5c-0.666992 78 20 140.833 62 188.5s93.333 71.5 154 71.5
c38.667 0 71.5 -8.33301 98.5 -25s46.5 -36.667 58.5 -60h2v304zM416 193.999v96c0 18.667 -1.66699 33.334 -5 44.001c-8.66699 33.333 -26.5 61.166 -53.5 83.499s-59.5 33.5 -97.5 33.5c-52 0 -93.5 -20.167 -124.5 -60.5s-46.5 -91.833 -46.5 -154.5
c0 -58 14.5 -107 43.5 -147s70.5 -60 124.5 -60c35.333 0 67.333 11.167 96 33.5s48 52.833 58 91.5c3.33301 10.667 5 24 5 40z" />
    <glyph glyph-name="e" unicode="e" horiz-adv-x="485" 
d="M442 245h-353.998c0 -72.667 17 -126.5 51 -161.5s78 -52.5 132 -52.5c51.333 0 95.666 9 132.999 27l12 -37c-37.333 -20.667 -87.666 -31 -150.999 -31c-68 0 -122.333 22.333 -163 67s-61 102.667 -61 174c0 78.667 20.167 141.667 60.5 189s92.166 71 155.499 71
c30 0 56.5 -5.33301 79.5 -16s41.167 -24 54.5 -40s24.166 -34.333 32.499 -55s13.833 -39.5 16.5 -56.5s4 -33.5 4 -49.5c0 -13.333 -0.666992 -23 -2 -29zM90.002 283h304c0 18.667 -2 37 -6 55s-11 35.833 -21 53.5s-25 32 -45 43s-43.667 16.5 -71 16.5
c-48 0 -85.5 -17 -112.5 -51s-43.167 -73 -48.5 -117z" />
    <glyph glyph-name="f" unicode="f" horiz-adv-x="262" 
d="M132 0l-48.0029 -0.000976562v441h-69v39h69v26c0 80 17.667 137.667 53 173c28.667 28 64.334 42 107.001 42c28 0 52 -5.33301 72 -16l-15 -37c-17.333 8.66699 -37.666 13 -60.999 13c-41.333 0 -69.666 -15.667 -84.999 -47s-23 -73.666 -23 -126.999v-27h128v-39
h-128v-441z" />
    <glyph glyph-name="g" unicode="g" horiz-adv-x="544" 
d="M464 356l0.000976562 -286c0 -106 -22 -180 -66 -222c-40 -38 -94.333 -57 -163 -57c-64.667 0 -115.667 14 -153 42l17 38c41.333 -26.667 89 -40 143 -40c116 0 174 64.667 174 194v68h-2c-14 -26.667 -35.167 -48.834 -63.5 -66.501s-62.833 -26.5 -103.5 -26.5
c-60 0 -109.333 22.667 -148 68s-58 101.333 -58 168c0 78.667 21.667 140.834 65 186.501s93.666 68.5 150.999 68.5c77.333 0 131.333 -30.667 162 -92h2l3 81h44c-2.66699 -32 -4 -73.333 -4 -124zM416.001 199l0.000976562 95.998c0 20 -2 35.667 -6 47
c-10.667 31.333 -28.834 57.333 -54.501 78s-57.167 31 -94.5 31c-51.333 0 -92.833 -19.167 -124.5 -57.5s-47.5 -89.166 -47.5 -152.499c0 -57.333 14.833 -105.166 44.5 -143.499s71.5 -57.5 125.5 -57.5c33.333 0 63.5 9.5 90.5 28.5s46.5 45.5 58.5 79.5
c5.33301 17.333 8 34.333 8 51z" />
    <glyph glyph-name="h" unicode="h" horiz-adv-x="536" 
d="M81 0l0.00292969 710.003h48v-316h2c15.333 30 37 53 65 69c29.333 18.667 61.666 28 96.999 28c11.333 0 23 -1.16699 35 -3.5s26.333 -7.83301 43 -16.5s31.167 -19.834 43.5 -33.501s23 -33.334 32 -59.001s13.5 -55.5 13.5 -89.5v-289h-48v284
c0 48 -10.5 87.5 -31.5 118.5s-54.5 46.5 -100.5 46.5c-32.667 0 -62.334 -10.333 -89.001 -31s-45.334 -46.334 -56.001 -77.001c-4 -12 -6 -28 -6 -48v-293h-48z" />
    <glyph glyph-name="i" unicode="i" horiz-adv-x="209" 
d="M129 0h-48v480h48v-480zM105 659c10.667 0 19.666 -4.16699 26.999 -12.5s11 -18.166 11 -29.499s-3.66699 -21 -11 -29s-17 -12 -29 -12c-10.667 0 -19.5 4 -26.5 12s-10.5 17.667 -10.5 29s3.83301 21.166 11.5 29.499s16.834 12.5 27.501 12.5z" />
    <glyph glyph-name="j" unicode="j" horiz-adv-x="214" 
d="M-42 -209l-6.99902 38.999c45.333 2 78.666 15.333 99.999 40c13.333 16 22.666 37.333 27.999 64s8 70.334 8 131.001v415h48v-447c0 -46 -3.66699 -83.833 -11 -113.5s-20.666 -55.167 -39.999 -76.5c-30.667 -32.667 -72.667 -50 -126 -52zM112.001 658.999
c10.667 0 19.5 -4.16699 26.5 -12.5s10.5 -18.166 10.5 -29.499s-3.5 -21 -10.5 -29s-16.833 -12 -29.5 -12c-10.667 0 -19.5 4.16699 -26.5 12.5s-10.5 17.833 -10.5 28.5c0 11.333 3.83301 21.166 11.5 29.499s17.167 12.5 28.5 12.5z" />
    <glyph glyph-name="k" unicode="k" horiz-adv-x="423" 
d="M128 710v-461h2c14 18 29.333 35.667 46 53l170 178h58l-194 -199l221 -281h-58l-196 252l-49 -52v-200h-48v710h48z" />
    <glyph glyph-name="l" unicode="l" horiz-adv-x="212" 
d="M81 0v710h48v-710h-48z" />
    <glyph glyph-name="m" unicode="m" horiz-adv-x="819" 
d="M81 0v364.998c0 42.667 -1.33301 81 -4 115h45l3 -85h2c36 64 88 96 156 96c32 0 60.333 -9.66699 85 -29s42.334 -44.666 53.001 -75.999h2c11.333 26 27.666 47.667 48.999 65c32 26.667 70 40 114 40c11.333 0 22.833 -1.33301 34.5 -4s25.167 -8.33398 40.5 -17.001
s28.833 -20.167 40.5 -34.5s21.5 -34.666 29.5 -60.999s12 -56.833 12 -91.5v-283h-48v278c0 54.667 -10.667 97 -32 127s-52.333 45 -93 45c-28.667 0 -54.334 -9.16699 -77.001 -27.5s-39 -40.833 -49 -67.5c-5.33301 -18.667 -8 -34.334 -8 -47.001v-308h-48v300
c0 44.667 -10.333 80.834 -31 108.501s-50 41.5 -88 41.5c-30.667 0 -58.167 -10.5 -82.5 -31.5s-41.166 -46.5 -50.499 -76.5c-4.66699 -15.333 -7 -30.666 -7 -45.999v-296h-48z" />
    <glyph glyph-name="n" unicode="n" horiz-adv-x="536" 
d="M81 0l0.00195312 365.001c0 42.667 -1.33301 81 -4 115h45l3 -87h2c13.333 28.667 34.833 52.167 64.5 70.5s63.167 27.5 100.5 27.5c11.333 0 23.166 -1.16699 35.499 -3.5s26.833 -7.83301 43.5 -16.5s31.167 -19.834 43.5 -33.501s23 -33.5 32 -59.5
s13.5 -56 13.5 -90v-288h-48v284c0 48.667 -10.667 88.5 -32 119.5s-55 46.5 -101 46.5c-32.667 0 -62.334 -10.5 -89.001 -31.5s-45 -47.167 -55 -78.5c-4 -16 -6 -30.333 -6 -43v-297h-48z" />
    <glyph glyph-name="o" unicode="o" horiz-adv-x="532" 
d="M268 491c66.667 0 120.5 -22.6689 161.5 -68.002s61.5 -104.666 61.5 -177.999c0 -82.667 -23.167 -146 -69.5 -190s-99.833 -66 -160.5 -66c-63.333 0 -115.833 22.667 -157.5 68s-62.5 105 -62.5 179c0 78.667 22.167 140.834 66.5 186.501s97.833 68.5 160.5 68.5z
M267 450.998c-57.333 0 -101.333 -20.9961 -132 -62.9961s-46 -91.667 -46 -149c0 -60 16.833 -110 50.5 -150s75.167 -60 124.5 -60c50.667 0 93.167 20.167 127.5 60.5s51.5 91.166 51.5 152.499c0 23.333 -3.33301 46.666 -10 69.999s-16.667 45.666 -30 66.999
s-31.833 38.666 -55.5 51.999s-50.5 20 -80.5 20z" />
    <glyph glyph-name="p" unicode="p" horiz-adv-x="552" 
d="M80 -198l0.000976562 524.999c0 61.333 -1.33301 112.333 -4 153h46l3 -91h2c38 68 97 102 177 102c61.333 0 111.166 -22.667 149.499 -68s57.5 -103.666 57.5 -174.999c0 -82 -21 -145.667 -63 -191s-93.667 -68 -155 -68c-74.667 0 -129 29.667 -163 89h-2v-276h-48z
M128.001 282.999v-93.999c0 -14.667 1.33301 -27.334 4 -38.001c10 -36.667 29.5 -66.167 58.5 -88.5s62.167 -33.5 99.5 -33.5c54 0 96.333 19.833 127 59.5s46 92.167 46 157.5c0 56.667 -15.167 105 -45.5 145s-71.5 60 -123.5 60c-36 0 -69 -11.5 -99 -34.5
s-50 -53.833 -60 -92.5c-4.66699 -20 -7 -33.667 -7 -41z" />
    <glyph glyph-name="q" unicode="q" horiz-adv-x="542" 
d="M416 -198l-0.000976562 281.001h-2c-13.333 -26.667 -34.333 -49 -63 -67s-63 -27 -103 -27c-59.333 0 -108.666 22.667 -147.999 68s-59 103.333 -59 174c0 44 6.66699 83.333 20 118s31 62 53 82s45.5 35 70.5 45s50.833 15 77.5 15c38.667 0 71.5 -8.83301 98.5 -26.5
s46.5 -39.834 58.5 -66.501h2l3 82h44c-2.66699 -32 -4 -73.333 -4 -124v-554h-48zM415.999 188.001l0.000976562 102.999c0 18 -1.66699 32.667 -5 44c-8.66699 32.667 -26.5 60.167 -53.5 82.5s-59.167 33.5 -96.5 33.5c-52 0 -93.667 -19.833 -125 -59.5
s-47 -91.167 -47 -154.5c0 -58.667 14.167 -108 42.5 -148s70.166 -60 125.499 -60c34 0 64.5 9.66699 91.5 29s46.5 47 58.5 83c6 16.667 9 32.334 9 47.001z" />
    <glyph glyph-name="r" unicode="r" horiz-adv-x="295" 
d="M80 0l0.00195312 336.001c0 54 -1.33301 102 -4 144h44l2 -97h3c11.333 31.333 29 57.166 53 77.499s51.667 30.5 83 30.5c5.33301 0 12 -0.666992 20 -2v-46c-4.66699 1.33301 -12.334 2 -23.001 2c-32 0 -59.333 -12.5 -82 -37.5s-37.334 -57.167 -44.001 -96.5
c-2.66699 -12.667 -4 -28 -4 -46v-265h-48z" />
    <glyph glyph-name="s" unicode="s" horiz-adv-x="373" 
d="M44 23l17.001 39.999c36 -22 72 -33 108 -33c36.667 0 64.5 8.5 83.5 25.5s28.5 38.833 28.5 65.5c0 26 -7.83301 47 -23.5 63s-41.5 31.333 -77.5 46c-81.333 30.667 -122 74.334 -122 131.001c0 36 13.5 66.667 40.5 92s62.833 38 107.5 38c42.667 0 78 -10 106 -30
l-18 -39c-27.333 19.333 -59.333 29 -96 29c-29.333 0 -52.166 -8 -68.499 -24s-24.5 -35.667 -24.5 -59s7.66699 -42 23 -56s40.666 -28.333 75.999 -43c41.333 -16 72.333 -35 93 -57s31 -50.333 31 -85c0 -41.333 -14.833 -74.5 -44.5 -99.5
s-68.834 -37.5 -117.501 -37.5c-46 0 -86.667 11 -122 33z" />
    <glyph glyph-name="t" unicode="t" horiz-adv-x="309" 
d="M99 568l48 18v-106h137v-39h-137v-312c0 -66 23.333 -99 70 -99c22.667 0 41 2.33301 55 7l6 -36c-18 -8 -40.333 -12 -67 -12c-36.667 0 -64 11.333 -82 34c-20 22.667 -30 61 -30 115v303h-81v39h81v88z" />
    <glyph glyph-name="u" unicode="u" horiz-adv-x="531" 
d="M451 480l0.000976562 -363.001c0 -45.333 1.33301 -84.333 4 -117h-45l-3 86h-2c-14 -26 -35.167 -48.667 -63.5 -68s-61.833 -29 -100.5 -29c-18 0 -35.333 2.83301 -52 8.5s-34 15.334 -52 29.001s-32.5 35.5 -43.5 65.5s-16.5 66.333 -16.5 109v279h48v-270
c0 -119.333 42.333 -179 127 -179c32.667 0 61.667 9.5 87 28.5s43.666 41.833 54.999 68.5c6 18 9 35.667 9 53v299h48z" />
    <glyph glyph-name="v" unicode="v" horiz-adv-x="452" 
d="M15 480l51 -0.000976562l112 -298c18.667 -45.333 34.334 -88 47.001 -128h2c3.33301 10.667 19.666 53.334 48.999 128.001l114 298h50l-195 -480h-42z" />
    <glyph glyph-name="w" unicode="w" horiz-adv-x="722" 
d="M23 480h48.999l81 -273c20.667 -73.333 34.334 -123.333 41.001 -150h2c9.33301 35.333 25.333 85.333 48 150l96 273h45l92 -271c19.333 -55.333 35 -106 47 -152h2c8 34.667 22.667 85 44 151l85 272h49l-160 -480h-41l-91 267c-23.333 67.333 -40 122 -50 164h-2
c-12 -46.667 -29.333 -101.667 -52 -165l-95 -266h-42z" />
    <glyph glyph-name="x" unicode="x" horiz-adv-x="429" 
d="M21 480l54 -0.000976562l82 -117c27.333 -39.333 45.666 -66.666 54.999 -81.999h2c8.66699 14 27.334 41.333 56.001 82l82 117h53l-168 -234l174 -246h-55l-85 122c-10.667 14.667 -30.667 44.667 -60 90h-2c-13.333 -22.667 -33.333 -52.667 -60 -90l-84 -122h-54
l176 245z" />
    <glyph glyph-name="y" unicode="y" horiz-adv-x="440" 
d="M11 480h50.998l126 -314c12.667 -33.333 24.334 -67.666 35.001 -102.999h2l37 106l117 311h51l-144 -358c-32 -82 -59.667 -144.833 -83 -188.5s-49.666 -78.5 -78.999 -104.5c-28.667 -24 -56.667 -40.667 -84 -50l-15 40c32 12 60 29.667 84 53
c33.333 33.333 60 73.666 80 120.999c4 10 6 17 6 21s-2 11 -6 21z" />
    <glyph glyph-name="z" unicode="z" horiz-adv-x="403" 
d="M16 0v29l259 341l28.5 36l26.5 33v2h-293v39h351l-1 -32l-259 -341l-51 -66v-2h312v-39h-373z" />
    <glyph glyph-name="braceleft" unicode="{" horiz-adv-x="265" 
d="M26 270v35.0029c33.333 -0.666992 55.833 6.16602 67.5 20.499s17.5 33.833 17.5 58.5c0 24 -3 52.667 -9 86c-6.66699 38.667 -10 67.667 -10 87c0 43.333 12.833 75.666 38.5 96.999s59.834 32 102.501 32h12v-37h-18c-32.667 -0.666992 -56 -8.83398 -70 -24.501
s-21 -39.5 -21 -71.5c0 -22 3 -48.667 9 -80c6 -40.667 9 -67.334 9 -80.001c0 -56 -21.333 -90.667 -64 -104v-2c19.333 -5.33301 34.833 -17.166 46.5 -35.499s17.5 -41.166 17.5 -68.499c0 -14.667 -3 -41.334 -9 -80.001c-6 -32.667 -9 -60 -9 -82
c0 -63.333 30.333 -95.333 91 -96h18v-37h-12c-42.667 0 -76.834 11 -102.501 33s-38.5 56.667 -38.5 104c0 20 3.33301 48 10 84c6 33.333 9 61 9 83c0 53.333 -28.333 79.333 -85 78z" />
    <glyph glyph-name="bar" unicode="|" horiz-adv-x="212" 
d="M84 750h43v-1000h-43v1000z" />
    <glyph glyph-name="braceright" unicode="}" horiz-adv-x="265" 
d="M239 305v-35.002c-56.667 1.33301 -85 -24.667 -85 -78c0 -24 3.33301 -51.667 10 -83c6 -40.667 9 -68.667 9 -84c0 -47.333 -12.833 -82 -38.5 -104s-59.834 -33 -102.501 -33h-12v37h18c60.667 0.666992 91 32.667 91 96c0 22 -3 49.333 -9 82c-6 39.333 -9 66 -9 80
c0 27.333 5.83301 50.166 17.5 68.499s27.167 30.166 46.5 35.499v2c-42.667 13.333 -64 48 -64 104c0 12.667 3 39.334 9 80.001c6 31.333 9 58 9 80c0 32 -7 55.833 -21 71.5s-37.333 23.834 -70 24.501h-18v37h12c42.667 0 76.834 -10.667 102.501 -32
s38.5 -53.666 38.5 -96.999c0 -14.667 -3 -43.667 -9 -87c-6.66699 -31.333 -10 -60 -10 -86c0 -24.667 5.83301 -44.167 17.5 -58.5s34.167 -21.166 67.5 -20.499z" />
    <glyph glyph-name="asciitilde" unicode="~" horiz-adv-x="596" 
d="M90 222l-37.999 -0.00195312c-2.66699 38.667 6.5 69.834 27.5 93.501s47.5 35.5 79.5 35.5c29.333 0 77 -15 143 -45c67.333 -28.667 114.666 -43 141.999 -43c43.333 0 64.333 28.667 63 86h37c2 -43.333 -7.16699 -75.666 -27.5 -96.999s-45.833 -32 -76.5 -32
c-32 0 -81 14.333 -147 43c-4 1.33301 -13.333 5.5 -28 12.5s-24.667 11.5 -30 13.5l-24.5 9c-11 4 -20.667 6.66699 -29 8s-16.5 2 -24.5 2c-44.667 0 -67 -28.667 -67 -86z" />
    <glyph glyph-name="uni00A0" unicode="&#xa0;" horiz-adv-x="219" 
 />
    <glyph glyph-name="exclamdown" unicode="&#xa1;" horiz-adv-x="207" 
d="M133 -197h-58l9 493h40zM105 485c12 0 21.5 -4.16699 28.5 -12.5s10.5 -19.166 10.5 -32.499c0 -12.667 -3.66699 -23.167 -11 -31.5s-17 -12.5 -29 -12.5s-21.833 4.33301 -29.5 13s-11.167 19 -10.5 31c0 13.333 3.83301 24.166 11.5 32.499s17.5 12.5 29.5 12.5z" />
    <glyph glyph-name="cent" unicode="&#xa2;" horiz-adv-x="488" 
d="M301 -16l-41.001 -0.000976562v104c-57.333 5.33301 -104.333 27.333 -141 66c-38 40 -57 97 -57 171c0 66.667 18.333 122.334 55 167.001s84.334 70.667 143.001 78v103h41v-102c45.333 0 84.333 -9.33301 117 -28l-17 -39c-30 19.333 -68 29 -114 29
c-53.333 0 -96.5 -20.167 -129.5 -60.5s-49.5 -88.833 -49.5 -145.5c0 -60.667 16.167 -109.167 48.5 -145.5s73.833 -54.5 124.5 -54.5c44.667 0 85.667 9.66699 123 29l13 -35c-28 -19.333 -66.667 -30.333 -116 -33v-104z" />
    <glyph glyph-name="sterling" unicode="&#xa3;" horiz-adv-x="488" 
d="M449 0l-390.001 0.000976562v30c37.333 20.667 65.833 48 85.5 82s29.5 71 29.5 111c0 25.333 -2 55 -6 89h-106v38h101c-8.66699 57.333 -13 98.666 -13 123.999c0 56.667 16 102 48 136s72.667 51 122 51c44 0 78.667 -8.33301 104 -25l-16 -37
c-22.667 14.667 -53.667 22 -93 22s-69 -13 -89 -39s-30 -61 -30 -105c0 -40 4.33301 -82.333 13 -127h148v-38h-143c6.66699 -60 6.33398 -106 -0.999023 -138c-11.333 -51.333 -38.333 -95 -81 -131v-2h317v-41z" />
    <glyph glyph-name="currency" unicode="&#xa4;" horiz-adv-x="488" 
d="M244 524c48 0 85.667 -14.332 113 -42.999l69 69l30 -31l-72 -66c24 -33.333 36 -73 36 -119c0 -52 -11.667 -93.333 -35 -124l68 -69l-30 -31l-66 70c-29.333 -29.333 -68 -44 -116 -44c-47.333 0 -85 13.333 -113 40l-64 -66l-29 31l65 65
c-25.333 31.333 -38 71.333 -38 120c0 49.333 13.667 91.666 41 126.999l-68 65l31 32l63 -69c30.667 28.667 69 43 115 43zM240 485.001c-40.667 0 -72.999 -15.333 -96.999 -46s-36 -67.667 -36 -111c0 -50 13.833 -88 41.5 -114s58.167 -39 91.5 -39
c36 -0.666992 67.5 12 94.5 38s40.5 66 40.5 120c0 40 -11.833 75.333 -35.5 106s-56.834 46 -99.501 46z" />
    <glyph glyph-name="yen" unicode="&#xa5;" horiz-adv-x="488" 
d="M260 0h-46v185h-154v36h154v78h-154v36h137l-171 315h51l124 -234c18 -36 31 -62.667 39 -80h3c6.66699 18 19.667 45.667 39 83l131 231h50l-184 -315h136v-36h-155v-78h155v-36h-155v-185z" />
    <glyph glyph-name="brokenbar" unicode="&#xa6;" horiz-adv-x="212" 
d="M84 174h43v-350h-43v350zM84 674h43v-350h-43v350z" />
    <glyph glyph-name="section" unicode="&#xa7;" horiz-adv-x="493" 
d="M111 356c0 -20.667 8.66895 -39.501 26.002 -56.501s47.666 -33.167 90.999 -48.5c49.333 -17.333 86.666 -34.666 111.999 -51.999c28 24 42 54.667 42 92c0 48 -33.667 83.667 -101 107c-62 22.667 -101.667 40 -119 52c-34 -26 -51 -57.333 -51 -94zM389.002 647.999
l-20.001 -35.998c-30.667 22.667 -68 34 -112 34c-30.667 0 -57.167 -8.33301 -79.5 -25s-33.5 -38.334 -33.5 -65.001c0 -15.333 3 -28.666 9 -39.999s16.5 -21.5 31.5 -30.5s28.5 -16 40.5 -21s30.333 -11.5 55 -19.5c47.333 -16.667 83.5 -36 108.5 -58
s37.5 -52 37.5 -90c0 -45.333 -20 -85.333 -60 -120c23.333 -20.667 35 -49.334 35 -86.001c0 -44.667 -16.167 -79.834 -48.5 -105.501s-72.833 -38.5 -121.5 -38.5c-60.667 0 -107 13.667 -139 41l21 35c30.667 -26 71 -39 121 -39c36 0 65.667 8.83301 89 26.5
s35 42.167 35 73.5c0 28 -9.16699 50.833 -27.5 68.5s-53.166 35.5 -104.499 53.5c-54.667 20.667 -94.667 41.667 -120 63s-38 50 -38 86c0 40.667 22.333 79 67 115c-23.333 17.333 -35 43.333 -35 78c0 40 15.667 72.333 47 97s70 37 116 37
c49.333 0 91.333 -11.333 126 -34z" />
    <glyph glyph-name="dieresis" unicode="&#xa8;" 
d="M66 578l-1.99902 0.000976562c-10.667 0 -19.334 3.83301 -26.001 11.5s-10 16.834 -10 27.501c0 10 3.83301 19 11.5 27s16.5 12 26.5 12c10.667 0 19.5 -3.83301 26.5 -11.5s10.5 -16.834 10.5 -27.501s-3.33301 -19.834 -10 -27.501s-15.667 -11.5 -27 -11.5z
M235.001 578.001l-1.99902 0.000976562c-10.667 0 -19.334 3.83301 -26.001 11.5s-10 16.834 -10 27.501c0 10 3.83301 19 11.5 27s16.5 12 26.5 12c10.667 0 19.5 -3.83301 26.5 -11.5s10.5 -16.834 10.5 -27.501s-3.33301 -19.834 -10 -27.501s-15.667 -11.5 -27 -11.5z
" />
    <glyph glyph-name="copyright" unicode="&#xa9;" horiz-adv-x="677" 
d="M341 648c83.333 0 153.667 -30 211 -90s86 -132.667 86 -218c0 -86.667 -28.667 -160 -86 -220s-128 -90 -212 -90c-84.667 0 -156 30 -214 90s-87 133.333 -87 220c0 85.333 29 158 87 218s129.667 90 215 90zM339.001 616c-74 0 -135.835 -26.665 -185.502 -79.998
s-74.5 -120 -74.5 -200c0 -77.333 24.833 -142.333 74.5 -195s111.834 -79 186.501 -79c72.667 -0.666992 133.834 25.666 183.501 78.999s74.5 119.666 74.5 198.999c0 78 -24.833 143.5 -74.5 196.5s-111.167 79.5 -184.5 79.5zM473.999 494.002l-10 -31.001
c-28 16 -61 24 -99 24c-49.333 0 -86.5 -14 -111.5 -42s-37.5 -64 -37.5 -108c0 -43.333 13 -79.333 39 -108s63.333 -43 112 -43c42 0 76.333 9 103 27l10 -29c-30 -20.667 -71 -31 -123 -31c-56 0 -100.333 17.167 -133 51.5s-49 77.5 -49 129.5
c0 54.667 18.5 99.334 55.5 134.001s81.5 52 133.5 52c51.333 0 88 -8.66699 110 -26z" />
    <glyph glyph-name="ordfeminine" unicode="&#xaa;" horiz-adv-x="326" 
d="M282 266h-38.001l-5 47h-2c-24.667 -34.667 -58.667 -52 -102 -52c-32 0 -56.833 9 -74.5 27s-26.5 40.333 -26.5 67c0 35.333 17.5 63.5 52.5 84.5s84.833 30.167 149.5 27.5v12c0 9.33301 -1.5 19 -4.5 29s-11.167 20.333 -24.5 31s-31 16 -53 16
c-33.333 0 -60.666 -9 -81.999 -27l-13 30c28.667 22 63 33 103 33c76.667 0 115 -47 115 -141v-107c0 -30 1.66699 -55.667 5 -77zM235.999 366l-0.000976562 67.002c-106 3.33301 -159 -22.334 -159 -77.001c0 -18.667 6.5 -33.334 19.5 -44.001s28.5 -16 46.5 -16
c32.667 0 59.334 13.667 80.001 41c8.66699 12 13 21.667 13 29z" />
    <glyph glyph-name="guillemotleft" unicode="&#xab;" horiz-adv-x="392" 
d="M222 432l-142 -180l143 -180h-50l-143 180l143 180h49zM368 432l-142 -180l143 -180h-50l-143 180l142 180h50z" />
    <glyph glyph-name="logicalnot" unicode="&#xac;" horiz-adv-x="596" 
d="M40 385h516v-255h-43v215h-473v40z" />
    <glyph glyph-name="uni00AD" unicode="&#xad;" horiz-adv-x="291" 
d="M30 296h238v-42h-238v42z" />
    <glyph glyph-name="registered" unicode="&#xae;" horiz-adv-x="395" 
d="M169 505v-69.999h-31v167c18.667 3.33301 38 5 58 5c24 0 41.333 -4.33301 52 -13c11.333 -8 17 -20 17 -36c0 -18.667 -10.667 -31.667 -32 -39v-2c13.333 -5.33301 22.333 -19 27 -41c4 -20.667 8.33301 -34.334 13 -41.001h-32c-4 4.66699 -8.66699 19 -14 43
c-4 18 -16.667 27 -38 27h-20zM169 581.001v-52h21c28.667 0 43 8.66699 43 26c0 18.667 -13.333 28 -40 28c-9.33301 0 -17.333 -0.666992 -24 -2zM199 682.001c44.667 0 82.5 -15.333 113.5 -46s46.5 -68.334 46.5 -113.001c0 -45.333 -15.5 -83.5 -46.5 -114.5
s-69.167 -46.5 -114.5 -46.5s-83.833 15.5 -115.5 46.5s-47.5 69.167 -47.5 114.5c0 44.667 15.833 82.334 47.5 113.001s70.5 46 116.5 46zM197 654.001c-36 0 -66.168 -12.8359 -90.501 -38.5029s-36.5 -56.5 -36.5 -92.5c0 -37.333 12.333 -68.666 37 -93.999
s55.334 -38 92.001 -38c35.333 -0.666992 65 11.833 89 37.5s36 56.834 36 93.501s-12.167 67.834 -36.5 93.501s-54.5 38.5 -90.5 38.5z" />
    <glyph glyph-name="macron" unicode="&#xaf;" 
d="M46 629h210v-40h-210v40z" />
    <glyph glyph-name="degree" unicode="&#xb0;" horiz-adv-x="294" 
d="M152 686c36.667 0 65.667 -11.833 87 -35.5s32 -51.834 32 -84.501c0 -37.333 -12.333 -67.666 -37 -90.999s-53 -35 -85 -35c-34.667 0 -63.167 11.667 -85.5 35s-33.5 51.333 -33.5 84c0 36 11.833 66.167 35.5 90.5s52.5 36.5 86.5 36.5zM149 653
c-26 0 -45.999 -9.49902 -59.999 -28.499s-21 -40.5 -21 -64.5c0 -24.667 7.83301 -45.334 23.5 -62.001s35.167 -25 58.5 -25c24 0 43.833 8.66699 59.5 26s23.5 39 23.5 65c0 22 -6.83301 42.333 -20.5 61s-34.834 28 -63.501 28z" />
    <glyph glyph-name="plusminus" unicode="&#xb1;" horiz-adv-x="596" 
d="M277 567h43v-207h236v-40h-236v-215h-43v215h-236v40h236v207zM41 40h515v-40h-515v40z" />
    <glyph glyph-name="twosuperior" unicode="&#xb2;" horiz-adv-x="286" 
d="M11 442l0.00195312 25l64 61c46 43.333 79.333 79.5 100 108.5s31 56.833 31 83.5c0 24 -7.16699 43.667 -21.5 59s-35.833 23 -64.5 23c-26.667 0 -54.334 -11 -83.001 -33l-15 27c28.667 27.333 64.667 41 108 41c41.333 0 71.666 -11.167 90.999 -33.5
s29 -46.833 29 -73.5c0 -36 -11.5 -69.833 -34.5 -101.5s-59.5 -70.167 -109.5 -115.5l-35 -33v-2h185v-36h-245z" />
    <glyph glyph-name="threesuperior" unicode="&#xb3;" horiz-adv-x="279" 
d="M45 776l-14.9941 30.999c29.333 20.667 62.333 31 99 31c37.333 0 64.833 -8.83301 82.5 -26.5s26.5 -39.167 26.5 -64.5c0 -20 -6.33301 -38.167 -19 -54.5s-30.667 -28.833 -54 -37.5v-2c27.333 -4.66699 49.166 -16.167 65.499 -34.5s24.166 -39.833 23.499 -64.5
c0 -31.333 -12.5 -58.5 -37.5 -81.5s-60.167 -34.5 -105.5 -34.5c-42.667 0 -77 9 -103 27l15 33c24 -17.333 54 -26 90 -26c33.333 0 58.166 8.33301 74.499 25s24.166 35.334 23.499 56.001c-0.666992 28 -12.334 48.833 -35.001 62.5s-50.334 20.5 -83.001 20.5h-25v32
h27c24 0 46.5 6.5 67.5 19.5s31.833 32.167 32.5 57.5c0 16 -5.83301 29.833 -17.5 41.5s-29.167 17.5 -52.5 17.5c-31.333 0 -58 -9.33301 -80 -28z" />
    <glyph glyph-name="acute" unicode="&#xb4;" 
d="M206 688h70l-122 -138h-37z" />
    <glyph glyph-name="mu" unicode="&#xb5;" horiz-adv-x="534" 
d="M409 80l-2 -0.00195312c-14 -24 -33.833 -45 -59.5 -63s-55.834 -27 -90.501 -27c-64 0 -107 22.667 -129 68v-70c0 -93.333 3.66699 -155.333 11 -186h-44c-10 30.667 -15 90.667 -15 180v498h48v-294c0 -44.667 10.5 -81.667 31.5 -111s53.833 -44 98.5 -44
c32.667 0 61.167 9.33301 85.5 28s42.166 41.667 53.499 69c6 18 9 35.667 9 53v299h48v-363c0 -31.333 3.33301 -53.666 10 -66.999s19.334 -20.666 38.001 -21.999l-6 -38c-6 -0.666992 -11 -1 -15 -1c-19.333 0 -35.666 7.16699 -48.999 21.5s-21 37.5 -23 69.5z" />
    <glyph glyph-name="paragraph" unicode="&#xb6;" horiz-adv-x="493" 
d="M287 -51h-40.999v315h-8c-51.333 0 -97.833 17 -139.5 51s-62.834 81 -63.501 141c0 28 4.16699 54 12.5 78s22 47 41 69s46.333 39.333 82 52s78.167 19 127.5 19c41.333 0 75 -2.33301 101 -7v-718h-41v686h-71v-686z" />
    <glyph glyph-name="periodcentered" unicode="&#xb7;" horiz-adv-x="174" 
d="M85 221c-11.333 0 -20.832 4.33301 -28.499 13s-11.167 19 -10.5 31c0 13.333 3.83301 24.166 11.5 32.499s17.5 12.5 29.5 12.5s21.667 -4.16699 29 -12.5s11 -19.166 11 -32.499c0 -12.667 -3.83301 -23.167 -11.5 -31.5s-17.834 -12.5 -30.501 -12.5z" />
    <glyph glyph-name="cedilla" unicode="&#xb8;" 
d="M145 1h37l-36 -55c18.667 -2.66699 34.667 -10 48 -22s20 -27 20 -45c0 -26 -8.83301 -45.333 -26.5 -58s-40.167 -19 -67.5 -19c-21.333 0 -41.333 5.33301 -60 16l12 34c15.333 -8.66699 33.333 -13 54 -13c14 0 25.5 2.83301 34.5 8.5s13.167 14.5 12.5 26.5
c-0.666992 25.333 -26.667 40.333 -78 45z" />
    <glyph glyph-name="onesuperior" unicode="&#xb9;" horiz-adv-x="210" 
d="M142 443h-41v349h-2l-67 -34l-9 33l82 42h37v-390z" />
    <glyph glyph-name="ordmasculine" unicode="&#xba;" horiz-adv-x="337" 
d="M170 591c46 0 83 -15.334 111 -46.001s42 -70 42 -118c-0.666992 -54 -16.5 -95.167 -47.5 -123.5s-66.833 -42.5 -107.5 -42.5c-44 0 -80.5 15 -109.5 45s-43.5 69 -43.5 117c0 50.667 15.5 91.334 46.5 122.001s67.167 46 108.5 46zM167 555.999
c-34.667 0 -61.666 -13.332 -80.999 -39.999s-29 -57.334 -29 -92.001c0 -36.667 11.167 -67.167 33.5 -91.5s48.166 -36.5 77.499 -36.5c32 0 58.667 12 80 36s32 55.333 32 94c0 32.667 -9.5 62.5 -28.5 89.5s-47.167 40.5 -84.5 40.5z" />
    <glyph glyph-name="guillemotright" unicode="&#xbb;" horiz-adv-x="392" 
d="M166 252l-143 180h50l143 -180l-143 -180h-49zM312 252l-143 180h50l143 -180l-143 -180h-49z" />
    <glyph glyph-name="onequarter" unicode="&#xbc;" horiz-adv-x="715" 
d="M167 266h-41v350h-2l-67 -35l-9 34l82 41h37v-390zM157 -11h-40l386 672h40zM615 0h-41v110h-203v25l207 260h37v-251h65v-34h-65v-110zM574 144v145c0 22 1 40.667 3 56h-2c-4 -5.33301 -7.83301 -10.833 -11.5 -16.5l-11.5 -17.5c-4 -6 -7 -10.667 -9 -14l-121 -152v-1
h152z" />
    <glyph glyph-name="onehalf" unicode="&#xbd;" horiz-adv-x="715" 
d="M151 266h-41v350h-2l-67 -35l-9 34l82 41h37v-390zM140 -11h-40l386 672h40zM413 0l0.00195312 24.999l64 61c46 43.333 79.333 79.5 100 108.5s31 56.5 31 82.5c0 24 -7.16699 43.833 -21.5 59.5s-35.833 23.5 -64.5 23.5c-26.667 0 -54.334 -11 -83.001 -33l-15 27
c28.667 27.333 64.667 41 108 41c41.333 0 71.666 -11.167 90.999 -33.5s29 -47.166 29 -74.499c0 -35.333 -11.5 -68.5 -34.5 -99.5s-59.5 -69.833 -109.5 -116.5l-35 -33v-2h185v-36h-245z" />
    <glyph glyph-name="threequarters" unicode="&#xbe;" horiz-adv-x="715" 
d="M68 599l-15.0039 29.998c28.667 21.333 61.334 32 98.001 32c37.333 0 65 -9 83 -27s27 -39.667 27 -65c0 -19.333 -6.33301 -37 -19 -53s-30.667 -28.333 -54 -37v-2c26.667 -4.66699 48.334 -16.167 65.001 -34.5s25.334 -40.166 26.001 -65.499
c0 -31.333 -12.667 -58.5 -38 -81.5s-60.666 -34.5 -105.999 -34.5c-42.667 0 -77 9 -103 27l16 33c22.667 -17.333 52.667 -26 90 -26c33.333 0 58 8.33301 74 25s23.667 35.334 23 56.001c0 28 -11.5 48.833 -34.5 62.5s-51.167 20.5 -84.5 20.5h-25v32h27
c24 0 46.5 6.5 67.5 19.5s31.833 32.167 32.5 57.5c0 16 -5.83301 29.833 -17.5 41.5s-29.167 17.5 -52.5 17.5c-29.333 0 -56 -9.33301 -80 -28zM196.996 -11.002h-40l386 672h40zM626.996 -0.00195312h-41v110h-203v25l207 260h37v-251h65v-34h-65v-110zM585.996 143.998
v145c0 22 1 40.667 3 56h-2c-2.66699 -3.33301 -7.5 -10.833 -14.5 -22.5s-12.5 -20.167 -16.5 -25.5l-123 -152v-1h153z" />
    <glyph glyph-name="questiondown" unicode="&#xbf;" horiz-adv-x="381" 
d="M232 485c11.333 0 20.666 -4.16602 27.999 -12.499s11 -19.166 11 -32.499c0 -12.667 -3.83301 -23.334 -11.5 -32.001s-17.5 -13 -29.5 -13s-21.833 4.5 -29.5 13.5s-11.167 19.5 -10.5 31.5c0 13.333 3.83301 24.166 11.5 32.499s17.834 12.5 30.501 12.5zM208 299.001
l44.998 0.00292969l3 -26c8.66699 -59.333 -12.666 -120.333 -63.999 -183c-27.333 -32.667 -47 -60.834 -59 -84.501s-18 -47.834 -18 -72.501c0 -32 9.33301 -57.167 28 -75.5s45.667 -27.5 81 -27.5c40 0 74.333 10.667 103 32l17 -35
c-15.333 -12 -35.166 -21.667 -59.499 -29s-47.5 -11 -69.5 -11c-48.667 0 -86 13.833 -112 41.5s-39 61.167 -39 100.5c0 29.333 6.83301 57.166 20.5 83.499s35.5 57.5 65.5 93.5c44.667 54.667 64.667 108.667 60 162z" />
    <glyph glyph-name="Agrave" unicode="&#xc0;" horiz-adv-x="585" 
d="M428 236h-266l-83 -236h-49l244 674h46l242 -674h-49zM177 276l237 -0.000976562l-82 225c-13.333 36.667 -25 76.334 -35 119.001h-3c-7.33301 -32.667 -19 -71.667 -35 -117zM165 822.999h73l98 -113h-40z" />
    <glyph glyph-name="Aacute" unicode="&#xc1;" horiz-adv-x="585" 
d="M428 236h-266l-83 -236h-49l244 674h46l242 -674h-49zM177 276l237 -0.000976562l-82 225c-13.333 36.667 -25 76.334 -35 119.001h-3c-7.33301 -32.667 -19 -71.667 -35 -117zM355 822.999h73l-131 -113h-40z" />
    <glyph glyph-name="Acircumflex" unicode="&#xc2;" horiz-adv-x="585" 
d="M428 236h-266l-83 -236h-49l244 674h46l242 -674h-49zM177 276l237 -0.000976562l-82 225c-13.333 36.667 -25 76.334 -35 119.001h-3c-7.33301 -32.667 -19 -71.667 -35 -117zM280 818.999h38l107 -109h-53l-72 74h-2l-72 -74h-50z" />
    <glyph glyph-name="Atilde" unicode="&#xc3;" horiz-adv-x="585" 
d="M429 236h-267l-83 -236h-49l244 674h46l243 -674h-50zM177 276l237 -0.000976562l-82 225c-13.333 36.667 -25 76.334 -35 119.001h-3c-7.33301 -32.667 -19 -71.667 -35 -117zM215 715.999h-32.998c-0.666992 24 4.66602 44.333 15.999 61s26.666 25 45.999 25
c13.333 0 32.333 -7 57 -21c22.667 -11.333 39.334 -17 50.001 -17c16.667 0 25.667 12.333 27 37h33c0 -53.333 -20 -80 -60 -80c-14.667 0 -34.334 6.66699 -59.001 20c-25.333 12.667 -42 19 -50 19c-14.667 0 -23.667 -14.667 -27 -44z" />
    <glyph glyph-name="Adieresis" unicode="&#xc4;" horiz-adv-x="585" 
d="M428 236h-266l-83 -236h-49l244 674h46l242 -674h-49zM177 276l237 -0.000976562l-82 225c-13.333 36.667 -25 76.334 -35 119.001h-3c-7.33301 -32.667 -19 -71.667 -35 -117zM210 722.999c-10.667 0 -19.333 3.83301 -26 11.5s-10 17.167 -10 28.5
c0 10.667 3.66699 20 11 28s16 12 26 12c10.667 0 19.5 -3.83301 26.5 -11.5s10.5 -17.167 10.5 -28.5s-3.33301 -20.833 -10 -28.5s-16 -11.5 -28 -11.5zM382.001 722.999c-10.667 0 -19.333 3.83301 -26 11.5s-10 17.167 -10 28.5c0 10.667 3.66699 20 11 28s16 12 26 12
c10.667 0 19.5 -3.83301 26.5 -11.5s10.5 -17.167 10.5 -28.5s-3.33301 -20.833 -10 -28.5s-16 -11.5 -28 -11.5z" />
    <glyph glyph-name="Aring" unicode="&#xc5;" horiz-adv-x="585" 
d="M428 236h-266l-83 -236h-49l244 674h46l242 -674h-49zM177 276l237 -0.000976562l-82 225c-13.333 36.667 -25 76.334 -35 119.001h-3c-7.33301 -32.667 -19 -71.667 -35 -117zM298 866.999c26 0 47.332 -8.33301 63.999 -25s25 -37 25 -61
c0 -23.333 -8.66699 -43 -26 -59s-38.666 -24 -63.999 -24c-26 0 -47.5 8 -64.5 24s-25.5 35.667 -25.5 59c0 24 8.5 44.333 25.5 61s38.833 25 65.5 25zM295.999 838.999c-14.667 0 -26.499 -5.66699 -35.499 -17s-13.5 -25 -13.5 -41c0 -14 4.83301 -26.5 14.5 -37.5
s21.5 -16.5 35.5 -16.5c14.667 0 26.667 5.33301 36 16s14 24 14 40s-4.83301 29.333 -14.5 40s-21.834 16 -36.501 16z" />
    <glyph glyph-name="AE" unicode="&#xc6;" horiz-adv-x="738" 
d="M46 0h-49l321 674h365v-40h-292l30 -260h249v-40h-244l36 -294h242l-1 -40h-282l-33 271h-213zM194 310l189 -0.000976562l-24 212c-0.666992 7.33301 -2.66699 25.333 -6 54s-5.33301 49.334 -6 62.001h-4c-7.33301 -18 -23.333 -54.333 -48 -109z" />
    <glyph glyph-name="Ccedilla" unicode="&#xc7;" horiz-adv-x="578" 
d="M524 62l14.0029 -37.9971c-44 -22.667 -106 -34 -186 -34l-29 -44c19.333 -2.66699 35.666 -10.334 48.999 -23.001s20 -28.334 20 -47.001c0 -24.667 -8.83301 -43.167 -26.5 -55.5s-39.834 -18.5 -66.501 -18.5c-22.667 0 -43.334 5 -62.001 15l12 35
c16 -8.66699 34 -13 54 -13c30.667 0 46 11.667 46 35c0 24.667 -25.667 40 -77 46l43 72c-80 8.66699 -146.333 41.667 -199 99s-79 138 -79 242c0 102 31 186.167 93 252.5s145 99.5 249 99.5c66 0 118 -10 156 -30l-15 -40c-40 19.333 -87 29 -141 29
c-90.667 0 -162 -27.833 -214 -83.5s-78 -131.834 -78 -228.501c0 -92.667 25 -166 75 -220s119.667 -81 209 -81c59.333 0 110.333 10.333 153 31z" />
    <glyph glyph-name="Egrave" unicode="&#xc8;" horiz-adv-x="466" 
d="M398 375v-40h-269v-295h301v-40h-349v674h333v-40h-285v-259h269zM124 823h73l98 -113h-40z" />
    <glyph glyph-name="Eacute" unicode="&#xc9;" horiz-adv-x="466" 
d="M398 375v-40h-269v-295h301v-40h-349v674h333v-40h-285v-259h269zM310 823h73l-131 -113h-40z" />
    <glyph glyph-name="Ecircumflex" unicode="&#xca;" horiz-adv-x="466" 
d="M398 375v-40h-269v-295h301v-40h-349v674h333v-40h-285v-259h269zM224 819h38l107 -109h-53l-72 74h-2l-72 -74h-50z" />
    <glyph glyph-name="Edieresis" unicode="&#xcb;" horiz-adv-x="466" 
d="M398 375v-40h-269v-295h301v-40h-349v674h333v-40h-285v-259h269zM158 726c-10.667 0 -19.333 3.83301 -26 11.5s-10 17.167 -10 28.5c0 10.667 3.66699 20 11 28s16 12 26 12c10.667 0 19.5 -3.83301 26.5 -11.5s10.5 -17.167 10.5 -28.5s-3.33301 -20.833 -10 -28.5
s-16 -11.5 -28 -11.5zM330.001 726c-10.667 0 -19.334 3.83301 -26.001 11.5s-10 17.167 -10 28.5c0 10.667 3.66699 20 11 28s16.333 12 27 12s19.334 -3.83301 26.001 -11.5s10 -17.167 10 -28.5s-3.33301 -20.833 -10 -28.5s-16 -11.5 -28 -11.5z" />
    <glyph glyph-name="Igrave" unicode="&#xcc;" horiz-adv-x="211" 
d="M81 674h48v-674h-48v674zM-24 823h73l98 -113h-40z" />
    <glyph glyph-name="Iacute" unicode="&#xcd;" horiz-adv-x="211" 
d="M81 674h48v-674h-48v674zM164 823h73l-131 -113h-40z" />
    <glyph glyph-name="Icircumflex" unicode="&#xce;" horiz-adv-x="211" 
d="M81 674h48v-674h-48v674zM86 819h38l107 -109h-53l-72 74h-2l-72 -74h-50z" />
    <glyph glyph-name="Idieresis" unicode="&#xcf;" horiz-adv-x="211" 
d="M81 674h48v-674h-48v674zM19 726c-10.667 0 -19.333 3.83301 -26 11.5s-10 17.167 -10 28.5c0 10.667 3.66699 20 11 28s16 12 26 12c10.667 0 19.5 -3.83301 26.5 -11.5s10.5 -17.167 10.5 -28.5s-3.33301 -20.833 -10 -28.5s-16 -11.5 -28 -11.5zM191.001 726
c-10.667 0 -19.333 3.83301 -26 11.5s-10 17.167 -10 28.5c0 10.667 3.66699 20 11 28s16 12 26 12c10.667 0 19.5 -3.83301 26.5 -11.5s10.5 -17.167 10.5 -28.5s-3.33301 -20.833 -10 -28.5s-16 -11.5 -28 -11.5z" />
    <glyph glyph-name="Eth" unicode="&#xd0;" horiz-adv-x="651" 
d="M-5 322v39h89v306c58 10 115.667 15 173 15c123.333 0 214 -30.667 272 -92c56 -58 84 -137 84 -237c0 -106 -29.333 -191.333 -88 -256c-62 -68.667 -159 -103 -291 -103c-60.667 0 -110.667 2 -150 6v322h-89zM341 361l0.00195312 -38.999h-209v-283
c22.667 -3.33301 59 -5 109 -5c106 0 186.333 28 241 84s82 134.667 82 236c1.33301 89.333 -23.834 159.666 -75.501 210.999s-129.834 77 -234.501 77c-46 0 -86.667 -3.66699 -122 -11v-270h209z" />
    <glyph glyph-name="Ntilde" unicode="&#xd1;" horiz-adv-x="638" 
d="M128 0l-45.999 0.000976562v674h45l262 -398c57.333 -88 99.666 -158.667 126.999 -212l2 1c-5.33301 69.333 -8 160.666 -8 273.999v335h46v-674h-44l-257 392c-65.333 102 -109 174.667 -131 218l-2 -1c4 -66.667 6 -156 6 -268v-341zM244.001 716.001h-32.998
c-0.666992 24 4.66602 44.333 15.999 61s26.666 25 45.999 25c13.333 0 32.333 -7 57 -21c22.667 -11.333 39.334 -17 50.001 -17c16.667 0 25.667 12.333 27 37h33c0 -53.333 -20 -80 -60 -80c-14.667 0 -34.334 6.66699 -59.001 20c-25.333 12.667 -42 19 -50 19
c-14.667 0 -23.667 -14.667 -27 -44z" />
    <glyph glyph-name="Ograve" unicode="&#xd2;" horiz-adv-x="671" 
d="M340 686c86 0 156.499 -31.167 211.499 -93.5s82.5 -145.166 82.5 -248.499c0 -112.667 -29.333 -200 -88 -262s-130 -93 -214 -93c-84.667 0 -155 31.167 -211 93.5s-84 145.166 -84 248.499c0 108 28.833 194.167 86.5 258.5s129.834 96.5 216.501 96.5zM336.999 646
c-54.667 0 -101.334 -15.5 -140.001 -46.5s-66.667 -69.667 -84 -116s-26 -96.833 -26 -151.5c0 -81.333 22.333 -152.166 67 -212.499s105 -90.5 181 -90.5c76.667 0 137.334 30.167 182.001 90.5s67 134.166 67 221.499c0 50 -8.5 97.5 -25.5 142.5
s-44.833 83.333 -83.5 115s-84.667 47.5 -138 47.5zM205.999 827h73l98 -113h-40z" />
    <glyph glyph-name="Oacute" unicode="&#xd3;" horiz-adv-x="671" 
d="M340 686c86 0 156.499 -31.167 211.499 -93.5s82.5 -145.166 82.5 -248.499c0 -112.667 -29.333 -200 -88 -262s-130 -93 -214 -93c-84.667 0 -155 31.167 -211 93.5s-84 145.166 -84 248.499c0 108 28.833 194.167 86.5 258.5s129.834 96.5 216.501 96.5zM336.999 646
c-54.667 0 -101.334 -15.5 -140.001 -46.5s-66.667 -69.667 -84 -116s-26 -96.833 -26 -151.5c0 -81.333 22.333 -152.166 67 -212.499s105 -90.5 181 -90.5c76.667 0 137.334 30.167 182.001 90.5s67 134.166 67 221.499c0 50 -8.5 97.5 -25.5 142.5
s-44.833 83.333 -83.5 115s-84.667 47.5 -138 47.5zM390.999 827h73l-131 -113h-40z" />
    <glyph glyph-name="Ocircumflex" unicode="&#xd4;" horiz-adv-x="671" 
d="M340 686c86 0 156.499 -31.167 211.499 -93.5s82.5 -145.166 82.5 -248.499c0 -112.667 -29.333 -200 -88 -262s-130 -93 -214 -93c-84.667 0 -155 31.167 -211 93.5s-84 145.166 -84 248.499c0 108 28.833 194.167 86.5 258.5s129.834 96.5 216.501 96.5zM336.999 646
c-54.667 0 -101.334 -15.5 -140.001 -46.5s-66.667 -69.667 -84 -116s-26 -96.833 -26 -151.5c0 -81.333 22.333 -152.166 67 -212.499s105 -90.5 181 -90.5c76.667 0 137.334 30.167 182.001 90.5s67 134.166 67 221.499c0 50 -8.5 97.5 -25.5 142.5
s-44.833 83.333 -83.5 115s-84.667 47.5 -138 47.5zM314.999 823h38l107 -109h-53l-72 74h-2l-72 -74h-50z" />
    <glyph glyph-name="Otilde" unicode="&#xd5;" horiz-adv-x="671" 
d="M340 686c86 0 156.499 -31.167 211.499 -93.5s82.5 -145.166 82.5 -248.499c0 -112.667 -29.333 -200 -88 -262s-130 -93 -214 -93c-84.667 0 -155 31.167 -211 93.5s-84 145.166 -84 248.499c0 108 28.833 194.167 86.5 258.5s129.834 96.5 216.501 96.5zM336.999 646
c-54.667 0 -101.334 -15.5 -140.001 -46.5s-66.667 -69.667 -84 -116s-26 -96.833 -26 -151.5c0 -81.333 22.333 -152.166 67 -212.499s105 -90.5 181 -90.5c76.667 0 137.334 30.167 182.001 90.5s67 134.166 67 221.499c0 50 -8.5 97.5 -25.5 142.5
s-44.833 83.333 -83.5 115s-84.667 47.5 -138 47.5zM252.999 720h-33c-0.666992 24 4.66602 44.333 15.999 61s27 25 47 25c13.333 0 32.333 -7 57 -21c22.667 -11.333 39.334 -17 50.001 -17c16.667 0 25.667 12.333 27 37h33c0 -53.333 -20 -80 -60 -80
c-14.667 0 -34.667 6.66699 -60 20c-24 12.667 -40.667 19 -50 19c-14.667 0 -23.667 -14.667 -27 -44z" />
    <glyph glyph-name="Odieresis" unicode="&#xd6;" horiz-adv-x="671" 
d="M340 686c86 0 156.499 -31.167 211.499 -93.5s82.5 -145.166 82.5 -248.499c0 -112.667 -29.333 -200 -88 -262s-130 -93 -214 -93c-84.667 0 -155 31.167 -211 93.5s-84 145.166 -84 248.499c0 108 28.833 194.167 86.5 258.5s129.834 96.5 216.501 96.5zM336.999 646
c-54.667 0 -101.334 -15.5 -140.001 -46.5s-66.667 -69.667 -84 -116s-26 -96.833 -26 -151.5c0 -81.333 22.333 -152.166 67 -212.499s105 -90.5 181 -90.5c76.667 0 137.334 30.167 182.001 90.5s67 134.166 67 221.499c0 50 -8.5 97.5 -25.5 142.5
s-44.833 83.333 -83.5 115s-84.667 47.5 -138 47.5zM247.999 726c-10.667 0 -19.333 3.83301 -26 11.5s-10 17.167 -10 28.5c0 10.667 3.66699 20 11 28s16 12 26 12c10.667 0 19.5 -3.83301 26.5 -11.5s10.5 -17.167 10.5 -28.5s-3.33301 -20.833 -10 -28.5
s-16 -11.5 -28 -11.5zM420 726c-10.667 0 -19.333 3.83301 -26 11.5s-10 17.167 -10 28.5c0 10.667 3.66699 20 11 28s16 12 26 12c10.667 0 19.5 -3.83301 26.5 -11.5s10.5 -17.167 10.5 -28.5s-3.33301 -20.833 -10 -28.5s-16 -11.5 -28 -11.5z" />
    <glyph glyph-name="multiply" unicode="&#xd7;" horiz-adv-x="596" 
d="M40 496l30 30l228 -232l227 232l31 -30l-228 -233l227 -233l-30 -30l-227 232l-228 -232l-30 30l228 233z" />
    <glyph glyph-name="Oslash" unicode="&#xd8;" horiz-adv-x="671" 
d="M86 -28l-28.999 23l66 89c-57.333 64.667 -86 147.334 -86 248.001c0 108 29 194 87 258s130 96 216 96c68.667 0 128.667 -21.667 180 -65l61 81l32 -22l-65 -87c57.333 -64 86 -147 86 -249c0 -58.667 -8.5 -111.334 -25.5 -158.001s-39.833 -84 -68.5 -112
s-60.334 -49.167 -95.001 -63.5s-70.667 -21.5 -108 -21.5c-72 0 -134.333 22.333 -187 67zM152.001 124l342 460.999c-46 40.667 -98.333 61 -157 61c-54 0 -100.5 -15.833 -139.5 -47.5s-67.167 -70.167 -84.5 -115.5s-26 -93.666 -26 -144.999c0 -77.333 21 -149 63 -215
zM519.001 553.999l-342 -461.999c43.333 -42 96 -63 158 -63c52 0 97.333 15 136 45s67.167 68.167 85.5 114.5s27.5 97.166 27.5 152.499c0 80.667 -21 151.667 -63 213h-2z" />
    <glyph glyph-name="Ugrave" unicode="&#xd9;" horiz-adv-x="626" 
d="M81 674l47.999 0.00195312v-407c0 -80.667 16.5 -140.334 49.5 -179.001s76.167 -58 129.5 -58c58.667 0 104.834 19.667 138.501 59s50.5 98.666 50.5 177.999v407h48v-402c0 -97.333 -22.333 -168.833 -67 -214.5s-102 -68.5 -172 -68.5c-66 0 -120 21.833 -162 65.5
s-63 113.5 -63 209.5v410zM188.999 823.002h73l98 -113h-40z" />
    <glyph glyph-name="Uacute" unicode="&#xda;" horiz-adv-x="626" 
d="M81 674l47.999 0.00195312v-407c0 -80.667 16.5 -140.334 49.5 -179.001s76.167 -58 129.5 -58c58.667 0 104.834 19.667 138.501 59s50.5 98.666 50.5 177.999v407h48v-402c0 -97.333 -22.333 -168.833 -67 -214.5s-102 -68.5 -172 -68.5c-66 0 -120 21.833 -162 65.5
s-63 113.5 -63 209.5v410zM377.999 823.002h73l-131 -113h-40z" />
    <glyph glyph-name="Ucircumflex" unicode="&#xdb;" horiz-adv-x="626" 
d="M81 674l47.999 0.00195312v-407c0 -80.667 16.5 -140.334 49.5 -179.001s76.167 -58 129.5 -58c58.667 0 104.834 19.667 138.501 59s50.5 98.666 50.5 177.999v407h48v-402c0 -97.333 -22.333 -168.833 -67 -214.5s-102 -68.5 -172 -68.5c-66 0 -120 21.833 -162 65.5
s-63 113.5 -63 209.5v410zM295.999 819.002h38l107 -109h-53l-72 74h-2l-72 -74h-50z" />
    <glyph glyph-name="Udieresis" unicode="&#xdc;" horiz-adv-x="626" 
d="M81 674l47.999 0.00195312v-407c0 -80.667 16.5 -140.334 49.5 -179.001s76.167 -58 129.5 -58c58.667 0 104.834 19.667 138.501 59s50.5 98.666 50.5 177.999v407h48v-402c0 -97.333 -22.333 -168.833 -67 -214.5s-102 -68.5 -172 -68.5c-66 0 -120 21.833 -162 65.5
s-63 113.5 -63 209.5v410zM225.999 726.002c-10.667 0 -19.333 3.83301 -26 11.5s-10 17.167 -10 28.5c0 10.667 3.66699 20 11 28s16 12 26 12c10.667 0 19.5 -3.83301 26.5 -11.5s10.5 -17.167 10.5 -28.5s-3.33301 -20.833 -10 -28.5s-16 -11.5 -28 -11.5zM398 726.002
c-10.667 0 -19.333 3.83301 -26 11.5s-10 17.167 -10 28.5c0 10.667 3.66699 20 11 28s16 12 26 12c10.667 0 19.5 -3.83301 26.5 -11.5s10.5 -17.167 10.5 -28.5s-3.33301 -20.833 -10 -28.5s-16 -11.5 -28 -11.5z" />
    <glyph glyph-name="Yacute" unicode="&#xdd;" horiz-adv-x="503" 
d="M277 0l-48.001 -0.00195312v292l-214 382h53l111 -201c34.667 -63.333 60.334 -111.666 77.001 -144.999h2c8 18.667 34 67.334 78 146.001l115 200h53l-227 -383v-291zM319.999 814.998h73l-131 -113h-40z" />
    <glyph glyph-name="Thorn" unicode="&#xde;" horiz-adv-x="501" 
d="M81 0l0.000976562 674h47v-138c32 6 66.667 9 104 9c77.333 0 135.666 -18.667 174.999 -56c32.667 -32.667 49 -72.667 49 -120c0 -63.333 -22.5 -113 -67.5 -149s-104.833 -54 -179.5 -54c-34 0 -61 2 -81 6v-172h-47zM128.001 495l-0.000976562 -282.001
c20.667 -4.66699 48.334 -7 83.001 -7c62 0 110.333 13.667 145 41s52 65.333 52 114s-16 84.834 -48 108.501s-75.333 35.5 -130 35.5c-42.667 0 -76.667 -3.33301 -102 -10z" />
    <glyph glyph-name="germandbls" unicode="&#xdf;" horiz-adv-x="516" 
d="M129 0l-48.002 0.000976562v465c0 100 22.667 171 68 213c32.667 28.667 74.334 43 125.001 43c42.667 0 79.167 -13.833 109.5 -41.5s45.5 -66.834 45.5 -117.501c0 -30 -7.33301 -57.333 -22 -82c-53.333 -21.333 -80 -50.333 -80 -87c0 -13.333 3 -26 9 -38
s12.167 -21.5 18.5 -28.5s17.5 -18.167 33.5 -33.5c18.667 -18.667 32.667 -33.334 42 -44.001s18.333 -25.834 27 -45.501s13 -40.5 13 -62.5c0 -44.667 -15.167 -81.167 -45.5 -109.5s-70.166 -42.5 -119.499 -42.5c-40 0 -75 8 -105 24l13 40
c33.333 -16 64.666 -24 93.999 -24c36.667 0 65.334 10 86.001 30s31 44.667 31 74c0 44 -22 85.333 -66 124c-26.667 24 -46.167 45.5 -58.5 64.5s-18.5 40.167 -18.5 63.5c0 52.667 31 93.334 93 122.001c6 12.667 9 28.667 9 48c0 40.667 -10.833 71.834 -32.5 93.501
s-50.5 32.5 -86.5 32.5c-46 0 -80 -17.333 -102 -52s-33 -90 -33 -166v-463z" />
    <glyph glyph-name="agrave" unicode="&#xe0;" horiz-adv-x="454" 
d="M380 302l-0.00195312 -188c0 -47.333 2.33301 -85.333 7 -114h-44l-7 69h-2c-14 -21.333 -34.333 -40 -61 -56s-57.667 -24 -93 -24c-45.333 0 -80.166 13.167 -104.499 39.5s-36.5 57.166 -36.5 92.499c0 56.667 24.833 100.334 74.5 131.001s122.5 45.667 218.5 45v13
c0 94.667 -41 141.667 -123 141c-47.333 0 -87.666 -12 -120.999 -36l-15 35c41.333 27.333 88.333 41 141 41c110.667 0 166 -63 166 -189zM331.998 154l0.000976562 102.998c-162 4.66699 -243 -38 -243 -128c0 -32.667 9.16699 -57.5 27.5 -74.5
s41.166 -25.5 68.499 -25.5c37.333 0 68 9.33301 92 28s40.667 41.334 50 68.001c3.33301 8.66699 5 18.334 5 29.001zM90.999 687.998h70l89 -138h-37z" />
    <glyph glyph-name="aacute" unicode="&#xe1;" horiz-adv-x="454" 
d="M380 302l-0.00195312 -188c0 -47.333 2.33301 -85.333 7 -114h-44l-7 69h-2c-14 -21.333 -34.333 -40 -61 -56s-57.667 -24 -93 -24c-45.333 0 -80.166 13.167 -104.499 39.5s-36.5 57.166 -36.5 92.499c0 56.667 24.833 100.334 74.5 131.001s122.5 45.667 218.5 45v13
c0 94.667 -41 141.667 -123 141c-47.333 0 -87.666 -12 -120.999 -36l-15 35c41.333 27.333 88.333 41 141 41c110.667 0 166 -63 166 -189zM331.998 154l0.000976562 102.998c-162 4.66699 -243 -38 -243 -128c0 -32.667 9.16699 -57.5 27.5 -74.5
s41.166 -25.5 68.499 -25.5c37.333 0 68 9.33301 92 28s40.667 41.334 50 68.001c3.33301 8.66699 5 18.334 5 29.001zM271.999 687.998h70l-122 -138h-37z" />
    <glyph glyph-name="acircumflex" unicode="&#xe2;" horiz-adv-x="454" 
d="M380 302l-0.00195312 -188c0 -47.333 2.33301 -85.333 7 -114h-44l-7 69h-2c-14 -21.333 -34.333 -40 -61 -56s-57.667 -24 -93 -24c-45.333 0 -80.166 13.167 -104.499 39.5s-36.5 57.166 -36.5 92.499c0 56.667 24.833 100.334 74.5 131.001s122.5 45.667 218.5 45v13
c0 94.667 -41 141.667 -123 141c-47.333 0 -87.666 -12 -120.999 -36l-15 35c41.333 27.333 88.333 41 141 41c110.667 0 166 -63 166 -189zM331.998 154l0.000976562 102.998c-162 4.66699 -243 -38 -243 -128c0 -32.667 9.16699 -57.5 27.5 -74.5
s41.166 -25.5 68.499 -25.5c37.333 0 68 9.33301 92 28s40.667 41.334 50 68.001c3.33301 8.66699 5 18.334 5 29.001zM202.999 687.998h35l94 -138h-48l-62 99h-2l-63 -99h-45z" />
    <glyph glyph-name="atilde" unicode="&#xe3;" horiz-adv-x="454" 
d="M380 302l-0.00195312 -188c0 -47.333 2.33301 -85.333 7 -114h-44l-7 69h-2c-14 -21.333 -34.333 -40 -61 -56s-57.667 -24 -93 -24c-45.333 0 -80.166 13.167 -104.499 39.5s-36.5 57.166 -36.5 92.499c0 56.667 24.833 100.334 74.5 131.001s122.5 45.667 218.5 45v13
c0 94.667 -41 141.667 -123 141c-47.333 0 -87.666 -12 -120.999 -36l-15 35c41.333 27.333 88.333 41 141 41c110.667 0 166 -63 166 -189zM331.998 154l0.000976562 102.998c-162 4.66699 -243 -38 -243 -128c0 -32.667 9.16699 -57.5 27.5 -74.5
s41.166 -25.5 68.499 -25.5c37.333 0 68 9.33301 92 28s40.667 41.334 50 68.001c3.33301 8.66699 5 18.334 5 29.001zM149.999 571.998h-34c-0.666992 26.667 4.5 48 15.5 64s25.833 24 44.5 24c9.33301 0 29.333 -7.33301 60 -22c18.667 -10.667 32.667 -16 42 -16
c16.667 0 26 13.667 28 41h33c0 -56 -20 -84 -60 -84c-13.333 0 -32 6.66699 -56 20c-22.667 12 -38 18 -46 18c-16 0 -25 -15 -27 -45z" />
    <glyph glyph-name="adieresis" unicode="&#xe4;" horiz-adv-x="454" 
d="M380 302l-0.00195312 -188c0 -47.333 2.33301 -85.333 7 -114h-44l-7 69h-2c-14 -21.333 -34.333 -40 -61 -56s-57.667 -24 -93 -24c-45.333 0 -80.166 13.167 -104.499 39.5s-36.5 57.166 -36.5 92.499c0 56.667 24.833 100.334 74.5 131.001s122.5 45.667 218.5 45v13
c0 94.667 -41 141.667 -123 141c-47.333 0 -87.666 -12 -120.999 -36l-15 35c41.333 27.333 88.333 41 141 41c110.667 0 166 -63 166 -189zM331.998 154l0.000976562 102.998c-162 4.66699 -243 -38 -243 -128c0 -32.667 9.16699 -57.5 27.5 -74.5
s41.166 -25.5 68.499 -25.5c37.333 0 68 9.33301 92 28s40.667 41.334 50 68.001c3.33301 8.66699 5 18.334 5 29.001zM140.999 577.998c-10.667 0 -19.333 3.83398 -26 11.501s-10 16.834 -10 27.501c0 10 3.83301 19 11.5 27s16.5 12 26.5 12
c10.667 0 19.5 -3.83301 26.5 -11.5s10.5 -16.834 10.5 -27.501s-3.5 -19.834 -10.5 -27.501s-16.5 -11.5 -28.5 -11.5zM312 577.999l-1.99902 0.000976562c-10.667 0 -19.334 3.83301 -26.001 11.5s-10 16.834 -10 27.501c0 10 3.83301 19 11.5 27s16.5 12 26.5 12
c10.667 0 19.5 -3.83301 26.5 -11.5s10.5 -16.834 10.5 -27.501s-3.33301 -19.834 -10 -27.501s-15.667 -11.5 -27 -11.5z" />
    <glyph glyph-name="aring" unicode="&#xe5;" horiz-adv-x="454" 
d="M380 302l-0.00195312 -188c0 -47.333 2.33301 -85.333 7 -114h-44l-7 69h-2c-14 -21.333 -34.333 -40 -61 -56s-57.667 -24 -93 -24c-45.333 0 -80.166 13.167 -104.499 39.5s-36.5 57.166 -36.5 92.499c0 56.667 24.833 100.334 74.5 131.001s122.5 45.667 218.5 45v13
c0 94.667 -41 141.667 -123 141c-47.333 0 -87.666 -12 -120.999 -36l-15 35c41.333 27.333 88.333 41 141 41c110.667 0 166 -63 166 -189zM331.998 154l0.000976562 102.998c-162 4.66699 -243 -38 -243 -128c0 -32.667 9.16699 -57.5 27.5 -74.5
s41.166 -25.5 68.499 -25.5c36.667 0 67 9.33301 91 28s41 41.334 51 68.001c3.33301 8.66699 5 18.334 5 29.001zM224.999 535.998c-26.667 0 -48.832 8.5 -66.499 25.5s-26.5 37.833 -26.5 62.5c0 26 8.83301 47.667 26.5 65s40.167 26 67.5 26
c25.333 0 46.666 -8.66699 63.999 -26s26 -39 26 -65c0 -24.667 -9 -45.5 -27 -62.5s-39.333 -25.5 -64 -25.5zM224.001 565.998c16 0 29.167 5.83203 39.5 17.499s15.5 25.834 15.5 42.501s-5.33301 30.667 -16 42s-24 17 -40 17c-15.333 0 -27.833 -6 -37.5 -18
s-14.5 -26.333 -14.5 -43c0 -14.667 5.16699 -28 15.5 -40s22.833 -18 37.5 -18z" />
    <glyph glyph-name="ae" unicode="&#xe6;" horiz-adv-x="755" 
d="M712 251h-334.003c-2.66699 -70.667 11.833 -125.167 43.5 -163.5s73.5 -57.5 125.5 -57.5c50 0 92.667 9.33301 128 28l13 -37c-38.667 -21.333 -87 -32 -145 -32c-42.667 0 -80.667 10.667 -114 32s-56 50.666 -68 87.999h-2c-12.667 -38 -35 -67.5 -67 -88.5
s-69 -31.5 -111 -31.5c-45.333 0 -80.166 12.833 -104.499 38.5s-36.5 55.5 -36.5 89.5c0 55.333 25 98.333 75 129s123 45 219 43v24c0 8 -0.666992 16.667 -2 26s-4.66602 21 -9.99902 35s-12.166 26.5 -20.499 37.5s-20.5 20.333 -36.5 28s-34.667 11.5 -56 11.5
c-48 0 -88 -12 -120 -36l-15 34c42 28 88 42 138 42c85.333 0 136 -38.667 152 -116h2c14.667 36 36.834 64.333 66.501 85s64.167 31 103.5 31c28 0 53.167 -5.5 75.5 -16.5s39.666 -24.667 51.999 -41s22.5 -34.666 30.5 -54.999s13.333 -38.5 16 -54.5s4 -30.667 4 -44
c0 -14 -0.666992 -23.667 -2 -29zM333.997 168v83.002c-163.333 4.66699 -245 -38.333 -245 -129c0 -28.667 9.33301 -51.334 28 -68.001s41.667 -25 69 -25c38 -0.666992 69.167 8.66602 93.5 27.999s40.833 44 49.5 74c3.33301 10 5 22.333 5 37zM378.997 289.002h284.998
c0.666992 16 -1.16602 33 -5.49902 51s-11.5 35.5 -21.5 52.5s-24.167 31.167 -42.5 42.5s-39.166 17 -62.499 17c-46.667 0 -83.167 -17.167 -109.5 -51.5s-40.833 -71.5 -43.5 -111.5z" />
    <glyph glyph-name="ccedilla" unicode="&#xe7;" horiz-adv-x="446" 
d="M398 59l13.998 -38.001c-40 -20 -85 -30.333 -135 -31l-29 -44c18.667 -2.66699 34.667 -10 48 -22s20 -27 20 -45c0 -25.333 -8.83301 -44.5 -26.5 -57.5s-40.167 -19.5 -67.5 -19.5c-21.333 0 -41.333 5.33301 -60 16l12 34c14.667 -8.66699 32.334 -13 53.001 -13
c32 0 48 11.667 48 35c-0.666992 25.333 -26.667 40.333 -78 45l44 73c-60 6 -108.333 31.333 -145 76s-55 100.334 -55 167.001c0 75.333 23.167 136.833 69.5 184.5s105.5 71.5 177.5 71.5c54.667 0 96.667 -10 126 -30l-17 -39c-34.667 18.667 -72.667 28 -114 28
c-61.333 0 -109 -20.333 -143 -61s-51 -90.667 -51 -150c0 -62.667 17.667 -113 53 -151s81 -57 137 -57c40.667 0 80.334 9.33301 119.001 28z" />
    <glyph glyph-name="egrave" unicode="&#xe8;" horiz-adv-x="485" 
d="M442 245h-353.998c0 -72.667 17 -126.5 51 -161.5s78 -52.5 132 -52.5c51.333 0 95.666 9 132.999 27l12 -37c-37.333 -20.667 -87.666 -31 -150.999 -31c-68 0 -122.333 22.333 -163 67s-61 102.667 -61 174c0 78.667 20.167 141.667 60.5 189s92.166 71 155.499 71
c30 0 56.5 -5.33301 79.5 -16s41.167 -24 54.5 -40s24.166 -34.333 32.499 -55s13.833 -39.5 16.5 -56.5s4 -33.5 4 -49.5c0 -13.333 -0.666992 -23 -2 -29zM90.002 283h304c0 18.667 -2 37 -6 55s-11 35.833 -21 53.5s-25 32 -45 43s-43.667 16.5 -71 16.5
c-48 0 -85.5 -17 -112.5 -51s-43.167 -73 -48.5 -117zM145.002 688h70l89 -138h-37z" />
    <glyph glyph-name="eacute" unicode="&#xe9;" horiz-adv-x="485" 
d="M442 245h-353.998c0 -72.667 17 -126.5 51 -161.5s78 -52.5 132 -52.5c51.333 0 95.666 9 132.999 27l12 -37c-37.333 -20.667 -87.666 -31 -150.999 -31c-68 0 -122.333 22.333 -163 67s-61 102.667 -61 174c0 78.667 20.167 141.667 60.5 189s92.166 71 155.499 71
c30 0 56.5 -5.33301 79.5 -16s41.167 -24 54.5 -40s24.166 -34.333 32.499 -55s13.833 -39.5 16.5 -56.5s4 -33.5 4 -49.5c0 -13.333 -0.666992 -23 -2 -29zM90.002 283h304c0 18.667 -2 37 -6 55s-11 35.833 -21 53.5s-25 32 -45 43s-43.667 16.5 -71 16.5
c-48 0 -85.5 -17 -112.5 -51s-43.167 -73 -48.5 -117zM306.002 688h70l-122 -138h-37z" />
    <glyph glyph-name="ecircumflex" unicode="&#xea;" horiz-adv-x="485" 
d="M442 245h-353.998c0 -72.667 17 -126.5 51 -161.5s78 -52.5 132 -52.5c51.333 0 95.666 9 132.999 27l12 -37c-37.333 -20.667 -87.666 -31 -150.999 -31c-68 0 -122.333 22.333 -163 67s-61 102.667 -61 174c0 78.667 20.167 141.667 60.5 189s92.166 71 155.499 71
c30 0 56.5 -5.33301 79.5 -16s41.167 -24 54.5 -40s24.166 -34.333 32.499 -55s13.833 -39.5 16.5 -56.5s4 -33.5 4 -49.5c0 -13.333 -0.666992 -23 -2 -29zM90.002 283h304c0 18.667 -2 37 -6 55s-11 35.833 -21 53.5s-25 32 -45 43s-43.667 16.5 -71 16.5
c-48 0 -85.5 -17 -112.5 -51s-43.167 -73 -48.5 -117zM236.002 688h36l94 -138h-48l-63 99h-2l-62 -99h-45z" />
    <glyph glyph-name="edieresis" unicode="&#xeb;" horiz-adv-x="485" 
d="M442 245h-353.998c0 -72.667 17 -126.5 51 -161.5s78 -52.5 132 -52.5c51.333 0 95.666 9 132.999 27l12 -37c-37.333 -20.667 -87.666 -31 -150.999 -31c-68 0 -122.333 22.333 -163 67s-61 102.667 -61 174c0 78.667 20.167 141.667 60.5 189s92.166 71 155.499 71
c30 0 56.5 -5.33301 79.5 -16s41.167 -24 54.5 -40s24.166 -34.333 32.499 -55s13.833 -39.5 16.5 -56.5s4 -33.5 4 -49.5c0 -13.333 -0.666992 -23 -2 -29zM90.002 283h304c0 18.667 -2 37 -6 55s-11 35.833 -21 53.5s-25 32 -45 43s-43.667 16.5 -71 16.5
c-48 0 -85.5 -17 -112.5 -51s-43.167 -73 -48.5 -117zM176.002 578l-1.99902 0.000976562c-10.667 0 -19.334 3.83301 -26.001 11.5s-10 16.834 -10 27.501c0 10 3.83301 19 11.5 27s16.5 12 26.5 12c10.667 0 19.5 -3.83301 26.5 -11.5s10.5 -16.834 10.5 -27.501
s-3.33301 -19.834 -10 -27.501s-15.667 -11.5 -27 -11.5zM346.003 578.001l-1.99902 0.000976562c-10.667 0 -19.334 3.83301 -26.001 11.5s-10 16.834 -10 27.501c0 10 3.83301 19 11.5 27s16.5 12 26.5 12c10.667 0 19.5 -3.83301 26.5 -11.5s10.5 -16.834 10.5 -27.501
s-3.33301 -19.834 -10 -27.501s-15.667 -11.5 -27 -11.5z" />
    <glyph glyph-name="igrave" unicode="&#xec;" horiz-adv-x="209" 
d="M129 0h-48v480h48v-480zM-26 688h70l89 -138h-37z" />
    <glyph glyph-name="iacute" unicode="&#xed;" horiz-adv-x="209" 
d="M129 0h-48v480h48v-480zM154 688h70l-122 -138h-37z" />
    <glyph glyph-name="icircumflex" unicode="&#xee;" horiz-adv-x="209" 
d="M129 0h-48v480h48v-480zM86 688h35l94 -138h-48l-62 99h-2l-63 -99h-45z" />
    <glyph glyph-name="idieresis" unicode="&#xef;" horiz-adv-x="209" 
d="M129 0h-48v480h48v-480zM21 578l-1.99902 0.000976562c-10.667 0 -19.334 3.83301 -26.001 11.5s-10 16.834 -10 27.501c0 10 3.83301 19 11.5 27s16.5 12 26.5 12c10.667 0 19.5 -3.83301 26.5 -11.5s10.5 -16.834 10.5 -27.501s-3.33301 -19.834 -10 -27.501
s-15.667 -11.5 -27 -11.5zM190.001 578.001l-1.99902 0.000976562c-10.667 0 -19.334 3.83301 -26.001 11.5s-10 16.834 -10 27.501c0 10 3.83301 19 11.5 27s16.5 12 26.5 12c10.667 0 19.5 -3.83301 26.5 -11.5s10.5 -16.834 10.5 -27.501s-3.33301 -19.834 -10 -27.501
s-15.667 -11.5 -27 -11.5z" />
    <glyph glyph-name="eth" unicode="&#xf0;" horiz-adv-x="521" 
d="M256 29c50.667 0 92 19.999 124 59.999s48 91.333 48 154c0 68.667 -13.667 119.334 -41 152.001c-32 37.333 -74.667 56 -128 56c-38 0 -70.333 -11.833 -97 -35.5s-45.5 -51 -56.5 -82s-16.5 -63.167 -16.5 -96.5c0 -58.667 16.167 -108 48.5 -148
s71.833 -60 118.5 -60zM121 524.999l-13.999 33.001l123 60c-25.333 20.667 -62.333 43 -111 67l22 36c49.333 -25.333 92.666 -52.333 129.999 -81l122 61l16 -34l-107 -53c58 -48 101.667 -103 131 -165c29.333 -58.667 44 -125 44 -199c0 -86 -22 -151 -66 -195
s-96 -66 -156 -66c-62.667 0 -114 22.5 -154 67.5s-60 104.5 -60 178.5c0 77.333 21.833 139.333 65.5 186s94.167 70 151.5 70c54.667 0 101 -19 139 -57l2 2c-32 57.333 -77.333 109.666 -136 156.999z" />
    <glyph glyph-name="ntilde" unicode="&#xf1;" horiz-adv-x="536" 
d="M81 0l0.00195312 365.001c0 42.667 -1.33301 81 -4 115h45l3 -87h2c13.333 28.667 34.833 52.167 64.5 70.5s63.167 27.5 100.5 27.5c11.333 0 23.166 -1.16699 35.499 -3.5s26.833 -7.83301 43.5 -16.5s31.167 -19.834 43.5 -33.501s23 -33.5 32 -59.5
s13.5 -56 13.5 -90v-288h-48v284c0 48.667 -10.667 88.5 -32 119.5s-55 46.5 -101 46.5c-32.667 0 -62.334 -10.5 -89.001 -31.5s-45 -47.167 -55 -78.5c-4 -16 -6 -30.333 -6 -43v-297h-48zM190.002 573.001l-34 -0.00195312c-0.666992 26.667 4.5 47.834 15.5 63.501
s25.833 23.5 44.5 23.5c4.66699 0 9.66699 -0.666992 15 -2s9.5 -2.66602 12.5 -3.99902s8.5 -4 16.5 -8s13.667 -6.66699 17 -8c18.667 -10.667 32.667 -16 42 -16c16.667 0 26 13.667 28 41h33c0 -56 -20 -84 -60 -84c-12.667 0 -31.667 6.66699 -57 20
c-22.667 12 -38 18 -46 18c-16 0 -25 -14.667 -27 -44z" />
    <glyph glyph-name="ograve" unicode="&#xf2;" horiz-adv-x="532" 
d="M268 491c66.667 0 120.5 -22.6689 161.5 -68.002s61.5 -104.666 61.5 -177.999c0 -82.667 -23.167 -146 -69.5 -190s-99.833 -66 -160.5 -66c-63.333 0 -115.833 22.667 -157.5 68s-62.5 105 -62.5 179c0 78.667 22.167 140.834 66.5 186.501s97.833 68.5 160.5 68.5z
M267 450.998c-57.333 0 -101.333 -20.9961 -132 -62.9961s-46 -91.667 -46 -149c0 -60 16.833 -110 50.5 -150s75.167 -60 124.5 -60c50.667 0 93.167 20.167 127.5 60.5s51.5 91.166 51.5 152.499c0 23.333 -3.33301 46.666 -10 69.999s-16.667 45.666 -30 66.999
s-31.833 38.666 -55.5 51.999s-50.5 20 -80.5 20zM152 688.002h70l89 -138h-37z" />
    <glyph glyph-name="oacute" unicode="&#xf3;" horiz-adv-x="532" 
d="M268 491c66.667 0 120.5 -22.6689 161.5 -68.002s61.5 -104.666 61.5 -177.999c0 -82.667 -23.167 -146 -69.5 -190s-99.833 -66 -160.5 -66c-63.333 0 -115.833 22.667 -157.5 68s-62.5 105 -62.5 179c0 78.667 22.167 140.834 66.5 186.501s97.833 68.5 160.5 68.5z
M267 450.998c-57.333 0 -101.333 -20.9961 -132 -62.9961s-46 -91.667 -46 -149c0 -60 16.833 -110 50.5 -150s75.167 -60 124.5 -60c50.667 0 93.167 20.167 127.5 60.5s51.5 91.166 51.5 152.499c0 23.333 -3.33301 46.666 -10 69.999s-16.667 45.666 -30 66.999
s-31.833 38.666 -55.5 51.999s-50.5 20 -80.5 20zM310 688.002h70l-122 -138h-37z" />
    <glyph glyph-name="ocircumflex" unicode="&#xf4;" horiz-adv-x="532" 
d="M268 491c66.667 0 120.5 -22.6689 161.5 -68.002s61.5 -104.666 61.5 -177.999c0 -82.667 -23.167 -146 -69.5 -190s-99.833 -66 -160.5 -66c-63.333 0 -115.833 22.667 -157.5 68s-62.5 105 -62.5 179c0 78.667 22.167 140.834 66.5 186.501s97.833 68.5 160.5 68.5z
M267 450.998c-57.333 0 -101.333 -20.9961 -132 -62.9961s-46 -91.667 -46 -149c0 -60 16.833 -110 50.5 -150s75.167 -60 124.5 -60c50.667 0 93.167 20.167 127.5 60.5s51.5 91.166 51.5 152.499c0 23.333 -3.33301 46.666 -10 69.999s-16.667 45.666 -30 66.999
s-31.833 38.666 -55.5 51.999s-50.5 20 -80.5 20zM246 688.002h36l94 -138h-48l-63 99h-2l-62 -99h-45z" />
    <glyph glyph-name="otilde" unicode="&#xf5;" horiz-adv-x="532" 
d="M268 491c66.667 0 120.5 -22.6689 161.5 -68.002s61.5 -104.666 61.5 -177.999c0 -82.667 -23.167 -146 -69.5 -190s-99.833 -66 -160.5 -66c-63.333 0 -115.833 22.667 -157.5 68s-62.5 105 -62.5 179c0 78.667 22.167 140.834 66.5 186.501s97.833 68.5 160.5 68.5z
M267 450.998c-57.333 0 -101.333 -20.9961 -132 -62.9961s-46 -91.667 -46 -149c0 -60 16.833 -110 50.5 -150s75.167 -60 124.5 -60c50.667 0 93.167 20.167 127.5 60.5s51.5 91.166 51.5 152.499c0 23.333 -3.33301 46.666 -10 69.999s-16.667 45.666 -30 66.999
s-31.833 38.666 -55.5 51.999s-50.5 20 -80.5 20zM188 573.002l-34 -0.00195312c-0.666992 26.667 4.5 47.834 15.5 63.501s25.833 23.5 44.5 23.5c4.66699 0 9.66699 -0.666992 15 -2s9.5 -2.66602 12.5 -3.99902s8.5 -4 16.5 -8s13.667 -6.66699 17 -8
c18.667 -10.667 32.667 -16 42 -16c16.667 0 26 13.667 28 41h33c0 -56 -20 -84 -60 -84c-12.667 0 -31.667 6.66699 -57 20c-22.667 12 -38 18 -46 18c-16 0 -25 -14.667 -27 -44z" />
    <glyph glyph-name="odieresis" unicode="&#xf6;" horiz-adv-x="532" 
d="M268 491c66.667 0 120.5 -22.6689 161.5 -68.002s61.5 -104.666 61.5 -177.999c0 -82.667 -23.167 -146 -69.5 -190s-99.833 -66 -160.5 -66c-63.333 0 -115.833 22.667 -157.5 68s-62.5 105 -62.5 179c0 78.667 22.167 140.834 66.5 186.501s97.833 68.5 160.5 68.5z
M267 450.998c-57.333 0 -101.333 -20.9961 -132 -62.9961s-46 -91.667 -46 -149c0 -60 16.833 -110 50.5 -150s75.167 -60 124.5 -60c50.667 0 93.167 20.167 127.5 60.5s51.5 91.166 51.5 152.499c0 23.333 -3.33301 46.666 -10 69.999s-16.667 45.666 -30 66.999
s-31.833 38.666 -55.5 51.999s-50.5 20 -80.5 20zM181 578.002l-1.99902 0.000976562c-10.667 0 -19.334 3.83301 -26.001 11.5s-10 16.834 -10 27.501c0 10 3.83301 19 11.5 27s16.5 12 26.5 12c10.667 0 19.5 -3.83301 26.5 -11.5s10.5 -16.834 10.5 -27.501
s-3.33301 -19.834 -10 -27.501s-15.667 -11.5 -27 -11.5zM351.001 578.003l-1.99902 0.000976562c-10.667 0 -19.334 3.83301 -26.001 11.5s-10 16.834 -10 27.501c0 10 3.83301 19 11.5 27s16.5 12 26.5 12c10.667 0 19.5 -3.83301 26.5 -11.5s10.5 -16.834 10.5 -27.501
s-3.33301 -19.834 -10 -27.501s-15.667 -11.5 -27 -11.5z" />
    <glyph glyph-name="divide" unicode="&#xf7;" horiz-adv-x="596" 
d="M297 399c-12 0 -21.832 4.33301 -29.499 13s-11.167 19 -10.5 31c0 13.333 3.83301 24.166 11.5 32.499s17.5 12.5 29.5 12.5c12.667 0 22.667 -4.16699 30 -12.5s11 -19.166 11 -32.499c0 -12.667 -3.83301 -23.167 -11.5 -31.5s-17.834 -12.5 -30.501 -12.5z
M556.001 248h-516v40h516v-40zM297.001 48c-12 0 -21.832 4.33301 -29.499 13s-11.167 19 -10.5 31c0 13.333 3.83301 24.166 11.5 32.499s17.5 12.5 29.5 12.5c12.667 0 22.667 -4.16699 30 -12.5s11 -19.166 11 -32.499c0 -12.667 -3.83301 -23.167 -11.5 -31.5
s-17.834 -12.5 -30.501 -12.5z" />
    <glyph glyph-name="oslash" unicode="&#xf8;" horiz-adv-x="532" 
d="M269 491c46 0 87.667 -13.002 125 -39.002l39 55l31 -21l-41 -60c45.333 -47.333 68 -107.666 68 -180.999c0 -42.667 -6.66699 -81 -20 -115s-31.166 -60.833 -53.499 -80.5s-46.333 -34.667 -72 -45s-52.167 -15.5 -79.5 -15.5c-50 0 -92.667 13.333 -128 40l-41 -56
l-28 25l40 57c-45.333 46.667 -68 107 -68 181c0 78.667 22.167 140.834 66.5 186.501s98.166 68.5 161.499 68.5zM137 90.998l233.001 324c-26.667 24 -61.334 36 -104.001 36c-58 0 -102 -21.333 -132 -64s-45 -92 -45 -148c0 -58 15.333 -107.333 46 -148h2z
M395.001 386.998l-232 -324c27.333 -22.667 60.333 -34 99 -34c52.667 0 96 20.333 130 61s51 91.667 51 153c0 54.667 -15.333 102.667 -46 144h-2z" />
    <glyph glyph-name="ugrave" unicode="&#xf9;" horiz-adv-x="531" 
d="M451 480l0.000976562 -363.001c0 -45.333 1.33301 -84.333 4 -117h-45l-3 86h-2c-14 -26 -35.167 -48.667 -63.5 -68s-61.833 -29 -100.5 -29c-18 0 -35.333 2.83301 -52 8.5s-34 15.334 -52 29.001s-32.5 35.5 -43.5 65.5s-16.5 66.333 -16.5 109v279h48v-270
c0 -119.333 42.333 -179 127 -179c32.667 0 61.667 9.5 87 28.5s43.666 41.833 54.999 68.5c6 18 9 35.667 9 53v299h48zM145.001 687.999h70l89 -138h-37z" />
    <glyph glyph-name="uacute" unicode="&#xfa;" horiz-adv-x="531" 
d="M451 480l0.000976562 -363.001c0 -45.333 1.33301 -84.333 4 -117h-45l-3 86h-2c-14 -26 -35.167 -48.667 -63.5 -68s-61.833 -29 -100.5 -29c-18 0 -35.333 2.83301 -52 8.5s-34 15.334 -52 29.001s-32.5 35.5 -43.5 65.5s-16.5 66.333 -16.5 109v279h48v-270
c0 -119.333 42.333 -179 127 -179c32.667 0 61.667 9.5 87 28.5s43.666 41.833 54.999 68.5c6 18 9 35.667 9 53v299h48zM325.001 687.999h69l-122 -138h-37z" />
    <glyph glyph-name="ucircumflex" unicode="&#xfb;" horiz-adv-x="531" 
d="M451 480l0.000976562 -363.001c0 -45.333 1.33301 -84.333 4 -117h-45l-3 86h-2c-14 -26 -35.167 -48.667 -63.5 -68s-61.833 -29 -100.5 -29c-18 0 -35.333 2.83301 -52 8.5s-34 15.334 -52 29.001s-32.5 35.5 -43.5 65.5s-16.5 66.333 -16.5 109v279h48v-270
c0 -119.333 42.333 -179 127 -179c32.667 0 61.667 9.5 87 28.5s43.666 41.833 54.999 68.5c6 18 9 35.667 9 53v299h48zM247.001 687.999h34l94 -138h-48l-62 99h-2l-63 -99h-45z" />
    <glyph glyph-name="udieresis" unicode="&#xfc;" horiz-adv-x="531" 
d="M451 480l0.000976562 -363.001c0 -45.333 1.33301 -84.333 4 -117h-45l-3 86h-2c-14 -26 -35.167 -48.667 -63.5 -68s-61.833 -29 -100.5 -29c-18 0 -35.333 2.83301 -52 8.5s-34 15.334 -52 29.001s-32.5 35.5 -43.5 65.5s-16.5 66.333 -16.5 109v279h48v-270
c0 -119.333 42.333 -179 127 -179c32.667 0 61.667 9.5 87 28.5s43.666 41.833 54.999 68.5c6 18 9 35.667 9 53v299h48zM184.001 577.999l-1.99902 0.000976562c-10.667 0 -19.334 3.83301 -26.001 11.5s-10 16.834 -10 27.501c0 10 3.83301 19 11.5 27s16.5 12 26.5 12
c10.667 0 19.5 -3.83301 26.5 -11.5s10.5 -16.834 10.5 -27.501s-3.33301 -19.834 -10 -27.501s-15.667 -11.5 -27 -11.5zM352.002 578c-10.667 0 -19.333 3.83398 -26 11.501s-10 16.834 -10 27.501c0 10 3.83301 19 11.5 27s16.5 12 26.5 12
c10.667 0 19.5 -3.83301 26.5 -11.5s10.5 -16.834 10.5 -27.501s-3.5 -19.834 -10.5 -27.501s-16.5 -11.5 -28.5 -11.5z" />
    <glyph glyph-name="yacute" unicode="&#xfd;" horiz-adv-x="440" 
d="M11 480h50.998l126 -314c12.667 -33.333 24.334 -67.666 35.001 -102.999h2l37 106l117 311h51l-144 -358c-32 -82 -59.667 -144.833 -83 -188.5s-49.666 -78.5 -78.999 -104.5c-28.667 -24 -56.667 -40.667 -84 -50l-15 40c32 12 60 29.667 84 53
c33.333 33.333 60 73.666 80 120.999c4 10 6 17 6 21s-2 11 -6 21zM277.998 688h70l-122 -138h-37z" />
    <glyph glyph-name="thorn" unicode="&#xfe;" horiz-adv-x="552" 
d="M80 665l48 -0.000976562v-271h2c38 64.667 96.333 97 175 97c60.667 0 110.167 -22.667 148.5 -68s57.5 -103.666 57.5 -174.999c0 -82.667 -21.333 -146.5 -64 -191.5s-94.667 -67.5 -156 -67.5c-71.333 0 -125 29.333 -161 88h-2v-275h-48v863zM128 277.999
l0.000976562 -92.002c0 -16 2 -30.333 6 -43c10.667 -35.333 30.667 -63.166 60 -83.499s62.666 -30.5 99.999 -30.5c50.667 0 91.5 19.667 122.5 59s46.5 92.333 46.5 159c0 56.667 -15.333 104.834 -46 144.501s-71.667 59.5 -123 59.5c-34 0 -65.667 -10.833 -95 -32.5
s-50 -50.5 -62 -86.5c-6 -19.333 -9 -37.333 -9 -54z" />
    <glyph glyph-name="ydieresis" unicode="&#xff;" horiz-adv-x="440" 
d="M11 480h50.998l126 -314c12.667 -33.333 24.334 -67.666 35.001 -102.999h2l37 106l117 311h51l-144 -358c-32 -82 -59.667 -144.833 -83 -188.5s-49.666 -78.5 -78.999 -104.5c-28.667 -24 -56.667 -40.667 -84 -50l-15 40c32 12 60 29.667 84 53
c33.333 33.333 60 73.666 80 120.999c4 10 6 17 6 21s-2 11 -6 21zM146.998 578l-1.99902 0.000976562c-10.667 0 -19.334 3.83301 -26.001 11.5s-10 16.834 -10 27.501c0 10 3.83301 19 11.5 27s16.5 12 26.5 12c10.667 0 19.5 -3.83301 26.5 -11.5
s10.5 -16.834 10.5 -27.501s-3.33301 -19.834 -10 -27.501s-15.667 -11.5 -27 -11.5zM316.999 578.001l-1.99902 0.000976562c-10.667 0 -19.334 3.83301 -26.001 11.5s-10 16.834 -10 27.501c0 10 3.83301 19 11.5 27s16.5 12 26.5 12c10.667 0 19.5 -3.83301 26.5 -11.5
s10.5 -16.834 10.5 -27.501s-3.33301 -19.834 -10 -27.501s-15.667 -11.5 -27 -11.5z" />
    <glyph glyph-name="Amacron" unicode="&#x100;" horiz-adv-x="585" 
d="M428 236h-266l-83 -236h-49l244 674h46l242 -674h-49zM177 276l237 -0.000976562l-82 225c-13.333 36.667 -25 76.334 -35 119.001h-3c-7.33301 -32.667 -19 -71.667 -35 -117zM179 771.999h228v-39h-228v39z" />
    <glyph glyph-name="amacron" unicode="&#x101;" horiz-adv-x="454" 
d="M380 302l-0.00195312 -188c0 -47.333 2.33301 -85.333 7 -114h-44l-7 69h-2c-14 -21.333 -34.333 -40 -61 -56s-57.667 -24 -93 -24c-45.333 0 -80.166 13.167 -104.499 39.5s-36.5 57.166 -36.5 92.499c0 56.667 24.833 100.334 74.5 131.001s122.5 45.667 218.5 45v13
c0 94.667 -41 141.667 -123 141c-47.333 0 -87.666 -12 -120.999 -36l-15 35c41.333 27.333 88.333 41 141 41c110.667 0 166 -63 166 -189zM331.998 154l0.000976562 102.998c-162 4.66699 -243 -38 -243 -128c0 -32.667 9.16699 -57.5 27.5 -74.5
s41.166 -25.5 68.499 -25.5c37.333 0 68 9.33301 92 28s40.667 41.334 50 68.001c3.33301 8.66699 5 18.334 5 29.001zM122.999 628.998h210v-40h-210v40z" />
    <glyph glyph-name="Abreve" unicode="&#x102;" horiz-adv-x="585" 
d="M428 236h-266l-83 -236h-49l244 674h46l242 -674h-49zM177 276l237 -0.000976562l-82 225c-13.333 36.667 -25 76.334 -35 119.001h-3c-7.33301 -32.667 -19 -71.667 -35 -117zM179 805.999h35.001c8.66699 -33.333 35 -50 79 -50c46 0 72.333 16.667 79 50h35
c-1.33301 -27.333 -11.333 -49.666 -30 -66.999s-47 -26 -85 -26c-36.667 0 -64.334 8.66699 -83.001 26s-28.667 39.666 -30 66.999z" />
    <glyph glyph-name="abreve" unicode="&#x103;" horiz-adv-x="454" 
d="M380 302l-0.00195312 -188c0 -47.333 2.33301 -85.333 7 -114h-44l-7 69h-2c-14 -21.333 -34.333 -40 -61 -56s-57.667 -24 -93 -24c-45.333 0 -80.166 13.167 -104.499 39.5s-36.5 57.166 -36.5 92.499c0 56.667 24.833 100.334 74.5 131.001s122.5 45.667 218.5 45v13
c0 94.667 -41 141.667 -123 141c-47.333 0 -87.666 -12 -120.999 -36l-15 35c41.333 27.333 88.333 41 141 41c110.667 0 166 -63 166 -189zM331.998 154l0.000976562 102.998c-162 4.66699 -243 -38 -243 -128c0 -32.667 9.16699 -57.5 27.5 -74.5
s41.166 -25.5 68.499 -25.5c37.333 0 68 9.33301 92 28s40.667 41.334 50 68.001c3.33301 8.66699 5 18.334 5 29.001zM111.999 675.998h36.001c3.33301 -21.333 12.166 -39 26.499 -53s31.833 -21 52.5 -21c24 0 42.667 7.33301 56 22s21 32 23 52h36
c0 -34 -10.833 -61.5 -32.5 -82.5s-49.167 -31.5 -82.5 -31.5c-38.667 0 -67.5 11.5 -86.5 34.5s-28.5 49.5 -28.5 79.5z" />
    <glyph glyph-name="Aogonek" unicode="&#x104;" horiz-adv-x="585" 
d="M320 674l243 -673.999l-9 -3c-8.66699 -7.33301 -17.667 -16 -27 -26s-18.833 -23 -28.5 -39s-14.5 -30.667 -14.5 -44c0 -15.333 4.5 -27.166 13.5 -35.499s20.833 -12.5 35.5 -12.5c17.333 0 32.666 3.66699 45.999 11l9 -29c-15.333 -12.667 -37.666 -19 -66.999 -19
c-24.667 0 -44.5 6.66699 -59.5 20s-22.5 31.666 -22.5 54.999c0 15.333 4.5 31.666 13.5 48.999s17.5 31 25.5 41s19.333 22.667 34 38l-83 230h-267l-83 -236h-49l244 674h46zM177 276.001h238l-82 225c-11.333 32 -23.333 71.667 -36 119h-2
c-11.333 -44.667 -23 -83.667 -35 -117z" />
    <glyph glyph-name="aogonek" unicode="&#x105;" horiz-adv-x="454" 
d="M380 302l-0.000976562 -187.998c0 -42.667 2.33301 -80.667 7 -114h-6c-34 -39.333 -51 -76.666 -51 -111.999c0 -32.667 16.333 -49 49 -49c17.333 0 32.666 3.33301 45.999 10l9 -30c-17.333 -12 -40 -18 -68 -18c-24 0 -43.5 6.66699 -58.5 20
s-22.5 31.666 -22.5 54.999c0 15.333 3.66699 32.166 11 50.499s13.833 31.666 19.5 39.999l26.5 38.5l-6 64h-2c-14 -21.333 -34.333 -40 -61 -56s-57.667 -24 -93 -24c-45.333 0 -80.166 13.167 -104.499 39.5s-36.5 57.166 -36.5 92.499
c0 56.667 24.833 100.334 74.5 131.001s122.5 45.667 218.5 45v13c0 94.667 -41 141.667 -123 141c-47.333 0 -87.666 -12 -120.999 -36l-15 35c41.333 27.333 88.333 41 141 41c110.667 0 166 -63 166 -189zM331.999 154.002l0.000976562 102.998
c-162 4.66699 -243 -38 -243 -128c0 -32.667 9.16699 -57.5 27.5 -74.5s41.166 -25.5 68.499 -25.5c37.333 0 68 9.33301 92 28s40.667 41.334 50 68.001c3.33301 8.66699 5 18.334 5 29.001z" />
    <glyph glyph-name="Cacute" unicode="&#x106;" horiz-adv-x="570" 
d="M524 62l14 -37.999c-45.333 -22.667 -106 -34 -182 -34c-42 0 -81.667 6.83301 -119 20.5s-71.166 34 -101.499 61s-54.333 63 -72 108s-26.5 96.167 -26.5 153.5c0 102 31 186.167 93 252.5s145 99.5 249 99.5c67.333 0 119.333 -10 156 -30l-15 -40
c-38.667 19.333 -85.334 29 -140.001 29c-91.333 0 -163 -27.833 -215 -83.5s-78 -131.834 -78 -228.501c0 -92.667 25.167 -166 75.5 -220s120.166 -81 209.499 -81c58.667 0 109.334 10.333 152.001 31zM414 826.001h73l-131 -113h-40z" />
    <glyph glyph-name="cacute" unicode="&#x107;" horiz-adv-x="446" 
d="M399 59l12.999 -38c-43.333 -20.667 -90.333 -31 -141 -31c-68.667 0 -124.167 22.667 -166.5 68s-63.5 104.333 -63.5 177c0 75.333 23.167 136.833 69.5 184.5s105.5 71.5 177.5 71.5c56 0 98 -10 126 -30l-17 -39c-33.333 18.667 -71 28 -113 28
c-61.333 0 -109.166 -20.333 -143.499 -61s-51.5 -90.667 -51.5 -150c0 -62.667 17.667 -113 53 -151s81 -57 137 -57c39.333 0 79.333 9.33301 120 28zM307.999 688h70l-122 -138h-37z" />
    <glyph glyph-name="Ccircumflex" unicode="&#x108;" horiz-adv-x="570" 
d="M524 62l14 -37.999c-45.333 -22.667 -106 -34 -182 -34c-42 0 -81.667 6.83301 -119 20.5s-71.166 34 -101.499 61s-54.333 63 -72 108s-26.5 96.167 -26.5 153.5c0 102 31 186.167 93 252.5s145 99.5 249 99.5c67.333 0 119.333 -10 156 -30l-15 -40
c-38.667 19.333 -85.334 29 -140.001 29c-91.333 0 -163 -27.833 -215 -83.5s-78 -131.834 -78 -228.501c0 -92.667 25.167 -166 75.5 -220s120.166 -81 209.499 -81c58.667 0 109.334 10.333 152.001 31zM322 823.001h38l107 -109h-53l-72 74h-2l-72 -74h-50z" />
    <glyph glyph-name="ccircumflex" unicode="&#x109;" horiz-adv-x="446" 
d="M399 59l12.999 -38c-43.333 -20.667 -90.333 -31 -141 -31c-68.667 0 -124.167 22.667 -166.5 68s-63.5 104.333 -63.5 177c0 75.333 23.167 136.833 69.5 184.5s105.5 71.5 177.5 71.5c56 0 98 -10 126 -30l-17 -39c-33.333 18.667 -71 28 -113 28
c-61.333 0 -109.166 -20.333 -143.499 -61s-51.5 -90.667 -51.5 -150c0 -62.667 17.667 -113 53 -151s81 -57 137 -57c39.333 0 79.333 9.33301 120 28zM237.999 688h35l94 -138h-48l-62 99h-2l-63 -99h-45z" />
    <glyph glyph-name="Cdotaccent" unicode="&#x10a;" horiz-adv-x="570" 
d="M524 62l14 -37.999c-45.333 -22.667 -106 -34 -182 -34c-42 0 -81.667 6.83301 -119 20.5s-71.166 34 -101.499 61s-54.333 63 -72 108s-26.5 96.167 -26.5 153.5c0 102 31 186.167 93 252.5s145 99.5 249 99.5c67.333 0 119.333 -10 156 -30l-15 -40
c-38.667 19.333 -85.334 29 -140.001 29c-91.333 0 -163 -27.833 -215 -83.5s-78 -131.834 -78 -228.501c0 -92.667 25.167 -166 75.5 -220s120.166 -81 209.499 -81c58.667 0 109.334 10.333 152.001 31zM342 724.001h-2c-10 0 -18.5 4 -25.5 12s-10.5 17 -10.5 27
s3.83301 19 11.5 27s16.5 12 26.5 12s18.667 -4 26 -12s11 -17 11 -27s-3.66699 -19 -11 -27s-16 -12 -26 -12z" />
    <glyph glyph-name="cdotaccent" unicode="&#x10b;" horiz-adv-x="446" 
d="M399 59l12.999 -38c-43.333 -20.667 -90.333 -31 -141 -31c-68.667 0 -124.167 22.667 -166.5 68s-63.5 104.333 -63.5 177c0 75.333 23.167 136.833 69.5 184.5s105.5 71.5 177.5 71.5c56 0 98 -10 126 -30l-17 -39c-33.333 18.667 -71 28 -113 28
c-61.333 0 -109.166 -20.333 -143.499 -61s-51.5 -90.667 -51.5 -150c0 -62.667 17.667 -113 53 -151s81 -57 137 -57c39.333 0 79.333 9.33301 120 28zM255.999 578c-10 0 -18.6689 4 -26.002 12s-11 17.333 -11 28s3.83301 20 11.5 28s16.834 12 27.501 12
s19.5 -3.83301 26.5 -11.5s10.5 -17.167 10.5 -28.5c0 -10.667 -3.66699 -20 -11 -28s-16.666 -12 -27.999 -12z" />
    <glyph glyph-name="Ccaron" unicode="&#x10c;" horiz-adv-x="570" 
d="M524 62l14 -37.999c-45.333 -22.667 -106 -34 -182 -34c-42 0 -81.667 6.83301 -119 20.5s-71.166 34 -101.499 61s-54.333 63 -72 108s-26.5 96.167 -26.5 153.5c0 102 31 186.167 93 252.5s145 99.5 249 99.5c67.333 0 119.333 -10 156 -30l-15 -40
c-38.667 19.333 -85.334 29 -140.001 29c-91.333 0 -163 -27.833 -215 -83.5s-78 -131.834 -78 -228.501c0 -92.667 25.167 -166 75.5 -220s120.166 -81 209.499 -81c58.667 0 109.334 10.333 152.001 31zM367 714.001h-38l-107 109h53l73 -74h2l71 74h50z" />
    <glyph glyph-name="ccaron" unicode="&#x10d;" horiz-adv-x="446" 
d="M399 59l12.999 -38c-43.333 -20.667 -90.333 -31 -141 -31c-68.667 0 -124.167 22.667 -166.5 68s-63.5 104.333 -63.5 177c0 75.333 23.167 136.833 69.5 184.5s105.5 71.5 177.5 71.5c56 0 98 -10 126 -30l-17 -39c-33.333 18.667 -71 28 -113 28
c-61.333 0 -109.166 -20.333 -143.499 -61s-51.5 -90.667 -51.5 -150c0 -62.667 17.667 -113 53 -151s81 -57 137 -57c39.333 0 79.333 9.33301 120 28zM276.999 550h-38l-94 138h48l64 -100h2l64 100h45z" />
    <glyph glyph-name="Dcaron" unicode="&#x10e;" horiz-adv-x="647" 
d="M81 1v663c58 10 115.667 15 173 15c123.333 0 214 -30.667 272 -92c56 -58 84 -136 84 -234c0 -105.333 -29.333 -190.333 -88 -255c-62 -68.667 -159 -103 -291 -103c-60.667 0 -110.667 2 -150 6zM129 628l0.00195312 -587.999c22.667 -3.33301 59 -5 109 -5
c106 0 186.333 27.833 241 83.5s82 133.167 82 232.5c1.33301 89.333 -23.834 159.666 -75.501 210.999s-129.834 77 -234.501 77c-46 0 -86.667 -3.66699 -122 -11zM319.002 713.001h-38l-107 109h53l73 -74h2l71 74h50z" />
    <glyph glyph-name="dcaron" unicode="&#x10f;" horiz-adv-x="554" 
d="M416 710l48 -0.000976562v-598c0 -44.667 1.33301 -82 4 -112h-43l-4 91h-2c-14 -29.333 -35.5 -53.666 -64.5 -72.999s-64.5 -29 -106.5 -29c-60 0 -109.5 22.5 -148.5 67.5s-58.5 103.167 -58.5 174.5c-0.666992 78 20 140.833 62 188.5s93.333 71.5 154 71.5
c38.667 0 71.5 -8.33301 98.5 -25s46.5 -36.667 58.5 -60h2v304zM416 193.999v96c0 18.667 -1.66699 33.334 -5 44.001c-8.66699 33.333 -26.5 61.166 -53.5 83.499s-59.5 33.5 -97.5 33.5c-52 0 -93.5 -20.167 -124.5 -60.5s-46.5 -91.833 -46.5 -154.5
c0 -58 14.5 -107 43.5 -147s70.5 -60 124.5 -60c35.333 0 67.333 11.167 96 33.5s48 52.833 58 91.5c3.33301 10.667 5 24 5 40zM531 538.999l-20 21.999c27.333 22.667 41 49.667 41 81c0 25.333 -12.333 46.333 -37 63l43 12c24.667 -16 37 -39.667 37 -71
c0 -20 -5.16699 -38.667 -15.5 -56s-18.333 -28.166 -24 -32.499z" />
    <glyph glyph-name="Dcroat" unicode="&#x110;" horiz-adv-x="651" 
d="M-5 322v39h89v306c58 10 115.667 15 173 15c123.333 0 214 -30.667 272 -92c56 -58 84 -137 84 -237c0 -106 -29.333 -191.333 -88 -256c-62 -68.667 -159 -103 -291 -103c-60.667 0 -110.667 2 -150 6v322h-89zM341 361l0.00195312 -38.999h-209v-283
c22.667 -3.33301 59 -5 109 -5c106 0 186.333 28 241 84s82 134.667 82 236c1.33301 89.333 -23.834 159.666 -75.501 210.999s-129.834 77 -234.501 77c-46 0 -86.667 -3.66699 -122 -11v-270h209z" />
    <glyph glyph-name="dcroat" unicode="&#x111;" horiz-adv-x="544" 
d="M540 559l-76 -0.000976562v-447c0 -44.667 1.33301 -82 4 -112h-43l-4 91h-2c-14 -29.333 -35.5 -53.666 -64.5 -72.999s-64.5 -29 -106.5 -29c-60 0 -109.5 22.5 -148.5 67.5s-58.5 103.167 -58.5 174.5c-0.666992 78 20 140.833 62 188.5s93.333 71.5 154 71.5
c38.667 0 71.5 -8.33301 98.5 -25s46.5 -36.667 58.5 -60h2v153h-208v38h208v113h48v-113h76v-38zM416 193.999v96c0 18.667 -1.66699 33.334 -5 44.001c-8.66699 33.333 -26.5 61.166 -53.5 83.499s-59.5 33.5 -97.5 33.5c-52 0 -93.5 -20.167 -124.5 -60.5
s-46.5 -91.833 -46.5 -154.5c0 -58 14.5 -107 43.5 -147s70.5 -60 124.5 -60c35.333 0 67.333 11.167 96 33.5s48 52.833 58 91.5c3.33301 10.667 5 24 5 40z" />
    <glyph glyph-name="Emacron" unicode="&#x112;" horiz-adv-x="466" 
d="M398 375v-40h-269v-295h301v-40h-349v674h333v-40h-285v-259h269zM138 772h228v-39h-228v39z" />
    <glyph glyph-name="emacron" unicode="&#x113;" horiz-adv-x="485" 
d="M442 245h-353.998c0 -72.667 17 -126.5 51 -161.5s78 -52.5 132 -52.5c51.333 0 95.666 9 132.999 27l12 -37c-37.333 -20.667 -87.666 -31 -150.999 -31c-68 0 -122.333 22.333 -163 67s-61 102.667 -61 174c0 78.667 20.167 141.667 60.5 189s92.166 71 155.499 71
c30 0 56.5 -5.33301 79.5 -16s41.167 -24 54.5 -40s24.166 -34.333 32.499 -55s13.833 -39.5 16.5 -56.5s4 -33.5 4 -49.5c0 -13.333 -0.666992 -23 -2 -29zM90.002 283h304c0 18.667 -2 37 -6 55s-11 35.833 -21 53.5s-25 32 -45 43s-43.667 16.5 -71 16.5
c-48 0 -85.5 -17 -112.5 -51s-43.167 -73 -48.5 -117zM140.002 629h210v-40h-210v40z" />
    <glyph glyph-name="Ebreve" unicode="&#x114;" horiz-adv-x="466" 
d="M398 375v-40h-269v-295h301v-40h-349v674h333v-40h-285v-259h269zM127 817h35.001c8.66699 -33.333 35 -50 79 -50c46 0 72.333 16.667 79 50h35c-1.33301 -27.333 -11.333 -49.666 -30 -66.999s-47 -26 -85 -26c-36.667 0 -64.334 8.66699 -83.001 26
s-28.667 39.666 -30 66.999z" />
    <glyph glyph-name="ebreve" unicode="&#x115;" horiz-adv-x="485" 
d="M442 245h-353.998c0 -72.667 17 -126.5 51 -161.5s78 -52.5 132 -52.5c51.333 0 95.666 9 132.999 27l12 -37c-37.333 -20.667 -87.666 -31 -150.999 -31c-68 0 -122.333 22.333 -163 67s-61 102.667 -61 174c0 78.667 20.167 141.667 60.5 189s92.166 71 155.499 71
c30 0 56.5 -5.33301 79.5 -16s41.167 -24 54.5 -40s24.166 -34.333 32.499 -55s13.833 -39.5 16.5 -56.5s4 -33.5 4 -49.5c0 -13.333 -0.666992 -23 -2 -29zM90.002 283h304c0 18.667 -2 37 -6 55s-11 35.833 -21 53.5s-25 32 -45 43s-43.667 16.5 -71 16.5
c-48 0 -85.5 -17 -112.5 -51s-43.167 -73 -48.5 -117zM129.002 676h36.001c3.33301 -21.333 12.166 -39 26.499 -53s31.833 -21 52.5 -21c24 0 42.667 7.33301 56 22s21 32 23 52h36c0 -34 -10.833 -61.5 -32.5 -82.5s-49.167 -31.5 -82.5 -31.5
c-38.667 0 -67.5 11.5 -86.5 34.5s-28.5 49.5 -28.5 79.5z" />
    <glyph glyph-name="Edotaccent" unicode="&#x116;" horiz-adv-x="466" 
d="M398 375v-40h-269v-295h301v-40h-349v674h333v-40h-285v-259h269zM239 727h-2c-10 0 -18.5 4 -25.5 12s-10.5 17 -10.5 27s3.83301 19 11.5 27s16.5 12 26.5 12s18.667 -4 26 -12s11 -17 11 -27s-3.66699 -19 -11 -27s-16 -12 -26 -12z" />
    <glyph glyph-name="edotaccent" unicode="&#x117;" horiz-adv-x="485" 
d="M442 245h-353.998c0 -72.667 17 -126.5 51 -161.5s78 -52.5 132 -52.5c51.333 0 95.666 9 132.999 27l12 -37c-37.333 -20.667 -87.666 -31 -150.999 -31c-68 0 -122.333 22.333 -163 67s-61 102.667 -61 174c0 78.667 20.167 141.667 60.5 189s92.166 71 155.499 71
c30 0 56.5 -5.33301 79.5 -16s41.167 -24 54.5 -40s24.166 -34.333 32.499 -55s13.833 -39.5 16.5 -56.5s4 -33.5 4 -49.5c0 -13.333 -0.666992 -23 -2 -29zM90.002 283h304c0 18.667 -2 37 -6 55s-11 35.833 -21 53.5s-25 32 -45 43s-43.667 16.5 -71 16.5
c-48 0 -85.5 -17 -112.5 -51s-43.167 -73 -48.5 -117zM244.002 578c-10 0 -18.6689 4 -26.002 12s-11 17.333 -11 28s3.83301 20 11.5 28s16.834 12 27.501 12s19.5 -3.83301 26.5 -11.5s10.5 -17.167 10.5 -28.5c0 -10.667 -3.66699 -20 -11 -28s-16.666 -12 -27.999 -12z
" />
    <glyph glyph-name="Eogonek" unicode="&#x118;" horiz-adv-x="466" 
d="M425 -152l9.00098 -30.998c-20 -10 -41.333 -15 -64 -15c-26 0 -46.667 6.33301 -62 19s-23 30.667 -23 54c0 24.667 8.83301 48.167 26.5 70.5s37.834 40.5 60.501 54.5h-291v674h333v-40h-285v-259h269v-40h-269v-295h302v-40
c-0.666992 0 -2.33398 -0.166992 -5.00098 -0.5s-4.33398 -0.5 -5.00098 -0.5c-25.333 -16 -46.833 -34.333 -64.5 -55s-26.5 -40.334 -26.5 -59.001c0 -14.667 4.5 -25.834 13.5 -33.501s21.167 -11.5 36.5 -11.5c16.667 0 31.667 2.66699 45 8z" />
    <glyph glyph-name="eogonek" unicode="&#x119;" horiz-adv-x="485" 
d="M363 -150l8.00293 -29c-16.667 -12 -38.667 -18 -66 -18c-24.667 0 -44.334 6.5 -59.001 19.5s-22 31.167 -22 54.5c0 21.333 7.83301 42.5 23.5 63.5s33.5 37.833 53.5 50.5v1c-16 -1.33301 -28 -2 -36 -2c-68 0 -122.333 22.333 -163 67s-61 102.667 -61 174
c0 78.667 20.167 141.667 60.5 189s92.166 71 155.499 71c36.667 0 68.167 -7.83301 94.5 -23.5s45.666 -35.667 57.999 -60s21 -47.5 26 -69.5s7.5 -43.333 7.5 -64c0 -14 -0.333008 -23.667 -1 -29h-354c0 -72 17 -125.667 51 -161s77.667 -53 131 -53
c52 0 96.667 9 134 27l12 -37c-12 -6.66699 -27.667 -12.667 -47 -18c-23.333 -9.33301 -45.833 -25.5 -67.5 -48.5s-32.5 -45.5 -32.5 -67.5c0 -15.333 4.33301 -27 13 -35s19.334 -12 32.001 -12c19.333 0 35.666 3.33301 48.999 10zM90.0029 283h303.999
c0 18.667 -2 37 -6 55s-11 35.833 -21 53.5s-25.167 32 -45.5 43s-44.166 16.5 -71.499 16.5c-48 0 -85.333 -17 -112 -51s-42.667 -73 -48 -117z" />
    <glyph glyph-name="Ecaron" unicode="&#x11a;" horiz-adv-x="466" 
d="M398 375v-40h-269v-295h301v-40h-349v674h333v-40h-285v-259h269zM268 710h-38l-107 109h53l73 -74h2l71 74h50z" />
    <glyph glyph-name="ecaron" unicode="&#x11b;" horiz-adv-x="485" 
d="M442 245h-353.998c0 -72.667 17 -126.5 51 -161.5s78 -52.5 132 -52.5c51.333 0 95.666 9 132.999 27l12 -37c-37.333 -20.667 -87.666 -31 -150.999 -31c-68 0 -122.333 22.333 -163 67s-61 102.667 -61 174c0 78.667 20.167 141.667 60.5 189s92.166 71 155.499 71
c30 0 56.5 -5.33301 79.5 -16s41.167 -24 54.5 -40s24.166 -34.333 32.499 -55s13.833 -39.5 16.5 -56.5s4 -33.5 4 -49.5c0 -13.333 -0.666992 -23 -2 -29zM90.002 283h304c0 18.667 -2 37 -6 55s-11 35.833 -21 53.5s-25 32 -45 43s-43.667 16.5 -71 16.5
c-48 0 -85.5 -17 -112.5 -51s-43.167 -73 -48.5 -117zM265.002 550h-39l-94 138h48l64 -100h2l64 100h45z" />
    <glyph glyph-name="Gcircumflex" unicode="&#x11c;" horiz-adv-x="624" 
d="M565 334v-303.999c-60 -24.667 -125.667 -37 -197 -37c-97.333 0 -176.666 29.333 -237.999 88c-28.667 28 -51.334 64.167 -68.001 108.5s-25 92.833 -25 145.5c0 98 31.167 180.167 93.5 246.5s148.5 99.5 258.5 99.5c64.667 0 117 -10 157 -30l-16 -40
c-40 19.333 -88 29 -144 29c-92 0 -164.833 -27.5 -218.5 -82.5s-80.5 -128.5 -80.5 -220.5c0 -94.667 25.833 -168.834 77.5 -222.501s122.167 -80.5 211.5 -80.5c64.667 0 111.667 7.66699 141 23v238h-156v39h204zM332 822.001h38l107 -109h-53l-72 74h-2l-72 -74h-50z
" />
    <glyph glyph-name="gcircumflex" unicode="&#x11d;" horiz-adv-x="544" 
d="M464 356l0.000976562 -286c0 -106 -22 -180 -66 -222c-40 -38 -94.333 -57 -163 -57c-64.667 0 -115.667 14 -153 42l17 38c41.333 -26.667 89 -40 143 -40c116 0 174 64.667 174 194v68h-2c-14 -26.667 -35.167 -48.834 -63.5 -66.501s-62.833 -26.5 -103.5 -26.5
c-60 0 -109.333 22.667 -148 68s-58 101.333 -58 168c0 78.667 21.667 140.834 65 186.501s93.666 68.5 150.999 68.5c77.333 0 131.333 -30.667 162 -92h2l3 81h44c-2.66699 -32 -4 -73.333 -4 -124zM416.001 199l0.000976562 95.998c0 20 -2 35.667 -6 47
c-10.667 31.333 -28.834 57.333 -54.501 78s-57.167 31 -94.5 31c-51.333 0 -92.833 -19.167 -124.5 -57.5s-47.5 -89.166 -47.5 -152.499c0 -57.333 14.833 -105.166 44.5 -143.499s71.5 -57.5 125.5 -57.5c33.333 0 63.5 9.5 90.5 28.5s46.5 45.5 58.5 79.5
c5.33301 17.333 8 34.333 8 51zM251.002 692.998h35l94 -138h-48l-62 99h-2l-63 -99h-45z" />
    <glyph glyph-name="Gbreve" unicode="&#x11e;" horiz-adv-x="624" 
d="M565 334v-303.999c-60 -24.667 -125.667 -37 -197 -37c-97.333 0 -176.666 29.333 -237.999 88c-28.667 28 -51.334 64.167 -68.001 108.5s-25 92.833 -25 145.5c0 98 31.167 180.167 93.5 246.5s148.5 99.5 258.5 99.5c64.667 0 117 -10 157 -30l-16 -40
c-40 19.333 -88 29 -144 29c-92 0 -164.833 -27.5 -218.5 -82.5s-80.5 -128.5 -80.5 -220.5c0 -94.667 25.833 -168.834 77.5 -222.501s122.167 -80.5 211.5 -80.5c64.667 0 111.667 7.66699 141 23v238h-156v39h204zM226 817.001h35.001c8.66699 -33.333 35 -50 79 -50
c46 0 72.333 16.667 79 50h35c-1.33301 -27.333 -11.333 -49.666 -30 -66.999s-47 -26 -85 -26c-36.667 0 -64.334 8.66699 -83.001 26s-28.667 39.666 -30 66.999z" />
    <glyph glyph-name="gbreve" unicode="&#x11f;" horiz-adv-x="544" 
d="M464 356l0.000976562 -286c0 -106 -22 -180 -66 -222c-40 -38 -94.333 -57 -163 -57c-64.667 0 -115.667 14 -153 42l17 38c41.333 -26.667 89 -40 143 -40c116 0 174 64.667 174 194v68h-2c-14 -26.667 -35.167 -48.834 -63.5 -66.501s-62.833 -26.5 -103.5 -26.5
c-60 0 -109.333 22.667 -148 68s-58 101.333 -58 168c0 78.667 21.667 140.834 65 186.501s93.666 68.5 150.999 68.5c77.333 0 131.333 -30.667 162 -92h2l3 81h44c-2.66699 -32 -4 -73.333 -4 -124zM416.001 199l0.000976562 95.998c0 20 -2 35.667 -6 47
c-10.667 31.333 -28.834 57.333 -54.501 78s-57.167 31 -94.5 31c-51.333 0 -92.833 -19.167 -124.5 -57.5s-47.5 -89.166 -47.5 -152.499c0 -57.333 14.833 -105.166 44.5 -143.499s71.5 -57.5 125.5 -57.5c33.333 0 63.5 9.5 90.5 28.5s46.5 45.5 58.5 79.5
c5.33301 17.333 8 34.333 8 51zM144.002 675.998h36.001c3.33301 -21.333 12.166 -39 26.499 -53s31.833 -21 52.5 -21c24 0 42.833 7.33301 56.5 22s21.5 32 23.5 52h36c0 -34 -10.833 -61.5 -32.5 -82.5s-49.5 -31.5 -83.5 -31.5c-38.667 0 -67.5 11.5 -86.5 34.5
s-28.5 49.5 -28.5 79.5z" />
    <glyph glyph-name="Gdotaccent" unicode="&#x120;" horiz-adv-x="624" 
d="M565 334v-303.999c-60 -24.667 -125.667 -37 -197 -37c-97.333 0 -176.666 29.333 -237.999 88c-28.667 28 -51.334 64.167 -68.001 108.5s-25 92.833 -25 145.5c0 98 31.167 180.167 93.5 246.5s148.5 99.5 258.5 99.5c64.667 0 117 -10 157 -30l-16 -40
c-40 19.333 -88 29 -144 29c-92 0 -164.833 -27.5 -218.5 -82.5s-80.5 -128.5 -80.5 -220.5c0 -94.667 25.833 -168.834 77.5 -222.501s122.167 -80.5 211.5 -80.5c64.667 0 111.667 7.66699 141 23v238h-156v39h204zM352 724.001c-10 0 -18.501 4 -25.501 12
s-10.5 17 -10.5 27s3.83301 19 11.5 27s16.5 12 26.5 12s18.667 -4 26 -12s11 -17 11 -27s-3.66699 -19 -11 -27s-16.666 -12 -27.999 -12z" />
    <glyph glyph-name="gdotaccent" unicode="&#x121;" horiz-adv-x="544" 
d="M464 356l0.000976562 -286c0 -106 -22 -180 -66 -222c-40 -38 -94.333 -57 -163 -57c-64.667 0 -115.667 14 -153 42l17 38c41.333 -26.667 89 -40 143 -40c116 0 174 64.667 174 194v68h-2c-14 -26.667 -35.167 -48.834 -63.5 -66.501s-62.833 -26.5 -103.5 -26.5
c-60 0 -109.333 22.667 -148 68s-58 101.333 -58 168c0 78.667 21.667 140.834 65 186.501s93.666 68.5 150.999 68.5c77.333 0 131.333 -30.667 162 -92h2l3 81h44c-2.66699 -32 -4 -73.333 -4 -124zM416.001 199l0.000976562 95.998c0 20 -2 35.667 -6 47
c-10.667 31.333 -28.834 57.333 -54.501 78s-57.167 31 -94.5 31c-51.333 0 -92.833 -19.167 -124.5 -57.5s-47.5 -89.166 -47.5 -152.499c0 -57.333 14.833 -105.166 44.5 -143.499s71.5 -57.5 125.5 -57.5c33.333 0 63.5 9.5 90.5 28.5s46.5 45.5 58.5 79.5
c5.33301 17.333 8 34.333 8 51zM271.002 581.998c-10 0 -18.6689 4 -26.002 12s-11 17.333 -11 28s3.83301 20 11.5 28s16.834 12 27.501 12c10 0 18.667 -4 26 -12s11 -17.333 11 -28s-3.66699 -20 -11 -28s-16.666 -12 -27.999 -12z" />
    <glyph glyph-name="Gcommaaccent" unicode="&#x122;" horiz-adv-x="624" 
d="M565 334v-303.999c-60 -24.667 -125.667 -37 -197 -37c-97.333 0 -176.666 29.333 -237.999 88c-28.667 28 -51.334 64.167 -68.001 108.5s-25 92.833 -25 145.5c0 98 31.167 180.167 93.5 246.5s148.5 99.5 258.5 99.5c64.667 0 117 -10 157 -30l-16 -40
c-40 19.333 -88 29 -144 29c-92 0 -164.833 -27.5 -218.5 -82.5s-80.5 -128.5 -80.5 -220.5c0 -94.667 25.833 -168.834 77.5 -222.501s122.167 -80.5 211.5 -80.5c64.667 0 111.667 7.66699 141 23v238h-156v39h204zM304 -208.999l-13 26.002c54 8 81 30.667 81 68
c0 24 -12.333 44.333 -37 61l40 12c10.667 -6.66699 20 -16.334 28 -29.001s12 -26.334 12 -41.001c0 -30 -11.5 -53 -34.5 -69s-48.5 -25.333 -76.5 -28z" />
    <glyph glyph-name="gcommaaccent" unicode="&#x123;" horiz-adv-x="544" 
d="M464 356l0.000976562 -286c0 -106 -22 -180 -66 -222c-40 -38 -94.333 -57 -163 -57c-64.667 0 -115.667 14 -153 42l17 38c41.333 -26.667 89 -40 143 -40c116 0 174 64.667 174 194v68h-2c-14 -26.667 -35.167 -48.834 -63.5 -66.501s-62.833 -26.5 -103.5 -26.5
c-60 0 -109.333 22.667 -148 68s-58 101.333 -58 168c0 78.667 21.667 140.834 65 186.501s93.666 68.5 150.999 68.5c77.333 0 131.333 -30.667 162 -92h2l3 81h44c-2.66699 -32 -4 -73.333 -4 -124zM416.001 199l0.000976562 95.998c0 20 -2 35.667 -6 47
c-10.667 31.333 -28.834 57.333 -54.501 78s-57.167 31 -94.5 31c-51.333 0 -92.833 -19.167 -124.5 -57.5s-47.5 -89.166 -47.5 -152.499c0 -57.333 14.833 -105.166 44.5 -143.499s71.5 -57.5 125.5 -57.5c33.333 0 63.5 9.5 90.5 28.5s46.5 45.5 58.5 79.5
c5.33301 17.333 8 34.333 8 51zM322.002 699.998l13 -26.002c-54 -8 -81 -30.667 -81 -68c0 -24 12.333 -44.333 37 -61l-40 -12c-10.667 6.66699 -20 16.334 -28 29.001s-12 26.334 -12 41.001c0 30 11.5 53 34.5 69s48.5 25.333 76.5 28z" />
    <glyph glyph-name="Hcircumflex" unicode="&#x124;" horiz-adv-x="630" 
d="M81 674h48v-297h372v297h48v-674h-48v337h-372v-337h-48v674zM295 819h38l107 -109h-53l-72 74h-2l-72 -74h-50z" />
    <glyph glyph-name="hcircumflex" unicode="&#x125;" horiz-adv-x="536" 
d="M81 0l0.00292969 710.003h48v-316h2c15.333 30 37 53 65 69c29.333 18.667 61.666 28 96.999 28c11.333 0 23 -1.16699 35 -3.5s26.333 -7.83301 43 -16.5s31.167 -19.834 43.5 -33.501s23 -33.334 32 -59.001s13.5 -55.5 13.5 -89.5v-289h-48v284
c0 48 -10.5 87.5 -31.5 118.5s-54.5 46.5 -100.5 46.5c-32.667 0 -62.334 -10.333 -89.001 -31s-45.334 -46.334 -56.001 -77.001c-4 -12 -6 -28 -6 -48v-293h-48zM88.0029 834.003h38l107 -109h-53l-72 74h-2l-72 -74h-50z" />
    <glyph glyph-name="Hbar" unicode="&#x126;" horiz-adv-x="630" 
d="M602 484h-53v-484h-48v330h-372v-330h-48v484h-53v38h53v152h48v-152h372v152h48v-152h53v-38zM501 370v114h-372v-114h372z" />
    <glyph glyph-name="hbar" unicode="&#x127;" horiz-adv-x="536" 
d="M460 0l-47.9971 0.00292969v284c0 48 -10.5 87.5 -31.5 118.5s-54.5 46.5 -100.5 46.5c-32.667 0 -62.334 -10.333 -89.001 -31s-45.334 -46.334 -56.001 -77.001c-4 -12 -6 -28 -6 -48v-293h-48v559h-76v38h76v113h48v-113h200v-38h-200v-165h2c15.333 30 37 53 65 69
c29.333 18.667 61.666 28 96.999 28c11.333 0 23 -1.16699 35 -3.5s26.333 -7.83301 43 -16.5s31.167 -19.834 43.5 -33.501s23 -33.334 32 -59.001s13.5 -55.5 13.5 -89.5v-289z" />
    <glyph glyph-name="Itilde" unicode="&#x128;" horiz-adv-x="211" 
d="M81 674h48v-674h-48v674zM24 716h-32.999c-0.666992 24 4.66602 44.333 15.999 61s27 25 47 25c13.333 0 32.333 -7 57 -21c21.333 -11.333 38 -17 50 -17c16.667 0 25.667 12.333 27 37h33c0 -53.333 -20 -80 -60 -80c-14.667 0 -34.334 6.66699 -59.001 20
c-25.333 12.667 -42 19 -50 19c-15.333 0 -24.666 -14.667 -27.999 -44z" />
    <glyph glyph-name="itilde" unicode="&#x129;" horiz-adv-x="209" 
d="M129 0h-48v480h48v-480zM28 572h-34c-0.666992 26.667 4.5 48 15.5 64s25.833 24 44.5 24c9.33301 0 29.333 -7.33301 60 -22c18.667 -10.667 32.667 -16 42 -16c16.667 0 26 13.667 28 41h33c0 -56 -20 -84 -60 -84c-13.333 0 -32 6.66699 -56 20
c-22.667 12 -38 18 -46 18c-16 0 -25 -15 -27 -45z" />
    <glyph glyph-name="Imacron" unicode="&#x12a;" horiz-adv-x="211" 
d="M81 674h48v-674h-48v674zM-7 772h228v-39h-228v39z" />
    <glyph glyph-name="imacron" unicode="&#x12b;" horiz-adv-x="209" 
d="M129 0h-48v480h48v-480zM1 629h210v-40h-210v40z" />
    <glyph glyph-name="Ibreve" unicode="&#x12c;" horiz-adv-x="211" 
d="M81 674h48v-674h-48v674zM-8 812h35.001c8.66699 -33.333 35 -50 79 -50c46 0 72.333 16.667 79 50h35c-1.33301 -27.333 -11.333 -49.666 -30 -66.999s-47 -26 -85 -26c-36.667 0 -64.334 8.66699 -83.001 26s-28.667 39.666 -30 66.999z" />
    <glyph glyph-name="ibreve" unicode="&#x12d;" horiz-adv-x="209" 
d="M129 0h-48v480h48v-480zM-6 676h36.001c3.33301 -21.333 12.166 -39 26.499 -53s31.833 -21 52.5 -21c24 0 42.833 7.33301 56.5 22s21.5 32 23.5 52h36c0 -34 -10.833 -61.5 -32.5 -82.5s-49.5 -31.5 -83.5 -31.5c-38.667 0 -67.5 11.5 -86.5 34.5
s-28.5 49.5 -28.5 79.5z" />
    <glyph glyph-name="Iogonek" unicode="&#x12e;" horiz-adv-x="211" 
d="M129 674l0.00195312 -673.998h-5c-36 -43.333 -54 -82 -54 -116c0 -32.667 16.333 -49 49 -49c17.333 0 32.666 3.33301 45.999 10l9 -30c-16.667 -12 -39.334 -18 -68.001 -18c-24 0 -43.5 6.66699 -58.5 20s-22.5 31.666 -22.5 54.999
c0 15.333 3.83301 32.166 11.5 50.499s14 31.333 19 39l25.5 38.5v674h48z" />
    <glyph glyph-name="iogonek" unicode="&#x12f;" horiz-adv-x="209" 
d="M103 583c-10.667 0 -19.501 4 -26.501 12s-10.5 17.667 -10.5 29s3.83301 21.166 11.5 29.499s16.834 12.5 27.501 12.5s19.667 -4.16699 27 -12.5s11 -18.166 11 -29.499s-3.66699 -21 -11 -29s-17 -12 -29 -12zM128.999 480l0.00195312 -480h-6
c-36 -43.333 -54 -82 -54 -116c0 -32.667 16.333 -49 49 -49c17.333 0 32.666 3.33301 45.999 10l9 -30c-16.667 -12 -39.334 -18 -68.001 -18c-24 0 -43.5 6.66699 -58.5 20s-22.5 31.666 -22.5 54.999c0 32.667 19 75.334 57 128.001v480h48z" />
    <glyph glyph-name="Idotaccent" unicode="&#x130;" horiz-adv-x="211" 
d="M81 674h48v-674h-48v674zM107 727h-2c-10 0 -18.5 4 -25.5 12s-10.5 17 -10.5 27s3.83301 19 11.5 27s16.5 12 26.5 12s18.667 -4 26 -12s11 -17 11 -27s-3.66699 -19 -11 -27s-16 -12 -26 -12z" />
    <glyph glyph-name="dotlessi" unicode="&#x131;" horiz-adv-x="209" 
d="M129 0h-48v480h48v-480z" />
    <glyph glyph-name="IJ" unicode="&#x132;" horiz-adv-x="556" 
d="M81 674h48v-674h-48v674zM434 219v455.001h48v-466c0 -146 -60.667 -219 -182 -219c-32 0 -59.333 5.33301 -82 16l10 38c21.333 -8.66699 45 -13 71 -13c46 0 80 13.667 102 41s33 76.666 33 147.999z" />
    <glyph glyph-name="ij" unicode="&#x133;" horiz-adv-x="423" 
d="M129 0h-48v480h48v-480zM105 659c10.667 0 19.666 -4.16699 26.999 -12.5s11 -18.166 11 -29.499s-3.66699 -21 -11 -29s-17 -12 -29 -12c-10.667 0 -19.5 4 -26.5 12s-10.5 17.667 -10.5 29s3.83301 21.166 11.5 29.499s16.834 12.5 27.501 12.5zM165.999 -209
l-5.99902 38.999c45.333 2 78.666 15.333 99.999 40c13.333 16 22.666 37.333 27.999 64s8 70.334 8 131.001v415h48v-447c0 -46 -3.66699 -83.833 -11 -113.5s-20.666 -55.167 -39.999 -76.5c-30.667 -32.667 -73 -50 -127 -52zM321 658.999
c10.667 0 19.5 -4.16699 26.5 -12.5s10.5 -18.166 10.5 -29.499s-3.5 -21 -10.5 -29s-16.833 -12 -29.5 -12c-10.667 0 -19.5 4.16699 -26.5 12.5s-10.5 17.833 -10.5 28.5c0 11.333 3.83301 21.166 11.5 29.499s17.167 12.5 28.5 12.5z" />
    <glyph glyph-name="Jcircumflex" unicode="&#x134;" horiz-adv-x="345" 
d="M223 219v455.001h48v-466c0 -146 -60.667 -219 -182 -219c-32 0 -59.333 5.33301 -82 16l10 38c21.333 -8.66699 45 -13 71 -13c46 0 80 13.667 102 41s33 76.666 33 147.999zM222 819.001h38l107 -109h-53l-72 74h-2l-72 -74h-50z" />
    <glyph glyph-name="jcircumflex" unicode="&#x135;" horiz-adv-x="214" 
d="M-42 -209l-6.99902 38.999c45.333 2 78.666 15.333 99.999 40c13.333 16 22.666 37.333 27.999 64s8 70.334 8 131.001v415h48v-447c0 -46 -3.66699 -83.833 -11 -113.5s-20.666 -55.167 -39.999 -76.5c-30.667 -32.667 -72.667 -50 -126 -52zM87.001 677.999h35l94 -138
h-48l-63 99h-2l-62 -99h-45z" />
    <glyph glyph-name="Kcommaaccent" unicode="&#x136;" horiz-adv-x="498" 
d="M81 0v674.001h48v-341h3c12 15.333 31.333 38.666 58 69.999l239 271h58l-256 -286l280 -388h-57l-256 355l-69 -76v-279h-48zM200 -206.999l-14 26.002c54 8 81 30.667 81 68c0 24 -12.333 44.333 -37 61l40 12c10.667 -6.66699 20 -16.334 28 -29.001
s12 -26.334 12 -41.001c0 -30 -11.333 -53 -34 -69s-48 -25.333 -76 -28z" />
    <glyph glyph-name="kcommaaccent" unicode="&#x137;" horiz-adv-x="423" 
d="M128 710v-461h2c14 18 29.333 35.667 46 53l170 178h58l-194 -199l221 -281h-58l-196 252l-49 -52v-200h-48v710h48zM162 -209l-14 26.002c54 8 81 30.667 81 68c0 24 -12.333 44.333 -37 61l40 12c10.667 -6.66699 20 -16.334 28 -29.001s12 -26.334 12 -41.001
c0 -30 -11.333 -53 -34 -69s-48 -25.333 -76 -28z" />
    <glyph glyph-name="kgreenlandic" unicode="&#x138;" horiz-adv-x="423" 
d="M128 480v-231h2c14 18 29.333 35.667 46 53l170 178h58l-194 -199l221 -281h-58l-196 252l-49 -52v-200h-48v480h48z" />
    <glyph glyph-name="Lacute" unicode="&#x139;" horiz-adv-x="448" 
d="M81 0v674h48v-634h300v-40h-348zM188 823h73l-131 -113h-40z" />
    <glyph glyph-name="lacute" unicode="&#x13a;" horiz-adv-x="212" 
d="M81 0v710h48v-710h-48zM160 852h73l-131 -113h-40z" />
    <glyph glyph-name="Lcommaaccent" unicode="&#x13b;" horiz-adv-x="448" 
d="M81 0v674h48v-634h300v-40h-348zM186 -209l-14 26.002c54 8 81 30.667 81 68c0 24 -12.333 44.333 -37 61l40 12c10.667 -6.66699 20 -16.334 28 -29.001s12 -26.334 12 -41.001c0 -30 -11.333 -53 -34 -69s-48 -25.333 -76 -28z" />
    <glyph glyph-name="lcommaaccent" unicode="&#x13c;" horiz-adv-x="212" 
d="M81 0v710h48v-710h-48zM49 -209l-14 26.002c54 8 81 30.667 81 68c0 24 -12.333 44.333 -37 61l40 12c10.667 -6.66699 20 -16.334 28 -29.001s12 -26.334 12 -41.001c0 -30 -11.333 -53 -34 -69s-48 -25.333 -76 -28z" />
    <glyph glyph-name="Lcaron" unicode="&#x13d;" horiz-adv-x="448" 
d="M81 0v674h48v-634h300v-40h-348zM239 516l-14 26.002c54 8 81 30.667 81 68c0 24 -12.333 44.333 -37 61l40 12c10.667 -6.66699 20 -16.334 28 -29.001s12 -26.334 12 -41.001c0 -30 -11.333 -53 -34 -69s-48 -25.333 -76 -28z" />
    <glyph glyph-name="lcaron" unicode="&#x13e;" horiz-adv-x="219" 
d="M81 0v710h48v-710h-48zM191 538l-20 23.0029c27.333 22.667 41 49.667 41 81c0 25.333 -12.333 46.333 -37 63l43 12c24.667 -16 37 -39.667 37 -71c0 -8 -0.833008 -15.833 -2.5 -23.5s-3.5 -14.334 -5.5 -20.001s-4.83301 -11.334 -8.5 -17.001s-7 -10.334 -10 -14.001
s-6.83301 -7.66699 -11.5 -12s-8 -7.33301 -10 -9l-9 -7.5z" />
    <glyph glyph-name="Ldot" unicode="&#x13f;" horiz-adv-x="448" 
d="M81 0v674h48v-634h300v-40h-348zM315 328h-2c-10 0 -18.5 4 -25.5 12s-10.5 17 -10.5 27s3.83301 19 11.5 27s16.5 12 26.5 12s18.667 -4 26 -12s11 -17 11 -27s-3.66699 -19 -11 -27s-16 -12 -26 -12z" />
    <glyph glyph-name="ldot" unicode="&#x140;" horiz-adv-x="222" 
d="M81 0v710h48v-710h-48zM213 349c-10 0 -18.5 4.00195 -25.5 12.002s-10.5 17 -10.5 27s3.66699 19 11 27s16.333 12 27 12c10 0 18.5 -3.83301 25.5 -11.5s10.5 -16.834 10.5 -27.501s-3.5 -19.834 -10.5 -27.501s-16.167 -11.5 -27.5 -11.5z" />
    <glyph glyph-name="Lslash" unicode="&#x141;" horiz-adv-x="451" 
d="M432 0h-348v291l-89 -68v44l89 67v340h48v-305l139 104v-45l-139 -104v-284h300v-40z" />
    <glyph glyph-name="lslash" unicode="&#x142;" horiz-adv-x="214" 
d="M131 0h-48v325l-70 -63v45l70 63v340h48v-301l71 64v-46l-71 -63v-364z" />
    <glyph glyph-name="Nacute" unicode="&#x143;" horiz-adv-x="638" 
d="M128 0l-45.999 0.000976562v674h45l262 -398c57.333 -88 99.666 -158.667 126.999 -212l2 1c-5.33301 69.333 -8 160.666 -8 273.999v335h46v-674h-44l-257 392c-65.333 102 -109 174.667 -131 218l-2 -1c4 -66.667 6 -156 6 -268v-341zM381.001 823.001h74l-131 -113
h-40z" />
    <glyph glyph-name="nacute" unicode="&#x144;" horiz-adv-x="536" 
d="M81 0l0.00195312 365.001c0 42.667 -1.33301 81 -4 115h45l3 -87h2c13.333 28.667 34.833 52.167 64.5 70.5s63.167 27.5 100.5 27.5c11.333 0 23.166 -1.16699 35.499 -3.5s26.833 -7.83301 43.5 -16.5s31.167 -19.834 43.5 -33.501s23 -33.5 32 -59.5
s13.5 -56 13.5 -90v-288h-48v284c0 48.667 -10.667 88.5 -32 119.5s-55 46.5 -101 46.5c-32.667 0 -62.334 -10.5 -89.001 -31.5s-45 -47.167 -55 -78.5c-4 -16 -6 -30.333 -6 -43v-297h-48zM327.002 688.001h69l-122 -138h-37z" />
    <glyph glyph-name="Ncommaaccent" unicode="&#x145;" horiz-adv-x="638" 
d="M128 0l-45.999 0.000976562v674h45l262 -398c57.333 -88 99.666 -158.667 126.999 -212l2 1c-5.33301 69.333 -8 160.666 -8 273.999v335h46v-674h-44l-257 392c-65.333 102 -109 174.667 -131 218l-2 -1c4 -66.667 6 -156 6 -268v-341zM266.001 -208.999l-14 26.002
c54 8 81 30.667 81 68c0 24 -12.333 44.333 -37 61l40 12c10.667 -6.66699 20 -16.334 28 -29.001s12 -26.334 12 -41.001c0 -30 -11.333 -53 -34 -69s-48 -25.333 -76 -28z" />
    <glyph glyph-name="ncommaaccent" unicode="&#x146;" horiz-adv-x="536" 
d="M81 0l0.00195312 365.001c0 42.667 -1.33301 81 -4 115h45l3 -87h2c13.333 28.667 34.833 52.167 64.5 70.5s63.167 27.5 100.5 27.5c11.333 0 23.166 -1.16699 35.499 -3.5s26.833 -7.83301 43.5 -16.5s31.167 -19.834 43.5 -33.501s23 -33.5 32 -59.5
s13.5 -56 13.5 -90v-288h-48v284c0 48.667 -10.667 88.5 -32 119.5s-55 46.5 -101 46.5c-32.667 0 -62.334 -10.5 -89.001 -31.5s-45 -47.167 -55 -78.5c-4 -16 -6 -30.333 -6 -43v-297h-48zM220.002 -206.999l-14 26.002c54 8 81 30.667 81 68c0 24 -12.333 44.333 -37 61
l40 12c10.667 -6.66699 20 -16.334 28 -29.001s12 -26.334 12 -41.001c0 -30 -11.333 -53 -34 -69s-48 -25.333 -76 -28z" />
    <glyph glyph-name="Ncaron" unicode="&#x147;" horiz-adv-x="638" 
d="M128 0l-45.999 0.000976562v674h45l262 -398c57.333 -88 99.666 -158.667 126.999 -212l2 1c-5.33301 69.333 -8 160.666 -8 273.999v335h46v-674h-44l-257 392c-65.333 102 -109 174.667 -131 218l-2 -1c4 -66.667 6 -156 6 -268v-341zM339.001 702.001h-38l-107 109h53
l73 -74h2l71 74h50z" />
    <glyph glyph-name="ncaron" unicode="&#x148;" horiz-adv-x="536" 
d="M81 0l0.00195312 365.001c0 42.667 -1.33301 81 -4 115h45l3 -87h2c13.333 28.667 34.833 52.167 64.5 70.5s63.167 27.5 100.5 27.5c11.333 0 23.166 -1.16699 35.499 -3.5s26.833 -7.83301 43.5 -16.5s31.167 -19.834 43.5 -33.501s23 -33.5 32 -59.5
s13.5 -56 13.5 -90v-288h-48v284c0 48.667 -10.667 88.5 -32 119.5s-55 46.5 -101 46.5c-32.667 0 -62.334 -10.5 -89.001 -31.5s-45 -47.167 -55 -78.5c-4 -16 -6 -30.333 -6 -43v-297h-48zM289.002 550.001h-39l-94 138h48l65 -100h2l63 100h45z" />
    <glyph glyph-name="napostrophe" unicode="&#x149;" horiz-adv-x="536" 
d="M81 0l0.00195312 365.001c0 42.667 -1.33301 81 -4 115h45l3 -87h2c13.333 28.667 34.833 52.167 64.5 70.5s63.167 27.5 100.5 27.5c11.333 0 23.166 -1.16699 35.499 -3.5s26.833 -7.83301 43.5 -16.5s31.167 -19.834 43.5 -33.501s23 -33.5 32 -59.5
s13.5 -56 13.5 -90v-288h-48v284c0 48.667 -10.667 88.5 -32 119.5s-55 46.5 -101 46.5c-32.667 0 -62.334 -10.5 -89.001 -31.5s-45 -47.167 -55 -78.5c-4 -16 -6 -30.333 -6 -43v-297h-48zM44.002 543.001l-20.001 21.998c27.333 22.667 41 49 41 79
c0 24 -12.333 44.333 -37 61l43 12c9.33301 -6 17.833 -15.167 25.5 -27.5s11.5 -26.166 11.5 -41.499c0 -19.333 -5.16699 -37.666 -15.5 -54.999s-18.166 -28 -23.499 -32z" />
    <glyph glyph-name="Eng" unicode="&#x14a;" horiz-adv-x="638" 
d="M128 0l-46 0.00195312v674h45l262 -398c57.333 -88 99.666 -158.667 126.999 -212l2 1c-5.33301 69.333 -8 160.666 -8 273.999v335h46v-642c0 -64 -13.667 -114.333 -41 -151s-71 -60 -131 -70l-8 39c44.667 8 77.834 24.167 99.501 48.5s34.167 58.166 37.5 101.499
l-258 392c-65.333 102 -109 174.667 -131 218l-2 -1c4 -66.667 6 -156 6 -268v-341z" />
    <glyph glyph-name="eng" unicode="&#x14b;" horiz-adv-x="536" 
d="M81 0l0.00195312 365c0 42.667 -1.33301 81 -4 115h45l3 -87h2c13.333 28.667 34.833 52.167 64.5 70.5s63.167 27.5 100.5 27.5c11.333 0 23.166 -1.16699 35.499 -3.5s26.833 -7.83301 43.5 -16.5s31.167 -19.834 43.5 -33.501s23 -33.5 32 -59.5s13.5 -56 13.5 -90
v-229c0 -66 -16.333 -118.167 -49 -156.5s-76 -62.166 -130 -71.499l-9 41c93.333 19.333 140 82.333 140 189v223c0 48.667 -10.667 88.5 -32 119.5s-55 46.5 -101 46.5c-32.667 0 -62.334 -10.5 -89.001 -31.5s-45 -47.167 -55 -78.5c-4 -16 -6 -30.333 -6 -43v-297h-48z
" />
    <glyph glyph-name="Omacron" unicode="&#x14c;" horiz-adv-x="671" 
d="M340 686c86 0 156.499 -31.167 211.499 -93.5s82.5 -145.166 82.5 -248.499c0 -112.667 -29.333 -200 -88 -262s-130 -93 -214 -93c-84.667 0 -155 31.167 -211 93.5s-84 145.166 -84 248.499c0 108 28.833 194.167 86.5 258.5s129.834 96.5 216.501 96.5zM336.999 646
c-54.667 0 -101.334 -15.5 -140.001 -46.5s-66.667 -69.667 -84 -116s-26 -96.833 -26 -151.5c0 -81.333 22.333 -152.166 67 -212.499s105 -90.5 181 -90.5c76.667 0 137.334 30.167 182.001 90.5s67 134.166 67 221.499c0 50 -8.5 97.5 -25.5 142.5
s-44.833 83.333 -83.5 115s-84.667 47.5 -138 47.5zM221.999 779h228v-39h-228v39z" />
    <glyph glyph-name="omacron" unicode="&#x14d;" horiz-adv-x="532" 
d="M268 491c66.667 0 120.5 -22.6689 161.5 -68.002s61.5 -104.666 61.5 -177.999c0 -82.667 -23.167 -146 -69.5 -190s-99.833 -66 -160.5 -66c-63.333 0 -115.833 22.667 -157.5 68s-62.5 105 -62.5 179c0 78.667 22.167 140.834 66.5 186.501s97.833 68.5 160.5 68.5z
M267 450.998c-57.333 0 -101.333 -20.9961 -132 -62.9961s-46 -91.667 -46 -149c0 -60 16.833 -110 50.5 -150s75.167 -60 124.5 -60c50.667 0 93.167 20.167 127.5 60.5s51.5 91.166 51.5 152.499c0 23.333 -3.33301 46.666 -10 69.999s-16.667 45.666 -30 66.999
s-31.833 38.666 -55.5 51.999s-50.5 20 -80.5 20zM161 629.002h210v-40h-210v40z" />
    <glyph glyph-name="Obreve" unicode="&#x14e;" horiz-adv-x="671" 
d="M340 686c86 0 156.499 -31.167 211.499 -93.5s82.5 -145.166 82.5 -248.499c0 -112.667 -29.333 -200 -88 -262s-130 -93 -214 -93c-84.667 0 -155 31.167 -211 93.5s-84 145.166 -84 248.499c0 108 28.833 194.167 86.5 258.5s129.834 96.5 216.501 96.5zM336.999 646
c-54.667 0 -101.334 -15.5 -140.001 -46.5s-66.667 -69.667 -84 -116s-26 -96.833 -26 -151.5c0 -81.333 22.333 -152.166 67 -212.499s105 -90.5 181 -90.5c76.667 0 137.334 30.167 182.001 90.5s67 134.166 67 221.499c0 50 -8.5 97.5 -25.5 142.5
s-44.833 83.333 -83.5 115s-84.667 47.5 -138 47.5zM220.999 821h35.001c8.66699 -33.333 35 -50 79 -50c46 0 72.333 16.667 79 50h35c-1.33301 -27.333 -11.333 -49.666 -30 -66.999s-47 -26 -85 -26c-36.667 0 -64.334 8.66699 -83.001 26s-28.667 39.666 -30 66.999z
" />
    <glyph glyph-name="obreve" unicode="&#x14f;" horiz-adv-x="532" 
d="M268 491c66.667 0 120.5 -22.6689 161.5 -68.002s61.5 -104.666 61.5 -177.999c0 -82.667 -23.167 -146 -69.5 -190s-99.833 -66 -160.5 -66c-63.333 0 -115.833 22.667 -157.5 68s-62.5 105 -62.5 179c0 78.667 22.167 140.834 66.5 186.501s97.833 68.5 160.5 68.5z
M267 450.998c-57.333 0 -101.333 -20.9961 -132 -62.9961s-46 -91.667 -46 -149c0 -60 16.833 -110 50.5 -150s75.167 -60 124.5 -60c50.667 0 93.167 20.167 127.5 60.5s51.5 91.166 51.5 152.499c0 23.333 -3.33301 46.666 -10 69.999s-16.667 45.666 -30 66.999
s-31.833 38.666 -55.5 51.999s-50.5 20 -80.5 20zM150 676.002h36.001c3.33301 -21.333 12.166 -39 26.499 -53s31.833 -21 52.5 -21c24 0 42.667 7.33301 56 22s21 32 23 52h36c0 -34 -10.833 -61.5 -32.5 -82.5s-49.167 -31.5 -82.5 -31.5
c-38.667 0 -67.5 11.5 -86.5 34.5s-28.5 49.5 -28.5 79.5z" />
    <glyph glyph-name="Ohungarumlaut" unicode="&#x150;" horiz-adv-x="671" 
d="M340 686c86 0 156.499 -31.167 211.499 -93.5s82.5 -145.166 82.5 -248.499c0 -112.667 -29.333 -200 -88 -262s-130 -93 -214 -93c-84.667 0 -155 31.167 -211 93.5s-84 145.166 -84 248.499c0 108 28.833 194.167 86.5 258.5s129.834 96.5 216.501 96.5zM336.999 646
c-54.667 0 -101.334 -15.5 -140.001 -46.5s-66.667 -69.667 -84 -116s-26 -96.833 -26 -151.5c0 -81.333 22.333 -152.166 67 -212.499s105 -90.5 181 -90.5c76.667 0 137.334 30.167 182.001 90.5s67 134.166 67 221.499c0 50 -8.5 97.5 -25.5 142.5
s-44.833 83.333 -83.5 115s-84.667 47.5 -138 47.5zM340.999 826h67l-117 -109h-39zM466.999 826h67l-117 -109h-39z" />
    <glyph glyph-name="ohungarumlaut" unicode="&#x151;" horiz-adv-x="532" 
d="M268 491c66.667 0 120.5 -22.6689 161.5 -68.002s61.5 -104.666 61.5 -177.999c0 -82.667 -23.167 -146 -69.5 -190s-99.833 -66 -160.5 -66c-63.333 0 -115.833 22.667 -157.5 68s-62.5 105 -62.5 179c0 78.667 22.167 140.834 66.5 186.501s97.833 68.5 160.5 68.5z
M267 450.998c-57.333 0 -101.333 -20.9961 -132 -62.9961s-46 -91.667 -46 -149c0 -60 16.833 -110 50.5 -150s75.167 -60 124.5 -60c50.667 0 93.167 20.167 127.5 60.5s51.5 91.166 51.5 152.499c0 23.333 -3.33301 46.666 -10 69.999s-16.667 45.666 -30 66.999
s-31.833 38.666 -55.5 51.999s-50.5 20 -80.5 20zM262 688.002h65l-118 -128h-36zM388 688.002h65l-118 -128h-36z" />
    <glyph glyph-name="OE" unicode="&#x152;" horiz-adv-x="868" 
d="M832 40l-0.000976562 -40.001h-322c-22.667 -1.33301 -45.667 -3.33301 -69 -6c-43.333 -3.33301 -71.333 -5 -84 -5c-96.667 0 -174.167 32 -232.5 96s-87.5 146.333 -87.5 247c0 110.667 30.333 197.334 91 260.001s139.334 94 236.001 94c32 0 60.667 -2 86 -6
c33.333 -4 55.333 -6 66 -6h300v-40h-285v-260h269v-40h-269v-294h301zM482.999 43.999v586c-35.333 10.667 -76.333 16 -123 16c-86.667 0 -153.834 -28.833 -201.501 -86.5s-71.5 -132.167 -71.5 -223.5c0 -93.333 24.833 -167.833 74.5 -223.5s118.167 -83.5 205.5 -83.5
c48.667 0 87.334 5 116.001 15z" />
    <glyph glyph-name="oe" unicode="&#x153;" horiz-adv-x="860" 
d="M817 244h-340c-0.666992 -68 15.166 -120.667 47.499 -158s75.5 -56 129.5 -56c40.667 0 82.667 9.33301 126 28l14 -37c-36.667 -21.333 -85 -32 -145 -32c-97.333 0 -163.333 44 -198 132h-2c-15.333 -43.333 -40.666 -76.166 -75.999 -98.499
s-73.333 -33.5 -114 -33.5c-63.333 0 -115.5 22.667 -156.5 68s-61.5 105 -61.5 179c0 77.333 21.333 139.166 64 185.499s95 69.5 157 69.5c45.333 0 84.833 -11.667 118.5 -35s57.5 -56 71.5 -98h2c17.333 43.333 41.666 76.333 72.999 99s67.333 34 108 34
c29.333 0 55.333 -5.5 78 -16.5s40.334 -24.5 53.001 -40.5s23.167 -34.333 31.5 -55s13.833 -39.334 16.5 -56.001s4 -32.667 4 -48s-0.333008 -25.666 -1 -30.999zM259 451c-38.667 0 -71.5 -11.667 -98.5 -35s-45.667 -50.333 -56 -81s-15.5 -63 -15.5 -97
c0 -58.667 16.5 -108.167 49.5 -148.5s73.5 -60.5 121.5 -60.5c50 0 91 19.667 123 59s48 90 48 152c0 56.667 -14.667 106 -44 148s-72 63 -128 63zM477 283l292.002 -0.000976562c0.666992 25.333 -2.5 49.833 -9.5 73.5s-21.667 45.334 -44 65.001s-50.5 29.5 -84.5 29.5
c-46.667 0 -82.834 -17 -108.501 -51s-40.834 -73 -45.501 -117z" />
    <glyph glyph-name="Racute" unicode="&#x154;" horiz-adv-x="505" 
d="M81 0l-0.000976562 664.003c42 10 90.667 15 146 15c83.333 0 144 -19 182 -57c31.333 -29.333 47 -69 47 -119c0 -86.667 -44 -145.334 -132 -176.001v-2c52.667 -16.667 87.334 -64.334 104.001 -143.001c21.333 -98.667 38 -159.334 50 -182.001h-49
c-8.66699 16 -23 70.667 -43 164c-10.667 49.333 -27.667 85.333 -51 108s-57 35 -101 37h-105v-309h-48zM128.999 631.003l-0.000976562 -283.001h107c52 0 93.667 13.333 125 40s47 62.334 47 107.001c0 49.333 -16.333 85.833 -49 109.5s-77 35.5 -133 35.5
c-39.333 0 -71.666 -3 -96.999 -9zM305.998 827.002h73l-131 -113h-40z" />
    <glyph glyph-name="racute" unicode="&#x155;" horiz-adv-x="295" 
d="M80 0l0.00195312 336.001c0 54 -1.33301 102 -4 144h44l2 -97h3c11.333 31.333 29 57.166 53 77.499s51.667 30.5 83 30.5c5.33301 0 12 -0.666992 20 -2v-46c-4.66699 1.33301 -12.334 2 -23.001 2c-32 0 -59.333 -12.5 -82 -37.5s-37.334 -57.167 -44.001 -96.5
c-2.66699 -12.667 -4 -28 -4 -46v-265h-48zM219.002 688.001h70l-122 -138h-37z" />
    <glyph glyph-name="Rcommaaccent" unicode="&#x156;" horiz-adv-x="505" 
d="M81 0l-0.000976562 664.003c42 10 90.667 15 146 15c83.333 0 144 -19 182 -57c31.333 -29.333 47 -69 47 -119c0 -86.667 -44 -145.334 -132 -176.001v-2c52.667 -16.667 87.334 -64.334 104.001 -143.001c21.333 -98.667 38 -159.334 50 -182.001h-49
c-8.66699 16 -23 70.667 -43 164c-10.667 49.333 -27.667 85.333 -51 108s-57 35 -101 37h-105v-309h-48zM128.999 631.003l-0.000976562 -283.001h107c52 0 93.667 13.333 125 40s47 62.334 47 107.001c0 49.333 -16.333 85.833 -49 109.5s-77 35.5 -133 35.5
c-39.333 0 -71.666 -3 -96.999 -9zM202.998 -198.998l-14 26.002c54 8 81 30.667 81 68c0 24 -12.333 44.333 -37 61l40 12c10.667 -6.66699 20 -16.334 28 -29.001s12 -26.334 12 -41.001c0 -30 -11.333 -53 -34 -69s-48 -25.333 -76 -28z" />
    <glyph glyph-name="rcommaaccent" unicode="&#x157;" horiz-adv-x="295" 
d="M80 0l0.00195312 336.001c0 54 -1.33301 102 -4 144h44l2 -97h3c11.333 31.333 29 57.166 53 77.499s51.667 30.5 83 30.5c5.33301 0 12 -0.666992 20 -2v-46c-4.66699 1.33301 -12.334 2 -23.001 2c-32 0 -59.333 -12.5 -82 -37.5s-37.334 -57.167 -44.001 -96.5
c-2.66699 -12.667 -4 -28 -4 -46v-265h-48zM56.002 -208.999l-13 26.002c54 8 81 30.667 81 68c0 24 -12.333 44.333 -37 61l40 12c10.667 -6.66699 20 -16.334 28 -29.001s12 -26.334 12 -41.001c0 -30 -11.5 -53 -34.5 -69s-48.5 -25.333 -76.5 -28z" />
    <glyph glyph-name="Rcaron" unicode="&#x158;" horiz-adv-x="505" 
d="M81 0l-0.000976562 664.003c42 10 90.667 15 146 15c83.333 0 144 -19 182 -57c31.333 -29.333 47 -69 47 -119c0 -86.667 -44 -145.334 -132 -176.001v-2c52.667 -16.667 87.334 -64.334 104.001 -143.001c21.333 -98.667 38 -159.334 50 -182.001h-49
c-8.66699 16 -23 70.667 -43 164c-10.667 49.333 -27.667 85.333 -51 108s-57 35 -101 37h-105v-309h-48zM128.999 631.003l-0.000976562 -283.001h107c52 0 93.667 13.333 125 40s47 62.334 47 107.001c0 49.333 -16.333 85.833 -49 109.5s-77 35.5 -133 35.5
c-39.333 0 -71.666 -3 -96.999 -9zM265.998 714.002h-38l-107 109h53l73 -74h2l71 74h50z" />
    <glyph glyph-name="rcaron" unicode="&#x159;" horiz-adv-x="295" 
d="M80 0l0.00195312 336.001c0 54 -1.33301 102 -4 144h44l2 -97h3c11.333 31.333 29 57.166 53 77.499s51.667 30.5 83 30.5c5.33301 0 12 -0.666992 20 -2v-46c-4.66699 1.33301 -12.334 2 -23.001 2c-32 0 -59.333 -12.5 -82 -37.5s-37.334 -57.167 -44.001 -96.5
c-2.66699 -12.667 -4 -28 -4 -46v-265h-48zM190.002 550.001h-38l-94 138h48l63 -100h2l65 100h45z" />
    <glyph glyph-name="Sacute" unicode="&#x15a;" horiz-adv-x="464" 
d="M42 35l17.9971 39c42.667 -29.333 91.667 -44 147 -44c50 0 89.667 12.833 119 38.5s44 59.5 44 101.5c0 38 -10.5 69 -31.5 93s-56.167 45.667 -105.5 65c-115.333 40.667 -173 102.667 -173 186c0 49.333 18.333 90.166 55 122.499s83.667 48.5 141 48.5
c58.667 0 103.334 -10.667 134.001 -32l-18 -40c-29.333 21.333 -69 32 -119 32c-49.333 0 -86 -12.667 -110 -38s-36 -53.666 -36 -84.999c0 -36.667 10.833 -66.167 32.5 -88.5s57.5 -43.166 107.5 -62.499c58.667 -24 101.667 -50.667 129 -80s41 -68 41 -116
c0 -52.667 -18.5 -96.834 -55.5 -132.501s-89.833 -53.5 -158.5 -53.5c-29.333 0 -59.166 4.33301 -89.499 13s-54.166 19.667 -71.499 33zM301.997 827h73l-131 -113h-40z" />
    <glyph glyph-name="sacute" unicode="&#x15b;" horiz-adv-x="373" 
d="M44 23l17.001 39.999c36 -22 72 -33 108 -33c36.667 0 64.5 8.5 83.5 25.5s28.5 38.833 28.5 65.5c0 26 -7.83301 47 -23.5 63s-41.5 31.333 -77.5 46c-81.333 30.667 -122 74.334 -122 131.001c0 36 13.5 66.667 40.5 92s62.833 38 107.5 38c42.667 0 78 -10 106 -30
l-18 -39c-27.333 19.333 -59.333 29 -96 29c-29.333 0 -52.166 -8 -68.499 -24s-24.5 -35.667 -24.5 -59s7.66699 -42 23 -56s40.666 -28.333 75.999 -43c41.333 -16 72.333 -35 93 -57s31 -50.333 31 -85c0 -41.333 -14.833 -74.5 -44.5 -99.5
s-68.834 -37.5 -117.501 -37.5c-46 0 -86.667 11 -122 33zM246.001 687.999h69l-122 -138h-37z" />
    <glyph glyph-name="Scircumflex" unicode="&#x15c;" horiz-adv-x="464" 
d="M42 35l17.9971 39c42.667 -29.333 91.667 -44 147 -44c50 0 89.667 12.833 119 38.5s44 59.5 44 101.5c0 38 -10.5 69 -31.5 93s-56.167 45.667 -105.5 65c-115.333 40.667 -173 102.667 -173 186c0 49.333 18.333 90.166 55 122.499s83.667 48.5 141 48.5
c58.667 0 103.334 -10.667 134.001 -32l-18 -40c-29.333 21.333 -69 32 -119 32c-49.333 0 -86 -12.667 -110 -38s-36 -53.666 -36 -84.999c0 -36.667 10.833 -66.167 32.5 -88.5s57.5 -43.166 107.5 -62.499c58.667 -24 101.667 -50.667 129 -80s41 -68 41 -116
c0 -52.667 -18.5 -96.834 -55.5 -132.501s-89.833 -53.5 -158.5 -53.5c-29.333 0 -59.166 4.33301 -89.499 13s-54.166 19.667 -71.499 33zM212.997 823h38l107 -109h-53l-72 74h-2l-72 -74h-50z" />
    <glyph glyph-name="scircumflex" unicode="&#x15d;" horiz-adv-x="373" 
d="M44 23l17.001 39.999c36 -22 72 -33 108 -33c36.667 0 64.5 8.5 83.5 25.5s28.5 38.833 28.5 65.5c0 26 -7.83301 47 -23.5 63s-41.5 31.333 -77.5 46c-81.333 30.667 -122 74.334 -122 131.001c0 36 13.5 66.667 40.5 92s62.833 38 107.5 38c42.667 0 78 -10 106 -30
l-18 -39c-27.333 19.333 -59.333 29 -96 29c-29.333 0 -52.166 -8 -68.499 -24s-24.5 -35.667 -24.5 -59s7.66699 -42 23 -56s40.666 -28.333 75.999 -43c41.333 -16 72.333 -35 93 -57s31 -50.333 31 -85c0 -41.333 -14.833 -74.5 -44.5 -99.5
s-68.834 -37.5 -117.501 -37.5c-46 0 -86.667 11 -122 33zM169.001 687.999h35l94 -138h-48l-62 99h-2l-63 -99h-45z" />
    <glyph glyph-name="Scedilla" unicode="&#x15e;" horiz-adv-x="464" 
d="M42 35l18 38.9971c42.667 -29.333 91.667 -44 147 -44c50 0 89.667 12.833 119 38.5s44 59.5 44 101.5c0 38 -10.5 69 -31.5 93s-56.167 45.667 -105.5 65c-115.333 40.667 -173 102.667 -173 186c0 49.333 18.333 90.166 55 122.499s83.667 48.5 141 48.5
c58.667 0 103.334 -10.667 134.001 -32l-18 -40c-29.333 21.333 -69 32 -119 32c-49.333 0 -86 -12.667 -110 -38s-36 -53.666 -36 -84.999c0 -36.667 10.833 -66.167 32.5 -88.5s57.5 -43.166 107.5 -62.499c58.667 -24 101.667 -50.667 129 -80s41 -68 41 -116
c0 -45.333 -14 -84.666 -42 -117.999s-68.333 -54.666 -121 -63.999l-32 -47c19.333 -3.33301 35.666 -11.333 48.999 -24s20 -28 20 -46c0 -24 -8.83301 -42.333 -26.5 -55s-39.834 -19 -66.501 -19c-24.667 0 -45.334 5.33301 -62.001 16l11 34
c20 -8.66699 38.333 -13 55 -13c30.667 0 46 11.667 46 35c0 24 -25.667 39 -77 45l42 70h-10c-29.333 0 -59.166 4.33301 -89.499 13s-54.166 19.667 -71.499 33z" />
    <glyph glyph-name="scedilla" unicode="&#x15f;" horiz-adv-x="373" 
d="M44 23l17 39.998c36 -22 72 -33 108 -33c36.667 0 64.5 8.5 83.5 25.5s28.5 38.833 28.5 65.5c0 26 -7.83301 47 -23.5 63s-41.5 31.333 -77.5 46c-81.333 30.667 -122 74.334 -122 131.001c0 36 13.5 66.667 40.5 92s62.833 38 107.5 38c42.667 0 78 -10 106 -30
l-18 -39c-27.333 19.333 -59.333 29 -96 29c-29.333 0 -52.166 -8 -68.499 -24s-24.5 -35.667 -24.5 -59s7.66699 -42 23 -56s40.666 -28.333 75.999 -43c41.333 -16 72.333 -35 93 -57s31 -50.333 31 -85c0 -34 -10.5 -62.667 -31.5 -86s-49.833 -38.666 -86.5 -45.999
l-31 -49c18.667 -2.66699 34.667 -10 48 -22s20 -27 20 -45c0 -26 -8.83301 -45.333 -26.5 -58s-40.167 -19 -67.5 -19c-21.333 0 -41.333 5.33301 -60 16l12 34c15.333 -8.66699 33.333 -13 54 -13c14 0 25.5 2.83301 34.5 8.5s13.167 14.5 12.5 26.5
c-0.666992 25.333 -26.667 40.333 -78 45l43 71h-5c-46 0 -86.667 11 -122 33z" />
    <glyph glyph-name="Scaron" unicode="&#x160;" horiz-adv-x="464" 
d="M42 35l17.9971 39c42.667 -29.333 91.667 -44 147 -44c50 0 89.667 12.833 119 38.5s44 59.5 44 101.5c0 38 -10.5 69 -31.5 93s-56.167 45.667 -105.5 65c-115.333 40.667 -173 102.667 -173 186c0 49.333 18.333 90.166 55 122.499s83.667 48.5 141 48.5
c58.667 0 103.334 -10.667 134.001 -32l-18 -40c-29.333 21.333 -69 32 -119 32c-49.333 0 -86 -12.667 -110 -38s-36 -53.666 -36 -84.999c0 -36.667 10.833 -66.167 32.5 -88.5s57.5 -43.166 107.5 -62.499c58.667 -24 101.667 -50.667 129 -80s41 -68 41 -116
c0 -52.667 -18.5 -96.834 -55.5 -132.501s-89.833 -53.5 -158.5 -53.5c-29.333 0 -59.166 4.33301 -89.499 13s-54.166 19.667 -71.499 33zM263.997 714h-38l-107 109h53l73 -74h2l71 74h50z" />
    <glyph glyph-name="scaron" unicode="&#x161;" horiz-adv-x="373" 
d="M44 23l17.001 39.999c36 -22 72 -33 108 -33c36.667 0 64.5 8.5 83.5 25.5s28.5 38.833 28.5 65.5c0 26 -7.83301 47 -23.5 63s-41.5 31.333 -77.5 46c-81.333 30.667 -122 74.334 -122 131.001c0 36 13.5 66.667 40.5 92s62.833 38 107.5 38c42.667 0 78 -10 106 -30
l-18 -39c-27.333 19.333 -59.333 29 -96 29c-29.333 0 -52.166 -8 -68.499 -24s-24.5 -35.667 -24.5 -59s7.66699 -42 23 -56s40.666 -28.333 75.999 -43c41.333 -16 72.333 -35 93 -57s31 -50.333 31 -85c0 -41.333 -14.833 -74.5 -44.5 -99.5
s-68.834 -37.5 -117.501 -37.5c-46 0 -86.667 11 -122 33zM212.001 549.999h-38l-94 138h48l64 -100h2l64 100h45z" />
    <glyph glyph-name="Tcommaaccent" unicode="&#x162;" horiz-adv-x="465" 
d="M209 0v634h-220v40h488v-40h-220v-634h-48zM173 -209l-14 26.002c54 8 81 30.667 81 68c0 24 -12.333 44.333 -37 61l40 12c10.667 -6.66699 20 -16.334 28 -29.001s12 -26.334 12 -41.001c0 -30 -11.333 -53 -34 -69s-48 -25.333 -76 -28z" />
    <glyph glyph-name="tcommaaccent" unicode="&#x163;" horiz-adv-x="309" 
d="M99 568l48 18v-106h137v-39h-137v-312c0 -66 23.333 -99 70 -99c22.667 0 41 2.33301 55 7l6 -36c-18 -8 -40.333 -12 -67 -12c-36.667 0 -64 11.333 -82 34c-20 22.667 -30 61 -30 115v303h-81v39h81v88zM120 -217l-14 26.002c54 8 81 30.667 81 68
c0 24 -12.333 44.333 -37 61l40 12c10.667 -6.66699 20 -16.334 28 -29.001s12 -26.334 12 -41.001c0 -30 -11.333 -53 -34 -69s-48 -25.333 -76 -28z" />
    <glyph glyph-name="Tcaron" unicode="&#x164;" horiz-adv-x="465" 
d="M209 0v634h-220v40h488v-40h-220v-634h-48zM253 710h-38l-107 109h53l73 -74h2l71 74h50z" />
    <glyph glyph-name="tcaron" unicode="&#x165;" horiz-adv-x="319" 
d="M99 568l48 18v-106h137v-39h-137v-312c0 -66 23.667 -99 71 -99c22 0 40 2.33301 54 7l6 -36c-17.333 -8 -39.333 -12 -66 -12c-37.333 0 -65 11.333 -83 34c-20 22.667 -30 61 -30 115v303h-81v39h81v88zM246 543l-20.001 21.999c27.333 22.667 41 49 41 79
c0 23.333 -12.333 43.666 -37 60.999l43 12c9.33301 -6 17.833 -15.167 25.5 -27.5s11.5 -26.166 11.5 -41.499c0 -19.333 -5.16699 -37.666 -15.5 -54.999s-18.166 -28 -23.499 -32z" />
    <glyph glyph-name="Tbar" unicode="&#x166;" horiz-adv-x="465" 
d="M477 634h-220v-257h130v-38h-130v-339h-48v339h-130v38h130v257h-220v40h488v-40z" />
    <glyph glyph-name="tbar" unicode="&#x167;" horiz-adv-x="309" 
d="M284 441h-137v-142h108v-38h-108v-132c0 -66 23.333 -99 70 -99c22.667 0 41 2.33301 55 7l6 -36c-18 -8 -40.333 -12 -67 -12c-36.667 0 -64 11.333 -82 34c-20 22.667 -30 61 -30 115v123h-69v38h69v142h-81v39h81v88l48 18v-106h137v-39z" />
    <glyph glyph-name="Utilde" unicode="&#x168;" horiz-adv-x="626" 
d="M81 674l47.999 0.00195312v-407c0 -80.667 16.5 -140.334 49.5 -179.001s76.167 -58 129.5 -58c58.667 0 104.834 19.667 138.501 59s50.5 98.666 50.5 177.999v407h48v-402c0 -97.333 -22.333 -168.833 -67 -214.5s-102 -68.5 -172 -68.5c-66 0 -120 21.833 -162 65.5
s-63 113.5 -63 209.5v410zM230.999 716.002h-32.998c-0.666992 24 4.66602 44.333 15.999 61s26.666 25 45.999 25c13.333 0 32.333 -7 57 -21c22.667 -11.333 39.334 -17 50.001 -17c16.667 0 25.667 12.333 27 37h33c0 -53.333 -20 -80 -60 -80
c-14.667 0 -34.334 6.66699 -59.001 20c-25.333 12.667 -42 19 -50 19c-14.667 0 -23.667 -14.667 -27 -44z" />
    <glyph glyph-name="utilde" unicode="&#x169;" horiz-adv-x="531" 
d="M451 480l0.000976562 -363.001c0 -45.333 1.33301 -84.333 4 -117h-45l-3 86h-2c-14 -26 -35.167 -48.667 -63.5 -68s-61.833 -29 -100.5 -29c-18 0 -35.333 2.83301 -52 8.5s-34 15.334 -52 29.001s-32.5 35.5 -43.5 65.5s-16.5 66.333 -16.5 109v279h48v-270
c0 -119.333 42.333 -179 127 -179c32.667 0 61.667 9.5 87 28.5s43.666 41.833 54.999 68.5c6 18 9 35.667 9 53v299h48zM188.001 571.999h-34c-0.666992 26.667 4.5 48 15.5 64s25.833 24 44.5 24c9.33301 0 29.333 -7.33301 60 -22c18.667 -10.667 32.667 -16 42 -16
c16.667 0 26 13.667 28 41h33c0 -56 -20 -84 -60 -84c-13.333 0 -32 6.66699 -56 20c-22.667 12 -38 18 -46 18c-16 0 -25 -15 -27 -45z" />
    <glyph glyph-name="Umacron" unicode="&#x16a;" horiz-adv-x="626" 
d="M81 674l47.999 0.00195312v-407c0 -80.667 16.5 -140.334 49.5 -179.001s76.167 -58 129.5 -58c58.667 0 104.834 19.667 138.501 59s50.5 98.666 50.5 177.999v407h48v-402c0 -97.333 -22.333 -168.833 -67 -214.5s-102 -68.5 -172 -68.5c-66 0 -120 21.833 -162 65.5
s-63 113.5 -63 209.5v410zM198.999 772.002h228v-39h-228v39z" />
    <glyph glyph-name="umacron" unicode="&#x16b;" horiz-adv-x="531" 
d="M451 480l0.000976562 -363.001c0 -45.333 1.33301 -84.333 4 -117h-45l-3 86h-2c-14 -26 -35.167 -48.667 -63.5 -68s-61.833 -29 -100.5 -29c-18 0 -35.333 2.83301 -52 8.5s-34 15.334 -52 29.001s-32.5 35.5 -43.5 65.5s-16.5 66.333 -16.5 109v279h48v-270
c0 -119.333 42.333 -179 127 -179c32.667 0 61.667 9.5 87 28.5s43.666 41.833 54.999 68.5c6 18 9 35.667 9 53v299h48zM160.001 628.999h210v-40h-210v40z" />
    <glyph glyph-name="Ubreve" unicode="&#x16c;" horiz-adv-x="626" 
d="M81 674l47.999 0.00195312v-407c0 -80.667 16.5 -140.334 49.5 -179.001s76.167 -58 129.5 -58c58.667 0 104.834 19.667 138.501 59s50.5 98.666 50.5 177.999v407h48v-402c0 -97.333 -22.333 -168.833 -67 -214.5s-102 -68.5 -172 -68.5c-66 0 -120 21.833 -162 65.5
s-63 113.5 -63 209.5v410zM198.999 821.002h35.001c8.66699 -33.333 35 -50 79 -50c46 0 72.333 16.667 79 50h35c-1.33301 -27.333 -11.333 -49.666 -30 -66.999s-47 -26 -85 -26c-36.667 0 -64.334 8.66699 -83.001 26s-28.667 39.666 -30 66.999z" />
    <glyph glyph-name="ubreve" unicode="&#x16d;" horiz-adv-x="531" 
d="M451 480l0.000976562 -363.001c0 -45.333 1.33301 -84.333 4 -117h-45l-3 86h-2c-14 -26 -35.167 -48.667 -63.5 -68s-61.833 -29 -100.5 -29c-18 0 -35.333 2.83301 -52 8.5s-34 15.334 -52 29.001s-32.5 35.5 -43.5 65.5s-16.5 66.333 -16.5 109v279h48v-270
c0 -119.333 42.333 -179 127 -179c32.667 0 61.667 9.5 87 28.5s43.666 41.833 54.999 68.5c6 18 9 35.667 9 53v299h48zM150.001 675.999h36.001c3.33301 -21.333 12.166 -39 26.499 -53s31.833 -21 52.5 -21c24 0 42.833 7.33301 56.5 22s21.5 32 23.5 52h36
c0 -34 -10.833 -61.5 -32.5 -82.5s-49.5 -31.5 -83.5 -31.5c-38.667 0 -67.5 11.5 -86.5 34.5s-28.5 49.5 -28.5 79.5z" />
    <glyph glyph-name="Uring" unicode="&#x16e;" horiz-adv-x="626" 
d="M81 674l47.999 0.00195312v-407c0 -80.667 16.5 -140.334 49.5 -179.001s76.167 -58 129.5 -58c58.667 0 104.834 19.667 138.501 59s50.5 98.666 50.5 177.999v407h48v-402c0 -97.333 -22.333 -168.833 -67 -214.5s-102 -68.5 -172 -68.5c-66 0 -120 21.833 -162 65.5
s-63 113.5 -63 209.5v410zM313.999 865.002c26 0 47.332 -8.33301 63.999 -25s25 -37.334 25 -62.001c0 -23.333 -8.66699 -43 -26 -59s-38.666 -24 -63.999 -24c-26 0 -47.667 8 -65 24s-26 35.667 -26 59c0 24.667 8.5 45.334 25.5 62.001s39.167 25 66.5 25z
M310.998 837.002c-14.667 0 -26.501 -5.66699 -35.501 -17s-13.5 -25.333 -13.5 -42c0 -14 4.83301 -26.5 14.5 -37.5s21.5 -16.5 35.5 -16.5c14.667 0 26.834 5.33301 36.501 16s14.5 24 14.5 40s-4.83301 29.5 -14.5 40.5s-22.167 16.5 -37.5 16.5z" />
    <glyph glyph-name="uring" unicode="&#x16f;" horiz-adv-x="531" 
d="M451 480l0.000976562 -363.001c0 -45.333 1.33301 -84.333 4 -117h-45l-3 86h-2c-14 -26 -35.167 -48.667 -63.5 -68s-61.833 -29 -100.5 -29c-18 0 -35.333 2.83301 -52 8.5s-34 15.334 -52 29.001s-32.5 35.5 -43.5 65.5s-16.5 66.333 -16.5 109v279h48v-270
c0 -119.333 42.333 -179 127 -179c32.667 0 61.667 9.5 87 28.5s43.666 41.833 54.999 68.5c6 18 9 35.667 9 53v299h48zM266.001 535.999c-26.667 0 -48.832 8.5 -66.499 25.5s-26.5 37.833 -26.5 62.5c0 26 8.83301 47.667 26.5 65s40.167 26 67.5 26
c25.333 0 46.666 -8.66699 63.999 -26s26 -39 26 -65c0 -24.667 -9 -45.5 -27 -62.5s-39.333 -25.5 -64 -25.5zM265.003 565.999c16 0 29.167 5.83203 39.5 17.499s15.5 25.834 15.5 42.501s-5.33301 30.667 -16 42s-24 17 -40 17c-15.333 0 -27.833 -6 -37.5 -18
s-14.5 -26.333 -14.5 -43c0 -14.667 5.16699 -28 15.5 -40s22.833 -18 37.5 -18z" />
    <glyph glyph-name="Uhungarumlaut" unicode="&#x170;" horiz-adv-x="626" 
d="M81 674l47.999 0.00195312v-407c0 -80.667 16.5 -140.334 49.5 -179.001s76.167 -58 129.5 -58c58.667 0 104.834 19.667 138.501 59s50.5 98.666 50.5 177.999v407h48v-402c0 -97.333 -22.333 -168.833 -67 -214.5s-102 -68.5 -172 -68.5c-66 0 -120 21.833 -162 65.5
s-63 113.5 -63 209.5v410zM297.999 822.002h67l-117 -109h-39zM423.999 822.002h67l-117 -109h-39z" />
    <glyph glyph-name="uhungarumlaut" unicode="&#x171;" horiz-adv-x="531" 
d="M451 480l0.000976562 -363.001c0 -45.333 1.33301 -84.333 4 -117h-45l-3 86h-2c-14 -26 -35.167 -48.667 -63.5 -68s-61.833 -29 -100.5 -29c-18 0 -35.333 2.83301 -52 8.5s-34 15.334 -52 29.001s-32.5 35.5 -43.5 65.5s-16.5 66.333 -16.5 109v279h48v-270
c0 -119.333 42.333 -179 127 -179c32.667 0 61.667 9.5 87 28.5s43.666 41.833 54.999 68.5c6 18 9 35.667 9 53v299h48zM263.001 687.999h65l-118 -128h-36zM389.001 687.999h65l-118 -128h-36z" />
    <glyph glyph-name="Uogonek" unicode="&#x172;" horiz-adv-x="626" 
d="M393 -147l9 -29c-15.333 -12.667 -37.666 -19 -66.999 -19c-24.667 0 -44.5 6.5 -59.5 19.5s-22.5 31.167 -22.5 54.5c0 33.333 19.333 70 58 110h-7c-66 2 -119.667 24.5 -161 67.5s-62 112.167 -62 207.5v410h48v-407c0 -81.333 16.5 -141.333 49.5 -180
s76.5 -58 130.5 -58c58 0 103.833 19.667 137.5 59s50.5 99 50.5 179v407h48v-403c0 -82 -16.667 -145.5 -50 -190.5s-77 -72.5 -131 -82.5c-44 -38 -66 -74.333 -66 -109c0 -15.333 4.5 -27 13.5 -35s20.833 -12 35.5 -12c17.333 0 32.666 3.66699 45.999 11z" />
    <glyph glyph-name="uogonek" unicode="&#x173;" horiz-adv-x="531" 
d="M451 480l-0.000976562 -361.998c0 -46.667 1.33301 -86 4 -118l-3 5c-36 -45.333 -54 -84.333 -54 -117s16.333 -49 49 -49c17.333 0 32.666 3.33301 45.999 10l9 -30c-17.333 -12 -40 -18 -68 -18c-24 0 -43.5 6.66699 -58.5 20s-22.5 31.666 -22.5 54.999
c0 15.333 3.66699 32.166 11 50.499s13.833 31.666 19.5 39.999l26.5 38.5l-3 81h-2c-14 -26 -35.167 -48.667 -63.5 -68s-61.833 -29 -100.5 -29c-18 0 -35.333 2.83301 -52 8.5s-34 15.334 -52 29.001s-32.5 35.5 -43.5 65.5s-16.5 66.333 -16.5 109v279h48v-270
c0 -119.333 42.333 -179 127 -179c32.667 0 61.834 9.5 87.501 28.5s43.834 41.833 54.501 68.5c6 18 9 35.667 9 53v299h48z" />
    <glyph glyph-name="Wcircumflex" unicode="&#x174;" horiz-adv-x="820" 
d="M238 0h-45.001l-178 674h49l98 -380c30 -119.333 48.667 -196.333 56 -231h2c8 44.667 28.667 121.667 62 231l110 380h46l100 -377c28.667 -107.333 47 -185.333 55 -234h2c6.66699 34 27 111.333 61 232l111 379h49l-202 -674h-46l-101 388
c-27.333 100 -44.666 176 -51.999 228h-2c-8.66699 -48 -28.667 -124 -60 -228zM388.999 819h38l107 -109h-53l-72 74h-2l-72 -74h-50z" />
    <glyph glyph-name="wcircumflex" unicode="&#x175;" horiz-adv-x="722" 
d="M23 480h48.999l81 -273c20.667 -73.333 34.334 -123.333 41.001 -150h2c9.33301 35.333 25.333 85.333 48 150l96 273h45l92 -271c19.333 -55.333 35 -106 47 -152h2c8 34.667 22.667 85 44 151l85 272h49l-160 -480h-41l-91 267c-23.333 67.333 -40 122 -50 164h-2
c-12 -46.667 -29.333 -101.667 -52 -165l-95 -266h-42zM341.999 688h35l94 -138h-48l-62 99h-2l-63 -99h-45z" />
    <glyph glyph-name="Ycircumflex" unicode="&#x176;" horiz-adv-x="503" 
d="M277 0l-48.001 -0.00195312v292l-214 382h53l111 -201c34.667 -63.333 60.334 -111.666 77.001 -144.999h2c8 18.667 34 67.334 78 146.001l115 200h53l-227 -383v-291zM231.999 818.998h38l107 -109h-53l-72 74h-2l-72 -74h-50z" />
    <glyph glyph-name="ycircumflex" unicode="&#x177;" horiz-adv-x="440" 
d="M11 480h50.998l126 -314c12.667 -33.333 24.334 -67.666 35.001 -102.999h2l37 106l117 311h51l-144 -358c-32 -82 -59.667 -144.833 -83 -188.5s-49.666 -78.5 -78.999 -104.5c-28.667 -24 -56.667 -40.667 -84 -50l-15 40c32 12 60 29.667 84 53
c33.333 33.333 60 73.666 80 120.999c4 10 6 17 6 21s-2 11 -6 21zM200.998 688h35l94 -138h-48l-63 99h-2l-62 -99h-45z" />
    <glyph glyph-name="Ydieresis" unicode="&#x178;" horiz-adv-x="503" 
d="M277 0l-48.001 -0.00195312v292l-214 382h53l111 -201c34.667 -63.333 60.334 -111.666 77.001 -144.999h2c8 18.667 34 67.334 78 146.001l115 200h53l-227 -383v-291zM173.999 715.998c-10.667 0 -19.333 3.83301 -26 11.5s-10 17.167 -10 28.5
c0 10.667 3.66699 20 11 28s16 12 26 12c10.667 0 19.5 -3.83301 26.5 -11.5s10.5 -17.167 10.5 -28.5s-3.33301 -20.833 -10 -28.5s-16 -11.5 -28 -11.5zM346 715.998c-10.667 0 -19.333 3.83301 -26 11.5s-10 17.167 -10 28.5c0 10.667 3.66699 20 11 28s16 12 26 12
c10.667 0 19.5 -3.83301 26.5 -11.5s10.5 -17.167 10.5 -28.5s-3.33301 -20.833 -10 -28.5s-16 -11.5 -28 -11.5z" />
    <glyph glyph-name="Zacute" unicode="&#x179;" horiz-adv-x="539" 
d="M34 0v31l406 600v3h-373v40h434v-32l-407 -599v-3h412v-40h-472zM341 823h74l-131 -113h-40z" />
    <glyph glyph-name="zacute" unicode="&#x17a;" horiz-adv-x="403" 
d="M16 0v29l259 341l28.5 36l26.5 33v2h-293v39h351l-1 -32l-259 -341l-51 -66v-2h312v-39h-373zM262 688h70l-122 -138h-37z" />
    <glyph glyph-name="Zdotaccent" unicode="&#x17b;" horiz-adv-x="539" 
d="M34 0v31l406 600v3h-373v40h434v-32l-407 -599v-3h412v-40h-472zM272 725c-10 0 -18.501 4 -25.501 12s-10.5 17 -10.5 27s3.83301 19 11.5 27s16.5 12 26.5 12s18.667 -4 26 -12s11 -17 11 -27s-3.66699 -19 -11 -27s-16.666 -12 -27.999 -12z" />
    <glyph glyph-name="zdotaccent" unicode="&#x17c;" horiz-adv-x="403" 
d="M16 0v29l259 341l28.5 36l26.5 33v2h-293v39h351l-1 -32l-259 -341l-51 -66v-2h312v-39h-373zM202 578c-10 0 -18.6689 4 -26.002 12s-11 17.333 -11 28s3.83301 20 11.5 28s16.834 12 27.501 12s19.5 -3.83301 26.5 -11.5s10.5 -17.167 10.5 -28.5
c0 -10.667 -3.66699 -20 -11 -28s-16.666 -12 -27.999 -12z" />
    <glyph glyph-name="Zcaron" unicode="&#x17d;" horiz-adv-x="539" 
d="M34 0v31l406 600v3h-373v40h434v-32l-407 -599v-3h412v-40h-472zM301 710h-38l-107 109h53l73 -74h2l71 74h50z" />
    <glyph glyph-name="zcaron" unicode="&#x17e;" horiz-adv-x="403" 
d="M16 0v29l259 341l28.5 36l26.5 33v2h-293v39h351l-1 -32l-259 -341l-51 -66v-2h312v-39h-373zM240 550h-39l-94 138h48l64 -100h2l64 100h45z" />
    <glyph glyph-name="florin" unicode="&#x192;" horiz-adv-x="488" 
d="M110 357l0.000976562 38h104l6 54c18 141.333 76.333 212 175 212c24.667 -2 44.667 -6.66699 60 -14l-11 -37c-20.667 7.33301 -39.334 11 -56.001 11c-68.667 0 -109 -56.667 -121 -170l-7 -56h132v-38h-136l-26 -220c-8.66699 -71.333 -25.167 -125.333 -49.5 -162
s-60.833 -55 -109.5 -55c-26 0 -49 5.33301 -69 16l12 36c18 -8.66699 38.333 -13 61 -13c59.333 0 95.333 55.333 108 166l26 232h-99z" />
    <glyph glyph-name="Ohorn" unicode="&#x1a0;" horiz-adv-x="671" 
d="M335 29c76.667 0 137.334 30.167 182.001 90.5s67 134.166 67 221.499c0 50 -8.5 97.5 -25.5 142.5s-44.833 83.333 -83.5 115s-84.667 47.5 -138 47.5c-54.667 0 -101.334 -15.5 -140.001 -46.5s-66.667 -69.667 -84 -116s-26 -96.833 -26 -151.5
c0 -81.333 22.333 -152.166 67 -212.499s105 -90.5 181 -90.5zM588 740l43.998 8.00195c10 -22.667 15 -45.667 15 -69c0 -27.333 -8.83301 -48.5 -26.5 -63.5s-43.5 -19.5 -77.5 -13.5c60.667 -62 91 -148 91 -258c0 -112.667 -29.333 -200 -88 -262s-130 -93 -214 -93
c-84.667 0 -155 31.167 -211 93.5s-84 145.166 -84 248.499c0 108 28.833 194.167 86.5 258.5s129.834 96.5 216.501 96.5c35.333 0 66.666 -5.33301 93.999 -16c2 -0.666992 12.5 -4.83398 31.5 -12.501s35.333 -13.5 49 -17.5s25.834 -6 36.501 -6
c18.667 0 31.834 3.83301 39.501 11.5s11.5 19.5 11.5 35.5c0 19.333 -4.66699 39 -14 59z" />
    <glyph glyph-name="ohorn" unicode="&#x1a1;" horiz-adv-x="532" 
d="M267 451c-57.333 0 -101.333 -21.166 -132 -63.499s-46 -91.833 -46 -148.5c0 -60 16.833 -110 50.5 -150s75.167 -60 124.5 -60c50.667 0 93.167 20.167 127.5 60.5s51.5 91.166 51.5 152.499c0 52 -15 99.833 -45 143.5s-73.667 65.5 -131 65.5zM465 547.001
l42.999 7.99902c8.66699 -19.333 13 -39.333 13 -60c0 -26 -7.66699 -46 -23 -60s-37.666 -19 -66.999 -15c40 -44 60 -102.333 60 -175c0 -82.667 -23.167 -146 -69.5 -190s-99.833 -66 -160.5 -66c-63.333 0 -115.833 22.667 -157.5 68s-62.5 105 -62.5 179
c0 78.667 22.167 140.834 66.5 186.501s97.833 68.5 160.5 68.5c26.667 0 53 -4.33301 79 -13c4 -1.33301 11.833 -4.5 23.5 -9.5s22.667 -9 33 -12s20.833 -4.5 31.5 -4.5c28.667 0 43 14.333 43 43c0 18.667 -4.33301 36 -13 52z" />
    <glyph glyph-name="Uhorn" unicode="&#x1af;" horiz-adv-x="646" 
d="M581 764l42.999 8.00195c10 -21.333 15 -42.333 15 -63c0 -21.333 -7 -38.5 -21 -51.5s-33.667 -19.5 -59 -19.5h-14v-366c0 -97.333 -22.333 -168.833 -67 -214.5s-102 -68.5 -172 -68.5c-66 0 -120 21.833 -162 65.5s-63 113.5 -63 209.5v410h48v-407
c0 -80.667 16.5 -140.334 49.5 -179.001s76.167 -58 129.5 -58c58.667 0 104.834 19.667 138.501 59s50.5 98.666 50.5 177.999v407h56c28.667 0 43 12.667 43 38c0 16.667 -5 34 -15 52z" />
    <glyph glyph-name="uhorn" unicode="&#x1b0;" horiz-adv-x="531" 
d="M487 571l43.001 7.99805c10 -20 15 -40.333 15 -61c0 -21.333 -7.5 -38.833 -22.5 -52.5s-34.5 -20.5 -58.5 -20.5h-13v-328c0 -45.333 1.33301 -84.333 4 -117h-45l-3 85h-2c-14 -26 -35.167 -48.5 -63.5 -67.5s-61.833 -28.5 -100.5 -28.5
c-18 0 -35.333 2.83301 -52 8.5s-34 15.334 -52 29.001s-32.5 35.334 -43.5 65.001s-16.5 65.834 -16.5 108.501v280h48v-270c0 -56.667 9.83301 -100.834 29.5 -132.501s52.167 -47.167 97.5 -46.5c32.667 0 61.667 9.5 87 28.5s43.666 41.833 54.999 68.5
c6 18 9 35.667 9 53v299h56c28.667 0 43 13 43 39c0 18 -5 35.333 -15 52z" />
    <glyph glyph-name="Aringacute" unicode="&#x1fa;" horiz-adv-x="585" 
d="M301 691c-24 0 -43.333 6.50098 -58 19.501s-22 29.833 -22 50.5c0 20 7.5 37 22.5 51s34.5 21 58.5 21c23.333 0 42.333 -6.83301 57 -20.5s22 -30.834 22 -51.501c0 -20 -7.66699 -36.667 -23 -50s-34.333 -20 -57 -20zM300 719.001
c13.333 0 24.167 3.99902 32.5 11.999s12.5 18.333 12.5 31c0 12 -4.16699 22.167 -12.5 30.5s-19.5 12.5 -33.5 12.5c-12.667 0 -23 -4.33301 -31 -13s-12 -19 -12 -31c0 -11.333 4.16699 -21.166 12.5 -29.499s18.833 -12.5 31.5 -12.5zM367.001 935h82l-139 -83h-48z
M429.001 236h-267l-83 -236h-49l244 674h46l243 -674h-49zM177.001 276l237 -0.000976562l-82 225c-13.333 36.667 -25 76.334 -35 119.001h-3c-7.33301 -32.667 -19 -71.667 -35 -117z" />
    <glyph glyph-name="aringacute" unicode="&#x1fb;" horiz-adv-x="454" 
d="M288 817h70l-138 -99h-38zM380 302l-0.00195312 -188c0 -46.667 2 -84.667 6 -114h-44l-7 69h-2c-13.333 -21.333 -33.5 -40 -60.5 -56s-57.833 -24 -92.5 -24c-45.333 0 -80.166 13.167 -104.499 39.5s-36.5 57.166 -36.5 92.499c0 56.667 24.833 100.334 74.5 131.001
s122.5 45.667 218.5 45v13c0 94.667 -41 141.667 -123 141c-47.333 0 -87.666 -12 -120.999 -36l-15 35c41.333 27.333 88.333 41 141 41c110.667 0 166 -63 166 -189zM331.998 154l-0.998047 102.998c-161.333 4.66699 -242 -38 -242 -128
c0 -32.667 9.16699 -57.5 27.5 -74.5s40.833 -25.5 67.5 -25.5c37.333 0 68.166 9.33301 92.499 28s41.166 41.334 50.499 68.001c3.33301 8.66699 5 18.334 5 29.001zM226 516.998c-26 0 -47.832 8.49902 -65.499 25.499s-26.5 37.5 -26.5 61.5c0 26 8.66699 47.667 26 65
s39.666 26 66.999 26c26 0 47.5 -8.66699 64.5 -26s25.5 -38.666 25.5 -63.999c0 -24.667 -9 -45.5 -27 -62.5s-39.333 -25.5 -64 -25.5zM226.001 546.997c16 0 29.168 5.83398 39.501 17.501s15.5 25.5 15.5 41.5c0 17.333 -5.16699 31.5 -15.5 42.5
s-23.833 16.5 -40.5 16.5c-16 0 -28.833 -5.83301 -38.5 -17.5s-14.5 -25.834 -14.5 -42.501c0 -15.333 5.16699 -28.833 15.5 -40.5s23.166 -17.5 38.499 -17.5z" />
    <glyph glyph-name="AEacute" unicode="&#x1fc;" horiz-adv-x="738" 
d="M46 0h-49l321 674h365v-40h-292l30 -260h249v-40h-244l36 -294h242l-1 -40h-282l-33 271h-213zM194 310l189 -0.000976562l-24 212c-0.666992 7.33301 -2.66699 25.333 -6 54s-5.33301 49.334 -6 62.001h-4c-7.33301 -18 -23.333 -54.333 -48 -109zM493 822.999h73
l-131 -113h-40z" />
    <glyph glyph-name="aeacute" unicode="&#x1fd;" horiz-adv-x="755" 
d="M712 251h-334.003c-2.66699 -70.667 11.833 -125.167 43.5 -163.5s73.5 -57.5 125.5 -57.5c50 0 92.667 9.33301 128 28l13 -37c-38.667 -21.333 -87 -32 -145 -32c-42.667 0 -80.667 10.667 -114 32s-56 50.666 -68 87.999h-2c-12.667 -38 -35 -67.5 -67 -88.5
s-69 -31.5 -111 -31.5c-45.333 0 -80.166 12.833 -104.499 38.5s-36.5 55.5 -36.5 89.5c0 55.333 25 98.333 75 129s123 45 219 43v24c0 8 -0.666992 16.667 -2 26s-4.66602 21 -9.99902 35s-12.166 26.5 -20.499 37.5s-20.5 20.333 -36.5 28s-34.667 11.5 -56 11.5
c-48 0 -88 -12 -120 -36l-15 34c42 28 88 42 138 42c85.333 0 136 -38.667 152 -116h2c14.667 36 36.834 64.333 66.501 85s64.167 31 103.5 31c28 0 53.167 -5.5 75.5 -16.5s39.666 -24.667 51.999 -41s22.5 -34.666 30.5 -54.999s13.333 -38.5 16 -54.5s4 -30.667 4 -44
c0 -14 -0.666992 -23.667 -2 -29zM333.997 168v83.002c-163.333 4.66699 -245 -38.333 -245 -129c0 -28.667 9.33301 -51.334 28 -68.001s41.667 -25 69 -25c38 -0.666992 69.167 8.66602 93.5 27.999s40.833 44 49.5 74c3.33301 10 5 22.333 5 37zM378.997 289.002h284.998
c0.666992 16 -1.16602 33 -5.49902 51s-11.5 35.5 -21.5 52.5s-24.167 31.167 -42.5 42.5s-39.166 17 -62.499 17c-46.667 0 -83.167 -17.167 -109.5 -51.5s-40.833 -71.5 -43.5 -111.5zM437.995 688.002h70l-122 -138h-37z" />
    <glyph glyph-name="Oslashacute" unicode="&#x1fe;" horiz-adv-x="671" 
d="M86 -28l-28.999 23l66 89c-57.333 64.667 -86 147.334 -86 248.001c0 108 29 194 87 258s130 96 216 96c68.667 0 128.667 -21.667 180 -65l61 81l32 -22l-65 -87c57.333 -64 86 -147 86 -249c0 -58.667 -8.5 -111.334 -25.5 -158.001s-39.833 -84 -68.5 -112
s-60.334 -49.167 -95.001 -63.5s-70.667 -21.5 -108 -21.5c-72 0 -134.333 22.333 -187 67zM152.001 124l342 460.999c-46 40.667 -98.333 61 -157 61c-54 0 -100.5 -15.833 -139.5 -47.5s-67.167 -70.167 -84.5 -115.5s-26 -93.666 -26 -144.999c0 -77.333 21 -149 63 -215
zM519.001 553.999l-342 -461.999c43.333 -42 96 -63 158 -63c52 0 97.333 15 136 45s67.167 68.167 85.5 114.5s27.5 97.166 27.5 152.499c0 80.667 -21 151.667 -63 213h-2zM407.001 833h73l-131 -113h-40z" />
    <glyph glyph-name="oslashacute" unicode="&#x1ff;" horiz-adv-x="532" 
d="M269 491c46 0 87.667 -13.002 125 -39.002l39 55l31 -21l-41 -60c45.333 -47.333 68 -107.666 68 -180.999c0 -42.667 -6.66699 -81 -20 -115s-31.166 -60.833 -53.499 -80.5s-46.333 -34.667 -72 -45s-52.167 -15.5 -79.5 -15.5c-50 0 -92.667 13.333 -128 40l-41 -56
l-28 25l40 57c-45.333 46.667 -68 107 -68 181c0 78.667 22.167 140.834 66.5 186.501s98.166 68.5 161.499 68.5zM137 90.998l233.001 324c-26.667 24 -61.334 36 -104.001 36c-58 0 -102 -21.333 -132 -64s-45 -92 -45 -148c0 -58 15.333 -107.333 46 -148h2z
M395.001 386.998l-232 -324c27.333 -22.667 60.333 -34 99 -34c52.667 0 96 20.333 130 61s51 91.667 51 153c0 54.667 -15.333 102.667 -46 144h-2zM322.001 687.998h70l-122 -138h-37z" />
    <glyph glyph-name="Scommaaccent" unicode="&#x218;" horiz-adv-x="464" 
d="M42 35l17.9971 39c42.667 -29.333 91.667 -44 147 -44c50 0 89.667 12.833 119 38.5s44 59.5 44 101.5c0 38 -10.5 69 -31.5 93s-56.167 45.667 -105.5 65c-115.333 40.667 -173 102.667 -173 186c0 49.333 18.333 90.166 55 122.499s83.667 48.5 141 48.5
c58.667 0 103.334 -10.667 134.001 -32l-18 -40c-29.333 21.333 -69 32 -119 32c-49.333 0 -86 -12.667 -110 -38s-36 -53.666 -36 -84.999c0 -36.667 10.833 -66.167 32.5 -88.5s57.5 -43.166 107.5 -62.499c58.667 -24 101.667 -50.667 129 -80s41 -68 41 -116
c0 -52.667 -18.5 -96.834 -55.5 -132.501s-89.833 -53.5 -158.5 -53.5c-29.333 0 -59.166 4.33301 -89.499 13s-54.166 19.667 -71.499 33zM176.997 -209l-13 26.002c54 8 81 30.667 81 68c0 24 -12.333 44.333 -37 61l40 12c10.667 -6.66699 20 -16.334 28 -29.001
s12 -26.334 12 -41.001c0 -30 -11.5 -53 -34.5 -69s-48.5 -25.333 -76.5 -28z" />
    <glyph glyph-name="scommaaccent" unicode="&#x219;" horiz-adv-x="373" 
d="M44 23l17.001 39.999c36 -22 72 -33 108 -33c36.667 0 64.5 8.5 83.5 25.5s28.5 38.833 28.5 65.5c0 26 -7.83301 47 -23.5 63s-41.5 31.333 -77.5 46c-81.333 30.667 -122 74.334 -122 131.001c0 36 13.5 66.667 40.5 92s62.833 38 107.5 38c42.667 0 78 -10 106 -30
l-18 -39c-27.333 19.333 -59.333 29 -96 29c-29.333 0 -52.166 -8 -68.499 -24s-24.5 -35.667 -24.5 -59s7.66699 -42 23 -56s40.666 -28.333 75.999 -43c41.333 -16 72.333 -35 93 -57s31 -50.333 31 -85c0 -41.333 -14.833 -74.5 -44.5 -99.5
s-68.834 -37.5 -117.501 -37.5c-46 0 -86.667 11 -122 33zM131.001 -209.001l-14 26.002c54 8 81 30.667 81 68c0 24 -12.333 44.333 -37 61l40 12c10.667 -6.66699 20 -16.334 28 -29.001s12 -26.334 12 -41.001c0 -30 -11.333 -53 -34 -69s-48 -25.333 -76 -28z" />
    <glyph glyph-name="uni021A" unicode="&#x21a;" horiz-adv-x="465" 
d="M209 0v634h-220v40h488v-40h-220v-634h-48zM173 -209l-14 26.002c54 8 81 30.667 81 68c0 24 -12.333 44.333 -37 61l40 12c10.667 -6.66699 20 -16.334 28 -29.001s12 -26.334 12 -41.001c0 -30 -11.333 -53 -34 -69s-48 -25.333 -76 -28z" />
    <glyph glyph-name="uni021B" unicode="&#x21b;" horiz-adv-x="309" 
d="M99 568l48 18v-106h137v-39h-137v-312c0 -66 23.333 -99 70 -99c22.667 0 41 2.33301 55 7l6 -36c-18 -8 -40.333 -12 -67 -12c-36.667 0 -64 11.333 -82 34c-20 22.667 -30 61 -30 115v303h-81v39h81v88zM120 -217l-14 26.002c54 8 81 30.667 81 68
c0 24 -12.333 44.333 -37 61l40 12c10.667 -6.66699 20 -16.334 28 -29.001s12 -26.334 12 -41.001c0 -30 -11.333 -53 -34 -69s-48 -25.333 -76 -28z" />
    <glyph glyph-name="uni021C" unicode="&#x21c;" horiz-adv-x="445" 
d="M55 -108l-7.00098 39.999c98 16 174 46.667 228 92s81 99.333 81 162c0 45.333 -15 82.333 -45 111s-70 42.667 -120 42c-21.333 0 -51.666 -5.66699 -90.999 -17l-7 37c62.667 15.333 112.834 39 150.501 71s56.834 68.333 57.501 109c0 32 -11.5 57.5 -34.5 76.5
s-53.167 28.833 -90.5 29.5c-24.667 0 -50.5 -4.16699 -77.5 -12.5s-47.167 -16.5 -60.5 -24.5l-11 33c14 10 36.167 20 66.5 30s59.833 15 88.5 15c50.667 0 91.167 -13.167 121.5 -39.5s45.5 -60.833 45.5 -103.5c0 -36 -11.833 -68.333 -35.5 -97
s-53.834 -51.667 -90.501 -69v-3c53.333 -3.33301 97 -21.666 131 -54.999s51 -76.333 51 -129c0 -73.333 -30.333 -136.833 -91 -190.5s-147.334 -89.5 -260.001 -107.5z" />
    <glyph glyph-name="uni021D" unicode="&#x21d;" horiz-adv-x="399" 
d="M40 -209l-4 39.001c10.667 1.33301 19.167 2.5 25.5 3.5s20.666 4.16699 42.999 9.5s41.5 11.166 57.5 17.499s35 15.333 57 27s40 24.334 54 38.001s26.167 31 36.5 52s15.5 43.5 15.5 67.5c0 38 -12.833 68.833 -38.5 92.5s-61.5 35.5 -107.5 35.5
c-20 0 -50 -5 -90 -15l-7 37c62.667 15.333 110.5 35.5 143.5 60.5s49.5 57.167 49.5 96.5c0 30.667 -10.333 54.834 -31 72.501s-49 26.5 -85 26.5c-37.333 0 -79.333 -13.333 -126 -40l-12 33c50 31.333 99 47 147 47c45.333 0 82.5 -12.333 111.5 -37
s43.5 -56.667 43.5 -96c0 -34 -10.167 -64 -30.5 -90s-46.166 -45 -77.499 -57v-3c46.667 -4 84.667 -20 114 -48s44 -64 44 -108c0 -28.667 -5.83301 -56.334 -17.5 -83.001s-30 -52.334 -55 -77.001s-59.833 -46 -104.5 -64s-96.667 -30.333 -156 -37z" />
    <glyph glyph-name="uni0232" unicode="&#x232;" horiz-adv-x="503" 
d="M277 0l-48.001 -0.00195312v292l-214 382h53l111 -201c34.667 -63.333 60.334 -111.666 77.001 -144.999h2c8 18.667 34 67.334 78 146.001l115 200h53l-227 -383v-291zM137.999 771.998h228v-39h-228v39z" />
    <glyph glyph-name="uni0233" unicode="&#x233;" horiz-adv-x="440" 
d="M11 480h50.998l126 -314c12.667 -33.333 24.334 -67.666 35.001 -102.999h2l37 106l117 311h51l-144 -358c-32 -82 -59.667 -144.833 -83 -188.5s-49.666 -78.5 -78.999 -104.5c-28.667 -24 -56.667 -40.667 -84 -50l-15 40c32 12 60 29.667 84 53
c33.333 33.333 60 73.666 80 120.999c4 10 6 17 6 21s-2 11 -6 21zM114.998 629h210v-40h-210v40z" />
    <glyph glyph-name="circumflex" unicode="&#x2c6;" 
d="M131 688h35l94 -138h-48l-62 99h-2l-63 -99h-45z" />
    <glyph glyph-name="caron" unicode="&#x2c7;" 
d="M171 550h-38l-94 138h48l64 -100h2l64 100h45z" />
    <glyph glyph-name="uni02C9" unicode="&#x2c9;" 
d="M46 629h210v-40h-210v40z" />
    <glyph glyph-name="breve" unicode="&#x2d8;" 
d="M35 676h36.001c3.33301 -21.333 12.166 -39 26.499 -53s31.833 -21 52.5 -21c24 0 42.667 7.33301 56 22s21 32 23 52h36c0 -34 -10.833 -61.5 -32.5 -82.5s-49.167 -31.5 -82.5 -31.5c-38.667 0 -67.5 11.5 -86.5 34.5s-28.5 49.5 -28.5 79.5z" />
    <glyph glyph-name="dotaccent" unicode="&#x2d9;" 
d="M150 578c-10 0 -18.6689 4 -26.002 12s-11 17.333 -11 28s3.83301 20 11.5 28s16.834 12 27.501 12s19.5 -3.83301 26.5 -11.5s10.5 -17.167 10.5 -28.5c0 -10.667 -3.66699 -20 -11 -28s-16.666 -12 -27.999 -12z" />
    <glyph glyph-name="ring" unicode="&#x2da;" 
d="M143 536c-26.667 0 -48.832 8.5 -66.499 25.5s-26.5 37.833 -26.5 62.5c0 26 8.83301 47.667 26.5 65s40.167 26 67.5 26c25.333 0 46.666 -8.66699 63.999 -26s26 -39 26 -65c0 -24.667 -9 -45.5 -27 -62.5s-39.333 -25.5 -64 -25.5zM142.002 566
c16 0 29.167 5.83203 39.5 17.499s15.5 25.834 15.5 42.501s-5.33301 30.667 -16 42s-24 17 -40 17c-15.333 0 -27.833 -6 -37.5 -18s-14.5 -26.333 -14.5 -43c0 -14.667 5.16699 -28 15.5 -40s22.833 -18 37.5 -18z" />
    <glyph glyph-name="ogonek" unicode="&#x2db;" 
d="M149 5l42 -0.00195312c-46.667 -49.333 -70 -88.333 -70 -117c0 -15.333 4.5 -27.166 13.5 -35.499s20.833 -12.5 35.5 -12.5c16 0 31.333 3.33301 46 10l9 -29c-16 -12 -38.333 -18 -67 -18c-24.667 0 -44.5 6.5 -59.5 19.5s-22.5 31.167 -22.5 54.5
c0 36.667 24.333 79.334 73 128.001z" />
    <glyph glyph-name="tilde" unicode="&#x2dc;" 
d="M73 572h-34c-0.666992 26.667 4.5 48 15.5 64s25.833 24 44.5 24c9.33301 0 29.333 -7.33301 60 -22c18.667 -10.667 32.667 -16 42 -16c16.667 0 26 13.667 28 41h33c0 -56 -20 -84 -60 -84c-13.333 0 -32 6.66699 -56 20c-22.667 12 -38 18 -46 18
c-16 0 -25 -15 -27 -45z" />
    <glyph glyph-name="hungarumlaut" unicode="&#x2dd;" 
d="M161 688h65l-118 -128h-36zM287 688h65l-118 -128h-36z" />
    <glyph glyph-name="uni037E" unicode="&#x37e;" horiz-adv-x="180" 
d="M72 -121l-38 -5.00098c7.33301 22.667 15.5 56.334 24.5 101.001s14.833 81.667 17.5 111l62 5c-6 -32 -16.5 -71.333 -31.5 -118s-26.5 -78 -34.5 -94zM101 344.999c-12 0 -21.834 4.66699 -29.501 14s-11.5 20.333 -11.5 33c0 14 4 25.5 12 34.5s18.333 13.5 31 13.5
s22.834 -4.5 30.501 -13.5s11.5 -20.5 11.5 -34.5c0 -12.667 -4 -23.667 -12 -33s-18.667 -14 -32 -14z" />
    <glyph glyph-name="tonos" unicode="&#x384;" 
d="M141 689h61l-85 -138h-34z" />
    <glyph glyph-name="dieresistonos" unicode="&#x385;" horiz-adv-x="290" 
d="M136 698h53l-46 -146h-28zM39 579c-10.667 0 -19.333 3.83301 -26 11.5s-10 16.834 -10 27.501c0 10 3.66699 18.833 11 26.5s16.333 11.5 27 11.5c10 0 18.5 -3.66699 25.5 -11s10.5 -16.333 10.5 -27s-3.5 -19.834 -10.5 -27.501s-16.167 -11.5 -27.5 -11.5z
M248.001 579c-10.667 0 -19.333 3.83301 -26 11.5s-10 16.834 -10 27.501c0 10 3.66699 18.833 11 26.5s16 11.5 26 11.5c10.667 0 19.5 -3.66699 26.5 -11s10.5 -16.333 10.5 -27s-3.5 -19.834 -10.5 -27.501s-16.167 -11.5 -27.5 -11.5z" />
    <glyph glyph-name="Alphatonos" unicode="&#x386;" horiz-adv-x="585" 
d="M429 236h-267l-83 -236h-49l244 674h46l243 -674h-49zM177 276h238.001l-82 225c-11.333 32 -23.333 71.667 -36 119h-2c-10.667 -42 -22.334 -81 -35.001 -117zM100.001 674h53l-33 -143h-30z" />
    <glyph glyph-name="anoteleia" unicode="&#x387;" horiz-adv-x="180" 
d="M88 275c-12 0 -22.001 4.66699 -30.001 14s-11.667 20.333 -11 33c0 14 4 25.5 12 34.5s18.333 13.5 31 13.5s22.834 -4.5 30.501 -13.5s11.5 -20.5 11.5 -34.5c0 -12.667 -4 -23.667 -12 -33s-18.667 -14 -32 -14z" />
    <glyph glyph-name="Epsilontonos" unicode="&#x388;" horiz-adv-x="511" 
d="M444 375v-40h-269v-295h301v-40h-349v674h333v-40h-285v-259h269zM11 674h53l-34 -143h-30z" />
    <glyph glyph-name="Etatonos" unicode="&#x389;" horiz-adv-x="676" 
d="M127 674h47v-297h372v297h48v-674h-48v337h-372v-337h-47v674zM10 674h53l-33 -143h-30z" />
    <glyph glyph-name="Iotatonos" unicode="&#x38a;" horiz-adv-x="256" 
d="M127 674h48v-674h-48v674zM11 674h53l-34 -143h-30z" />
    <glyph glyph-name="Omicrontonos" unicode="&#x38c;" horiz-adv-x="689" 
d="M350 -11c-84.667 0 -155.001 31.167 -211.001 93.5s-84 145.166 -84 248.499c0 108 28.833 194.167 86.5 258.5s129.834 96.5 216.501 96.5c86 0 156.5 -31.167 211.5 -93.5s82.5 -145.166 82.5 -248.499c0 -112.667 -29.333 -200 -88 -262s-130 -93 -214 -93z
M352.999 29c76.667 0 137.334 30.167 182.001 90.5s67 134.166 67 221.499c0 50 -8.5 97.5 -25.5 142.5s-44.833 83.333 -83.5 115s-84.667 47.5 -138 47.5c-54.667 0 -101.334 -15.5 -140.001 -46.5s-66.667 -69.667 -84 -116s-26 -96.833 -26 -151.5
c0 -81.333 22.333 -152.166 67 -212.499s105 -90.5 181 -90.5zM9.99902 674h53l-33 -143h-30z" />
    <glyph glyph-name="Upsilontonos" unicode="&#x38e;" horiz-adv-x="663" 
d="M109 643l10 36.999c20.667 -2.66699 45.167 -12.667 73.5 -30s52.5 -37.666 72.5 -60.999c62 -72 100 -161 114 -267h2c17.333 102 61 191 131 267c47.333 50 93.333 80.333 138 91l10 -35c-18.667 -8.66699 -37.667 -20.334 -57 -35.001s-40.833 -34.167 -64.5 -58.5
s-46.167 -56 -67.5 -95s-38.333 -82.167 -51 -129.5c-12.667 -44 -19 -90 -19 -138v-189h-48v191c0 46.667 -5.33301 92.667 -16 138c-22 92.667 -55 165.334 -99 218.001s-87 84.667 -129 96zM10 673.999h53l-33 -143h-30z" />
    <glyph glyph-name="Omegatonos" unicode="&#x38f;" horiz-adv-x="697" 
d="M514 44l-0.00195312 -2.99902h154v-41h-226v34c46 29.333 84.5 72.5 115.5 129.5s46.5 119.833 46.5 188.5c0 46 -8.5 90.667 -25.5 134s-44.833 80.833 -83.5 112.5s-84 47.5 -136 47.5c-52.667 0 -98.667 -15 -138 -45s-68 -67 -86 -111s-27 -90.333 -27 -139
c0 -66 15.833 -128.333 47.5 -187s69.834 -102 114.501 -130v-34h-226v41h154v3c-41.333 33.333 -75 76.5 -101 129.5s-39 111.833 -39 176.5c0 99.333 29 180.166 87 242.499s129.667 93.5 215 93.5c86.667 0 157.334 -30.833 212.001 -92.5s82 -140.5 82 -236.5
c0 -68.667 -13 -130 -39 -184s-59.667 -97 -101 -129zM9.99805 674.001h53l-33 -143h-30z" />
    <glyph glyph-name="iotadieresistonos" unicode="&#x390;" horiz-adv-x="209" 
d="M128 480v-384c0 -25.333 3.16699 -43 9.5 -53s19.5 -14.667 39.5 -14l-4 -37c-8 -2 -16 -3 -24 -3c-45.333 0 -68 33.667 -68 101v390h47zM104 682h53l-46 -146h-28zM7 565c-10 0 -18.334 3.66699 -25.001 11s-10 16 -10 26s3.5 18.667 10.5 26s15.833 11 26.5 11
c9.33301 0 17.333 -3.5 24 -10.5s10 -15.833 10 -26.5s-3.16699 -19.5 -9.5 -26.5s-15.166 -10.5 -26.499 -10.5zM216.999 565c-10 0 -18.167 3.66699 -24.5 11s-9.5 16 -9.5 26s3.5 18.667 10.5 26s15.5 11 25.5 11s18.333 -3.5 25 -10.5s10 -15.833 10 -26.5
s-3.33301 -19.5 -10 -26.5s-15.667 -10.5 -27 -10.5z" />
    <glyph glyph-name="Alpha" unicode="&#x391;" horiz-adv-x="585" 
d="M428 236h-266l-83 -236h-49l244 674h46l242 -674h-49zM177 276l237 -0.000976562l-82 225c-13.333 36.667 -25 76.334 -35 119.001h-3c-7.33301 -32.667 -19 -71.667 -35 -117z" />
    <glyph glyph-name="Beta" unicode="&#x392;" horiz-adv-x="505" 
d="M81 1l-0.000976562 663c42 10 87.333 15 136 15c80.667 0 139.334 -18.667 176.001 -56c28 -27.333 42 -64 42 -110c0 -34 -10.833 -64.5 -32.5 -91.5s-49.5 -46.5 -83.5 -58.5v-3c36 -8 68.833 -26.333 98.5 -55s44.5 -67.667 44.5 -117
c0 -50.667 -16.667 -93.667 -50 -129c-42.667 -42.667 -114 -64 -214 -64c-24 0 -63 2 -117 6zM128.999 632l-0.000976562 -254h98c48 0 86.5 12.5 115.5 37.5s43.5 56.5 43.5 94.5c0 86 -57.333 129 -172 129c-39.333 0 -67.666 -2.33301 -84.999 -7zM128.998 339
l-0.00195312 -299c16.667 -3.33301 44.334 -5 83.001 -5c58 0 105.833 12 143.5 36s56.5 62.667 56.5 116c0 50 -18.667 87.833 -56 113.5s-84.666 38.5 -141.999 38.5h-85z" />
    <glyph glyph-name="Gamma" unicode="&#x393;" horiz-adv-x="433" 
d="M81 674h333v-40h-285v-634h-48v674z" />
    <glyph glyph-name="uni0394" unicode="&#x394;" horiz-adv-x="603" 
d="M31 0v33l246 641h46l245 -641v-33h-537zM80 40h437.999l-163 426c-28.667 74.667 -47 126 -55 154h-3c-9.33301 -31.333 -25.666 -77 -48.999 -137z" />
    <glyph glyph-name="Epsilon" unicode="&#x395;" horiz-adv-x="466" 
d="M398 375v-40h-269v-295h301v-40h-349v674h333v-40h-285v-259h269z" />
    <glyph glyph-name="Zeta" unicode="&#x396;" horiz-adv-x="539" 
d="M34 0v31l406 600v3h-373v40h434v-32l-407 -599v-3h412v-40h-472z" />
    <glyph glyph-name="Eta" unicode="&#x397;" horiz-adv-x="630" 
d="M81 674h48v-297h372v297h48v-674h-48v337h-372v-337h-48v674z" />
    <glyph glyph-name="Theta" unicode="&#x398;" horiz-adv-x="671" 
d="M332 -11c-84.667 0 -155.001 31.167 -211.001 93.5s-84 145.166 -84 248.499c0 108 28.833 194.167 86.5 258.5s129.834 96.5 216.501 96.5c86 0 156.5 -31.167 211.5 -93.5s82.5 -145.166 82.5 -248.499c0 -112.667 -29.333 -200 -88 -262s-130 -93 -214 -93z
M334.999 29c76.667 0 137.334 30.167 182.001 90.5s67 134.166 67 221.499c0 50 -8.5 97.5 -25.5 142.5s-44.833 83.333 -83.5 115s-84.667 47.5 -138 47.5c-54.667 0 -101.334 -15.5 -140.001 -46.5s-66.667 -69.667 -84 -116s-26 -96.833 -26 -151.5
c0 -81.333 22.5 -152.166 67.5 -212.499s105.167 -90.5 180.5 -90.5zM180.999 370h309v-40h-309v40z" />
    <glyph glyph-name="Iota" unicode="&#x399;" horiz-adv-x="211" 
d="M81 674h48v-674h-48v674z" />
    <glyph glyph-name="Kappa" unicode="&#x39a;" horiz-adv-x="498" 
d="M81 0v674.001h48v-341h3c12 15.333 31.333 38.666 58 69.999l239 271h58l-256 -286l280 -388h-57l-256 355l-69 -76v-279h-48z" />
    <glyph glyph-name="Lambda" unicode="&#x39b;" horiz-adv-x="585" 
d="M563 0h-48.999l-182 501c-10.667 32 -22.334 71.667 -35.001 119h-2c-7.33301 -30 -19 -69 -35 -117l-181 -503h-49l244 674h46z" />
    <glyph glyph-name="Mu" unicode="&#x39c;" horiz-adv-x="778" 
d="M670 0l-20.001 320.002c-9.33301 157.333 -14 256.666 -14 297.999h-2c-33.333 -96.667 -63.666 -180.334 -90.999 -251.001l-142 -367h-33l-133 358c-44 122 -73 208.667 -87 260h-2c-2.66699 -101.333 -7.66699 -204 -15 -308l-21 -310h-47l49 674h55l145 -388
c31.333 -83.333 56 -156.333 74 -219h3c12.667 47.333 37.667 120 75 218l151 389h57l45 -674h-47z" />
    <glyph glyph-name="Nu" unicode="&#x39d;" horiz-adv-x="638" 
d="M128 0l-45.999 0.000976562v674h45l262 -398c57.333 -88 99.666 -158.667 126.999 -212l2 1c-5.33301 69.333 -8 160.666 -8 273.999v335h46v-674h-44l-257 392c-65.333 102 -109 174.667 -131 218l-2 -1c4 -66.667 6 -156 6 -268v-341z" />
    <glyph glyph-name="Xi" unicode="&#x39e;" horiz-adv-x="519" 
d="M52 674h425v-40h-425v40zM87 371h356v-40h-356v40zM44 40h442v-40h-442v40z" />
    <glyph glyph-name="Omicron" unicode="&#x39f;" horiz-adv-x="671" 
d="M332 -11c-84.667 0 -155.001 31.167 -211.001 93.5s-84 145.166 -84 248.499c0 108 28.833 194.167 86.5 258.5s129.834 96.5 216.501 96.5c86 0 156.5 -31.167 211.5 -93.5s82.5 -145.166 82.5 -248.499c0 -112.667 -29.333 -200 -88 -262s-130 -93 -214 -93z
M334.999 29c76.667 0 137.334 30.167 182.001 90.5s67 134.166 67 221.499c0 50 -8.5 97.5 -25.5 142.5s-44.833 83.333 -83.5 115s-84.667 47.5 -138 47.5c-54.667 0 -101.334 -15.5 -140.001 -46.5s-66.667 -69.667 -84 -116s-26 -96.833 -26 -151.5
c0 -81.333 22.333 -152.166 67 -212.499s105 -90.5 181 -90.5z" />
    <glyph glyph-name="Pi" unicode="&#x3a0;" horiz-adv-x="614" 
d="M532 674v-674h-48v634h-355v-634h-48v674h451z" />
    <glyph glyph-name="Rho" unicode="&#x3a1;" horiz-adv-x="502" 
d="M81 0l0.000976562 666c48 8.66699 96.333 13 145 13c79.333 0 138.666 -19 177.999 -57c34.667 -32.667 52 -76.667 52 -132s-15.667 -100.333 -47 -135c-44 -50 -110 -75 -198 -75c-36.667 0 -64 2.66699 -82 8v-288h-48zM129.001 631v-300.999
c19.333 -6.66699 48 -10 86 -10c61.333 0 108.833 14.167 142.5 42.5s50.5 69.166 50.5 122.499c0 51.333 -16.667 89.833 -50 115.5s-78 38.5 -134 38.5c-39.333 0 -71 -2.66699 -95 -8z" />
    <glyph glyph-name="Sigma" unicode="&#x3a3;" horiz-adv-x="536" 
d="M88 44v-4h423v-40h-488v31l256 304l-242 306v33h438v-40h-375v-3l234 -294z" />
    <glyph glyph-name="Tau" unicode="&#x3a4;" horiz-adv-x="465" 
d="M209 0v634h-220v40h488v-40h-220v-634h-48z" />
    <glyph glyph-name="Upsilon" unicode="&#x3a5;" horiz-adv-x="566" 
d="M12 643l10.001 36.999c21.333 -2.66699 46 -12.667 74 -30s52 -37.666 72 -60.999c62 -72 100 -161 114 -267h2c17.333 102 61 191 131 267c47.333 50 93.333 80.333 138 91l10 -36c-18 -8 -36.833 -19.333 -56.5 -34s-41.334 -34.167 -65.001 -58.5
s-46.167 -56 -67.5 -95s-38.333 -82.167 -51 -129.5c-12.667 -44.667 -19 -90.667 -19 -138v-189h-48v191c0 46.667 -5.33301 92.667 -16 138c-22 92 -55 164.333 -99 217s-87 85 -129 97z" />
    <glyph glyph-name="Phi" unicode="&#x3a6;" horiz-adv-x="677" 
d="M362 26l-0.00195312 -50.9971h-48v51c-74 4.66699 -138.5 33.167 -193.5 85.5s-82.5 126.166 -82.5 221.499c0 50 8.5 95.5 25.5 136.5s39.167 74 66.5 99s57 44.333 89 58s64.333 21.167 97 22.5v49h48v-49c74.667 -3.33301 139.334 -32.5 194.001 -87.5
s82 -130.167 82 -225.5c0 -49.333 -8 -93.833 -24 -133.5s-37.333 -71.834 -64 -96.501s-56.167 -43.834 -88.5 -57.501s-66.166 -21.167 -101.499 -22.5zM314.998 62.0029v550.999c-56.667 -2 -108.667 -28 -156 -78s-71 -116.333 -71 -199
c0 -79.333 21.833 -143.166 65.5 -191.499s97.5 -75.833 161.5 -82.5zM362.998 613.002v-550.999c62 4 115.333 30.667 160 80s67 114 67 194c0 83.333 -22.333 149.166 -67 197.499s-98 74.833 -160 79.5z" />
    <glyph glyph-name="Chi" unicode="&#x3a7;" horiz-adv-x="546" 
d="M515 0h-55l-102 166c-37.333 56 -67 102.667 -89 140h-2c-28 -49.333 -56.333 -96.333 -85 -141l-97 -165h-55l214 341l-205 333h54l109 -180c28.667 -45.333 51.667 -84 69 -116h2c8 15.333 31.667 54 71 116l113 180h56l-215 -328z" />
    <glyph glyph-name="Psi" unicode="&#x3a8;" horiz-adv-x="650" 
d="M600 674l0.00195312 -194.997c0 -78.667 -22.5 -140.834 -67.5 -186.501s-106.167 -70.167 -183.5 -73.5v-219h-48v219c-32.667 1.33301 -63.334 6.5 -92.001 15.5s-55.334 22.5 -80.001 40.5s-44 42.667 -58 74s-21 67.666 -21 108.999v216h48v-206
c0 -68.667 18 -119.834 54 -153.501s85.667 -52.167 149 -55.5v415h48v-415c58.667 2.66699 107.167 22.167 145.5 58.5s57.5 90.5 57.5 162.5v194h48z" />
    <glyph glyph-name="uni03A9" unicode="&#x3a9;" horiz-adv-x="681" 
d="M498 44l-0.00488281 -2.99805h154v-41h-226v34c46 30.667 84.667 74.667 116 132s47 120 47 188c0 33.333 -5.16699 66.833 -15.5 100.5s-25.166 65 -44.499 94s-45.166 52.5 -77.499 70.5s-68.5 27 -108.5 27c-52.667 0 -98.667 -15 -138 -45s-68 -66.833 -86 -110.5
s-27 -89.834 -27 -138.501c0 -65.333 15.833 -127.333 47.5 -186s69.834 -102.667 114.501 -132v-34h-226v41h154v3c-40.667 34 -74.167 77.667 -100.5 131s-39.5 112.333 -39.5 177c0 99.333 29 179.833 87 241.5s130 92.5 216 92.5c86.667 0 157.334 -30.5 212.001 -91.5
s82 -139.5 82 -235.5c0 -68 -13.167 -128.833 -39.5 -182.5s-60.166 -97.834 -101.499 -132.501z" />
    <glyph glyph-name="Iotadieresis" unicode="&#x3aa;" horiz-adv-x="211" 
d="M20 710l-1.99902 0.000976562c-10.667 0 -19.334 3.83301 -26.001 11.5s-10 16.834 -10 27.501c0 10 3.83301 19 11.5 27s16.5 12 26.5 12c10.667 0 19.5 -3.83301 26.5 -11.5s10.5 -16.834 10.5 -27.501s-3.33301 -19.834 -10 -27.501s-15.667 -11.5 -27 -11.5z
M191.001 710.001l-1.99902 0.000976562c-10.667 0 -19.334 3.83301 -26.001 11.5s-10 16.834 -10 27.501c0 10 3.83301 19 11.5 27s16.5 12 26.5 12c10.667 0 19.5 -3.83301 26.5 -11.5s10.5 -16.834 10.5 -27.501s-3.33301 -19.834 -10 -27.501s-15.667 -11.5 -27 -11.5z
M81.002 674.002h48v-674h-48v674z" />
    <glyph glyph-name="Upsilondieresis" unicode="&#x3ab;" horiz-adv-x="566" 
d="M202 696l-1.99902 0.000976562c-10.667 0 -19.334 3.83301 -26.001 11.5s-10 16.834 -10 27.501c0 10 3.83301 19 11.5 27s16.5 12 26.5 12c10.667 0 19.5 -3.83301 26.5 -11.5s10.5 -16.834 10.5 -27.501s-3.33301 -19.834 -10 -27.501s-15.667 -11.5 -27 -11.5z
M372.001 696.001l-1.99902 0.000976562c-10.667 0 -19.334 3.83301 -26.001 11.5s-10 16.834 -10 27.501c0 10 3.83301 19 11.5 27s16.5 12 26.5 12c10.667 0 19.5 -3.83301 26.5 -11.5s10.5 -16.834 10.5 -27.501s-3.33301 -19.834 -10 -27.501s-15.667 -11.5 -27 -11.5z
M12.002 643.002l10.001 36.999c21.333 -2.66699 46 -12.667 74 -30s52 -37.666 72 -60.999c62 -72 100 -161 114 -267h2c17.333 102 61 191 131 267c47.333 50 93.333 80.333 138 91l10 -36c-18 -8 -36.833 -19.333 -56.5 -34s-41.334 -34.167 -65.001 -58.5
s-46.167 -56 -67.5 -95s-38.333 -82.167 -51 -129.5c-12.667 -44.667 -19 -90.667 -19 -138v-189h-48v191c0 46.667 -5.33301 92.667 -16 138c-22 92 -55 164.333 -99 217s-87 85 -129 97z" />
    <glyph glyph-name="alphatonos" unicode="&#x3ac;" horiz-adv-x="532" 
d="M285 678h61l-85 -138h-34zM423 480l38.999 0.000976562c-8 -70 -12 -190.333 -12 -361c0 -30.667 3.66699 -53.334 11 -68.001s20.333 -22.334 39 -23.001l-6 -38c-4 -0.666992 -9.66699 -1 -17 -1c-19.333 0 -35.5 8.83301 -48.5 26.5s-19.5 45.5 -19.5 83.5h-3
c-38.667 -73.333 -95.667 -110 -171 -110c-58 0 -104.833 22.167 -140.5 66.5s-53.5 102.833 -53.5 175.5c0 75.333 20.833 137.5 62.5 186.5s91.5 73.5 149.5 73.5c38 0 70.833 -9.66699 98.5 -29s47.834 -46 60.501 -80h4c0.666992 30.667 3 63.334 7 98.001z
M88.999 229.001c0 -54.667 13.8301 -101.667 41.4971 -141s65.834 -59 114.501 -59c34.667 0 66.667 14 96 42s49 61 59 99c4 17.333 6 44 6 80c0 26.667 -1.33301 46.667 -4 60c-7.33301 37.333 -24.666 70.166 -51.999 98.499s-59.666 42.5 -96.999 42.5
c-48 0 -87.333 -20.667 -118 -62s-46 -94.666 -46 -159.999z" />
    <glyph glyph-name="epsilontonos" unicode="&#x3ad;" horiz-adv-x="422" 
d="M263 678h60l-85 -138h-33zM170 257l-0.00195312 4c-33.333 6 -58.666 18.333 -75.999 37s-26 40.667 -26 66c0 33.333 16 62.833 48 88.5s76 38.5 132 38.5c60.667 0 106.334 -12.333 137.001 -37l-14 -35c-10 8 -27.333 15.5 -52 22.5s-49 10.5 -73 10.5
c-38.667 0 -70 -8 -94 -24s-36 -37.333 -36 -64c0 -28.667 14 -50.167 42 -64.5s63 -21.5 105 -21.5h66v-39h-69c-51.333 0 -92.5 -8.66699 -123.5 -26s-46.5 -43 -46.5 -77c0 -33.333 14.333 -59.5 43 -78.5s64.667 -28.5 108 -28.5c27.333 0 55.333 4.16699 84 12.5
s50.334 17.5 65.001 27.5l13 -36c-14.667 -11.333 -37.834 -21.5 -69.501 -30.5s-64.167 -13.5 -97.5 -13.5c-52.667 0 -98.167 11.833 -136.5 35.5s-57.5 60.167 -57.5 109.5c0 30.667 11.5 57.5 34.5 80.5s54.167 37.167 93.5 42.5z" />
    <glyph glyph-name="etatonos" unicode="&#x3ae;" horiz-adv-x="536" 
d="M309 678h61l-85 -138h-34zM125 393l2.00195 0.00195312c13.333 28.667 34.833 52.167 64.5 70.5s63.167 27.5 100.5 27.5c11.333 0 23.166 -1.16699 35.499 -3.5s26.833 -7.83301 43.5 -16.5s31.167 -19.834 43.5 -33.501s23 -33.5 32 -59.5s13.5 -56 13.5 -90v-301
c0 -92.667 3.66699 -154.334 11 -185.001h-46c-8.66699 29.333 -13 89 -13 179v303c0 48.667 -10.667 88.5 -32 119.5s-55 46.5 -101 46.5c-32.667 0 -62.334 -10.5 -89.001 -31.5s-45 -47.167 -55 -78.5c-4 -16 -6 -30.333 -6 -43v-297h-48v365
c0 50.667 -4.33301 89 -13 115h44c8.66699 -19.333 13 -48.333 13 -87z" />
    <glyph glyph-name="iotatonos" unicode="&#x3af;" horiz-adv-x="209" 
d="M135 678h61l-85 -138h-34zM129 480l0.000976562 -384c0 -25.333 3.16699 -43 9.5 -53s19.166 -14.667 38.499 -14l-4 -37c-7.33301 -2 -15.333 -3 -24 -3c-45.333 0 -68 33.667 -68 101v390h48z" />
    <glyph glyph-name="upsilondieresistonos" unicode="&#x3b0;" horiz-adv-x="503" 
d="M371 480l45.998 -0.000976562c8.66699 -16.667 16.834 -43.167 24.501 -79.5s11.5 -72.833 11.5 -109.5c0 -30 -1.66699 -58.167 -5 -84.5s-9.66602 -53.166 -18.999 -80.499s-21.333 -50.833 -36 -70.5s-34.334 -35.667 -59.001 -48s-53 -18.5 -85 -18.5
c-51.333 0 -93.166 15.833 -125.499 47.5s-48.5 77.834 -48.5 138.501v142c0 88.667 -3.33301 143 -10 163h45c8.66699 -11.333 13 -40.333 13 -87v-205c0 -54 13 -93.667 39 -119s56.333 -38 91 -38c48.667 0 86.167 21.667 112.5 65s39.5 105.666 39.5 186.999
c0 42 -3.83301 81.667 -11.5 119s-15.167 63.333 -22.5 78zM243.998 681.999h52l-45 -146h-28zM146.998 564.999c-10 0 -18.334 3.66699 -25.001 11s-10 16 -10 26s3.5 18.667 10.5 26s15.833 11 26.5 11c9.33301 0 17.333 -3.66699 24 -11s10 -16 10 -26
c0 -10.667 -3.16699 -19.5 -9.5 -26.5s-15.166 -10.5 -26.499 -10.5zM355.997 564.999c-10 0 -18.167 3.66699 -24.5 11s-9.5 16 -9.5 26s3.5 18.667 10.5 26s15.5 11 25.5 11s18.333 -3.66699 25 -11s10 -16 10 -26c0 -10.667 -3.33301 -19.5 -10 -26.5
s-15.667 -10.5 -27 -10.5z" />
    <glyph glyph-name="alpha" unicode="&#x3b1;" horiz-adv-x="532" 
d="M423 480l38.999 0.000976562c-8 -70 -12 -190.333 -12 -361c0 -30.667 3.66699 -53.334 11 -68.001s20.333 -22.334 39 -23.001l-6 -38c-4 -0.666992 -9.66699 -1 -17 -1c-19.333 0 -35.5 8.83301 -48.5 26.5s-19.5 45.5 -19.5 83.5h-3
c-38.667 -73.333 -95.667 -110 -171 -110c-58 0 -104.833 22.167 -140.5 66.5s-53.5 102.833 -53.5 175.5c0 75.333 20.833 137.5 62.5 186.5s91.5 73.5 149.5 73.5c38 0 70.833 -9.66699 98.5 -29s47.834 -46 60.501 -80h4c0.666992 30.667 3 63.334 7 98.001z
M88.999 229.001c0 -54.667 13.8301 -101.667 41.4971 -141s65.834 -59 114.501 -59c34.667 0 66.667 14 96 42s49 61 59 99c4 17.333 6 44 6 80c0 26.667 -1.33301 46.667 -4 60c-7.33301 37.333 -24.666 70.166 -51.999 98.499s-59.666 42.5 -96.999 42.5
c-48 0 -87.333 -20.667 -118 -62s-46 -94.666 -46 -159.999z" />
    <glyph glyph-name="beta" unicode="&#x3b2;" horiz-adv-x="543" 
d="M129 61h-2v-74c0 -92.667 3.66699 -154.334 11 -185.001h-46c-8.66699 29.333 -13 86 -13 170v473c0 104 24.333 179.667 73 227c34 32.667 76.667 49 128 49c43.333 0 81 -15.5 113 -46.5s48 -71.5 48 -121.5c0 -40.667 -9.5 -74.667 -28.5 -102
s-41.167 -46.666 -66.5 -57.999v-4c44.667 -8 81.834 -28.5 111.501 -61.5s44.5 -77.833 44.5 -134.5c0 -64 -20.667 -114 -62 -150s-89.333 -54 -144 -54c-68.667 0 -124.334 24 -167.001 72zM127 444l0.00195312 -318c13.333 -24.667 34.666 -47 63.999 -67
s63.333 -30 102 -30c45.333 0 83.5 15.167 114.5 45.5s46.5 68.833 46.5 115.5c0 54 -17 95.667 -51 125s-78.667 44.666 -134 45.999h-30v40h18c43.333 2 76.833 17 100.5 45s35.5 61.333 35.5 100c0 40.667 -11.333 73.334 -34 98.001s-51.334 37 -86.001 37
c-48 0 -84.333 -20.5 -109 -61.5s-37 -99.5 -37 -175.5z" />
    <glyph glyph-name="gamma" unicode="&#x3b3;" horiz-adv-x="434" 
d="M238 -198l-48.999 -0.000976562c2.66699 40 3.16699 87.167 1.5 141.5s-7.83398 102.833 -18.501 145.5c-17.333 71.333 -43.5 144.333 -78.5 219s-66.5 132 -94.5 172h56c28 -42 58.833 -101.667 92.5 -179s58.167 -151.666 73.5 -222.999h3c92.667 156 139 281 139 375
v27h45c1.33301 -4.66699 2 -14.667 2 -30c0 -105.333 -56.667 -245.333 -170 -420c-3.33301 -4.66699 -5 -12.667 -5 -24c2 -44 3 -112 3 -204z" />
    <glyph glyph-name="delta" unicode="&#x3b4;" horiz-adv-x="528" 
d="M445 674l-18.002 -36.998c-14.667 10.667 -34.667 20.667 -60 30s-50.666 14 -75.999 14c-31.333 0 -55.666 -5.5 -72.999 -16.5s-26 -24.5 -26 -40.5c0 -10.667 4 -21.334 12 -32.001s16 -19.334 24 -26.001s23.333 -18.667 46 -36l81 -65
c44 -32.667 77 -67.334 99 -104.001s33 -79 33 -127c0 -72.667 -21.167 -131.667 -63.5 -177s-94.833 -68 -157.5 -68c-62 0 -115 21.667 -159 65s-66 103.333 -66 180c0 58.667 17.833 110.334 53.5 155.001s83.167 81 142.5 109v4l-25 18c-44 36.667 -66 70 -66 100
c0 26.667 13 50.167 39 70.5s63.333 30.5 112 30.5c29.333 0 57.5 -4.66699 84.5 -14s48.167 -20.333 63.5 -33zM326.998 431.002l-58 43.999c-120 -60 -180 -141 -180 -243c0 -64 18.167 -113.833 54.5 -149.5s77.833 -53.5 124.5 -53.5c48 0 88.5 18.167 121.5 54.5
s49.5 85.5 49.5 147.5c0 76.667 -37.333 143.334 -112 200.001z" />
    <glyph glyph-name="epsilon" unicode="&#x3b5;" horiz-adv-x="422" 
d="M170 257l-0.000976562 4.00098c-33.333 6 -58.666 18.333 -75.999 37s-26 40.667 -26 66c0 33.333 16 62.833 48 88.5s76 38.5 132 38.5c60 0 105.667 -12 137 -36l-14 -36c-10 8 -27.333 15.5 -52 22.5s-49 10.5 -73 10.5c-38.667 0 -70 -8 -94 -24s-36 -37.333 -36 -64
c0 -28.667 14 -50.167 42 -64.5s63 -21.5 105 -21.5h66v-39h-69c-51.333 0 -92.5 -8.66699 -123.5 -26s-46.5 -43 -46.5 -77c0 -33.333 14.333 -59.5 43 -78.5s64.667 -28.5 108 -28.5c27.333 0 55.333 4.16699 84 12.5s50.334 17.5 65.001 27.5l13 -36
c-14.667 -11.333 -37.834 -21.5 -69.501 -30.5s-64.167 -13.5 -97.5 -13.5c-52.667 0 -98.167 11.833 -136.5 35.5s-57.5 60.167 -57.5 109.5c0 30 11.667 56.667 35 80s54.333 37.666 93 42.999z" />
    <glyph glyph-name="zeta" unicode="&#x3b6;" horiz-adv-x="389" 
d="M328 -138l-34 10.001c7.33301 11.333 15 30.166 23 56.499s12.333 46.5 13 60.5c-47.333 6 -87.666 14.667 -120.999 26c-111.333 32 -167 106.333 -167 223c0 74.667 24.167 151.667 72.5 231s114.166 145 197.499 197v3h-86c-57.333 0 -97.333 3 -120 9l6 35
c21.333 -2.66699 58.666 -4 111.999 -4h156l8 -38c-88 -47.333 -159.833 -111 -215.5 -191s-83.5 -158 -83.5 -234c0 -58.667 12.667 -102.334 38 -131.001s62.333 -50.334 111 -65.001c32.667 -10 77.334 -18.333 134.001 -25c6 -1.33301 9 -4.66602 9 -9.99902
c0 -24 -5.83301 -51.667 -17.5 -83s-23.5 -54.666 -35.5 -69.999z" />
    <glyph glyph-name="eta" unicode="&#x3b7;" horiz-adv-x="536" 
d="M125 393l2.00195 0.00195312c13.333 28.667 34.833 52.167 64.5 70.5s63.167 27.5 100.5 27.5c11.333 0 23.166 -1.16699 35.499 -3.5s26.833 -7.83301 43.5 -16.5s31.167 -19.834 43.5 -33.501s23 -33.5 32 -59.5s13.5 -56 13.5 -90v-301
c0 -92.667 3.66699 -154.334 11 -185.001h-46c-8.66699 29.333 -13 89 -13 179v303c0 48.667 -10.667 88.5 -32 119.5s-55 46.5 -101 46.5c-32.667 0 -62.334 -10.5 -89.001 -31.5s-45 -47.167 -55 -78.5c-4 -16 -6 -30.333 -6 -43v-297h-48v365
c0 50.667 -4.33301 89 -13 115h44c8.66699 -19.333 13 -48.333 13 -87z" />
    <glyph glyph-name="theta" unicode="&#x3b8;" horiz-adv-x="513" 
d="M259 -11c-68 0 -121.332 31.5 -159.999 94.5s-58 155.167 -58 276.5c0 105.333 19.5 191.833 58.5 259.5s92.5 101.5 160.5 101.5c70.667 0 123.667 -32.167 159 -96.5s53 -152.5 53 -264.5c0 -116 -17.833 -206.833 -53.5 -272.5s-88.834 -98.5 -159.501 -98.5z
M89.001 388h335c0 84.667 -14.333 154.667 -43 210s-70.667 83 -126 83c-49.333 0 -89.333 -29.167 -120 -87.5s-46 -126.833 -46 -205.5zM424.001 349h-335c0 -100.667 16 -179.167 48 -235.5s73.333 -84.5 124 -84.5c52.667 0 93 29.167 121 87.5s42 135.833 42 232.5z
" />
    <glyph glyph-name="iota" unicode="&#x3b9;" horiz-adv-x="209" 
d="M129 480l0.000976562 -384c0 -25.333 3.16699 -43 9.5 -53s19.166 -14.667 38.499 -14l-4 -37c-7.33301 -2 -15.333 -3 -24 -3c-45.333 0 -68 33.667 -68 101v390h48z" />
    <glyph glyph-name="kappa" unicode="&#x3ba;" horiz-adv-x="460" 
d="M192 259l-0.000976562 -2c36.667 -8 92.334 -55.667 167.001 -143l94 -114h-57l-89 106c-70 79.333 -126 119 -168 119h-10v-225h-48v388c0 44 -3.33301 74.667 -10 92h45c8.66699 -10.667 13 -36.667 13 -78v-143h5l134.5 118.5c55 49 94.167 83.167 117.5 102.5h59v-3z
" />
    <glyph glyph-name="lambda" unicode="&#x3bb;" horiz-adv-x="444" 
d="M372 0l-116.001 310.001c-16.667 46.667 -28.667 82.334 -36 107.001h-3c-0.666992 -2.66699 -12.667 -37 -36 -103l-121 -314h-50l176 447c4 8 6 15.333 6 22c0 8 -1.66699 16.667 -5 26c-12 31.333 -21.667 55.666 -29 72.999s-17 36 -29 56s-24.833 34.5 -38.5 43.5
s-28.834 13.5 -45.501 13.5c-5.33301 0 -10 -0.333008 -14 -1l6 38c6.66699 2 14.334 3 23.001 3c38.667 0 69.834 -17.333 93.501 -52s51.5 -94.334 83.5 -179.001l186 -490h-51z" />
    <glyph glyph-name="uni03BC" unicode="&#x3bc;" horiz-adv-x="534" 
d="M409 80l-2 -0.00195312c-14 -24 -33.833 -45 -59.5 -63s-55.834 -27 -90.501 -27c-64 0 -107 22.667 -129 68v-70c0 -93.333 3.66699 -155.333 11 -186h-44c-10 30.667 -15 90.667 -15 180v498h48v-294c0 -44.667 10.5 -81.667 31.5 -111s53.833 -44 98.5 -44
c32.667 0 61.167 9.33301 85.5 28s42.166 41.667 53.499 69c6 18 9 35.667 9 53v299h48v-363c0 -31.333 3.33301 -53.666 10 -66.999s19.334 -20.666 38.001 -21.999l-6 -38c-6 -0.666992 -11 -1 -15 -1c-19.333 0 -35.666 7.16699 -48.999 21.5s-21 37.5 -23 69.5z" />
    <glyph glyph-name="nu" unicode="&#x3bd;" horiz-adv-x="443" 
d="M7 480l49.998 0.000976562l110 -298c6.66699 -16.667 15.334 -39.834 26.001 -69.501l22 -60.5h3c0.666992 0.666992 6.66699 11.334 18 32.001l23.5 43.5l24 46c11.667 22.333 20.334 40.166 26.001 53.499l22 52.5c9 21.667 15.667 40.167 20 55.5
s8.33301 31.833 12 49.5s5.5 33.5 5.5 47.5c0 22.667 -0.333008 38.667 -1 48h44c2.66699 -12 4 -23.333 4 -34c0 -32 -4.83301 -66 -14.5 -102s-25.5 -76.333 -47.5 -121s-40.333 -80.167 -55 -106.5l-67 -116.5h-44z" />
    <glyph glyph-name="xi" unicode="&#x3be;" horiz-adv-x="409" 
d="M340 435l-0.000976562 -40.0049h-27c-72.667 -0.666992 -128 -17.5 -166 -50.5s-57 -73.833 -57 -122.5c0 -86 55.667 -143.667 167 -173c39.333 -10 85 -18 137 -24c5.33301 0 8 -3.33301 8 -10c0 -22.667 -5.66699 -50.167 -17 -82.5s-22.666 -55.833 -33.999 -70.5
l-35 10c7.33301 11.333 15.166 30.333 23.499 57s12.833 46.667 13.5 60c-33.333 4.66699 -62.5 9.83398 -87.5 15.501s-52.333 14.334 -82 26.001s-54.167 25.167 -73.5 40.5s-35.5 35.833 -48.5 61.5s-19.5 54.834 -19.5 87.501c0 46.667 15.333 87.667 46 123
s68.334 59 113.001 71v4c-76.667 22.667 -115 69.667 -115 141c0 42 17 79.5 51 112.5s81.667 49.5 143 49.5c49.333 0 87 -9 113 -27l-15 -37c-26 16.667 -60.667 25 -104 25c-44.667 0 -79.167 -12.167 -103.5 -36.5s-36.5 -53.166 -36.5 -86.499
c0 -37.333 14.333 -67.166 43 -89.499s64 -33.833 106 -34.5h57z" />
    <glyph glyph-name="omicron" unicode="&#x3bf;" horiz-adv-x="532" 
d="M261 -11c-63.333 0 -115.833 22.665 -157.5 67.998s-62.5 105 -62.5 179c0 78.667 22.167 140.834 66.5 186.501s97.833 68.5 160.5 68.5c66.667 0 120.5 -22.667 161.5 -68s61.5 -104.666 61.5 -177.999c0 -82.667 -23.167 -146 -69.5 -190s-99.833 -66 -160.5 -66z
M264 28.998c50.667 0 93.167 20.1709 127.5 60.5039s51.5 91.166 51.5 152.499c0 23.333 -3.33301 46.666 -10 69.999s-16.667 45.666 -30 66.999s-31.833 38.666 -55.5 51.999s-50.5 20 -80.5 20c-57.333 0 -101.333 -21 -132 -63s-46 -91.667 -46 -149
c0 -60 16.833 -110 50.5 -150s75.167 -60 124.5 -60z" />
    <glyph glyph-name="pi" unicode="&#x3c0;" horiz-adv-x="527" 
d="M490 440h-71.001v-302c0 -62.667 4.66699 -108.667 14 -138h-47c-10 20 -15 63.667 -15 131v309h-191c-3.33301 -72.667 -12.5 -154.5 -27.5 -245.5s-31.167 -155.833 -48.5 -194.5h-45c19.333 44.667 36 110.167 50 196.5s22.667 167.5 26 243.5
c-44.667 0 -79.667 -3 -105 -9l-9 29c26.667 13.333 65.334 20 116.001 20h360z" />
    <glyph glyph-name="rho" unicode="&#x3c1;" horiz-adv-x="546" 
d="M125 74l-2.99902 -0.00195312v-87c0 -91.333 2.66699 -153 8 -185h-45c-7.33301 28 -11 87.667 -11 179v225c0 90.667 18.667 159.334 56 206.001c41.333 52.667 96.666 79 165.999 79c64 0 114.833 -22.167 152.5 -66.5s56.5 -102.166 56.5 -173.499
c0 -82 -21 -146.167 -63 -192.5s-93.667 -69.5 -155 -69.5c-34 0 -65.5 7.5 -94.5 22.5s-51.5 35.833 -67.5 62.5zM122.001 229.998l0.000976562 -43c0 -14.667 1.33301 -27.667 4 -39c10 -35.333 29.5 -64 58.5 -86s61.833 -33 98.5 -33c54 0 96.5 20.5 127.5 61.5
s46.5 93.5 46.5 157.5c0 56.667 -14.833 104.667 -44.5 144s-70.5 59 -122.5 59c-44.667 0 -83.834 -18.5 -117.501 -55.5s-50.5 -92.167 -50.5 -165.5z" />
    </font>
</defs>
</svg>
