<?xml version="1.0" standalone="no"?>
<!DOCTYPE svg PUBLIC "-//W3C//DTD SVG 1.1//EN" "http://www.w3.org/Graphics/SVG/1.1/DTD/svg11.dtd" >
<svg>
<metadata>
Created by FontForge 20090914 at Wed Jan 29 11:22:45 2014
 By www-data
Copyright &#194;&#169; 2000, 2002 Adobe Systems Incorporated. All Rights Reserved. U.S. Patent Des. pending.
</metadata>
<defs>
<font id="MyriadPro-LightSemiCn" horiz-adv-x="300" >
  <font-face 
    font-family="Myriad Pro Light SemiCond"
    font-weight="300"
    font-stretch="semi-condensed"
    units-per-em="1000"
    panose-1="2 11 4 3 3 4 3 2 2 4"
    ascent="750"
    descent="-250"
    x-height="480"
    cap-height="674"
    bbox="-125 -250 995.996 874.003"
    underline-thickness="50"
    underline-position="-50"
    unicode-range="U+0020-U+FB04"
  />
<missing-glyph horiz-adv-x="500" 
d="M0 0v700h500v-700h-500zM250 395l170 255h-340zM280 350l170 -255v510zM80 50h340l-170 255zM50 605v-510l170 255z" />
    <glyph glyph-name="f_f_j" unicode="ffj" horiz-adv-x="707" 
d="M614 684l-19.999 -35.998c-24.667 18 -54.667 27 -90 27c-80 0 -120 -55.667 -120 -167v-28h251v-448c0 -46.667 -3.33301 -84.334 -10 -113.001s-19 -53.334 -37 -74.001c-14.667 -16 -33.167 -28.333 -55.5 -37s-41.833 -13.334 -58.5 -14.001l-8 38
c42.667 4.66699 73 18.334 91 41.001c12 16 20.333 36.833 25 62.5s7 67.167 7 124.5v382h-205v-442h-46v442h-212v-442h-46v442h-66v38h66v23c0 68.667 16.667 121 50 157c27.333 29.333 63 44 107 44c26 0 52 -7.33301 78 -22l-18 -37c-20 12.667 -41.667 19 -65 19
c-30.667 0 -54.334 -10.333 -71.001 -31c-23.333 -28 -35 -72 -35 -132v-21h212v32c0 61.333 14.5 110.5 43.5 147.5s72.5 55.5 130.5 55.5c43.333 0 77.333 -10.333 102 -31z" />
    <glyph glyph-name="f_j" unicode="fj" horiz-adv-x="449" 
d="M126 0l-46 0.00195312v442h-66v38h66v32c0 61.333 14.5 110.5 43.5 147.5s72.5 55.5 130.5 55.5c42.667 0 76.334 -10.333 101.001 -31l-20 -36c-24.667 18 -54.334 27 -89.001 27c-80 0 -120 -55.667 -120 -167v-28h250v-448c0 -46.667 -3.33301 -84.334 -10 -113.001
s-19 -53.334 -37 -74.001c-14.667 -16 -33.167 -28.333 -55.5 -37s-41.833 -13.334 -58.5 -14.001l-7 38c41.333 4.66699 71.333 18.334 90 41.001c12 16 20.333 36.833 25 62.5s7 67.167 7 124.5v382h-204v-442z" />
    <glyph glyph-name="ff" unicode="ff" horiz-adv-x="500" 
d="M384 0l-46 0.000976562v442h-212v-442h-46v442h-66v38h66v23c0 74.667 16.667 129 50 163c23.333 25.333 56 38 98 38c24 0 45.333 -5.66699 64 -17l-15 -37c-14 9.33301 -32 14 -54 14c-35.333 0 -60.333 -13.667 -75 -41s-22 -66.333 -22 -117v-26h212v29
c0 75.333 16 130.333 48 165c26.667 27.333 60 41 100 41c27.333 0 49 -5 65 -15l-14 -37c-16 8 -34.333 12 -55 12c-37.333 0 -63 -14.833 -77 -44.5s-21 -69.834 -21 -120.501v-30h117v-38h-117v-442z" />
    <glyph glyph-name="fi" unicode="fi" horiz-adv-x="451" 
d="M126 0h-46v442h-66v38h66v32c0 61.333 14.5 110.5 43.5 147.5s72.5 55.5 130.5 55.5c42.667 0 76.334 -10.333 101.001 -31l-20 -36c-24.667 18 -54.334 27 -89.001 27c-80 0 -120 -55.667 -120 -167v-28h250v-480h-46v442h-204v-442z" />
    <glyph glyph-name="fl" unicode="fl" horiz-adv-x="451" 
d="M126 0h-46v442h-66v38h66v24c0 74 20 130 60 168c32 28.667 74.333 43 127 43c42 0 78.667 -8.66699 110 -26v-689h-46v661c-20 9.33301 -45 14 -75 14c-86.667 0 -130 -55 -130 -165v-30h117v-38h-117v-442z" />
    <glyph glyph-name="ffi" unicode="ffi" horiz-adv-x="709" 
d="M614 684l-19.999 -36c-24.667 18 -54.667 27 -90 27c-80 0 -120 -55.667 -120 -167v-28h251v-480h-46v442h-205v-442h-46v442h-212v-442h-46v442h-66v38h66v23c0 68.667 16.667 121 50 157c27.333 29.333 63 44 107 44c26 0 52 -7.33301 78 -22l-18 -37
c-20 12.667 -41.667 19 -65 19c-30.667 0 -54.334 -10.333 -71.001 -31c-23.333 -28 -35 -72 -35 -132v-21h212v32c0 61.333 14.5 110.5 43.5 147.5s72.5 55.5 130.5 55.5c43.333 0 77.333 -10.333 102 -31z" />
    <glyph glyph-name="ffl" unicode="ffl" horiz-adv-x="709" 
d="M314 684l-17 -36.998c-20.667 11.333 -42 17 -64 17c-30.667 0 -54.667 -10.333 -72 -31c-23.333 -26.667 -35 -70.334 -35 -131.001v-22h212v24c0 74 20 130 60 168c32 28.667 74.333 43 127 43c42 0 78.667 -8.66699 110 -26v-689h-46v661c-20 9.33301 -45 14 -75 14
c-86.667 0 -130 -55 -130 -165v-30h117v-38h-117v-442h-46v442h-212v-442h-46v442h-66v38h66v17c0 73.333 16.333 127.666 49 162.999c27.333 29.333 63.333 44 108 44c30 0 55.667 -6.66699 77 -20z" />
    <glyph glyph-name=".notdef" horiz-adv-x="500" 
d="M0 0v700h500v-700h-500zM250 395l170 255h-340zM280 350l170 -255v510zM80 50h340l-170 255zM50 605v-510l170 255z" />
    <glyph glyph-name="space" unicode=" " horiz-adv-x="200" 
 />
    <glyph glyph-name="exclam" unicode="!" horiz-adv-x="200" 
d="M119 174h-39l-8 500h55zM100 -10h-1c-10.667 0 -19.5 4 -26.5 12s-10.5 18 -10.5 30c0 12.667 3.5 23 10.5 31s16.167 12 27.5 12c12 0 21.333 -4 28 -12s10 -18.333 10 -31c0 -12 -3.5 -22 -10.5 -30s-16.167 -12 -27.5 -12z" />
    <glyph glyph-name="quotedbl" unicode="&#x22;" horiz-adv-x="299" 
d="M60 689h56l-12 -220h-32zM184 689h56l-12 -220h-32z" />
    <glyph glyph-name="numbersign" unicode="#" horiz-adv-x="433" 
d="M156 244h102l21 168h-103zM125 0h-41l26 205h-76v39h81l22 168h-81v38h86l26 200h39l-26 -200h103l26 200h40l-26 -200h76v-38h-81l-21 -168h82v-38h-87l-26 -206h-40l26 206h-102z" />
    <glyph glyph-name="dollar" unicode="$" horiz-adv-x="449" 
d="M238 -84l-40 -0.000976562v102c-53.333 0 -97.666 14.333 -132.999 43l20 36c34.667 -27.333 74.667 -41 120 -41c37.333 0 67.333 11.5 90 34.5s34 51.833 34 86.5c0 32 -9 59 -27 81s-45.333 42 -82 60c-48 22 -84.5 45.5 -109.5 70.5s-37.5 56.833 -37.5 95.5
c0 39.333 12.333 72.833 37 100.5s55.667 44.167 93 49.5v101h40v-99c43.333 -0.666992 80.666 -12 111.999 -34l-20 -36c-32 21.333 -67.667 32 -107 32c-35.333 0 -62.5 -10.667 -81.5 -32s-28.5 -45.666 -28.5 -72.999c0 -31.333 8.83301 -56 26.5 -74
s48.5 -37.667 92.5 -59c46 -22 80.333 -47 103 -75s34 -62.333 34 -103c0 -41.333 -12.167 -77 -36.5 -107s-57.5 -48.333 -99.5 -55v-104z" />
    <glyph glyph-name="percent" unicode="%" horiz-adv-x="707" 
d="M168 660l1 0.000976562c38 0 69 -16.5 93 -49.5s36 -81.5 36 -145.5c0 -65.333 -12.667 -115 -38 -149s-57.333 -51 -96 -51c-36 0 -66.5 16.5 -91.5 49.5s-37.833 81.167 -38.5 144.5c0 65.333 13.167 115.166 39.5 149.499s57.833 51.5 94.5 51.5zM166 626.001
h-1.00195c-28 0 -49.833 -16.333 -65.5 -49s-23.5 -71 -23.5 -115c-1.33301 -44 6 -82.167 22 -114.5s38.667 -48.5 68 -48.5c30.667 0 53.334 15.833 68.001 47.5s22 70.5 22 116.5c0 45.333 -7.16699 83.833 -21.5 115.5s-37.166 47.5 -68.499 47.5zM184.998 -13.999h-39
l374 677h39zM542.998 389.001l1 -0.000976562c38 0 69 -16.5 93 -49.5s36 -81.167 36 -144.5c0 -65.333 -12.667 -115.166 -38 -149.499s-57.333 -51.5 -96 -51.5c-36 0 -66.5 16.5 -91.5 49.5s-37.833 81.5 -38.5 145.5c0 64.667 13.167 114.167 39.5 148.5
s57.833 51.5 94.5 51.5zM540.998 355l-1.00195 0.000976562c-28 0 -49.833 -16.167 -65.5 -48.5s-23.5 -70.5 -23.5 -114.5c-1.33301 -44 6.16699 -82.333 22.5 -115s38.833 -49 67.5 -49c30.667 0 53.334 16 68.001 48s22 71 22 117
c0 45.333 -7.16699 83.666 -21.5 114.999s-37.166 47 -68.499 47z" />
    <glyph glyph-name="ampersand" unicode="&#x26;" horiz-adv-x="532" 
d="M525 0l-58.001 0.000976562c-6.66699 8 -17.334 20 -32.001 36l-36 40c-53.333 -57.333 -115.666 -86 -186.999 -86c-53.333 0 -96.5 18.167 -129.5 54.5s-49.5 80.5 -49.5 132.5c0 79.333 41 145.666 123 198.999v3c-37.333 54 -56 103.667 -56 149
c0 42 12.833 78.5 38.5 109.5s60.5 46.5 104.5 46.5c34 0 62.5 -11.833 85.5 -35.5s34.5 -56.167 34.5 -97.5c0 -36 -11.333 -68.333 -34 -97s-59.667 -57 -111 -85v-3l91 -112.5l91 -112.5c28.667 49.333 49.334 121.666 62.001 216.999h45
c-16 -110.667 -43.333 -192.667 -82 -246c28.667 -29.333 62 -66.666 100 -111.999zM220.999 29.001h1c61.333 0 112 25.667 152 77l-93 113l-104 127c-65.333 -44.667 -98 -99.334 -98 -164.001c0 -43.333 13.167 -79.666 39.5 -108.999s60.5 -44 102.5 -44z
M234.999 646.001l-1.00098 0.000976562c-28 0 -49.833 -10.833 -65.5 -32.5s-23.5 -48.5 -23.5 -80.5c0 -42.667 17 -88.334 51 -137.001c40.667 24 71.334 47.667 92.001 71s31 50.333 31 81c0 26.667 -7 49.667 -21 69s-35 29 -63 29z" />
    <glyph glyph-name="quotesingle" unicode="'" horiz-adv-x="175" 
d="M60 689h56l-12 -220h-32z" />
    <glyph glyph-name="parenleft" unicode="(" horiz-adv-x="260" 
d="M201 695l43 -0.000976562c-86 -112.667 -129 -249.667 -129 -411c0 -152.667 43 -288 129 -406h-43c-87.333 113.333 -131 249 -131 407c0 158.667 43.667 295.334 131 410.001z" />
    <glyph glyph-name="parenright" unicode=")" horiz-adv-x="260" 
d="M60 -122l-43 0.000976562c86 115.333 129 251.666 129 408.999c0 156 -43 292 -129 408h43c87.333 -112 131 -248 131 -408c0 -158 -43.667 -294.333 -131 -409z" />
    <glyph glyph-name="asterisk" unicode="*" horiz-adv-x="383" 
d="M254 684l42 -23l-85 -122v-2l142 12v-46l-141 12v-3l85 -117l-43 -25l-63 129h-2l-67 -131l-38 25l84 120v3l-138 -13v46l137 -11v2l-82 119l40 23l65 -127h2z" />
    <glyph glyph-name="plus" unicode="+" horiz-adv-x="596" 
d="M277 532h42v-245h237v-39h-237v-248h-42v248h-237v39h237v245z" />
    <glyph glyph-name="comma" unicode="," horiz-adv-x="173" 
d="M61 -121l-37 -5.00098c8 21.333 17.5 54.333 28.5 99s18.833 82.334 23.5 113.001l62 10c-8.66699 -35.333 -21.5 -76.5 -38.5 -123.5s-29.833 -78.167 -38.5 -93.5z" />
    <glyph glyph-name="hyphen" unicode="-" horiz-adv-x="296" 
d="M30 289h236v-41h-236v41z" />
    <glyph glyph-name="period" unicode="." horiz-adv-x="173" 
d="M92 -10h-0.999023c-10.667 0 -19.667 4.16699 -27 12.5s-11 18.5 -11 30.5c0 12.667 3.66699 23.167 11 31.5s16.666 12.5 27.999 12.5c12 0 21.5 -4.16699 28.5 -12.5s10.5 -18.833 10.5 -31.5c0 -12 -3.5 -22.167 -10.5 -30.5s-16.5 -12.5 -28.5 -12.5z" />
    <glyph glyph-name="slash" unicode="/" horiz-adv-x="330" 
d="M45 -40h-45l284 724h46z" />
    <glyph glyph-name="zero" unicode="0" horiz-adv-x="449" 
d="M218 -10l-1 -0.000976562c-50.667 0 -93.5 27.833 -128.5 83.5s-52.833 138.834 -53.5 249.501c0 112 18.667 196.167 56 252.5s84.333 84.5 141 84.5c54 0 97.833 -27.5 131.5 -82.5s50.5 -137.167 50.5 -246.5c0 -114 -17.5 -199.333 -52.5 -256
s-82.833 -85 -143.5 -85zM223 28.999h0.999023c47.333 0 82.833 27.167 106.5 81.5s35.5 126.833 35.5 217.5c0 88.667 -11.667 159.667 -35 213s-59 80 -107 80c-43.333 0 -77.666 -27.333 -102.999 -82s-38 -125 -38 -211c-1.33301 -88.667 10.667 -160.667 36 -216
s60 -83 104 -83z" />
    <glyph glyph-name="one" unicode="1" horiz-adv-x="449" 
d="M223 0v601h-2l-106 -63l-12 36l125 76h40v-650h-45z" />
    <glyph glyph-name="two" unicode="2" horiz-adv-x="449" 
d="M399 0l-356 0.000976562v29l56 64c83.333 87.333 143.5 159 180.5 215s55.5 112 55.5 168c0 42.667 -10.167 77.167 -30.5 103.5s-52.833 39.5 -97.5 39.5c-43.333 0 -84.666 -17 -123.999 -51l-19 33c43.333 39.333 94 59 152 59c55.333 0 96.833 -17.5 124.5 -52.5
s41.5 -76.5 41.5 -124.5c0 -58 -18.333 -115.833 -55 -173.5s-94.334 -128.834 -173.001 -213.501l-46 -54v-2h291v-40z" />
    <glyph glyph-name="three" unicode="3" horiz-adv-x="449" 
d="M40 30l18.0039 37.002c36 -24.667 78 -37 126 -37c52.667 0 91.167 15 115.5 45s36.166 65.333 35.499 106c-0.666992 49.333 -17.5 87.166 -50.5 113.499s-74.167 39.5 -123.5 39.5h-35v38h35c36.667 0 71 11.667 103 35s48 55.666 48 96.999
c0 34.667 -9.66699 62.667 -29 84s-48 32 -86 32c-40.667 0 -78.334 -14 -113.001 -42l-18 35c38 31.333 83.667 47 137 47c51.333 0 90.333 -14.333 117 -43s40 -64 40 -106c0 -34 -9.83301 -64.667 -29.5 -92s-48.167 -48.333 -85.5 -63v-2
c39.333 -8 72.166 -26.833 98.499 -56.5s39.5 -68.167 39.5 -115.5c0 -54 -17.833 -99.5 -53.5 -136.5s-85.834 -55.5 -150.501 -55.5c-56.667 0 -103 13.333 -139 40z" />
    <glyph glyph-name="four" unicode="4" horiz-adv-x="449" 
d="M339 0h-45v192h-281v31l285 427h41v-419h92v-39h-92v-192zM68 231h226.001v249c0 38.667 1.33301 73.667 4 105h-4c-12.667 -25.333 -30.334 -58 -53.001 -98l-173 -254v-2z" />
    <glyph glyph-name="five" unicode="5" horiz-adv-x="449" 
d="M378 650l-0.000976562 -41h-223l-33 -209c17.333 2.66699 34 4 50 4c46 0 86.667 -11.333 122 -34c25.333 -15.333 46 -37 62 -65s24 -60.667 24 -98c0 -64 -19.833 -116.167 -59.5 -156.5s-88.5 -60.5 -146.5 -60.5c-56 0 -101.667 12.667 -137 38l18 37
c36 -23.333 76.333 -35 121 -35s82.334 15.667 113.001 47s45.667 72.333 45 123c0 50.667 -15 90.667 -45 120s-74 44 -132 44c-28.667 0 -55.667 -2 -81 -6l43 292h259z" />
    <glyph glyph-name="six" unicode="6" horiz-adv-x="449" 
d="M362 660l1.00098 -43.001c-22 0 -42.667 -2 -62 -6c-64 -14 -114.5 -47 -151.5 -99s-59.167 -111 -66.5 -177h2c35.333 56 86.333 84 153 84c53.333 0 96.166 -19 128.499 -57s48.5 -87.667 48.5 -149c0 -62 -16.5 -114.667 -49.5 -158s-78.167 -65 -135.5 -65
c-58 0 -105 24.333 -141 73s-54 114.334 -54 197.001c0 120.667 32 218 96 292c44 52.667 102 86.334 174 101.001c18 3.33301 37 5.66602 57 6.99902zM232.001 29.999l1.00098 0.000976562c38.667 0 70.667 15.5 96 46.5s38 74.833 38 131.5c0 56 -12.833 98.5 -38.5 127.5
s-59.834 43.5 -102.501 43.5c-27.333 0 -53.333 -8.16699 -78 -24.5s-44 -38.5 -58 -66.5c-6 -14.667 -9 -26.334 -9 -35.001c0 -70 13.333 -124.667 40 -164s63.667 -59 111 -59z" />
    <glyph glyph-name="seven" unicode="7" horiz-adv-x="449" 
d="M55 650h351v-31l-268 -619h-46l266 608v2h-303v40z" />
    <glyph glyph-name="eight" unicode="8" horiz-adv-x="449" 
d="M231 660l1 -0.000976562c49.333 0 88 -15.167 116 -45.5s42 -66.166 42 -107.499c0 -68 -35.667 -120.667 -107 -158v-3c85.333 -40.667 128 -99 128 -175c0 -51.333 -18 -94.333 -54 -129s-80.333 -52 -133 -52c-55.333 0 -100.166 16.667 -134.499 50
s-51.5 73 -51.5 119c0 80.667 43 142.667 129 186v3c-34 16.667 -59.833 38.167 -77.5 64.5s-26.5 54.5 -26.5 84.5c0 48 16.167 87.167 48.5 117.5s72.166 45.5 119.499 45.5zM223 28.999l1.00098 0.000976562c42 0 75.833 12 101.5 36s38.5 57 38.5 99
c0 42.667 -12.333 76.334 -37 101.001s-62 46 -112 64c-40.667 -14.667 -72.334 -36.334 -95.001 -65.001s-34 -60.334 -34 -95.001c-1.33301 -40 10.5 -73.333 35.5 -100s58.833 -40 101.5 -40zM228.001 622h-0.999023c-36 0 -64.667 -11.167 -86 -33.5
s-32 -50.5 -32 -84.5c-0.666992 -36.667 10.166 -66 32.499 -88s53.833 -39.667 94.5 -53c71.333 32 107 78.333 107 139c0 34 -9.66699 62.5 -29 85.5s-48 34.5 -86 34.5z" />
    <glyph glyph-name="nine" unicode="9" horiz-adv-x="449" 
d="M89 -10l-0.000976562 42c16.667 -1.33301 37.667 0.666992 63 6c51.333 9.33301 94.333 33 129 71c47.333 52.667 76.333 122.334 87 209.001l-2 -1c-40.667 -51.333 -91.667 -77 -153 -77c-52.667 0 -94.167 18.667 -124.5 56s-45.5 83.666 -45.5 138.999
c0 62 17.667 115 53 159s81 66 137 66c55.333 0 99.5 -24 132.5 -72s49.5 -113 49.5 -195c0 -126 -33.333 -227 -100 -303c-42 -49.333 -92 -80 -150 -92c-27.333 -5.33301 -52.666 -8 -75.999 -8zM225.999 620l-0.999023 -0.000976562c-38.667 0 -71 -16.333 -97 -49
s-39 -77 -39 -133c0 -50 12.333 -88.833 37 -116.5s57 -41.5 97 -41.5c30 0 57.167 7.33301 81.5 22s43.166 34.334 56.499 59.001c5.33301 10.667 8 19.667 8 27c0 73.333 -12.333 130.333 -37 171s-60 61 -106 61z" />
    <glyph glyph-name="colon" unicode=":" horiz-adv-x="173" 
d="M92 367h-0.999023c-10.667 0 -19.667 4.16699 -27 12.5s-11 18.5 -11 30.5c0 12.667 3.66699 23.167 11 31.5s16.666 12.5 27.999 12.5c12 0 21.5 -4.16699 28.5 -12.5s10.5 -18.833 10.5 -31.5c0 -12 -3.5 -22.167 -10.5 -30.5s-16.5 -12.5 -28.5 -12.5zM92.001 -10
h-0.999023c-10.667 0 -19.667 4.16699 -27 12.5s-11 18.5 -11 30.5c0 12.667 3.66699 23.167 11 31.5s16.666 12.5 27.999 12.5c12 0 21.5 -4.16699 28.5 -12.5s10.5 -18.833 10.5 -31.5c0 -12 -3.5 -22.167 -10.5 -30.5s-16.5 -12.5 -28.5 -12.5z" />
    <glyph glyph-name="semicolon" unicode=";" horiz-adv-x="173" 
d="M61 -121l-37 -5.00098c8 21.333 17.5 54.333 28.5 99s18.833 82.334 23.5 113.001l62 10c-8.66699 -35.333 -21.5 -76.5 -38.5 -123.5s-29.833 -78.167 -38.5 -93.5zM102 366.999h-0.999023c-10.667 0 -19.667 4.16699 -27 12.5s-11 18.5 -11 30.5
c0 12.667 3.66699 23.167 11 31.5s16.666 12.5 27.999 12.5c12 0 21.5 -4.16699 28.5 -12.5s10.5 -18.833 10.5 -31.5c0 -12 -3.5 -22.167 -10.5 -30.5s-16.5 -12.5 -28.5 -12.5z" />
    <glyph glyph-name="less" unicode="&#x3c;" horiz-adv-x="596" 
d="M71 248v36l454 248v-46l-408 -219v-2l408 -219v-46z" />
    <glyph glyph-name="equal" unicode="=" horiz-adv-x="596" 
d="M556 346h-516v39h516v-39zM556 156h-516v39h516v-39z" />
    <glyph glyph-name="greater" unicode="&#x3e;" horiz-adv-x="596" 
d="M525 284v-36l-454 -248v46l408 219v2l-408 219v46z" />
    <glyph glyph-name="question" unicode="?" horiz-adv-x="355" 
d="M178 172l-42.999 0.00390625l-3 22c-10 63.333 8.33301 126.333 55 189c26.667 35.333 45.834 64.666 57.501 87.999s17.5 48 17.5 74c0 32 -9 56.5 -27 73.5s-43 25.5 -75 25.5c-38.667 0 -69.334 -9.33301 -92.001 -28l-16 35c12.667 10 30.167 18.333 52.5 25
s43.833 10 64.5 10c46 0 81.333 -13.333 106 -40s37 -59.334 37 -98.001c0 -30 -6.83301 -58.333 -20.5 -85s-34.834 -58.334 -63.501 -95.001c-22 -30.667 -37 -58.834 -45 -84.501s-10.333 -54.167 -7 -85.5zM154.001 -9.99609h-0.999023
c-10.667 0 -19.667 4.16699 -27 12.5s-11 18.5 -11 30.5c0 12.667 3.66699 23.167 11 31.5s16.666 12.5 27.999 12.5c12 0 21.5 -4.16699 28.5 -12.5s10.5 -18.833 10.5 -31.5c0 -12 -3.5 -22.167 -10.5 -30.5s-16.5 -12.5 -28.5 -12.5z" />
    <glyph glyph-name="at" unicode="@" horiz-adv-x="673" 
d="M420 250l28.001 134c-14.667 5.33301 -32 8 -52 8c-48.667 0 -90.334 -21.5 -125.001 -64.5s-52 -91.833 -52 -146.5c0 -24.667 5.83301 -44.167 17.5 -58.5s27.834 -21.5 48.501 -21.5c30 0 58.167 16 84.5 48s43.166 65.667 50.499 101zM466.001 -31l14.002 -32.001
c-46 -27.333 -101 -41 -165 -41c-80 0 -146.333 27 -199 81s-79 127.667 -79 221c0 110 32.5 203.5 97.5 280.5s147.833 115.5 248.5 115.5c77.333 0 139.333 -25.167 186 -75.5s70 -115.833 70 -196.5c0 -79.333 -16.167 -142 -48.5 -188s-70.833 -69 -115.5 -69
c-19.333 0 -35.333 7.5 -48 22.5s-17.667 37.167 -15 66.5h-3c-35.333 -59.333 -81 -89 -137 -89c-26.667 0 -49.5 10.5 -68.5 31.5s-28.5 49.5 -28.5 85.5c0 62.667 22 119.334 66 170.001s99.333 76 166 76c31.333 0 60.666 -5.33301 87.999 -16l-39 -189
c-16.667 -80.667 -7.33398 -121 27.999 -121c28.667 -0.666992 54.5 19 77.5 59s34.5 89.333 34.5 148c0 76.667 -19.167 137.167 -57.5 181.5s-92.5 66.5 -162.5 66.5c-82.667 0 -152.5 -33.333 -209.5 -100s-85.5 -152.667 -85.5 -258c0 -80.667 22.167 -145 66.5 -193
s102.5 -72 174.5 -72c54.667 0 102.667 11.667 144 35z" />
    <glyph glyph-name="A" unicode="A" horiz-adv-x="536" 
d="M388 235h-237l-74 -235h-47l218 674h45l218 -674h-48zM164 274h211l-71 215c-12 38.667 -23 81.667 -33 129h-3c-6.66699 -31.333 -17.667 -74 -33 -128z" />
    <glyph glyph-name="B" unicode="B" horiz-adv-x="465" 
d="M76 1v664.001c39.333 9.33301 80 14 122 14c74 0 128.667 -17.667 164 -53c27.333 -27.333 41 -64.333 41 -111c0 -34.667 -10.5 -65.5 -31.5 -92.5s-48.5 -46.5 -82.5 -58.5v-2c36.667 -8.66699 68.834 -27.667 96.501 -57s41.5 -68.333 41.5 -117
c0 -52.667 -16.333 -96.334 -49 -131.001c-38.667 -41.333 -103.334 -62 -194.001 -62c-26 0 -62 2 -108 6zM122 633.001v-254h81c44.667 0 81.167 12.667 109.5 38s42.5 57 42.5 95c0 85.333 -53.333 128 -160 128c-32.667 0 -57 -2.33301 -73 -7zM122 341.001
l-0.000976562 -302c14 -3.33301 37.667 -5 71 -5c54.667 0 99.334 12.5 134.001 37.5s52 63.5 52 115.5c0 50.667 -17.5 89 -52.5 115s-79.5 39 -133.5 39h-71z" />
    <glyph glyph-name="C" unicode="C" horiz-adv-x="507" 
d="M464 59l14.001 -38.002c-37.333 -20 -89.333 -30 -156 -30c-37.333 0 -72.666 6.5 -105.999 19.5s-63.5 32.667 -90.5 59s-48.5 62 -64.5 107s-24 96.833 -24 155.5c0 108.667 28.167 194.334 84.5 257.001s129.5 94 219.5 94c58.667 0 103 -8.33301 133 -25l-15 -40
c-34.667 16.667 -74.334 25 -119.001 25c-76.667 0 -138.334 -26.667 -185.001 -80s-70 -129.666 -70 -228.999c0 -97.333 22.333 -172 67 -224s105.667 -78 183 -78c53.333 0 96.333 9 129 27z" />
    <glyph glyph-name="D" unicode="D" horiz-adv-x="578" 
d="M76 1v664c45.333 9.33301 94 14 146 14c104 0 181.333 -26 232 -78c58 -56.667 87 -138.667 87 -246c0 -112.667 -28 -200.667 -84 -264c-56 -64 -141 -96 -255 -96c-52 0 -94 2 -126 6zM122 631v-592.001c15.333 -2.66699 44 -4 86 -4c92 0 162.5 26.5 211.5 79.5
s73.5 132.167 73.5 237.5c0.666992 90.667 -21.666 161.334 -66.999 212.001s-114 76 -206 76c-36.667 0 -69.334 -3 -98.001 -9z" />
    <glyph glyph-name="E" unicode="E" horiz-adv-x="425" 
d="M364 375v-40h-242v-295h272v-40h-318v674h303v-40h-257v-259h242z" />
    <glyph glyph-name="F" unicode="F" horiz-adv-x="418" 
d="M76 0v674h303v-40h-257v-269h237v-40h-237v-325h-46z" />
    <glyph glyph-name="G" unicode="G" horiz-adv-x="561" 
d="M506 334v-309c-52.667 -21.333 -109.334 -32 -170.001 -32c-86.667 0 -157 27 -211 81c-58.667 60 -88 145.667 -88 257c0 106.667 28.833 191.667 86.5 255s134.5 95 230.5 95c56 0 101.333 -8.66699 136 -26l-15 -39c-34.667 16.667 -76 25 -124 25
c-80 0 -144.333 -26.5 -193 -79.5s-73 -127.5 -73 -223.5c0 -99.333 23.333 -175 70 -227s109.334 -78 188.001 -78c52.667 0 91.667 6.33301 117 19v244h-141v38h187z" />
    <glyph glyph-name="H" unicode="H" horiz-adv-x="570" 
d="M76 674h46v-298h326v298h46v-674h-46v336h-326v-336h-46v674z" />
    <glyph glyph-name="I" unicode="I" horiz-adv-x="198" 
d="M76 674h46v-674h-46v674z" />
    <glyph glyph-name="J" unicode="J" horiz-adv-x="315" 
d="M200 206l-0.00195312 468h46v-476c0 -138.667 -56 -208 -168 -208c-25.333 0 -48.666 4 -69.999 12l9 39c18.667 -6.66699 38.334 -10 59.001 -10c42.667 0 74 12.5 94 37.5s30 70.833 30 137.5z" />
    <glyph glyph-name="K" unicode="K" horiz-adv-x="460" 
d="M76 0v674h46v-338h3l29.5 39.5l24.5 32.5l212 266h56l-232 -286l250 -388h-54l-228 355l-61 -75v-280h-46z" />
    <glyph glyph-name="L" unicode="L" horiz-adv-x="410" 
d="M76 0v674h46v-635h270v-39h-316z" />
    <glyph glyph-name="M" unicode="M" horiz-adv-x="717" 
d="M613 0l-19 321.001c-8.66699 147.333 -12.334 246 -11.001 296h-4c-28.667 -96 -55.667 -180 -81 -252l-129 -365h-29l-121 354c-38 111.333 -64.667 199 -80 263h-3c-1.33301 -80.667 -5.66602 -182.334 -12.999 -305.001l-18 -312h-46l45 674h53l130 -376
c35.333 -107.333 58.333 -181.333 69 -222h3c12 51.333 35 125 69 221l132 377h56l43 -674h-46z" />
    <glyph glyph-name="N" unicode="N" horiz-adv-x="577" 
d="M120 0h-45v674h45l225 -383c52 -92.667 91 -168 117 -226l2 1c-5.33301 78 -8 172.667 -8 284v324h45v-674h-44l-224 384c-54.667 96 -93.667 171.333 -117 226l-3 -1c4.66699 -69.333 7 -164.333 7 -285v-324z" />
    <glyph glyph-name="O" unicode="O" horiz-adv-x="597" 
d="M295 -10h-0.999023c-74 0 -135.333 30.167 -184 90.5s-73 144.166 -73 251.499c0 110.667 25.167 197 75.5 259s114.166 93 191.499 93c75.333 0 136.833 -30.167 184.5 -90.5s71.5 -144.166 71.5 -251.499c0 -114.667 -25.5 -202 -76.5 -262s-113.833 -90 -188.5 -90z
M297.001 30h0.998047c46 0 85.667 15.333 119 46s57.5 68.834 72.5 114.501s22.5 95.5 22.5 149.5c0 36 -4.16699 71.333 -12.5 106s-20.666 67.167 -36.999 97.5s-38.666 54.666 -66.999 72.999s-60.5 27.5 -96.5 27.5c-48 0 -88.667 -15.833 -122 -47.5
s-57 -70.167 -71 -115.5s-21 -94.666 -21 -147.999c0 -50.667 7.5 -98.334 22.5 -143.001s39 -82.5 72 -113.5s72.167 -46.5 117.5 -46.5z" />
    <glyph glyph-name="P" unicode="P" horiz-adv-x="460" 
d="M76 0v665.999c43.333 8.66699 86.333 13 129 13c72.667 0 127 -18 163 -54c33.333 -33.333 50 -77.666 50 -132.999c0 -54 -14 -98 -42 -132c-40 -51.333 -101.667 -77 -185 -77c-30 0 -53 2 -69 6v-289h-46zM122 632.999v-303c16.667 -5.33301 40.334 -8 71.001 -8
c55.333 0 98.833 14.167 130.5 42.5s47.5 69.5 47.5 123.5c0 48 -14.833 85.333 -44.5 112s-70.834 40 -123.501 40c-29.333 0 -56.333 -2.33301 -81 -7z" />
    <glyph glyph-name="Q" unicode="Q" horiz-adv-x="597" 
d="M566 -43l-15.001 -42.998c-60 16 -133.333 38.333 -220 67c-15.333 6 -26.333 9 -33 9c-76 1.33301 -138.5 31.666 -187.5 90.999s-73.5 142.666 -73.5 249.999c0 112 25.167 198.833 75.5 260.5s114.5 92.5 192.5 92.5c74.667 0 135.834 -30.167 183.501 -90.5
s71.5 -144.5 71.5 -252.5c0 -91.333 -16.5 -164.833 -49.5 -220.5s-78.5 -93.5 -136.5 -113.5v-3c79.333 -22 143.333 -37.667 192 -47zM297.999 30.002l1.00195 0.00488281c67.333 0 119.666 30.5 156.999 91.5s56 133.833 56 218.5
c0 49.333 -6.83301 96.166 -20.5 140.499s-37 82.666 -70 114.999s-72.833 48.5 -119.5 48.5c-48.667 0 -90 -16 -124 -48s-58 -70.833 -72 -116.5s-21 -94.834 -21 -147.501c0 -50.667 7.5 -98.334 22.5 -143.001s39.167 -82.334 72.5 -113.001s72.666 -46 117.999 -46z
" />
    <glyph glyph-name="R" unicode="R" horiz-adv-x="464" 
d="M76 0l-0.00292969 665.002c38.667 9.33301 81.667 14 129 14c74.667 0 130.334 -17.667 167.001 -53c30.667 -30.667 46 -71.667 46 -123c0 -86 -41.667 -144.667 -125 -176v-2c50.667 -15.333 84.334 -65 101.001 -149c18.667 -94 34 -152.667 46 -176h-48
c-9.33301 18 -23 73.333 -41 166c-9.33301 49.333 -25.166 85.166 -47.499 107.499s-54.5 34.166 -96.5 35.499h-85v-309h-46zM121.997 633.002l-0.000976562 -287h86c49.333 0 88.833 13.667 118.5 41s44.5 63.333 44.5 108c0 48.667 -14.667 85.167 -44 109.5
s-70.333 36.5 -123 36.5c-33.333 0 -60.666 -2.66699 -81.999 -8z" />
    <glyph glyph-name="S" unicode="S" horiz-adv-x="427" 
d="M39 32l16.998 38c38.667 -26 82 -39 130 -39c46 0 82.667 12.667 110 38s41 59 41 101c0 36.667 -9.83301 67.167 -29.5 91.5s-50.834 46.5 -93.501 66.5c-106 44 -159 106 -159 186c0 49.333 17.333 89.833 52 121.5s78.667 47.5 132 47.5c51.333 0 91.333 -10 120 -30
l-18 -39c-27.333 19.333 -62.666 29 -105.999 29c-44.667 0 -78.167 -12.167 -100.5 -36.5s-33.5 -52.166 -33.5 -83.499c0 -36.667 10 -66 30 -88s53 -43.667 99 -65c52.667 -26 91.334 -53.833 116.001 -83.5s37 -67.167 37 -112.5
c0 -52.667 -17.833 -96.334 -53.5 -131.001s-84.5 -52 -146.5 -52c-26 0 -52.667 4 -80 12s-48.666 17.667 -63.999 29z" />
    <glyph glyph-name="T" unicode="T" horiz-adv-x="424" 
d="M190 0v635h-192v39h430v-39h-192v-635h-46z" />
    <glyph glyph-name="U" unicode="U" horiz-adv-x="567" 
d="M76 674h46v-423c0 -76 14.5 -131.833 43.5 -167.5s67.167 -53.5 114.5 -53.5c52 0 92.667 18.167 122 54.5s44 91.833 44 166.5v423h46v-418c0 -92.667 -19.833 -160.167 -59.5 -202.5s-91.167 -63.5 -154.5 -63.5c-59.333 0 -107.833 20.167 -145.5 60.5
s-56.5 105.5 -56.5 195.5v428z" />
    <glyph glyph-name="V" unicode="V" horiz-adv-x="477" 
d="M254 0l-44 -0.000976562l-203 674h48l107 -352c32 -105.333 56 -193 72 -263h3c12.667 60.667 38 148.334 76 263.001l115 352h48z" />
    <glyph glyph-name="W" unicode="W" horiz-adv-x="766" 
d="M227 0l-42.998 0.00195312l-166 674h47l91 -374c24.667 -102.667 41.667 -181.334 51 -236.001h3c6.66699 46.667 25 125.667 55 237l99 373h44l92 -368c28 -114.667 45 -195.334 51 -242.001h3c7.33301 42 25.666 121.333 54.999 238l99 372h47l-183 -674h-43l-96 390
c-24.667 104 -40.334 179.333 -47.001 226h-2c-8 -52 -25.667 -127.667 -53 -227z" />
    <glyph glyph-name="X" unicode="X" horiz-adv-x="496" 
d="M468 0h-52.001l-94 171c-32 53.333 -57 98 -75 134h-3c-18.667 -38.667 -43 -83.667 -73 -135l-89 -170h-53l193 342l-186 332h52l98 -179c20.667 -34.667 41.334 -72 62.001 -112h2c12 25.333 32.667 63 62 113l100 178h53l-191 -327z" />
    <glyph glyph-name="Y" unicode="Y" horiz-adv-x="469" 
d="M259 0h-45.999v295l-195 379h52l98 -193c39.333 -81.333 62.666 -131 69.999 -149h2c10 24.667 34.333 74.667 73 150l101 192h51l-206 -379v-295z" />
    <glyph glyph-name="Z" unicode="Z" horiz-adv-x="479" 
d="M31 0v30l357 603v2h-328v39h385v-30l-357 -602v-3h360v-39h-417z" />
    <glyph glyph-name="bracketleft" unicode="[" horiz-adv-x="260" 
d="M247 -112h-157v798h157v-36h-115v-726h115v-36z" />
    <glyph glyph-name="backslash" unicode="\" horiz-adv-x="328" 
d="M328 -40h-46l-282 724h46z" />
    <glyph glyph-name="bracketright" unicode="]" horiz-adv-x="260" 
d="M15 686h157v-798h-157v36h114v726h-114v36z" />
    <glyph glyph-name="asciicircum" unicode="^" horiz-adv-x="596" 
d="M523 196h-45l-179 407h-2l-179 -407h-45l204 454h42z" />
    <glyph glyph-name="underscore" unicode="_" horiz-adv-x="500" 
d="M0 -75h500v-50h-500v50z" />
    <glyph glyph-name="grave" unicode="`" 
d="M37 685h66l87 -136h-35z" />
    <glyph glyph-name="a" unicode="a" horiz-adv-x="416" 
d="M346 311v-199.001c0 -46.667 2 -84 6 -112h-42l-6 64h-3c-12.667 -20.667 -30.5 -38.167 -53.5 -52.5s-49.833 -21.5 -80.5 -21.5c-40.667 0 -72.5 12.833 -95.5 38.5s-34.5 56.834 -34.5 93.501c0 56 22.667 99.167 68 129.5s110.333 45.166 195 44.499v14
c0 18 -1.16699 33.833 -3.5 47.5s-7 28.334 -14 44.001s-18.333 27.667 -34 36s-35.5 12.5 -59.5 12.5c-40.667 0 -75.667 -10.667 -105 -32l-13 34c35.333 25.333 77 38 125 38c100 0 150 -59.667 150 -179zM300 152.999l-0.000976562 104
c-143.333 3.33301 -215 -39.667 -215 -129c0 -32.667 8.33301 -57.334 25 -74.001s37.334 -25 62.001 -25c32 0 58.833 9 80.5 27s36.167 40.667 43.5 68c2.66699 8.66699 4 18.334 4 29.001z" />
    <glyph glyph-name="b" unicode="b" horiz-adv-x="497" 
d="M74 107v597.998h46v-306h2c30.667 60.667 82 91 154 91c53.333 0 97 -22.167 131 -66.5s51 -104.166 51 -179.499c0 -81.333 -19.167 -144 -57.5 -188s-82.833 -66 -133.5 -66c-67.333 0 -117.333 30.333 -150 91h-3l-3 -81h-41c2.66699 38.667 4 74.334 4 107.001z
M120 287.998l0.00195312 -108.002c0 -13.333 1.33301 -24.333 4 -33c9.33301 -38.667 26.666 -68 51.999 -88s53.666 -30 84.999 -30c48 0 85 20 111 60s39 91.333 39 154c0 58 -13 107.167 -39 147.5s-62.333 60.5 -109 60.5c-31.333 0 -60 -11.667 -86 -35
s-43.333 -52.666 -52 -87.999c-3.33301 -13.333 -5 -26.666 -5 -39.999z" />
    <glyph glyph-name="c" unicode="c" horiz-adv-x="399" 
d="M358 55l11.999 -36c-34 -18.667 -74.667 -28 -122 -28c-62.667 0 -113.167 22.333 -151.5 67s-57.5 104 -57.5 178s20.667 134.833 62 182.5s95.333 71.5 162 71.5c47.333 0 83.333 -8.66699 108 -26l-16 -39c-27.333 16 -59.666 24 -96.999 24
c-54.667 0 -97 -20.5 -127 -61.5s-45 -91.167 -45 -150.5c0 -62.667 15.667 -112.667 47 -150s72.333 -56 123 -56c33.333 0 67.333 8 102 24z" />
    <glyph glyph-name="d" unicode="d" horiz-adv-x="491" 
d="M371 705h46.001v-597c0 -33.333 1.33301 -69.333 4 -108h-41l-3 83h-3c-12 -26.667 -30.833 -48.834 -56.5 -66.501s-56.834 -26.5 -93.501 -26.5c-53.333 0 -97.5 22 -132.5 66s-52.5 103 -52.5 177c0 79.333 18.5 142 55.5 188s82.833 69 137.5 69
c32 0 60 -7.16699 84 -21.5s41.667 -33.166 53 -56.499h2v293zM371.001 187l-0.000976562 105.998c0 16 -1.33301 29.667 -4 41c-6 32.667 -21.167 60.334 -45.5 83.001s-53.166 34 -86.499 34c-46 0 -82.333 -20.333 -109 -61s-40 -91.667 -40 -153
c0 -58.667 12.5 -108 37.5 -148s61.167 -60 108.5 -60c30 0 57.5 10 82.5 30s42.5 50 52.5 90c2.66699 10.667 4 23.334 4 38.001z" />
    <glyph glyph-name="e" unicode="e" horiz-adv-x="438" 
d="M399 249h-314.001c0 -77.333 15.333 -133 46 -167s70 -51 118 -51c46.667 0 85.334 8.33301 116.001 25l11 -36c-32 -19.333 -76.333 -29 -133 -29c-63.333 0 -113.166 22.167 -149.499 66.5s-54.5 102.833 -54.5 175.5c0 78 18 140.333 54 187s82.667 70 140 70
c32.667 0 60.667 -7.33301 84 -22s40.666 -33.667 51.999 -57s19.333 -46 24 -68s7 -43.667 7 -65c0 -13.333 -0.333008 -23 -1 -29zM86.999 286l265 0.000976562c1.33301 45.333 -8.5 84.166 -29.5 116.499s-52.833 48.5 -95.5 48.5c-42 0 -74.667 -16.5 -98 -49.5
s-37.333 -71.5 -42 -115.5z" />
    <glyph glyph-name="f" unicode="f" horiz-adv-x="241" 
d="M126 0l-46 0.000976562v442h-66v38h66v29c0 75.333 16 130.333 48 165c26.667 27.333 60 41 100 41c27.333 0 49 -5 65 -15l-14 -37c-16 8 -34.333 12 -55 12c-37.333 0 -63 -14.833 -77 -44.5s-21 -69.834 -21 -120.501v-30h117v-38h-117v-442z" />
    <glyph glyph-name="g" unicode="g" horiz-adv-x="491" 
d="M417 349l-0.00195312 -279.998c0 -108 -19.333 -181.333 -58 -220c-36 -36.667 -85 -55 -147 -55c-57.333 0 -102.666 12 -135.999 36l16 38c36 -23.333 78.333 -35 127 -35c101.333 0 152 62 152 186v65h-2c-12 -24.667 -30.5 -44.834 -55.5 -60.501
s-54.833 -23.5 -89.5 -23.5c-53.333 0 -97.5 22.167 -132.5 66.5s-52.5 101.166 -52.5 170.499c0 81.333 19.5 143.833 58.5 187.5s84.5 65.5 136.5 65.5c64.667 0 111.334 -28 140.001 -84h2l2 74h43c-2.66699 -44 -4 -87.667 -4 -131zM370.998 192.002l-0.000976562 111
c0 18 -1.66699 32.333 -5 43c-9.33301 30 -25 55 -47 75s-50 30 -84 30c-44.667 0 -80.667 -19.167 -108 -57.5s-41 -88.833 -41 -151.5c0 -60.667 13.167 -109.667 39.5 -147s62.833 -56 109.5 -56c28 0 53.833 8.66699 77.5 26s40.834 43 51.501 77
c4.66699 16 7 32.667 7 50z" />
    <glyph glyph-name="h" unicode="h" horiz-adv-x="487" 
d="M74 0l-0.000976562 705h46v-300h2c14.667 26.667 34 47 58 61c25.333 16 54.333 24 87 24c14 0 28.333 -2.33301 43 -7s30.5 -13 47.5 -25s30.833 -31.333 41.5 -58s16 -58.667 16 -96v-304h-46v295c0 45.333 -9.16699 82.5 -27.5 111.5s-47.5 43.5 -87.5 43.5
c-30 0 -56.667 -9.66699 -80 -29s-39.666 -44.666 -48.999 -75.999c-3.33301 -10.667 -5 -25.334 -5 -44.001v-301h-46z" />
    <glyph glyph-name="i" unicode="i" horiz-adv-x="195" 
d="M120 0h-46v480h46v-480zM97 573h-1.00098c-10 0 -18.333 3.83301 -25 11.5s-10 17.167 -10 28.5s3.5 20.833 10.5 28.5s15.833 11.5 26.5 11.5s19.334 -3.83301 26.001 -11.5s10 -17.167 10 -28.5s-3.33301 -20.833 -10 -28.5s-15.667 -11.5 -27 -11.5z" />
    <glyph glyph-name="j" unicode="j" horiz-adv-x="200" 
d="M-34 -206l-7 38.002c41.333 4.66699 71.333 18.334 90 41.001c11.333 16 19.5 37 24.5 63s7.5 67.333 7.5 124v420h46v-448c0 -46.667 -3.33301 -84.334 -10 -113.001s-19 -53.334 -37 -74.001c-14.667 -16 -33.167 -28.333 -55.5 -37s-41.833 -13.334 -58.5 -14.001z
M104 573.002h-1c-10 0 -18.333 3.83301 -25 11.5s-10 17.167 -10 28.5s3.66699 20.833 11 28.5s16.333 11.5 27 11.5c10 0 18.333 -3.83301 25 -11.5s10 -17.167 10 -28.5s-3.33301 -20.833 -10 -28.5s-15.667 -11.5 -27 -11.5z" />
    <glyph glyph-name="k" unicode="k" horiz-adv-x="391" 
d="M120 705v-456h2c21.333 27.333 35 44.333 41 51l153 180h55l-176 -200l199 -280h-55l-175 250l-44 -50v-200h-46v705h46z" />
    <glyph glyph-name="l" unicode="l" horiz-adv-x="199" 
d="M74 0v705h46v-705h-46z" />
    <glyph glyph-name="m" unicode="m" horiz-adv-x="748" 
d="M74 0l0.000976562 366.003c0 26.667 -1.33301 64.667 -4 114h43l3 -78h2c30 58.667 76.667 88 140 88c29.333 0 55.166 -8.66699 77.499 -26s38.166 -41 47.499 -71h2c13.333 26.667 29.333 47.667 48 63c28.667 22.667 62.334 34 101.001 34
c14.667 0 29.167 -2.5 43.5 -7.5s29.333 -13.833 45 -26.5s28.5 -32.834 38.5 -60.501s15 -60.834 15 -99.501v-296h-46v288c0 108 -37.333 162 -112 162c-26 0 -49.333 -8.83301 -70 -26.5s-35 -39.834 -43 -66.501c-4.66699 -17.333 -7 -33.333 -7 -48v-309h-46v307
c0 42.667 -9 77.167 -27 103.5s-44.667 39.5 -80 39.5c-28 0 -52.833 -10.167 -74.5 -30.5s-36.5 -45.5 -44.5 -75.5c-4 -13.333 -6 -28.333 -6 -45v-299h-46z" />
    <glyph glyph-name="n" unicode="n" horiz-adv-x="487" 
d="M74 0v366c0 26.667 -1.33301 64.667 -4 114h43l3 -79h2c12 26 31 47.333 57 64s56 25 90 25c11.333 0 22.833 -1.33301 34.5 -4s24.667 -8.16699 39 -16.5s27 -19 38 -32s20.167 -31.333 27.5 -55s11 -50.834 11 -81.501v-301h-46v293c0 46 -9 83.667 -27 113
s-48 44 -90 44c-29.333 0 -55.833 -10 -79.5 -30s-39.5 -45.667 -47.5 -77c-3.33301 -13.333 -5 -27.666 -5 -42.999v-300h-46z" />
    <glyph glyph-name="o" unicode="o" horiz-adv-x="478" 
d="M236 -10h-1c-56 0 -102.667 22 -140 66s-56 104.333 -56 181c0 80 19.667 142.167 59 186.5s87.333 66.5 144 66.5c58 0 105.333 -22.167 142 -66.5s55 -104.5 55 -180.5c0 -82.667 -20.333 -145.5 -61 -188.5s-88 -64.5 -142 -64.5zM237 29l0.999023 0.00292969
c45.333 0 82.333 21.167 111 63.5s43 92.166 43 149.499c0 31.333 -4.5 62 -13.5 92s-25.667 57 -50 81s-54.166 36 -89.499 36c-34.667 0 -64 -11.333 -88 -34s-40.833 -49.334 -50.5 -80.001s-14.5 -63.334 -14.5 -98.001c0 -56 14 -105 42 -147s64.333 -63 109 -63z" />
    <glyph glyph-name="p" unicode="p" horiz-adv-x="497" 
d="M74 -196l-0.000976562 524c0 48 -1.33301 98.667 -4 152h44l3 -83h2c32.667 62 84.334 93 155.001 93c54 0 98.167 -22 132.5 -66s51.5 -103.333 51.5 -178c0 -82.667 -18.833 -146 -56.5 -190s-84.167 -66 -139.5 -66c-64 0 -110.667 26.667 -140 80h-2v-266h-46z
M119.999 287l-0.000976562 -101.998c0 -14.667 1.33301 -27.334 4 -38.001c9.33301 -38 26.5 -67.167 51.5 -87.5s53.167 -30.5 84.5 -30.5c48.667 0 86 20 112 60s39 91.667 39 155c0 57.333 -13 106.166 -39 146.499s-62.333 60.5 -109 60.5
c-31.333 0 -60.166 -11.667 -86.499 -35s-43.5 -53 -51.5 -89c-3.33301 -22 -5 -35.333 -5 -40z" />
    <glyph glyph-name="q" unicode="q" horiz-adv-x="490" 
d="M371 -196l-0.000976562 270h-3c-11.333 -24 -29.5 -44 -54.5 -60s-54.833 -24 -89.5 -24c-52.667 0 -96.667 22 -132 66s-53 103 -53 177c0 84 19.833 147.833 59.5 191.5s85.834 65.5 138.501 65.5c65.333 0 111 -28.333 137 -85h2l2 75h43
c-2.66699 -44 -4 -87.667 -4 -131v-545h-46zM370.999 186l-0.000976562 106.999c0 16 -1.33301 29.667 -4 41c-6.66699 32.667 -22 60.334 -46 83.001s-52.333 34 -85 34c-46.667 0 -83.334 -20 -110.001 -60s-40 -91.333 -40 -154c0 -58.667 12.333 -108 37 -148
s61.334 -60 110.001 -60c28.667 0 54.834 9 78.501 27s41.167 45.333 52.5 82c4.66699 16.667 7 32.667 7 48z" />
    <glyph glyph-name="r" unicode="r" horiz-adv-x="272" 
d="M74 0l-0.00195312 346c0 33.333 -1.33301 78 -4 134h43l2 -91h2c10 28.667 26.333 52.667 49 72s48.667 29 78 29c2 0 4.83301 -0.166992 8.5 -0.5s6.16699 -0.5 7.5 -0.5v-46c-3.33301 0.666992 -9.33301 1 -18 1c-31.333 0 -57.666 -12.333 -78.999 -37
s-34.666 -55.667 -39.999 -93c-2 -14 -3 -28.667 -3 -44v-270h-46z" />
    <glyph glyph-name="s" unicode="s" horiz-adv-x="341" 
d="M37 23l17.998 39.002c30 -20.667 62.333 -31 97 -31c32.667 0 58 8.33301 76 25s27 38.334 27 65.001c0 24.667 -6.83301 45.167 -20.5 61.5s-36.834 32.166 -69.501 47.499c-76.667 35.333 -115 79.666 -115 132.999c0 36 12.833 66.167 38.5 90.5
s59.167 36.5 100.5 36.5c36.667 0 69.334 -9.66699 98.001 -29l-19 -38c-25.333 18 -53.666 27 -84.999 27c-27.333 0 -48.666 -7.83301 -63.999 -23.5s-23 -34.5 -23 -56.5s6.5 -39.833 19.5 -53.5s35.833 -28.5 68.5 -44.5c38 -17.333 67 -37 87 -59s30 -50 30 -84
c0 -42.667 -14 -76.334 -42 -101.001s-64.667 -37 -110 -37c-42 0 -79.333 10.667 -112 32z" />
    <glyph glyph-name="t" unicode="t" horiz-adv-x="282" 
d="M91 566l46.001 19v-105h123v-38h-123v-316c0 -63.333 21.667 -95 65 -95c20.667 0 36 2 46 6l6 -36c-15.333 -6.66699 -35 -10 -59 -10c-34.667 0 -60.334 10.667 -77.001 32c-18 21.333 -27 59.333 -27 114v305h-75v38h75v86z" />
    <glyph glyph-name="u" unicode="u" horiz-adv-x="481" 
d="M407 480v-362.001c0 -32 1.33301 -71.333 4 -118h-43l-3 74h-2c-12 -22 -30.5 -41.5 -55.5 -58.5s-54.833 -25.5 -89.5 -25.5c-40 0 -74.5 15.333 -103.5 46s-43.5 82.334 -43.5 155.001v289h46v-280c0 -113.333 37.333 -170 112 -170c30.667 0 57 9.5 79 28.5
s37.333 40.5 46 64.5c4.66699 17.333 7 34.333 7 51v306h46z" />
    <glyph glyph-name="v" unicode="v" horiz-adv-x="411" 
d="M16 480h48l102 -300c14.667 -40 27.667 -80.667 39 -122h3c6.66699 25.333 20 66 40 122l102 300h48l-174 -480h-40z" />
    <glyph glyph-name="w" unicode="w" horiz-adv-x="666" 
d="M21 480l46.999 0.000976562l75 -267c16.667 -60.667 29.334 -111.334 38.001 -152.001h3c7.33301 35.333 21.666 86 42.999 152l86 267h42l82 -263c17.333 -54.667 32 -106.667 44 -156h3c6.66699 34 20 85 40 153l77 266h47l-148 -480h-39l-84 269
c-17.333 54.667 -31.666 107 -42.999 157h-2c-10 -43.333 -25 -96.333 -45 -159l-87 -267h-40z" />
    <glyph glyph-name="x" unicode="x" horiz-adv-x="392" 
d="M21 480l51 0.000976562l74 -115l50 -84h2c4.66699 9.33301 9.83398 18.666 15.501 27.999l19 30.5c7 11 12.167 19.5 15.5 25.5l73 115h52l-153 -234l156 -246h-52l-76 121c-12 18 -30 48 -54 90h-2c-8.66699 -17.333 -26.334 -47.333 -53.001 -90l-75 -121h-52l159 245z
" />
    <glyph glyph-name="y" unicode="y" horiz-adv-x="403" 
d="M13 480h48.999l110 -307c11.333 -33.333 22 -68.666 32 -105.999h2l33 108l103 305h49l-121 -332c-30 -86 -55.5 -152 -76.5 -198s-45.833 -83.333 -74.5 -112c-27.333 -26.667 -54 -45.334 -80 -56.001l-18 39c30.667 14 57.334 33.667 80.001 59
c30 34 53.333 71.667 70 113c3.33301 10 5 17.667 5 23s-1.33301 12 -4 20z" />
    <glyph glyph-name="z" unicode="z" horiz-adv-x="369" 
d="M15 0v28l233 344l49 68v2h-261v38h316v-30l-233 -343l-46 -67v-2h279v-38h-337z" />
    <glyph glyph-name="braceleft" unicode="{" horiz-adv-x="260" 
d="M30 271v34.0049c53.333 -0.666992 80 25.666 80 78.999c0 13.333 -2.33301 42.666 -7 87.999c-6 34.667 -9 64 -9 88c0 42.667 12.167 74.334 36.5 95.001s55.833 31 94.5 31h11v-36h-17c-29.333 -1.33301 -50.333 -9.33301 -63 -24s-19 -37 -19 -67
c0 -18.667 2.66699 -46 8 -82s8 -63 8 -81c0.666992 -59.333 -20.666 -94.666 -63.999 -105.999v-2c43.333 -12.667 64.666 -49 63.999 -109c0 -18.667 -2.66699 -45.334 -8 -80.001c-5.33301 -37.333 -8 -65 -8 -83c0 -58.667 27.333 -89.334 82 -92.001h17v-36h-11
c-38.667 0 -70.167 10.667 -94.5 32s-36.5 54.666 -36.5 99.999c0 19.333 2.66699 48.333 8 87c5.33301 37.333 8 65.666 8 84.999c0 53.333 -26.667 79.666 -80 78.999z" />
    <glyph glyph-name="bar" unicode="|" horiz-adv-x="205" 
d="M81 750h43v-1000h-43v1000z" />
    <glyph glyph-name="braceright" unicode="}" horiz-adv-x="260" 
d="M230 305v-34.0039c-53.333 0.666992 -80 -25.666 -80 -78.999c0 -23.333 3 -51.666 9 -84.999c5.33301 -38.667 8 -67.667 8 -87c0 -45.333 -12.167 -78.666 -36.5 -99.999s-55.833 -32 -94.5 -32h-11v36h17c54.667 2.66699 82 33.334 82 92.001c0 22 -3 49.667 -9 83
c-5.33301 34.667 -8 61.334 -8 80.001c-0.666992 60 20.666 96.333 63.999 109v2c-43.333 11.333 -64.666 46.666 -63.999 105.999c0 21.333 3 48.333 9 81c5.33301 36 8 63.333 8 82c0 30 -6.33301 52.333 -19 67s-33.667 22.667 -63 24h-17v36h11
c38.667 0 70.167 -10.333 94.5 -31s36.5 -52.334 36.5 -95.001c0 -24 -3 -53.333 -9 -88c-5.33301 -38.667 -8 -68 -8 -88c0 -53.333 26.667 -79.666 80 -78.999z" />
    <glyph glyph-name="asciitilde" unicode="~" horiz-adv-x="596" 
d="M99 226l-36.999 0.00292969c-2.66699 36 5.83301 65.5 25.5 88.5s45.5 34.5 77.5 34.5c28.667 0 74.334 -14 137.001 -42c66 -28 112 -42 138 -42c19.333 0 34 7.66699 44 23s14.667 35 14 59h37c2.66699 -40.667 -5.83301 -71.334 -25.5 -92.001s-44.5 -31 -74.5 -31
c-32.667 0 -79.667 13.667 -141 41c-3.33301 1.33301 -11 4.66602 -23 9.99902l-24 10.5l-21 8.5c-10 4 -17.833 6.66699 -23.5 8s-12.334 2.66602 -20.001 3.99902s-14.834 2 -21.501 2c-20 0 -35.5 -7.16699 -46.5 -21.5s-16.167 -34.5 -15.5 -60.5z" />
    <glyph glyph-name="uni00A0" unicode="&#xa0;" horiz-adv-x="200" 
 />
    <glyph glyph-name="exclamdown" unicode="&#xa1;" horiz-adv-x="200" 
d="M128 -194h-55l8 497h39zM100 489h1c11.333 0 20.333 -4 27 -12s10 -18.333 10 -31c0 -12 -3.5 -22 -10.5 -30s-16.167 -12 -27.5 -12s-20.5 4 -27.5 12s-10.5 18 -10.5 30c0 12.667 3.5 23 10.5 31s16.167 12 27.5 12z" />
    <glyph glyph-name="cent" unicode="&#xa2;" horiz-adv-x="449" 
d="M279 -12l-39.999 0.000976562v101c-48.667 5.33301 -88.667 24.666 -120 57.999c-37.333 40.667 -56 100.667 -56 180c0 64 16.167 118 48.5 162s74.833 70 127.5 78v99h40v-97c40 0 74 -8.66699 102 -26l-17 -38c-26 17.333 -59 26 -99 26c-48 0 -86 -20.5 -114 -61.5
s-42 -88.833 -42 -143.5c0 -60.667 14.167 -109 42.5 -145s65.166 -54 110.499 -54c39.333 0 75 8.66699 107 26l12 -34c-24 -17.333 -58 -27.333 -102 -30v-101z" />
    <glyph glyph-name="sterling" unicode="&#xa3;" horiz-adv-x="449" 
d="M415 0l-366 0.000976562v30c32 17.333 58.333 43.666 79 78.999s31 73 31 113c0 28 -2 58.667 -6 92h-100v38h95c-9.33301 58 -14 99.333 -14 124c0 56.667 15.5 101.5 46.5 134.5s68.833 49.5 113.5 49.5c38.667 0 70.667 -8 96 -24l-16 -36c-22 13.333 -50 20 -84 20
c-36.667 0 -64.167 -12.667 -82.5 -38s-27.5 -58.333 -27.5 -99c0 -40 4.33301 -83.667 13 -131h135v-38h-129c6.66699 -60 6 -107 -2 -141c-11.333 -50.667 -37.333 -94 -78 -130v-2h296v-41z" />
    <glyph glyph-name="currency" unicode="&#xa4;" horiz-adv-x="449" 
d="M224 524h0.998047c44.667 0 80.334 -14.333 107.001 -43l66 69l31 -31l-72 -67c22 -31.333 33 -71 33 -119c0 -50 -10.667 -91.333 -32 -124l68 -68l-30 -31l-64 69c-28.667 -28.667 -65 -43 -109 -43c-20 0 -39.833 3.66699 -59.5 11s-35.5 17.333 -47.5 30l-62 -67
l-30 31l67 66c-23.333 32 -35 72 -35 120c0 49.333 12.333 91 37 125l-69 67l31 31l62 -69c28.667 28.667 64.334 43 107.001 43zM223.998 486h-1c-38 0 -68 -14.833 -90 -44.5s-33 -67.5 -33 -113.5c0 -48.667 12.5 -86.5 37.5 -113.5s53.167 -40.5 84.5 -40.5
c34 -0.666992 63.167 12.5 87.5 39.5s36.5 66.5 36.5 118.5c0 42.667 -10.833 79 -32.5 109s-51.5 45 -89.5 45z" />
    <glyph glyph-name="yen" unicode="&#xa5;" horiz-adv-x="449" 
d="M240 0h-45v190h-144v35h144v79h-144v35h128l-156 311h50l109 -224c18 -37.333 31 -65.666 39 -84.999h3c7.33301 23.333 20 52.666 38 87.999l115 221h48l-168 -311h129v-35h-146v-79h146v-35h-146v-190z" />
    <glyph glyph-name="brokenbar" unicode="&#xa6;" horiz-adv-x="205" 
d="M81 174h43v-350h-43v350zM81 674h43v-350h-43v350z" />
    <glyph glyph-name="section" unicode="&#xa7;" horiz-adv-x="460" 
d="M98 357v-1c0 -40.667 35.667 -75 107 -103c52 -20 89.333 -38.333 112 -55c29.333 21.333 44 52.333 44 93c0 46 -31 81 -93 105c-56 21.333 -95.333 39.333 -118 54c-34.667 -25.333 -52 -56.333 -52 -93zM365 650l-19 -34.999c-28.667 20.667 -63 31 -103 31
c-29.333 0 -55 -8 -77 -24s-33 -38 -33 -66c0 -15.333 3 -28.666 9 -39.999s16.333 -21.5 31 -30.5s27.5 -16 38.5 -21s27.833 -11.5 50.5 -19.5c46 -18 81.167 -37.833 105.5 -59.5s36.5 -51.5 36.5 -89.5c0 -46 -20 -86 -60 -120c23.333 -23.333 35 -52 35 -86
c0 -45.333 -15.833 -80.333 -47.5 -105s-71.167 -37 -118.5 -37c-58 0 -102.333 13 -133 39l19 35c31.333 -25.333 70.333 -38 117 -38c34 0 62.5 8.66699 85.5 26s34.5 41.666 34.5 72.999c0 27.333 -9 49.833 -27 67.5s-51.333 35.834 -100 54.501
c-53.333 21.333 -92.166 42.666 -116.499 63.999s-36.5 50 -36.5 86c0 42 23 80.333 69 115c-22.667 17.333 -34.667 43.666 -36 78.999c0 39.333 15.5 71.333 46.5 96s68.167 37 111.5 37c47.333 0 86.666 -10.667 117.999 -32z" />
    <glyph glyph-name="dieresis" unicode="&#xa8;" 
d="M69 576h-0.999023c-10 0 -18.333 3.66699 -25 11s-10 16 -10 26s3.5 18.667 10.5 26s15.833 11 26.5 11c10 0 18.333 -3.66699 25 -11s10 -16 10 -26s-3.33301 -18.667 -10 -26s-15.334 -11 -26.001 -11zM230.001 576h-0.999023c-10 0 -18.333 3.66699 -25 11
s-10 16 -10 26s3.5 18.667 10.5 26s15.833 11 26.5 11c10 0 18.333 -3.66699 25 -11s10 -16 10 -26s-3.33301 -18.667 -10 -26s-15.334 -11 -26.001 -11z" />
    <glyph glyph-name="copyright" unicode="&#xa9;" horiz-adv-x="677" 
d="M340 648h1.00098c84 0 154.833 -30 212.5 -90s86.5 -132.667 86.5 -218c0 -86.667 -28.833 -160 -86.5 -220s-128.834 -90 -213.501 -90s-156.334 30.167 -215.001 90.5s-88 133.5 -88 219.5c0 85.333 29.333 158 88 218s130.334 90 215.001 90zM340.001 616
l-1 0.00195312c-74 0 -136.167 -26.667 -186.5 -80s-75.5 -120 -75.5 -200c0 -77.333 25.167 -142.333 75.5 -195s112.833 -79 187.5 -79c73.333 -0.666992 135 25.666 185 78.999s75 119.666 75 198.999c0 78 -25 143.5 -75 196.5s-111.667 79.5 -185 79.5z
M474.001 494.002l-10 -30.999c-28 16 -61 24 -99 24c-49.333 0 -86.5 -14 -111.5 -42s-37.5 -64 -37.5 -108c0 -43.333 13 -79.333 39 -108s63.333 -43 112 -43c42 0 76.333 9 103 27l10 -29c-30 -20.667 -71 -31 -123 -31c-56 0 -100.333 17.167 -133 51.5
s-49 77.5 -49 129.5c0 55.333 18.5 100.166 55.5 134.499s81.5 51.5 133.5 51.5c51.333 0 88 -8.66699 110 -26z" />
    <glyph glyph-name="ordfeminine" unicode="&#xaa;" horiz-adv-x="305" 
d="M266 265l-38 0.000976562l-4 44h-2c-22 -32.667 -53.667 -49 -95 -49c-29.333 0 -52.666 8.66699 -69.999 26s-26 39.666 -26 66.999c0 36 16.833 64.333 50.5 85s80.167 30 139.5 28v13c0 18.667 -5.83301 36 -17.5 52s-31.5 24 -59.5 24
c-30 0 -55.667 -8.33301 -77 -25l-13 28c27.333 21.333 59.666 32 96.999 32c73.333 0 110 -43.667 110 -131v-118c0 -30 1.66699 -55.333 5 -76zM221 362.001l0.000976562 71c-98.667 3.33301 -148 -22.667 -148 -78c0 -19.333 6.16699 -34.166 18.5 -44.499
s27.166 -15.5 44.499 -15.5c30.667 0 55 13 73 39c8 11.333 12 20.666 12 27.999z" />
    <glyph glyph-name="guillemotleft" unicode="&#xab;" horiz-adv-x="375" 
d="M208 429l-130 -176l130 -177h-48l-130 177l131 176h47zM349 429l-130 -176l131 -177h-48l-130 177l130 176h47z" />
    <glyph glyph-name="logicalnot" unicode="&#xac;" horiz-adv-x="596" 
d="M40 385h516v-255h-42v216h-474v39z" />
    <glyph glyph-name="uni00AD" unicode="&#xad;" horiz-adv-x="296" 
d="M30 289h236v-41h-236v41z" />
    <glyph glyph-name="registered" unicode="&#xae;" horiz-adv-x="387" 
d="M165 507l0.000976562 -70.001h-30v166c18.667 3.33301 37.667 5 57 5c22.667 0 40 -4.33301 52 -13c11.333 -8 17 -19.667 17 -35c0 -18.667 -11 -31.667 -33 -39v-2c13.333 -5.33301 22.666 -18.666 27.999 -39.999c4.66699 -22.667 8.66699 -36.667 12 -42h-31
c-4.66699 5.33301 -9 20 -13 44c-4 17.333 -17 26 -39 26h-20zM165.001 581.999v-51h21c28.667 0 43 8.66699 43 26c0 18 -13.333 27 -40 27c-9.33301 0 -17.333 -0.666992 -24 -2zM194.001 681.999h0.999023c44.667 0 82.334 -15.167 113.001 -45.5s46 -67.5 46 -111.5
c0 -44.667 -15.333 -82.5 -46 -113.5s-68.667 -46.5 -114 -46.5c-44.667 0 -82.5 15.5 -113.5 46.5s-46.5 68.833 -46.5 113.5c0 44 15.5 81.167 46.5 111.5s68.833 45.5 113.5 45.5zM194 653.999l-1 0.000976562c-35.333 0 -65 -12.5 -89 -37.5s-36 -55.5 -36 -91.5
c0 -36.667 12.167 -67.667 36.5 -93s54.5 -38 90.5 -38c35.333 -0.666992 64.833 11.666 88.5 36.999s35.5 56.333 35.5 93s-11.833 67.5 -35.5 92.5s-53.5 37.5 -89.5 37.5z" />
    <glyph glyph-name="macron" unicode="&#xaf;" 
d="M49 625h203v-38h-203v38z" />
    <glyph glyph-name="degree" unicode="&#xb0;" horiz-adv-x="289" 
d="M152 686h1c36 0 65 -12.167 87 -36.5s33 -53.5 33 -87.5c0 -36.667 -12.167 -67 -36.5 -91s-53.166 -36 -86.499 -36c-34.667 0 -63.334 12 -86.001 36s-34 53 -34 87c0 36 11.833 66.333 35.5 91s52.5 37 86.5 37zM151 653l-1.00098 -0.00195312
c-25.333 0 -45.333 -9.5 -60 -28.5s-22 -41.167 -22 -66.5s8 -46.666 24 -63.999s35.667 -26 59 -26c24 0 44 8.83301 60 26.5s24 39.834 24 66.501c0 24 -7.16699 45.333 -21.5 64s-35.166 28 -62.499 28z" />
    <glyph glyph-name="plusminus" unicode="&#xb1;" horiz-adv-x="596" 
d="M277 567h42v-207h237v-39h-237v-216h-42v216h-237v39h237v207zM40 39h516v-39h-516v39z" />
    <glyph glyph-name="twosuperior" unicode="&#xb2;" horiz-adv-x="268" 
d="M7 435l0.000976562 21.998l56 56c86 84.667 129 152.334 129 203.001c0 23.333 -6.83301 42.333 -20.5 57s-33.5 22 -59.5 22c-27.333 0 -53.333 -10.667 -78 -32l-15 28c27.333 26 61.666 39 102.999 39c38 0 66.333 -10.667 85 -32s28 -46 28 -74
c0 -34.667 -11.167 -68.667 -33.5 -102s-54.833 -70.666 -97.5 -111.999l-36 -37v-2h174v-36h-235z" />
    <glyph glyph-name="threesuperior" unicode="&#xb3;" horiz-adv-x="261" 
d="M39 769l-14.0029 31c29.333 20 61 30 95 30s59.667 -8.66699 77 -26s26 -39 26 -65c0 -18.667 -6.16699 -36.167 -18.5 -52.5s-29.5 -28.833 -51.5 -37.5v-2c24.667 -4.66699 45.167 -16 61.5 -34s24.5 -40 24.5 -66c0 -32 -12.167 -59.5 -36.5 -82.5
s-58.166 -34.5 -101.499 -34.5c-39.333 0 -71.333 8.66699 -96 26l14 33c22 -16.667 50.333 -25 85 -25c30.667 0 53.834 8 69.501 24s23.167 35 22.5 57c0 28 -10.5 49 -31.5 63s-47.5 21 -79.5 21h-20v32h21c22 0 43.333 6.5 64 19.5s31 31.833 31 56.5
c0 16.667 -5.66699 30.667 -17 42s-27.666 17 -48.999 17c-28 0 -53.333 -9 -76 -27z" />
    <glyph glyph-name="acute" unicode="&#xb4;" 
d="M203 685h66l-118 -136h-35z" />
    <glyph glyph-name="mu" unicode="&#xb5;" horiz-adv-x="483" 
d="M368 71l-3 -0.000976562c-12 -20.667 -29.5 -39.167 -52.5 -55.5s-49.5 -24.5 -79.5 -24.5c-54.667 0 -92.667 20.333 -114 61v-76c0 -86 3.66699 -143.333 11 -172h-42c-9.33301 28 -14 81.667 -14 161v515h46v-303c0 -42 9 -76.833 27 -104.5s47 -41.5 87 -41.5
c30.667 0 56.667 9.33301 78 28s36.333 40 45 64c4.66699 17.333 7 34.333 7 51v306h46v-374c0 -27.333 3 -47 9 -59s17.333 -18.333 34 -19l-6 -37c-6 -0.666992 -11.333 -1 -16 -1c-16.667 0 -31 6.33301 -43 19s-18.667 33.334 -20 62.001z" />
    <glyph glyph-name="paragraph" unicode="&#xb6;" horiz-adv-x="460" 
d="M269 -50l-39.998 0.000976562v319h-7c-46.667 0 -89 16.5 -127 49.5s-58 78.833 -60 137.5c-0.666992 28 3.16602 54.5 11.499 79.5s21.666 48.167 39.999 69.5s44.333 38.166 78 50.499s73.167 18.5 118.5 18.5c38.667 0 70 -2 94 -6v-718h-40v686h-68v-686z" />
    <glyph glyph-name="periodcentered" unicode="&#xb7;" horiz-adv-x="173" 
d="M86 219l-0.999023 0.000976562c-10.667 0 -19.667 4.16699 -27 12.5s-11 18.166 -11 29.499c0 12.667 3.66699 23 11 31s16.666 12 27.999 12c12 0 21.5 -4 28.5 -12s10.5 -18.333 10.5 -31c0 -12 -3.5 -22 -10.5 -30s-16.5 -12 -28.5 -12z" />
    <glyph glyph-name="cedilla" unicode="&#xb8;" 
d="M147 2h36l-34 -56c18.667 -2.66699 34.5 -10.167 47.5 -22.5s19.5 -27.5 19.5 -45.5c0 -25.333 -8.5 -44.333 -25.5 -57s-38.5 -19 -64.5 -19c-22 0 -42 5.66699 -60 17l12 34c14.667 -9.33301 32 -14 52 -14c13.333 0 24.333 2.66699 33 8s12.667 14 12 26
c0 26 -25 41.333 -75 46z" />
    <glyph glyph-name="onesuperior" unicode="&#xb9;" horiz-adv-x="205" 
d="M140 436h-40v349h-2l-70 -37l-8 34l85 43h35v-389z" />
    <glyph glyph-name="ordmasculine" unicode="&#xba;" horiz-adv-x="324" 
d="M164 590h1.00098c42.667 0 76.5 -14.667 101.5 -44s37.5 -69.333 37.5 -120c-0.666992 -54 -15 -95.167 -43 -123.5s-61 -42.5 -99 -42.5c-40.667 0 -74.334 14.667 -101.001 44s-40 69 -40 119c0 50.667 14.167 91.167 42.5 121.5s61.833 45.5 100.5 45.5zM162.001 556
h-0.999023c-31.333 0 -55.5 -13.5 -72.5 -40.5s-25.5 -57.5 -25.5 -91.5c0 -35.333 9.66699 -65.833 29 -91.5s42.666 -38.5 69.999 -38.5c30 0 54.167 12.667 72.5 38s27.5 56.333 27.5 93c0 33.333 -8.16699 63.5 -24.5 90.5s-41.5 40.5 -75.5 40.5z" />
    <glyph glyph-name="guillemotright" unicode="&#xbb;" horiz-adv-x="375" 
d="M156 253l-131 176h47l131 -176l-130 -177h-47zM297 253l-130 176h47l131 -176l-130 -177h-48z" />
    <glyph glyph-name="onequarter" unicode="&#xbc;" horiz-adv-x="674" 
d="M165 265h-40v350h-2l-70 -37l-8 34l85 43h35v-390zM151 -10h-39l371 670h39zM581 0h-40v112h-186v23l189 260h37v-250h60v-33h-60v-112zM541 145l-0.000976562 138c0 26 1 46.667 3 62h-2c-11.333 -20 -22.666 -39 -33.999 -57l-102 -141v-2h135z" />
    <glyph glyph-name="onehalf" unicode="&#xbd;" horiz-adv-x="674" 
d="M149 265h-40v350h-2l-70 -37l-8 34l85 43h35v-390zM133 -10h-39l370 670h39zM390 0v21.999l56 56c42.667 42 74.834 79 96.501 111s32.5 62.333 32.5 91c0 24 -6.83301 43.333 -20.5 58s-33.5 22 -59.5 22c-27.333 0 -53.333 -10.667 -78 -32l-15 28
c27.333 26 61.666 39 102.999 39c38 0 66.333 -10.667 85 -32s28 -46.333 28 -75c0 -34 -11 -67.167 -33 -99.5s-54.667 -70.166 -98 -113.499l-36 -37v-2h174v-36h-235z" />
    <glyph glyph-name="threequarters" unicode="&#xbe;" horiz-adv-x="674" 
d="M65 599l-14.002 30c28 20.667 59.333 31 94 31s60.667 -8.66699 78 -26s26 -39 26 -65c0 -18.667 -6.16699 -36.167 -18.5 -52.5s-29.5 -28.833 -51.5 -37.5v-2c24.667 -4 45.167 -15.167 61.5 -33.5s24.5 -40.5 24.5 -66.5c0 -32 -12.167 -59.5 -36.5 -82.5
s-58.166 -34.5 -101.499 -34.5c-39.333 0 -71.333 8.66699 -96 26l14 33c24 -16.667 52.333 -25 85 -25c30.667 0 53.834 8 69.501 24s23.167 35 22.5 57c0 28 -10.5 49 -31.5 63s-47.5 21 -79.5 21h-20v32h21c22 0 43.333 6.5 64 19.5s31 31.833 31 56.5
c0 16.667 -5.5 30.667 -16.5 42s-27.5 17 -49.5 17c-28 0 -53.333 -9 -76 -27zM184.998 -10h-39l370 670h40zM589.998 0h-40v112h-187v23l190 260h37v-250h60v-33h-60v-112zM549.998 145v138c0 26 1 46.667 3 62h-2c-14.667 -26.667 -26 -46 -34 -58l-104 -140v-2h137z" />
    <glyph glyph-name="questiondown" unicode="&#xbf;" horiz-adv-x="355" 
d="M211 489h0.998047c11.333 0 20.5 -4.16699 27.5 -12.5s10.5 -18.833 10.5 -31.5c0 -12 -3.66699 -22.167 -11 -30.5s-16.666 -12.5 -27.999 -12.5s-20.666 4.16699 -27.999 12.5s-11 18.5 -11 30.5c0 13.333 3.5 24 10.5 32s16.5 12 28.5 12zM186.998 305h43l3 -22
c10 -62.667 -8.33301 -125.667 -55 -189c-26 -34.667 -44.833 -63.834 -56.5 -87.501s-17.5 -48.5 -17.5 -74.5c0 -32 8.83301 -56.5 26.5 -73.5s42.5 -25.5 74.5 -25.5c36 0 66.667 9.33301 92 28l16 -35c-13.333 -10 -31 -18.333 -53 -25s-43.333 -10 -64 -10
c-45.333 0 -80.333 13.333 -105 40s-37 59.334 -37 98.001c0 30 6.66699 58.167 20 84.5s34.333 58.5 63 96.5c22 30 37 57.833 45 83.5s10.333 54.167 7 85.5z" />
    <glyph glyph-name="Agrave" unicode="&#xc0;" horiz-adv-x="536" 
d="M388 235h-237l-74 -235h-47l218 674h45l218 -674h-48zM164 274h211l-71 215c-12 38.667 -23 81.667 -33 129h-3c-6.66699 -31.333 -17.667 -74 -33 -128zM143 820h70l99 -110h-40z" />
    <glyph glyph-name="Aacute" unicode="&#xc1;" horiz-adv-x="536" 
d="M388 235h-237l-74 -235h-47l218 674h45l218 -674h-48zM164 274h211l-71 215c-12 38.667 -23 81.667 -33 129h-3c-6.66699 -31.333 -17.667 -74 -33 -128zM328 820h71l-129 -110h-41z" />
    <glyph glyph-name="Acircumflex" unicode="&#xc2;" horiz-adv-x="536" 
d="M388 235h-237l-74 -235h-47l218 674h45l218 -674h-48zM164 274h211l-71 215c-12 38.667 -23 81.667 -33 129h-3c-6.66699 -31.333 -17.667 -74 -33 -128zM252 813h40l102 -103h-52l-69 68h-2l-68 -68h-50z" />
    <glyph glyph-name="Atilde" unicode="&#xc3;" horiz-adv-x="536" 
d="M388 235h-237l-74 -235h-47l218 674h45l219 -674h-48zM165 274l210 0.000976562l-70 215c-10.667 33.333 -22 76.333 -34 129h-3c-8.66699 -42.667 -19.667 -85.334 -33 -128.001zM193 717.001h-32.001c0 24 5.33301 44 16 60s25.334 24 44.001 24
c13.333 0 31 -6.66699 53 -20c22.667 -11.333 38.667 -17 48 -17c16.667 0 25.667 12.333 27 37h32c0 -52.667 -20 -79 -60 -79c-12.667 0 -31 6.33301 -55 19c-22.667 12.667 -38 19 -46 19c-14.667 0 -23.667 -14.333 -27 -43z" />
    <glyph glyph-name="Adieresis" unicode="&#xc4;" horiz-adv-x="536" 
d="M389 235h-238l-74 -235h-47l219 674h44l219 -674h-48zM165 274l210 0.000976562l-70 215c-10.667 33.333 -22 76.333 -34 129h-3c-8.66699 -42.667 -19.667 -85.334 -33 -128.001zM189 723.001h-1.00195c-10.667 0 -19.167 3.66699 -25.5 11s-9.5 16.666 -9.5 27.999
c0 10 3.5 18.833 10.5 26.5s15.5 11.5 25.5 11.5c10.667 0 19.334 -3.66699 26.001 -11s10 -16.333 10 -27c0 -11.333 -3.16699 -20.666 -9.5 -27.999s-15.166 -11 -26.499 -11zM353.998 723.001h-1.00195c-10.667 0 -19.167 3.66699 -25.5 11s-9.5 16.666 -9.5 27.999
c0 10 3.5 18.833 10.5 26.5s15.5 11.5 25.5 11.5c10.667 0 19.334 -3.66699 26.001 -11s10 -16.333 10 -27c0 -11.333 -3.16699 -20.666 -9.5 -27.999s-15.166 -11 -26.499 -11z" />
    <glyph glyph-name="Aring" unicode="&#xc5;" horiz-adv-x="536" 
d="M388 235h-237l-74 -235h-47l219 674h44l219 -674h-48zM164 274l211 0.000976562l-70 215c-10.667 33.333 -22 76.333 -34 129h-3c-8.66699 -42.667 -19.667 -85.334 -33 -128.001zM273 866.001h1c25.333 0 46.333 -8.33301 63 -25s25 -37 25 -61
c0 -23.333 -8.66699 -43 -26 -59s-38.333 -24 -63 -24c-26 0 -47.5 8 -64.5 24s-25.5 35.667 -25.5 59c0 24 8.5 44.333 25.5 61s38.5 25 64.5 25zM272 838.001h-1c-14.667 0 -26.5 -5.66699 -35.5 -17s-13.5 -25 -13.5 -41c0 -14 4.83301 -26.5 14.5 -37.5
s21.5 -16.5 35.5 -16.5c14.667 0 26.834 5.33301 36.501 16s14.5 24 14.5 40s-4.83301 29.333 -14.5 40s-21.834 16 -36.501 16z" />
    <glyph glyph-name="AE" unicode="&#xc6;" horiz-adv-x="676" 
d="M50 0h-47l286 674h334v-40h-261l25 -260h227v-40h-222l30 -294h225v-40h-266l-28 263h-190zM179 301h171l-20 218c0 2.66699 -1.5 20 -4.5 52s-4.83301 55 -5.5 69h-5c-4.66699 -12.667 -12.5 -32.667 -23.5 -60s-18.5 -46.333 -22.5 -57z" />
    <glyph glyph-name="Ccedilla" unicode="&#xc7;" horiz-adv-x="523" 
d="M465 58l13.0039 -38c-35.333 -18.667 -86.333 -28.334 -153 -29.001l-27 -44c18.667 -2.66699 34.5 -10.5 47.5 -23.5s19.5 -28.5 19.5 -46.5c0 -24.667 -8.66699 -43.167 -26 -55.5s-38.333 -18.5 -63 -18.5c-21.333 0 -42 5.66699 -62 17l13 34
c15.333 -9.33301 32.666 -14 51.999 -14c29.333 0 44 11.333 44 34c0 25.333 -25 40.666 -75 45.999l41 73c-72.667 7.33301 -132.834 39.166 -180.501 95.499s-71.5 137.5 -71.5 243.5c0 108.667 28.167 194.334 84.5 257.001s129.833 94 220.5 94
c57.333 0 101.666 -8.33301 132.999 -25l-15 -40c-34.667 16.667 -74.667 25 -120 25c-76.667 0 -138.334 -26.667 -185.001 -80s-70 -129.666 -70 -228.999c0 -97.333 22.5 -172.166 67.5 -224.499s106.167 -78.5 183.5 -78.5c52 0 95 9 129 27z" />
    <glyph glyph-name="Egrave" unicode="&#xc8;" horiz-adv-x="425" 
d="M364 375v-40h-242v-295h272v-40h-318v674h303v-40h-257v-259h242zM104 820h70l99 -110h-40z" />
    <glyph glyph-name="Eacute" unicode="&#xc9;" horiz-adv-x="425" 
d="M364 375v-40h-242v-295h272v-40h-318v674h303v-40h-257v-259h242zM294 820h71l-129 -110h-40z" />
    <glyph glyph-name="Ecircumflex" unicode="&#xca;" horiz-adv-x="425" 
d="M364 375v-40h-242v-295h272v-40h-318v674h303v-40h-257v-259h242zM204 813h40l101 -103h-52l-68 68h-2l-69 -68h-49z" />
    <glyph glyph-name="Edieresis" unicode="&#xcb;" horiz-adv-x="425" 
d="M364 375v-40h-242v-295h272v-40h-318v674h303v-40h-257v-259h242zM144 728l-1.00195 -0.00195312c-10.667 0 -19.167 3.5 -25.5 10.5s-9.5 16.167 -9.5 27.5c0 10.667 3.5 19.834 10.5 27.501s15.5 11.5 25.5 11.5c10.667 0 19.334 -3.66699 26.001 -11
s10 -16.666 10 -27.999s-3.16699 -20.5 -9.5 -27.5s-15.166 -10.5 -26.499 -10.5zM307.998 727.998l-1.00195 -0.00195312c-10.667 0 -19.167 3.5 -25.5 10.5s-9.5 16.167 -9.5 27.5c0 10.667 3.5 19.834 10.5 27.501s15.5 11.5 25.5 11.5
c10.667 0 19.334 -3.66699 26.001 -11s10 -16.666 10 -27.999s-3.16699 -20.5 -9.5 -27.5s-15.166 -10.5 -26.499 -10.5z" />
    <glyph glyph-name="Igrave" unicode="&#xcc;" horiz-adv-x="198" 
d="M76 674h46v-674h-46v674zM-31 820h71l99 -110h-41z" />
    <glyph glyph-name="Iacute" unicode="&#xcd;" horiz-adv-x="198" 
d="M76 674h46v-674h-46v674zM156 820h71l-129 -110h-41z" />
    <glyph glyph-name="Icircumflex" unicode="&#xce;" horiz-adv-x="198" 
d="M76 674h46v-674h-46v674zM79 813h40l101 -103h-52l-68 68h-2l-68 -68h-50z" />
    <glyph glyph-name="Idieresis" unicode="&#xcf;" horiz-adv-x="198" 
d="M76 674h46v-674h-46v674zM18 727h-1.00195c-10.667 0 -19.167 3.66699 -25.5 11s-9.5 16.666 -9.5 27.999c0 10 3.5 18.833 10.5 26.5s15.5 11.5 25.5 11.5c10.667 0 19.334 -3.66699 26.001 -11s10 -16.333 10 -27c0 -11.333 -3.16699 -20.666 -9.5 -27.999
s-15.166 -11 -26.499 -11zM181.998 727h-1.00195c-10.667 0 -19.167 3.66699 -25.5 11s-9.5 16.666 -9.5 27.999c0 10 3.5 18.833 10.5 26.5s15.5 11.5 25.5 11.5c10.667 0 19.334 -3.66699 26.001 -11s10 -16.333 10 -27c0 -11.333 -3.16699 -20.666 -9.5 -27.999
s-15.166 -11 -26.499 -11z" />
    <glyph glyph-name="Eth" unicode="&#xd0;" horiz-adv-x="584" 
d="M-3 326l-0.000976562 38h84v302c45.333 9.33301 94 14 146 14c104.667 0 182.334 -26 233.001 -78c58 -56 87 -139 87 -249c0 -112 -28 -199.667 -84 -263c-56 -64 -141.333 -96 -256 -96c-52 0 -94 2 -126 6v326h-84zM308.999 364v-38.001h-182v-288
c15.333 -2.66699 44 -4 86 -4c92.667 0 163.5 26.5 212.5 79.5s73.5 132.833 73.5 239.5c0.666992 90.667 -21.666 161.334 -66.999 212.001s-114.333 76 -207 76c-36.667 0 -69.334 -3 -98.001 -9v-268h182z" />
    <glyph glyph-name="Ntilde" unicode="&#xd1;" horiz-adv-x="577" 
d="M120 0h-45.001v674h45l225 -383c52 -92.667 91 -168 117 -226l2 1c-5.33301 78 -8 172.667 -8 284v324h45v-674h-44l-223 384c-57.333 100.667 -96.666 176 -117.999 226l-3 -1c4.66699 -69.333 7 -164.333 7 -285v-324zM215.999 717h-32.001c0 24 5.33301 44 16 60
s25.334 24 44.001 24c13.333 0 31 -6.66699 53 -20c22.667 -11.333 38.667 -17 48 -17c16.667 0 25.667 12.333 27 37h32c0 -52.667 -20 -79 -60 -79c-12.667 0 -31 6.33301 -55 19c-22.667 12.667 -38 19 -46 19c-14.667 0 -23.667 -14.333 -27 -43z" />
    <glyph glyph-name="Ograve" unicode="&#xd2;" horiz-adv-x="597" 
d="M295 -10h-0.999023c-74 0 -135.333 30.167 -184 90.5s-73 144.166 -73 251.499c0 110.667 25.167 197 75.5 259s114.166 93 191.499 93c75.333 0 136.833 -30.167 184.5 -90.5s71.5 -144.166 71.5 -251.499c0 -114.667 -25.5 -202 -76.5 -262s-113.833 -90 -188.5 -90z
M297.001 30h0.998047c46 0 85.667 15.333 119 46s57.5 68.834 72.5 114.501s22.5 95.5 22.5 149.5c0 36 -4.16699 71.333 -12.5 106s-20.666 67.167 -36.999 97.5s-38.666 54.666 -66.999 72.999s-60.5 27.5 -96.5 27.5c-48 0 -88.667 -15.833 -122 -47.5
s-57 -70.167 -71 -115.5s-21 -94.666 -21 -147.999c0 -50.667 7.5 -98.334 22.5 -143.001s39 -82.5 72 -113.5s72.167 -46.5 117.5 -46.5zM169.999 823h71l99 -110h-41z" />
    <glyph glyph-name="Oacute" unicode="&#xd3;" horiz-adv-x="597" 
d="M295 -10h-0.999023c-74 0 -135.333 30.167 -184 90.5s-73 144.166 -73 251.499c0 110.667 25.167 197 75.5 259s114.166 93 191.499 93c75.333 0 136.833 -30.167 184.5 -90.5s71.5 -144.166 71.5 -251.499c0 -114.667 -25.5 -202 -76.5 -262s-113.833 -90 -188.5 -90z
M297.001 30h0.998047c46 0 85.667 15.333 119 46s57.5 68.834 72.5 114.501s22.5 95.5 22.5 149.5c0 36 -4.16699 71.333 -12.5 106s-20.666 67.167 -36.999 97.5s-38.666 54.666 -66.999 72.999s-60.5 27.5 -96.5 27.5c-48 0 -88.667 -15.833 -122 -47.5
s-57 -70.167 -71 -115.5s-21 -94.666 -21 -147.999c0 -50.667 7.5 -98.334 22.5 -143.001s39 -82.5 72 -113.5s72.167 -46.5 117.5 -46.5zM354.999 823h71l-129 -110h-41z" />
    <glyph glyph-name="Ocircumflex" unicode="&#xd4;" horiz-adv-x="597" 
d="M295 -10h-0.999023c-74 0 -135.333 30.167 -184 90.5s-73 144.166 -73 251.499c0 110.667 25.167 197 75.5 259s114.166 93 191.499 93c75.333 0 136.833 -30.167 184.5 -90.5s71.5 -144.166 71.5 -251.499c0 -114.667 -25.5 -202 -76.5 -262s-113.833 -90 -188.5 -90z
M297.001 30h0.998047c46 0 85.667 15.333 119 46s57.5 68.834 72.5 114.501s22.5 95.5 22.5 149.5c0 36 -4.16699 71.333 -12.5 106s-20.666 67.167 -36.999 97.5s-38.666 54.666 -66.999 72.999s-60.5 27.5 -96.5 27.5c-48 0 -88.667 -15.833 -122 -47.5
s-57 -70.167 -71 -115.5s-21 -94.666 -21 -147.999c0 -50.667 7.5 -98.334 22.5 -143.001s39 -82.5 72 -113.5s72.167 -46.5 117.5 -46.5zM278.999 816h40l101 -103h-52l-68 68h-2l-69 -68h-50z" />
    <glyph glyph-name="Otilde" unicode="&#xd5;" horiz-adv-x="597" 
d="M295 -10h-1c-74 0 -135.333 30.167 -184 90.5s-73 144.166 -73 251.499c0 110.667 25.167 197 75.5 259s113.833 93 190.5 93c75.333 0 137 -30.167 185 -90.5s72 -144.166 72 -251.499c0 -114 -25.667 -201.167 -77 -261.5s-114 -90.5 -188 -90.5zM297 30
l0.99707 0.00390625c46 0 85.667 15.333 119 46s57.5 68.834 72.5 114.501s22.5 95.5 22.5 149.5c0 49.333 -7 96.166 -21 140.499s-37.667 82.666 -71 114.999s-73.666 48.5 -120.999 48.5s-87.666 -15.833 -120.999 -47.5s-57.166 -70.334 -71.499 -116.001
s-21.5 -94.834 -21.5 -147.501c0 -50.667 7.5 -98.334 22.5 -143.001s39 -82.5 72 -113.5s72.167 -46.5 117.5 -46.5zM220.997 719.004h-32.001c0 24 5.33301 44 16 60s25.334 24 44.001 24c13.333 0 31 -6.66699 53 -20c21.333 -11.333 37 -17 47 -17
c16.667 0 25.667 12.333 27 37h32c0 -52.667 -20 -79 -60 -79c-12.667 0 -30.667 6.33301 -54 19c-22.667 12.667 -38 19 -46 19c-14.667 0 -23.667 -14.333 -27 -43z" />
    <glyph glyph-name="Odieresis" unicode="&#xd6;" horiz-adv-x="597" 
d="M295 -10h-1c-74 0 -135.333 30.167 -184 90.5s-73 144.166 -73 251.499c0 110.667 25.167 197 75.5 259s113.833 93 190.5 93c75.333 0 137 -30.167 185 -90.5s72 -144.166 72 -251.499c0 -114 -25.667 -201.167 -77 -261.5s-114 -90.5 -188 -90.5zM297 30h0.999023
c46 0 85.667 15.333 119 46s57.5 68.834 72.5 114.501s22.5 95.5 22.5 149.5c0 49.333 -7 96.166 -21 140.499s-37.667 82.666 -71 114.999s-73.666 48.5 -120.999 48.5c-48 0 -88.667 -15.833 -122 -47.5s-57 -70.167 -71 -115.5s-21 -94.666 -21 -147.999
c0 -80 18.667 -150.5 56 -211.5s89.333 -91.5 156 -91.5zM215.999 727h-1.00195c-10.667 0 -19.167 3.66699 -25.5 11s-9.5 16.666 -9.5 27.999c0 10 3.5 18.833 10.5 26.5s15.5 11.5 25.5 11.5c10.667 0 19.334 -3.66699 26.001 -11s10 -16.333 10 -27
c0 -11.333 -3.16699 -20.666 -9.5 -27.999s-15.166 -11 -26.499 -11zM380.997 727h-1.00195c-10.667 0 -19.167 3.66699 -25.5 11s-9.5 16.666 -9.5 27.999c0 10 3.5 18.833 10.5 26.5s15.5 11.5 25.5 11.5c10.667 0 19.334 -3.66699 26.001 -11s10 -16.333 10 -27
c0 -11.333 -3.16699 -20.666 -9.5 -27.999s-15.166 -11 -26.499 -11z" />
    <glyph glyph-name="multiply" unicode="&#xd7;" horiz-adv-x="596" 
d="M40 496l29 30l229 -234l229 234l29 -30l-229 -233l228 -233l-29 -30l-228 233l-229 -233l-29 30l229 233z" />
    <glyph glyph-name="Oslash" unicode="&#xd8;" horiz-adv-x="597" 
d="M82 -28l-28.002 20.998l58 90c-50 62 -75 145.333 -75 250c0 110.667 25.333 196.834 76 258.501s113.334 92.5 188.001 92.5c59.333 0 112 -20 158 -60l52 78l31 -20l-57 -87c50 -62.667 75 -146.667 75 -252c0 -59.333 -7.33301 -112.166 -22 -158.499
s-34.5 -83.333 -59.5 -111s-52.667 -48.5 -83 -62.5s-62.166 -21 -95.499 -21c-64 0 -118.333 21 -163 63zM138.998 126.998l295 458c-38 39.333 -82.667 59 -134 59c-36 0 -68.333 -9.33301 -97 -28s-51.167 -43 -67.5 -73s-28.833 -62.667 -37.5 -98s-13 -71.333 -13 -108
c0 -76.667 17.333 -147 52 -211zM457.998 550.998l-297 -459.001c36 -41.333 81.667 -62 137 -62c46 0 85.667 15.667 119 47s57.5 69.833 72.5 115.5s22.5 94.834 22.5 147.501c0 80 -17.333 150 -52 210z" />
    <glyph glyph-name="Ugrave" unicode="&#xd9;" horiz-adv-x="567" 
d="M76 674h46v-423c0 -76 14.5 -131.833 43.5 -167.5s67.167 -53.5 114.5 -53.5c52 0 92.667 18.167 122 54.5s44 91.833 44 166.5v423h46v-418c0 -92.667 -19.833 -160.167 -59.5 -202.5s-91.167 -63.5 -154.5 -63.5c-59.333 0 -107.833 20.167 -145.5 60.5
s-56.5 105.5 -56.5 195.5v428zM156 820h71l99 -110h-40z" />
    <glyph glyph-name="Uacute" unicode="&#xda;" horiz-adv-x="567" 
d="M76 674h46v-423c0 -76 14.5 -131.833 43.5 -167.5s67.167 -53.5 114.5 -53.5c52 0 92.667 18.167 122 54.5s44 91.833 44 166.5v423h46v-418c0 -92.667 -19.833 -160.167 -59.5 -202.5s-91.167 -63.5 -154.5 -63.5c-59.333 0 -107.833 20.167 -145.5 60.5
s-56.5 105.5 -56.5 195.5v428zM351 820h71l-129 -110h-41z" />
    <glyph glyph-name="Ucircumflex" unicode="&#xdb;" horiz-adv-x="567" 
d="M76 674h46v-423c0 -76 14.5 -131.833 43.5 -167.5s67.167 -53.5 114.5 -53.5c52 0 92.667 18.167 122 54.5s44 91.833 44 166.5v423h46v-418c0 -92.667 -19.833 -160.167 -59.5 -202.5s-91.167 -63.5 -154.5 -63.5c-59.333 0 -107.833 20.167 -145.5 60.5
s-56.5 105.5 -56.5 195.5v428zM266 813h40l102 -103h-52l-69 68h-2l-68 -68h-50z" />
    <glyph glyph-name="Udieresis" unicode="&#xdc;" horiz-adv-x="567" 
d="M76 674h46v-423c0 -76 14.5 -131.833 43.5 -167.5s67.167 -53.5 114.5 -53.5c52 0 92.667 18.167 122 54.5s44 91.833 44 166.5v423h46v-418c0 -92.667 -20 -160.167 -60 -202.5s-91.333 -63.5 -154 -63.5c-59.333 0 -107.833 20.167 -145.5 60.5
s-56.5 105.5 -56.5 195.5v428zM202 727h-1.00195c-10.667 0 -19.167 3.66699 -25.5 11s-9.5 16.666 -9.5 27.999c0 10 3.5 18.833 10.5 26.5s15.5 11.5 25.5 11.5c10.667 0 19.334 -3.66699 26.001 -11s10 -16.333 10 -27c0 -11.333 -3.16699 -20.666 -9.5 -27.999
s-15.166 -11 -26.499 -11zM366.998 727h-1.00195c-10.667 0 -19.167 3.66699 -25.5 11s-9.5 16.666 -9.5 27.999c0 10 3.5 18.833 10.5 26.5s15.5 11.5 25.5 11.5c10.667 0 19.334 -3.66699 26.001 -11s10 -16.333 10 -27c0 -11.333 -3.16699 -20.666 -9.5 -27.999
s-15.166 -11 -26.499 -11z" />
    <glyph glyph-name="Yacute" unicode="&#xdd;" horiz-adv-x="469" 
d="M259 0h-45.999v295l-195 379h52l98 -193c39.333 -81.333 62.666 -131 69.999 -149h2c10 24.667 34.333 74.667 73 150l101 192h51l-206 -379v-295zM305.001 815h71l-130 -110h-40z" />
    <glyph glyph-name="Thorn" unicode="&#xde;" horiz-adv-x="459" 
d="M75 0v673.999h46v-140c28.667 5.33301 58.667 8 90 8c70.667 0 124 -18 160 -54c31.333 -31.333 47 -71.666 47 -120.999c0 -62 -21 -110.667 -63 -146s-97.333 -53 -166 -53c-22 0 -44.667 1.66699 -68 5v-173h-46zM121 494.999v-282c17.333 -4 40.666 -6 69.999 -6
c56.667 0 100.834 13.5 132.501 40.5s47.5 64.833 47.5 113.5c0 46.667 -14.5 82 -43.5 106s-69.5 36 -121.5 36c-34 0 -62.333 -2.66699 -85 -8z" />
    <glyph glyph-name="germandbls" unicode="&#xdf;" horiz-adv-x="479" 
d="M120 0l-45.9971 0.00488281v464c0 99.333 22 169 66 209c30 28 68.667 42 116 42c39.333 0 73.666 -13.167 102.999 -39.5s44 -65.166 44 -116.499c0 -30.667 -7.66699 -58.334 -23 -83.001c-52.667 -20 -79 -49.333 -79 -88c0 -12.667 3.16699 -25.334 9.5 -38.001
s12.166 -22 17.499 -28l31 -34c26 -26 45.5 -50 58.5 -72s19.5 -48 19.5 -78c0 -44.667 -14.833 -80.5 -44.5 -107.5s-67.834 -40.5 -114.501 -40.5c-38 0 -70.333 7 -97 21l13 39c29.333 -14 58 -21 86 -21c34.667 0 62 9.66699 82 29s30 43.666 30 72.999
c0 43.333 -21.333 84.666 -64 123.999c-24.667 24 -42.834 45.167 -54.501 63.5s-17.5 39.166 -17.5 62.499c0 54 31 94.667 93 122c6 15.333 9 31.666 9 48.999c0 42 -10.5 73 -31.5 93s-47.833 30 -80.5 30c-41.333 0 -72.666 -17 -93.999 -51s-32 -89.333 -32 -166v-458z
" />
    <glyph glyph-name="agrave" unicode="&#xe0;" horiz-adv-x="416" 
d="M346 311v-199.001c0 -46.667 2 -84 6 -112h-42l-6 64h-3c-12.667 -20.667 -30.5 -38.167 -53.5 -52.5s-49.833 -21.5 -80.5 -21.5c-40.667 0 -72.5 12.833 -95.5 38.5s-34.5 56.834 -34.5 93.501c0 56 22.667 99.167 68 129.5s110.333 45.166 195 44.499v14
c0 18 -1.16699 33.833 -3.5 47.5s-7 28.334 -14 44.001s-18.333 27.667 -34 36s-35.5 12.5 -59.5 12.5c-40.667 0 -75.667 -10.667 -105 -32l-13 34c35.333 25.333 77 38 125 38c100 0 150 -59.667 150 -179zM300 152.999l-0.000976562 104
c-143.333 3.33301 -215 -39.667 -215 -129c0 -32.667 8.33301 -57.334 25 -74.001s37.334 -25 62.001 -25c32 0 58.833 9 80.5 27s36.167 40.667 43.5 68c2.66699 8.66699 4 18.334 4 29.001zM77.999 684.999h65l87 -136h-35z" />
    <glyph glyph-name="aacute" unicode="&#xe1;" horiz-adv-x="416" 
d="M346 311v-199.001c0 -46.667 2 -84 6 -112h-42l-6 64h-3c-12.667 -20.667 -30.5 -38.167 -53.5 -52.5s-49.833 -21.5 -80.5 -21.5c-40.667 0 -72.5 12.833 -95.5 38.5s-34.5 56.834 -34.5 93.501c0 56 22.667 99.167 68 129.5s110.333 45.166 195 44.499v14
c0 18 -1.16699 33.833 -3.5 47.5s-7 28.334 -14 44.001s-18.333 27.667 -34 36s-35.5 12.5 -59.5 12.5c-40.667 0 -75.667 -10.667 -105 -32l-13 34c35.333 25.333 77 38 125 38c100 0 150 -59.667 150 -179zM300 152.999l-0.000976562 104
c-143.333 3.33301 -215 -39.667 -215 -129c0 -32.667 8.33301 -57.334 25 -74.001s37.334 -25 62.001 -25c32 0 58.833 9 80.5 27s36.167 40.667 43.5 68c2.66699 8.66699 4 18.334 4 29.001zM253.999 684.999h65l-117 -136h-35z" />
    <glyph glyph-name="acircumflex" unicode="&#xe2;" horiz-adv-x="416" 
d="M346 311v-199.001c0 -46.667 2 -84 6 -112h-42l-6 64h-3c-12.667 -20.667 -30.5 -38.167 -53.5 -52.5s-49.833 -21.5 -80.5 -21.5c-40.667 0 -72.5 12.833 -95.5 38.5s-34.5 56.834 -34.5 93.501c0 56 22.667 99.167 68 129.5s110.333 45.166 195 44.499v14
c0 18 -1.16699 33.833 -3.5 47.5s-7 28.334 -14 44.001s-18.333 27.667 -34 36s-35.5 12.5 -59.5 12.5c-40.667 0 -75.667 -10.667 -105 -32l-13 34c35.333 25.333 77 38 125 38c100 0 150 -59.667 150 -179zM300 152.999l-0.000976562 104
c-143.333 3.33301 -215 -39.667 -215 -129c0 -32.667 8.33301 -57.334 25 -74.001s37.334 -25 62.001 -25c32 0 58.833 9 80.5 27s36.167 40.667 43.5 68c2.66699 8.66699 4 18.334 4 29.001zM185.999 684.999h33l88 -136h-45l-58 97h-2l-59 -97h-43z" />
    <glyph glyph-name="atilde" unicode="&#xe3;" horiz-adv-x="416" 
d="M346 311l0.000976562 -199.001c0 -46.667 2 -84 6 -112h-42l-6 64h-3c-12.667 -20.667 -30.5 -38.167 -53.5 -52.5s-49.833 -21.5 -80.5 -21.5c-40.667 0 -72.5 12.833 -95.5 38.5s-34.5 56.834 -34.5 93.501c0 56 22.667 99.167 68 129.5s110.333 45.166 195 44.499v14
c0 18 -1.16699 33.833 -3.5 47.5s-7 28.334 -14 44.001s-18.333 27.667 -34 36s-35.5 12.5 -59.5 12.5c-40.667 0 -75.667 -10.667 -105 -32l-13 34c35.333 25.333 76.666 38 123.999 38c100.667 0 151 -59.667 151 -179zM300.001 152.999l-0.000976562 104
c-143.333 3.33301 -215 -39.667 -215 -129c0 -32.667 8.33301 -57.334 25 -74.001s37.334 -25 62.001 -25c32 0 58.833 9 80.5 27s36.167 40.667 43.5 68c2.66699 8.66699 4 18.334 4 29.001zM133 569.999h-33.001c-0.666992 25.333 4.33301 45.833 15 61.5
s25.334 23.5 44.001 23.5c8.66699 0 27 -7 55 -21c21.333 -10.667 35.333 -16 42 -16c16.667 0 26 13.333 28 40h32c0 -54.667 -19.667 -82 -59 -82c-13.333 0 -31.333 6.33301 -54 19c-20.667 12 -35 18 -43 18c-16 0 -25 -14.333 -27 -43z" />
    <glyph glyph-name="adieresis" unicode="&#xe4;" horiz-adv-x="416" 
d="M346 311v-199.001c0 -46.667 2 -84 6 -112h-42l-6 64h-3c-12.667 -20.667 -30.5 -38.167 -53.5 -52.5s-49.833 -21.5 -80.5 -21.5c-40.667 0 -72.5 12.833 -95.5 38.5s-34.5 56.834 -34.5 93.501c0 56 22.667 99.167 68 129.5s110.333 45.166 195 44.499v14
c0 18 -1.16699 33.833 -3.5 47.5s-7 28.334 -14 44.001s-18.333 27.667 -34 36s-35.5 12.5 -59.5 12.5c-40.667 0 -75.667 -10.667 -105 -32l-13 34c35.333 25.333 77 38 125 38c100 0 150 -59.667 150 -179zM300 152.999l-0.000976562 104
c-143.333 3.33301 -215 -39.667 -215 -129c0 -32.667 8.33301 -57.334 25 -74.001s37.334 -25 62.001 -25c32 0 58.833 9 80.5 27s36.167 40.667 43.5 68c2.66699 8.66699 4 18.334 4 29.001zM126.999 575.999h-0.999023c-10 0 -18.333 3.66699 -25 11s-10 16 -10 26
s3.5 18.667 10.5 26s15.833 11 26.5 11c10 0 18.333 -3.66699 25 -11s10 -16 10 -26s-3.33301 -18.667 -10 -26s-15.334 -11 -26.001 -11zM289 575.999h-0.999023c-10 0 -18.333 3.66699 -25 11s-10 16 -10 26s3.5 18.667 10.5 26s15.833 11 26.5 11
c10 0 18.333 -3.66699 25 -11s10 -16 10 -26s-3.33301 -18.667 -10 -26s-15.334 -11 -26.001 -11z" />
    <glyph glyph-name="aring" unicode="&#xe5;" horiz-adv-x="416" 
d="M346 311l0.000976562 -199.001c0 -46.667 2 -84 6 -112h-42l-6 64h-3c-12.667 -20.667 -30.5 -38.167 -53.5 -52.5s-49.833 -21.5 -80.5 -21.5c-40.667 0 -72.5 12.833 -95.5 38.5s-34.5 56.834 -34.5 93.501c0 56 22.667 99.167 68 129.5s110.333 45.166 195 44.499v14
c0 18 -1.16699 33.833 -3.5 47.5s-7 28.334 -14 44.001s-18.333 27.667 -34 36s-35.5 12.5 -59.5 12.5c-40.667 0 -75.667 -10.667 -105 -32l-13 34c35.333 25.333 76.666 38 123.999 38c100.667 0 151 -59.667 151 -179zM300.001 152.999l-0.000976562 104
c-143.333 3.33301 -215 -39.667 -215 -129c0 -32.667 8.33301 -57.334 25 -74.001s37.334 -25 62.001 -25c32 0 58.833 9 80.5 27s36.167 40.667 43.5 68c2.66699 8.66699 4 18.334 4 29.001zM206 709.999h1c24.667 0 45.667 -8.66699 63 -26s26 -38.333 26 -63
c0 -24 -9 -44.5 -27 -61.5s-39 -25.5 -63 -25.5c-26 0 -47.833 8.5 -65.5 25.5s-26.5 37.5 -26.5 61.5c0 24.667 8.66699 45.667 26 63s39.333 26 66 26zM205 679.999l-1.00098 0.000976562c-15.333 0 -27.666 -5.66699 -36.999 -17s-14 -25.333 -14 -42
c0 -14.667 5 -27.834 15 -39.501s22.333 -17.5 37 -17.5c16 0 29 5.66699 39 17s15 25 15 41c0 16.667 -5 30.5 -15 41.5s-23 16.5 -39 16.5z" />
    <glyph glyph-name="ae" unicode="&#xe6;" horiz-adv-x="683" 
d="M644 253l-299.002 0.000976562c-2 -75.333 11.167 -131.333 39.5 -168s66.5 -55 114.5 -55c45.333 0 83 8.66699 113 26l12 -36c-34 -20 -78 -30 -132 -30c-38 0 -72.167 10 -102.5 30s-50.833 47.667 -61.5 83h-2c-10.667 -35.333 -30.334 -63 -59.001 -83
s-61.667 -30 -99 -30c-41.333 0 -73.5 12.5 -96.5 37.5s-34.5 55.5 -34.5 91.5c0 55.333 22.833 98 68.5 128s111.167 44.667 196.5 44v26c0 13.333 -1.5 26.666 -4.5 39.999s-8 27.5 -15 42.5s-18.5 27.333 -34.5 37s-35.333 14.5 -58 14.5c-40.667 0 -76 -11 -106 -33
l-15 34c38 25.333 79.667 38 125 38c77.333 0 123.333 -36.333 138 -109h1c13.333 34 33.333 60.667 60 80s57.334 29 92.001 29c31.333 0 58.333 -7.5 81 -22.5s39.334 -34.333 50.001 -58s18.334 -46 23.001 -67s7 -41.167 7 -60.5c0 -13.333 -0.666992 -23 -2 -29z
M301.998 163.001l-0.000976562 89.999c-145.333 3.33301 -218 -39.667 -218 -129c0 -30 8.5 -53.333 25.5 -70s38.167 -25 63.5 -25c32.667 -0.666992 59.834 8.33301 81.501 27s36.167 42.667 43.5 72c2.66699 10.667 4 22.334 4 35.001zM345.997 291h252.002
c1.33301 41.333 -8.33398 78.333 -29.001 111s-50 49 -88 49c-40.667 0 -72.834 -16.5 -96.501 -49.5s-36.5 -69.833 -38.5 -110.5z" />
    <glyph glyph-name="ccedilla" unicode="&#xe7;" horiz-adv-x="398" 
d="M359 55l12.999 -35.999c-32.667 -18 -72 -27.333 -118 -28l-28 -45c19.333 -2.66699 35.5 -10.167 48.5 -22.5s19.5 -27.5 19.5 -45.5c0 -24.667 -8.66699 -43.5 -26 -56.5s-38.666 -19.5 -63.999 -19.5c-22.667 0 -43 5.66699 -61 17l13 34
c14 -9.33301 31.333 -14 52 -14c30 0 45 11.667 45 35c-0.666992 26 -25.667 41.333 -75 46l41 73c-54.667 7.33301 -98.334 32.666 -131.001 75.999s-49 99 -49 167c0 74 20.833 134.833 62.5 182.5s95.834 71.5 162.501 71.5c46 0 82 -8.66699 108 -26l-16 -39
c-29.333 16 -61.666 24 -96.999 24c-55.333 0 -98 -20.5 -128 -61.5s-45 -91.167 -45 -150.5c0 -62.667 15.667 -112.667 47 -150s72.333 -56 123 -56c35.333 0 69.666 8 102.999 24z" />
    <glyph glyph-name="egrave" unicode="&#xe8;" horiz-adv-x="438" 
d="M399 249h-314.001c0 -77.333 15.333 -133 46 -167s70 -51 118 -51c46.667 0 85.334 8.33301 116.001 25l11 -36c-32 -19.333 -76.333 -29 -133 -29c-63.333 0 -113.166 22.167 -149.499 66.5s-54.5 102.833 -54.5 175.5c0 78 18 140.333 54 187s82.667 70 140 70
c32.667 0 60.667 -7.33301 84 -22s40.666 -33.667 51.999 -57s19.333 -46 24 -68s7 -43.667 7 -65c0 -13.333 -0.333008 -23 -1 -29zM86.999 286l265 0.000976562c1.33301 45.333 -8.5 84.166 -29.5 116.499s-52.833 48.5 -95.5 48.5c-42 0 -74.667 -16.5 -98 -49.5
s-37.333 -71.5 -42 -115.5zM119.999 685.001h67l87 -136h-36z" />
    <glyph glyph-name="eacute" unicode="&#xe9;" horiz-adv-x="438" 
d="M399 249h-314.001c0 -77.333 15.333 -133 46 -167s70 -51 118 -51c46.667 0 85.334 8.33301 116.001 25l11 -36c-32 -19.333 -76.333 -29 -133 -29c-63.333 0 -113.166 22.167 -149.499 66.5s-54.5 102.833 -54.5 175.5c0 78 18 140.333 54 187s82.667 70 140 70
c32.667 0 60.667 -7.33301 84 -22s40.666 -33.667 51.999 -57s19.333 -46 24 -68s7 -43.667 7 -65c0 -13.333 -0.333008 -23 -1 -29zM86.999 286l265 0.000976562c1.33301 45.333 -8.5 84.166 -29.5 116.499s-52.833 48.5 -95.5 48.5c-42 0 -74.667 -16.5 -98 -49.5
s-37.333 -71.5 -42 -115.5zM282.999 685.001h66l-118 -136h-35z" />
    <glyph glyph-name="ecircumflex" unicode="&#xea;" horiz-adv-x="438" 
d="M399 249h-314.001c0 -77.333 15.333 -133 46 -167s70 -51 118 -51c46.667 0 85.334 8.33301 116.001 25l11 -36c-32 -19.333 -76.333 -29 -133 -29c-63.333 0 -113.166 22.167 -149.499 66.5s-54.5 102.833 -54.5 175.5c0 78 18 140.333 54 187s82.667 70 140 70
c32.667 0 60.667 -7.33301 84 -22s40.666 -33.667 51.999 -57s19.333 -46 24 -68s7 -43.667 7 -65c0 -13.333 -0.333008 -23 -1 -29zM86.999 286l265 0.000976562c1.33301 45.333 -8.5 84.166 -29.5 116.499s-52.833 48.5 -95.5 48.5c-42 0 -74.667 -16.5 -98 -49.5
s-37.333 -71.5 -42 -115.5zM213.999 685.001h34l88 -136h-45l-59 97h-2l-59 -97h-43z" />
    <glyph glyph-name="edieresis" unicode="&#xeb;" horiz-adv-x="438" 
d="M399 249h-314.001c0 -77.333 15.333 -133 46 -167s70 -51 118 -51c46.667 0 85.334 8.33301 116.001 25l11 -36c-32 -19.333 -76.333 -29 -133 -29c-63.333 0 -113.166 22.333 -149.499 67s-54.5 103 -54.5 175c0 78 18 140.333 54 187s82.667 70 140 70
c32.667 0 60.667 -7.33301 84 -22s40.666 -33.667 51.999 -57s19.333 -46 24 -68s7 -43.667 7 -65c0 -13.333 -0.333008 -23 -1 -29zM86.999 286h264.999c1.33301 46 -8.5 85 -29.5 117s-53.167 48 -96.5 48c-41.333 0 -73.666 -16.5 -96.999 -49.5
s-37.333 -71.5 -42 -115.5zM154.998 576h-0.999023c-10 0 -18.333 3.66699 -25 11s-10 16 -10 26s3.5 18.667 10.5 26s15.833 11 26.5 11c10 0 18.333 -3.66699 25 -11s10 -16 10 -26s-3.33301 -18.667 -10 -26s-15.334 -11 -26.001 -11zM316.999 576h-0.999023
c-10 0 -18.333 3.66699 -25 11s-10 16 -10 26s3.5 18.667 10.5 26s15.833 11 26.5 11c10 0 18.333 -3.66699 25 -11s10 -16 10 -26s-3.33301 -18.667 -10 -26s-15.334 -11 -26.001 -11z" />
    <glyph glyph-name="igrave" unicode="&#xec;" horiz-adv-x="195" 
d="M120 0h-46v480h46v-480zM-28 685h65l87 -136h-35z" />
    <glyph glyph-name="iacute" unicode="&#xed;" horiz-adv-x="195" 
d="M120 0h-46v480h46v-480zM145 685h66l-118 -136h-35z" />
    <glyph glyph-name="icircumflex" unicode="&#xee;" horiz-adv-x="195" 
d="M120 0h-46v480h46v-480zM80 685h33l88 -136h-45l-59 97h-2l-58 -97h-43z" />
    <glyph glyph-name="idieresis" unicode="&#xef;" horiz-adv-x="195" 
d="M120 0h-46v480h46v-480zM17 576h-0.999023c-10 0 -18.333 3.66699 -25 11s-10 16 -10 26s3.5 18.667 10.5 26s15.833 11 26.5 11c10 0 18.333 -3.66699 25 -11s10 -16 10 -26s-3.33301 -18.667 -10 -26s-15.334 -11 -26.001 -11zM178.001 576h-0.999023
c-10 0 -18.333 3.66699 -25 11s-10 16 -10 26s3.5 18.667 10.5 26s15.833 11 26.5 11c10 0 18.333 -3.66699 25 -11s10 -16 10 -26s-3.33301 -18.667 -10 -26s-15.334 -11 -26.001 -11z" />
    <glyph glyph-name="eth" unicode="&#xf0;" horiz-adv-x="470" 
d="M231 29l1.00098 -0.000976562c46 0 82.333 20.833 109 62.5s40 91.5 40 149.5c0 69.333 -11.333 121 -34 155c-26 36.667 -63.667 55 -113 55c-34 0 -62.833 -12.167 -86.5 -36.5s-39.834 -51.666 -48.501 -81.999s-13 -61.833 -13 -94.5
c0 -56 13.5 -104.833 40.5 -146.5s61.833 -62.5 104.5 -62.5zM107.001 519.999l-14.001 31.999l112 57c-22 20 -55.667 44.333 -101 73l23 33c46 -28.667 85 -57 117 -85l112 59l16 -32l-100 -53c50 -46 88.333 -96.667 115 -152c28 -61.333 42 -129.666 42 -204.999
c0 -84.667 -19.667 -148.667 -59 -192s-86 -65 -140 -65c-55.333 0 -101 22 -137 66s-54 104 -54 180c0 78.667 19.333 140.667 58 186s84 68 136 68c44.667 0 82.334 -15.333 113.001 -46l2 3c-27.333 50 -65.333 95.667 -114 137z" />
    <glyph glyph-name="ntilde" unicode="&#xf1;" horiz-adv-x="487" 
d="M74 0l0.00292969 366c0 26.667 -1.33301 64.667 -4 114h43l3 -79h2c12.667 26 32 47.333 58 64s56 25 90 25c11.333 0 22.666 -1.33301 33.999 -4s24.166 -8.16699 38.499 -16.5s27 -19 38 -32s20.167 -31.333 27.5 -55s11 -50.834 11 -81.501v-301h-46v293
c0 46 -9 83.667 -27 113s-47.667 44 -89 44c-29.333 0 -55.833 -10 -79.5 -30s-39.834 -45.667 -48.501 -77c-3.33301 -13.333 -5 -27.666 -5 -42.999v-300h-46zM169.003 570h-33.001c-0.666992 25.333 4.33301 45.833 15 61.5s25.334 23.5 44.001 23.5
c8.66699 0 27 -7 55 -21c21.333 -10.667 35.333 -16 42 -16c16.667 0 26 13.333 28 40h32c0 -54.667 -19.667 -82 -59 -82c-13.333 0 -31.333 6.33301 -54 19c-20.667 12 -35 18 -43 18c-16 0 -25 -14.333 -27 -43z" />
    <glyph glyph-name="ograve" unicode="&#xf2;" horiz-adv-x="478" 
d="M236 -10h-1c-56 0 -102.667 22 -140 66s-56 104.333 -56 181c0 80 19.667 142.167 59 186.5s87.333 66.5 144 66.5c58 0 105.333 -22.167 142 -66.5s55 -104.5 55 -180.5c0 -82.667 -20.333 -145.5 -61 -188.5s-88 -64.5 -142 -64.5zM237 29l0.999023 0.00292969
c45.333 0 82.333 21.167 111 63.5s43 92.166 43 149.499c0 31.333 -4.5 62 -13.5 92s-25.667 57 -50 81s-54.166 36 -89.499 36c-34.667 0 -64 -11.333 -88 -34s-40.833 -49.334 -50.5 -80.001s-14.5 -63.334 -14.5 -98.001c0 -56 14 -105 42 -147s64.333 -63 109 -63z
M128.999 685.003h66l87 -136h-36z" />
    <glyph glyph-name="oacute" unicode="&#xf3;" horiz-adv-x="478" 
d="M236 -10h-1c-56 0 -102.667 22 -140 66s-56 104.333 -56 181c0 80 19.667 142.167 59 186.5s87.333 66.5 144 66.5c58 0 105.333 -22.167 142 -66.5s55 -104.5 55 -180.5c0 -82.667 -20.333 -145.5 -61 -188.5s-88 -64.5 -142 -64.5zM237 29l0.999023 0.00292969
c45.333 0 82.333 21.167 111 63.5s43 92.166 43 149.499c0 31.333 -4.5 62 -13.5 92s-25.667 57 -50 81s-54.166 36 -89.499 36c-34.667 0 -64 -11.333 -88 -34s-40.833 -49.334 -50.5 -80.001s-14.5 -63.334 -14.5 -98.001c0 -56 14 -105 42 -147s64.333 -63 109 -63z
M284.999 685.003h66l-118 -136h-35z" />
    <glyph glyph-name="ocircumflex" unicode="&#xf4;" horiz-adv-x="478" 
d="M236 -10h-1c-56 0 -102.667 22 -140 66s-56 104.333 -56 181c0 80 19.667 142.167 59 186.5s87.333 66.5 144 66.5c58 0 105.333 -22.167 142 -66.5s55 -104.5 55 -180.5c0 -82.667 -20.333 -145.5 -61 -188.5s-88 -64.5 -142 -64.5zM237 29l0.999023 0.00292969
c45.333 0 82.333 21.167 111 63.5s43 92.166 43 149.499c0 31.333 -4.5 62 -13.5 92s-25.667 57 -50 81s-54.166 36 -89.499 36c-34.667 0 -64 -11.333 -88 -34s-40.833 -49.334 -50.5 -80.001s-14.5 -63.334 -14.5 -98.001c0 -56 14 -105 42 -147s64.333 -63 109 -63z
M221.999 685.003h33l88 -136h-45l-59 97h-2l-59 -97h-43z" />
    <glyph glyph-name="otilde" unicode="&#xf5;" horiz-adv-x="478" 
d="M236 -10h-1c-56 0 -102.667 22 -140 66s-56 104.333 -56 181c0 80 19.667 142.167 59 186.5s87.333 66.5 144 66.5c58 0 105.333 -22.167 142 -66.5s55 -104.5 55 -180.5c0 -82.667 -20.333 -145.5 -61 -188.5s-88 -64.5 -142 -64.5zM237 29l1 0.00292969
c45.333 0 82.333 21.167 111 63.5s43 92.166 43 149.499c0 31.333 -4.5 62 -13.5 92s-25.5 57 -49.5 81s-53.667 36 -89 36c-34.667 0 -64 -11.333 -88 -34s-41 -49.334 -51 -80.001s-15 -63.334 -15 -98.001c0 -56 14.167 -105 42.5 -147s64.5 -63 108.5 -63zM165 570.003
h-32.998c-0.666992 25.333 4.33301 45.833 15 61.5s25 23.5 43 23.5c9.33301 0 28 -7 56 -21c20 -10.667 33.667 -16 41 -16c16.667 0 26 13.333 28 40h32c0 -54.667 -19.667 -82 -59 -82c-12.667 0 -30.334 6.33301 -53.001 19c-20.667 12 -35.334 18 -44.001 18
c-15.333 0 -24 -14.333 -26 -43z" />
    <glyph glyph-name="odieresis" unicode="&#xf6;" horiz-adv-x="478" 
d="M236 -10h-1c-56 0 -102.667 22 -140 66s-56 104.333 -56 181c0 80 19.833 142.167 59.5 186.5s87.5 66.5 143.5 66.5c58 0 105.333 -22.167 142 -66.5s55 -104.5 55 -180.5c0 -82.667 -20.333 -145.5 -61 -188.5s-88 -64.5 -142 -64.5zM238 29l0.999023 0.00292969
c44.667 0 81.334 21.167 110.001 63.5s43 92.166 43 149.499c0 31.333 -4.5 62 -13.5 92s-25.5 57 -49.5 81s-53.667 36 -89 36c-34.667 0 -64 -11.333 -88 -34s-41 -49.334 -51 -80.001s-15 -63.334 -15 -98.001c0 -56 14.167 -105 42.5 -147s64.833 -63 109.5 -63z
M158.999 576.003h-0.999023c-10 0 -18.333 3.66699 -25 11s-10 16 -10 26s3.5 18.667 10.5 26s15.833 11 26.5 11c10 0 18.333 -3.66699 25 -11s10 -16 10 -26s-3.33301 -18.667 -10 -26s-15.334 -11 -26.001 -11zM320 576.003h-0.999023c-10 0 -18.333 3.66699 -25 11
s-10 16 -10 26s3.5 18.667 10.5 26s15.833 11 26.5 11c10 0 18.333 -3.66699 25 -11s10 -16 10 -26s-3.33301 -18.667 -10 -26s-15.334 -11 -26.001 -11z" />
    <glyph glyph-name="divide" unicode="&#xf7;" horiz-adv-x="596" 
d="M298 402l-1 0.000976562c-10.667 0 -19.667 4.16699 -27 12.5s-11 18.166 -11 29.499c0 12 3.66699 22 11 30s17 12 29 12s21.5 -4 28.5 -12s10.5 -18 10.5 -30s-3.66699 -22 -11 -30s-17 -12 -29 -12zM556 248.001h-516v39h516v-39zM298 49.001l-1 0.000976562
c-10.667 0 -19.667 4.16699 -27 12.5s-11 18.166 -11 29.499c0 12 3.66699 22 11 30s17 12 29 12s21.5 -4 28.5 -12s10.5 -18 10.5 -30s-3.66699 -22 -11 -30s-17 -12 -29 -12z" />
    <glyph glyph-name="oslash" unicode="&#xf8;" horiz-adv-x="478" 
d="M240 490h0.999023c41.333 0 78.333 -12.333 111 -37l34 53l31 -19l-38 -61c40 -46 60 -106.667 60 -182c0 -83.333 -20 -146.5 -60 -189.5s-86.667 -64.5 -140 -64.5c-43.333 0 -80.666 12.333 -111.999 37l-35 -54l-29 22l37 58c-40.667 46 -61 107.333 -61 184
c0 80 19.5 142.167 58.5 186.5s86.5 66.5 142.5 66.5zM124.999 93l203.999 322c-22 24 -52 36 -90 36c-51.333 0 -89.666 -21.667 -114.999 -65s-38 -92.333 -38 -147c0 -56 12.667 -104.333 38 -145zM352.998 384l-203 -321c23.333 -22.667 52 -34 86 -34
c48 0 86 21 114 63s42 92 42 150c0 54 -12.333 101.333 -37 142h-2z" />
    <glyph glyph-name="ugrave" unicode="&#xf9;" horiz-adv-x="481" 
d="M407 480v-362.001c0 -32 1.33301 -71.333 4 -118h-43l-3 74h-2c-12 -22 -30.5 -41.5 -55.5 -58.5s-54.833 -25.5 -89.5 -25.5c-40 0 -74.5 15.333 -103.5 46s-43.5 82.334 -43.5 155.001v289h46v-280c0 -113.333 37.333 -170 112 -170c30.667 0 57 9.5 79 28.5
s37.333 40.5 46 64.5c4.66699 17.333 7 34.333 7 51v306h46zM125 684.999h66l87 -136h-35z" />
    <glyph glyph-name="uacute" unicode="&#xfa;" horiz-adv-x="481" 
d="M407 480v-362.001c0 -32 1.33301 -71.333 4 -118h-43l-3 74h-2c-12 -22 -30.5 -41.5 -55.5 -58.5s-54.833 -25.5 -89.5 -25.5c-40 0 -74.5 15.333 -103.5 46s-43.5 82.334 -43.5 155.001v289h46v-280c0 -113.333 37.333 -170 112 -170c30.667 0 57 9.5 79 28.5
s37.333 40.5 46 64.5c4.66699 17.333 7 34.333 7 51v306h46zM299 684.999h66l-117 -136h-36z" />
    <glyph glyph-name="ucircumflex" unicode="&#xfb;" horiz-adv-x="481" 
d="M407 480v-362.001c0 -32 1.33301 -71.333 4 -118h-43l-3 74h-2c-12 -22 -30.5 -41.5 -55.5 -58.5s-54.833 -25.5 -89.5 -25.5c-40 0 -74.5 15.333 -103.5 46s-43.5 82.334 -43.5 155.001v289h46v-280c0 -113.333 37.333 -170 112 -170c30.667 0 57 9.5 79 28.5
s37.333 40.5 46 64.5c4.66699 17.333 7 34.333 7 51v306h46zM222 684.999h34l88 -136h-45l-59 97h-2l-59 -97h-43z" />
    <glyph glyph-name="udieresis" unicode="&#xfc;" horiz-adv-x="481" 
d="M407 480v-362.001c0 -32 1.33301 -71.333 4 -118h-43l-3 74h-2c-12 -22 -30.5 -41.5 -55.5 -58.5s-54.833 -25.5 -89.5 -25.5c-40 0 -74.5 15.333 -103.5 46s-43.5 82.334 -43.5 155.001v289h46v-280c0 -113.333 37.333 -170 112 -170c30.667 0 57 9.5 79 28.5
s37.333 40.5 46 64.5c4.66699 17.333 7 34.333 7 51v306h46zM162 575.999h-0.999023c-10 0 -18.333 3.66699 -25 11s-10 16 -10 26s3.5 18.667 10.5 26s15.833 11 26.5 11c10 0 18.333 -3.66699 25 -11s10 -16 10 -26s-3.33301 -18.667 -10 -26s-15.334 -11 -26.001 -11z
M324.001 575.999h-0.999023c-10 0 -18.333 3.66699 -25 11s-10 16 -10 26s3.5 18.667 10.5 26s15.833 11 26.5 11c10 0 18.333 -3.66699 25 -11s10 -16 10 -26s-3.33301 -18.667 -10 -26s-15.334 -11 -26.001 -11z" />
    <glyph glyph-name="yacute" unicode="&#xfd;" horiz-adv-x="403" 
d="M13 480h48.999l110 -307c11.333 -33.333 22 -68.666 32 -105.999h2l33 108l103 305h49l-121 -332c-30 -86 -55.5 -152 -76.5 -198s-45.833 -83.333 -74.5 -112c-27.333 -26.667 -54 -45.334 -80 -56.001l-18 39c30.667 14 57.334 33.667 80.001 59
c30 34 53.333 71.667 70 113c3.33301 10 5 17.667 5 23s-1.33301 12 -4 20zM258.999 685h66l-118 -136h-35z" />
    <glyph glyph-name="thorn" unicode="&#xfe;" horiz-adv-x="497" 
d="M74 663h46v-261h2c32.667 58.667 84 88 154 88c52.667 0 96.167 -22 130.5 -66s51.5 -103.333 51.5 -178c0 -83.333 -19.167 -146.833 -57.5 -190.5s-84.833 -65.5 -139.5 -65.5c-62.667 0 -109 26.333 -139 79h-2v-265h-46v859zM120 283l0.00292969 -101.003
c0 -13.333 1.66699 -26.666 5 -39.999c10 -37.333 27.667 -65.5 53 -84.5s54 -28.5 86 -28.5c45.333 0 81.166 19.833 107.499 59.5s39.5 91.834 39.5 156.501c0 57.333 -13.167 106 -39.5 146s-62.5 60 -108.5 60c-30.667 0 -58.834 -11.167 -84.501 -33.5
s-42.834 -50.833 -51.501 -85.5c-4.66699 -17.333 -7 -33.666 -7 -48.999z" />
    <glyph glyph-name="ydieresis" unicode="&#xff;" horiz-adv-x="403" 
d="M14 480l48 -0.00195312l110 -307c11.333 -33.333 22 -68.666 32 -105.999h2l33 108l103 305h48l-120 -332c-30 -86 -55.5 -152 -76.5 -198s-45.833 -83.333 -74.5 -112c-27.333 -26.667 -54 -45.334 -80 -56.001l-17 39c30 14.667 56.667 34.334 80 59.001
c28.667 32.667 51.667 70.334 69 113.001c4 12 6 19.667 6 23s-1.66699 10 -5 20zM130 575.998h-0.999023c-10 0 -18.333 3.66699 -25 11s-10 16 -10 26s3.5 18.667 10.5 26s15.833 11 26.5 11c10 0 18.333 -3.66699 25 -11s10 -16 10 -26s-3.33301 -18.667 -10 -26
s-15.334 -11 -26.001 -11zM291.001 575.998h-0.999023c-10 0 -18.333 3.66699 -25 11s-10 16 -10 26s3.5 18.667 10.5 26s15.833 11 26.5 11c10 0 18.333 -3.66699 25 -11s10 -16 10 -26s-3.33301 -18.667 -10 -26s-15.334 -11 -26.001 -11z" />
    <glyph glyph-name="Amacron" unicode="&#x100;" horiz-adv-x="536" 
d="M388 235h-237l-74 -235h-47l218 674h45l218 -674h-48zM164 274h211l-71 215c-12 38.667 -23 81.667 -33 129h-3c-6.66699 -31.333 -17.667 -74 -33 -128zM159 772h219v-38h-219v38z" />
    <glyph glyph-name="amacron" unicode="&#x101;" horiz-adv-x="416" 
d="M346 311v-199.001c0 -46.667 2 -84 6 -112h-42l-6 64h-3c-12.667 -20.667 -30.5 -38.167 -53.5 -52.5s-49.833 -21.5 -80.5 -21.5c-40.667 0 -72.5 12.833 -95.5 38.5s-34.5 56.834 -34.5 93.501c0 56 22.667 99.167 68 129.5s110.333 45.166 195 44.499v14
c0 18 -1.16699 33.833 -3.5 47.5s-7 28.334 -14 44.001s-18.333 27.667 -34 36s-35.5 12.5 -59.5 12.5c-40.667 0 -75.667 -10.667 -105 -32l-13 34c35.333 25.333 77 38 125 38c100 0 150 -59.667 150 -179zM300 152.999l-0.000976562 104
c-143.333 3.33301 -215 -39.667 -215 -129c0 -32.667 8.33301 -57.334 25 -74.001s37.334 -25 62.001 -25c32 0 58.833 9 80.5 27s36.167 40.667 43.5 68c2.66699 8.66699 4 18.334 4 29.001zM106.999 624.999h203v-38h-203v38z" />
    <glyph glyph-name="Abreve" unicode="&#x102;" horiz-adv-x="536" 
d="M388 235h-237l-74 -235h-47l218 674h45l218 -674h-48zM164 274h210l-70 215c-10.667 33.333 -22 76.333 -34 129h-2c-10.667 -46 -22 -88.667 -34 -128zM159 804h33.001c8 -32 33.333 -48 76 -48c44 0 69.333 16 76 48h33c-0.666992 -26.667 -10.5 -48.5 -29.5 -65.5
s-45.833 -25.5 -80.5 -25.5c-34 0 -60.333 8.33301 -79 25s-28.334 38.667 -29.001 66z" />
    <glyph glyph-name="abreve" unicode="&#x103;" horiz-adv-x="416" 
d="M346 311v-199.001c0 -46.667 2 -84 6 -112h-42l-6 64h-3c-12.667 -20.667 -30.5 -38.167 -53.5 -52.5s-49.833 -21.5 -80.5 -21.5c-40.667 0 -72.5 12.833 -95.5 38.5s-34.5 56.834 -34.5 93.501c0 56 22.667 99.167 68 129.5s110.333 45.166 195 44.499v14
c0 18 -1.16699 33.833 -3.5 47.5s-7 28.334 -14 44.001s-18.333 27.667 -34 36s-35.5 12.5 -59.5 12.5c-40.667 0 -75.667 -10.667 -105 -32l-13 34c35.333 25.333 77 38 125 38c100 0 150 -59.667 150 -179zM300 152.999l-0.000976562 104
c-143.333 3.33301 -215 -39.667 -215 -129c0 -32.667 8.33301 -57.334 25 -74.001s37.334 -25 62.001 -25c32 0 58.833 9 80.5 27s36.167 40.667 43.5 68c2.66699 8.66699 4 18.334 4 29.001zM97.999 671.999l33.999 -0.000976562
c2.66699 -20.667 10.834 -37.834 24.501 -51.501s30.834 -20.5 51.501 -20.5c22.667 0 40.667 7 54 21s20.666 31 21.999 51h34c0 -33.333 -10.167 -60.166 -30.5 -80.499s-46.833 -30.5 -79.5 -30.5c-37.333 0 -65 10.833 -83 32.5s-27 47.834 -27 78.501z" />
    <glyph glyph-name="Aogonek" unicode="&#x104;" horiz-adv-x="536" 
d="M293 674l218.001 -674.001l-9 -2c-43.333 -40.667 -65 -77 -65 -109c0 -15.333 4.5 -27.166 13.5 -35.499s20.167 -12.5 33.5 -12.5c16 0 31.333 3.66699 46 11l8 -29c-16.667 -12.667 -38.334 -19 -65.001 -19c-24 0 -43.333 6.5 -58 19.5s-22 31.167 -22 54.5
c0 36 23 78.667 69 128l-74 229h-236l-75 -235h-47l219 674h44zM165.001 273.999h210l-70 215c-10.667 33.333 -22 76.333 -34 129h-3c-9.33301 -45.333 -20.333 -88 -33 -128z" />
    <glyph glyph-name="aogonek" unicode="&#x105;" horiz-adv-x="416" 
d="M346 311l0.000976562 -199.001c0 -50 2.66699 -87.333 8 -112h-7c-12 -14 -23.333 -31.667 -34 -53s-16 -41.333 -16 -60c0 -16 4.33301 -28.167 13 -36.5s20 -12.5 34 -12.5c17.333 0 32.666 3.33301 45.999 10l8 -30c-17.333 -12 -39.333 -18 -66 -18
c-23.333 0 -42.333 6.66699 -57 20s-22 31.666 -22 54.999c0 32.667 18.667 75.334 56 128.001l-5 61h-3c-12.667 -20.667 -30.5 -38.167 -53.5 -52.5s-49.833 -21.5 -80.5 -21.5c-40.667 0 -72.5 12.833 -95.5 38.5s-34.5 56.834 -34.5 93.501c0 56 22.667 99.167 68 129.5
s110.333 45.166 195 44.499v14c0 18 -1.16699 33.833 -3.5 47.5s-7 28.334 -14 44.001s-18.333 27.667 -34 36s-35.5 12.5 -59.5 12.5c-40.667 0 -75.667 -10.667 -105 -32l-13 34c35.333 25.333 77 38 125 38c100 0 150 -59.667 150 -179zM300.001 152.999
l-0.000976562 104c-143.333 3.33301 -215 -39.667 -215 -129c0 -32.667 8.33301 -57.334 25 -74.001s37.334 -25 62.001 -25c32 0 58.833 9 80.5 27s36.167 40.667 43.5 68c2.66699 8.66699 4 18.334 4 29.001z" />
    <glyph glyph-name="Cacute" unicode="&#x106;" horiz-adv-x="507" 
d="M464 59l14.001 -38.002c-37.333 -20 -89.333 -30 -156 -30c-37.333 0 -72.666 6.5 -105.999 19.5s-63.5 32.667 -90.5 59s-48.5 62 -64.5 107s-24 96.833 -24 155.5c0 108.667 28.167 194.334 84.5 257.001s129.5 94 219.5 94c58.667 0 103 -8.33301 133 -25l-15 -40
c-34.667 16.667 -74.334 25 -119.001 25c-76.667 0 -138.334 -26.667 -185.001 -80s-70 -129.666 -70 -228.999c0 -97.333 22.333 -172 67 -224s105.667 -78 183 -78c53.333 0 96.333 9 129 27zM379.001 821.998h70l-129 -110h-40z" />
    <glyph glyph-name="cacute" unicode="&#x107;" horiz-adv-x="399" 
d="M358 55l11.999 -36c-34 -18.667 -74.667 -28 -122 -28c-62.667 0 -113.167 22.333 -151.5 67s-57.5 104 -57.5 178s20.667 134.833 62 182.5s95.333 71.5 162 71.5c47.333 0 83.333 -8.66699 108 -26l-16 -39c-27.333 16 -59.666 24 -96.999 24
c-54.667 0 -97 -20.5 -127 -61.5s-45 -91.167 -45 -150.5c0 -62.667 15.667 -112.667 47 -150s72.333 -56 123 -56c33.333 0 67.333 8 102 24zM286.999 685h66l-118 -136h-35z" />
    <glyph glyph-name="Ccircumflex" unicode="&#x108;" horiz-adv-x="507" 
d="M464 59l14.001 -38.002c-37.333 -20 -89.333 -30 -156 -30c-37.333 0 -72.666 6.5 -105.999 19.5s-63.5 32.667 -90.5 59s-48.5 62 -64.5 107s-24 96.833 -24 155.5c0 108.667 28.167 194.334 84.5 257.001s129.5 94 219.5 94c58.667 0 103 -8.33301 133 -25l-15 -40
c-34.667 16.667 -74.334 25 -119.001 25c-76.667 0 -138.334 -26.667 -185.001 -80s-70 -129.666 -70 -228.999c0 -97.333 22.333 -172 67 -224s105.667 -78 183 -78c53.333 0 96.333 9 129 27zM286.001 815.998h40l102 -103h-53l-68 68h-2l-68 -68h-50z" />
    <glyph glyph-name="ccircumflex" unicode="&#x109;" horiz-adv-x="399" 
d="M358 55l11.999 -36c-34 -18.667 -74.667 -28 -122 -28c-62.667 0 -113.167 22.333 -151.5 67s-57.5 104 -57.5 178s20.667 134.833 62 182.5s95.333 71.5 162 71.5c47.333 0 83.333 -8.66699 108 -26l-16 -39c-27.333 16 -59.666 24 -96.999 24
c-54.667 0 -97 -20.5 -127 -61.5s-45 -91.167 -45 -150.5c0 -62.667 15.667 -112.667 47 -150s72.333 -56 123 -56c33.333 0 67.333 8 102 24zM217.999 685h34l88 -136h-45l-59 97h-2l-59 -97h-43z" />
    <glyph glyph-name="Cdotaccent" unicode="&#x10a;" horiz-adv-x="507" 
d="M464 59l14.002 -38.002c-37.333 -20 -89 -30 -155 -30c-38 0 -73.5 6.5 -106.5 19.5s-63.167 32.667 -90.5 59s-49 62 -65 107s-24 96.833 -24 155.5c0 108.667 28.167 194.334 84.5 257.001s129.5 94 219.5 94c58.667 0 103 -8.33301 133 -25l-15 -40
c-34.667 16.667 -74.334 25 -119.001 25c-76.667 0 -138.334 -26.667 -185.001 -80s-70 -129.666 -70 -228.999c0 -97.333 22.333 -172 67 -224s105.667 -78 183 -78c53.333 0 96.333 9 129 27zM309.002 723.998h-1c-9.33301 0 -17.5 3.83301 -24.5 11.5
s-10.5 16.167 -10.5 25.5c0 10 3.66699 18.667 11 26s16 11 26 11s18.333 -3.66699 25 -11s10 -16 10 -26s-3.5 -18.667 -10.5 -26s-15.5 -11 -25.5 -11z" />
    <glyph glyph-name="cdotaccent" unicode="&#x10b;" horiz-adv-x="399" 
d="M357 55l11.999 -36c-34 -18.667 -74.333 -28 -121 -28c-62.667 0 -113.167 22.333 -151.5 67s-57.5 104 -57.5 178s20.667 134.833 62 182.5s95.333 71.5 162 71.5c46 0 82 -8.66699 108 -26l-16 -39c-27.333 16 -59.666 24 -96.999 24c-54.667 0 -97 -20.5 -127 -61.5
s-45 -91.167 -45 -150.5c0 -62.667 15.667 -112.667 47 -150s72 -56 122 -56c34.667 0 68.667 8 102 24zM234.999 575h-1c-10 0 -18.5 3.83301 -25.5 11.5s-10.5 16.5 -10.5 26.5c0 9.33301 3.66699 17.833 11 25.5s16 11.5 26 11.5s18.5 -3.66699 25.5 -11
s10.5 -16 10.5 -26s-3.5 -18.833 -10.5 -26.5s-15.5 -11.5 -25.5 -11.5z" />
    <glyph glyph-name="Ccaron" unicode="&#x10c;" horiz-adv-x="507" 
d="M464 59l14.001 -38.002c-37.333 -20 -89.333 -30 -156 -30c-37.333 0 -72.666 6.5 -105.999 19.5s-63.5 32.667 -90.5 59s-48.5 62 -64.5 107s-24 96.833 -24 155.5c0 108.667 28.167 194.334 84.5 257.001s129.5 94 219.5 94c58.667 0 103 -8.33301 133 -25l-15 -40
c-34.667 16.667 -74.334 25 -119.001 25c-76.667 0 -138.334 -26.667 -185.001 -80s-70 -129.666 -70 -228.999c0 -97.333 22.333 -172 67 -224s105.667 -78 183 -78c53.333 0 96.333 9 129 27zM332.001 712.998h-39l-102 103h52l69 -70h2l68 70h50z" />
    <glyph glyph-name="ccaron" unicode="&#x10d;" horiz-adv-x="399" 
d="M358 55l11.999 -36c-34 -18.667 -74.667 -28 -122 -28c-62.667 0 -113.167 22.333 -151.5 67s-57.5 104 -57.5 178s20.667 134.833 62 182.5s95.333 71.5 162 71.5c47.333 0 83.333 -8.66699 108 -26l-16 -39c-27.333 16 -59.666 24 -96.999 24
c-54.667 0 -97 -20.5 -127 -61.5s-45 -91.167 -45 -150.5c0 -62.667 15.667 -112.667 47 -150s72.333 -56 123 -56c33.333 0 67.333 8 102 24zM252.999 549h-36l-88 136h45l60 -97h2l61 97h42z" />
    <glyph glyph-name="Dcaron" unicode="&#x10e;" horiz-adv-x="578" 
d="M76 1v664c45.333 9.33301 94 14 146 14c104 0 181.333 -26 232 -78c58 -56.667 87 -138.667 87 -246c0 -112.667 -28 -200.667 -84 -264c-56 -64 -141 -96 -255 -96c-52 0 -94 2 -126 6zM122 631v-592.001c15.333 -2.66699 44 -4 86 -4c92 0 162.5 26.5 211.5 79.5
s73.5 132.167 73.5 237.5c0.666992 90.667 -21.666 161.334 -66.999 212.001s-114 76 -206 76c-36.667 0 -69.334 -3 -98.001 -9zM285 711.999h-40l-102 103h52l69 -70h2l68 70h50z" />
    <glyph glyph-name="dcaron" unicode="&#x10f;" horiz-adv-x="501" 
d="M371 705h46.001v-597c0 -33.333 1.33301 -69.333 4 -108h-41l-3 83h-3c-12 -26.667 -30.833 -48.834 -56.5 -66.501s-56.834 -26.5 -93.501 -26.5c-53.333 0 -97.5 22 -132.5 66s-52.5 103 -52.5 177c0 79.333 18.5 142 55.5 188s82.833 69 137.5 69
c32 0 60 -7.16699 84 -21.5s41.667 -33.166 53 -56.499h2v293zM371.001 187l-0.000976562 105.998c0 16 -1.33301 29.667 -4 41c-6 32.667 -21.167 60.334 -45.5 83.001s-53.166 34 -86.499 34c-46 0 -82.333 -20.333 -109 -61s-40 -91.667 -40 -153
c0 -58.667 12.5 -108 37.5 -148s61.167 -60 108.5 -60c30 0 57.5 10 82.5 30s42.5 50 52.5 90c2.66699 10.667 4 23.334 4 38.001zM485 530.998l-20.999 19.0029c24.667 28 37 56.333 37 85c0 26 -12.333 47.333 -37 64l43 12c9.33301 -6 17.666 -15.5 24.999 -28.5
s11 -27.167 11 -42.5c0 -6.66699 -0.5 -13.167 -1.5 -19.5s-2.5 -12.333 -4.5 -18s-4 -10.834 -6 -15.501s-4.66699 -9.33398 -8 -14.001l-8 -11.5c-2 -3 -4.83301 -6.33301 -8.5 -10l-8.5 -8.5c-2 -2 -4.5 -4.33301 -7.5 -7s-4.83301 -4.33398 -5.5 -5.00098z" />
    <glyph glyph-name="Dcroat" unicode="&#x110;" horiz-adv-x="584" 
d="M-3 326l-0.000976562 38h84v302c45.333 9.33301 94 14 146 14c104.667 0 182.334 -26 233.001 -78c58 -56 87 -139 87 -249c0 -112 -28 -199.667 -84 -263c-56 -64 -141.333 -96 -256 -96c-52 0 -94 2 -126 6v326h-84zM308.999 364v-38.001h-182v-288
c15.333 -2.66699 44 -4 86 -4c92.667 0 163.5 26.5 212.5 79.5s73.5 132.833 73.5 239.5c0.666992 90.667 -21.666 161.334 -66.999 212.001s-114.333 76 -207 76c-36.667 0 -69.334 -3 -98.001 -9v-268h182z" />
    <glyph glyph-name="dcroat" unicode="&#x111;" horiz-adv-x="491" 
d="M487 556h-69.999v-448c0 -33.333 1.33301 -69.333 4 -108h-41l-3 83h-3c-12 -26.667 -30.833 -48.834 -56.5 -66.501s-56.834 -26.5 -93.501 -26.5c-53.333 0 -97.5 22 -132.5 66s-52.5 103 -52.5 177c0 79.333 18.5 142 55.5 188s82.833 69 137.5 69
c32 0 60 -7.16699 84 -21.5s41.667 -33.166 53 -56.499h2v144h-185v38h185v111h46v-111h70v-38zM371.001 187l-0.000976562 105.998c0 16 -1.33301 29.667 -4 41c-6 32.667 -21.167 60.334 -45.5 83.001s-53.166 34 -86.499 34c-46 0 -82.333 -20.333 -109 -61
s-40 -91.667 -40 -153c0 -58.667 12.5 -108 37.5 -148s61.167 -60 108.5 -60c30 0 57.5 10 82.5 30s42.5 50 52.5 90c2.66699 10.667 4 23.334 4 38.001z" />
    <glyph glyph-name="Emacron" unicode="&#x112;" horiz-adv-x="425" 
d="M364 375v-40h-242v-295h272v-40h-318v674h303v-40h-257v-259h242zM124 772h219v-38h-219v38z" />
    <glyph glyph-name="emacron" unicode="&#x113;" horiz-adv-x="438" 
d="M399 249h-314.001c0 -77.333 15.333 -133 46 -167s70 -51 118 -51c46.667 0 85.334 8.33301 116.001 25l11 -36c-32 -19.333 -76.333 -29 -133 -29c-63.333 0 -113.166 22.167 -149.499 66.5s-54.5 102.833 -54.5 175.5c0 78 18 140.333 54 187s82.667 70 140 70
c32.667 0 60.667 -7.33301 84 -22s40.666 -33.667 51.999 -57s19.333 -46 24 -68s7 -43.667 7 -65c0 -13.333 -0.333008 -23 -1 -29zM86.999 286l265 0.000976562c1.33301 45.333 -8.5 84.166 -29.5 116.499s-52.833 48.5 -95.5 48.5c-42 0 -74.667 -16.5 -98 -49.5
s-37.333 -71.5 -42 -115.5zM121.999 625.001h203v-38h-203v38z" />
    <glyph glyph-name="Ebreve" unicode="&#x114;" horiz-adv-x="425" 
d="M364 375v-40h-242v-295h272v-40h-318v674h303v-40h-257v-259h242zM115 812h33.001c8 -32 33.333 -48 76 -48c44 0 69.333 16 76 48h33c-0.666992 -26.667 -10.5 -48.5 -29.5 -65.5s-45.833 -25.5 -80.5 -25.5c-34 0 -60.333 8.33301 -79 25s-28.334 38.667 -29.001 66z
" />
    <glyph glyph-name="ebreve" unicode="&#x115;" horiz-adv-x="438" 
d="M399 249h-314.001c0 -77.333 15.333 -133 46 -167s70 -51 118 -51c46.667 0 85.334 8.33301 116.001 25l11 -36c-32 -19.333 -76.333 -29 -133 -29c-63.333 0 -113.166 22.167 -149.499 66.5s-54.5 102.833 -54.5 175.5c0 78 18 140.333 54 187s82.667 70 140 70
c32.667 0 60.667 -7.33301 84 -22s40.666 -33.667 51.999 -57s19.333 -46 24 -68s7 -43.667 7 -65c0 -13.333 -0.333008 -23 -1 -29zM86.999 286l265 0.000976562c1.33301 45.333 -8.5 84.166 -29.5 116.499s-52.833 48.5 -95.5 48.5c-42 0 -74.667 -16.5 -98 -49.5
s-37.333 -71.5 -42 -115.5zM112.999 672.001h33.999c2.66699 -20.667 10.834 -37.834 24.501 -51.501s30.5 -20.5 50.5 -20.5c23.333 0 41.666 7 54.999 21s20.666 31 21.999 51h34c0 -33.333 -10.167 -60.166 -30.5 -80.499s-46.833 -30.5 -79.5 -30.5
c-37.333 0 -65.166 11 -83.499 33s-27.166 48 -26.499 78z" />
    <glyph glyph-name="Edotaccent" unicode="&#x116;" horiz-adv-x="425" 
d="M364 375v-40h-242v-295h272v-40h-318v674h303v-40h-257v-259h242zM225 729h-1c-9.33301 0 -17.5 3.83301 -24.5 11.5s-10.5 16.167 -10.5 25.5c0 10 3.66699 18.667 11 26s16 11 26 11s18.333 -3.66699 25 -11s10 -16 10 -26s-3.5 -18.667 -10.5 -26s-15.5 -11 -25.5 -11
z" />
    <glyph glyph-name="edotaccent" unicode="&#x117;" horiz-adv-x="438" 
d="M399 249h-314.001c0 -77.333 15.333 -133 46 -167s70 -51 118 -51c46.667 0 85.334 8.33301 116.001 25l11 -36c-32 -19.333 -76.333 -29 -133 -29c-63.333 0 -113.166 22.333 -149.499 67s-54.5 103 -54.5 175c0 78 18 140.333 54 187s82.667 70 140 70
c32.667 0 60.667 -7.33301 84 -22s40.666 -33.667 51.999 -57s19.333 -46 24 -68s7 -43.667 7 -65c0 -13.333 -0.333008 -23 -1 -29zM86.999 286l265 0.000976562c1.33301 45.333 -8.5 84.166 -29.5 116.499s-52.833 48.5 -95.5 48.5c-42 0 -74.667 -16.5 -98 -49.5
s-37.333 -71.5 -42 -115.5zM223.999 575.001h-1c-10 0 -18.5 3.83301 -25.5 11.5s-10.5 16.5 -10.5 26.5c0 9.33301 3.66699 17.833 11 25.5s16 11.5 26 11.5s18.5 -3.66699 25.5 -11s10.5 -16 10.5 -26s-3.5 -18.833 -10.5 -26.5s-15.5 -11.5 -25.5 -11.5z" />
    <glyph glyph-name="Eogonek" unicode="&#x118;" horiz-adv-x="425" 
d="M388 -152l7.99902 -29.999c-17.333 -10.667 -38.333 -16 -63 -16s-44.5 6.33301 -59.5 19s-22.5 30.667 -22.5 54c0 24 9 47.5 27 70.5s38.333 41.167 61 54.5h-263v674h303v-40h-257v-259h242v-40h-242v-296h272v-39c-0.666992 -0.666992 -2.16699 -1.16699 -4.5 -1.5
s-3.83301 -0.5 -4.5 -0.5c-25.333 -16 -46.666 -34.167 -63.999 -54.5s-26 -39.833 -26 -58.5c0 -14.667 4.5 -25.834 13.5 -33.501s20.5 -11.5 34.5 -11.5c16 0 31 2.66699 45 8z" />
    <glyph glyph-name="eogonek" unicode="&#x119;" horiz-adv-x="438" 
d="M328 -148l8.00098 -30c-18.667 -12 -40.334 -18 -65.001 -18c-23.333 0 -42.333 6.5 -57 19.5s-22 30.833 -22 53.5c0 22 7.83301 43.5 23.5 64.5s33.5 37.5 53.5 49.5v1c-2.66699 0 -6.83398 -0.166992 -12.501 -0.5s-10.167 -0.5 -13.5 -0.5
c-63.333 0 -113.166 22.333 -149.499 67s-54.5 103 -54.5 175c0 78 18 140.333 54 187s82.667 70 140 70c32.667 0 60.667 -7.33301 84 -22s40.666 -33.667 51.999 -57s19.333 -46 24 -68s7 -43.667 7 -65c0 -14 -0.333008 -23.667 -1 -29h-314
c0 -77.333 15.333 -133 46 -167s70.334 -51 119.001 -51c46 0 84.333 8.33301 115 25l11 -36c-10.667 -6.66699 -23.667 -12 -39 -16c-24 -10 -46.833 -26.5 -68.5 -49.5s-32.5 -45.5 -32.5 -67.5c0 -15.333 4.16699 -26.833 12.5 -34.5s18.833 -11.5 31.5 -11.5
c17.333 0 33.333 3.66699 48 11zM87.001 286l265 0.000976562c1.33301 45.333 -8.5 84.166 -29.5 116.499s-52.833 48.5 -95.5 48.5c-42 0 -74.667 -16.5 -98 -49.5s-37.333 -71.5 -42 -115.5z" />
    <glyph glyph-name="Ecaron" unicode="&#x11a;" horiz-adv-x="425" 
d="M364 375v-40h-242v-295h272v-40h-318v674h303v-40h-257v-259h242zM249 710h-39l-102 103h52l69 -70h2l68 70h50z" />
    <glyph glyph-name="ecaron" unicode="&#x11b;" horiz-adv-x="438" 
d="M399 249h-314.001c0 -77.333 15.333 -133 46 -167s70 -51 118 -51c46.667 0 85.334 8.33301 116.001 25l11 -36c-32 -19.333 -76.333 -29 -133 -29c-63.333 0 -113.166 22.167 -149.499 66.5s-54.5 102.833 -54.5 175.5c0 78 18 140.333 54 187s82.667 70 140 70
c32.667 0 60.667 -7.33301 84 -22s40.666 -33.667 51.999 -57s19.333 -46 24 -68s7 -43.667 7 -65c0 -13.333 -0.333008 -23 -1 -29zM86.999 286l265 0.000976562c1.33301 45.333 -8.5 84.166 -29.5 116.499s-52.833 48.5 -95.5 48.5c-42 0 -74.667 -16.5 -98 -49.5
s-37.333 -71.5 -42 -115.5zM240.999 549.001h-36l-88 136h45l60 -97h2l61 97h42z" />
    <glyph glyph-name="Gcircumflex" unicode="&#x11c;" horiz-adv-x="561" 
d="M506 334v-309c-52.667 -21.333 -109.334 -32 -170.001 -32c-86.667 0 -157 27 -211 81c-58.667 60 -88 145.667 -88 257c0 106.667 28.833 191.667 86.5 255s134.5 95 230.5 95c56 0 101.333 -8.66699 136 -26l-15 -39c-34.667 16.667 -76 25 -124 25
c-80 0 -144.333 -26.5 -193 -79.5s-73 -127.5 -73 -223.5c0 -99.333 23.333 -175 70 -227s109.334 -78 188.001 -78c52.667 0 91.667 6.33301 117 19v244h-141v38h187zM300 815h40l102 -103h-52l-69 68h-2l-68 -68h-50z" />
    <glyph glyph-name="gcircumflex" unicode="&#x11d;" horiz-adv-x="491" 
d="M417 349l-0.00195312 -279.998c0 -108 -19.333 -181.333 -58 -220c-36 -36.667 -85 -55 -147 -55c-57.333 0 -102.666 12 -135.999 36l16 38c36 -23.333 78.333 -35 127 -35c101.333 0 152 62 152 186v65h-2c-12 -24.667 -30.5 -44.834 -55.5 -60.501
s-54.833 -23.5 -89.5 -23.5c-53.333 0 -97.5 22.167 -132.5 66.5s-52.5 101.166 -52.5 170.499c0 81.333 19.5 143.833 58.5 187.5s84.5 65.5 136.5 65.5c64.667 0 111.334 -28 140.001 -84h2l2 74h43c-2.66699 -44 -4 -87.667 -4 -131zM370.998 192.002l-0.000976562 111
c0 18 -1.66699 32.333 -5 43c-9.33301 30 -25 55 -47 75s-50 30 -84 30c-44.667 0 -80.667 -19.167 -108 -57.5s-41 -88.833 -41 -151.5c0 -60.667 13.167 -109.667 39.5 -147s62.833 -56 109.5 -56c28 0 53.833 8.66699 77.5 26s40.834 43 51.501 77
c4.66699 16 7 32.667 7 50zM224.997 688.002h33l88 -136h-44l-59 97h-2l-59 -97h-43z" />
    <glyph glyph-name="Gbreve" unicode="&#x11e;" horiz-adv-x="561" 
d="M506 334v-309c-52.667 -21.333 -109.334 -32 -170.001 -32c-86.667 0 -157 27 -211 81c-58.667 60 -88 145.667 -88 257c0 106.667 28.833 191.667 86.5 255s134.5 95 230.5 95c56 0 101.333 -8.66699 136 -26l-15 -39c-34.667 16.667 -76 25 -124 25
c-80 0 -144.333 -26.5 -193 -79.5s-73 -127.5 -73 -223.5c0 -99.333 23.333 -175 70 -227s109.334 -78 188.001 -78c52.667 0 91.667 6.33301 117 19v244h-141v38h187zM201 812h33.001c8 -32 33.333 -48 76 -48c44.667 0 70 16 76 48h34
c-0.666992 -26.667 -10.5 -48.5 -29.5 -65.5s-46.167 -25.5 -81.5 -25.5c-34 0 -60.333 8.33301 -79 25s-28.334 38.667 -29.001 66z" />
    <glyph glyph-name="gbreve" unicode="&#x11f;" horiz-adv-x="491" 
d="M417 349l0.00195312 -279.998c0 -108 -19.333 -181.333 -58 -220c-34.667 -36.667 -83.334 -55 -146.001 -55c-58 0 -103.667 12 -137 36l16 38c37.333 -23.333 79.666 -35 126.999 -35c101.333 0 152 62 152 186v65h-2c-12 -24.667 -30.5 -44.834 -55.5 -60.501
s-54.833 -23.5 -89.5 -23.5c-53.333 0 -97.5 22.167 -132.5 66.5s-52.5 101.166 -52.5 170.499c0 81.333 19.5 143.833 58.5 187.5s84.5 65.5 136.5 65.5c66 0 112.667 -28 140 -84h2l2 74h43c-2.66699 -44 -4 -87.667 -4 -131zM371.002 192.002l-0.00195312 111.001
c0 18 -1.66699 32.333 -5 43c-8.66699 29.333 -24.167 54.166 -46.5 74.499s-50.166 30.5 -83.499 30.5c-45.333 0 -81.666 -19.167 -108.999 -57.5s-41 -88.833 -41 -151.5c0 -60.667 13.167 -109.667 39.5 -147s62.833 -56 109.5 -56c28.667 0 54.667 8.66699 78 26
s40.333 43 51 77c4.66699 16 7 32.667 7 50zM125 672.003l35 -0.000976562c2.66699 -20.667 10.834 -37.834 24.501 -51.501s30.5 -20.5 50.5 -20.5c23.333 0 41.666 7 54.999 21s20.666 31 21.999 51h34c0 -33.333 -10.167 -60.166 -30.5 -80.499
s-46.833 -30.5 -79.5 -30.5c-37.333 0 -65.166 10.833 -83.499 32.5s-27.5 47.834 -27.5 78.501z" />
    <glyph glyph-name="Gdotaccent" unicode="&#x120;" horiz-adv-x="561" 
d="M506 334v-309c-52.667 -21.333 -109.334 -32 -170.001 -32c-86.667 0 -157 27 -211 81c-58.667 60 -88 145.667 -88 257c0 106.667 28.667 191.667 86 255s134 95 230 95c56.667 0 102.334 -8.66699 137.001 -26l-15 -39c-34.667 16.667 -76.334 25 -125.001 25
c-79.333 0 -143.333 -26.5 -192 -79.5s-73 -127.5 -73 -223.5c0 -99.333 23.333 -175 70 -227s109.334 -78 188.001 -78c52.667 0 91.667 6.33301 117 19v244h-141v38h187zM321 724h-1c-9.33301 0 -17.5 3.83301 -24.5 11.5s-10.5 16.167 -10.5 25.5
c0 10 3.66699 18.667 11 26s16 11 26 11s18.333 -3.66699 25 -11s10 -16 10 -26s-3.5 -18.667 -10.5 -26s-15.5 -11 -25.5 -11z" />
    <glyph glyph-name="gdotaccent" unicode="&#x121;" horiz-adv-x="491" 
d="M417 349v-279.998c0 -108 -19.333 -181.333 -58 -220c-36 -36.667 -84.667 -55 -146 -55c-58 0 -103.667 12 -137 36l16 38c37.333 -23.333 79.666 -35 126.999 -35c101.333 0 152 62 152 186v65h-2c-12 -24.667 -30.5 -44.834 -55.5 -60.501s-54.833 -23.5 -89.5 -23.5
c-53.333 0 -97.5 22.167 -132.5 66.5s-52.5 101.166 -52.5 170.499c0 81.333 19.5 143.833 58.5 187.5s84.5 65.5 136.5 65.5c64.667 0 111.334 -28 140.001 -84h2l2 74h43c-2.66699 -44 -4 -87.667 -4 -131zM371 192.002l-0.00195312 111c0 18 -1.66699 32.333 -5 43
c-9.33301 30 -25 55 -47 75s-49.667 30 -83 30c-45.333 0 -81.666 -19.167 -108.999 -57.5s-41 -88.833 -41 -151.5c0 -60.667 13.167 -109.667 39.5 -147s62.833 -56 109.5 -56c28 0 53.833 8.66699 77.5 26s40.834 43 51.501 77c4.66699 16 7 32.667 7 50z
M245.998 579.002h-1c-10 0 -18.5 3.83301 -25.5 11.5s-10.5 16.5 -10.5 26.5c0 9.33301 3.66699 17.833 11 25.5s16 11.5 26 11.5s18.5 -3.66699 25.5 -11s10.5 -16 10.5 -26s-3.5 -18.833 -10.5 -26.5s-15.5 -11.5 -25.5 -11.5z" />
    <glyph glyph-name="Gcommaaccent" unicode="&#x122;" horiz-adv-x="561" 
d="M506 334v-309c-52.667 -21.333 -109.334 -32 -170.001 -32c-86.667 0 -157 27 -211 81c-58.667 60 -88 145.667 -88 257c0 106.667 28.667 191.667 86 255s134 95 230 95c56.667 0 102.334 -8.66699 137.001 -26l-15 -39c-34.667 16.667 -76.334 25 -125.001 25
c-79.333 0 -143.333 -26.5 -192 -79.5s-73 -127.5 -73 -223.5c0 -99.333 23.333 -175 70 -227s109.334 -78 188.001 -78c52.667 0 91.667 6.33301 117 19v244h-141v38h187zM275 -209l-14.001 26c51.333 9.33301 77 32 77 68c0 24 -12.333 44.333 -37 61l41 12
c25.333 -16 38 -39.333 38 -70c0 -29.333 -10.667 -51.833 -32 -67.5s-45.666 -25.5 -72.999 -29.5z" />
    <glyph glyph-name="gcommaaccent" unicode="&#x123;" horiz-adv-x="491" 
d="M417 349v-279.998c0 -108 -19.333 -181.333 -58 -220c-36 -36.667 -84.667 -55 -146 -55c-58 0 -103.667 12 -137 36l16 38c37.333 -23.333 79.666 -35 126.999 -35c101.333 0 152 62 152 186v65h-2c-12 -24.667 -30.5 -44.834 -55.5 -60.501s-54.833 -23.5 -89.5 -23.5
c-53.333 0 -97.5 22.167 -132.5 66.5s-52.5 101.166 -52.5 170.499c0 81.333 19.5 143.833 58.5 187.5s84.5 65.5 136.5 65.5c64.667 0 111.334 -28 140.001 -84h2l2 74h43c-2.66699 -44 -4 -87.667 -4 -131zM371 192.002l-0.00195312 111c0 18 -1.66699 32.333 -5 43
c-9.33301 30 -25 55 -47 75s-49.667 30 -83 30c-45.333 0 -81.666 -19.167 -108.999 -57.5s-41 -88.833 -41 -151.5c0 -60.667 13.167 -109.667 39.5 -147s62.833 -56 109.5 -56c28 0 53.833 8.66699 77.5 26s40.834 43 51.501 77c4.66699 16 7 32.667 7 50z
M294.998 697.002l14.001 -25.999c-51.333 -8.66699 -77 -31.667 -77 -69c0 -22.667 12 -43 36 -61l-40 -11c-25.333 16 -38 39.333 -38 70c0 28.667 10.667 51.167 32 67.5s45.666 26.166 72.999 29.499z" />
    <glyph glyph-name="Hcircumflex" unicode="&#x124;" horiz-adv-x="570" 
d="M76 674h46v-298h326v298h46v-674h-46v336h-326v-336h-46v674zM266 813h40l101 -103h-52l-68 68h-2l-68 -68h-50z" />
    <glyph glyph-name="hcircumflex" unicode="&#x125;" horiz-adv-x="487" 
d="M74 0l-0.000976562 705h46v-300h2c14.667 26.667 34 47 58 61c25.333 16 54.333 24 87 24c14 0 28.333 -2.33301 43 -7s30.5 -13 47.5 -25s30.833 -31.333 41.5 -58s16 -58.667 16 -96v-304h-46v295c0 45.333 -9.16699 82.5 -27.5 111.5s-47.5 43.5 -87.5 43.5
c-30 0 -56.667 -9.66699 -80 -29s-39.666 -44.666 -48.999 -75.999c-3.33301 -10.667 -5 -25.334 -5 -44.001v-301h-46zM78.999 826h40l101 -103h-52l-68 68h-2l-68 -68h-50z" />
    <glyph glyph-name="Hbar" unicode="&#x126;" horiz-adv-x="570" 
d="M546 486h-52v-486h-46v330h-326v-330h-46v486h-52v37h52v151h46v-151h326v151h46v-151h52v-37zM448 370v116h-326v-116h326z" />
    <glyph glyph-name="hbar" unicode="&#x127;" horiz-adv-x="487" 
d="M415 0h-46.001v295c0 45.333 -9.16699 82.5 -27.5 111.5s-47.5 43.5 -87.5 43.5c-30 0 -56.667 -9.66699 -80 -29s-39.666 -44.666 -48.999 -75.999c-3.33301 -10.667 -5 -25.334 -5 -44.001v-301h-46v556h-71v38h71v111h46v-111h181v-38h-181v-151h2
c14.667 26.667 34 47 58 61c25.333 16 54.333 24 87 24c14 0 28.333 -2.33301 43 -7s30.5 -13 47.5 -25s30.833 -31.333 41.5 -58s16 -58.667 16 -96v-304z" />
    <glyph glyph-name="Itilde" unicode="&#x128;" horiz-adv-x="198" 
d="M76 674h46v-674h-46v674zM22 717h-32.002c0 24 5.33301 44 16 60s25.334 24 44.001 24c13.333 0 31 -6.66699 53 -20c22.667 -11.333 38.334 -17 47.001 -17c16.667 0 25.667 12.333 27 37h32c0 -52.667 -19.667 -79 -59 -79c-12.667 0 -31 6.33301 -55 19
c-22.667 12.667 -38 19 -46 19c-14.667 0 -23.667 -14.333 -27 -43z" />
    <glyph glyph-name="itilde" unicode="&#x129;" horiz-adv-x="195" 
d="M120 0h-46v480h46v-480zM23 570h-32.998c-0.666992 25.333 4.33301 45.833 15 61.5s25 23.5 43 23.5c9.33301 0 28 -7 56 -21c20 -10.667 34 -16 42 -16c16.667 0 26 13.333 28 40h32c0 -54.667 -20 -82 -60 -82c-12.667 0 -30.334 6.33301 -53.001 19
c-20.667 12 -35.334 18 -44.001 18c-15.333 0 -24 -14.333 -26 -43z" />
    <glyph glyph-name="Imacron" unicode="&#x12a;" horiz-adv-x="198" 
d="M76 674h46v-674h-46v674zM-9 772h219v-38h-219v38z" />
    <glyph glyph-name="imacron" unicode="&#x12b;" horiz-adv-x="195" 
d="M120 0h-46v480h46v-480zM-3 625h202v-38h-202v38z" />
    <glyph glyph-name="Ibreve" unicode="&#x12c;" horiz-adv-x="198" 
d="M76 674h46v-674h-46v674zM-11 808h33.0029c8.66699 -32 34.334 -48 77.001 -48c43.333 0 68.333 16 75 48h33c-0.666992 -26.667 -10.334 -48.5 -29.001 -65.5s-45.334 -25.5 -80.001 -25.5s-61.334 8.33301 -80.001 25s-28.334 38.667 -29.001 66z" />
    <glyph glyph-name="ibreve" unicode="&#x12d;" horiz-adv-x="195" 
d="M120 0h-46v480h46v-480zM-10 672l34.001 -0.000976562c3.33301 -20.667 11.833 -37.834 25.5 -51.501s30.5 -20.5 50.5 -20.5c22.667 0 40.667 7 54 21s20.666 31 21.999 51h34c0 -33.333 -10.167 -60.166 -30.5 -80.499s-46.833 -30.5 -79.5 -30.5
c-36.667 0 -64.167 10.833 -82.5 32.5s-27.5 47.834 -27.5 78.501z" />
    <glyph glyph-name="Iogonek" unicode="&#x12e;" horiz-adv-x="198" 
d="M122 674l0.000976562 -674h-6c-34.667 -46.667 -52 -85.667 -52 -117c0 -16 4.33301 -28 13 -36s20 -12 34 -12c17.333 0 32.666 3.33301 45.999 10l8 -30c-17.333 -12 -39.333 -18 -66 -18c-23.333 0 -42.333 6.5 -57 19.5s-22 31.167 -22 54.5
c0 33.333 18.667 76.333 56 129v674h46z" />
    <glyph glyph-name="iogonek" unicode="&#x12f;" horiz-adv-x="195" 
d="M97 578h-1.00098c-10 0 -18.333 3.83301 -25 11.5s-10 17.167 -10 28.5s3.5 20.833 10.5 28.5s15.833 11.5 26.5 11.5s19.334 -3.83301 26.001 -11.5s10 -17.167 10 -28.5s-3.33301 -20.833 -10 -28.5s-15.667 -11.5 -27 -11.5zM119.999 480l0.000976562 -480h-6
c-34.667 -46.667 -52 -85.667 -52 -117c0 -16 4.33301 -28 13 -36s20 -12 34 -12c17.333 0 32.666 3.33301 45.999 10l8 -30c-16.667 -12 -38.667 -18 -66 -18c-23.333 0 -42.333 6.5 -57 19.5s-22 31.167 -22 54.5c0 33.333 18.667 76.333 56 129v480h46z" />
    <glyph glyph-name="Idotaccent" unicode="&#x130;" horiz-adv-x="198" 
d="M76 674h46v-674h-46v674zM99 729c-10 0 -18.5 3.66699 -25.5 11s-10.5 16 -10.5 26s3.66699 18.667 11 26s16 11 26 11s18.333 -3.66699 25 -11s10 -16 10 -26s-3.5 -18.667 -10.5 -26s-15.5 -11 -25.5 -11z" />
    <glyph glyph-name="dotlessi" unicode="&#x131;" horiz-adv-x="195" 
d="M120 0h-46v480h46v-480z" />
    <glyph glyph-name="IJ" unicode="&#x132;" horiz-adv-x="513" 
d="M76 674h46v-674h-46v674zM399 206v468h46v-476c0 -138.667 -56 -208 -168 -208c-26.667 0 -50 4 -70 12l8 39c20 -6.66699 40 -10 60 -10c42.667 0 74 12.5 94 37.5s30 70.833 30 137.5z" />
    <glyph glyph-name="ij" unicode="&#x133;" horiz-adv-x="394" 
d="M120 0h-46v480h46v-480zM97 573h-1.00098c-10 0 -18.333 3.83301 -25 11.5s-10 17.167 -10 28.5s3.5 20.833 10.5 28.5s15.833 11.5 26.5 11.5s19.334 -3.83301 26.001 -11.5s10 -17.167 10 -28.5s-3.33301 -20.833 -10 -28.5s-15.667 -11.5 -27 -11.5zM160.999 -206
l-7 38.002c42 4.66699 72 18.334 90 41.001c12 16 20.333 36.833 25 62.5s7 67.167 7 124.5v420h46v-448c0 -46.667 -3.33301 -84.334 -10 -113.001s-19 -53.334 -37 -74.001c-14.667 -16 -33.167 -28.333 -55.5 -37s-41.833 -13.334 -58.5 -14.001zM297.999 573.002h-1
c-10 0 -18.333 3.83301 -25 11.5s-10 17.167 -10 28.5s3.66699 20.833 11 28.5s16.333 11.5 27 11.5c10 0 18.333 -3.83301 25 -11.5s10 -17.167 10 -28.5s-3.33301 -20.833 -10 -28.5s-15.667 -11.5 -27 -11.5z" />
    <glyph glyph-name="Jcircumflex" unicode="&#x134;" horiz-adv-x="315" 
d="M200 206l-0.00195312 468h46v-476c0 -138.667 -56 -208 -168 -208c-25.333 0 -48.666 4 -69.999 12l9 39c18.667 -6.66699 38.334 -10 59.001 -10c42.667 0 74 12.5 94 37.5s30 70.833 30 137.5zM197.998 813h39l102 -103h-52l-69 68h-2l-68 -68h-50z" />
    <glyph glyph-name="jcircumflex" unicode="&#x135;" horiz-adv-x="200" 
d="M-34 -206l-7 38.002c41.333 4.66699 71.333 18.334 90 41.001c11.333 16 19.5 37 24.5 63s7.5 67.333 7.5 124v420h46v-448c0 -46.667 -3.33301 -84.334 -10 -113.001s-19 -53.334 -37 -74.001c-14.667 -16 -33.167 -28.333 -55.5 -37s-41.833 -13.334 -58.5 -14.001z
M82 674.002h33l88 -136h-45l-59 96h-2l-58 -96h-43z" />
    <glyph glyph-name="Kcommaaccent" unicode="&#x136;" horiz-adv-x="460" 
d="M76 0v674h46v-338h3l29.5 39.5l24.5 32.5l212 266h56l-232 -286l250 -388h-54l-228 355l-61 -75v-280h-46zM185 -204l-13 26c51.333 9.33301 77 32 77 68c0 24 -12.333 44.333 -37 61l41 12c25.333 -16 38 -39.333 38 -70c0 -29.333 -10.667 -52 -32 -68
s-46 -25.667 -74 -29z" />
    <glyph glyph-name="kcommaaccent" unicode="&#x137;" horiz-adv-x="391" 
d="M120 705v-456h2l16 21l24 30l153 180h55l-175 -200l199 -280h-56l-175 250l-43 -50v-200h-46v705h46zM150 -209l-14.001 25.998c51.333 8.66699 77 31.334 77 68.001c0 24 -12 44.333 -36 61l40 12c25.333 -16 38 -39.333 38 -70c0 -28.667 -10.667 -51.167 -32 -67.5
s-45.666 -26.166 -72.999 -29.499z" />
    <glyph glyph-name="kgreenlandic" unicode="&#x138;" horiz-adv-x="391" 
d="M120 480v-231h2c21.333 27.333 35 44.333 41 51l153 180h55l-176 -200l199 -280h-55l-175 250l-44 -50v-200h-46v480h46z" />
    <glyph glyph-name="Lacute" unicode="&#x139;" horiz-adv-x="410" 
d="M76 0v674h46v-635h270v-39h-316zM180 820h71l-129 -110h-41z" />
    <glyph glyph-name="lacute" unicode="&#x13a;" horiz-adv-x="199" 
d="M74 0v705h46v-705h-46zM155 843h71l-129 -110h-40z" />
    <glyph glyph-name="Lcommaaccent" unicode="&#x13b;" horiz-adv-x="410" 
d="M76 0v674h46v-635h270v-39h-316zM167 -209l-13 26c51.333 9.33301 77 32 77 68c0 24 -12.333 44.333 -37 61l41 12c25.333 -16 38 -39.333 38 -70c0 -29.333 -10.667 -52 -32 -68s-46 -25.667 -74 -29z" />
    <glyph glyph-name="lcommaaccent" unicode="&#x13c;" horiz-adv-x="199" 
d="M74 0v705h46v-705h-46zM45 -209l-13 26c51.333 9.33301 77 32 77 68c0 24 -12.333 44.333 -37 61l41 12c25.333 -16 38 -39.333 38 -70c0 -29.333 -10.667 -52 -32 -68s-46 -25.667 -74 -29z" />
    <glyph glyph-name="Lcaron" unicode="&#x13d;" horiz-adv-x="410" 
d="M76 0v674h46v-635h270v-39h-316zM221 514l-14.001 26c51.333 9.33301 77 32 77 68c0 24 -12.333 44.333 -37 61l41 12c25.333 -16 38 -39.333 38 -70c0 -29.333 -10.667 -51.833 -32 -67.5s-45.666 -25.5 -72.999 -29.5z" />
    <glyph glyph-name="lcaron" unicode="&#x13e;" horiz-adv-x="205" 
d="M74 0v705h46v-705h-46zM185 531l-20.999 19.0029c24.667 26 37 54.333 37 85c0 26 -12.333 47.333 -37 64l43 12c9.33301 -6 17.666 -15.5 24.999 -28.5s11 -27.167 11 -42.5c0 -6.66699 -0.5 -13.167 -1.5 -19.5s-2.5 -12.333 -4.5 -18s-4 -10.834 -6 -15.501
s-4.66699 -9.33398 -8 -14.001l-8 -11.5c-2 -3 -4.83301 -6.33301 -8.5 -10l-8.5 -8.5c-2 -2 -4.5 -4.33301 -7.5 -7s-4.83301 -4.33398 -5.5 -5.00098z" />
    <glyph glyph-name="Ldot" unicode="&#x13f;" horiz-adv-x="410" 
d="M76 0v674h46v-635h270v-39h-316zM282 327h-1c-9.33301 0 -17.5 3.83301 -24.5 11.5s-10.5 16.167 -10.5 25.5c0 10 3.66699 18.667 11 26s16 11 26 11s18.333 -3.66699 25 -11s10 -16 10 -26s-3.5 -18.667 -10.5 -26s-15.5 -11 -25.5 -11z" />
    <glyph glyph-name="ldot" unicode="&#x140;" horiz-adv-x="209" 
d="M74 0v705h46v-705h-46zM201 348h-1c-10 0 -18.167 3.66699 -24.5 11s-9.5 16 -9.5 26s3.5 18.667 10.5 26s15.5 11 25.5 11c9.33301 0 17.333 -3.66699 24 -11s10 -16 10 -26s-3.33301 -18.667 -10 -26s-15 -11 -25 -11z" />
    <glyph glyph-name="Lslash" unicode="&#x141;" horiz-adv-x="415" 
d="M396 0h-316v284l-84 -70v44l84 71v345h46v-308l131 109v-46l-131 -108v-282h270v-39z" />
    <glyph glyph-name="lslash" unicode="&#x142;" horiz-adv-x="204" 
d="M125 0h-46v320l-69 -66v45l69 66v340h46v-298l71 69v-46l-71 -68v-362z" />
    <glyph glyph-name="Nacute" unicode="&#x143;" horiz-adv-x="577" 
d="M120 0h-45v674h45l225 -383c52 -92.667 91 -168 117 -226l2 1c-5.33301 78 -8 172.667 -8 284v324h45v-674h-44l-224 384c-54.667 96 -93.667 171.333 -117 226l-3 -1c4.66699 -69.333 7 -164.333 7 -285v-324zM354 820h71l-129 -110h-41z" />
    <glyph glyph-name="nacute" unicode="&#x144;" horiz-adv-x="487" 
d="M74 0v366c0 26.667 -1.33301 64.667 -4 114h43l3 -79h2c12 26 31 47.333 57 64s56 25 90 25c11.333 0 22.833 -1.33301 34.5 -4s24.667 -8.16699 39 -16.5s27 -19 38 -32s20.167 -31.333 27.5 -55s11 -50.834 11 -81.501v-301h-46v293c0 46 -9 83.667 -27 113
s-48 44 -90 44c-29.333 0 -55.833 -10 -79.5 -30s-39.5 -45.667 -47.5 -77c-3.33301 -13.333 -5 -27.666 -5 -42.999v-300h-46zM302 685h66l-118 -136h-35z" />
    <glyph glyph-name="Ncommaaccent" unicode="&#x145;" horiz-adv-x="577" 
d="M120 0h-45v674h45l225 -383c52 -92.667 91 -168 117 -226l2 1c-5.33301 78 -8 172.667 -8 284v324h45v-674h-44l-223 384c-54 92.667 -93.333 168 -118 226l-3 -1c4.66699 -69.333 7 -164.333 7 -285v-324zM235 -209l-13 26c51.333 9.33301 77 32 77 68
c0 24 -12.333 44.333 -37 61l41 12c25.333 -16 38 -39.333 38 -70c0 -29.333 -10.667 -52 -32 -68s-46 -25.667 -74 -29z" />
    <glyph glyph-name="ncommaaccent" unicode="&#x146;" horiz-adv-x="487" 
d="M74 0l-0.000976562 366c0 26.667 -1.33301 64.667 -4 114h43l3 -79h2c12 26 31 47.333 57 64s56 25 90 25c11.333 0 22.666 -1.33301 33.999 -4s24.333 -8.16699 39 -16.5s27.334 -19 38.001 -32s19.834 -31.333 27.501 -55s11.5 -50.834 11.5 -81.501v-301h-46v293
c0 46 -9 83.667 -27 113s-48 44 -90 44c-29.333 0 -55.833 -10 -79.5 -30s-39.5 -45.667 -47.5 -77c-3.33301 -13.333 -5 -27.666 -5 -42.999v-300h-46zM198.999 -205l-13 26c51.333 9.33301 77 32 77 68c0 24 -12.333 44.333 -37 61l41 12c25.333 -16 38 -39.333 38 -70
c0 -29.333 -10.667 -52 -32 -68s-46 -25.667 -74 -29z" />
    <glyph glyph-name="Ncaron" unicode="&#x147;" horiz-adv-x="577" 
d="M120 0h-45v674h45l225 -383c52 -92.667 91 -168 117 -226l2 1c-5.33301 78 -8 172.667 -8 284v324h45v-674h-44l-224 384c-54.667 96 -93.667 171.333 -117 226l-3 -1c4.66699 -69.333 7 -164.333 7 -285v-324zM308 705h-40l-101 103h52l69 -70h2l68 70h50z" />
    <glyph glyph-name="ncaron" unicode="&#x148;" horiz-adv-x="487" 
d="M74 0v366c0 26.667 -1.33301 64.667 -4 114h43l3 -79h2c12 26 31 47.333 57 64s56 25 90 25c11.333 0 22.833 -1.33301 34.5 -4s24.667 -8.16699 39 -16.5s27 -19 38 -32s20.167 -31.333 27.5 -55s11 -50.834 11 -81.501v-301h-46v293c0 46 -9 83.667 -27 113
s-48 44 -90 44c-29.333 0 -55.833 -10 -79.5 -30s-39.5 -45.667 -47.5 -77c-3.33301 -13.333 -5 -27.666 -5 -42.999v-300h-46zM263 549h-36l-88 136h44l60 -97h3l60 97h43z" />
    <glyph glyph-name="napostrophe" unicode="&#x149;" horiz-adv-x="487" 
d="M74 0v366c0 26.667 -1.33301 64.667 -4 114h43l3 -79h2c12 26 31 47.333 57 64s56 25 90 25c11.333 0 22.833 -1.33301 34.5 -4s24.667 -8.16699 39 -16.5s27 -19 38 -32s20.167 -31.333 27.5 -55s11 -50.834 11 -81.501v-301h-46v293c0 46 -9 83.667 -27 113
s-48 44 -90 44c-29.333 0 -55.833 -10 -79.5 -30s-39.5 -45.667 -47.5 -77c-3.33301 -13.333 -5 -27.666 -5 -42.999v-300h-46zM47 540l-21.002 17.998c24.667 24.667 37 51.334 37 80.001c0 24.667 -12.333 45.334 -37 62.001l43 11c24 -15.333 36 -38 36 -68
c0 -18 -4.66699 -35.333 -14 -52s-16.166 -27 -20.499 -31s-12.166 -10.667 -23.499 -20z" />
    <glyph glyph-name="Eng" unicode="&#x14a;" horiz-adv-x="577" 
d="M120 0h-44.999v674h45l225 -383c52 -92.667 91 -168 117 -226l2 1c-5.33301 78 -8 172.667 -8 284v324h45v-647c0 -60.667 -12.333 -108.5 -37 -143.5s-65 -57.833 -121 -68.5l-9 38c40.667 8.66699 71.167 24.667 91.5 48s31.166 56.333 32.499 99l-225 384
c-54.667 96 -93.667 171.333 -117 226l-3 -1c4.66699 -69.333 7 -164.333 7 -285v-324z" />
    <glyph glyph-name="eng" unicode="&#x14b;" horiz-adv-x="487" 
d="M74 0v366c0 26.667 -1.33301 64.667 -4 114h43l3 -79h2c12 26 31 47.333 57 64s56 25 90 25c11.333 0 22.833 -1.33301 34.5 -4s24.667 -8.16699 39 -16.5s27 -19 38 -32s20.167 -31.333 27.5 -55s11 -50.834 11 -81.501v-251c0 -64 -14.5 -114 -43.5 -150
s-68.167 -58.333 -117.5 -67l-9 40c82.667 17.333 124 77 124 179v241c0 46 -9 83.667 -27 113s-48 44 -90 44c-29.333 0 -55.833 -10 -79.5 -30s-39.5 -45.667 -47.5 -77c-3.33301 -13.333 -5 -27.666 -5 -42.999v-300h-46z" />
    <glyph glyph-name="Omacron" unicode="&#x14c;" horiz-adv-x="597" 
d="M295 -10h-0.999023c-74 0 -135.333 30.167 -184 90.5s-73 144.166 -73 251.499c0 110.667 25.167 197 75.5 259s114.166 93 191.499 93c75.333 0 136.833 -30.167 184.5 -90.5s71.5 -144.166 71.5 -251.499c0 -114.667 -25.5 -202 -76.5 -262s-113.833 -90 -188.5 -90z
M297.001 30h0.998047c46 0 85.667 15.333 119 46s57.5 68.834 72.5 114.501s22.5 95.5 22.5 149.5c0 36 -4.16699 71.333 -12.5 106s-20.666 67.167 -36.999 97.5s-38.666 54.666 -66.999 72.999s-60.5 27.5 -96.5 27.5c-48 0 -88.667 -15.833 -122 -47.5
s-57 -70.167 -71 -115.5s-21 -94.666 -21 -147.999c0 -50.667 7.5 -98.334 22.5 -143.001s39 -82.5 72 -113.5s72.167 -46.5 117.5 -46.5zM190.999 777h219v-38h-219v38z" />
    <glyph glyph-name="omacron" unicode="&#x14d;" horiz-adv-x="478" 
d="M236 -10h-1c-56 0 -102.667 22 -140 66s-56 104.333 -56 181c0 80 19.667 142.167 59 186.5s87.333 66.5 144 66.5c58 0 105.333 -22.167 142 -66.5s55 -104.5 55 -180.5c0 -82.667 -20.333 -145.5 -61 -188.5s-88 -64.5 -142 -64.5zM237 29l0.999023 0.00292969
c45.333 0 82.333 21.167 111 63.5s43 92.166 43 149.499c0 31.333 -4.5 62 -13.5 92s-25.667 57 -50 81s-54.166 36 -89.499 36c-34.667 0 -64 -11.333 -88 -34s-40.833 -49.334 -50.5 -80.001s-14.5 -63.334 -14.5 -98.001c0 -56 14 -105 42 -147s64.333 -63 109 -63z
M137.999 625.003h203v-38h-203v38z" />
    <glyph glyph-name="Obreve" unicode="&#x14e;" horiz-adv-x="597" 
d="M295 -10h-0.999023c-74 0 -135.333 30.167 -184 90.5s-73 144.166 -73 251.499c0 110.667 25.167 197 75.5 259s114.166 93 191.499 93c75.333 0 136.833 -30.167 184.5 -90.5s71.5 -144.166 71.5 -251.499c0 -114.667 -25.5 -202 -76.5 -262s-113.833 -90 -188.5 -90z
M297.001 30l0.996094 0.00292969c46 0 85.667 15.333 119 46s57.5 68.834 72.5 114.501s22.5 95.5 22.5 149.5c0 36 -4.16699 71.333 -12.5 106s-20.666 67.167 -36.999 97.5s-38.666 54.666 -66.999 72.999s-60.5 27.5 -96.5 27.5
c-47.333 0 -87.666 -15.833 -120.999 -47.5s-57.166 -70.334 -71.499 -116.001s-21.5 -94.834 -21.5 -147.501c0 -50.667 7.5 -98.334 22.5 -143.001s39 -82.5 72 -113.5s72.167 -46.5 117.5 -46.5zM188.997 814.003h33.001c8 -32 33.333 -48 76 -48c44 0 69.333 16 76 48
h33c-0.666992 -26.667 -10.5 -48.5 -29.5 -65.5s-45.833 -25.5 -80.5 -25.5c-34 0 -60.333 8.33301 -79 25s-28.334 38.667 -29.001 66z" />
    <glyph glyph-name="obreve" unicode="&#x14f;" horiz-adv-x="478" 
d="M236 -10h-1c-56 0 -102.667 22 -140 66s-56 104.333 -56 181c0 80 19.667 142.167 59 186.5s87.333 66.5 144 66.5c57.333 0 104.5 -22.167 141.5 -66.5s55.5 -104.5 55.5 -180.5c0 -82.667 -20.5 -145.5 -61.5 -188.5s-88.167 -64.5 -141.5 -64.5zM237 29l1 0.00292969
c45.333 0 82.333 21.167 111 63.5s43 92.166 43 149.499c0 31.333 -4.66699 62 -14 92s-26 57 -50 81s-53.667 36 -89 36c-34.667 0 -64 -11.333 -88 -34s-40.833 -49.334 -50.5 -80.001s-14.5 -63.334 -14.5 -98.001c0 -56 14 -105 42 -147s64.333 -63 109 -63z
M128 672.003l33.999 -0.000976562c2.66699 -20.667 10.834 -37.834 24.501 -51.501s30.834 -20.5 51.501 -20.5c22.667 0 40.667 7 54 21s20.666 31 21.999 51h34c0 -33.333 -10.167 -60.166 -30.5 -80.499s-46.833 -30.5 -79.5 -30.5c-36.667 0 -64.167 10.833 -82.5 32.5
s-27.5 47.834 -27.5 78.501z" />
    <glyph glyph-name="Ohungarumlaut" unicode="&#x150;" horiz-adv-x="597" 
d="M295 -10h-0.999023c-74 0 -135.333 30.167 -184 90.5s-73 144.166 -73 251.499c0 110.667 25.167 197 75.5 259s114.166 93 191.499 93c75.333 0 136.833 -30.167 184.5 -90.5s71.5 -144.166 71.5 -251.499c0 -114.667 -25.5 -202 -76.5 -262s-113.833 -90 -188.5 -90z
M297.001 30h0.998047c46 0 85.667 15.333 119 46s57.5 68.834 72.5 114.501s22.5 95.5 22.5 149.5c0 36 -4.16699 71.333 -12.5 106s-20.666 67.167 -36.999 97.5s-38.666 54.666 -66.999 72.999s-60.5 27.5 -96.5 27.5c-48 0 -88.667 -15.833 -122 -47.5
s-57 -70.167 -71 -115.5s-21 -94.666 -21 -147.999c0 -50.667 7.5 -98.334 22.5 -143.001s39 -82.5 72 -113.5s72.167 -46.5 117.5 -46.5zM301.999 823h67l-114 -104h-40zM424.999 823h67l-114 -104h-40z" />
    <glyph glyph-name="ohungarumlaut" unicode="&#x151;" horiz-adv-x="478" 
d="M236 -10h-1c-56 0 -102.667 22 -140 66s-56 104.333 -56 181c0 80 19.667 142.167 59 186.5s87.333 66.5 144 66.5c58 0 105.333 -22.167 142 -66.5s55 -104.5 55 -180.5c0 -82.667 -20.333 -145.5 -61 -188.5s-88 -64.5 -142 -64.5zM237 29l0.999023 0.00292969
c45.333 0 82.333 21.167 111 63.5s43 92.166 43 149.499c0 31.333 -4.5 62 -13.5 92s-25.667 57 -50 81s-54.166 36 -89.499 36c-34.667 0 -64 -11.333 -88 -34s-40.833 -49.334 -50.5 -80.001s-14.5 -63.334 -14.5 -98.001c0 -56 14 -105 42 -147s64.333 -63 109 -63z
M236.999 684.003h62l-114 -129h-35zM359.999 684.003h62l-114 -129h-35z" />
    <glyph glyph-name="OE" unicode="&#x152;" horiz-adv-x="783" 
d="M752 40v-39.998h-297c-10.667 -0.666992 -30.334 -2.33398 -59.001 -5.00098c-24.667 -3.33301 -47.667 -5 -69 -5c-90 0 -160.833 32 -212.5 96s-77.5 146 -77.5 246c0 114 28 201.167 84 261.5s127.333 90.5 214 90.5c24 0 47.667 -1.66699 71 -5
c30.667 -2.66699 49.334 -4.33398 56.001 -5.00098h275v-40h-257v-260h242v-40h-242v-294h272zM434 43.002v587.001c-30.667 9.33301 -65.667 14 -105 14c-74.667 0 -134 -27.333 -178 -82s-66 -130 -66 -226c0 -98.667 22.667 -174.334 68 -227.001s106.333 -79 183 -79
c44 0 76.667 4.33301 98 13z" />
    <glyph glyph-name="oe" unicode="&#x153;" horiz-adv-x="774" 
d="M735 249l-303.002 -0.000976562c-0.666992 -74 13.333 -129 42 -165s67.667 -54 117 -54c35.333 0 72.333 8.66699 111 26l13 -36c-32.667 -20 -76.667 -30 -132 -30c-40.667 0 -76.5 10.667 -107.5 32s-53.5 52.666 -67.5 93.999h-2
c-13.333 -41.333 -35.666 -72.666 -66.999 -93.999s-65.666 -32 -102.999 -32c-57.333 0 -104.5 22.167 -141.5 66.5s-55.5 104.833 -55.5 181.5c0 78.667 19.167 140.334 57.5 185.001s85.833 67 142.5 67c40 0 75.167 -11 105.5 -33s51.5 -53 63.5 -93h2
c14.667 40.667 36.167 71.834 64.5 93.501s60.833 32.5 97.5 32.5c32 0 59.5 -7.5 82.5 -22.5s40 -34.167 51 -57.5s18.833 -45.833 23.5 -67.5s7 -42.834 7 -63.501c0 -14.667 -0.333008 -24.667 -1 -30zM236.998 450.999l-0.999023 -0.000976562
c-35.333 0 -64.833 -12 -88.5 -36s-39.834 -51.167 -48.501 -81.5s-13 -61.833 -13 -94.5c0 -55.333 14 -104.166 42 -146.499s64.333 -63.5 109 -63.5c46.667 0 83.5 20.333 110.5 61s40.5 90.667 40.5 150c0 56 -12.5 105.167 -37.5 147.5s-62.833 63.5 -113.5 63.5z
M431.999 286.998h256c1.33301 44.667 -8.16699 83.167 -28.5 115.5s-50.833 48.5 -91.5 48.5s-72.5 -16.333 -95.5 -49s-36.5 -71 -40.5 -115z" />
    <glyph glyph-name="Racute" unicode="&#x154;" horiz-adv-x="464" 
d="M76 0l-0.00292969 665.002c38.667 9.33301 81.667 14 129 14c74.667 0 130.334 -17.667 167.001 -53c30.667 -30.667 46 -71.667 46 -123c0 -86 -41.667 -144.667 -125 -176v-2c50.667 -15.333 84.334 -65 101.001 -149c18.667 -94 34 -152.667 46 -176h-48
c-9.33301 18 -23 73.333 -41 166c-9.33301 49.333 -25.166 85.166 -47.499 107.499s-54.5 34.166 -96.5 35.499h-85v-309h-46zM121.997 633.002l-0.000976562 -287h86c49.333 0 88.833 13.667 118.5 41s44.5 63.333 44.5 108c0 48.667 -14.667 85.167 -44 109.5
s-70.333 36.5 -123 36.5c-33.333 0 -60.666 -2.66699 -81.999 -8zM286.996 823.002h70l-129 -110h-40z" />
    <glyph glyph-name="racute" unicode="&#x155;" horiz-adv-x="272" 
d="M74 0l-0.00195312 346c0 33.333 -1.33301 78 -4 134h43l2 -91h2c10 28.667 26.333 52.667 49 72s48.667 29 78 29c2 0 4.83301 -0.166992 8.5 -0.5s6.16699 -0.5 7.5 -0.5v-46c-3.33301 0.666992 -9.33301 1 -18 1c-31.333 0 -57.666 -12.333 -78.999 -37
s-34.666 -55.667 -39.999 -93c-2 -14 -3 -28.667 -3 -44v-270h-46zM207.998 685h66l-118 -136h-35z" />
    <glyph glyph-name="Rcommaaccent" unicode="&#x156;" horiz-adv-x="464" 
d="M76 0l-0.000976562 665.002c38.667 9.33301 81.667 14 129 14c74.667 0 130.334 -17.667 167.001 -53c30.667 -30.667 46 -71.667 46 -123c0 -86 -42 -144.667 -126 -176v-2c51.333 -15.333 85.333 -65 102 -149c18.667 -94 34 -152.667 46 -176h-48
c-9.33301 18 -23 73.333 -41 166c-10 49.333 -26 85.166 -48 107.499s-54.333 34.166 -97 35.499h-84v-309h-46zM121.999 633.002l-0.000976562 -287h86c48.667 0 88 13.667 118 41s45 63.333 45 108c0 48.667 -14.667 85.167 -44 109.5s-70.666 36.5 -123.999 36.5
c-32.667 0 -59.667 -2.66699 -81 -8zM186.998 -197.998l-14.001 25.999c51.333 8.66699 77 31.334 77 68.001c0 22.667 -12 43 -36 61l40 11c25.333 -16 38 -39 38 -69c0 -29.333 -10.667 -51.833 -32 -67.5s-45.666 -25.5 -72.999 -29.5z" />
    <glyph glyph-name="rcommaaccent" unicode="&#x157;" horiz-adv-x="272" 
d="M74 0l-0.00195312 346c0 33.333 -1.33301 78 -4 134h43l2 -91h2c10 28.667 26.333 52.667 49 72s48.667 29 78 29c2 0 4.83301 -0.166992 8.5 -0.5s6.16699 -0.5 7.5 -0.5v-46c-3.33301 0.666992 -9.33301 1 -18 1c-31.333 0 -57.666 -12.333 -78.999 -37
s-34.666 -55.667 -39.999 -93c-2 -14 -3 -28.667 -3 -44v-270h-46zM53.998 -209l-14.001 25.999c51.333 9.33301 77 32 77 68c0 24 -12.333 44.333 -37 61l41 12c25.333 -16 38 -39.333 38 -70c0 -28.667 -10.667 -51.167 -32 -67.5s-45.666 -26.166 -72.999 -29.499z" />
    <glyph glyph-name="Rcaron" unicode="&#x158;" horiz-adv-x="464" 
d="M76 0l-0.00292969 665.002c38.667 9.33301 81.667 14 129 14c74.667 0 130.334 -17.667 167.001 -53c30.667 -30.667 46 -71.667 46 -123c0 -86 -41.667 -144.667 -125 -176v-2c50.667 -15.333 84.334 -65 101.001 -149c18.667 -94 34 -152.667 46 -176h-48
c-9.33301 18 -23 73.333 -41 166c-9.33301 49.333 -25.166 85.166 -47.499 107.499s-54.5 34.166 -96.5 35.499h-85v-309h-46zM121.997 633.002l-0.000976562 -287h86c49.333 0 88.833 13.667 118.5 41s44.5 63.333 44.5 108c0 48.667 -14.667 85.167 -44 109.5
s-70.333 36.5 -123 36.5c-33.333 0 -60.666 -2.66699 -81.999 -8zM245.996 713.002h-40l-101 103h52l69 -70h2l67 70h50z" />
    <glyph glyph-name="rcaron" unicode="&#x159;" horiz-adv-x="272" 
d="M74 0l-0.00195312 346c0 33.333 -1.33301 78 -4 134h43l2 -91h2c10 28.667 26.333 52.667 49 72s48.667 29 78 29c2 0 4.83301 -0.166992 8.5 -0.5s6.16699 -0.5 7.5 -0.5v-46c-3.33301 0.666992 -9.33301 1 -18 1c-31.333 0 -57.666 -12.333 -78.999 -37
s-34.666 -55.667 -39.999 -93c-2 -14 -3 -28.667 -3 -44v-270h-46zM172.998 549h-35l-88 136h44l60 -97h2l61 97h42z" />
    <glyph glyph-name="Sacute" unicode="&#x15a;" horiz-adv-x="427" 
d="M39 32l16.998 38c38.667 -26 82 -39 130 -39c46 0 82.667 12.667 110 38s41 59 41 101c0 36.667 -9.83301 67.167 -29.5 91.5s-50.834 46.5 -93.501 66.5c-106 44 -159 106 -159 186c0 49.333 17.333 89.833 52 121.5s78.667 47.5 132 47.5c51.333 0 91.333 -10 120 -30
l-18 -39c-27.333 19.333 -62.666 29 -105.999 29c-44.667 0 -78.167 -12.167 -100.5 -36.5s-33.5 -52.166 -33.5 -83.499c0 -36.667 10 -66 30 -88s53 -43.667 99 -65c52.667 -26 91.334 -53.833 116.001 -83.5s37 -67.167 37 -112.5
c0 -52.667 -17.833 -96.334 -53.5 -131.001s-84.5 -52 -146.5 -52c-26 0 -52.667 4 -80 12s-48.666 17.667 -63.999 29zM281.998 823h71l-129 -110h-41z" />
    <glyph glyph-name="sacute" unicode="&#x15b;" horiz-adv-x="341" 
d="M37 23l17.998 39.002c30 -20.667 62.333 -31 97 -31c32.667 0 58 8.33301 76 25s27 38.334 27 65.001c0 24.667 -6.83301 45.167 -20.5 61.5s-36.834 32.166 -69.501 47.499c-76.667 35.333 -115 79.666 -115 132.999c0 36 12.833 66.167 38.5 90.5
s59.167 36.5 100.5 36.5c36.667 0 69.334 -9.66699 98.001 -29l-19 -38c-25.333 18 -53.666 27 -84.999 27c-27.333 0 -48.666 -7.83301 -63.999 -23.5s-23 -34.5 -23 -56.5s6.5 -39.833 19.5 -53.5s35.833 -28.5 68.5 -44.5c38 -17.333 67 -37 87 -59s30 -50 30 -84
c0 -42.667 -14 -76.334 -42 -101.001s-64.667 -37 -110 -37c-42 0 -79.333 10.667 -112 32zM228.998 685.002h66l-118 -136h-35z" />
    <glyph glyph-name="Scircumflex" unicode="&#x15c;" horiz-adv-x="427" 
d="M39 32l16.998 38c38.667 -26 82 -39 130 -39c46 0 82.667 12.667 110 38s41 59 41 101c0 36.667 -9.83301 67.167 -29.5 91.5s-50.834 46.5 -93.501 66.5c-106 44 -159 106 -159 186c0 49.333 17.333 89.833 52 121.5s78.667 47.5 132 47.5c51.333 0 91.333 -10 120 -30
l-18 -39c-27.333 19.333 -62.666 29 -105.999 29c-44.667 0 -78.167 -12.167 -100.5 -36.5s-33.5 -52.166 -33.5 -83.499c0 -36.667 10 -66 30 -88s53 -43.667 99 -65c52.667 -26 91.334 -53.833 116.001 -83.5s37 -67.167 37 -112.5
c0 -52.667 -17.833 -96.334 -53.5 -131.001s-84.5 -52 -146.5 -52c-26 0 -52.667 4 -80 12s-48.666 17.667 -63.999 29zM196.998 816h40l101 -103h-52l-68 68h-2l-69 -68h-50z" />
    <glyph glyph-name="scircumflex" unicode="&#x15d;" horiz-adv-x="341" 
d="M37 23l17.998 39.002c30 -20.667 62.333 -31 97 -31c32.667 0 58 8.33301 76 25s27 38.334 27 65.001c0 24.667 -6.83301 45.167 -20.5 61.5s-36.834 32.166 -69.501 47.499c-76.667 35.333 -115 79.666 -115 132.999c0 36 12.833 66.167 38.5 90.5
s59.167 36.5 100.5 36.5c36.667 0 69.334 -9.66699 98.001 -29l-19 -38c-25.333 18 -53.666 27 -84.999 27c-27.333 0 -48.666 -7.83301 -63.999 -23.5s-23 -34.5 -23 -56.5s6.5 -39.833 19.5 -53.5s35.833 -28.5 68.5 -44.5c38 -17.333 67 -37 87 -59s30 -50 30 -84
c0 -42.667 -14 -76.334 -42 -101.001s-64.667 -37 -110 -37c-42 0 -79.333 10.667 -112 32zM153.998 685.002h33l89 -136h-45l-59 97h-2l-59 -97h-43z" />
    <glyph glyph-name="Scedilla" unicode="&#x15e;" horiz-adv-x="427" 
d="M39 32l17 37.999c38.667 -26 81.667 -39 129 -39c46.667 0 83.667 12.667 111 38s41 59 41 101c0 36 -9.83301 66.333 -29.5 91s-50.834 47 -93.501 67c-106 44 -159 106 -159 186c0 49.333 17.333 89.833 52 121.5s78.667 47.5 132 47.5c51.333 0 91.333 -10 120 -30
l-18 -39c-27.333 19.333 -63 29 -107 29c-44.667 0 -78 -12.167 -100 -36.5s-33 -52.166 -33 -83.499c0 -36.667 10 -66 30 -88s52.667 -43.667 98 -65c52.667 -26 91.5 -53.833 116.5 -83.5s37.5 -67.167 37.5 -112.5c0 -44.667 -13.167 -83.167 -39.5 -115.5
s-63.5 -53.166 -111.5 -62.499l-30 -50c18.667 -2.66699 34.5 -10.334 47.5 -23.001s19.5 -28.334 19.5 -47.001c0 -24 -8.66699 -42.333 -26 -55s-38.333 -19 -63 -19c-22 0 -42.333 5.66699 -61 17l12 34c15.333 -9.33301 33 -14 53 -14c28.667 0 43 11.333 43 34
c0 24.667 -24.667 40.334 -74 47.001l40 71h-10c-26 0 -52.667 4 -80 12s-48.666 17.667 -63.999 29z" />
    <glyph glyph-name="scedilla" unicode="&#x15f;" horiz-adv-x="341" 
d="M37 23l17.9971 39c30 -20.667 62.333 -31 97 -31c32.667 0 58 8.33301 76 25s27 38.334 27 65.001c0 24.667 -6.83301 45.167 -20.5 61.5s-36.834 32.166 -69.501 47.499c-76.667 35.333 -115 79.666 -115 132.999c0 36 12.833 66.167 38.5 90.5s59.167 36.5 100.5 36.5
c36.667 0 69.334 -9.66699 98.001 -29l-19 -38c-25.333 18 -53.666 27 -84.999 27c-27.333 0 -48.666 -7.83301 -63.999 -23.5s-23 -34.5 -23 -56.5s6.5 -39.833 19.5 -53.5s35.833 -28.5 68.5 -44.5c38 -17.333 67 -37 87 -59s30 -50 30 -84
c0 -34.667 -9.66699 -63.667 -29 -87s-45.666 -38.666 -78.999 -45.999l-31 -50c18.667 -2 34.667 -9.33301 48 -22s20 -28 20 -46c0 -25.333 -8.5 -44.333 -25.5 -57s-38.5 -19 -64.5 -19c-22.667 0 -43 5.66699 -61 17l13 34c14 -9.33301 31.333 -14 52 -14
c13.333 0 24.333 2.66699 33 8s12.667 14 12 26c0 26 -25 41.667 -75 47l40 71h-5c-42 0 -79.333 10.667 -112 32z" />
    <glyph glyph-name="Scaron" unicode="&#x160;" horiz-adv-x="427" 
d="M39 32l16.998 38c38.667 -26 82 -39 130 -39c46 0 82.667 12.667 110 38s41 59 41 101c0 36.667 -9.83301 67.167 -29.5 91.5s-50.834 46.5 -93.501 66.5c-106 44 -159 106 -159 186c0 49.333 17.333 89.833 52 121.5s78.667 47.5 132 47.5c51.333 0 91.333 -10 120 -30
l-18 -39c-27.333 19.333 -62.666 29 -105.999 29c-44.667 0 -78.167 -12.167 -100.5 -36.5s-33.5 -52.166 -33.5 -83.499c0 -36.667 10 -66 30 -88s53 -43.667 99 -65c52.667 -26 91.334 -53.833 116.001 -83.5s37 -67.167 37 -112.5
c0 -52.667 -17.833 -96.334 -53.5 -131.001s-84.5 -52 -146.5 -52c-26 0 -52.667 4 -80 12s-48.666 17.667 -63.999 29zM248.998 713h-40l-102 103h52l69 -70h2l68 70h50z" />
    <glyph glyph-name="scaron" unicode="&#x161;" horiz-adv-x="341" 
d="M37 23l17.998 39.002c30 -20.667 62.333 -31 97 -31c32.667 0 58 8.33301 76 25s27 38.334 27 65.001c0 24.667 -6.83301 45.167 -20.5 61.5s-36.834 32.166 -69.501 47.499c-76.667 35.333 -115 79.666 -115 132.999c0 36 12.833 66.167 38.5 90.5
s59.167 36.5 100.5 36.5c36.667 0 69.334 -9.66699 98.001 -29l-19 -38c-25.333 18 -53.666 27 -84.999 27c-27.333 0 -48.666 -7.83301 -63.999 -23.5s-23 -34.5 -23 -56.5s6.5 -39.833 19.5 -53.5s35.833 -28.5 68.5 -44.5c38 -17.333 67 -37 87 -59s30 -50 30 -84
c0 -42.667 -14 -76.334 -42 -101.001s-64.667 -37 -110 -37c-42 0 -79.333 10.667 -112 32zM193.998 549.002h-36l-88 136h45l60 -97h2l60 97h43z" />
    <glyph glyph-name="Tcommaaccent" unicode="&#x162;" horiz-adv-x="424" 
d="M190 0v635h-192v39h430v-39h-192v-635h-46zM157 -209l-14.001 25.999c51.333 9.33301 77 32 77 68c0 24 -12.333 44.333 -37 61l41 12c25.333 -16 38 -39.333 38 -70c0 -28.667 -10.667 -51.167 -32 -67.5s-45.666 -26.166 -72.999 -29.499z" />
    <glyph glyph-name="tcommaaccent" unicode="&#x163;" horiz-adv-x="282" 
d="M91 566l46.001 19v-105h123v-38h-123v-316c0 -63.333 21.667 -95 65 -95c20 0 35.667 2 47 6l5 -36c-15.333 -6.66699 -35 -10 -59 -10c-34.667 0 -60.334 10.667 -77.001 32c-18 21.333 -27 59.333 -27 114v305h-75v38h75v86zM107.001 -214l-13 26
c51.333 9.33301 77 32 77 68c0 24 -12.333 44.333 -37 61l41 12c25.333 -16 38 -39.333 38 -70c0 -29.333 -10.667 -52 -32 -68s-46 -25.667 -74 -29z" />
    <glyph glyph-name="Tcaron" unicode="&#x164;" horiz-adv-x="424" 
d="M190 0v635h-192v39h430v-39h-192v-635h-46zM232 710h-39l-102 103h52l69 -70h2l68 70h50z" />
    <glyph glyph-name="tcaron" unicode="&#x165;" horiz-adv-x="292" 
d="M91 566l46.001 19v-105h123v-38h-123v-316c0 -63.333 21.667 -95 65 -95c20 0 35.667 2 47 6l5 -36c-15.333 -6.66699 -35 -10 -59 -10c-34.667 0 -60.334 10.667 -77.001 32c-18 21.333 -27 59.333 -27 114v305h-75v38h75v86zM240.001 540l-21.002 19
c24.667 23.333 37 49.666 37 78.999c0 24.667 -12.333 45.334 -37 62.001l43 11c24 -15.333 36 -38 36 -68c0 -18 -4.66699 -35.333 -14 -52s-16.166 -27 -20.499 -31s-12.166 -10.667 -23.499 -20z" />
    <glyph glyph-name="Tbar" unicode="&#x166;" horiz-adv-x="424" 
d="M428 635h-192v-259h117v-38h-117v-338h-46v338h-117v38h117v259h-192v39h430v-39z" />
    <glyph glyph-name="tbar" unicode="&#x167;" horiz-adv-x="282" 
d="M260 442h-122.999v-142h97v-38h-97v-136c0 -63.333 21.667 -95 65 -95c20.667 0 36 2 46 6l6 -36c-15.333 -6.66699 -35 -10 -59 -10c-34.667 0 -60.334 10.667 -77.001 32c-18 21.333 -27 59.333 -27 114v125h-64v38h64v142h-75v38h75v86l46 19v-105h123v-38z" />
    <glyph glyph-name="Utilde" unicode="&#x168;" horiz-adv-x="567" 
d="M76 674h46.001v-423c0 -76 14.5 -131.833 43.5 -167.5s67.167 -53.5 114.5 -53.5c52 0 92.667 18.167 122 54.5s44 91.833 44 166.5v423h46v-418c0 -92.667 -20 -160.167 -60 -202.5s-91.667 -63.5 -155 -63.5c-58.667 0 -106.834 20.167 -144.501 60.5
s-56.5 105.5 -56.5 195.5v428zM206.001 717h-32.001c0 24 5.33301 44 16 60s25.334 24 44.001 24c13.333 0 31 -6.66699 53 -20c22.667 -11.333 38.667 -17 48 -17c16.667 0 25.667 12.333 27 37h32c0 -52.667 -20 -79 -60 -79c-12.667 0 -31 6.33301 -55 19
c-22.667 12.667 -38 19 -46 19c-14.667 0 -23.667 -14.333 -27 -43z" />
    <glyph glyph-name="utilde" unicode="&#x169;" horiz-adv-x="481" 
d="M407 480v-362.001c0 -32 1.33301 -71.333 4 -118h-43l-3 74h-2c-12 -22 -30.5 -41.5 -55.5 -58.5s-54.833 -25.5 -89.5 -25.5c-40 0 -74.5 15.333 -103.5 46s-43.5 82.334 -43.5 155.001v289h46v-280c0 -113.333 37.333 -170 112 -170c30.667 0 57 9.5 79 28.5
s37.333 40.5 46 64.5c4.66699 17.333 7 34.333 7 51v306h46zM165 569.999h-33.001c-0.666992 25.333 4.33301 45.833 15 61.5s25.334 23.5 44.001 23.5c8.66699 0 27 -7 55 -21c21.333 -10.667 35.333 -16 42 -16c16.667 0 26 13.333 28 40h32
c0 -54.667 -19.667 -82 -59 -82c-13.333 0 -31.333 6.33301 -54 19c-20.667 12 -35 18 -43 18c-16 0 -25 -14.333 -27 -43z" />
    <glyph glyph-name="Umacron" unicode="&#x16a;" horiz-adv-x="567" 
d="M76 674h46v-423c0 -76 14.5 -131.833 43.5 -167.5s67.167 -53.5 114.5 -53.5c52 0 92.667 18.167 122 54.5s44 91.833 44 166.5v423h46v-418c0 -92.667 -19.833 -160.167 -59.5 -202.5s-91.167 -63.5 -154.5 -63.5c-59.333 0 -107.833 20.167 -145.5 60.5
s-56.5 105.5 -56.5 195.5v428zM174 772h220v-38h-220v38z" />
    <glyph glyph-name="umacron" unicode="&#x16b;" horiz-adv-x="481" 
d="M407 480v-362.001c0 -32 1.33301 -71.333 4 -118h-43l-3 74h-2c-12 -22 -30.5 -41.5 -55.5 -58.5s-54.833 -25.5 -89.5 -25.5c-40 0 -74.5 15.333 -103.5 46s-43.5 82.334 -43.5 155.001v289h46v-280c0 -113.333 37.333 -170 112 -170c30.667 0 57 9.5 79 28.5
s37.333 40.5 46 64.5c4.66699 17.333 7 34.333 7 51v306h46zM138 624.999h203v-38h-203v38z" />
    <glyph glyph-name="Ubreve" unicode="&#x16c;" horiz-adv-x="567" 
d="M76 674h46.001v-423c0 -76 14.5 -131.833 43.5 -167.5s67.167 -53.5 114.5 -53.5c52 0 92.667 18.167 122 54.5s44 91.833 44 166.5v423h46v-418c0 -92.667 -20 -160.167 -60 -202.5s-91.667 -63.5 -155 -63.5c-58.667 0 -106.834 20.167 -144.501 60.5
s-56.5 105.5 -56.5 195.5v428zM175.001 814h33.002c8 -32 33.333 -48 76 -48c44 0 69.333 16 76 48h33c-0.666992 -26.667 -10.334 -48.5 -29.001 -65.5s-45.667 -25.5 -81 -25.5c-34 0 -60.333 8.33301 -79 25s-28.334 38.667 -29.001 66z" />
    <glyph glyph-name="ubreve" unicode="&#x16d;" horiz-adv-x="481" 
d="M407 480v-362.001c0 -32 1.33301 -71.333 4 -118h-43l-3 74h-2c-12 -22 -30.5 -41.5 -55.5 -58.5s-54.833 -25.5 -89.5 -25.5c-40 0 -74.5 15.333 -103.5 46s-43.5 82.334 -43.5 155.001v289h46v-280c0 -113.333 37.333 -170 112 -170c30.667 0 57 9.5 79 28.5
s37.333 40.5 46 64.5c4.66699 17.333 7 34.333 7 51v306h46zM130 671.999h33.9971c2.66699 -20.667 10.834 -37.834 24.501 -51.501s30.834 -20.5 51.501 -20.5c22.667 0 40.667 7 54 21s20.666 31 21.999 51h34c0 -33.333 -10.167 -60.166 -30.5 -80.499
s-46.833 -30.5 -79.5 -30.5c-37.333 0 -65.166 11 -83.499 33s-27.166 48 -26.499 78z" />
    <glyph glyph-name="Uring" unicode="&#x16e;" horiz-adv-x="567" 
d="M76 674h46v-423c0 -76 14.5 -131.833 43.5 -167.5s67.167 -53.5 114.5 -53.5c52 0 92.667 18.167 122 54.5s44 91.833 44 166.5v423h46v-418c0 -92.667 -19.833 -160.167 -59.5 -202.5s-91.167 -63.5 -154.5 -63.5c-59.333 0 -107.833 20.167 -145.5 60.5
s-56.5 105.5 -56.5 195.5v428zM285 861h1c25.333 0 46.333 -8.33301 63 -25s25 -37 25 -61c0 -23.333 -8.66699 -43 -26 -59s-38.333 -24 -63 -24c-26 0 -47.5 8 -64.5 24s-25.5 35.667 -25.5 59c0 24 8.5 44.333 25.5 61s38.5 25 64.5 25zM284 833h-1
c-14.667 0 -26.5 -5.66699 -35.5 -17s-13.5 -25 -13.5 -41c0 -14 4.83301 -26.5 14.5 -37.5s21.5 -16.5 35.5 -16.5c14.667 0 26.834 5.33301 36.501 16s14.5 24 14.5 40s-4.83301 29.333 -14.5 40s-21.834 16 -36.501 16z" />
    <glyph glyph-name="uring" unicode="&#x16f;" horiz-adv-x="481" 
d="M407 480v-362.001c0 -32 1.33301 -71.333 4 -118h-43l-3 74h-2c-12 -22 -30.5 -41.5 -55.5 -58.5s-54.833 -25.5 -89.5 -25.5c-40 0 -74.5 15.333 -103.5 46s-43.5 82.334 -43.5 155.001v289h46v-280c0 -113.333 37.333 -170 112 -170c30.667 0 57 9.5 79 28.5
s37.333 40.5 46 64.5c4.66699 17.333 7 34.333 7 51v306h46zM241 709.999h1c25.333 0 46.5 -8.66699 63.5 -26s25.5 -38.333 25.5 -63c0 -24 -9 -44.5 -27 -61.5s-39 -25.5 -63 -25.5c-25.333 0 -46.833 8.5 -64.5 25.5s-26.5 37.5 -26.5 61.5
c0 24.667 8.66699 45.667 26 63s39 26 65 26zM241 679.999l-1.00098 0.000976562c-15.333 0 -27.666 -5.66699 -36.999 -17s-14 -25.333 -14 -42c0 -14.667 5 -27.834 15 -39.501s22.333 -17.5 37 -17.5c15.333 0 28 5.66699 38 17s15 25 15 41c0 16.667 -5 30.5 -15 41.5
s-22.667 16.5 -38 16.5z" />
    <glyph glyph-name="Uhungarumlaut" unicode="&#x170;" horiz-adv-x="567" 
d="M76 674h46v-423c0 -76 14.5 -131.833 43.5 -167.5s67.167 -53.5 114.5 -53.5c52 0 92.667 18.167 122 54.5s44 91.833 44 166.5v423h46v-418c0 -92.667 -19.833 -160.167 -59.5 -202.5s-91.167 -63.5 -154.5 -63.5c-59.333 0 -107.833 20.167 -145.5 60.5
s-56.5 105.5 -56.5 195.5v428zM270 820h67l-113 -104h-40zM393 820h67l-114 -104h-39z" />
    <glyph glyph-name="uhungarumlaut" unicode="&#x171;" horiz-adv-x="481" 
d="M407 480v-362.001c0 -32 1.33301 -71.333 4 -118h-43l-3 74h-2c-12 -22 -30.5 -41.5 -55.5 -58.5s-54.833 -25.5 -89.5 -25.5c-40 0 -74.5 15.333 -103.5 46s-43.5 82.334 -43.5 155.001v289h46v-280c0 -113.333 37.333 -170 112 -170c30.667 0 57 9.5 79 28.5
s37.333 40.5 46 64.5c4.66699 17.333 7 34.333 7 51v306h46zM239 683.999h62l-115 -129h-34zM362 683.999h61l-114 -129h-34z" />
    <glyph glyph-name="Uogonek" unicode="&#x172;" horiz-adv-x="567" 
d="M367 -144l8.00098 -28.998c-16.667 -12.667 -38.334 -19 -65.001 -19c-24 0 -43.333 6.5 -58 19.5s-22 31.167 -22 54.5c0 32.667 18.667 69 56 109c-1.33301 0 -3 -0.166992 -5 -0.5s-3.33301 -0.5 -4 -0.5c-60 1.33301 -108.5 22 -145.5 62s-55.5 104.667 -55.5 194
v428h46v-423c0 -76 14.5 -131.833 43.5 -167.5s67.167 -53.5 114.5 -53.5c52 0 92.667 18.167 122 54.5s44 91.833 44 166.5v423h46v-418c0 -72.667 -13.5 -129.834 -40.5 -171.501s-62.833 -68.5 -107.5 -80.5c-18.667 -15.333 -35 -33.333 -49 -54
s-21 -40.334 -21 -59.001c0 -14.667 4.33301 -26 13 -34s20 -12 34 -12c16 0 31.333 3.66699 46 11z" />
    <glyph glyph-name="uogonek" unicode="&#x173;" horiz-adv-x="481" 
d="M407 480l0.000976562 -362c0 -48.667 2.33301 -88 7 -118l-4 3c-35.333 -43.333 -53 -82 -53 -116c0 -16 4.33301 -28.167 13 -36.5s20 -12.5 34 -12.5c17.333 0 32.666 3.33301 45.999 10l8 -30c-17.333 -12 -39.333 -18 -66 -18c-23.333 0 -42.333 6.66699 -57 20
s-22 31.666 -22 54.999c0 31.333 18.333 74 55 128l-3 71h-2c-12 -22 -30.5 -41.5 -55.5 -58.5s-54.833 -25.5 -89.5 -25.5c-40 0 -74.5 15.333 -103.5 46s-43.5 82.334 -43.5 155.001v289h46v-280c0 -113.333 37.333 -170 112 -170c30.667 0 57 9.5 79 28.5
s37.333 40.5 46 64.5c4.66699 17.333 7 34.333 7 51v306h46z" />
    <glyph glyph-name="Wcircumflex" unicode="&#x174;" horiz-adv-x="766" 
d="M227 0l-42.998 0.00195312l-166 674h47l91 -374c24.667 -102.667 41.667 -181.334 51 -236.001h3c6.66699 46.667 25 125.667 55 237l99 373h44l92 -368c28 -114.667 45 -195.334 51 -242.001h3c7.33301 42 25.666 121.333 54.999 238l99 372h47l-183 -674h-43l-96 390
c-24.667 104 -40.334 179.333 -47.001 226h-2c-8 -52 -25.667 -127.667 -53 -227zM362.002 813.002h40l102 -103h-52l-69 68h-2l-68 -68h-50z" />
    <glyph glyph-name="wcircumflex" unicode="&#x175;" horiz-adv-x="666" 
d="M21 480l46.999 0.000976562l75 -267c16.667 -60.667 29.334 -111.334 38.001 -152.001h3c7.33301 35.333 21.666 86 42.999 152l86 267h42l82 -263c17.333 -54.667 32 -106.667 44 -156h3c6.66699 34 20 85 40 153l77 266h47l-148 -480h-39l-84 269
c-17.333 54.667 -31.666 107 -42.999 157h-2c-10 -43.333 -25 -96.333 -45 -159l-87 -267h-40zM314.999 685.001h34l88 -136h-45l-59 97h-2l-59 -97h-43z" />
    <glyph glyph-name="Ycircumflex" unicode="&#x176;" horiz-adv-x="469" 
d="M259 0h-45.999v295l-195 379h52l98 -193c39.333 -81.333 62.666 -131 69.999 -149h2c10 24.667 34.333 74.667 73 150l101 192h51l-206 -379v-295zM217.001 813h40l101 -103h-52l-68 68h-2l-68 -68h-50z" />
    <glyph glyph-name="ycircumflex" unicode="&#x177;" horiz-adv-x="403" 
d="M13 480h48.999l110 -307c11.333 -33.333 22 -68.666 32 -105.999h2l33 108l103 305h49l-121 -332c-30 -86 -55.5 -152 -76.5 -198s-45.833 -83.333 -74.5 -112c-27.333 -26.667 -54 -45.334 -80 -56.001l-18 39c30.667 14 57.334 33.667 80.001 59
c30 34 53.333 71.667 70 113c3.33301 10 5 17.667 5 23s-1.33301 12 -4 20zM183.999 685h33l88 -136h-45l-59 97h-2l-59 -97h-42z" />
    <glyph glyph-name="Ydieresis" unicode="&#x178;" horiz-adv-x="469" 
d="M259 0h-45.999v295l-195 379h52l98 -193c39.333 -81.333 62.666 -131 69.999 -149h2c10 24.667 34.333 74.667 73 150l101 192h51l-206 -379v-295zM162.001 717h-1.00195c-10.667 0 -19.167 3.66699 -25.5 11s-9.5 16.666 -9.5 27.999c0 10 3.5 18.833 10.5 26.5
s15.5 11.5 25.5 11.5c10.667 0 19.334 -3.66699 26.001 -11s10 -16.333 10 -27c0 -11.333 -3.16699 -20.666 -9.5 -27.999s-15.166 -11 -26.499 -11zM326.999 717h-1.00195c-10.667 0 -19.167 3.66699 -25.5 11s-9.5 16.666 -9.5 27.999c0 10 3.5 18.833 10.5 26.5
s15.5 11.5 25.5 11.5c10.667 0 19.334 -3.66699 26.001 -11s10 -16.333 10 -27c0 -11.333 -3.16699 -20.666 -9.5 -27.999s-15.166 -11 -26.499 -11z" />
    <glyph glyph-name="Zacute" unicode="&#x179;" horiz-adv-x="479" 
d="M31 0v30l357 603v2h-328v39h385v-30l-357 -602v-3h360v-39h-417zM312 820h71l-129 -110h-41z" />
    <glyph glyph-name="zacute" unicode="&#x17a;" horiz-adv-x="369" 
d="M15 0v28l233 344l49 68v2h-261v38h316v-30l-233 -343l-46 -67v-2h279v-38h-337zM246 685h66l-118 -136h-35z" />
    <glyph glyph-name="Zdotaccent" unicode="&#x17b;" horiz-adv-x="479" 
d="M31 0v30l357 603v2h-328v39h385v-30l-357 -602v-3h360v-39h-417zM247 725h-1c-9.33301 0 -17.5 3.83301 -24.5 11.5s-10.5 16.167 -10.5 25.5c0 10 3.66699 18.667 11 26s16 11 26 11s18.333 -3.66699 25 -11s10 -16 10 -26s-3.5 -18.667 -10.5 -26s-15.5 -11 -25.5 -11z
" />
    <glyph glyph-name="zdotaccent" unicode="&#x17c;" horiz-adv-x="369" 
d="M16 0v28l232 344l49 68v2h-260v38h316l-1 -30l-232 -343l-46 -67v-2h279v-38h-337zM188 575h-1c-10 0 -18.5 3.83301 -25.5 11.5s-10.5 16.5 -10.5 26.5c0 9.33301 3.66699 17.833 11 25.5s16 11.5 26 11.5s18.5 -3.66699 25.5 -11s10.5 -16 10.5 -26
s-3.5 -18.833 -10.5 -26.5s-15.5 -11.5 -25.5 -11.5z" />
    <glyph glyph-name="Zcaron" unicode="&#x17d;" horiz-adv-x="479" 
d="M31 0v30l357 603v2h-328v39h385v-30l-357 -602v-3h360v-39h-417zM272 710h-40l-102 103h52l69 -70h2l68 70h50z" />
    <glyph glyph-name="zcaron" unicode="&#x17e;" horiz-adv-x="369" 
d="M15 0v28l233 344l49 68v2h-261v38h316v-30l-233 -343l-46 -67v-2h279v-38h-337zM217 549h-36l-88 136h45l60 -97h2l60 97h43z" />
    <glyph glyph-name="florin" unicode="&#x192;" horiz-adv-x="449" 
d="M100 362l0.00292969 37h99l8 56c18 136.667 72.333 205 163 205c25.333 -1.33301 44.666 -6 57.999 -14l-11 -35c-18.667 6.66699 -36.334 10 -53.001 10c-62 0 -99 -53.667 -111 -161l-8 -61h120v-37h-124l-30 -232c-8.66699 -70 -24.334 -122.5 -47.001 -157.5
s-57.334 -52.5 -104.001 -52.5c-27.333 1.33301 -49.333 7 -66 17l13 34c15.333 -8.66699 34.666 -13 57.999 -13c30.667 0 53.834 14.333 69.501 43s26.834 71.667 33.501 129l27 232h-95z" />
    <glyph glyph-name="AEacute" unicode="&#x1fc;" horiz-adv-x="676" 
d="M50 0h-47l286 674h334v-40h-261l25 -260h227v-40h-222l30 -294h225v-40h-266l-28 263h-190zM179 301h171l-20 218c0 2.66699 -1.5 20 -4.5 52s-4.83301 55 -5.5 69h-5c-4.66699 -12.667 -12.5 -32.667 -23.5 -60s-18.5 -46.333 -22.5 -57zM463 820h71l-129 -110h-41z" />
    <glyph glyph-name="aeacute" unicode="&#x1fd;" horiz-adv-x="683" 
d="M644 253l-299.002 0.000976562c-2 -75.333 11.167 -131.333 39.5 -168s66.5 -55 114.5 -55c45.333 0 83 8.66699 113 26l12 -36c-34 -20 -78 -30 -132 -30c-38 0 -72.167 10 -102.5 30s-50.833 47.667 -61.5 83h-2c-10.667 -35.333 -30.334 -63 -59.001 -83
s-61.667 -30 -99 -30c-41.333 0 -73.5 12.5 -96.5 37.5s-34.5 55.5 -34.5 91.5c0 55.333 22.833 98 68.5 128s111.167 44.667 196.5 44v26c0 13.333 -1.5 26.666 -4.5 39.999s-8 27.5 -15 42.5s-18.5 27.333 -34.5 37s-35.333 14.5 -58 14.5c-40.667 0 -76 -11 -106 -33
l-15 34c38 25.333 79.667 38 125 38c77.333 0 123.333 -36.333 138 -109h1c13.333 34 33.333 60.667 60 80s57.334 29 92.001 29c31.333 0 58.333 -7.5 81 -22.5s39.334 -34.333 50.001 -58s18.334 -46 23.001 -67s7 -41.167 7 -60.5c0 -13.333 -0.666992 -23 -2 -29z
M301.998 163.001l-0.000976562 89.999c-145.333 3.33301 -218 -39.667 -218 -129c0 -30 8.5 -53.333 25.5 -70s38.167 -25 63.5 -25c32.667 -0.666992 59.834 8.33301 81.501 27s36.167 42.667 43.5 72c2.66699 10.667 4 22.334 4 35.001zM345.997 291h252.002
c1.33301 41.333 -8.33398 78.333 -29.001 111s-50 49 -88 49c-40.667 0 -72.834 -16.5 -96.501 -49.5s-36.5 -69.833 -38.5 -110.5zM403.999 685h66l-118 -136h-35z" />
    <glyph glyph-name="Oslashacute" unicode="&#x1fe;" horiz-adv-x="597" 
d="M82 -28l-28.002 20.998l58 90c-50 62 -75 145.333 -75 250c0 110.667 25.333 196.834 76 258.501s113.334 92.5 188.001 92.5c59.333 0 112 -20 158 -60l52 78l31 -20l-57 -87c50 -62.667 75 -146.667 75 -252c0 -59.333 -7.33301 -112.166 -22 -158.499
s-34.5 -83.333 -59.5 -111s-52.667 -48.5 -83 -62.5s-62.166 -21 -95.499 -21c-64 0 -118.333 21 -163 63zM138.998 126.998l295 458c-38 39.333 -82.667 59 -134 59c-36 0 -68.333 -9.33301 -97 -28s-51.167 -43 -67.5 -73s-28.833 -62.667 -37.5 -98s-13 -71.333 -13 -108
c0 -76.667 17.333 -147 52 -211zM457.998 550.998l-297 -459.001c36 -41.333 81.667 -62 137 -62c46 0 85.667 15.667 119 47s57.5 69.833 72.5 115.5s22.5 94.834 22.5 147.501c0 80 -17.333 150 -52 210zM368.998 826.997h71l-129 -110h-41z" />
    <glyph glyph-name="oslashacute" unicode="&#x1ff;" horiz-adv-x="478" 
d="M240 490h0.999023c41.333 0 78.333 -12.333 111 -37l34 53l31 -19l-38 -61c40 -46 60 -106.667 60 -182c0 -83.333 -20 -146.5 -60 -189.5s-86.667 -64.5 -140 -64.5c-43.333 0 -80.666 12.333 -111.999 37l-35 -54l-29 22l37 58c-40.667 46 -61 107.333 -61 184
c0 80 19.5 142.167 58.5 186.5s86.5 66.5 142.5 66.5zM124.999 93l203.999 322c-22 24 -52 36 -90 36c-51.333 0 -89.666 -21.667 -114.999 -65s-38 -92.333 -38 -147c0 -56 12.667 -104.333 38 -145zM352.998 384l-203 -321c23.333 -22.667 52 -34 86 -34
c48 0 86 21 114 63s42 92 42 150c0 54 -12.333 101.333 -37 142h-2zM292.998 685h66l-118 -136h-35z" />
    <glyph glyph-name="Scommaaccent" unicode="&#x218;" horiz-adv-x="427" 
d="M39 32l16.9971 38c38.667 -26 82 -39 130 -39c46 0 82.667 12.667 110 38s41 59 41 101c0 36 -9.66699 66.333 -29 91s-50.333 47 -93 67c-106.667 44 -160 106 -160 186c0 49.333 17.333 89.833 52 121.5s78.667 47.5 132 47.5c51.333 0 91.333 -10 120 -30l-18 -39
c-27.333 19.333 -62.666 29 -105.999 29c-44.667 0 -78.167 -12.167 -100.5 -36.5s-33.5 -52.166 -33.5 -83.499c0 -36.667 10 -66 30 -88s53 -43.667 99 -65c52.667 -26 91.334 -53.833 116.001 -83.5s37 -67.167 37 -112.5c0 -52.667 -17.833 -96.334 -53.5 -131.001
s-84.5 -52 -146.5 -52c-26 0 -52.667 4 -80 12s-48.666 17.667 -63.999 29zM158.997 -209l-13 26.001c51.333 9.33301 77 32.333 77 69c0 23.333 -12.333 43.666 -37 60.999l41 11c25.333 -16 38 -39.333 38 -70c0 -29.333 -10.667 -52 -32 -68s-46 -25.667 -74 -29z" />
    <glyph glyph-name="scommaaccent" unicode="&#x219;" horiz-adv-x="341" 
d="M37 23l17.999 39c30 -20.667 62.333 -31 97 -31c32.667 0 58 8.33301 76 25s27 38.334 27 65.001c0 24.667 -7 45.167 -21 61.5s-37.333 32.166 -70 47.499c-76 36 -114 80.333 -114 133c0 36 12.833 66.167 38.5 90.5s59.167 36.5 100.5 36.5
c36.667 0 69.334 -9.66699 98.001 -29l-19 -38c-25.333 18 -54 27 -86 27c-26.667 0 -47.667 -7.83301 -63 -23.5s-23 -34.5 -23 -56.5s6.5 -39.833 19.5 -53.5s35.833 -28.5 68.5 -44.5c38 -17.333 67 -37 87 -59s30 -50 30 -84c0 -42 -14.167 -75.5 -42.5 -100.5
s-64.833 -37.5 -109.5 -37.5c-42 0 -79.333 10.667 -112 32zM118.999 -209l-14.001 25.999c51.333 9.33301 77 32.333 77 69c0 22.667 -12 43 -36 61l40 11c25.333 -16 38 -39.333 38 -70c0 -28.667 -10.667 -51.167 -32 -67.5s-45.666 -26.166 -72.999 -29.499z" />
    <glyph glyph-name="uni021A" unicode="&#x21a;" horiz-adv-x="424" 
d="M190 0v635h-192v39h430v-39h-192v-635h-46zM157 -209l-14.001 25.999c51.333 9.33301 77 32 77 68c0 24 -12.333 44.333 -37 61l41 12c25.333 -16 38 -39.333 38 -70c0 -28.667 -10.667 -51.167 -32 -67.5s-45.666 -26.166 -72.999 -29.499z" />
    <glyph glyph-name="uni021B" unicode="&#x21b;" horiz-adv-x="282" 
d="M91 566l46.001 19v-105h123v-38h-123v-316c0 -63.333 21.667 -95 65 -95c20 0 35.667 2 47 6l5 -36c-15.333 -6.66699 -35 -10 -59 -10c-34.667 0 -60.334 10.667 -77.001 32c-18 21.333 -27 59.333 -27 114v305h-75v38h75v86zM107.001 -214l-13 26
c51.333 9.33301 77 32 77 68c0 24 -12.333 44.333 -37 61l41 12c25.333 -16 38 -39.333 38 -70c0 -29.333 -10.667 -52 -32 -68s-46 -25.667 -74 -29z" />
    <glyph glyph-name="circumflex" unicode="&#x2c6;" 
d="M133 685h33l88 -136h-45l-59 97h-2l-58 -97h-43z" />
    <glyph glyph-name="caron" unicode="&#x2c7;" 
d="M169 549h-36l-88 136h45l60 -97h2l60 97h43z" />
    <glyph glyph-name="uni02C9" unicode="&#x2c9;" 
d="M49 625h203v-38h-203v38z" />
    <glyph glyph-name="breve" unicode="&#x2d8;" 
d="M40 672l33.999 -0.000976562c2.66699 -20.667 10.834 -37.834 24.501 -51.501s30.834 -20.5 51.501 -20.5c22.667 0 40.667 7 54 21s20.666 31 21.999 51h34c0 -33.333 -10.167 -60.166 -30.5 -80.499s-46.833 -30.5 -79.5 -30.5c-36.667 0 -64.167 10.833 -82.5 32.5
s-27.5 47.834 -27.5 78.501z" />
    <glyph glyph-name="dotaccent" unicode="&#x2d9;" 
d="M151 575h-1c-10 0 -18.5 3.83301 -25.5 11.5s-10.5 16.5 -10.5 26.5c0 9.33301 3.66699 17.833 11 25.5s16 11.5 26 11.5s18.5 -3.66699 25.5 -11s10.5 -16 10.5 -26s-3.5 -18.833 -10.5 -26.5s-15.5 -11.5 -25.5 -11.5z" />
    <glyph glyph-name="ring" unicode="&#x2da;" horiz-adv-x="400" 
d="M201 710h1c25.333 0 46.5 -8.66699 63.5 -26s25.5 -38.333 25.5 -63c0 -24 -9 -44.5 -27 -61.5s-39 -25.5 -63 -25.5c-25.333 0 -46.833 8.5 -64.5 25.5s-26.5 37.5 -26.5 61.5c0 24.667 8.66699 45.667 26 63s39 26 65 26zM201 680l-1.00098 0.000976562
c-15.333 0 -27.666 -5.66699 -36.999 -17s-14 -25.333 -14 -42c0 -14.667 5 -27.834 15 -39.501s22.333 -17.5 37 -17.5c15.333 0 28 5.66699 38 17s15 25 15 41c0 16.667 -5 30.5 -15 41.5s-22.667 16.5 -38 16.5z" />
    <glyph glyph-name="ogonek" unicode="&#x2db;" 
d="M146 5h40.001c-43.333 -50.667 -65 -89.334 -65 -116.001c0 -15.333 4.5 -27.166 13.5 -35.499s20.167 -12.5 33.5 -12.5c15.333 0 30.666 3.33301 45.999 10l8 -28c-15.333 -12.667 -37 -19 -65 -19c-24 0 -43.333 6.33301 -58 19s-22 30.667 -22 54
c0 39.333 23 82 69 128z" />
    <glyph glyph-name="tilde" unicode="&#x2dc;" 
d="M75 570h-33.001c-0.666992 25.333 4.33301 45.833 15 61.5s25.334 23.5 44.001 23.5c8.66699 0 27 -7 55 -21c21.333 -10.667 35.333 -16 42 -16c16.667 0 26 13.333 28 40h32c0 -54.667 -19.667 -82 -59 -82c-13.333 0 -31.333 6.33301 -54 19c-20.667 12 -35 18 -43 18
c-16 0 -25 -14.333 -27 -43z" />
    <glyph glyph-name="hungarumlaut" unicode="&#x2dd;" 
d="M145 684h61l-114 -129h-34zM267 684h62l-114 -129h-34z" />
    <glyph glyph-name="uni037E" unicode="&#x37e;" horiz-adv-x="177" 
d="M70 -121l-37 -5.00098c7.33301 22.667 15.5 56.334 24.5 101.001s14.833 81.667 17.5 111l62 5c-6.66699 -32.667 -17.5 -72.167 -32.5 -118.5s-26.5 -77.5 -34.5 -93.5zM101 347.999h-1c-11.333 0 -20.833 4.33301 -28.5 13s-11.5 19.334 -11.5 32.001
c0 13.333 3.83301 24.5 11.5 33.5s17.5 13.5 29.5 13.5s21.833 -4.33301 29.5 -13s11.5 -20 11.5 -34c0 -12.667 -3.83301 -23.334 -11.5 -32.001s-17.5 -13 -29.5 -13z" />
    <glyph glyph-name="tonos" unicode="&#x384;" 
d="M129 686h56l-75 -136h-32z" />
    <glyph glyph-name="dieresistonos" unicode="&#x385;" horiz-adv-x="293" 
d="M137 693h50l-41 -144h-27zM49 577l-0.999023 0.000976562c-10.667 0 -19.334 3.5 -26.001 10.5s-10 15.5 -10 25.5s3.5 18.5 10.5 25.5s15.833 10.5 26.5 10.5c9.33301 0 17.333 -3.33301 24 -10s10 -15.334 10 -26.001c0 -10 -3.16699 -18.5 -9.5 -25.5
s-14.5 -10.5 -24.5 -10.5zM244.001 577.001l-0.999023 0.000976562c-9.33301 0 -17.333 3.5 -24 10.5s-10 15.5 -10 25.5s3.5 18.5 10.5 25.5s15.5 10.5 25.5 10.5s18.333 -3.33301 25 -10s10 -15.334 10 -26.001c0 -10 -3.33301 -18.5 -10 -25.5
s-15.334 -10.5 -26.001 -10.5z" />
    <glyph glyph-name="Alphatonos" unicode="&#x386;" horiz-adv-x="536" 
d="M388 235h-237l-74 -235h-47l218 674h45l218 -674h-48zM164 274h211l-71 215c-12 38.667 -23 81.667 -33 129h-3c-6.66699 -31.333 -17.667 -74 -33 -128zM89 674h50l-31 -141h-28z" />
    <glyph glyph-name="anoteleia" unicode="&#x387;" horiz-adv-x="177" 
d="M88 276h-1c-11.333 0 -20.833 4.33301 -28.5 13s-11.5 19.334 -11.5 32.001c0 13.333 3.83301 24.5 11.5 33.5s17.5 13.5 29.5 13.5s21.833 -4.33301 29.5 -13s11.5 -20 11.5 -34c0 -12.667 -3.83301 -23.334 -11.5 -32.001s-17.5 -13 -29.5 -13z" />
    <glyph glyph-name="Epsilontonos" unicode="&#x388;" horiz-adv-x="466" 
d="M406 375v-40h-242v-295h272v-40h-318v674h303v-40h-257v-259h242zM10 674h50l-31 -141h-29z" />
    <glyph glyph-name="Etatonos" unicode="&#x389;" horiz-adv-x="612" 
d="M118 674h46v-298h326v298h46v-674h-46v336h-326v-336h-46v674zM10 674h50l-31 -141h-29z" />
    <glyph glyph-name="Iotatonos" unicode="&#x38a;" horiz-adv-x="239" 
d="M118 674h46v-674h-46v674zM10 674h50l-31 -141h-29z" />
    <glyph glyph-name="Omicrontonos" unicode="&#x38c;" horiz-adv-x="615" 
d="M313 -10h-0.999023c-74 0 -135.333 30.167 -184 90.5s-73 144.166 -73 251.499c0 110.667 25.167 197 75.5 259s114.166 93 191.499 93c75.333 0 136.833 -30.167 184.5 -90.5s71.5 -144.166 71.5 -251.499c0 -114.667 -25.5 -202 -76.5 -262s-113.833 -90 -188.5 -90z
M315.001 30h0.998047c46 0 85.667 15.333 119 46s57.5 68.834 72.5 114.501s22.5 95.5 22.5 149.5c0 36 -4.16699 71.333 -12.5 106s-20.666 67.167 -36.999 97.5s-38.666 54.666 -66.999 72.999s-60.5 27.5 -96.5 27.5c-48 0 -88.667 -15.833 -122 -47.5
s-57 -70.167 -71 -115.5s-21 -94.666 -21 -147.999c0 -50.667 7.5 -98.334 22.5 -143.001s39 -82.5 72 -113.5s72.167 -46.5 117.5 -46.5zM8.99902 674h50l-30 -141h-29z" />
    <glyph glyph-name="Upsilontonos" unicode="&#x38e;" horiz-adv-x="605" 
d="M100 644l9.99805 35.999c16.667 -2 36.834 -10.167 60.501 -24.5s43.834 -31.166 60.501 -50.499c64 -70 102.333 -162.667 115 -278h2c16.667 109.333 58.667 200 126 272c40 42.667 79.333 69.667 118 81l10 -35c-17.333 -8.66699 -35.333 -20.667 -54 -36
s-38.667 -35.5 -60 -60.5s-41.333 -57 -60 -96s-33.667 -82.167 -45 -129.5c-10.667 -45.333 -16 -89 -16 -131v-192h-46v193c0 44 -4.33301 87.667 -13 131c-20 94 -49.5 167.167 -88.5 219.5s-78.833 85.833 -119.5 100.5zM9.99805 673.999h50l-31 -141h-29z" />
    <glyph glyph-name="Omegatonos" unicode="&#x38f;" horiz-adv-x="624" 
d="M454 44v-2.99902h138v-41h-204v34c42.667 31.333 77.667 76.333 105 135s40.666 120.334 39.999 185.001c0 45.333 -7 89.166 -21 131.499s-37.667 79.333 -71 111s-73.333 47.5 -120 47.5c-35.333 0 -67 -8.83301 -95 -26.5s-50.5 -40.834 -67.5 -69.501
s-29.833 -59.5 -38.5 -92.5s-13 -66.5 -13 -100.5c0 -62.667 14 -124.5 42 -185.5s62 -106.167 102 -135.5v-34h-203v41h137v3c-37.333 34.667 -67.666 79.167 -90.999 133.5s-35 113.833 -35 178.5c0 100 25.333 179.667 76 239s114 89 190 89
c74.667 0 136 -29.5 184 -88.5s72 -137.167 72 -234.5c0 -68 -11.667 -129.5 -35 -184.5s-54 -99.167 -92 -132.5zM10 674.001h50l-31 -141h-28z" />
    <glyph glyph-name="iotadieresistonos" unicode="&#x390;" horiz-adv-x="195" 
d="M120 480l-0.000976562 -390c0 -23.333 2.83301 -39.5 8.5 -48.5s17.5 -13.167 35.5 -12.5l-4 -37c-9.33301 -1.33301 -16.666 -2 -21.999 -2c-42.667 0 -64 32 -64 96v394h46zM96.999 679h50l-41 -144h-27zM8.99902 564h-1c-10 0 -18.333 3.33301 -25 10s-10 15 -10 25
c0 9.33301 3.5 17.333 10.5 24s15.5 10 25.5 10c9.33301 0 17.166 -3.33301 23.499 -10s9.5 -14.667 9.5 -24s-3.16699 -17.5 -9.5 -24.5s-14.166 -10.5 -23.499 -10.5zM204.999 564h-1.00098c-9.33301 0 -17.166 3.5 -23.499 10.5s-9.5 15.167 -9.5 24.5
s3.5 17.333 10.5 24s15.167 10 24.5 10s17.333 -3.33301 24 -10s10 -14.667 10 -24c0 -10 -3.33301 -18.333 -10 -25s-15 -10 -25 -10z" />
    <glyph glyph-name="Alpha" unicode="&#x391;" horiz-adv-x="536" 
d="M388 235h-237l-74 -235h-47l218 674h45l218 -674h-48zM164 274h211l-71 215c-12 38.667 -23 81.667 -33 129h-3c-6.66699 -31.333 -17.667 -74 -33 -128z" />
    <glyph glyph-name="Beta" unicode="&#x392;" horiz-adv-x="465" 
d="M76 1v664.001c39.333 9.33301 80 14 122 14c74 0 128.667 -17.667 164 -53c27.333 -27.333 41 -64.333 41 -111c0 -34.667 -10.5 -65.5 -31.5 -92.5s-48.5 -46.5 -82.5 -58.5v-2c36.667 -8.66699 68.834 -27.667 96.501 -57s41.5 -68.333 41.5 -117
c0 -52.667 -16.333 -96.334 -49 -131.001c-38.667 -41.333 -103.334 -62 -194.001 -62c-26 0 -62 2 -108 6zM122 633.001v-254h81c44.667 0 81.167 12.667 109.5 38s42.5 57 42.5 95c0 85.333 -53.333 128 -160 128c-32.667 0 -57 -2.33301 -73 -7zM122 341.001
l-0.000976562 -302c14 -3.33301 37.667 -5 71 -5c54.667 0 99.334 12.5 134.001 37.5s52 63.5 52 115.5c0 50.667 -17.5 89 -52.5 115s-79.5 39 -133.5 39h-71z" />
    <glyph glyph-name="Gamma" unicode="&#x393;" horiz-adv-x="397" 
d="M76 674h303v-39h-257v-635h-46v674z" />
    <glyph glyph-name="uni0394" unicode="&#x394;" horiz-adv-x="547" 
d="M31 0v32l219 642h45l219 -642v-32h-483zM78 40h388.001l-145 424c-24.667 74 -40.667 125.333 -48 154h-3c-8.66699 -36 -23.334 -83.667 -44.001 -143z" />
    <glyph glyph-name="Epsilon" unicode="&#x395;" horiz-adv-x="425" 
d="M364 375v-40h-242v-295h272v-40h-318v674h303v-40h-257v-259h242z" />
    <glyph glyph-name="Zeta" unicode="&#x396;" horiz-adv-x="479" 
d="M31 0v30l357 603v2h-328v39h385v-30l-357 -602v-3h360v-39h-417z" />
    <glyph glyph-name="Eta" unicode="&#x397;" horiz-adv-x="570" 
d="M76 674h46v-298h326v298h46v-674h-46v336h-326v-336h-46v674z" />
    <glyph glyph-name="Theta" unicode="&#x398;" horiz-adv-x="597" 
d="M295 -10l-0.999023 0.000976562c-74 0 -135.333 30.167 -184 90.5s-73 144.166 -73 251.499c0 110.667 25.167 197 75.5 259s114.166 93 191.499 93c75.333 0 136.833 -30 184.5 -90s71.5 -144 71.5 -252c0 -114 -25.5 -201.167 -76.5 -261.5
s-113.833 -90.5 -188.5 -90.5zM297.001 30.001h0.998047c46 0 85.667 15.333 119 46s57.5 68.834 72.5 114.501s22.5 95.5 22.5 149.5c0 36 -4.16699 71.333 -12.5 106s-20.666 67.167 -36.999 97.5s-38.666 54.666 -66.999 72.999s-60.5 27.5 -96.5 27.5
c-48 0 -88.667 -15.833 -122 -47.5s-57 -70.167 -71 -115.5s-21 -94.333 -21 -147c0 -50.667 7.5 -98.5 22.5 -143.5s39 -83 72 -114s72.167 -46.5 117.5 -46.5zM163.999 370.001h269v-40h-269v40z" />
    <glyph glyph-name="Iota" unicode="&#x399;" horiz-adv-x="198" 
d="M76 674h46v-674h-46v674z" />
    <glyph glyph-name="Kappa" unicode="&#x39a;" horiz-adv-x="460" 
d="M76 0v674h46v-338h3l29.5 39.5l24.5 32.5l212 266h56l-232 -286l250 -388h-54l-228 355l-61 -75v-280h-46z" />
    <glyph glyph-name="Lambda" unicode="&#x39b;" horiz-adv-x="536" 
d="M511 0h-48l-159 489c-12 38.667 -23 81.667 -33 129h-3c-6 -29.333 -17 -72.333 -33 -129l-158 -489h-47l218 674h45z" />
    <glyph glyph-name="Mu" unicode="&#x39c;" horiz-adv-x="717" 
d="M613 0l-19 321.001c-8.66699 147.333 -12.334 246 -11.001 296h-4c-28.667 -96 -55.667 -180 -81 -252l-129 -365h-29l-121 354c-38 111.333 -64.667 199 -80 263h-3c-1.33301 -80.667 -5.66602 -182.334 -12.999 -305.001l-18 -312h-46l45 674h53l130 -376
c35.333 -107.333 58.333 -181.333 69 -222h3c12 51.333 35 125 69 221l132 377h56l43 -674h-46z" />
    <glyph glyph-name="Nu" unicode="&#x39d;" horiz-adv-x="577" 
d="M120 0h-45v674h45l225 -383c52 -92.667 91 -168 117 -226l2 1c-5.33301 78 -8 172.667 -8 284v324h45v-674h-44l-224 384c-54.667 96 -93.667 171.333 -117 226l-3 -1c4.66699 -69.333 7 -164.333 7 -285v-324z" />
    <glyph glyph-name="Xi" unicode="&#x39e;" horiz-adv-x="461" 
d="M46 674h376v-40h-376v40zM76 372h316v-40h-316v40zM38 40h392v-40h-392v40z" />
    <glyph glyph-name="Omicron" unicode="&#x39f;" horiz-adv-x="597" 
d="M295 -10h-0.999023c-74 0 -135.333 30.167 -184 90.5s-73 144.166 -73 251.499c0 110.667 25.167 197 75.5 259s114.166 93 191.499 93c75.333 0 136.833 -30.167 184.5 -90.5s71.5 -144.166 71.5 -251.499c0 -114.667 -25.5 -202 -76.5 -262s-113.833 -90 -188.5 -90z
M297.001 30h0.998047c46 0 85.667 15.333 119 46s57.5 68.834 72.5 114.501s22.5 95.5 22.5 149.5c0 36 -4.16699 71.333 -12.5 106s-20.666 67.167 -36.999 97.5s-38.666 54.666 -66.999 72.999s-60.5 27.5 -96.5 27.5c-48 0 -88.667 -15.833 -122 -47.5
s-57 -70.167 -71 -115.5s-21 -94.666 -21 -147.999c0 -50.667 7.5 -98.334 22.5 -143.001s39 -82.5 72 -113.5s72.167 -46.5 117.5 -46.5z" />
    <glyph glyph-name="Pi" unicode="&#x3a0;" horiz-adv-x="554" 
d="M477 674v-674h-46v634h-309v-634h-46v674h401z" />
    <glyph glyph-name="Rho" unicode="&#x3a1;" horiz-adv-x="460" 
d="M76 0v665.999c43.333 8.66699 86.333 13 129 13c72.667 0 127 -18 163 -54c33.333 -33.333 50 -77.666 50 -132.999c0 -54 -14 -98 -42 -132c-40 -51.333 -101.667 -77 -185 -77c-30 0 -53 2 -69 6v-289h-46zM122 632.999v-303c16.667 -5.33301 40.334 -8 71.001 -8
c55.333 0 98.833 14.167 130.5 42.5s47.5 69.5 47.5 123.5c0 48 -14.833 85.333 -44.5 112s-70.834 40 -123.501 40c-29.333 0 -56.333 -2.33301 -81 -7z" />
    <glyph glyph-name="Sigma" unicode="&#x3a3;" horiz-adv-x="495" 
d="M82 44v-4h386v-40h-447v32l237 303l-223 306v33h400v-39h-339v-3l214 -295z" />
    <glyph glyph-name="Tau" unicode="&#x3a4;" horiz-adv-x="424" 
d="M190 0v635h-192v39h430v-39h-192v-635h-46z" />
    <glyph glyph-name="Upsilon" unicode="&#x3a5;" horiz-adv-x="516" 
d="M11 644l9.99805 35.999c16.667 -2 36.834 -10.167 60.501 -24.5s43.834 -31.166 60.501 -50.499c64 -70 102.333 -162.667 115 -278h2c16.667 109.333 58.667 200 126 272c40 42.667 79.333 69.667 118 81l10 -35c-17.333 -8.66699 -35.333 -20.667 -54 -36
s-38.667 -35.5 -60 -60.5s-41.333 -57 -60 -96s-33.667 -82.167 -45 -129.5c-10.667 -45.333 -16 -89 -16 -131v-192h-46v193c0 44 -4.33301 87.667 -13 131c-20 94 -49.5 167.167 -88.5 219.5s-78.833 85.833 -119.5 100.5z" />
    <glyph glyph-name="Phi" unicode="&#x3a6;" horiz-adv-x="610" 
d="M327 31l0.000976562 -50h-46v50c-30 2 -58.833 9.33301 -86.5 22s-53.5 30.5 -77.5 53.5s-43.333 54.167 -58 93.5s-22 84 -22 134c0 96 25 171 75 225s107 82.667 171 86v48h46v-48c66.667 -4 124 -33.167 172 -87.5s72 -127.833 72 -220.5
c0 -96.667 -24.333 -171 -73 -223s-106.334 -79.667 -173.001 -83zM282.001 66v544c-50.667 -2 -96.167 -27.5 -136.5 -76.5s-60.5 -114.833 -60.5 -197.5c0 -77.333 18.833 -139.833 56.5 -187.5s84.5 -75.167 140.5 -82.5zM328.001 610v-544.001
c55.333 4.66699 102 31.334 140 80.001s57 112.667 57 192c0 81.333 -19.5 146 -58.5 194s-85.167 74 -138.5 78z" />
    <glyph glyph-name="Chi" unicode="&#x3a7;" horiz-adv-x="496" 
d="M468 0h-52.001l-94 171c-32 53.333 -57 98 -75 134h-3c-18.667 -38.667 -43 -83.667 -73 -135l-89 -170h-53l193 342l-186 332h52l98 -179c20.667 -34.667 41.334 -72 62.001 -112h2c12 25.333 32.667 63 62 113l100 178h53l-191 -327z" />
    <glyph glyph-name="Psi" unicode="&#x3a8;" horiz-adv-x="599" 
d="M549 674v-196c0 -77.333 -19.833 -138 -59.5 -182s-95.5 -68.667 -167.5 -74v-222h-46v222c-66.667 4 -121 25.667 -163 65s-63 98 -63 176v211h46v-202c0 -133.333 60 -204 180 -212v414h46v-414c53.333 3.33301 96.833 23.333 130.5 60s50.5 90 50.5 160v194h46z" />
    <glyph glyph-name="uni03A9" unicode="&#x3a9;" horiz-adv-x="607" 
d="M437 44l0.00195312 -3.00098h139v-41h-205v34c43.333 32 78.666 77.333 105.999 136s40.666 120.334 39.999 185.001c0 44.667 -7 88.167 -21 130.5s-37.667 79.333 -71 111s-73.333 47.5 -120 47.5c-46 0 -86 -15.167 -120 -45.5s-58.333 -66.833 -73 -109.5
s-22 -87 -22 -133c0 -62 14 -123.667 42 -185s62.333 -107 103 -137v-34h-204v41h138v3c-36.667 35.333 -67 80.333 -91 135s-36 114 -36 178c0 100 25.333 179.5 76 238.5s114 88.5 190 88.5c75.333 0 137 -29.333 185 -88s72 -136.667 72 -234
c0 -67.333 -12 -128.5 -36 -183.5s-54.667 -99.833 -92 -134.5z" />
    <glyph glyph-name="Iotadieresis" unicode="&#x3aa;" horiz-adv-x="198" 
d="M17 710h-0.999023c-10 0 -18.333 3.66699 -25 11s-10 16 -10 26s3.5 18.667 10.5 26s15.833 11 26.5 11c10 0 18.333 -3.66699 25 -11s10 -16 10 -26s-3.33301 -18.667 -10 -26s-15.334 -11 -26.001 -11zM180.001 710h-0.999023c-10 0 -18.333 3.66699 -25 11
s-10 16 -10 26s3.5 18.667 10.5 26s15.833 11 26.5 11c10 0 18.333 -3.66699 25 -11s10 -16 10 -26s-3.33301 -18.667 -10 -26s-15.334 -11 -26.001 -11zM76.002 674h46v-674h-46v674z" />
    <glyph glyph-name="Upsilondieresis" unicode="&#x3ab;" horiz-adv-x="516" 
d="M181 698h-0.999023c-10 0 -18.333 3.66699 -25 11s-10 16 -10 26s3.5 18.667 10.5 26s15.833 11 26.5 11c10 0 18.333 -3.66699 25 -11s10 -16 10 -26s-3.33301 -18.667 -10 -26s-15.334 -11 -26.001 -11zM343.001 698h-0.999023c-10 0 -18.333 3.66699 -25 11
s-10 16 -10 26s3.5 18.667 10.5 26s15.833 11 26.5 11c10 0 18.333 -3.66699 25 -11s10 -16 10 -26s-3.33301 -18.667 -10 -26s-15.334 -11 -26.001 -11zM11.002 644l9.99805 35.999c16.667 -2 36.834 -10.167 60.501 -24.5s43.834 -31.166 60.501 -50.499
c64 -70 102.333 -162.667 115 -278h2c16.667 109.333 58.667 200 126 272c40 42.667 79.333 69.667 118 81l10 -35c-17.333 -8.66699 -35.333 -20.667 -54 -36s-38.667 -35.5 -60 -60.5s-41.333 -57 -60 -96s-33.667 -82.167 -45 -129.5c-10.667 -45.333 -16 -89 -16 -131
v-192h-46v193c0 44 -4.33301 87.667 -13 131c-20 94 -49.5 167.167 -88.5 219.5s-78.833 85.833 -119.5 100.5z" />
    <glyph glyph-name="alphatonos" unicode="&#x3ac;" horiz-adv-x="482" 
d="M259 674h57l-76 -136h-32zM380 480l38 -0.00195312c-2.66699 -18.667 -5.33398 -66.667 -8.00098 -144s-3.66699 -153.666 -3 -228.999c0 -52 14.333 -78.333 43 -79l-6 -37c-3.33301 -0.666992 -8.33301 -1 -15 -1c-17.333 0 -32 8 -44 24s-18 42 -18 78h-3
c-14 -29.333 -33.667 -53.666 -59 -72.999s-55.666 -29 -90.999 -29c-52 0 -94.167 21.667 -126.5 65s-48.5 102 -48.5 176c0 76.667 19 139 57 187s82.667 72 134 72c68 0 114.333 -33 139 -99h4c2 36 4.33301 65.667 7 89zM86 228.998l-0.000976562 -1.00195
c0 -53.333 12.167 -99.833 36.5 -139.5s57.833 -59.5 100.5 -59.5c30.667 0 58.834 13.5 84.501 40.5s42.5 59.5 50.5 97.5c4 18 6 45 6 81c0 28.667 -1 50.334 -3 65.001c-6 36.667 -21 68.834 -45 96.501s-52 41.5 -84 41.5c-42.667 0 -77.667 -21 -105 -63
s-41 -95 -41 -159z" />
    <glyph glyph-name="epsilontonos" unicode="&#x3ad;" horiz-adv-x="384" 
d="M239 674h56l-75 -136h-32zM160 258l-0.00195312 4.00195c-63.333 14 -95 48.667 -95 104c0 33.333 15 62.333 45 87s70 37 120 37c52.667 0 92.334 -10.667 119.001 -32l-13 -34c-9.33301 6.66699 -24.333 13 -45 19s-41.667 9 -63 9
c-34.667 0 -62.667 -8.16699 -84 -24.5s-32 -36.833 -32 -61.5c0 -28.667 13.167 -50.334 39.5 -65.001s59.166 -22 98.499 -22h50v-38h-54c-47.333 0 -85.666 -8.83301 -114.999 -26.5s-44 -43.834 -44 -78.501c0 -32.667 13.167 -58.667 39.5 -78s59.166 -29 98.499 -29
c24 0 48.5 3.5 73.5 10.5s43.833 14.5 56.5 22.5l11 -35c-13.333 -10 -33.666 -18.667 -60.999 -26s-55.666 -11 -84.999 -11c-49.333 0 -91.666 11.833 -126.999 35.5s-53 59.834 -53 108.501c0 31.333 11.167 58.666 33.5 81.999s51.166 37.333 86.499 42z" />
    <glyph glyph-name="etatonos" unicode="&#x3ae;" horiz-adv-x="487" 
d="M276 674h56l-75 -136h-32zM116 401l2.00098 0.000976562c12 26 31 47.333 57 64s56 25 90 25c11.333 0 22.833 -1.33301 34.5 -4s24.667 -8.16699 39 -16.5s27 -19 38 -32s20.167 -31.333 27.5 -55s11 -50.834 11 -81.501v-325c0 -86 3.33301 -143.333 10 -172h-44
c-8 26.667 -12 80 -12 160v329c0 46 -9 83.667 -27 113s-48 44 -90 44c-29.333 0 -55.833 -10 -79.5 -30s-39.5 -45.667 -47.5 -77c-3.33301 -13.333 -5 -27.333 -5 -42v-301h-46v366c0 50 -4 88 -12 114h41c7.33301 -16.667 11.666 -43 12.999 -79z" />
    <glyph glyph-name="iotatonos" unicode="&#x3af;" horiz-adv-x="195" 
d="M122 674h56l-75 -136h-31zM120 480l-0.000976562 -390c0 -23.333 2.83301 -39.5 8.5 -48.5s17.5 -13.167 35.5 -12.5l-4 -37c-9.33301 -1.33301 -16.666 -2 -21.999 -2c-42.667 0 -64 32 -64 96v394h46z" />
    <glyph glyph-name="upsilondieresistonos" unicode="&#x3b0;" horiz-adv-x="455" 
d="M328 480l44.999 -0.000976562c8.66699 -18 16.667 -45.333 24 -82s11 -74 11 -112c0 -38.667 -2.66699 -74.167 -8 -106.5s-14.5 -63.5 -27.5 -93.5s-32.167 -53.5 -57.5 -70.5s-55.666 -25.5 -90.999 -25.5c-46 0 -83.333 14.5 -112 43.5s-43 70.833 -43 125.5v155
c0 89.333 -3 144.666 -9 165.999h42c8.66699 -10.667 13 -40.667 13 -90v-218c0 -48.667 11 -84.5 33 -107.5s48.333 -34.5 79 -34.5c44 0 77.5 21.167 100.5 63.5s34.5 103.833 34.5 184.5c0 42.667 -3.66699 82.834 -11 120.501s-15 64.834 -23 81.501zM217.999 678.999
h50l-42 -144h-27zM128.999 563.999h-1c-10 0 -18.333 3.33301 -25 10s-10 15 -10 25c0 9.33301 3.5 17.333 10.5 24s15.5 10 25.5 10c9.33301 0 17.166 -3.33301 23.499 -10s9.5 -14.667 9.5 -24s-3.16699 -17.5 -9.5 -24.5s-14.166 -10.5 -23.499 -10.5zM324.999 563.999
h-1.00098c-9.33301 0 -17.166 3.5 -23.499 10.5s-9.5 15.167 -9.5 24.5s3.5 17.333 10.5 24s15.167 10 24.5 10s17.333 -3.33301 24 -10s10 -14.667 10 -24c0 -10 -3.33301 -18.333 -10 -25s-15 -10 -25 -10z" />
    <glyph glyph-name="alpha" unicode="&#x3b1;" horiz-adv-x="482" 
d="M380 480l38 -0.00195312c-2.66699 -18.667 -5.33398 -66.667 -8.00098 -144s-3.66699 -153.666 -3 -228.999c0 -52 14.333 -78.333 43 -79l-6 -37c-3.33301 -0.666992 -8.33301 -1 -15 -1c-17.333 0 -32 8 -44 24s-18 42 -18 78h-3
c-14 -29.333 -33.667 -53.666 -59 -72.999s-55.666 -29 -90.999 -29c-52 0 -94.167 21.667 -126.5 65s-48.5 102 -48.5 176c0 76.667 19 139 57 187s82.667 72 134 72c68 0 114.333 -33 139 -99h4c2 36 4.33301 65.667 7 89zM86 228.998l-0.000976562 -1.00195
c0 -53.333 12.167 -99.833 36.5 -139.5s57.833 -59.5 100.5 -59.5c30.667 0 58.834 13.5 84.501 40.5s42.5 59.5 50.5 97.5c4 18 6 45 6 81c0 28.667 -1 50.334 -3 65.001c-6 36.667 -21 68.834 -45 96.501s-52 41.5 -84 41.5c-42.667 0 -77.667 -21 -105 -63
s-41 -95 -41 -159z" />
    <glyph glyph-name="beta" unicode="&#x3b2;" horiz-adv-x="492" 
d="M121 52l-2.00098 -0.000976562v-76c0 -86 3.33301 -143.333 10 -172h-43c-8.66699 26 -13 77.333 -13 154v501c0 95.333 21.667 165.333 65 210c30 30.667 68.333 46 115 46c40.667 0 75.334 -15.833 104.001 -47.5s43 -71.167 43 -118.5
c0 -41.333 -9.16699 -75.5 -27.5 -102.5s-39.833 -46.167 -64.5 -57.5v-4c40.667 -8 75 -27.833 103 -59.5s42 -76.5 42 -134.5c0 -63.333 -18.833 -112.666 -56.5 -147.999s-81.5 -53 -131.5 -53c-60 0 -108 20.667 -144 62zM118.999 459.999v-345.001
c13.333 -24 32.833 -44.333 58.5 -61s54.167 -25 85.5 -25c41.333 0 75.5 15.167 102.5 45.5s40.5 67.833 40.5 112.5c0 54 -15.167 95.833 -45.5 125.5s-70.833 45.167 -121.5 46.5h-25v39c8 0 14 0.333008 18 1c38 2.66699 67.667 17.5 89 44.5s32 60.5 32 100.5
c0 36.667 -9.83301 67.834 -29.5 93.501s-45.167 38.5 -76.5 38.5c-42.667 0 -74.667 -19 -96 -57s-32 -91 -32 -159z" />
    <glyph glyph-name="gamma" unicode="&#x3b3;" horiz-adv-x="393" 
d="M216 -196l-46.998 0.000976562c6 126 -0.333008 226.333 -19 301c-16.667 70 -39.834 140 -69.501 210s-57.167 125 -82.5 165h53c25.333 -43.333 52.666 -103 81.999 -179s51 -148.667 65 -218h3c82 155.333 123 278.333 123 369v28h44
c1.33301 -9.33301 2 -19.333 2 -30c0 -102.667 -50.667 -241.334 -152 -416.001c-3.33301 -5.33301 -5 -13.333 -5 -24c2 -43.333 3 -112 3 -206z" />
    <glyph glyph-name="delta" unicode="&#x3b4;" horiz-adv-x="477" 
d="M404 668l-19.0029 -33.999c-36.667 28 -77.667 42 -123 42c-27.333 0 -48.5 -5.33301 -63.5 -16s-22.5 -23.334 -22.5 -38.001c0 -10 3.5 -20.5 10.5 -31.5s13.833 -19.833 20.5 -26.5s20 -19 40 -37l74 -69c77.333 -66 116 -141.333 116 -226
c0 -72 -18.667 -130.333 -56 -175s-84.666 -67 -141.999 -67c-54.667 0 -101.667 21.167 -141 63.5s-59 100.833 -59 175.5c0 58.667 16.333 110 49 154s75.334 80 128.001 108v4l-21 17c-42.667 39.333 -64 74.333 -64 105c0 25.333 11.833 48 35.5 68
s57.834 30 102.501 30c54.667 0 99.667 -15.667 135 -47zM293.997 425.001l-48.001 40.999c-106.667 -58.667 -160 -138 -160 -238c0 -62.667 15.833 -111.5 47.5 -146.5s67.834 -52.5 108.501 -52.5c42.667 0 78 17.833 106 53.5s42 84.167 42 145.5
c0 76.667 -32 142.334 -96 197.001z" />
    <glyph glyph-name="epsilon" unicode="&#x3b5;" horiz-adv-x="384" 
d="M160 259l-0.00195312 4.00098c-30.667 6.66699 -54.167 19.167 -70.5 37.5s-24.5 40.166 -24.5 65.499c0 33.333 15 62.333 45 87s70 37 120 37c52.667 0 92.334 -10.333 119.001 -31l-13 -35c-9.33301 6.66699 -24.333 13 -45 19s-41.667 9 -63 9
c-34.667 0 -62.667 -8.16699 -84 -24.5s-32 -36.833 -32 -61.5c0 -28.667 13.167 -50.334 39.5 -65.001s59.166 -22 98.499 -22h50v-38h-54c-47.333 0 -85.666 -8.83301 -114.999 -26.5s-44 -43.834 -44 -78.501c0 -32.667 13.167 -58.667 39.5 -78s59.166 -29 98.499 -29
c24 0 48.667 3.5 74 10.5s44 14.833 56 23.5l11 -36c-13.333 -10 -33.666 -18.667 -60.999 -26s-55.666 -11 -84.999 -11c-49.333 0 -91.666 11.833 -126.999 35.5s-53 59.834 -53 108.501c0 31.333 11.167 58.833 33.5 82.5s51.166 37.834 86.499 42.501z" />
    <glyph glyph-name="zeta" unicode="&#x3b6;" horiz-adv-x="360" 
d="M299 -134l-35.001 9.99805c9.33301 14 17.833 33.333 25.5 58s11.834 43.334 12.501 56.001c-39.333 6 -76 14.667 -110 26c-101.333 32.667 -152 105 -152 217c0 74.667 22.5 151.834 67.5 231.501s105.5 144.834 181.5 195.501v3h-77c-54 0 -90.667 3 -110 9l7 35
c12 -2 46.333 -3.66699 103 -5h139l9 -36c-78 -44.667 -143.167 -107.334 -195.5 -188.001s-78.5 -159.667 -78.5 -237c0 -56.667 11.5 -99 34.5 -127s56.167 -49 99.5 -63c34 -11.333 75.333 -20 124 -26c5.33301 -1.33301 8 -5 8 -11c0 -22.667 -5.66699 -49 -17 -79
s-23.333 -53 -36 -69z" />
    <glyph glyph-name="eta" unicode="&#x3b7;" horiz-adv-x="487" 
d="M116 401l2.00098 0.000976562c12 26 31 47.333 57 64s56 25 90 25c11.333 0 22.833 -1.33301 34.5 -4s24.667 -8.16699 39 -16.5s27 -19 38 -32s20.167 -31.333 27.5 -55s11 -50.834 11 -81.501v-325c0 -86 3.33301 -143.333 10 -172h-44c-8 26.667 -12 80 -12 160v329
c0 46 -9 83.667 -27 113s-48 44 -90 44c-29.333 0 -55.833 -10 -79.5 -30s-39.5 -45.667 -47.5 -77c-3.33301 -13.333 -5 -27.333 -5 -42v-301h-46v366c0 50 -4 88 -12 114h41c7.33301 -16.667 11.666 -43 12.999 -79z" />
    <glyph glyph-name="theta" unicode="&#x3b8;" horiz-adv-x="464" 
d="M233 -10h-0.999023c-59.333 0 -106.333 30 -141 90s-52 152.667 -52 278c0 110 17.833 197 53.5 261s83.5 96 143.5 96c61.333 0 108.166 -30.5 140.499 -91.5s48.5 -149.5 48.5 -265.5c0 -245.333 -64 -368 -192 -368zM85.001 384h294c0 84.667 -12.667 154.5 -38 209.5
s-62.333 82.5 -111 82.5c-43.333 0 -78.333 -28.667 -105 -86s-40 -126 -40 -206zM379.001 346h-294c0 -99.333 13.833 -177 41.5 -233s63.834 -84 108.501 -84c47.333 0 83.166 28.667 107.499 86s36.5 134.333 36.5 231z" />
    <glyph glyph-name="iota" unicode="&#x3b9;" horiz-adv-x="195" 
d="M120 480l-0.000976562 -390c0 -23.333 2.83301 -39.5 8.5 -48.5s17.5 -13.167 35.5 -12.5l-4 -37c-9.33301 -1.33301 -16.666 -2 -21.999 -2c-42.667 0 -64 32 -64 96v394h46z" />
    <glyph glyph-name="kappa" unicode="&#x3ba;" horiz-adv-x="422" 
d="M179 259v-2c21.333 -6 44 -21.167 68 -45.5s51.333 -56.5 82 -96.5l85 -115h-54l-81 109c-30 37.333 -56.833 66.333 -80.5 87s-46.5 31 -68.5 31h-9v-227h-46v382c0 49.333 -3.33301 82 -10 98h43c8.66699 -12 13 -38.333 13 -79v-143h5l115.5 115l108.5 107h56v-3z" />
    <glyph glyph-name="lambda" unicode="&#x3bb;" horiz-adv-x="402" 
d="M334 0l-101 304.996c-13.333 40 -24.333 77.333 -33 112h-3c-4 -17.333 -15 -53.666 -33 -108.999l-108 -308h-47l159 449c3.33301 8.66699 5 16.334 5 23.001c0 8.66699 -1.66699 17.334 -5 26.001c-20 60.667 -39.5 105.667 -58.5 135s-42.5 44 -70.5 44
c-4.66699 0 -9 -0.333008 -13 -1l6 37c8 1.33301 15 2 21 2c37.333 0 66.833 -16.667 88.5 -50s46.5 -89.666 74.5 -168.999l167 -496h-49z" />
    <glyph glyph-name="uni03BC" unicode="&#x3bc;" horiz-adv-x="483" 
d="M368 71l-3 -0.000976562c-12 -20.667 -29.5 -39.167 -52.5 -55.5s-49.5 -24.5 -79.5 -24.5c-54.667 0 -92.667 20.333 -114 61v-76c0 -86 3.66699 -143.333 11 -172h-42c-9.33301 28 -14 81.667 -14 161v515h46v-303c0 -42 9 -76.833 27 -104.5s47 -41.5 87 -41.5
c30.667 0 56.667 9.33301 78 28s36.333 40 45 64c4.66699 17.333 7 34.333 7 51v306h46v-374c0 -27.333 3 -47 9 -59s17.333 -18.333 34 -19l-6 -37c-6 -0.666992 -11.333 -1 -16 -1c-16.667 0 -31 6.33301 -43 19s-18.667 33.334 -20 62.001z" />
    <glyph glyph-name="nu" unicode="&#x3bd;" horiz-adv-x="399" 
d="M8 480l47.999 0.00292969l96 -300c1.33301 -3.33301 15 -45 41 -125h2c64 132.667 104.333 231.667 121 297c8 33.333 12 61.666 12 84.999v43h43c2 -16 3 -26.667 3 -32c0 -39.333 -9.66699 -87.833 -29 -145.5s-38.166 -105.834 -56.499 -144.501
s-44.833 -91.334 -79.5 -158.001h-42z" />
    <glyph glyph-name="xi" unicode="&#x3be;" horiz-adv-x="377" 
d="M314 427l0.00195312 -38h-24c-64.667 -0.666992 -114.667 -17.167 -150 -49.5s-53 -72.5 -53 -120.5c0 -84 51 -140.667 153 -170c30.667 -8.66699 71.334 -16.667 122.001 -24c5.33301 -1.33301 8 -5 8 -11c0 -21.333 -5.5 -47.5 -16.5 -78.5s-22.5 -54.167 -34.5 -69.5
l-35 10c8.66699 14 17 33.333 25 58s12.333 43.334 13 56.001c-30.667 5.33301 -57.834 11 -81.501 17s-48.834 14.833 -75.501 26.5s-48.5 25.167 -65.5 40.5s-31.167 35.166 -42.5 59.499s-17 51.833 -17 82.5c0 45.333 14 85.333 42 120s63.667 58.667 107 72v5
c-34.667 11.333 -61.167 29.333 -79.5 54s-27.5 53.667 -27.5 87c0 44 16 81.833 48 113.5s76 47.5 132 47.5c44 0 77.333 -8 100 -24l-14 -36c-24.667 14.667 -55.334 22 -92.001 22c-41.333 0 -72.833 -12.167 -94.5 -36.5s-32.5 -52.833 -32.5 -85.5
c0 -38 13.333 -68.5 40 -91.5s60 -35.167 100 -36.5h45z" />
    <glyph glyph-name="omicron" unicode="&#x3bf;" horiz-adv-x="478" 
d="M236 -10h-1c-56 0 -102.667 22 -140 66s-56 104.333 -56 181c0 80 19.667 142.167 59 186.5s87.333 66.5 144 66.5c58 0 105.333 -22.167 142 -66.5s55 -104.5 55 -180.5c0 -82.667 -20.333 -145.5 -61 -188.5s-88 -64.5 -142 -64.5zM237 29l0.999023 0.00292969
c45.333 0 82.333 21.167 111 63.5s43 92.166 43 149.499c0 31.333 -4.5 62 -13.5 92s-25.667 57 -50 81s-54.166 36 -89.499 36c-34.667 0 -64 -11.333 -88 -34s-40.833 -49.334 -50.5 -80.001s-14.5 -63.334 -14.5 -98.001c0 -56 14 -105 42 -147s64.333 -63 109 -63z" />
    <glyph glyph-name="pi" unicode="&#x3c0;" horiz-adv-x="476" 
d="M444 441l-64 -0.000976562v-309c0 -62 4.33301 -106 13 -132h-45c-9.33301 18.667 -14 60.667 -14 126v315h-169c-2 -74 -9.66699 -156.167 -23 -246.5s-28.333 -155.166 -45 -194.499h-43c17.333 45.333 32.333 111 45 197s20 167.333 22 244c-41.333 0 -72 -3 -92 -9
l-9 29c22.667 12.667 59 19 109 19h322z" />
    <glyph glyph-name="rho" unicode="&#x3c1;" horiz-adv-x="492" 
d="M117 64l-2 0.00292969v-88c0 -84 2.33301 -141.333 7 -172h-43c-6.66699 25.333 -10 78.666 -10 159.999v256c0 88 16.667 154 50 198c16 21.333 36.667 38.666 62 51.999s53 20 83 20c58 0 104 -21.667 138 -65s51 -102.333 51 -177
c0 -82.667 -18.833 -146.334 -56.5 -191.001s-84.167 -67 -139.5 -67c-30 0 -57.5 6.66699 -82.5 20s-44.167 31.333 -57.5 54zM115 242.003v-62c0 -14 1.33301 -26.667 4 -38c9.33301 -36 26.5 -63.833 51.5 -83.5s52.833 -29.5 83.5 -29.5c48 0 85.333 20.667 112 62
s40 93.333 40 156c0 56 -12.667 103.833 -38 143.5s-61.333 59.5 -108 59.5c-38.667 0 -72.5 -17.333 -101.5 -52s-43.5 -86.667 -43.5 -156z" />
    <glyph glyph-name="uni03C2" unicode="&#x3c2;" horiz-adv-x="357" 
d="M350 472l-13.002 -36.001c-23.333 10 -48.666 15 -75.999 15c-53.333 0 -95.833 -20.667 -127.5 -62s-47.5 -89.666 -47.5 -144.999c0 -97.333 46 -162 138 -194c32 -10 69 -18.667 111 -26c6 -2 9 -6.33301 9 -13c0 -20.667 -5.5 -45.834 -16.5 -75.501
s-22.5 -52.5 -34.5 -68.5l-35 10c8.66699 13.333 17 32.333 25 57s12.667 43.334 14 56.001c-31.333 5.33301 -64.666 13.333 -99.999 24c-48 16 -86.333 42.833 -115 80.5s-43 85.5 -43 143.5c0 68 20.667 127 62 177s96 75 164 75c36.667 0 65 -6 85 -18z" />
    <glyph glyph-name="sigma" unicode="&#x3c3;" horiz-adv-x="475" 
d="M339 454l-1.00195 -2.99902c30 -21.333 53 -50.333 69 -87s24 -76.334 24 -119.001c0 -82.667 -20.167 -145.834 -60.5 -189.501s-86.166 -65.5 -137.499 -65.5c-55.333 0 -101.5 22.167 -138.5 66.5s-55.5 104.833 -55.5 181.5c0 80.667 19.667 142.834 59 186.501
s89.333 65.5 150 65.5h75h33h35h43.5h27.5l-2 -38c-35.333 0 -75.666 0.666992 -120.999 2zM234.998 29.001h1c42.667 0 78 21.5 106 64.5s42 92.833 42 149.5c0 31.333 -4.66699 62.166 -14 92.499s-25.833 57.333 -49.5 81s-52.167 35.5 -85.5 35.5
c-48.667 0 -85.667 -21.667 -111 -65s-38 -92.666 -38 -147.999c0 -56 14 -105 42 -147s63.667 -63 107 -63z" />
    <glyph glyph-name="tau" unicode="&#x3c4;" horiz-adv-x="353" 
d="M269 31l-1.99902 -35c-7.33301 -4 -18 -6 -32 -6c-56.667 0 -85 44 -85 132v319h-57c-35.333 0 -64.333 -3.33301 -87 -10l-7 28c15.333 14 46.666 21 93.999 21h255l-9 -39h-143v-325c0 -57.333 17.667 -86 53 -86c9.33301 0 16 0.333008 20 1z" />
    <glyph glyph-name="upsilon" unicode="&#x3c5;" horiz-adv-x="455" 
d="M328 480l44.999 -0.000976562c8.66699 -18 16.667 -45.333 24 -82s11 -74 11 -112c0 -38.667 -2.66699 -74.167 -8 -106.5s-14.5 -63.5 -27.5 -93.5s-32.167 -53.5 -57.5 -70.5s-55.666 -25.5 -90.999 -25.5c-46 0 -83.333 14.5 -112 43.5s-43 70.833 -43 125.5v155
c0 89.333 -3 144.666 -9 165.999h42c8.66699 -10.667 13 -40.667 13 -90v-218c0 -48.667 11 -84.5 33 -107.5s48.333 -34.5 79 -34.5c44 0 77.5 21.167 100.5 63.5s34.5 103.833 34.5 184.5c0 42.667 -3.66699 82.834 -11 120.501s-15 64.834 -23 81.501z" />
    <glyph glyph-name="phi" unicode="&#x3c6;" horiz-adv-x="551" 
d="M181 491l21 -26.9961c-77.333 -54.667 -116 -128.334 -116 -221.001c0 -55.333 14.167 -102.5 42.5 -141.5s69.833 -62.167 124.5 -69.5v333c0 40.667 8.5 71 25.5 91s39.167 30 66.5 30c41.333 0 79.333 -21.5 114 -64.5s52 -99.167 52 -168.5
c0 -78 -20.333 -139.167 -61 -183.5s-91 -69.5 -151 -75.5v-190h-46v190c-26.667 2 -52.167 8 -76.5 18s-47 24.5 -68 43.5s-37.833 44.667 -50.5 77s-19 69.166 -19 110.499c0 59.333 14.333 110.166 43 152.499s61.667 74.166 99 95.499zM299 366.004v-334
c52 6 92.5 29 121.5 69s43.5 90 43.5 150c0 54 -12.333 100.167 -37 138.5s-52 57.5 -82 57.5c-30.667 0 -46 -27 -46 -81z" />
    <glyph glyph-name="chi" unicode="&#x3c7;" horiz-adv-x="392" 
d="M22 480h50l125 -283h4c10.667 28 28 66.333 52 115l76 168h48l-156 -322l162 -346l-43 -15l-145 320h-3c-12.667 -36 -28 -74.667 -46 -116l-91 -204l-41 15l157 345z" />
    <glyph glyph-name="psi" unicode="&#x3c8;" horiz-adv-x="557" 
d="M264 -196l-0.000976562 186.001c-60 4 -107.833 23.333 -143.5 58s-53.5 93.667 -53.5 177v150c0 51.333 -2.66699 86.333 -8 105h43c7.33301 -13.333 11 -43.333 11 -90v-155c0 -131.333 50.333 -200.666 151 -207.999v572h46v-572c46 3.33301 83.167 28.333 111.5 75
s42.5 107.667 42.5 183c0 45.333 -3.66699 86.166 -11 122.499s-14.666 60.5 -21.999 72.5h45c9.33301 -15.333 17.333 -40.333 24 -75s10 -72.334 10 -113.001c0 -84 -16.333 -154.333 -49 -211s-83 -87 -151 -91v-186h-46z" />
    <glyph glyph-name="omega" unicode="&#x3c9;" horiz-adv-x="611" 
d="M328 345l-0.999023 -196.001c0 -31.333 8.66699 -59 26 -83s39 -36 65 -36c28.667 0 53.667 18.833 75 56.5s32 90.5 32 158.5c0 50.667 -7.83301 97.5 -23.5 140.5s-34.834 75.833 -57.501 98.5v2h46c23.333 -19.333 42.833 -50.5 58.5 -93.5s23.5 -91.5 23.5 -145.5
c0 -82 -15.5 -145.333 -46.5 -190s-67.167 -67 -108.5 -67c-54 0 -91 28.333 -111 85h-3c-9.33301 -26.667 -23.833 -47.5 -43.5 -62.5s-43.167 -22.5 -70.5 -22.5c-40 0 -75 20.5 -105 61.5s-45 103.833 -45 188.5c0 52 8.33301 100.833 25 146.5s36 78.834 58 99.501h45
v-2c-22.667 -24 -41.667 -57.333 -57 -100s-23 -91 -23 -145c0 -70 11.167 -122.333 33.5 -157s47.833 -52 76.5 -52c24.667 0 45.5 12 62.5 36s25.5 51.333 25.5 82l-1 197h44z" />
    <glyph glyph-name="iotadieresis" unicode="&#x3ca;" horiz-adv-x="195" 
d="M17 562h-0.999023c-10 0 -18.333 3.66699 -25 11s-10 16 -10 26s3.5 18.667 10.5 26s15.833 11 26.5 11c10 0 18.333 -3.66699 25 -11s10 -16 10 -26s-3.33301 -18.667 -10 -26s-15.334 -11 -26.001 -11zM180.001 562h-0.999023c-10 0 -18.333 3.66699 -25 11
s-10 16 -10 26s3.5 18.667 10.5 26s15.833 11 26.5 11c10 0 18.333 -3.66699 25 -11s10 -16 10 -26s-3.33301 -18.667 -10 -26s-15.334 -11 -26.001 -11zM120.002 480l-0.000976562 -390c0 -23.333 2.83301 -39.5 8.5 -48.5s17.5 -13.167 35.5 -12.5l-4 -37
c-9.33301 -1.33301 -16.666 -2 -21.999 -2c-42.667 0 -64 32 -64 96v394h46z" />
    <glyph glyph-name="upsilondieresis" unicode="&#x3cb;" horiz-adv-x="455" 
d="M140 562h-0.999023c-10 0 -18.333 3.66699 -25 11s-10 16 -10 26s3.5 18.667 10.5 26s15.833 11 26.5 11c10 0 18.333 -3.66699 25 -11s10 -16 10 -26s-3.33301 -18.667 -10 -26s-15.334 -11 -26.001 -11zM303.001 562h-0.999023c-10 0 -18.333 3.66699 -25 11
s-10 16 -10 26s3.5 18.667 10.5 26s15.833 11 26.5 11c10 0 18.333 -3.66699 25 -11s10 -16 10 -26s-3.33301 -18.667 -10 -26s-15.334 -11 -26.001 -11zM328.002 480l44.999 -0.000976562c8.66699 -18 16.667 -45.333 24 -82s11 -74 11 -112
c0 -38.667 -2.66699 -74.167 -8 -106.5s-14.5 -63.5 -27.5 -93.5s-32.167 -53.5 -57.5 -70.5s-55.666 -25.5 -90.999 -25.5c-46 0 -83.333 14.5 -112 43.5s-43 70.833 -43 125.5v155c0 89.333 -3 144.666 -9 165.999h42c8.66699 -10.667 13 -40.667 13 -90v-218
c0 -48.667 11 -84.5 33 -107.5s48.333 -34.5 79 -34.5c44 0 77.5 21.333 100.5 64s34.5 104 34.5 184c0 42.667 -3.66699 82.834 -11 120.501s-15 64.834 -23 81.501z" />
    <glyph glyph-name="omicrontonos" unicode="&#x3cc;" horiz-adv-x="478" 
d="M260 674h56l-75 -136h-31zM236 -10h-1c-56 0 -102.667 22 -140 66s-56 104.333 -56 181c0 80 19.667 142.167 59 186.5s87.333 66.5 144 66.5c58 0 105.333 -22.167 142 -66.5s55 -104.5 55 -180.5c0 -82.667 -20.333 -145.5 -61 -188.5s-88 -64.5 -142 -64.5zM237 29
l0.999023 0.00292969c45.333 0 82.333 21.167 111 63.5s43 92.166 43 149.499c0 31.333 -4.5 62 -13.5 92s-25.667 57 -50 81s-54.166 36 -89.499 36c-34.667 0 -64 -11.333 -88 -34s-40.833 -49.334 -50.5 -80.001s-14.5 -63.334 -14.5 -98.001c0 -56 14 -105 42 -147
s64.333 -63 109 -63z" />
    <glyph glyph-name="upsilontonos" unicode="&#x3cd;" horiz-adv-x="455" 
d="M246 674h56l-75 -136h-31zM328 480l44.999 -0.000976562c8.66699 -18 16.667 -45.333 24 -82s11 -74 11 -112c0 -38.667 -2.66699 -74.167 -8 -106.5s-14.5 -63.5 -27.5 -93.5s-32.167 -53.5 -57.5 -70.5s-55.666 -25.5 -90.999 -25.5c-46 0 -83.333 14.5 -112 43.5
s-43 70.833 -43 125.5v155c0 89.333 -3 144.666 -9 165.999h42c8.66699 -10.667 13 -40.667 13 -90v-218c0 -48.667 11 -84.5 33 -107.5s48.333 -34.5 79 -34.5c44 0 77.5 21.167 100.5 63.5s34.5 103.833 34.5 184.5c0 42.667 -3.66699 82.834 -11 120.501
s-15 64.834 -23 81.501z" />
    <glyph glyph-name="omegatonos" unicode="&#x3ce;" horiz-adv-x="611" 
d="M330 674h56l-75 -136h-32zM328 345l-0.999023 -196.001c0 -31.333 8.66699 -59 26 -83s39 -36 65 -36c28.667 0 53.667 18.833 75 56.5s32 90.5 32 158.5c0 50.667 -7.83301 97.5 -23.5 140.5s-34.834 75.833 -57.501 98.5v2h46c23.333 -19.333 42.833 -50.5 58.5 -93.5
s23.5 -91.5 23.5 -145.5c0 -82 -15.5 -145.333 -46.5 -190s-67.167 -67 -108.5 -67c-54 0 -91 28.333 -111 85h-3c-9.33301 -26.667 -23.833 -47.5 -43.5 -62.5s-43.167 -22.5 -70.5 -22.5c-40 0 -75 20.5 -105 61.5s-45 103.833 -45 188.5c0 52 8.33301 100.833 25 146.5
s36 78.834 58 99.501h45v-2c-22.667 -24 -41.667 -57.333 -57 -100s-23 -91 -23 -145c0 -70 11.167 -122.333 33.5 -157s47.833 -52 76.5 -52c24.667 0 45.5 12 62.5 36s25.5 51.333 25.5 82l-1 197h44z" />
    <glyph glyph-name="afii10023" unicode="&#x401;" horiz-adv-x="425" 
d="M364 375v-40h-242v-295h272v-40h-318v674h303v-40h-257v-259h242zM144 728l-1.00195 -0.00195312c-10.667 0 -19.167 3.5 -25.5 10.5s-9.5 16.167 -9.5 27.5c0 10.667 3.5 19.834 10.5 27.501s15.5 11.5 25.5 11.5c10.667 0 19.334 -3.66699 26.001 -11
s10 -16.666 10 -27.999s-3.16699 -20.5 -9.5 -27.5s-15.166 -10.5 -26.499 -10.5zM307.998 727.998l-1.00195 -0.00195312c-10.667 0 -19.167 3.5 -25.5 10.5s-9.5 16.167 -9.5 27.5c0 10.667 3.5 19.834 10.5 27.501s15.5 11.5 25.5 11.5
c10.667 0 19.334 -3.66699 26.001 -11s10 -16.666 10 -27.999s-3.16699 -20.5 -9.5 -27.5s-15.166 -10.5 -26.499 -10.5z" />
    <glyph glyph-name="afii10051" unicode="&#x402;" horiz-adv-x="577" 
d="M-2 674l440.001 0.000976562v-40h-221v-232h2c41.333 28 84 42 128 42c63.333 0 112.666 -28.333 147.999 -85c28.667 -46.667 43 -107.334 43 -182.001c0 -91.333 -20.333 -164.333 -61 -219c-33.333 -44.667 -77.666 -73.667 -132.999 -87l-11 33
c48 15.333 85.333 43 112 83c30.667 46.667 46 109 46 187c0 66.667 -11.667 119.667 -35 159c-28 46.667 -68 70 -120 70c-42.667 0 -82.334 -14 -119.001 -42v-361h-46v634h-173v40z" />
    <glyph glyph-name="afii10052" unicode="&#x403;" horiz-adv-x="373" 
d="M76 674h300v-40h-254v-634h-46v674zM270 820h71l-130 -110h-40z" />
    <glyph glyph-name="afii10053" unicode="&#x404;" horiz-adv-x="507" 
d="M471 658l-15.002 -37.999c-30.667 15.333 -67 23 -109 23c-77.333 0 -139.166 -27.167 -185.499 -81.5s-71.833 -119.5 -76.5 -195.5h324v-38h-324c0 -50 9.33301 -97.167 28 -141.5s47.834 -81.333 87.501 -111s85.834 -44.5 138.501 -44.5
c47.333 0 89.666 8.33301 126.999 25l11 -36c-38.667 -19.333 -87.667 -29 -147 -29c-86.667 0 -157.167 32.167 -211.5 96.5s-81.5 148.166 -81.5 251.499c0 94.667 28 175.667 84 243s131 101 225 101c48 0 89.667 -8.33301 125 -25z" />
    </font>
</defs>
</svg>
