<?xml version="1.0" standalone="no"?>
<!DOCTYPE svg PUBLIC "-//W3C//DTD SVG 1.1//EN" "http://www.w3.org/Graphics/SVG/1.1/DTD/svg11.dtd" >
<svg>
<metadata>
Created by FontForge 20090914 at Wed Jan 29 11:23:37 2014
 By www-data
&#194;&#169; 1992, 1994, 1997, 2000, 2004 Adobe Systems Incorporated. All rights reserved. Protected by U.S. Patents D454,582.
</metadata>
<defs>
<font id="MyriadPro-Semibold" horiz-adv-x="614" >
  <font-face 
    font-family="Myriad Pro Light"
    font-weight="600"
    font-stretch="normal"
    units-per-em="2048"
    panose-1="2 11 6 3 3 4 3 2 2 4"
    ascent="1536"
    descent="-512"
    x-height="997"
    cap-height="1380"
    bbox="-330 -512 2454 1993"
    underline-thickness="102"
    underline-position="-102"
    unicode-range="U+0020-U+FB04"
  />
<missing-glyph horiz-adv-x="1024" 
d="M0 0v1434h1024v-1434h-1024zM512 809l348 522h-696zM573 717l349 -522v1044zM164 102h696l-348 523zM102 1239v-1044l349 522z" />
    <glyph glyph-name="f_f_j" unicode="ffj" horiz-adv-x="1744" 
d="M1530 1419l-60.0029 -189.996c-58.667 31.333 -126.667 47 -204 47c-82 0 -141.167 -21.667 -177.5 -65s-54.5 -101 -54.5 -173v-41h594v-891c0 -102.667 -10.5 -187.834 -31.5 -255.501s-54.167 -124.167 -99.5 -169.5c-40.667 -38.667 -92.5 -67.834 -155.5 -87.501
s-127.833 -29.5 -194.5 -29.5l-25 196c88 6.66699 151 30.667 189 72c24 26 40.833 63.667 50.5 113s14.5 127 14.5 233v631h-340v-809h-252v809h-368v-809h-252v809h-135v188h135v25c0 139.333 41.667 248.666 125 327.999c68.667 66.667 161.334 100 278.001 100
c60.667 0 119.334 -13 176.001 -39l-61 -182c-33.333 17.333 -68 26 -104 26c-46 0 -82.333 -14.333 -109 -43c-36.667 -36.667 -55 -97.334 -55 -182.001v-33h370v47c0 133.333 43.333 238.833 130 316.5s204 116.5 352 116.5c46.667 0 94.834 -5.5 144.501 -16.5
s89.5 -24.833 119.5 -41.5z" />
    <glyph glyph-name="f_j" unicode="fj" horiz-adv-x="1140" 
d="M416 0l-252.001 0.00195312v809h-135v188h135v47c0 134 43.167 239.667 129.5 317s203.5 116 351.5 116c50.667 0 102.5 -6 155.5 -18s93.5 -27.333 121.5 -46l-58 -190c-58.667 35.333 -131.667 53 -219 53c-81.333 0 -140.166 -21.667 -176.499 -65
s-54.5 -101 -54.5 -173v-41h594v-891c0 -102.667 -10.5 -187.834 -31.5 -255.501s-54.167 -124.167 -99.5 -169.5c-40.667 -38.667 -92.667 -67.834 -156 -87.501s-128.333 -29.5 -195 -29.5l-24 196c87.333 6.66699 150 30.667 188 72c24 26 41 63.667 51 113
s15 127 15 233v631h-340v-809z" />
    <glyph glyph-name="f_f" unicode="ff" horiz-adv-x="1269" 
d="M1030 0h-252v809h-362v-809h-252v809h-135v188h135v21c0 143.333 37.333 253.333 112 330c66 68 159.667 102 281 102c48.667 0 94.334 -9.66699 137.001 -29l-41 -188c-28 13.333 -58.667 20 -92 20c-98 0 -147 -73.667 -147 -221v-35h364v43
c0 150 40.333 263.333 121 340c68.667 64.667 156 97 262 97c52.667 0 106 -8.33301 160 -25l-18 -195c-34 12.667 -69.667 19 -107 19c-58.667 0 -101.334 -21 -128.001 -63s-40 -96.667 -40 -164v-52h219v-188h-217v-809z" />
    <glyph glyph-name="f_f_i" unicode="ffi" horiz-adv-x="1763" 
d="M1530 1419l-60.0029 -189.998c-58.667 31.333 -126.667 47 -204 47c-82 0 -141.167 -21.667 -177.5 -65s-54.5 -101 -54.5 -173v-41h594v-997h-252v809h-340v-809h-252v809h-368v-809h-252v809h-135v188h135v25c0 139.333 41.667 248.666 125 327.999
c68.667 66.667 161.334 100 278.001 100c60.667 0 119.334 -13 176.001 -39l-61 -182c-33.333 17.333 -68 26 -104 26c-46 0 -82.333 -14.333 -109 -43c-36.667 -36.667 -55 -97.334 -55 -182.001v-33h370v47c0 133.333 43.333 238.833 130 316.5s204 116.5 352 116.5
c46.667 0 94.834 -5.5 144.501 -16.5s89.5 -24.833 119.5 -41.5z" />
    <glyph glyph-name="f_f_l" unicode="ffl" horiz-adv-x="1763" 
d="M745 1417l-57 -184c-34.667 14.667 -70 22 -106 22c-49.333 0 -87 -15 -113 -45c-36.667 -36.667 -55 -96.667 -55 -180v-33h370v43c0 63.333 12.833 124.333 38.5 183s62.167 107.667 109.5 147c87.333 71.333 204 107 350 107c136 0 251.333 -25.333 346 -76v-1401
h-252v1264c-28 14.667 -71.667 22 -131 22c-72.667 0 -126 -22.5 -160 -67.5s-51 -103.833 -51 -176.5v-45h205v-188h-203v-809h-252v809h-368v-809h-252v809h-135v188h135v19c0 141.333 40.333 250.333 121 327c73.333 71.333 173 107 299 107c55.333 0 109 -11 161 -33z
" />
    <glyph glyph-name="f_i" unicode="fi" horiz-adv-x="1144" 
d="M416 0h-252.001v809h-135v188h135v47c0 134 43.167 239.667 129.5 317s203.5 116 351.5 116c50.667 0 102.5 -6 155.5 -18s93.5 -27.333 121.5 -46l-58 -190c-58.667 35.333 -131.667 53 -219 53c-81.333 0 -140.166 -21.667 -176.499 -65s-54.5 -101 -54.5 -173v-41h594
v-997h-252v809h-340v-809z" />
    <glyph glyph-name="f_l" unicode="fl" horiz-adv-x="1144" 
d="M416 0l-251.999 0.000976562v809h-135v188h135v43c0 64 12.667 125.167 38 183.5s61.666 107.166 108.999 146.499c85.333 71.333 203 107 353 107c136 0 251.333 -25.333 346 -76v-1401h-252v1264c-28 14.667 -72.333 22 -133 22c-72.667 0 -126 -22.5 -160 -67.5
s-51 -103.833 -51 -176.5v-45h204v-188h-202v-809z" />
    <glyph glyph-name=".notdef" horiz-adv-x="1024" 
d="M0 0v1434h1024v-1434h-1024zM512 809l348 522h-696zM573 717l349 -522v1044zM164 102h696l-348 523zM102 1239v-1044l349 522z" />
    <glyph glyph-name="space" unicode=" " horiz-adv-x="423" 
 />
    <glyph glyph-name="exclam" unicode="!" horiz-adv-x="514" 
d="M352 426h-190l-39 954h266zM254 -23c-44.667 0 -81.5 15.333 -110.5 46s-43.5 68.667 -43.5 114c0 47.333 14.5 85.833 43.5 115.5s66.5 44.5 112.5 44.5c46.667 0 84 -14.833 112 -44.5s42.667 -68.167 44 -115.5c0 -46 -14.5 -84.167 -43.5 -114.5
s-67.167 -45.5 -114.5 -45.5z" />
    <glyph glyph-name="quotedbl" unicode="&#x22;" horiz-adv-x="757" 
d="M86 1417h231l-41 -526h-149zM440 1417h232l-41 -526h-150z" />
    <glyph glyph-name="numbersign" unicode="#" horiz-adv-x="1077" 
d="M426 541h197l34 260h-196zM348 0h-158l54 383h-168v158h194l35 260h-174v157h199l51 373h154l-52 -373h199l53 373h154l-51 -373h166v-157h-191l-35 -260h172v-158h-196l-54 -383h-155l53 383h-199z" />
    <glyph glyph-name="dollar" unicode="$" horiz-adv-x="1097" 
d="M625 -176l-169.997 -0.000976562v199c-63.333 2 -125 11.167 -185 27.5s-109 36.5 -147 60.5l55 194c100.667 -60 207.334 -90 320.001 -90c65.333 0 118.166 14.667 158.499 44s60.5 68 60.5 116c0 46 -17.833 85 -53.5 117s-92.834 62 -171.501 90
c-116 42.667 -204.167 92.167 -264.5 148.5s-90.5 128.833 -90.5 217.5s29.333 164.5 88 227.5s139.334 103.833 242.001 122.5v199h168v-188c101.333 -3.33301 195.666 -26.666 282.999 -69.999l-56 -188c-92.667 47.333 -185.334 71 -278.001 71c-66 0 -115 -14 -147 -42
s-48 -61.667 -48 -101c0 -40.667 18.833 -75.5 56.5 -104.5s102.167 -61.167 193.5 -96.5c115.333 -43.333 199.166 -94.833 251.499 -154.5s78.5 -135.167 78.5 -226.5c0 -90 -30.167 -168.333 -90.5 -235s-144.833 -109 -253.5 -127v-211z" />
    <glyph glyph-name="percent" unicode="%" horiz-adv-x="1720" 
d="M410 1354c102.667 0 183.835 -35.832 243.502 -107.499s89.5 -167.834 89.5 -288.501c0 -134 -33.5 -238 -100.5 -312s-148.833 -111 -245.5 -111s-177.334 35.667 -242.001 107s-97.334 169.333 -98.001 294c0 125.333 32.833 226.333 98.5 303s150.5 115 254.5 115z
M399.001 1212c-48 0 -84.833 -24.999 -110.5 -74.999s-38.5 -114.333 -38.5 -193c-1.33301 -78.667 11.5 -143 38.5 -193s64.5 -75 112.5 -75c49.333 0 86.666 24 111.999 72s38 114 38 198c0 51.333 -4.83301 96.166 -14.5 134.499s-26.167 69.833 -49.5 94.5
s-52.666 37 -87.999 37zM543.001 -22.998h-144l772 1377h146zM1327 801.002c104 0 186.001 -35.667 246.001 -107s90 -167.333 90 -288c0 -67.333 -9.5 -128.333 -28.5 -183s-44.667 -99.167 -77 -133.5s-69.166 -60.5 -110.499 -78.5s-85.333 -27 -132 -27
c-96.667 0 -177.334 35.667 -242.001 107s-97.334 169.333 -98.001 294c0 124.667 32.667 225.167 98 301.5s150 114.5 254 114.5zM1319 659.002c-48 0 -85.335 -25.167 -112.002 -75.5s-40 -114.5 -40 -192.5c-1.33301 -78 11.834 -141.833 39.501 -191.5
s65.834 -74.5 114.501 -74.5c49.333 0 86.5 23.667 111.5 71s37.5 113 37.5 197c0 80 -12.167 144.333 -36.5 193s-62.5 73 -114.5 73z" />
    <glyph glyph-name="ampersand" unicode="&#x26;" horiz-adv-x="1320" 
d="M1311 0l-295.001 0.00292969l-57.5 60l-51.5 55c-106.667 -92 -236.334 -138 -389.001 -138c-73.333 0 -139.5 11 -198.5 33s-106.833 51.333 -143.5 88s-64.667 78.167 -84 124.5s-29 95.166 -29 146.499c0 171.333 89 304.333 267 399v6
c-74 87.333 -111 179.666 -111 276.999c0 44 8.33301 86.667 25 128s40.5 79 71.5 113s71.5 61.333 121.5 82s105.667 31 167 31c99.333 0 181.5 -28.333 246.5 -85s97.5 -131.334 97.5 -224.001c0 -73.333 -22.667 -139.666 -68 -198.999s-117.333 -114 -216 -164l-2 -6
l278 -315c58.667 90 100.334 212 125.001 366h225c-40 -229.333 -111.667 -402 -215 -518c152.667 -168.667 231.334 -255.334 236.001 -260.001zM556.999 164.003c91.333 0 168.333 31.333 231 94c-72.667 74 -188 201.667 -346 383c-92.667 -66 -139 -143.667 -139 -233
c0 -69.333 23.5 -127.333 70.5 -174s108.167 -70 183.5 -70zM591.999 1243c-45.333 0 -81 -16.3311 -107 -48.998s-39 -72.334 -39 -119.001c0 -70 33.667 -143.667 101 -221c63.333 40 109.833 77.5 139.5 112.5s44.5 75.167 44.5 120.5c0 41.333 -12 77.666 -36 108.999
s-58.333 47 -103 47z" />
    <glyph glyph-name="quotesingle" unicode="'" horiz-adv-x="405" 
d="M86 1417h231l-41 -526h-149z" />
    <glyph glyph-name="parenleft" unicode="(" horiz-adv-x="616" 
d="M377 1419h182.001c-152.667 -227.333 -229 -505 -229 -833c0 -318.667 76.333 -594.667 229 -828h-182c-166.667 230 -250 506 -250 828c1.33301 325.333 84.666 603 249.999 833z" />
    <glyph glyph-name="parenright" unicode=")" horiz-adv-x="616" 
d="M240 -242l-183 -0.000976562c153.333 232 230 509.333 230 832c0 318.667 -76.667 595 -230 829h183c166 -226 249 -502.333 249 -829c-1.33301 -325.333 -84.333 -602.666 -249 -831.999z" />
    <glyph glyph-name="asterisk" unicode="*" horiz-adv-x="894" 
d="M569 1405l154 -90l-209 -258v-4l320 53v-176l-322 49v-6l211 -250l-158 -90l-121 303l-4 -2l-123 -303l-149 92l207 252v6l-314 -51v176l312 -53v4l-205 256l156 90l120 -301h5z" />
    <glyph glyph-name="plus" unicode="+" horiz-adv-x="1220" 
d="M526 1090h170v-463h445v-160h-445v-467h-170v467h-444v160h444v463z" />
    <glyph glyph-name="comma" unicode="," horiz-adv-x="483" 
d="M188 -231l-172 -16.999c63.333 179.333 109.333 359.666 138 540.999l264 20c-30 -98.667 -66 -198 -108 -298s-82.667 -182 -122 -246z" />
    <glyph glyph-name="hyphen" unicode="-" horiz-adv-x="645" 
d="M61 633h523v-174h-523v174z" />
    <glyph glyph-name="period" unicode="." horiz-adv-x="483" 
d="M258 -23c-44.667 0 -81.499 15.5 -110.499 46.5s-43.5 69.5 -43.5 115.5c0 46.667 14.667 85.334 44 116.001s66.666 46 111.999 46c46 0 83.5 -15 112.5 -45s43.5 -69 43.5 -117c0 -46.667 -14.5 -85.334 -43.5 -116.001s-67.167 -46 -114.5 -46z" />
    <glyph glyph-name="slash" unicode="/" horiz-adv-x="690" 
d="M193 -80h-175l498 1485h176z" />
    <glyph glyph-name="zero" unicode="0" horiz-adv-x="1097" 
d="M557 1354c104 0 192 -29.666 264 -88.999s124.5 -139 157.5 -239s49.5 -216.667 49.5 -350c0 -218.667 -41.833 -389.834 -125.5 -513.501s-204.167 -185.5 -361.5 -185.5c-99.333 0 -184.666 29 -255.999 87s-124.833 138 -160.5 240s-53.834 221.333 -54.501 358
c0 211.333 42.833 379.5 128.5 504.5s205.167 187.5 358.5 187.5zM551 1161c-68.667 0 -123.667 -42.5 -165 -127.5s-62 -208.167 -62 -369.5c0 -160 20 -282.333 60 -367s95 -127 165 -127c74 0 130 43 168 129s57 209.667 57 371c0 158 -18.5 279.333 -55.5 364
s-92.833 127 -167.5 127z" />
    <glyph glyph-name="one" unicode="1" horiz-adv-x="1097" 
d="M483 0v1104h-4l-243 -123l-43 190l325 160h209v-1331h-244z" />
    <glyph glyph-name="two" unicode="2" horiz-adv-x="1097" 
d="M989 0l-901.003 -0.000976562v154l158 145c86 80 154.667 146 206 198s98 104.333 140 157s71.833 100.334 89.5 143.001s26.834 85.667 27.501 129c0 65.333 -19.333 118.833 -58 160.5s-98.667 62.5 -180 62.5c-91.333 0 -186.333 -37 -285 -111l-73 179
c50.667 41.333 111.334 74.5 182.001 99.5s146.334 37.5 227.001 37.5c71.333 0 135.5 -10.833 192.5 -32.5s103.167 -51.167 138.5 -88.5s62.166 -80 80.499 -128s27.5 -99.667 27.5 -155c0 -56.667 -9.5 -112 -28.5 -166s-48 -107.833 -87 -161.5
s-80.167 -103.667 -123.5 -150s-97.666 -99.5 -162.999 -159.5l-115 -100v-4h545v-209z" />
    <glyph glyph-name="three" unicode="3" horiz-adv-x="1097" 
d="M82 70l57.001 190.004c32 -19.333 76.333 -37.833 133 -55.5s113.334 -26.5 170.001 -26.5c46 0 86.833 6.16699 122.5 18.5s63.834 28.833 84.501 49.5s36.167 43.167 46.5 67.5s15.5 50.166 15.5 77.499c0 50 -14.833 92.5 -44.5 127.5s-66.667 60 -111 75
s-93.5 22.5 -147.5 22.5h-115v185h115c30 0 59.833 3.5 89.5 10.5s57.667 17.667 84 32s47.666 33.666 63.999 57.999s24.5 52.166 24.5 83.499c0 49.333 -18 89.666 -54 120.999s-89 47 -159 47c-50 0 -99.833 -8.5 -149.5 -25.5s-90.834 -36.5 -123.501 -58.5l-57 182
c42 28 97.833 52.167 167.5 72.5s141.5 30.5 215.5 30.5c132 0 234.333 -31.333 307 -94s109 -140 109 -232c0 -70.667 -20.833 -133.167 -62.5 -187.5s-102.834 -95.5 -183.501 -123.5v-4c84 -16 153.667 -53.5 209 -112.5s83.333 -132.167 84 -219.5
c0 -116.667 -46.333 -213.167 -139 -289.5s-219 -114.5 -379 -114.5c-76 0 -147.333 9 -214 27s-119.667 40 -159 66z" />
    <glyph glyph-name="four" unicode="4" horiz-adv-x="1097" 
d="M881 0h-238v338h-604v164l545 829h297v-803h172v-190h-172v-338zM281 528h362v363c0 47.333 2.66699 124.333 8 231h-8c-38 -77.333 -77 -152.333 -117 -225l-245 -365v-4z" />
    <glyph glyph-name="five" unicode="5" horiz-adv-x="1097" 
d="M936 1331l0.00292969 -209.002h-512l-39 -266c29.333 4 60.666 6 93.999 6c130.667 0 238.667 -28.667 324 -86c53.333 -33.333 95.666 -78.666 126.999 -135.999s47 -124.666 47 -201.999c0 -130 -49.667 -239.333 -149 -328s-228.666 -133 -387.999 -133
c-72.667 0 -140 7.5 -202 22.5s-112.667 33.5 -152 55.5l51 191c33.333 -18 76.666 -34.167 129.999 -48.5s107.666 -21.5 162.999 -21.5c78.667 0 146.5 21.5 203.5 64.5s85.5 102.167 85.5 177.5c0 80 -30.833 142.333 -92.5 187s-156.5 67 -284.5 67
c-48 0 -108.667 -4.33301 -182 -13l86 672h690z" />
    <glyph glyph-name="six" unicode="6" horiz-adv-x="1097" 
d="M897 1350l-0.00195312 -198.999c-36 2 -78.333 0 -127 -6c-68 -8 -129 -24 -183 -48s-98.5 -53.833 -133.5 -89.5s-63.167 -74.167 -84.5 -115.5s-36.333 -86 -45 -134h6c74.667 86 174.334 129 299.001 129c117.333 0 214.5 -39.333 291.5 -118s115.5 -184 115.5 -316
c0 -84.667 -19.167 -163.167 -57.5 -235.5s-93.666 -130.5 -165.999 -174.5s-154.166 -66 -245.499 -66c-79.333 0 -150.833 14.5 -214.5 43.5s-116.334 69.333 -158.001 121s-73.5 112.5 -95.5 182.5s-33 146.333 -33 229c0 124.667 20.5 238 61.5 340
s97.5 186.667 169.5 254c120 116 277.667 181.333 473 196c48 7.33301 90.333 9.66602 127 6.99902zM566.998 166.001c64 0 115.501 25.1689 154.501 75.502s58.5 115.833 58.5 196.5c0 79.333 -20.5 143.166 -61.5 191.499s-97.5 72.5 -169.5 72.5
c-46 0 -88.667 -12.667 -128 -38s-69 -58.333 -89 -99c-11.333 -22.667 -17 -49.334 -17 -80.001c2 -93.333 24.667 -169.833 68 -229.5s104.666 -89.5 183.999 -89.5z" />
    <glyph glyph-name="seven" unicode="7" horiz-adv-x="1097" 
d="M109 1331h895v-162l-564 -1169h-264l561 1118v4h-628v209z" />
    <glyph glyph-name="eight" unicode="8" horiz-adv-x="1097" 
d="M319 688l0.000976562 5.99609c-67.333 32.667 -117.833 74.834 -151.5 126.501s-50.5 107.834 -50.5 168.501c0 107.333 42.167 195 126.5 263s190.166 102 317.499 102c69.333 0 131.5 -9.66699 186.5 -29s98.833 -45.166 131.5 -77.499s57.5 -68.166 74.5 -107.499
s25.5 -80 25.5 -122c0 -60 -16.833 -116.5 -50.5 -169.5s-85.167 -96.833 -154.5 -131.5v-6c76.667 -28.667 138.167 -72 184.5 -130s69.5 -126.667 69.5 -206c0 -118.667 -45 -214.667 -135 -288s-206.667 -110 -350 -110c-75.333 0 -143.5 10.333 -204.5 31
s-110.667 48.334 -149 83.001s-67.833 73.667 -88.5 117s-31 88.666 -31 135.999c0 156 83 270.667 249 344zM551.001 155.996c66 0 119.333 18.501 160 55.501s61 84.5 61 142.5c0 121.333 -82.667 204.666 -248 249.999c-62 -17.333 -110.167 -46.5 -144.5 -87.5
s-51.5 -88.833 -51.5 -143.5c-2 -59.333 17.5 -110.333 58.5 -153s95.833 -64 164.5 -64zM549.001 1180c-60.667 0 -108 -17.499 -142 -52.499s-51 -77.833 -51 -128.5c0 -98.667 72.333 -168 217 -208c48 14 87.667 38.833 119 74.5s47 77.5 47 125.5
c0 51.333 -16 95.666 -48 132.999s-79.333 56 -142 56z" />
    <glyph glyph-name="nine" unicode="9" horiz-adv-x="1097" 
d="M188 -20l0.00195312 200.001c34 -3.33301 80.667 -2 140 4c104.667 8.66699 194.667 43 270 103c90 71.333 147.333 170.333 172 297h-4c-72 -78 -169 -117 -291 -117c-116.667 0 -213 38.167 -289 114.5s-114 175.5 -114 297.5c0 85.333 20 164 60 236
s96.833 129.833 170.5 173.5s156.5 65.5 248.5 65.5c101.333 0 188.166 -24.833 260.499 -74.5s126.166 -116.834 161.499 -201.501s53 -182 53 -292c0 -266 -77 -472.667 -231 -620c-118 -108.667 -269.667 -169.334 -455 -182.001
c-50 -5.33301 -100.667 -6.66602 -152 -3.99902zM539.002 1167c-63.333 0 -115.333 -25.5 -156 -76.5s-61 -116.833 -61 -197.5c0 -70.667 19.667 -129 59 -175s92.666 -69 159.999 -69c48.667 0 91.5 10.333 128.5 31s65.833 47.334 86.5 80.001
c9.33301 21.333 14 46 14 74c0 97.333 -19.167 177.166 -57.5 239.499s-96.166 93.5 -173.499 93.5z" />
    <glyph glyph-name="colon" unicode=":" horiz-adv-x="483" 
d="M256 668c-44 0 -80.333 15.1689 -109 45.502s-43 68.166 -43 113.499c0 47.333 14.5 86.166 43.5 116.499s66.5 45.5 112.5 45.5s83.167 -15 111.5 -45s42.5 -69 42.5 -117c0 -46 -14.5 -84 -43.5 -114s-67.167 -45 -114.5 -45zM256 -22.998
c-44 0 -80.333 15.334 -109 46.001s-43 68.667 -43 114c0 47.333 14.5 86.166 43.5 116.499s66.5 45.5 112.5 45.5s83.167 -15 111.5 -45s42.5 -69 42.5 -117c0 -46 -14.5 -84.167 -43.5 -114.5s-67.167 -45.5 -114.5 -45.5z" />
    <glyph glyph-name="semicolon" unicode=";" horiz-adv-x="483" 
d="M188 -231l-170 -16.999c63.333 179.333 109.333 359.666 138 540.999l262 20c-30 -98.667 -66 -198 -108 -298s-82.667 -182 -122 -246zM270 668.001c-44 0 -80.167 15.1689 -108.5 45.502s-42.5 68.166 -42.5 113.499c0 47.333 14.333 86.166 43 116.499
s66 45.5 112 45.5s83.167 -15 111.5 -45s42.5 -69 42.5 -117c0 -46 -14.5 -84 -43.5 -114s-67.167 -45 -114.5 -45z" />
    <glyph glyph-name="less" unicode="&#x3c;" horiz-adv-x="1220" 
d="M125 471v147l969 472v-185l-770 -358v-4l770 -359v-184z" />
    <glyph glyph-name="equal" unicode="=" horiz-adv-x="1220" 
d="M1139 676h-1057v160h1057v-160zM1139 262h-1057v160h1057v-160z" />
    <glyph glyph-name="greater" unicode="&#x3e;" horiz-adv-x="1220" 
d="M1096 623v-156l-971 -467v182l782 361v4l-782 360v183z" />
    <glyph glyph-name="question" unicode="?" horiz-adv-x="876" 
d="M508 422h-222.997l-2 53c-10.667 113.333 30.333 225.333 123 336c45.333 54.667 78.5 100.167 99.5 136.5s31.5 72.833 31.5 109.5c0 44 -14.333 79 -43 105s-71 39.333 -127 40c-36.667 0 -73.834 -5.33301 -111.501 -16s-68.834 -25.667 -93.501 -45l-62 180
c39.333 24.667 87.166 44.834 143.499 60.501s115.833 23.5 178.5 23.5c120.667 0 212.667 -29.833 276 -89.5s95 -133.5 95 -221.5c0 -36 -4.5 -69.833 -13.5 -101.5s-23.667 -63.334 -44 -95.001s-38 -57 -53 -76s-37.167 -45.167 -66.5 -78.5
c-76 -87.333 -112 -179.333 -108 -276v-45zM389.003 -23c-44.667 0 -81.332 15.333 -109.999 46s-43 68.667 -43 114c0 46.667 14.5 85 43.5 115s66.167 45 111.5 45c46 0 83.167 -14.833 111.5 -44.5s43.166 -68.167 44.499 -115.5c0 -46 -14.5 -84.167 -43.5 -114.5
s-67.167 -45.5 -114.5 -45.5z" />
    <glyph glyph-name="at" unicode="@" horiz-adv-x="1546" 
d="M911 516l35 211c-24 8 -50.667 12 -80 12c-77.333 0 -143.333 -32 -198 -96s-82 -140.333 -82 -229c0 -43.333 10.167 -77.5 30.5 -102.5s49.833 -37.5 88.5 -37.5c46 0 89.333 24.667 130 74s66 105.333 76 168zM1063 -33l35 -103.998
c-108.667 -52 -232.334 -78 -371.001 -78c-84.667 0 -165.167 15.167 -241.5 45.5s-143.333 72.666 -201 126.999s-103.5 122.333 -137.5 204s-51 171.167 -51 268.5c0 104.667 18.167 204.5 54.5 299.5s86.833 178.333 151.5 250s144.834 128.667 240.501 171
s199.5 63.5 311.5 63.5c117.333 0 222.333 -25.333 315 -76s164.667 -121.167 216 -211.5s77 -192.166 77 -305.499c0 -146.667 -36.167 -264.667 -108.5 -354s-161.833 -134 -268.5 -134c-47.333 0 -86.166 14.167 -116.499 42.5s-46.5 70.166 -48.5 125.499h-7
c-68.667 -112 -160.667 -168 -276 -168c-65.333 0 -119.166 23.667 -161.499 71s-63.5 111.666 -63.5 192.999c0 84.667 19.667 163.334 59 236.001s96.166 131.5 170.499 176.5s158.166 67.5 251.499 67.5c94.667 0 172.334 -16 233.001 -48l-63 -374
c-24.667 -132 -6.33398 -199 54.999 -201c52.667 -2 100.667 29.333 144 94s65 152.667 65 264c0 144.667 -43.333 262.5 -130 353.5s-207.667 136.5 -363 136.5c-80.667 0 -157.334 -15.5 -230.001 -46.5s-136.167 -74.5 -190.5 -130.5s-97.5 -125.333 -129.5 -208
s-48 -173 -48 -271c0 -168.667 48.333 -301.834 145 -399.501s222.334 -146.5 377.001 -146.5c116 0 217.667 22.333 305 67z" />
    <glyph glyph-name="A" unicode="A" horiz-adv-x="1302" 
d="M858 391h-436l-119 -391h-260l442 1380h322l448 -1380h-272zM463 582h354l-108 340c-16.667 51.333 -40 137.333 -70 258h-4c-34.667 -139.333 -56.667 -225.333 -66 -258z" />
    <glyph glyph-name="B" unicode="B" horiz-adv-x="1179" 
d="M145 4l-0.00390625 1356c103.333 20.667 226.333 31 369 31c92.667 0 169.834 -6.83301 231.501 -20.5s115.5 -36.167 161.5 -67.5c44.667 -26.667 79.834 -62.334 105.501 -107.001s38.5 -96 38.5 -154c0 -64.667 -20 -123.667 -60 -177s-96.667 -93.333 -170 -120v-6
c78.667 -20 144.834 -59.5 198.501 -118.5s80.5 -132.833 80.5 -221.5c0 -114.667 -43.667 -210 -131 -286c-98.667 -84.667 -270 -127 -514 -127c-107.333 0 -210.666 6 -309.999 18zM394.996 1194v-379h129c86 0 153 18.167 201 54.5s72 84.5 72 144.5
c0 64 -22.5 111.667 -67.5 143s-108.5 47 -190.5 47c-66 0 -114 -3.33301 -144 -10zM394.996 633.001v-450.997c22 -4 66.333 -6 133 -6c42 0 80.833 4.16699 116.5 12.5s68.167 21.166 97.5 38.499s52.333 41.166 69 71.499s25 66.166 25 107.499
c0 76.667 -29.167 133.667 -87.5 171s-134.5 56 -228.5 56h-125z" />
    <glyph glyph-name="C" unicode="C" horiz-adv-x="1204" 
d="M1094 238l41.0029 -199.001c-34 -16.667 -83 -31.167 -147 -43.5s-134.667 -18.5 -212 -18.5c-217.333 0 -389 63 -515 189s-189 295.333 -189 508c0 111.333 18.667 213 56 305s89 168.833 155 230.5s144.167 109.334 234.5 143.001s188.166 50.5 293.499 50.5
c75.333 0 142.166 -6.33301 200.499 -19s102.833 -27 133.5 -43l-53 -200c-80.667 35.333 -171 53 -271 53c-144.667 0 -261.334 -44.167 -350.001 -132.5s-133 -213.5 -133 -375.5c0 -154 42.333 -275.5 127 -364.5s202.667 -133.5 354 -133.5c105.333 0 197 16.667 275 50
z" />
    <glyph glyph-name="D" unicode="D" horiz-adv-x="1398" 
d="M145 4l-0.000976562 1358c136.667 19.333 270.667 29 402 29c246 0 433 -53.333 561 -160c144.667 -116.667 217 -286 217 -508c0 -236 -71.667 -419 -215 -549c-137.333 -125.333 -345.666 -188 -624.999 -188c-126 0 -239.333 6 -340 18zM396.999 1180
l-0.00195312 -990c23.333 -4 70 -6 140 -6c166 -1.33301 294.5 43.5 385.5 134.5s136.5 223.167 136.5 396.5c1.33301 152 -40.667 269.833 -126 353.5s-206.666 125.5 -363.999 125.5c-71.333 0 -128.666 -4.66699 -171.999 -14z" />
    <glyph glyph-name="E" unicode="E" horiz-adv-x="1054" 
d="M918 817v-205h-521v-405h582v-207h-834v1380h803v-206h-551v-357h521z" />
    <glyph glyph-name="F" unicode="F" horiz-adv-x="1042" 
d="M145 0v1380h799v-206h-547v-381h508v-205h-508v-588h-252z" />
    <glyph glyph-name="G" unicode="G" horiz-adv-x="1363" 
d="M1251 762l-0.00390625 -699.002c-53.333 -20 -119.666 -37.833 -198.999 -53.5s-160.333 -23.5 -243 -23.5c-233.333 0 -414.333 61.333 -543 184c-61.333 58.667 -108.666 131.834 -141.999 219.501s-50 183.834 -50 288.501c0.666992 144 33.167 270.333 97.5 379
s154.333 192.167 270 250.5s249.167 87.5 400.5 87.5c78.667 0 150.334 -6.5 215.001 -19.5s115 -28.5 151 -46.5l-55 -203c-86.667 40 -191 60 -313 60c-151.333 0 -272.833 -43.333 -364.5 -130s-137.5 -208.667 -137.5 -366c0 -154.667 43.5 -276.667 130.5 -366
s203.167 -134 348.5 -134c84.667 0 148.334 9 191.001 27v346h-244v199h487z" />
    <glyph glyph-name="H" unicode="H" horiz-adv-x="1376" 
d="M145 1380h252v-553h584v553h252v-1380h-252v608h-584v-608h-252v1380z" />
    <glyph glyph-name="I" unicode="I" horiz-adv-x="540" 
d="M145 1380h252v-1380h-252v1380z" />
    <glyph glyph-name="J" unicode="J" horiz-adv-x="802" 
d="M420 494l-0.000976562 886h252v-895c0 -93.333 -10.833 -173.333 -32.5 -240s-53.167 -119.167 -94.5 -157.5s-89 -66.333 -143 -84s-116.333 -26.5 -187 -26.5c-81.333 0 -152.333 11 -213 33l31 203c48.667 -16.667 100.334 -25 155.001 -25
c76.667 0 134.5 22.5 173.5 67.5s58.5 124.5 58.5 238.5z" />
    <glyph glyph-name="K" unicode="K" horiz-adv-x="1191" 
d="M145 0l-0.000976562 1380h250v-635h6c22.667 36 56.334 86 101.001 150l362 485h310l-476 -587l506 -793h-295l-389 633l-125 -148v-485h-250z" />
    <glyph glyph-name="L" unicode="L" horiz-adv-x="1009" 
d="M145 0v1380h252v-1169h568v-211h-820z" />
    <glyph glyph-name="M" unicode="M" horiz-adv-x="1693" 
d="M1337 0l-25.999 563.001c-12.667 278 -18.334 471.333 -17.001 580h-6c-46 -172.667 -100.667 -349 -164 -529l-202 -598h-193l-184 590c-54.667 182 -101 361 -139 537h-5c-8 -244 -16 -440 -24 -588l-31 -555h-235l92 1380h332l180 -555
c48.667 -160.667 91 -320.334 127 -479.001h6c41.333 168.667 87 329 137 481l191 553h327l80 -1380h-246z" />
    <glyph glyph-name="N" unicode="N" horiz-adv-x="1384" 
d="M377 0h-233.999v1380h289l356 -592c99.333 -170 178 -324 236 -462h4c-14.667 150 -22 341 -22 573v481h233v-1380h-262l-361 608c-102.667 176.667 -184.334 335 -245.001 475l-9 -2c10 -178 15 -373.667 15 -587v-494z" />
    <glyph glyph-name="O" unicode="O" horiz-adv-x="1441" 
d="M731 1405c98 0 187.502 -18.001 268.502 -54.001s148.333 -85.333 202 -148s95.167 -136.667 124.5 -222s44 -177.333 44 -276c0 -113.333 -16.5 -216.166 -49.5 -308.499s-78.833 -169 -137.5 -230s-128.334 -107.833 -209.001 -140.5s-168.334 -49 -263.001 -49
c-128 0 -240.5 30.5 -337.5 91.5s-171.167 144.667 -222.5 251s-77 226.5 -77 360.5c0 140.667 27.5 266 82.5 376s132.5 195.667 232.5 257s214 92 342 92zM723.002 1202c-60.667 0 -115.5 -13.499 -164.5 -40.499s-89.333 -64 -121 -111s-55.834 -101.5 -72.501 -163.5
s-25 -129 -25 -201c0 -95.333 14.833 -180.833 44.5 -256.5s73.834 -136.167 132.501 -181.5s127.334 -68 206.001 -68c79.333 0 148.166 23 206.499 69s102 107.667 131 185s43.5 164.666 43.5 261.999c0 89.333 -13.833 171.5 -41.5 246.5s-71 137 -130 186
s-128.833 73.5 -209.5 73.5z" />
    <glyph glyph-name="P" unicode="P" horiz-adv-x="1144" 
d="M145 0l0.00195312 1362c111.333 19.333 239.666 29 384.999 29c181.333 0 316.666 -37.667 405.999 -113c42 -34.667 75 -78.334 99 -131.001s36 -110.667 36 -174c0 -131.333 -39 -235 -117 -311c-102 -100 -247.333 -150 -436 -150c-52.667 0 -93.667 3.33301 -123 10
v-522h-250zM395.002 1184l-0.000976562 -463c26.667 -8 67.667 -12 123 -12c94.667 0 168.834 22.333 222.501 67s80.5 107 80.5 187c0 76 -24.5 133.833 -73.5 173.5s-117.833 59.5 -206.5 59.5c-61.333 0 -110 -4 -146 -12z" />
    <glyph glyph-name="Q" unicode="Q" horiz-adv-x="1441" 
d="M1378 -20l-71 -200.997c-187.333 51.333 -367 110.666 -539 177.999c-27.333 11.333 -57.333 18 -90 20c-81.333 4 -157.833 22 -229.5 54s-135.667 76.5 -192 133.5s-100.833 129.667 -133.5 218s-49 186.833 -49 295.5c0 141.333 27.333 267.166 82 377.499
s132 196.166 232 257.499s215 92 345 92c129.333 0 242.833 -31.167 340.5 -93.5s171.5 -145.833 221.5 -250.5s75 -222.667 75 -354c0 -160 -32.833 -295.5 -98.5 -406.5s-151.5 -187.833 -257.5 -230.5v-9c110 -30.667 231.333 -57.667 364 -81zM723 180.003
c78.667 0 147.167 22.833 205.5 68.5s102.166 107.167 131.499 184.5s44 165 44 263c0 90 -13.833 172.5 -41.5 247.5s-70.834 136.833 -129.501 185.5s-128 73 -208 73c-81.333 0 -151.666 -24.167 -210.999 -72.5s-103.166 -110.833 -131.499 -187.5
s-42.5 -162 -42.5 -256c0 -93.333 14.833 -177.833 44.5 -253.5s74 -136.667 133 -183s127.5 -69.5 205.5 -69.5z" />
    <glyph glyph-name="R" unicode="R" horiz-adv-x="1165" 
d="M145 0v1360c110 20.667 237 31 381 31c194.667 0 336.667 -37 426 -111c79.333 -66 119 -159 119 -279c0 -84 -24.167 -156.167 -72.5 -216.5s-108.166 -102.833 -179.499 -127.5v-6c93.333 -34.667 157.666 -123.334 192.999 -266.001l25.5 -99.5l25 -96.5l20.5 -78.5
c7.33301 -27.667 14 -50.5 20 -68.5s11.667 -32 17 -42h-258c-26 53.333 -56.667 162 -92 326c-20 89.333 -48.333 151.333 -85 186s-91 53 -163 55h-127v-567h-250zM395 1188v-436h150c84.667 0 151.5 20.667 200.5 62s73.5 96.333 73.5 165
c0 73.333 -23.667 128.5 -71 165.5s-113 55.5 -197 55.5c-70.667 0 -122.667 -4 -156 -12z" />
    <glyph glyph-name="S" unicode="S" horiz-adv-x="1062" 
d="M84 66l57.0029 208.001c43.333 -25.333 94.5 -46.333 153.5 -63s119.167 -25 180.5 -25c78.667 0 140 17.167 184 51.5s66 80.166 66 137.499c0 51.333 -18.667 94.333 -56 129s-100 68 -188 100c-121.333 43.333 -214.166 97.333 -278.499 162s-96.5 144.667 -96.5 240
c0 115.333 44.667 210.333 134 285s208 112 356 112c129.333 0 239.333 -23.333 330 -70l-60 -203c-83.333 44 -175.333 66 -276 66c-74.667 0 -131.334 -16.333 -170.001 -49s-58 -71.667 -58 -117c0 -50.667 19.5 -91.5 58.5 -122.5s107.833 -65.833 206.5 -104.5
c122 -46 211.5 -101.333 268.5 -166s85.5 -146 85.5 -244c0 -56.667 -10.833 -109.667 -32.5 -159s-53.334 -93.333 -95.001 -132s-96.334 -69.167 -164.001 -91.5s-144.5 -33.5 -230.5 -33.5c-70.667 0 -140.834 8.66699 -210.501 26s-124.5 38.333 -164.5 63z" />
    <glyph glyph-name="T" unicode="T" horiz-adv-x="1075" 
d="M410 0v1169h-394v211h1043v-211h-397v-1169h-252z" />
    <glyph glyph-name="U" unicode="U" horiz-adv-x="1363" 
d="M143 1380l252.001 0.000976562v-805c0 -131.333 25.167 -230 75.5 -296s119.5 -99 207.5 -99c93.333 0 165.166 32.833 215.499 98.5s75.5 164.5 75.5 296.5v805h252v-788c0 -206.667 -48.833 -360.834 -146.5 -462.501s-232.5 -152.5 -404.5 -152.5
c-166.667 0 -296.167 49.833 -388.5 149.5s-138.5 254.167 -138.5 463.5v790z" />
    <glyph glyph-name="V" unicode="V" horiz-adv-x="1230" 
d="M750 0l-289 -0.000976562l-447 1380h275l188 -628c64 -210.667 109 -378 135 -502h4c26.667 116.667 74 283.334 142 500.001l200 630h269z" />
    <glyph glyph-name="W" unicode="W" horiz-adv-x="1779" 
d="M641 0l-271.999 -0.000976562l-338 1380h268l131 -626c31.333 -149.333 61.333 -310 90 -482h4c12 76 45.667 237.333 101 484l149 624h264l138 -635c43.333 -214.667 71.333 -370 84 -466h4c21.333 128.667 52.666 288.334 93.999 479.001l143 622h256l-373 -1380h-268
l-143 649c-37.333 167.333 -63.333 313.333 -78 438h-4c-24 -153.333 -54 -299.333 -90 -438z" />
    <glyph glyph-name="X" unicode="X" horiz-adv-x="1216" 
d="M1176 0h-292.999l-148 274l-139 261h-4c-26.667 -65.333 -68.334 -152.333 -125.001 -261l-137 -274h-289l410 698l-396 682h291l150 -284c36.667 -70.667 74 -148 112 -232h6c34 80 70.333 157.333 109 232l147 284h289l-403 -673z" />
    <glyph glyph-name="Y" unicode="Y" horiz-adv-x="1177" 
d="M711 0h-252v575l-436 805h288l164 -354c48.667 -106 89 -197.333 121 -274h4c26 68.667 65.667 160 119 274l166 354h284l-458 -798v-582z" />
    <glyph glyph-name="Z" unicode="Z" horiz-adv-x="1159" 
d="M53 0v139l705 1026v6h-643v209h970v-147l-696 -1018v-6h707v-209h-1043z" />
    <glyph glyph-name="bracketleft" unicode="[" horiz-adv-x="616" 
d="M551 -229h-399v1634h399v-145h-213v-1344h213v-145z" />
    <glyph glyph-name="backslash" unicode="\" horiz-adv-x="686" 
d="M670 -80h-176l-480 1485h176z" />
    <glyph glyph-name="bracketright" unicode="]" horiz-adv-x="616" 
d="M63 1405h400v-1634h-400v145h213v1344h-213v145z" />
    <glyph glyph-name="asciicircum" unicode="^" horiz-adv-x="1220" 
d="M1118 373h-186l-320 760h-4l-319 -760h-185l426 958h162z" />
    <glyph glyph-name="underscore" unicode="_" horiz-adv-x="1024" 
d="M0 -154h1024v-102h-1024v102z" />
    <glyph glyph-name="grave" unicode="`" 
d="M25 1430h245l179 -304h-175z" />
    <glyph glyph-name="a" unicode="a" horiz-adv-x="1040" 
d="M909 598l-0.00195312 -358c0 -102.667 5.66699 -182.667 17 -240h-228l-18 111h-6c-30.667 -40.667 -71.667 -73.167 -123 -97.5s-108.666 -36.5 -171.999 -36.5c-96 0 -172.167 29.333 -228.5 88s-84.5 128.334 -84.5 209.001c0 123.333 51.833 217.333 155.5 282
s248.834 96.334 435.501 95.001v17c0 20 -2.5 38.667 -7.5 56s-14 35.666 -27 54.999s-33.833 34.666 -62.5 45.999s-63.667 17 -105 17c-48 0 -96.167 -6.83301 -144.5 -20.5s-89.833 -31.5 -124.5 -53.5l-49 164c41.333 25.333 93.333 46.333 156 63s131 25 205 25
c76.667 0 142.667 -11.5 198 -34.5s98 -54.833 128 -95.5s51.667 -85 65 -133s20 -101 20 -159zM663.998 350l-0.000976562 137c-232.667 2.66699 -349 -59.333 -349 -186c0 -46.667 13.333 -82.167 40 -106.5s61.334 -36.5 104.001 -36.5c48.667 0 90.5 13.167 125.5 39.5
s59.167 58.833 72.5 97.5c4.66699 14 7 32.333 7 55z" />
    <glyph glyph-name="b" unicode="b" horiz-adv-x="1198" 
d="M135 281l-0.00195312 1173h252v-594h4c31.333 50 74.333 89.167 129 117.5s118.334 42.5 191.001 42.5c122.667 0 222.667 -46.667 300 -140s115.666 -215.333 114.999 -366c0 -69.333 -8.5 -133.666 -25.5 -192.999s-40 -109.833 -69 -151.5
s-62.833 -77.167 -101.5 -106.5s-79.667 -51 -123 -65s-87.666 -21 -132.999 -21c-143.333 0 -248.666 57.667 -315.999 173h-4l-12 -150h-215c5.33301 90.667 8 184.334 8 281.001zM386.998 572.998l0.000976562 -161c0 -22 2 -42 6 -60c14 -52 41.167 -94.333 81.5 -127
s87.5 -49 141.5 -49c78.667 0 140.667 29.333 186 88s68 138.667 68 240c0 92.667 -21.833 169 -65.5 229s-105.834 90 -186.501 90c-51.333 0 -98 -17 -140 -51s-69.667 -78.333 -83 -133c-5.33301 -24 -8 -46 -8 -66z" />
    <glyph glyph-name="c" unicode="c" horiz-adv-x="919" 
d="M834 217l34 -186.002c-72 -34 -166 -51 -282 -51c-155.333 0 -279.833 46.167 -373.5 138.5s-140.5 215.833 -140.5 370.5c0 74.667 12.667 144.334 38 209.001s61.333 120.834 108 168.501s105.167 85.167 175.5 112.5s148.166 41 233.499 41
c93.333 0 174.333 -15 243 -45l-45 -191c-53.333 26 -116.666 39 -189.999 39c-94 0 -168.667 -30.5 -224 -91.5s-82.333 -138.167 -81 -231.5c0 -100 28.667 -178.667 86 -236s130.333 -86 219 -86c68.667 0 135 13 199 39z" />
    <glyph glyph-name="d" unicode="d" horiz-adv-x="1189" 
d="M803 1454l252.002 0.00292969v-1173c0 -96.667 2.66699 -190.334 8 -281.001h-223l-13 158h-4c-30 -56 -73.5 -100.167 -130.5 -132.5s-121.167 -48.5 -192.5 -48.5c-122 0 -223.833 47.167 -305.5 141.5s-122.5 217.166 -122.5 368.499
c-0.666992 161.333 42.166 290.5 128.499 387.5s192.166 145.5 317.499 145.5c66 0 123.5 -11.833 172.5 -35.5s85.167 -54.834 108.5 -93.501h4v563zM803.002 432.003l0.000976562 149.999c0 24.667 -2 47 -6 67c-12 50.667 -37.333 92.667 -76 126s-85.667 50 -141 50
c-78.667 0 -140.334 -30.667 -185.001 -92s-67 -139.666 -67 -234.999c0 -94.667 22.167 -171.334 66.5 -230.001s105.5 -88 183.5 -88c52 0 98 16.167 138 48.5s66.333 75.5 79 129.5c5.33301 20.667 8 45.334 8 74.001z" />
    <glyph glyph-name="e" unicode="e" horiz-adv-x="1056" 
d="M981 428l-668 0.000976562c2 -58 17.667 -106.833 47 -146.5s66.166 -68.167 110.499 -85.5s94.5 -26 150.5 -26c97.333 0 189.333 15 276 45l37 -172c-97.333 -42 -213.333 -63 -348 -63c-160.667 0 -286.5 45.333 -377.5 136s-136.5 213 -136.5 367
c0 70 10.667 136.833 32 200.5s51.833 120.667 91.5 171s90.834 90.5 153.501 120.5s132.667 45 210 45c62.667 0 119 -9.83301 169 -29.5s91 -45.5 123 -77.5s58.667 -69.5 80 -112.5s36.333 -86.5 45 -130.5s13 -89 13 -135c0 -40.667 -2.66699 -76.334 -8 -107.001z
M313 604.001h438.999c0.666992 26 -2.16602 52 -8.49902 78s-16.666 52 -30.999 78s-36 47.167 -65 63.5s-63.167 24.5 -102.5 24.5c-37.333 0 -70.833 -7.83301 -100.5 -23.5s-53.334 -36 -71.001 -61s-31.5 -51 -41.5 -78s-16.333 -54.167 -19 -81.5z" />
    <glyph glyph-name="f" unicode="f" horiz-adv-x="653" 
d="M416 0h-252.001v809h-135v188h135v43c0 150 40.333 263.333 121 340c68.667 64.667 155.334 97 260.001 97c52.667 0 106 -8.33301 160 -25l-17 -195c-36.667 12.667 -72.667 19 -108 19c-58.667 0 -101 -20.833 -127 -62.5s-39 -96.5 -39 -164.5v-52h217v-188h-215v-809
z" />
    <glyph glyph-name="g" unicode="g" horiz-adv-x="1173" 
d="M1038 711l0.000976562 -565.998c0 -212.667 -49 -363.334 -147 -452.001c-89.333 -80.667 -217.666 -121 -384.999 -121c-64.667 0 -128.167 7 -190.5 21s-114.833 33.667 -157.5 59l55 190c85.333 -50 182.333 -75 291 -75c87.333 0 157 24.5 209 73.5
s78 124.833 78 227.5v86h-5c-29.333 -46 -68.833 -82.167 -118.5 -108.5s-106.834 -39.5 -171.501 -39.5c-124 0 -225.667 45.833 -305 137.5s-119 208.5 -119 350.5c0 80 12.333 153.333 37 220s57.667 122.167 99 166.5s89.333 78.666 144 102.999s112 36.5 172 36.5
c133.333 0 229.666 -52 288.999 -156h4l10 133h220c-6 -102 -9 -197.333 -9 -286zM786.001 436.002l0.000976562 162c0 27.333 -2.66699 50 -8 68c-14 48 -38.833 86.833 -74.5 116.5s-79.167 44.5 -130.5 44.5c-72 0 -130.833 -29.333 -176.5 -88
s-68.5 -137.667 -68.5 -237c0 -88.667 21.5 -162 64.5 -220s102.5 -87 178.5 -87c47.333 0 89.666 14 126.999 42s63.333 65 78 111c6.66699 20.667 10 50 10 88z" />
    <glyph glyph-name="h" unicode="h" horiz-adv-x="1171" 
d="M135 0v1454h252v-592h4c31.333 48 73 85.667 125 113c52.667 30 110.667 45 174 45c44.667 0 86.834 -7.83301 126.501 -23.5s76.5 -39.667 110.5 -72s61 -77.333 81 -135s30 -124.834 30 -201.501v-588h-252v561c0 76.667 -15.5 138.167 -46.5 184.5
s-79.5 69.5 -145.5 69.5c-46.667 0 -87.334 -13.333 -122.001 -40s-59.667 -60.334 -75 -101.001c-6.66699 -19.333 -10 -44.666 -10 -75.999v-598h-252z" />
    <glyph glyph-name="i" unicode="i" horiz-adv-x="524" 
d="M387 0h-252v997h252v-997zM262 1413c42 0 75.6689 -12.833 101.002 -38.5s38.666 -58.5 39.999 -98.5c0 -38 -13.167 -70 -39.5 -96s-60.833 -39 -103.5 -39c-41.333 0 -74.833 13 -100.5 39s-38.5 58 -38.5 96c0 39.333 13.167 72 39.5 98s60.166 39 101.499 39z" />
    <glyph glyph-name="j" unicode="j" horiz-adv-x="552" 
d="M-61 -436l-25 196.002c85.333 6 148 30 188 72c24 26 41 63.667 51 113s15 127 15 233v819h252v-891c0 -102.667 -10.5 -187.834 -31.5 -255.501s-54.167 -124.167 -99.5 -169.5c-40.667 -38.667 -92.5 -67.834 -155.5 -87.501s-127.833 -29.5 -194.5 -29.5zM297 1413
c41.333 0 74.5 -12.832 99.5 -38.499s38.167 -58.5 39.5 -98.5c0 -38.667 -13 -70.834 -39 -96.501s-60.667 -38.5 -104 -38.5c-42 0 -75.667 13 -101 39s-38 58 -38 96c0 39.333 13.167 72 39.5 98s60.833 39 103.5 39z" />
    <glyph glyph-name="k" unicode="k" horiz-adv-x="1042" 
d="M387 1454v-895h4c32.667 50.667 58.667 89.667 78 117l244 321h303l-371 -407l422 -590h-309l-287 440l-84 -100v-340h-252v1454h252z" />
    <glyph glyph-name="l" unicode="l" horiz-adv-x="526" 
d="M135 0v1454h252v-1454h-252z" />
    <glyph glyph-name="m" unicode="m" horiz-adv-x="1736" 
d="M135 0v700.001c0 83.333 -2.66699 182.333 -8 297h215l12 -147h6c68 113.333 170.667 170 308 170c64.667 0 121.334 -16.667 170.001 -50s84 -78 106 -134h4c34 53.333 74.333 95 121 125c57.333 39.333 125.666 59 204.999 59c43.333 0 84 -7.83301 122 -23.5
s73 -39.667 105 -72s57.5 -77.333 76.5 -135s28.5 -124.834 28.5 -201.501v-588h-246v551c0 84.667 -14.833 149.834 -44.5 195.501s-74.167 68.5 -133.5 68.5c-40.667 0 -76.5 -12.5 -107.5 -37.5s-53.833 -56.833 -68.5 -95.5c-8.66699 -24.667 -13 -52.667 -13 -84v-598
h-245v578c0 72 -14.667 129.5 -44 172.5s-72.333 64.5 -129 64.5c-43.333 0 -81 -13.833 -113 -41.5s-55 -60.834 -69 -99.501c-8 -26.667 -12 -54.667 -12 -84v-590h-246z" />
    <glyph glyph-name="n" unicode="n" horiz-adv-x="1171" 
d="M135 0l0.00292969 699.997c0 83.333 -2.66699 182.333 -8 297h219l12 -149h7c26.667 46 67.5 86.167 122.5 120.5s120.5 51.5 196.5 51.5c46 0 89.167 -7.83301 129.5 -23.5s77.666 -39.5 111.999 -71.5s61.666 -76.667 81.999 -134s30.5 -123.666 30.5 -198.999v-592
h-252v563c0 76.667 -15.333 137.834 -46 183.501s-78.667 68.5 -144 68.5c-47.333 0 -88.333 -14.167 -123 -42.5s-59.334 -63.166 -74.001 -104.499c-8 -20 -12 -46.667 -12 -80v-588h-252z" />
    <glyph glyph-name="o" unicode="o" horiz-adv-x="1155" 
d="M588 1020c148 0 267.499 -47.332 358.499 -141.999s136.5 -218 136.5 -370c0 -88 -14.667 -166.833 -44 -236.5s-68.5 -125.5 -117.5 -167.5s-103.333 -73.667 -163 -95s-122.167 -32 -187.5 -32c-144 0 -263.167 46.5 -357.5 139.5s-141.5 218.167 -141.5 375.5
c0 161.333 47.833 289.666 143.5 384.999s219.834 143 372.501 143zM581.999 838.001c-42.667 0 -80.5 -9.83105 -113.5 -29.498s-59.167 -46 -78.5 -79s-33.833 -69 -43.5 -108s-14.5 -80.167 -14.5 -123.5c0 -98 22.667 -178.833 68 -242.5s105.333 -95.5 180 -95.5
c71.333 0 129.666 31.667 174.999 95s68 145.666 68 246.999c0 40.667 -4.66699 80.167 -14 118.5s-23.166 74.166 -41.499 107.499s-43.5 60 -75.5 80s-68.667 30 -110 30z" />
    <glyph glyph-name="p" unicode="p" horiz-adv-x="1198" 
d="M135 -406l-0.000976562 1072c0 95.333 -2.66699 205.666 -8 330.999h221l12 -153h5c76.667 117.333 190.667 176 342 176c57.333 0 111.333 -12 162 -36s95 -57.667 133 -101s68.167 -97 90.5 -161s33.5 -134 33.5 -210c0 -86.667 -12.833 -164.834 -38.5 -234.501
s-60.167 -125.834 -103.5 -168.501s-91.666 -75.334 -144.999 -98.001s-109 -34 -167 -34c-61.333 0 -117 12.167 -167 36.5s-88 56.833 -114 97.5h-4v-517h-252zM386.999 571.004v-153c0 -23.333 2 -46.666 6 -69.999c14 -52 41.167 -94.333 81.5 -127s87.5 -49 141.5 -49
c79.333 0 141.5 30 186.5 90s67.5 140 67.5 240c0 92 -21.667 168.167 -65 228.5s-104 90.5 -182 90.5c-52.667 0 -100.5 -17.333 -143.5 -52s-71.167 -79.334 -84.5 -134.001c-5.33301 -26.667 -8 -48 -8 -64z" />
    <glyph glyph-name="q" unicode="q" horiz-adv-x="1189" 
d="M803 -406l0.00195312 543.001h-4c-30.667 -50 -72.334 -89.167 -125.001 -117.5s-114.334 -42.5 -185.001 -42.5c-116 0 -214.5 46.5 -295.5 139.5s-121.5 215.167 -121.5 366.5c0 87.333 13.167 166.333 39.5 237s61 127.167 104 169.5s90.5 74.666 142.5 96.999
s105.333 33.5 160 33.5c67.333 0 125.833 -13.667 175.5 -41s88.167 -65 115.5 -113l4 -2l6 133h244c-5.33301 -120 -8 -216 -8 -288v-1115h-252zM803.002 420.001v166.001c0 22.667 -2 43 -6 61c-12 49.333 -37.333 90.666 -76 123.999s-85 50 -139 50
c-80 0 -142.333 -30 -187 -90s-67 -138.333 -67 -235c0 -94 21.667 -170.833 65 -230.5s104 -89.5 182 -89.5c50.667 0 95.667 15.167 135 45.5s66.333 70.5 81 120.5c8 23.333 12 49.333 12 78z" />
    <glyph glyph-name="r" unicode="r" horiz-adv-x="729" 
d="M135 0l0.00195312 676c0 136 -2.66699 243 -8 321h217l10 -188h6c23.333 66.667 60.666 118.5 111.999 155.5s105.666 55.5 162.999 55.5c19.333 0 39 -2 59 -6v-236c-22.667 4 -48 6 -76 6c-58.667 0 -108 -17.167 -148 -51.5s-65.667 -80.5 -77 -138.5
c-4 -22.667 -6 -48 -6 -76v-518h-252z" />
    <glyph glyph-name="s" unicode="s" horiz-adv-x="854" 
d="M74 49l50.999 184.001c30 -18.667 69.167 -35.5 117.5 -50.5s93.833 -22.5 136.5 -22.5c53.333 0 93.333 10 120 30s40 47.333 40 82c0 33.333 -11.667 60.333 -35 81s-66.333 42.334 -129 65.001c-94 32 -163.333 73 -208 123s-67 106 -67 168
c0 90 34.5 164.333 103.5 223s160.167 88 273.5 88c107.333 0 196 -19.667 266 -59l-51 -177c-24.667 15.333 -56 28.833 -94 40.5s-77 17.5 -117 17.5c-44 0 -78.167 -10 -102.5 -30s-36.5 -45.667 -36.5 -77c0 -30.667 12.333 -55.334 37 -74.001
s70.334 -40.334 137.001 -65.001c91.333 -31.333 158.333 -71.333 201 -120s64.334 -109.667 65.001 -183c0 -94 -35.333 -169.667 -106 -227s-170.334 -86 -299.001 -86c-118.667 0 -219.667 23 -303 69z" />
    <glyph glyph-name="t" unicode="t" horiz-adv-x="718" 
d="M176 1184l247.998 69v-256h240v-188h-240v-440c0 -63.333 9.83301 -110 29.5 -140s52.834 -45 99.501 -45c38.667 0 71.334 3.66699 98.001 11l4 -191c-47.333 -18 -108 -27 -182 -27c-94 0 -166.333 27.333 -217 82c-53.333 55.333 -80 149 -80 281v469h-141v188h141
v187z" />
    <glyph glyph-name="u" unicode="u" horiz-adv-x="1165" 
d="M1028 997v-697.998c0 -90 2.66699 -189.667 8 -299h-219l-12 150h-6c-12 -20 -26.667 -39 -44 -57s-38.833 -36.333 -64.5 -55s-57 -33.5 -94 -44.5s-76.833 -16.5 -119.5 -16.5c-47.333 0 -90.833 7.66699 -130.5 23s-76.167 39.166 -109.5 71.499
s-59.333 77.5 -78 135.5s-28 126.333 -28 205v585h252v-542c0 -182 62 -273 186 -273c47.333 0 87.833 13.167 121.5 39.5s57.5 58.166 71.5 95.499c9.33301 18.667 14 44.667 14 78v602h252z" />
    <glyph glyph-name="v" unicode="v" horiz-adv-x="1040" 
d="M23 997l271.999 -0.000976562l162 -505c24 -73.333 46.333 -156.666 67 -249.999h6c12.667 58 35.334 141.333 68.001 250l160 505h264l-381 -997h-248z" />
    <glyph glyph-name="w" unicode="w" horiz-adv-x="1533" 
d="M29 997h257.999l102 -452c28 -118 50 -226 66 -324h4c4.66699 25.333 10.667 53.333 18 84l19 77l22.5 85l20.5 76l131 454h204l125 -442c31.333 -118 58 -229.333 80 -334h4c9.33301 72 31.333 183.333 66 334l111 442h247l-313 -997h-233l-119 406
c-28 94.667 -53.333 201 -76 319h-4c-21.333 -112.667 -46.666 -219 -75.999 -319l-127 -406h-235z" />
    <glyph glyph-name="x" unicode="x" horiz-adv-x="1011" 
d="M23 997l280.001 -0.000976562l119 -188c18.667 -30 48.667 -81.333 90 -154h4c35.333 66.667 64.666 119.334 87.999 158.001l111 184h274l-334 -479l340 -518h-286l-121 199c-22 36 -52 89.667 -90 161h-4l-28 -52l-33.5 -58.5l-29.5 -50.5l-114 -199h-279l346 508z" />
    <glyph glyph-name="y" unicode="y" horiz-adv-x="1024" 
d="M16 997l279 0.000976562l178 -534c23.333 -71.333 42.333 -135.666 57 -192.999h7c24 94.667 41.667 159.667 53 195l155 532h269l-250 -680c-68 -184.667 -127.833 -324.834 -179.5 -420.501s-107.167 -169.167 -166.5 -220.5c-84.667 -72.667 -172.667 -115 -264 -127
l-58 211c48.667 11.333 97.334 34.666 146.001 69.999c25.333 16 50.666 38 75.999 66s46.333 58.667 63 92c9.33301 16.667 14 31.667 14 45c0 12.667 -4 29 -12 49z" />
    <glyph glyph-name="z" unicode="z" horiz-adv-x="921" 
d="M41 0l-0.000976562 145.001l375 480l145 168v4h-483v200h790v-153l-364 -469c-65.333 -78.667 -114.666 -135.334 -147.999 -170.001v-4h525v-201h-840z" />
    <glyph glyph-name="braceleft" unicode="{" horiz-adv-x="616" 
d="M59 522l0.000976562 132.999c33.333 0.666992 61.333 5.33398 84 14.001s39.167 20.667 49.5 36s17.333 30.333 21 45s5.5 31.667 5.5 51c0 37.333 -4 92.666 -12 165.999c-9.33301 64 -14 119.333 -14 166c0 92 26.833 160.333 80.5 205s128.5 67 224.5 67h57v-145h-37
c-50 -0.666992 -86 -14.5 -108 -41.5s-33 -66.5 -33 -118.5c0 -24.667 4 -68.334 12 -131.001c8 -60 12 -108.667 12 -146c0.666992 -70 -12.333 -122.667 -39 -158s-67.334 -59.666 -122.001 -72.999v-4c54 -13.333 94.5 -38.166 121.5 -74.499s40.167 -88.833 39.5 -157.5
c0 -39.333 -4 -89 -12 -149s-12 -103 -12 -129c0 -52.667 11.167 -92.667 33.5 -120s58.833 -41.333 109.5 -42h35v-145h-59c-202 0 -303 93.333 -303 280c0 45.333 4.66699 100 14 164c8 73.333 12 127.333 12 162c0 18 -1.83301 34 -5.5 48s-10.5 29 -20.5 45
s-26.333 28.5 -49 37.5s-51 13.833 -85 14.5z" />
    <glyph glyph-name="bar" unicode="|" horiz-adv-x="538" 
d="M178 1536h182v-2048h-182v2048z" />
    <glyph glyph-name="braceright" unicode="}" horiz-adv-x="616" 
d="M555 655l-0.000976562 -133c-106.667 -1.33301 -160 -49.666 -160 -144.999c0 -39.333 5 -93.333 15 -162c8 -73.333 12 -128 12 -164c0 -186.667 -101 -280 -303 -280h-60v145h35c50.667 0.666992 87.334 14.667 110.001 42s34 67.333 34 120
c0 21.333 -4.33301 64.333 -13 129c-8 60 -12 109.667 -12 149c-0.666992 68.667 12.5 121.167 39.5 157.5s67.833 61.166 122.5 74.499v4c-54.667 13.333 -95.5 37.833 -122.5 73.5s-40.167 88.167 -39.5 157.5c0 37.333 4 86 12 146c8.66699 68 13 111.667 13 131
c0 52 -11.167 91.5 -33.5 118.5s-58.5 40.833 -108.5 41.5h-37v145h58c96 0 170.833 -22.333 224.5 -67s80.5 -113 80.5 -205c0 -37.333 -4 -92.666 -12 -165.999c-10 -68.667 -15 -124 -15 -166c0 -19.333 1.83301 -36.333 5.5 -51s10.5 -29.667 20.5 -45
s26.333 -27.333 49 -36s51 -13.334 85 -14.001z" />
    <glyph glyph-name="asciitilde" unicode="~" horiz-adv-x="1220" 
d="M256 412l-162 0.00195312c-2 116 21.333 203 70 261s114 87 196 87c43.333 0 84.333 -6.83301 123 -20.5s94 -38.167 166 -73.5c57.333 -30.667 101.5 -52.334 132.5 -65.001s60.5 -19 88.5 -19c60.667 0 93 56.667 97 170h161c2.66699 -64 -2.33301 -119.333 -15 -166
s-31.334 -83.334 -56.001 -110.001s-52.334 -46.167 -83.001 -58.5s-64.667 -18.5 -102 -18.5c-42 0 -83.667 7.16699 -125 21.5s-96.333 38.833 -165 73.5c-81.333 44 -135.666 70.333 -162.999 79c-19.333 6 -37.333 9 -54 9c-67.333 0 -103.666 -56.667 -108.999 -170z
" />
    <glyph glyph-name="uni00A0" unicode="&#xa0;" horiz-adv-x="423" 
 />
    <glyph glyph-name="exclamdown" unicode="&#xa1;" horiz-adv-x="514" 
d="M391 -395h-266l39 948h190zM260 1006c44.667 0 81.168 -15.167 109.501 -45.5s42.5 -68.5 42.5 -114.5c0 -46.667 -14.333 -85 -43 -115s-66.334 -45 -113.001 -45c-44.667 0 -81.5 15.167 -110.5 45.5s-43.5 68.5 -43.5 114.5c0 46.667 14.667 85 44 115
s67.333 45 114 45z" />
    <glyph glyph-name="cent" unicode="&#xa2;" horiz-adv-x="1097" 
d="M729 -27l-167.998 -0.000976562v205c-122 14.667 -222.333 64.667 -301 150c-76.667 87.333 -115 201.333 -115 342c0 129.333 37.167 240.833 111.5 334.5s175.833 151.5 304.5 173.5v200h168v-192c76 -2 145 -17 207 -45l-45 -189c-53.333 28.667 -119 43 -197 43
c-88.667 0 -159.667 -29.667 -213 -89s-80 -134.666 -80 -225.999c0 -98 27.667 -174.667 83 -230s124.666 -83 207.999 -83c81.333 0 153.666 14.333 216.999 43l35 -183c-58 -29.333 -129.667 -47 -215 -53v-201z" />
    <glyph glyph-name="sterling" unicode="&#xa3;" horiz-adv-x="1097" 
d="M1006 0l-896.998 0.000976562v137c64.667 30.667 119 75.5 163 134.5s66 123.5 66 193.5c0 46 -2.66699 82 -8 108h-203v175h174c-12 82.667 -18 146 -18 190c0 125.333 40 226 120 302s184 114 312 114c98 0 175 -16.333 231 -49l-45 -191
c-50.667 26 -109.334 39 -176.001 39c-72 0 -124.5 -20.5 -157.5 -61.5s-49.5 -94.833 -49.5 -161.5c0 -58.667 7.66699 -119.334 23 -182.001h286v-175h-264c2.66699 -77.333 -2 -138 -14 -182c-18.667 -66 -58.334 -126 -119.001 -180v-4h576v-207z" />
    <glyph glyph-name="currency" unicode="&#xa4;" horiz-adv-x="1097" 
d="M551 1112c94 0 172.333 -25.999 235 -77.999l152 164l117 -119l-170 -153c44.667 -67.333 67 -147.333 67 -240c0 -98.667 -23.667 -182 -71 -250l163 -157l-114 -117l-146 170c-30.667 -26.667 -67.5 -47.334 -110.5 -62.001s-85.833 -22 -128.5 -22
s-85.667 7.16699 -129 21.5s-78.333 33.833 -105 58.5l-143 -166l-115 117l162 151c-50.667 68 -76 150.667 -76 248c0 94 25.333 176.667 76 248l-168 153l117 119l149 -166c62 53.333 141.333 80 238 80zM545 940.001c-62 0 -112.665 -24.502 -151.998 -73.502
s-59 -111.167 -59 -186.5c0 -42.667 6.5 -81.167 19.5 -115.5s30 -61.666 51 -81.999s43.5 -35.833 67.5 -46.5s48.333 -16 73 -16c57.333 0 107.166 22.333 149.499 67s63.5 110.334 63.5 197.001c0 72 -19.333 132.667 -58 182s-90.334 74 -155.001 74z" />
    <glyph glyph-name="yen" unicode="&#xa5;" horiz-adv-x="1097" 
d="M657 0h-237v342h-318v125h318v139h-318v125h254l-338 600h271l174 -370c26 -56.667 54 -125.667 84 -207h4l33 82c21.333 55.333 39 98.333 53 129l180 366h264l-356 -600h254v-125h-322v-139h322v-125h-322v-342z" />
    <glyph glyph-name="brokenbar" unicode="&#xa6;" horiz-adv-x="538" 
d="M178 356h182v-716h-182v716zM178 1380h182v-716h-182v716z" />
    <glyph glyph-name="section" unicode="&#xa7;" horiz-adv-x="1110" 
d="M303 709c0 -35.333 15.332 -67.167 45.999 -95.5s80.334 -54.5 149.001 -78.5c131.333 -46 211 -77 239 -93c20.667 14.667 37.167 33.5 49.5 56.5s18.5 47.167 18.5 72.5c0 72 -53.333 128 -160 168l-65.5 23.5l-74 27l-63.5 24.5c-23.333 9.33301 -42.333 18 -57 26
c-54.667 -34 -82 -77.667 -82 -131zM906.999 1337l-46.999 -156.996c-72 40.667 -158 61 -258 61c-60 0 -107.667 -11.167 -143 -33.5s-53 -52.166 -53 -89.499c0 -38 18.167 -68.667 54.5 -92s96.5 -48 180.5 -74c58 -18.667 106.667 -36.834 146 -54.501
s76.833 -39.834 112.5 -66.501s62.334 -58.5 80.001 -95.5s26.5 -79.5 26.5 -127.5c0 -100.667 -47.333 -183.334 -142 -248.001c22.667 -18.667 42.667 -44.334 60 -77.001s26 -69 26 -109c0 -44.667 -8.66699 -85.334 -26 -122.001s-40.333 -66.834 -69 -90.501
s-61.834 -43.5 -99.501 -59.5s-75.667 -27.5 -114 -34.5s-77.5 -10.5 -117.5 -10.5c-148 0 -266.667 29.333 -356 88l55 155c34 -21.333 77.5 -40.666 130.5 -57.999s107.167 -26 162.5 -26c61.333 0 110.833 11.667 148.5 35s56.5 56.333 56.5 99
c0 39.333 -17 71.833 -51 97.5s-94.333 53.167 -181 82.5c-48 15.333 -89.167 30 -123.5 44s-69 31 -104 51s-63.167 41.167 -84.5 63.5s-38.833 49 -52.5 80s-20.5 64.833 -20.5 101.5c0 45.333 13.667 90 41 134s67.666 81 120.999 111
c-22 17.333 -40.833 42.833 -56.5 76.5s-23.5 68.5 -23.5 104.5c0 94.667 39.167 169.167 117.5 223.5s177.833 81.5 298.5 81.5c118 0 219.667 -21.333 305 -64z" />
    <glyph glyph-name="dieresis" unicode="&#xa8;" 
d="M102 1153c-35.333 0 -65.001 12.167 -89.001 36.5s-36 53.833 -36 88.5c0 36 12.333 66.167 37 90.5s55.334 36.5 92.001 36.5c34 0 62.667 -12 86 -36s35 -54.333 35 -91c0 -34.667 -11.833 -64.167 -35.5 -88.5s-53.5 -36.5 -89.5 -36.5zM511.999 1153h-3.99902
c-34.667 0 -63.834 12.167 -87.501 36.5s-35.5 53.833 -35.5 88.5c0 36 12.167 66.167 36.5 90.5s54.5 36.5 90.5 36.5c35.333 0 64.666 -12 87.999 -36s35 -54.333 35 -91c0 -34.667 -11.667 -64.167 -35 -88.5s-52.666 -36.5 -87.999 -36.5z" />
    <glyph glyph-name="copyright" unicode="&#xa9;" horiz-adv-x="1386" 
d="M698 1327c113.333 0 217.666 -28.166 312.999 -84.499s170.5 -133 225.5 -230s82.5 -202.5 82.5 -316.5c0 -115.333 -27.5 -221.666 -82.5 -318.999s-130.333 -174.333 -226 -231s-200.5 -85 -314.5 -85c-114.667 0 -220.167 28.333 -316.5 85s-172.333 133.667 -228 231
s-83.5 203.666 -83.5 318.999c0 85.333 16.5 167 49.5 245s77.5 145.167 133.5 201.5s122.833 101.166 200.5 134.499s159.834 50 246.501 50zM692 1225c-92 0 -176.665 -23.6699 -253.998 -71.0029s-138.333 -111.833 -183 -193.5s-67 -171.167 -67 -268.5
c0 -147.333 49 -272.166 147 -374.499s217.667 -153.5 359 -153.5c92 -0.666992 176.667 22.333 254 69s138.333 110.834 183 192.501s67 171.167 67 268.5c0 96.667 -22.333 185.834 -67 267.501s-105.834 146 -183.501 193s-162.834 70.5 -255.501 70.5zM971.002 1010
l-27 -99c-18.667 10.667 -46.167 21.167 -82.5 31.5s-75.166 15.5 -116.499 15.5c-84.667 0 -150.5 -24.167 -197.5 -72.5s-70.5 -113.5 -70.5 -195.5c0 -78.667 24.333 -143.334 73 -194.001s114.667 -76 198 -76c84.667 0 152.667 17 204 51l29 -92
c-64.667 -44 -149.334 -66 -254.001 -66c-116.667 0 -208.667 34.833 -276 104.5s-101 158.5 -101 266.5c0 112.667 38.667 204.334 116 275.001s170.333 106 279 106c48 0 94 -5.83301 138 -17.5s73.333 -24.167 88 -37.5z" />
    <glyph glyph-name="ordfeminine" unicode="&#xaa;" horiz-adv-x="743" 
d="M664 545l-160.003 0.000976562l-12 76h-5c-54.667 -57.333 -122.667 -86 -204 -86c-66 0 -118.333 18.667 -157 56s-58 84.666 -58 141.999c0 76.667 36 135.667 108 177s171.667 61 299 59v16c0 8.66699 -1.66699 17.667 -5 27s-9.16602 20 -17.499 32
s-22.5 21.833 -42.5 29.5s-44 11.5 -72 11.5c-72.667 0 -134 -17.667 -184 -53l-37 113c68 43.333 152.667 65 254 65c52 0 96.833 -7.66699 134.5 -23s66.834 -36.5 87.501 -63.5s35.834 -57 45.501 -90s14.5 -69.5 14.5 -109.5v-219c0 -54 3.66699 -107.333 11 -160z
M478.997 772.001v89.998c-42.667 0.666992 -80.834 -2.16602 -114.501 -8.49902s-62.167 -18.666 -85.5 -36.999s-35 -42.166 -35 -71.499c0 -26.667 9.83301 -48.334 29.5 -65.001s43.834 -25 72.501 -25c24.667 0 48 6.5 70 19.5s38.333 29.167 49 48.5
c9.33301 16.667 14 33 14 49z" />
    <glyph glyph-name="guillemotleft" unicode="&#xab;" horiz-adv-x="909" 
d="M492 901l-256 -385l258 -383h-187l-252 383l252 385h185zM862 901l-258 -385l258 -383h-184l-252 383l252 385h184z" />
    <glyph glyph-name="logicalnot" unicode="&#xac;" horiz-adv-x="1220" 
d="M82 844h1057v-613h-168v453h-889v160z" />
    <glyph glyph-name="uni00AD" unicode="&#xad;" horiz-adv-x="595" 
d="M61 633h523v-174h-523v174z" />
    <glyph glyph-name="registered" unicode="&#xae;" horiz-adv-x="903" 
d="M403 1010l-0.000976562 -124.999h-90v329c38.667 8.66699 84.667 13 138 13c55.333 0 96 -9 122 -27c23.333 -14 35 -37.333 35 -70c0 -18 -6.5 -33.833 -19.5 -47.5s-30.167 -23.5 -51.5 -29.5v-4c32 -10.667 53 -38.667 63 -84c8.66699 -39.333 16.334 -66 23.001 -80
h-99c-6 7.33301 -14 32.666 -24 75.999c-5.33301 32.667 -26 49 -62 49h-35zM405.999 1161v-88h32c46.667 0 70 15 70 45s-21.333 45 -64 45c-6 0 -13.333 -0.333008 -22 -1s-14 -1 -16 -1zM454.999 1401c98 0 181.167 -33.5 249.5 -100.5s102.5 -148.167 102.5 -243.5
c0 -97.333 -34.167 -179.666 -102.5 -246.999s-152.166 -101 -251.499 -101c-98.667 0 -182.834 33.667 -252.501 101s-104.5 149.666 -104.5 246.999c0 95.333 35 176.5 105 243.5s154.667 100.5 254 100.5zM448.999 1321c-71.333 0 -131.501 -25.667 -180.501 -77
s-73.5 -114.333 -73.5 -189c0 -74 24.833 -137 74.5 -189s110.834 -78 183.501 -78c72.667 -0.666992 133.5 25 182.5 77s73.5 115.333 73.5 190c0 75.333 -24.5 138.5 -73.5 189.5s-111.167 76.5 -186.5 76.5z" />
    <glyph glyph-name="macron" unicode="&#xaf;" 
d="M63 1341h490v-145h-490v145z" />
    <glyph glyph-name="degree" unicode="&#xb0;" horiz-adv-x="694" 
d="M352 1405c85.333 0 155.168 -27.832 209.501 -83.499s81.5 -122.834 81.5 -201.501c0 -84 -29.333 -153.5 -88 -208.5s-127.667 -82.5 -207 -82.5c-84.667 0 -154.667 27.333 -210 82s-83 121.667 -83 201c0 82.667 28.667 152.167 86 208.5s127.666 84.5 210.999 84.5z
M346.002 1284c-45.333 0 -81.501 -17.001 -108.501 -51.001s-40.5 -74.333 -40.5 -121c0 -45.333 14.5 -83.666 43.5 -114.999s64.833 -47 107.5 -47c44.667 0 81.5 16 110.5 48s43.5 72 43.5 120c0 43.333 -13.667 81.833 -41 115.5s-65.666 50.5 -114.999 50.5z" />
    <glyph glyph-name="plusminus" unicode="&#xb1;" horiz-adv-x="1220" 
d="M526 1178h170v-373h445v-160h-445v-383h-170v383h-444v160h444v373zM82 160h1059v-160h-1059v160z" />
    <glyph glyph-name="twosuperior" unicode="&#xb2;" horiz-adv-x="681" 
d="M27 907l-0.00292969 97l127 116l108.5 100c25.667 24.667 50.334 50.834 74.001 78.501s40.334 52.667 50.001 75s14.5 45.166 14.5 68.499c0 35.333 -11.667 64 -35 86s-56.666 33 -99.999 33c-59.333 0 -117.333 -20 -174 -60l-55 127c32.667 25.333 73.5 46 122.5 62
s100.833 24 155.5 24c94.667 0 167.167 -22.833 217.5 -68.5s75.5 -102.5 75.5 -170.5c0 -29.333 -4.83301 -58 -14.5 -86s-20.834 -52.667 -33.501 -74s-31.667 -45.5 -57 -72.5s-47.666 -49.167 -66.999 -66.5l-80 -70l-55 -47v-4h322v-148h-596z" />
    <glyph glyph-name="threesuperior" unicode="&#xb3;" horiz-adv-x="671" 
d="M94 1524l-40.9961 127.001c28.667 18 66.667 33 114 45s97.333 18 150 18c88.667 0 156.667 -18.833 204 -56.5s71 -84.167 71 -139.5c0 -42 -14.833 -79.333 -44.5 -112s-68.834 -56.334 -117.501 -71.001v-4c57.333 -7.33301 104.166 -28.333 140.499 -63
s54.5 -77.667 54.5 -129c0 -70 -31.667 -127.833 -95 -173.5s-148 -68.5 -254 -68.5c-52 0 -101.167 5.33301 -147.5 16s-83.166 24.334 -110.499 41.001l43 133c21.333 -13.333 50.666 -25.5 87.999 -36.5s73 -16.5 107 -16.5c49.333 0 88.666 11.167 117.999 33.5
s44 48.833 44 79.5c0 39.333 -19 69.333 -57 90s-84 31 -138 31h-59v118h55c44 0 83.667 8.66699 119 26s53 43.666 53 78.999c0 24.667 -9.83301 45.167 -29.5 61.5s-48.834 24.5 -87.501 24.5c-66 0 -126 -17.667 -180 -53z" />
    <glyph glyph-name="acute" unicode="&#xb4;" 
d="M356 1430h246l-250 -304h-174z" />
    <glyph glyph-name="mu" unicode="&#xb5;" horiz-adv-x="1167" 
d="M813 145h-8c-20 -43.333 -53.167 -81 -99.5 -113s-101.166 -48 -164.499 -48c-78.667 0 -137.334 27.333 -176.001 82v-103c0 -180.667 7.33301 -303.667 22 -369h-223c-19.333 53.333 -29 175 -29 365v1038h252v-573c0 -74.667 15.167 -134 45.5 -178
s76.5 -66 138.5 -66c45.333 0 85.666 13.667 120.999 41s60.666 58.666 75.999 93.999c8 22.667 12 49.334 12 80.001v602h252v-696c0 -47.333 6.66699 -80.833 20 -100.5s36 -30.5 68 -32.5l-16 -176c-22.667 -10 -52 -15 -88 -15c-53.333 0 -97.666 14 -132.999 42
s-58.666 70 -69.999 126z" />
    <glyph glyph-name="paragraph" unicode="&#xb6;" horiz-adv-x="1083" 
d="M610 -98h-166v639h-14c-36 0 -74 8 -114 24s-78.667 39.167 -116 69.5s-68.5 71.166 -93.5 122.499s-37.833 108.333 -38.5 171c-0.666992 38 2.5 74.333 9.5 109s18.5 69.667 34.5 105s39 67.333 69 96s66 54.334 108 77.001s94 40.167 156 52.5s131.333 18.5 208 18.5
c123.333 0 213 -6.66699 269 -20v-1464h-166v1323h-146v-1323z" />
    <glyph glyph-name="periodcentered" unicode="&#xb7;" horiz-adv-x="483" 
d="M240 373c-44.667 0 -81.499 15.501 -110.499 46.501s-43.5 69.5 -43.5 115.5c0 46.667 14.667 85.167 44 115.5s66.666 45.5 111.999 45.5c46 0 83.333 -14.833 112 -44.5s43 -68.5 43 -116.5c0 -46.667 -14.333 -85.334 -43 -116.001s-66.667 -46 -114 -46z" />
    <glyph glyph-name="cedilla" unicode="&#xb8;" 
d="M262 6l141 -0.00195312l-59 -102c40 -5.33301 74.167 -21.166 102.5 -47.499s42.5 -59.166 42.5 -98.499c0 -59.333 -21.833 -102.833 -65.5 -130.5s-99.5 -41.5 -167.5 -41.5c-62 0 -113.333 13 -154 39l37 101c40 -20.667 77 -31 111 -31c53.333 0 80 19 80 57
c0 45.333 -53.333 72 -160 80z" />
    <glyph glyph-name="onesuperior" unicode="&#xb9;" horiz-adv-x="563" 
d="M428 907h-197v635h-2l-155 -72l-29 142l211 94h172v-799z" />
    <glyph glyph-name="ordmasculine" unicode="&#xba;" horiz-adv-x="761" 
d="M385 1210c100.667 0 181.5 -31 242.5 -93s91.5 -141.333 91.5 -238c-0.666992 -56.667 -10.667 -107.5 -30 -152.5s-45.166 -81.167 -77.499 -108.5s-68.333 -48 -108 -62s-81.167 -21 -124.5 -21c-96 0 -176 30.333 -240 91s-96 140.667 -96 240
c0 103.333 32.167 186.5 96.5 249.5s146.166 94.5 245.499 94.5zM377 1081c-48.667 0 -86.168 -21.667 -112.501 -65s-39.5 -92 -39.5 -146c0 -58.667 14.833 -107.667 44.5 -147s66.834 -59 111.501 -59c46 0 83.167 19.333 111.5 58s42.5 89.334 42.5 152.001
c0 32.667 -5.16699 64.167 -15.5 94.5s-28 56.666 -53 78.999s-54.833 33.5 -89.5 33.5z" />
    <glyph glyph-name="guillemotright" unicode="&#xbb;" horiz-adv-x="909" 
d="M305 516l-258 385h182l254 -385l-254 -383h-182zM670 516l-258 385h184l254 -385l-254 -383h-182z" />
    <glyph glyph-name="onequarter" unicode="&#xbc;" horiz-adv-x="1636" 
d="M463 545h-197v635h-2l-155 -72l-29 141l211 94h172v-798zM467 -23h-145l765 1377h146zM1448 0h-182v197h-406v106l371 504h217v-481h115v-129h-115v-197zM1266 326v190c0 36.667 2.66699 83.667 8 141h-6c-29.333 -55.333 -53.333 -96 -72 -122l-152 -207l5 -2h217z" />
    <glyph glyph-name="onehalf" unicode="&#xbd;" horiz-adv-x="1636" 
d="M436 545h-196v635h-2l-156 -72l-29 141l211 94h172v-798zM424 -23h-145l763 1377h144zM950 0v98.001l129 115c93.333 85.333 157.666 149.666 192.999 192.999s53 87 53 131c0 35.333 -11.667 63.833 -35 85.5s-56.666 32.5 -99.999 32.5
c-60.667 0 -118.667 -19.667 -174 -59l-53 127c32.667 25.333 73.167 46 121.5 62s99.833 24 154.5 24c94.667 0 167.167 -23 217.5 -69s75.5 -103 75.5 -171c0 -36 -6 -70 -18 -102s-31.667 -64.167 -59 -96.5s-52.5 -59.333 -75.5 -81s-56.167 -51.167 -99.5 -88.5
l-55 -49v-5h321v-147h-596z" />
    <glyph glyph-name="threequarters" unicode="&#xbe;" horiz-adv-x="1636" 
d="M135 1165l-40.999 122.998c28.667 18.667 66.334 34.334 113.001 47.001s96.334 19 149.001 19c89.333 0 157.833 -18.833 205.5 -56.5s71.5 -84.5 71.5 -140.5c0 -42 -14.833 -79.167 -44.5 -111.5s-69.5 -56.5 -119.5 -72.5v-4
c57.333 -7.33301 104.166 -28.5 140.499 -63.5s54.5 -78.167 54.5 -129.5c0 -70 -31.5 -127.667 -94.5 -173s-147.833 -68 -254.5 -68c-52 0 -101.167 5.33301 -147.5 16s-83.166 24.334 -110.499 41.001l43 133c21.333 -13.333 50.666 -25.5 87.999 -36.5
s73 -16.5 107 -16.5c49.333 0 88.666 11.167 117.999 33.5s44 48.5 44 78.5c0 40 -18.833 70.167 -56.5 90.5s-83.834 31.166 -138.501 32.499h-59v119h57c44 0 83.667 8.5 119 25.5s53 43.167 53 78.5c0 24.667 -10 45.334 -30 62.001s-49.667 25 -89 25
c-58 0 -117.333 -17.333 -178 -52zM539.001 -23.002h-146l764 1377h146zM1468 -0.00195312h-182v197h-405v106l370 504h217v-481h115v-129h-115v-197zM1286 325.998v190c0 36.667 2.66699 83.667 8 141h-6c-31.333 -59.333 -54.333 -100 -69 -122l-154 -207l4 -2h217z" />
    <glyph glyph-name="questiondown" unicode="&#xbf;" horiz-adv-x="876" 
d="M500 1006c44.667 0 81.333 -15.167 110 -45.5s43 -68.5 43 -114.5c0 -46.667 -14.167 -85 -42.5 -115s-65.833 -45 -112.5 -45c-46 0 -83.5 15.167 -112.5 45.5s-43.5 68.5 -43.5 114.5c0 46.667 14.667 85 44 115s67.333 45 114 45zM382.999 561l220.999 0.000976562
l4 -53c8.66699 -114 -33 -226 -125 -336c-43.333 -51.333 -75.666 -95.833 -96.999 -133.5s-32 -75.167 -32 -112.5c0 -44 14.333 -79 43 -105s71 -39.333 127 -40c35.333 0 71.666 5.5 108.999 16.5s69.333 25.833 96 44.5l59 -180c-38.667 -24 -86.167 -44 -142.5 -60
s-115.166 -24 -176.499 -24c-120.667 0 -212.667 29.833 -276 89.5s-95 133.5 -95 221.5c0 36 4.5 70 13.5 102s23.5 63.667 43.5 95s37.667 56.666 53 75.999s37.333 45.333 66 78c76.667 88 113 180.667 109 278v43z" />
    <glyph glyph-name="Agrave" unicode="&#xc0;" horiz-adv-x="1302" 
d="M858 391h-436l-119 -391h-260l442 1380h322l448 -1380h-272zM463 582h354l-108 340c-16.667 51.333 -40 137.333 -70 258h-4c-34.667 -139.333 -56.667 -225.333 -66 -258zM319 1700h279l180 -244h-203z" />
    <glyph glyph-name="Aacute" unicode="&#xc1;" horiz-adv-x="1302" 
d="M858 391h-436l-119 -391h-260l442 1380h322l448 -1380h-272zM463 582h354l-108 340c-16.667 51.333 -40 137.333 -70 258h-4c-34.667 -139.333 -56.667 -225.333 -66 -258zM700 1700h279l-256 -246h-203z" />
    <glyph glyph-name="Acircumflex" unicode="&#xc2;" horiz-adv-x="1302" 
d="M858 391h-436l-119 -391h-260l442 1380h322l448 -1380h-272zM463 582h354l-108 340c-16.667 51.333 -40 137.333 -70 258h-4c-34.667 -139.333 -56.667 -225.333 -66 -258zM559 1698h191l211 -244h-189l-115 133h-4l-114 -133h-187z" />
    <glyph glyph-name="Atilde" unicode="&#xc3;" horiz-adv-x="1302" 
d="M860 391h-438l-119 -391h-260l442 1380h322l448 -1380h-270zM463 582h356l-110 340c-16.667 51.333 -40 137.333 -70 258h-4c-34.667 -139.333 -56.667 -225.333 -66 -258zM508 1464l-122.998 -0.000976562c-2 74.667 10.5 133 37.5 175s64.5 63 112.5 63
c38 0 80.333 -13.667 127 -41c45.333 -26 76.666 -39 93.999 -39s30.166 5.83301 38.499 17.5s13.833 33.834 16.5 66.501h121c4 -152.667 -46.667 -229 -152 -229c-42 0 -85 13 -129 39l-26 14l-24.5 13c-5 2.66699 -11.5 5.16699 -19.5 7.5s-15.333 3.5 -22 3.5
c-30 0 -47 -30 -51 -90z" />
    <glyph glyph-name="Adieresis" unicode="&#xc4;" horiz-adv-x="1302" 
d="M858 391h-436l-119 -391h-260l442 1380h322l448 -1380h-272zM463 582h354l-108 340c-16.667 51.333 -40 137.333 -70 258h-4c-34.667 -139.333 -56.667 -225.333 -66 -258zM455 1464c-34.667 0 -63.502 12.168 -86.502 36.501s-34.5 53.166 -34.5 86.499
c0 35.333 11.833 65 35.5 89s52.834 36 87.501 36c34 0 62.167 -11.833 84.5 -35.5s33.5 -53.5 33.5 -89.5c0 -34 -11.167 -63 -33.5 -87s-51.166 -36 -86.499 -36zM857.998 1464c-34 0 -62.332 12 -84.999 36s-34 53 -34 87c0 35.333 11.667 65 35 89s52.666 36 87.999 36
c34 0 62.333 -11.833 85 -35.5s34 -53.5 34 -89.5c0 -34 -11.5 -63 -34.5 -87s-52.5 -36 -88.5 -36z" />
    <glyph glyph-name="Aring" unicode="&#xc5;" horiz-adv-x="1302" 
d="M858 391h-436l-119 -391h-260l442 1380h322l448 -1380h-272zM463 582h354l-108 340c-16.667 51.333 -40 137.333 -70 258h-4c-34.667 -139.333 -56.667 -225.333 -66 -258zM653 1821c67.333 0 120.333 -18.3311 159 -54.998s58 -83.334 58 -140.001
c0 -54 -20.167 -99.167 -60.5 -135.5s-93.166 -54.5 -158.499 -54.5c-66.667 0 -120.5 18.333 -161.5 55s-61.5 81.667 -61.5 135c0 55.333 20.167 101.666 60.5 138.999s95.166 56 164.499 56zM645 1731c-27.333 0 -49.168 -10.5 -65.501 -31.5s-24.5 -45.5 -24.5 -73.5
c0 -25.333 8.66699 -48 26 -68s39.333 -30 66 -30c28.667 0 51.834 9.66699 69.501 29s26.5 43 26.5 71c0 28.667 -9 53 -27 73s-41.667 30 -71 30z" />
    <glyph glyph-name="AE" unicode="&#xc6;" horiz-adv-x="1703" 
d="M262 0h-260l606 1380h967v-206h-574l43 -361h519v-205h-488l51 -401h516v-207h-733l-53 426h-412zM522 629l305 0.000976562l-43 362c-12 92.667 -20 163 -24 211h-8c-24 -70.667 -50 -140.334 -78 -209.001z" />
    <glyph glyph-name="Ccedilla" unicode="&#xc7;" horiz-adv-x="1212" 
d="M1094 238l41.0029 -196.999c-32 -16 -77.833 -30 -137.5 -42s-127.167 -18.333 -202.5 -19l-43 -76c41.333 -8.66699 75.833 -26.834 103.5 -54.501s41.5 -62.834 41.5 -105.501c0 -61.333 -22.167 -106.666 -66.5 -135.999s-98.5 -44 -162.5 -44
c-65.333 0 -119.333 12.333 -162 37l37 112c30 -18.667 67.333 -28 112 -28c23.333 0 42.5 4.66699 57.5 14s22.5 23.666 22.5 42.999c0 43.333 -53.333 70 -160 80l82 166c-183.333 22.667 -326.666 94.5 -429.999 215.5s-155 277.833 -155 470.5
c0 111.333 18.667 213 56 305s89 168.833 155 230.5s144.167 109.334 234.5 143.001s188.166 50.5 293.499 50.5c75.333 0 142.166 -6.33301 200.499 -19s102.833 -27 133.5 -43l-55 -200c-76.667 35.333 -166.334 53 -269.001 53
c-144.667 0 -261.334 -44.167 -350.001 -132.5s-133 -213.5 -133 -375.5c0 -154 42.167 -275.5 126.5 -364.5s201.833 -133.5 352.5 -133.5c106.667 0 199 16.667 277 50z" />
    <glyph glyph-name="Egrave" unicode="&#xc8;" horiz-adv-x="1054" 
d="M918 817v-205h-521v-405h582v-207h-834v1380h803v-206h-551v-357h521zM233 1700h279l180 -244h-203z" />
    <glyph glyph-name="Eacute" unicode="&#xc9;" horiz-adv-x="1054" 
d="M918 817v-205h-521v-405h582v-207h-834v1380h803v-206h-551v-357h521zM604 1700h279l-256 -246h-203z" />
    <glyph glyph-name="Ecircumflex" unicode="&#xca;" horiz-adv-x="1054" 
d="M918 817v-205h-521v-405h582v-207h-834v1380h803v-206h-551v-357h521zM455 1698h190l211 -244h-188l-115 133h-4l-115 -133h-186z" />
    <glyph glyph-name="Edieresis" unicode="&#xcb;" horiz-adv-x="1054" 
d="M918 817v-205h-521v-405h582v-207h-834v1380h803v-206h-551v-357h521zM338 1466c-34.667 0 -63.501 12.168 -86.501 36.501s-34.5 53.166 -34.5 86.499c0 35.333 11.833 65 35.5 89s52.834 36 87.501 36c34 0 62.333 -11.833 85 -35.5s34 -53.5 34 -89.5
c0 -34 -11.333 -63 -34 -87s-51.667 -36 -87 -36zM742.999 1466c-34.667 0 -63.333 12 -86 36s-34 53 -34 87c0 35.333 11.667 65 35 89s52.333 36 87 36c34 0 62.333 -11.833 85 -35.5s34 -53.5 34 -89.5c0 -34 -11.333 -63 -34 -87s-51.667 -36 -87 -36z" />
    <glyph glyph-name="Igrave" unicode="&#xcc;" horiz-adv-x="540" 
d="M145 1380h252v-1380h-252v1380zM-53 1700h278l181 -244h-203z" />
    <glyph glyph-name="Iacute" unicode="&#xcd;" horiz-adv-x="540" 
d="M145 1380h252v-1380h-252v1380zM319 1700h279l-256 -246h-203z" />
    <glyph glyph-name="Icircumflex" unicode="&#xce;" horiz-adv-x="540" 
d="M145 1380h252v-1380h-252v1380zM174 1698h191l210 -244h-188l-115 133h-4l-114 -133h-187z" />
    <glyph glyph-name="Idieresis" unicode="&#xcf;" horiz-adv-x="540" 
d="M145 1380h252v-1380h-252v1380zM68 1466c-34.667 0 -63.502 12.168 -86.502 36.501s-34.5 53.166 -34.5 86.499c0 35.333 11.833 65 35.5 89s52.834 36 87.501 36c34 0 62.167 -11.833 84.5 -35.5s33.5 -53.5 33.5 -89.5c0 -34 -11.167 -63 -33.5 -87
s-51.166 -36 -86.499 -36zM470.998 1466c-34 0 -62.332 12 -84.999 36s-34 53 -34 87c0 35.333 11.667 65 35 89s52.666 36 87.999 36c34 0 62.333 -11.833 85 -35.5s34 -53.5 34 -89.5c0 -34 -11.5 -63 -34.5 -87s-52.5 -36 -88.5 -36z" />
    <glyph glyph-name="Eth" unicode="&#xd0;" horiz-adv-x="1411" 
d="M2 602l-0.000976562 199h156v567c136.667 19.333 270.334 29 401.001 29c249.333 0 437 -52.667 563 -158c144.667 -116.667 217 -288.667 217 -516c0 -236 -71.667 -420.333 -215 -553c-139.333 -125.333 -348 -188 -626 -188c-126 0 -239.333 6 -340 18v602h-156z
M726.999 801l-0.00195312 -199.001h-317v-416c23.333 -4 70.333 -6 141 -6c167.333 0 296.166 45.5 386.499 136.5s135.5 224.5 135.5 400.5c0.666992 156.667 -41.166 276.334 -125.499 359.001s-206.166 124 -365.499 124c-71.333 0 -128.666 -4.66699 -171.999 -14v-385
h317z" />
    <glyph glyph-name="Ntilde" unicode="&#xd1;" horiz-adv-x="1384" 
d="M377 0h-233.999v1380h289l356 -592c99.333 -170 178 -324 236 -462h4c-14.667 150 -22 341 -22 573v481h233v-1380h-262l-361 608c-102.667 176.667 -184.334 335 -245.001 475l-9 -2c10 -178 15 -373.667 15 -587v-494zM549.001 1464l-122.997 -0.000976562
c-2 75.333 10.5 133.833 37.5 175.5s64.167 62.5 111.5 62.5c36 0 78.333 -13.667 127 -41c45.333 -26 77 -39 95 -39c17.333 0 30.166 5.83301 38.499 17.5s13.833 33.834 16.5 66.501h121c4 -152.667 -46.667 -229 -152 -229c-40.667 0 -84.334 13 -131.001 39l-24.5 14
c-11.667 6.66699 -19.834 11 -24.501 13s-11 4.33301 -19 7s-15.333 4 -22 4c-30 0 -47 -30 -51 -90z" />
    <glyph glyph-name="Ograve" unicode="&#xd2;" horiz-adv-x="1441" 
d="M731 1405c98 0 187.502 -18.001 268.502 -54.001s148.333 -85.333 202 -148s95.167 -136.667 124.5 -222s44 -177.333 44 -276c0 -113.333 -16.5 -216.166 -49.5 -308.499s-78.833 -169 -137.5 -230s-128.334 -107.833 -209.001 -140.5s-168.334 -49 -263.001 -49
c-128 0 -240.5 30.5 -337.5 91.5s-171.167 144.667 -222.5 251s-77 226.5 -77 360.5c0 140.667 27.5 266 82.5 376s132.5 195.667 232.5 257s214 92 342 92zM723.002 1202c-60.667 0 -115.5 -13.499 -164.5 -40.499s-89.333 -64 -121 -111s-55.834 -101.5 -72.501 -163.5
s-25 -129 -25 -201c0 -95.333 14.833 -180.833 44.5 -256.5s73.834 -136.167 132.501 -181.5s127.334 -68 206.001 -68c79.333 0 148.166 23 206.499 69s102 107.667 131 185s43.5 164.666 43.5 261.999c0 89.333 -13.833 171.5 -41.5 246.5s-71 137 -130 186
s-128.833 73.5 -209.5 73.5zM395.002 1704h279l180 -244h-203z" />
    <glyph glyph-name="Oacute" unicode="&#xd3;" horiz-adv-x="1441" 
d="M731 1405c98 0 187.502 -18.001 268.502 -54.001s148.333 -85.333 202 -148s95.167 -136.667 124.5 -222s44 -177.333 44 -276c0 -113.333 -16.5 -216.166 -49.5 -308.499s-78.833 -169 -137.5 -230s-128.334 -107.833 -209.001 -140.5s-168.334 -49 -263.001 -49
c-128 0 -240.5 30.5 -337.5 91.5s-171.167 144.667 -222.5 251s-77 226.5 -77 360.5c0 140.667 27.5 266 82.5 376s132.5 195.667 232.5 257s214 92 342 92zM723.002 1202c-60.667 0 -115.5 -13.499 -164.5 -40.499s-89.333 -64 -121 -111s-55.834 -101.5 -72.501 -163.5
s-25 -129 -25 -201c0 -95.333 14.833 -180.833 44.5 -256.5s73.834 -136.167 132.501 -181.5s127.334 -68 206.001 -68c79.333 0 148.166 23 206.499 69s102 107.667 131 185s43.5 164.666 43.5 261.999c0 89.333 -13.833 171.5 -41.5 246.5s-71 137 -130 186
s-128.833 73.5 -209.5 73.5zM774.002 1704h279l-256 -246h-203z" />
    <glyph glyph-name="Ocircumflex" unicode="&#xd4;" horiz-adv-x="1441" 
d="M731 1405c98 0 187.502 -18.001 268.502 -54.001s148.333 -85.333 202 -148s95.167 -136.667 124.5 -222s44 -177.333 44 -276c0 -113.333 -16.5 -216.166 -49.5 -308.499s-78.833 -169 -137.5 -230s-128.334 -107.833 -209.001 -140.5s-168.334 -49 -263.001 -49
c-128 0 -240.5 30.5 -337.5 91.5s-171.167 144.667 -222.5 251s-77 226.5 -77 360.5c0 140.667 27.5 266 82.5 376s132.5 195.667 232.5 257s214 92 342 92zM723.002 1202c-60.667 0 -115.5 -13.499 -164.5 -40.499s-89.333 -64 -121 -111s-55.834 -101.5 -72.501 -163.5
s-25 -129 -25 -201c0 -95.333 14.833 -180.833 44.5 -256.5s73.834 -136.167 132.501 -181.5s127.334 -68 206.001 -68c79.333 0 148.166 23 206.499 69s102 107.667 131 185s43.5 164.666 43.5 261.999c0 89.333 -13.833 171.5 -41.5 246.5s-71 137 -130 186
s-128.833 73.5 -209.5 73.5zM625.002 1700h190l211 -244h-188l-115 133h-4l-115 -133h-186z" />
    <glyph glyph-name="Otilde" unicode="&#xd5;" horiz-adv-x="1441" 
d="M731 1405c98 0 187.502 -18.001 268.502 -54.001s148.333 -85.333 202 -148s95.167 -136.667 124.5 -222s44 -177.333 44 -276c0 -113.333 -16.5 -216.166 -49.5 -308.499s-78.833 -169 -137.5 -230s-128.334 -107.833 -209.001 -140.5s-168.334 -49 -263.001 -49
c-128 0 -240.5 30.5 -337.5 91.5s-171.167 144.667 -222.5 251s-77 226.5 -77 360.5c0 140.667 27.5 266 82.5 376s132.5 195.667 232.5 257s214 92 342 92zM723.002 1202c-60.667 0 -115.5 -13.499 -164.5 -40.499s-89.333 -64 -121 -111s-55.834 -101.5 -72.501 -163.5
s-25 -129 -25 -201c0 -95.333 14.833 -180.833 44.5 -256.5s73.834 -136.167 132.501 -181.5s127.334 -68 206.001 -68c79.333 0 148.166 23 206.499 69s102 107.667 131 185s43.5 164.666 43.5 261.999c0 89.333 -13.833 171.5 -41.5 246.5s-71 137 -130 186
s-128.833 73.5 -209.5 73.5zM571.002 1466l-121.997 -0.000976562c-2 74 10.5 131.833 37.5 173.5s64.167 62.5 111.5 62.5c34 0 76.333 -13 127 -39c45.333 -26 76.666 -39 93.999 -39s30.166 5.83301 38.499 17.5s13.833 33.834 16.5 66.501h121
c4 -152.667 -46.333 -229 -151 -229c-40.667 0 -84.334 13 -131.001 39c-3.33301 2 -9 5.16699 -17 9.5l-16.5 9c-3 1.66699 -7.66699 4 -14 7s-11.333 5 -15 6s-8 2 -13 3s-9.83301 1.5 -14.5 1.5c-30.667 0 -48 -29.333 -52 -88z" />
    <glyph glyph-name="Odieresis" unicode="&#xd6;" horiz-adv-x="1441" 
d="M731 1405c98 0 187.502 -18.001 268.502 -54.001s148.333 -85.333 202 -148s95.167 -136.667 124.5 -222s44 -177.333 44 -276c0 -113.333 -16.5 -216.166 -49.5 -308.499s-78.833 -169 -137.5 -230s-128.334 -107.833 -209.001 -140.5s-168.334 -49 -263.001 -49
c-128 0 -240.5 30.5 -337.5 91.5s-171.167 144.667 -222.5 251s-77 226.5 -77 360.5c0 140.667 27.5 266 82.5 376s132.5 195.667 232.5 257s214 92 342 92zM723.002 1202c-60.667 0 -115.5 -13.499 -164.5 -40.499s-89.333 -64 -121 -111s-55.834 -101.5 -72.501 -163.5
s-25 -129 -25 -201c0 -95.333 14.833 -180.833 44.5 -256.5s73.834 -136.167 132.501 -181.5s127.334 -68 206.001 -68c79.333 0 148.166 23 206.499 69s102 107.667 131 185s43.5 164.666 43.5 261.999c0 89.333 -13.833 171.5 -41.5 246.5s-71 137 -130 186
s-128.833 73.5 -209.5 73.5zM518.002 1466c-34.667 0 -63.501 12.168 -86.501 36.501s-34.5 53.166 -34.5 86.499c0 35.333 11.833 65 35.5 89s52.834 36 87.501 36c34 0 62.333 -11.833 85 -35.5s34 -53.5 34 -89.5c0 -34 -11.333 -63 -34 -87s-51.667 -36 -87 -36z
M922.001 1466c-34 0 -62.332 12 -84.999 36s-34 53 -34 87c0 35.333 11.667 65 35 89s52.666 36 87.999 36c34 0 62.167 -11.833 84.5 -35.5s33.5 -53.5 33.5 -89.5c0 -34 -11.333 -63 -34 -87s-52 -36 -88 -36z" />
    <glyph glyph-name="multiply" unicode="&#xd7;" horiz-adv-x="1220" 
d="M82 963l113 114l415 -424l414 424l115 -114l-414 -424l414 -422l-115 -117l-414 422l-413 -422l-115 117l414 422z" />
    <glyph glyph-name="Oslash" unicode="&#xd8;" horiz-adv-x="1441" 
d="M279 -115l-139.997 111.001l121 176c-60 64 -106 140.167 -138 228.5s-48 184.166 -48 287.499c0 138 27.667 261.5 83 370.5s132.666 194 231.999 255s212 91.5 338 91.5c125.333 0 232.666 -30.667 321.999 -92l116 166l146 -99l-119 -174
c58 -62.667 102.167 -137.834 132.5 -225.501s45.5 -181.167 45.5 -280.5c0 -113.333 -16.833 -216.166 -50.5 -308.499s-79.834 -168.333 -138.501 -228s-127 -105.667 -205 -138s-162.333 -48.5 -253 -48.5c-117.333 0 -224 29.667 -320 89zM406.003 387.001l524 748
c-60 47.333 -128.333 71 -205 71c-83.333 0 -155.5 -23.5 -216.5 -70.5s-106.333 -108.833 -136 -185.5s-44.5 -162.667 -44.5 -258c0 -108 24.333 -209.667 73 -305h5zM1042 987.001l-520 -739c54 -48 121 -72 201 -72c80.667 0 151 23 211 69s105.333 108 136 186
s46 166.333 46 265c0 106.667 -22.333 203.667 -67 291h-7z" />
    <glyph glyph-name="Ugrave" unicode="&#xd9;" horiz-adv-x="1363" 
d="M143 1380l252.001 0.000976562v-805c0 -131.333 25.167 -230 75.5 -296s119.5 -99 207.5 -99c93.333 0 165.166 32.833 215.499 98.5s75.5 164.5 75.5 296.5v805h252v-788c0 -206.667 -48.833 -360.834 -146.5 -462.501s-232.5 -152.5 -404.5 -152.5
c-166.667 0 -296.167 49.833 -388.5 149.5s-138.5 254.167 -138.5 463.5v790zM365.001 1700h278l180 -244h-202z" />
    <glyph glyph-name="Uacute" unicode="&#xda;" horiz-adv-x="1363" 
d="M143 1380l252.001 0.000976562v-805c0 -131.333 25.167 -230 75.5 -296s119.5 -99 207.5 -99c93.333 0 165.166 32.833 215.499 98.5s75.5 164.5 75.5 296.5v805h252v-788c0 -206.667 -48.833 -360.834 -146.5 -462.501s-232.5 -152.5 -404.5 -152.5
c-166.667 0 -296.167 49.833 -388.5 149.5s-138.5 254.167 -138.5 463.5v790zM729.001 1700h279l-256 -246h-203z" />
    <glyph glyph-name="Ucircumflex" unicode="&#xdb;" horiz-adv-x="1363" 
d="M143 1380l252.001 0.000976562v-805c0 -131.333 25.167 -230 75.5 -296s119.5 -99 207.5 -99c93.333 0 165.166 32.833 215.499 98.5s75.5 164.5 75.5 296.5v805h252v-788c0 -206.667 -48.833 -360.834 -146.5 -462.501s-232.5 -152.5 -404.5 -152.5
c-166.667 0 -296.167 49.833 -388.5 149.5s-138.5 254.167 -138.5 463.5v790zM602.001 1698h191l211 -244h-189l-115 133h-4l-114 -133h-187z" />
    <glyph glyph-name="Udieresis" unicode="&#xdc;" horiz-adv-x="1363" 
d="M143 1380l252.001 0.000976562v-805c0 -131.333 25.167 -230 75.5 -296s119.5 -99 207.5 -99c93.333 0 165.166 32.833 215.499 98.5s75.5 164.5 75.5 296.5v805h252v-788c0 -206.667 -48.833 -360.834 -146.5 -462.501s-232.5 -152.5 -404.5 -152.5
c-166.667 0 -296.167 49.833 -388.5 149.5s-138.5 254.167 -138.5 463.5v790zM487.001 1466c-34.667 0 -63.333 12 -86 36s-34 53 -34 87c0 35.333 11.667 65 35 89s52.333 36 87 36c34 0 62.333 -11.833 85 -35.5s34 -53.5 34 -89.5c0 -34 -11.333 -63 -34 -87
s-51.667 -36 -87 -36zM891.002 1466c-34 0 -62.332 12 -84.999 36s-34 53 -34 87c0 35.333 11.667 65 35 89s52.666 36 87.999 36c34 0 62.333 -11.833 85 -35.5s34 -53.5 34 -89.5c0 -34 -11.5 -63 -34.5 -87s-52.5 -36 -88.5 -36z" />
    <glyph glyph-name="Yacute" unicode="&#xdd;" horiz-adv-x="1177" 
d="M711 0h-252v575l-436 805h288l164 -354c48.667 -106 89 -197.333 121 -274h4c26 68.667 65.667 160 119 274l166 354h284l-458 -798v-582zM653 1694h279l-256 -246h-203z" />
    <glyph glyph-name="Thorn" unicode="&#xde;" horiz-adv-x="1142" 
d="M145 0l-0.00195312 1380h248v-258c48.667 8.66699 109.334 13 182.001 13c162.667 0 286.334 -37.667 371.001 -113c40 -34 70.833 -75.667 92.5 -125s32.5 -102.666 32.5 -159.999c0 -77.333 -13.5 -145.5 -40.5 -204.5s-64.833 -106.333 -113.5 -142
s-104.5 -62.5 -167.5 -80.5s-132.5 -27 -208.5 -27c-60 0 -109.333 3.33301 -148 10v-293h-248zM392.998 927.999v-436c40 -8.66699 86.333 -13 139 -13c94 0 165.667 21.333 215 64s74 100.667 74 174s-23.833 128.833 -71.5 166.5s-114.5 56.5 -200.5 56.5
c-65.333 0 -117.333 -4 -156 -12z" />
    <glyph glyph-name="germandbls" unicode="&#xdf;" horiz-adv-x="1179" 
d="M387 0l-251.997 0.00195312v901c0 210 50.667 362.333 152 457c85.333 79.333 198.666 119 339.999 119c115.333 0 211.666 -33 288.999 -99s116 -154.667 116 -266c0 -69.333 -15.667 -125.333 -47 -168c-87.333 -39.333 -131 -89.666 -131 -150.999
c0 -26.667 6.66699 -51.5 20 -74.5s34.666 -50.167 63.999 -81.5c26.667 -27.333 46.5 -48.5 59.5 -63.5s29.333 -36.667 49 -65s33.834 -58 42.501 -89s13 -64.5 13 -100.5c0 -102.667 -34.833 -185.334 -104.5 -248.001s-165.167 -94 -286.5 -94
c-88 0 -161 12.333 -219 37l36 189c47.333 -22 99.333 -33 156 -33c51.333 0 91.833 12.667 121.5 38s44.5 57.666 44.5 96.999c0 31.333 -7 59.666 -21 84.999s-37 54.333 -69 87c-25.333 25.333 -44.5 45.333 -57.5 60s-28.833 34.667 -47.5 60s-32.167 51.5 -40.5 78.5
s-12.5 55.167 -12.5 84.5c0 52 14.667 100 44 144s72 80 128 108c11.333 26 17 52.667 17 80c0 57.333 -16.667 103.333 -50 138s-78.333 52 -135 52c-70.667 0 -124.834 -28.333 -162.501 -85s-56.5 -149 -56.5 -277v-920z" />
    <glyph glyph-name="agrave" unicode="&#xe0;" horiz-adv-x="1040" 
d="M909 598l-0.00195312 -358c0 -102.667 5.66699 -182.667 17 -240h-228l-18 111h-6c-30.667 -40.667 -71.667 -73.167 -123 -97.5s-108.666 -36.5 -171.999 -36.5c-96 0 -172.167 29.333 -228.5 88s-84.5 128.334 -84.5 209.001c0 123.333 51.833 217.333 155.5 282
s248.834 96.334 435.501 95.001v17c0 20 -2.5 38.667 -7.5 56s-14 35.666 -27 54.999s-33.833 34.666 -62.5 45.999s-63.667 17 -105 17c-48 0 -96.167 -6.83301 -144.5 -20.5s-89.833 -31.5 -124.5 -53.5l-49 164c41.333 25.333 93.333 46.333 156 63s131 25 205 25
c76.667 0 142.667 -11.5 198 -34.5s98 -54.833 128 -95.5s51.667 -85 65 -133s20 -101 20 -159zM663.998 350l-0.000976562 137c-232.667 2.66699 -349 -59.333 -349 -186c0 -46.667 13.333 -82.167 40 -106.5s61.334 -36.5 104.001 -36.5c48.667 0 90.5 13.167 125.5 39.5
s59.167 58.833 72.5 97.5c4.66699 14 7 32.333 7 55zM200.997 1430h245l179 -304h-174z" />
    <glyph glyph-name="aacute" unicode="&#xe1;" horiz-adv-x="1040" 
d="M909 598l-0.00195312 -358c0 -102.667 5.66699 -182.667 17 -240h-228l-18 111h-6c-30.667 -40.667 -71.667 -73.167 -123 -97.5s-108.666 -36.5 -171.999 -36.5c-96 0 -172.167 29.333 -228.5 88s-84.5 128.334 -84.5 209.001c0 123.333 51.833 217.333 155.5 282
s248.834 96.334 435.501 95.001v17c0 20 -2.5 38.667 -7.5 56s-14 35.666 -27 54.999s-33.833 34.666 -62.5 45.999s-63.667 17 -105 17c-48 0 -96.167 -6.83301 -144.5 -20.5s-89.833 -31.5 -124.5 -53.5l-49 164c41.333 25.333 93.333 46.333 156 63s131 25 205 25
c76.667 0 142.667 -11.5 198 -34.5s98 -54.833 128 -95.5s51.667 -85 65 -133s20 -101 20 -159zM663.998 350l-0.000976562 137c-232.667 2.66699 -349 -59.333 -349 -186c0 -46.667 13.333 -82.167 40 -106.5s61.334 -36.5 104.001 -36.5c48.667 0 90.5 13.167 125.5 39.5
s59.167 58.833 72.5 97.5c4.66699 14 7 32.333 7 55zM570.997 1430h246l-250 -304h-174z" />
    <glyph glyph-name="acircumflex" unicode="&#xe2;" horiz-adv-x="1040" 
d="M909 598l-0.00195312 -358c0 -102.667 5.66699 -182.667 17 -240h-228l-18 111h-6c-30.667 -40.667 -71.667 -73.167 -123 -97.5s-108.666 -36.5 -171.999 -36.5c-96 0 -172.167 29.333 -228.5 88s-84.5 128.334 -84.5 209.001c0 123.333 51.833 217.333 155.5 282
s248.834 96.334 435.501 95.001v17c0 20 -2.5 38.667 -7.5 56s-14 35.666 -27 54.999s-33.833 34.666 -62.5 45.999s-63.667 17 -105 17c-48 0 -96.167 -6.83301 -144.5 -20.5s-89.833 -31.5 -124.5 -53.5l-49 164c41.333 25.333 93.333 46.333 156 63s131 25 205 25
c76.667 0 142.667 -11.5 198 -34.5s98 -54.833 128 -95.5s51.667 -85 65 -133s20 -101 20 -159zM663.998 350l-0.000976562 137c-232.667 2.66699 -349 -59.333 -349 -186c0 -46.667 13.333 -82.167 40 -106.5s61.334 -36.5 104.001 -36.5c48.667 0 90.5 13.167 125.5 39.5
s59.167 58.833 72.5 97.5c4.66699 14 7 32.333 7 55zM425.997 1430h170l201 -304h-174l-109 185h-4l-111 -185h-172z" />
    <glyph glyph-name="atilde" unicode="&#xe3;" horiz-adv-x="1040" 
d="M909 598l-0.00195312 -358c0 -102.667 5.66699 -182.667 17 -240h-228l-18 111h-6c-30.667 -40.667 -71.667 -73.167 -123 -97.5s-108.666 -36.5 -171.999 -36.5c-96 0 -172.167 29.333 -228.5 88s-84.5 128.334 -84.5 209.001c0 123.333 51.833 217.333 155.5 282
s248.834 96.334 435.501 95.001v17c0 20 -2.5 38.667 -7.5 56s-14 35.666 -27 54.999s-33.833 34.666 -62.5 45.999s-63.667 17 -105 17c-48 0 -96.167 -6.83301 -144.5 -20.5s-89.833 -31.5 -124.5 -53.5l-49 164c41.333 25.333 93.333 46.333 156 63s131 25 205 25
c76.667 0 142.667 -11.5 198 -34.5s98 -54.833 128 -95.5s51.667 -85 65 -133s20 -101 20 -159zM663.998 350l-0.000976562 137c-232.667 2.66699 -349 -59.333 -349 -186c0 -46.667 13.333 -82.167 40 -106.5s61.334 -36.5 104.001 -36.5c48.667 0 90.5 13.167 125.5 39.5
s59.167 58.833 72.5 97.5c4.66699 14 7 32.333 7 55zM357.997 1151h-124.999c-2.66699 76.667 10.166 136.5 38.499 179.5s67.5 64.5 117.5 64.5c32.667 0 75.667 -14.333 129 -43c3.33301 -2 9.5 -5.5 18.5 -10.5s15.5 -8.5 19.5 -10.5s9.33301 -4.5 16 -7.5
s12.667 -5.16699 18 -6.5s10.666 -2 15.999 -2c16.667 0 29.167 6.33301 37.5 19s13.5 35.667 15.5 69h123c4 -158.667 -47.667 -238 -155 -238c-37.333 0 -81.666 14.333 -132.999 43c-35.333 20.667 -59 32 -71 34c-4 0.666992 -8.33301 1 -13 1
c-30.667 0 -48 -30.667 -52 -92z" />
    <glyph glyph-name="adieresis" unicode="&#xe4;" horiz-adv-x="1040" 
d="M909 598l-0.00195312 -358c0 -102.667 5.66699 -182.667 17 -240h-228l-18 111h-6c-30.667 -40.667 -71.667 -73.167 -123 -97.5s-108.666 -36.5 -171.999 -36.5c-96 0 -172.167 29.333 -228.5 88s-84.5 128.334 -84.5 209.001c0 123.333 51.833 217.333 155.5 282
s248.834 96.334 435.501 95.001v17c0 20 -2.5 38.667 -7.5 56s-14 35.666 -27 54.999s-33.833 34.666 -62.5 45.999s-63.667 17 -105 17c-48 0 -96.167 -6.83301 -144.5 -20.5s-89.833 -31.5 -124.5 -53.5l-49 164c41.333 25.333 93.333 46.333 156 63s131 25 205 25
c76.667 0 142.667 -11.5 198 -34.5s98 -54.833 128 -95.5s51.667 -85 65 -133s20 -101 20 -159zM663.998 350l-0.000976562 137c-232.667 2.66699 -349 -59.333 -349 -186c0 -46.667 13.333 -82.167 40 -106.5s61.334 -36.5 104.001 -36.5c48.667 0 90.5 13.167 125.5 39.5
s59.167 58.833 72.5 97.5c4.66699 14 7 32.333 7 55zM314.997 1153c-35.333 0 -65.001 12.167 -89.001 36.5s-36 53.833 -36 88.5c0 36 12.333 66.167 37 90.5s55.334 36.5 92.001 36.5c34 0 62.667 -12 86 -36s35 -54.333 35 -91c0 -34.667 -11.833 -64.167 -35.5 -88.5
s-53.5 -36.5 -89.5 -36.5zM724.996 1153h-3.99902c-34.667 0 -63.834 12.167 -87.501 36.5s-35.5 53.833 -35.5 88.5c0 36 12.167 66.167 36.5 90.5s54.5 36.5 90.5 36.5c35.333 0 64.666 -12 87.999 -36s35 -54.333 35 -91c0 -34.667 -11.667 -64.167 -35 -88.5
s-52.666 -36.5 -87.999 -36.5z" />
    <glyph glyph-name="aring" unicode="&#xe5;" horiz-adv-x="1040" 
d="M909 598l-0.00195312 -358c0 -102.667 5.66699 -182.667 17 -240h-228l-18 111h-6c-30.667 -40.667 -71.667 -73.167 -123 -97.5s-108.666 -36.5 -171.999 -36.5c-96 0 -172.167 29.333 -228.5 88s-84.5 128.334 -84.5 209.001c0 123.333 51.833 217.333 155.5 282
s248.834 96.334 435.501 95.001v17c0 20 -2.5 38.667 -7.5 56s-14 35.666 -27 54.999s-33.833 34.666 -62.5 45.999s-63.667 17 -105 17c-48 0 -96.167 -6.83301 -144.5 -20.5s-89.833 -31.5 -124.5 -53.5l-49 164c41.333 25.333 93.333 46.333 156 63s131 25 205 25
c76.667 0 142.667 -11.5 198 -34.5s98 -54.833 128 -95.5s51.667 -85 65 -133s20 -101 20 -159zM663.998 350l-0.000976562 137c-232.667 2.66699 -349 -59.333 -349 -186c0 -46.667 13.333 -82.167 40 -106.5s61.334 -36.5 104.001 -36.5
c47.333 0 88.833 13.167 124.5 39.5s60.167 58.833 73.5 97.5c4.66699 14 7 32.333 7 55zM519.997 1102c-66.667 0 -120.498 18.168 -161.498 54.501s-61.5 82.166 -61.5 137.499c0 58 20.167 106 60.5 144s95.166 57 164.499 57c67.333 0 120.666 -18.5 159.999 -55.5
s59 -84.833 59 -143.5c0 -56.667 -20.5 -103.167 -61.5 -139.5s-94.167 -54.5 -159.5 -54.5zM517.999 1192c30.667 0 54.999 10.167 72.999 30.5s27 45.5 27 75.5s-9 55.333 -27 76s-42.333 31 -73 31c-29.333 0 -52.666 -10.833 -69.999 -32.5s-26 -47.167 -26 -76.5
c0 -27.333 9 -51.5 27 -72.5s41 -31.5 69 -31.5z" />
    <glyph glyph-name="ae" unicode="&#xe6;" horiz-adv-x="1617" 
d="M1544 442h-646.999c0 -86 26.833 -153.5 80.5 -202.5s123.834 -73.5 210.501 -73.5c96.667 0 188 18.333 274 55l39 -172c-94 -48 -210 -72 -348 -72c-86 0 -163.167 17.333 -231.5 52s-117.5 83 -147.5 145h-6c-36.667 -62 -86.834 -110.333 -150.501 -145
s-137.834 -52 -222.501 -52c-102 0 -182.333 29 -241 87s-88 128.667 -88 212c0 118 52.5 208.667 157.5 272s251.167 94.333 438.5 93v35c0 12 -2.83301 26 -8.5 42s-15.334 34 -29.001 54s-35.5 36.667 -65.5 50s-66 20 -108 20c-46 0 -93 -7.33301 -141 -22
s-88.667 -32.667 -122 -54l-51 162c44 26 95.833 47.833 155.5 65.5s119.167 26.5 178.5 26.5c162.667 0 271.334 -60.667 326.001 -182h6c36.667 58 84.167 102.833 142.5 134.5s124.833 47.5 199.5 47.5c58 0 110.5 -10 157.5 -30s85.5 -46.167 115.5 -78.5
s55.167 -69.833 75.5 -112.5s34.833 -85.5 43.5 -128.5s13 -86.167 13 -129.5c0 -20 -2 -53 -6 -99zM668.001 358l0.000976562 123c-48 0.666992 -91.833 -1.83301 -131.5 -7.5s-77 -15 -112 -28s-62.333 -32.333 -82 -58s-29.5 -56.5 -29.5 -92.5
c0 -42.667 14.167 -76.167 42.5 -100.5s63.5 -36.5 105.5 -36.5c49.333 0 90.666 12.5 123.999 37.5s57.333 56.833 72 95.5c7.33301 18.667 11 41 11 67zM895.002 616l420 -0.00292969c0.666992 22.667 -2 46.334 -8 71.001s-15.833 49.834 -29.5 75.501
s-34.5 46.667 -62.5 63s-61 24.5 -99 24.5c-36 0 -68.5 -7.66699 -97.5 -23s-52 -35.166 -69 -59.499s-30 -49.5 -39 -75.5s-14.167 -51.333 -15.5 -76z" />
    <glyph glyph-name="ccedilla" unicode="&#xe7;" horiz-adv-x="919" 
d="M834 217l34.0039 -186c-63.333 -32 -145 -49 -245 -51l-43 -76c41.333 -8.66699 76.166 -26.667 104.499 -54s42.5 -62 42.5 -104c0 -62.667 -22.333 -108.667 -67 -138s-99.334 -44 -164.001 -44s-117.334 12.333 -158.001 37l35 112c32 -18.667 69.333 -28 112 -28
c53.333 0 80 19 80 57c0 23.333 -13 41.166 -39 53.499s-66 21.166 -120 26.499l81 166c-127.333 17.333 -228.333 70.833 -303 160.5s-112 203.167 -112 340.5c0 74.667 12.667 144.334 38 209.001s61.333 120.834 108 168.501s105.167 85.167 175.5 112.5
s148.166 41 233.499 41c91.333 0 172.333 -15 243 -45l-45 -191c-53.333 26 -117.333 39 -192 39c-92.667 0 -166.667 -30.5 -222 -91.5s-82.333 -138.167 -81 -231.5c0 -100 28.667 -178.667 86 -236s130.333 -86 219 -86c68.667 0 135 13 199 39z" />
    <glyph glyph-name="egrave" unicode="&#xe8;" horiz-adv-x="1056" 
d="M981 428l-668 0.000976562c2 -58 17.667 -106.833 47 -146.5s66.166 -68.167 110.499 -85.5s94.5 -26 150.5 -26c97.333 0 189.333 15 276 45l37 -172c-97.333 -42 -213.333 -63 -348 -63c-160.667 0 -286.5 45.333 -377.5 136s-136.5 213 -136.5 367
c0 70 10.667 136.833 32 200.5s51.833 120.667 91.5 171s90.834 90.5 153.501 120.5s132.667 45 210 45c62.667 0 119 -9.83301 169 -29.5s91 -45.5 123 -77.5s58.667 -69.5 80 -112.5s36.333 -86.5 45 -130.5s13 -89 13 -135c0 -40.667 -2.66699 -76.334 -8 -107.001z
M313 604.001h438.999c0.666992 26 -2.16602 52 -8.49902 78s-16.666 52 -30.999 78s-36 47.167 -65 63.5s-63.167 24.5 -102.5 24.5c-37.333 0 -70.833 -7.83301 -100.5 -23.5s-53.334 -36 -71.001 -61s-31.5 -51 -41.5 -78s-16.333 -54.167 -19 -81.5zM259.999 1430h246
l178 -304h-174z" />
    <glyph glyph-name="eacute" unicode="&#xe9;" horiz-adv-x="1056" 
d="M981 428l-668 0.000976562c2 -58 17.667 -106.833 47 -146.5s66.166 -68.167 110.499 -85.5s94.5 -26 150.5 -26c97.333 0 189.333 15 276 45l37 -172c-97.333 -42 -213.333 -63 -348 -63c-160.667 0 -286.5 45.333 -377.5 136s-136.5 213 -136.5 367
c0 70 10.667 136.833 32 200.5s51.833 120.667 91.5 171s90.834 90.5 153.501 120.5s132.667 45 210 45c62.667 0 119 -9.83301 169 -29.5s91 -45.5 123 -77.5s58.667 -69.5 80 -112.5s36.333 -86.5 45 -130.5s13 -89 13 -135c0 -40.667 -2.66699 -76.334 -8 -107.001z
M313 604.001h438.999c0.666992 26 -2.16602 52 -8.49902 78s-16.666 52 -30.999 78s-36 47.167 -65 63.5s-63.167 24.5 -102.5 24.5c-37.333 0 -70.833 -7.83301 -100.5 -23.5s-53.334 -36 -71.001 -61s-31.5 -51 -41.5 -78s-16.333 -54.167 -19 -81.5zM617.999 1430h246
l-250 -304h-174z" />
    <glyph glyph-name="ecircumflex" unicode="&#xea;" horiz-adv-x="1056" 
d="M981 428l-668 0.000976562c2 -58 17.667 -106.833 47 -146.5s66.166 -68.167 110.499 -85.5s94.5 -26 150.5 -26c97.333 0 189.333 15 276 45l37 -172c-97.333 -42 -213.333 -63 -348 -63c-160.667 0 -286.5 45.333 -377.5 136s-136.5 213 -136.5 367
c0 70 10.667 136.833 32 200.5s51.833 120.667 91.5 171s90.834 90.5 153.501 120.5s132.667 45 210 45c62.667 0 119 -9.83301 169 -29.5s91 -45.5 123 -77.5s58.667 -69.5 80 -112.5s36.333 -86.5 45 -130.5s13 -89 13 -135c0 -40.667 -2.66699 -76.334 -8 -107.001z
M313 604.001h438.999c0.666992 26 -2.16602 52 -8.49902 78s-16.666 52 -30.999 78s-36 47.167 -65 63.5s-63.167 24.5 -102.5 24.5c-37.333 0 -70.833 -7.83301 -100.5 -23.5s-53.334 -36 -71.001 -61s-31.5 -51 -41.5 -78s-16.333 -54.167 -19 -81.5zM464.999 1430h170
l201 -304h-174l-109 185h-4l-111 -185h-172z" />
    <glyph glyph-name="edieresis" unicode="&#xeb;" horiz-adv-x="1056" 
d="M981 428l-668 0.000976562c2 -58 17.667 -106.833 47 -146.5s66.166 -68.167 110.499 -85.5s94.5 -26 150.5 -26c97.333 0 189.333 15 276 45l37 -172c-97.333 -42 -213.333 -63 -348 -63c-160.667 0 -286.5 45.333 -377.5 136s-136.5 213 -136.5 367
c0 70 10.667 136.833 32 200.5s51.833 120.667 91.5 171s90.834 90.5 153.501 120.5s132.667 45 210 45c62.667 0 119 -9.83301 169 -29.5s91 -45.5 123 -77.5s58.667 -69.5 80 -112.5s36.333 -86.5 45 -130.5s13 -89 13 -135c0 -40.667 -2.66699 -76.334 -8 -107.001z
M313 604.001h438.999c0.666992 26 -2.16602 52 -8.49902 78s-16.666 52 -30.999 78s-36 47.167 -65 63.5s-63.167 24.5 -102.5 24.5c-37.333 0 -70.833 -7.83301 -100.5 -23.5s-53.334 -36 -71.001 -61s-31.5 -51 -41.5 -78s-16.333 -54.167 -19 -81.5zM357.999 1153
c-35.333 0 -65.001 12.167 -89.001 36.5s-36 53.833 -36 88.5c0 36 12.333 66.167 37 90.5s55.334 36.5 92.001 36.5c34 0 62.667 -12 86 -36s35 -54.333 35 -91c0 -34.667 -11.833 -64.167 -35.5 -88.5s-53.5 -36.5 -89.5 -36.5zM767.998 1153h-3.99902
c-34.667 0 -63.834 12.167 -87.501 36.5s-35.5 53.833 -35.5 88.5c0 36 12.167 66.167 36.5 90.5s54.5 36.5 90.5 36.5c35.333 0 64.666 -12 87.999 -36s35 -54.333 35 -91c0 -34.667 -11.667 -64.167 -35 -88.5s-52.666 -36.5 -87.999 -36.5z" />
    <glyph glyph-name="igrave" unicode="&#xec;" horiz-adv-x="524" 
d="M387 0h-252v997h252v-997zM-59 1430h245l179 -304h-175z" />
    <glyph glyph-name="iacute" unicode="&#xed;" horiz-adv-x="524" 
d="M387 0h-252v997h252v-997zM322 1430h247l-250 -304h-174z" />
    <glyph glyph-name="icircumflex" unicode="&#xee;" horiz-adv-x="524" 
d="M387 0h-252v997h252v-997zM176 1430h170l201 -304h-174l-111 185h-4l-108 -185h-173z" />
    <glyph glyph-name="idieresis" unicode="&#xef;" horiz-adv-x="524" 
d="M387 0h-252v997h252v-997zM57 1153c-35.333 0 -65.001 12.167 -89.001 36.5s-36 53.833 -36 88.5c0 36 12.333 66.167 37 90.5s55.334 36.5 92.001 36.5c34 0 62.667 -12 86 -36s35 -54.333 35 -91c0 -34.667 -11.833 -64.167 -35.5 -88.5s-53.5 -36.5 -89.5 -36.5z
M468.999 1153h-3.99902c-34.667 0 -63.834 12.167 -87.501 36.5s-35.5 53.833 -35.5 88.5c0 36 12.167 66.167 36.5 90.5s54.5 36.5 90.5 36.5c35.333 0 64.666 -12 87.999 -36s35 -54.333 35 -91c0 -34.667 -11.667 -64.167 -35 -88.5s-52.666 -36.5 -87.999 -36.5z" />
    <glyph glyph-name="eth" unicode="&#xf0;" horiz-adv-x="1146" 
d="M571 160c74.667 0 133.333 30.833 176 92.5s64 142.834 64 243.501c0 112.667 -19 193.667 -57 243c-46 53.333 -105.667 80 -179 80c-34.667 0 -66 -7 -94 -21s-51.167 -32.333 -69.5 -55s-33.5 -48.834 -45.5 -78.501s-20.667 -59.5 -26 -89.5s-8 -60 -8 -90
c0 -92.667 21.833 -170 65.5 -232s101.5 -93 173.5 -93zM226.999 1006l-46.999 106.002l226 105c-46.667 31.333 -114.334 67.333 -203.001 108l110 148c100 -40 202.667 -94.667 308 -164l272 123l53 -107l-217 -98c110.667 -88 196 -193.333 256 -316
c57.333 -113.333 86 -243 86 -389c0 -91.333 -14.333 -172.833 -43 -244.5s-67 -128.834 -115 -171.501s-101.167 -74.834 -159.5 -96.501s-119.833 -32.5 -184.5 -32.5c-144 0 -262.833 46.167 -356.5 138.5s-140.5 214.833 -140.5 367.5c0 74 12.667 142.333 38 205
s59.5 114.834 102.5 156.501s92.667 74.167 149 97.5s115.5 35.666 177.5 36.999c74 0 135.333 -20.333 184 -61l4 6c-55.333 83.333 -124.333 154.333 -207 213z" />
    <glyph glyph-name="ntilde" unicode="&#xf1;" horiz-adv-x="1171" 
d="M135 0l0.00292969 699.997c0 83.333 -2.66699 182.333 -8 297h219l12 -149h7c26.667 46 67.5 86.167 122.5 120.5s120.5 51.5 196.5 51.5c46 0 89.167 -7.83301 129.5 -23.5s77.666 -39.5 111.999 -71.5s61.666 -76.667 81.999 -134s30.5 -123.666 30.5 -198.999v-592
h-252v563c0 76.667 -15.333 137.834 -46 183.501s-78.667 68.5 -144 68.5c-47.333 0 -88.333 -14.167 -123 -42.5s-59.334 -63.166 -74.001 -104.499c-8 -20 -12 -46.667 -12 -80v-588h-252zM438.003 1151h-124.999c-2.66699 76.667 10.166 136.5 38.499 179.5
s67.5 64.5 117.5 64.5c32.667 0 75.667 -14.333 129 -43c4 -2 10.333 -5.5 19 -10.5s15 -8.5 19 -10.5s9.33301 -4.5 16 -7.5s12.5 -5.16699 17.5 -6.5s9.83301 -2 14.5 -2c17.333 0 30.333 6.33301 39 19s14 35.667 16 69h123c4 -158.667 -47.667 -238 -155 -238
c-38 0 -82.667 14.333 -134 43c-35.333 20.667 -59 32 -71 34c-4 0.666992 -8.33301 1 -13 1c-30 0 -47 -30.667 -51 -92z" />
    <glyph glyph-name="ograve" unicode="&#xf2;" horiz-adv-x="1155" 
d="M588 1020c148 0 267.499 -47.332 358.499 -141.999s136.5 -218 136.5 -370c0 -88 -14.667 -166.833 -44 -236.5s-68.5 -125.5 -117.5 -167.5s-103.333 -73.667 -163 -95s-122.167 -32 -187.5 -32c-144 0 -263.167 46.5 -357.5 139.5s-141.5 218.167 -141.5 375.5
c0 161.333 47.833 289.666 143.5 384.999s219.834 143 372.501 143zM581.999 838.001c-42.667 0 -80.5 -9.83105 -113.5 -29.498s-59.167 -46 -78.5 -79s-33.833 -69 -43.5 -108s-14.5 -80.167 -14.5 -123.5c0 -98 22.667 -178.833 68 -242.5s105.333 -95.5 180 -95.5
c71.333 0 129.666 31.667 174.999 95s68 145.666 68 246.999c0 40.667 -4.66699 80.167 -14 118.5s-23.166 74.166 -41.499 107.499s-43.5 60 -75.5 80s-68.667 30 -110 30zM282.999 1430h245l179 -304h-175z" />
    <glyph glyph-name="oacute" unicode="&#xf3;" horiz-adv-x="1155" 
d="M588 1020c148 0 267.499 -47.332 358.499 -141.999s136.5 -218 136.5 -370c0 -88 -14.667 -166.833 -44 -236.5s-68.5 -125.5 -117.5 -167.5s-103.333 -73.667 -163 -95s-122.167 -32 -187.5 -32c-144 0 -263.167 46.5 -357.5 139.5s-141.5 218.167 -141.5 375.5
c0 161.333 47.833 289.666 143.5 384.999s219.834 143 372.501 143zM581.999 838.001c-42.667 0 -80.5 -9.83105 -113.5 -29.498s-59.167 -46 -78.5 -79s-33.833 -69 -43.5 -108s-14.5 -80.167 -14.5 -123.5c0 -98 22.667 -178.833 68 -242.5s105.333 -95.5 180 -95.5
c71.333 0 129.666 31.667 174.999 95s68 145.666 68 246.999c0 40.667 -4.66699 80.167 -14 118.5s-23.166 74.166 -41.499 107.499s-43.5 60 -75.5 80s-68.667 30 -110 30zM630.999 1430h246l-250 -304h-174z" />
    <glyph glyph-name="ocircumflex" unicode="&#xf4;" horiz-adv-x="1155" 
d="M588 1020c148 0 267.499 -47.332 358.499 -141.999s136.5 -218 136.5 -370c0 -88 -14.667 -166.833 -44 -236.5s-68.5 -125.5 -117.5 -167.5s-103.333 -73.667 -163 -95s-122.167 -32 -187.5 -32c-144 0 -263.167 46.5 -357.5 139.5s-141.5 218.167 -141.5 375.5
c0 161.333 47.833 289.666 143.5 384.999s219.834 143 372.501 143zM581.999 838.001c-42.667 0 -80.5 -9.83105 -113.5 -29.498s-59.167 -46 -78.5 -79s-33.833 -69 -43.5 -108s-14.5 -80.167 -14.5 -123.5c0 -98 22.667 -178.833 68 -242.5s105.333 -95.5 180 -95.5
c71.333 0 129.666 31.667 174.999 95s68 145.666 68 246.999c0 40.667 -4.66699 80.167 -14 118.5s-23.166 74.166 -41.499 107.499s-43.5 60 -75.5 80s-68.667 30 -110 30zM491.999 1430h170l200 -304h-174l-108 185h-5l-110 -185h-172z" />
    <glyph glyph-name="otilde" unicode="&#xf5;" horiz-adv-x="1155" 
d="M588 1020c148 0 267.499 -47.332 358.499 -141.999s136.5 -218 136.5 -370c0 -88 -14.667 -166.833 -44 -236.5s-68.5 -125.5 -117.5 -167.5s-103.333 -73.667 -163 -95s-122.167 -32 -187.5 -32c-144 0 -263.167 46.5 -357.5 139.5s-141.5 218.167 -141.5 375.5
c0 161.333 47.833 289.666 143.5 384.999s219.834 143 372.501 143zM581.999 838.001c-42.667 0 -80.5 -9.83105 -113.5 -29.498s-59.167 -46 -78.5 -79s-33.833 -69 -43.5 -108s-14.5 -80.167 -14.5 -123.5c0 -98 22.667 -178.833 68 -242.5s105.333 -95.5 180 -95.5
c71.333 0 129.666 31.667 174.999 95s68 145.666 68 246.999c0 40.667 -4.66699 80.167 -14 118.5s-23.166 74.166 -41.499 107.499s-43.5 60 -75.5 80s-68.667 30 -110 30zM427.999 1151h-124.999c-2.66699 76.667 10.166 136.5 38.499 179.5s67.5 64.5 117.5 64.5
c32.667 0 75.667 -14.333 129 -43c5.33301 -2.66699 13.333 -7 24 -13s18.667 -10.333 24 -13s11.666 -5.16699 18.999 -7.5s14.333 -3.5 21 -3.5c17.333 0 30 6.16699 38 18.5s13 35.5 15 69.5h123c4 -158.667 -48 -238 -156 -238c-37.333 0 -81.666 14.333 -132.999 43
c-35.333 20.667 -59 32 -71 34c-4 0.666992 -8.33301 1 -13 1c-30 0 -47 -30.667 -51 -92z" />
    <glyph glyph-name="odieresis" unicode="&#xf6;" horiz-adv-x="1155" 
d="M588 1020c148 0 267.499 -47.332 358.499 -141.999s136.5 -218 136.5 -370c0 -88 -14.667 -166.833 -44 -236.5s-68.5 -125.5 -117.5 -167.5s-103.333 -73.667 -163 -95s-122.167 -32 -187.5 -32c-144 0 -263.167 46.5 -357.5 139.5s-141.5 218.167 -141.5 375.5
c0 161.333 47.833 289.666 143.5 384.999s219.834 143 372.501 143zM581.999 838.001c-42.667 0 -80.5 -9.83105 -113.5 -29.498s-59.167 -46 -78.5 -79s-33.833 -69 -43.5 -108s-14.5 -80.167 -14.5 -123.5c0 -98 22.667 -178.833 68 -242.5s105.333 -95.5 180 -95.5
c71.333 0 129.666 31.667 174.999 95s68 145.666 68 246.999c0 40.667 -4.66699 80.167 -14 118.5s-23.166 74.166 -41.499 107.499s-43.5 60 -75.5 80s-68.667 30 -110 30zM372.999 1153c-35.333 0 -65.001 12.167 -89.001 36.5s-36 53.833 -36 88.5
c0 36 12.333 66.167 37 90.5s55.334 36.5 92.001 36.5c34 0 62.667 -12 86 -36s35 -54.333 35 -91c0 -34.667 -11.833 -64.167 -35.5 -88.5s-53.5 -36.5 -89.5 -36.5zM781.998 1153h-3.99902c-34.667 0 -63.834 12.167 -87.501 36.5s-35.5 53.833 -35.5 88.5
c0 36 12.167 66.167 36.5 90.5s54.5 36.5 90.5 36.5c35.333 0 64.666 -12 87.999 -36s35 -54.333 35 -91c0 -34.667 -11.667 -64.167 -35 -88.5s-52.666 -36.5 -87.999 -36.5z" />
    <glyph glyph-name="divide" unicode="&#xf7;" horiz-adv-x="1220" 
d="M608 770c-38 0 -68.998 12.668 -92.998 38.001s-36 57.666 -36 96.999c0 40 12.167 72.5 36.5 97.5s55.833 37.5 94.5 37.5c39.333 0 70.666 -12.333 93.999 -37s35.666 -57.334 36.999 -98.001c0 -39.333 -12 -71.666 -36 -96.999s-56.333 -38 -97 -38zM1139 467.001
h-1057v160h1057v-160zM608.002 53.001c-38 0 -68.998 12.667 -92.998 38s-36 57.666 -36 96.999c0 40 12.167 72.667 36.5 98s55.833 38 94.5 38c39.333 0 70.666 -12.5 93.999 -37.5s35.666 -57.833 36.999 -98.5c0 -39.333 -12 -71.666 -36 -96.999s-56.333 -38 -97 -38z
" />
    <glyph glyph-name="oslash" unicode="&#xf8;" horiz-adv-x="1155" 
d="M582 1020c88.667 0 170.333 -20.666 245 -61.999l91 134l96 -68l-90 -131c106 -95.333 159 -225 159 -389c0 -86.667 -14.5 -164.5 -43.5 -233.5s-67.5 -124.333 -115.5 -166s-101.333 -73.334 -160 -95.001s-120 -32.5 -184 -32.5c-94 0 -176 20 -246 60l-94 -135
l-93 73l89 127c-109.333 94 -164 225.333 -164 394c0 158.667 47.5 285.667 142.5 381s217.5 143 367.5 143zM372.999 297.001l344 494.001c-37.333 31.333 -84.666 47 -141.999 47c-44.667 0 -84.334 -10.167 -119.001 -30.5s-62 -47.333 -82 -81
s-34.833 -69.834 -44.5 -108.501s-14.5 -78.667 -14.5 -120c0 -78.667 17.333 -145.667 52 -201h6zM785.999 694.002l-343.999 -487c33.333 -31.333 77.666 -47 132.999 -47c80 0 144.167 31.167 192.5 93.5s72.5 143.833 72.5 244.5c0 75.333 -16.333 140 -49 194z" />
    <glyph glyph-name="ugrave" unicode="&#xf9;" horiz-adv-x="1165" 
d="M1028 997v-697.998c0 -90 2.66699 -189.667 8 -299h-219l-12 150h-6c-12 -20 -26.667 -39 -44 -57s-38.833 -36.333 -64.5 -55s-57 -33.5 -94 -44.5s-76.833 -16.5 -119.5 -16.5c-47.333 0 -90.833 7.66699 -130.5 23s-76.167 39.166 -109.5 71.499
s-59.333 77.5 -78 135.5s-28 126.333 -28 205v585h252v-542c0 -182 62 -273 186 -273c47.333 0 87.833 13.167 121.5 39.5s57.5 58.166 71.5 95.499c9.33301 18.667 14 44.667 14 78v602h252zM279 1430h245l178 -304h-174z" />
    <glyph glyph-name="uacute" unicode="&#xfa;" horiz-adv-x="1165" 
d="M1028 997v-697.998c0 -90 2.66699 -189.667 8 -299h-219l-12 150h-6c-12 -20 -26.667 -39 -44 -57s-38.833 -36.333 -64.5 -55s-57 -33.5 -94 -44.5s-76.833 -16.5 -119.5 -16.5c-47.333 0 -90.833 7.66699 -130.5 23s-76.167 39.166 -109.5 71.499
s-59.333 77.5 -78 135.5s-28 126.333 -28 205v585h252v-542c0 -182 62 -273 186 -273c47.333 0 87.833 13.167 121.5 39.5s57.5 58.166 71.5 95.499c9.33301 18.667 14 44.667 14 78v602h252zM651 1430h246l-250 -304h-174z" />
    <glyph glyph-name="ucircumflex" unicode="&#xfb;" horiz-adv-x="1165" 
d="M1028 997v-697.998c0 -90 2.66699 -189.667 8 -299h-219l-12 150h-6c-12 -20 -26.667 -39 -44 -57s-38.833 -36.333 -64.5 -55s-57 -33.5 -94 -44.5s-76.833 -16.5 -119.5 -16.5c-47.333 0 -90.833 7.66699 -130.5 23s-76.167 39.166 -109.5 71.499
s-59.333 77.5 -78 135.5s-28 126.333 -28 205v585h252v-542c0 -182 62 -273 186 -273c47.333 0 87.833 13.167 121.5 39.5s57.5 58.166 71.5 95.499c9.33301 18.667 14 44.667 14 78v602h252zM496 1430h172l200 -304h-174l-110 185h-4l-109 -185h-172z" />
    <glyph glyph-name="udieresis" unicode="&#xfc;" horiz-adv-x="1165" 
d="M1028 997v-697.998c0 -90 2.66699 -189.667 8 -299h-219l-12 150h-6c-12 -20 -26.667 -39 -44 -57s-38.833 -36.333 -64.5 -55s-57 -33.5 -94 -44.5s-76.833 -16.5 -119.5 -16.5c-47.333 0 -90.833 7.66699 -130.5 23s-76.167 39.166 -109.5 71.499
s-59.333 77.5 -78 135.5s-28 126.333 -28 205v585h252v-542c0 -182 62 -273 186 -273c47.333 0 87.833 13.167 121.5 39.5s57.5 58.166 71.5 95.499c9.33301 18.667 14 44.667 14 78v602h252zM383 1153c-35.333 0 -65.001 12.167 -89.001 36.5s-36 53.833 -36 88.5
c0 36 12.333 66.167 37 90.5s55.334 36.5 92.001 36.5c34 0 62.667 -12 86 -36s35 -54.333 35 -91c0 -34.667 -11.833 -64.167 -35.5 -88.5s-53.5 -36.5 -89.5 -36.5zM794.999 1153h-3.99902c-34.667 0 -63.834 12.167 -87.501 36.5s-35.5 53.833 -35.5 88.5
c0 36 12.167 66.167 36.5 90.5s54.5 36.5 90.5 36.5c35.333 0 64.666 -12 87.999 -36s35 -54.333 35 -91c0 -34.667 -11.667 -64.167 -35 -88.5s-52.666 -36.5 -87.999 -36.5z" />
    <glyph glyph-name="yacute" unicode="&#xfd;" horiz-adv-x="1024" 
d="M16 997l279 0.000976562l178 -534c23.333 -71.333 42.333 -135.666 57 -192.999h7c24 94.667 41.667 159.667 53 195l155 532h269l-250 -680c-68 -184.667 -127.833 -324.834 -179.5 -420.501s-107.167 -169.167 -166.5 -220.5c-84.667 -72.667 -172.667 -115 -264 -127
l-58 211c48.667 11.333 97.334 34.666 146.001 69.999c25.333 16 50.666 38 75.999 66s46.333 58.667 63 92c9.33301 16.667 14 31.667 14 45c0 12.667 -4 29 -12 49zM598 1430h246l-250 -304h-174z" />
    <glyph glyph-name="thorn" unicode="&#xfe;" horiz-adv-x="1198" 
d="M135 1380l252.001 0.000976562v-520h4c70 106.667 175.333 160 316 160c116.667 2 215.667 -43.5 297 -136.5s122 -217.5 122 -373.5c0 -88.667 -13.333 -168 -40 -238s-61.834 -125.833 -105.501 -167.5s-91.5 -73.334 -143.5 -95.001s-105.667 -32.5 -161 -32.5
c-62.667 0 -118.5 12 -167.5 36s-88.167 56.667 -117.5 98h-4v-517h-252v1786zM387.001 578.001v-177c0 -30.667 8.33301 -62 25 -94c17.333 -41.333 44.5 -74.166 81.5 -98.499s78.5 -36.5 124.5 -36.5c76.667 0 137.834 30 183.501 90s68.5 141.333 68.5 244
c0 90 -21.833 165 -65.5 225s-102.834 90 -177.501 90c-48.667 0 -92.667 -13.5 -132 -40.5s-68.333 -63.833 -87 -110.5c-14 -34.667 -21 -65.334 -21 -92.001z" />
    <glyph glyph-name="ydieresis" unicode="&#xff;" horiz-adv-x="1024" 
d="M16 997l279 0.000976562l178 -534c23.333 -71.333 42.333 -135.666 57 -192.999h7c24 94.667 41.667 159.667 53 195l155 532h269l-250 -680c-68 -184.667 -127.833 -324.834 -179.5 -420.501s-107.167 -169.167 -166.5 -220.5c-84.667 -72.667 -172.667 -115 -264 -127
l-58 211c48.667 11.333 97.334 34.666 146.001 69.999c25.333 16 50.666 38 75.999 66s46.333 58.667 63 92c9.33301 16.667 14 31.667 14 45c0 12.667 -4 29 -12 49zM330 1153c-35.333 0 -65.001 12.167 -89.001 36.5s-36 53.833 -36 88.5c0 36 12.333 66.167 37 90.5
s55.334 36.5 92.001 36.5c34 0 62.667 -12 86 -36s35 -54.333 35 -91c0 -34.667 -11.833 -64.167 -35.5 -88.5s-53.5 -36.5 -89.5 -36.5zM740.999 1153h-3.99902c-34.667 0 -63.834 12.167 -87.501 36.5s-35.5 53.833 -35.5 88.5c0 36 12.167 66.167 36.5 90.5
s54.5 36.5 90.5 36.5c35.333 0 64.666 -12 87.999 -36s35 -54.333 35 -91c0 -34.667 -11.667 -64.167 -35 -88.5s-52.666 -36.5 -87.999 -36.5z" />
    <glyph glyph-name="Amacron" unicode="&#x100;" horiz-adv-x="1302" 
d="M858 391h-436l-119 -391h-260l442 1380h322l448 -1380h-272zM463 582h354l-108 340c-16.667 51.333 -40 137.333 -70 258h-4c-34.667 -139.333 -56.667 -225.333 -66 -258zM389 1645h512v-142h-512v142z" />
    <glyph glyph-name="amacron" unicode="&#x101;" horiz-adv-x="1040" 
d="M909 598l-0.00195312 -358c0 -102.667 5.66699 -182.667 17 -240h-228l-18 111h-6c-30.667 -40.667 -71.667 -73.167 -123 -97.5s-108.666 -36.5 -171.999 -36.5c-96 0 -172.167 29.333 -228.5 88s-84.5 128.334 -84.5 209.001c0 123.333 51.833 217.333 155.5 282
s248.834 96.334 435.501 95.001v17c0 20 -2.5 38.667 -7.5 56s-14 35.666 -27 54.999s-33.833 34.666 -62.5 45.999s-63.667 17 -105 17c-48 0 -96.167 -6.83301 -144.5 -20.5s-89.833 -31.5 -124.5 -53.5l-49 164c41.333 25.333 93.333 46.333 156 63s131 25 205 25
c76.667 0 142.667 -11.5 198 -34.5s98 -54.833 128 -95.5s51.667 -85 65 -133s20 -101 20 -159zM663.998 350l-0.000976562 137c-232.667 2.66699 -349 -59.333 -349 -186c0 -46.667 13.333 -82.167 40 -106.5s61.334 -36.5 104.001 -36.5c48.667 0 90.5 13.167 125.5 39.5
s59.167 58.833 72.5 97.5c4.66699 14 7 32.333 7 55zM275.997 1341h490v-145h-490v145z" />
    <glyph glyph-name="Abreve" unicode="&#x102;" horiz-adv-x="1302" 
d="M858 391h-436l-119 -391h-260l442 1380h322l448 -1380h-272zM463 582h354l-108 340c-16.667 51.333 -40 137.333 -70 258h-4c-34.667 -139.333 -56.667 -225.333 -66 -258zM377 1692l138.998 -0.000976562c4.66699 -26.667 17.5 -49.5 38.5 -68.5s52.5 -28.5 94.5 -28.5
c78.667 0 124.334 32.333 137.001 97h136c-2 -72 -25.833 -130 -71.5 -174s-113.5 -66 -203.5 -66c-89.333 0 -156.166 21.833 -200.499 65.5s-67.5 101.834 -69.5 174.501z" />
    <glyph glyph-name="abreve" unicode="&#x103;" horiz-adv-x="1040" 
d="M909 598l-0.00195312 -358c0 -102.667 5.66699 -182.667 17 -240h-228l-18 111h-6c-30.667 -40.667 -71.667 -73.167 -123 -97.5s-108.666 -36.5 -171.999 -36.5c-96 0 -172.167 29.333 -228.5 88s-84.5 128.334 -84.5 209.001c0 123.333 51.833 217.333 155.5 282
s248.834 96.334 435.501 95.001v17c0 20 -2.5 38.667 -7.5 56s-14 35.666 -27 54.999s-33.833 34.666 -62.5 45.999s-63.667 17 -105 17c-48 0 -96.167 -6.83301 -144.5 -20.5s-89.833 -31.5 -124.5 -53.5l-49 164c41.333 25.333 93.333 46.333 156 63s131 25 205 25
c76.667 0 142.667 -11.5 198 -34.5s98 -54.833 128 -95.5s51.667 -85 65 -133s20 -101 20 -159zM663.998 350l-0.000976562 137c-232.667 2.66699 -349 -59.333 -349 -186c0 -46.667 13.333 -82.167 40 -106.5s61.334 -36.5 104.001 -36.5c48.667 0 90.5 13.167 125.5 39.5
s59.167 58.833 72.5 97.5c4.66699 14 7 32.333 7 55zM249.997 1409l136.998 -0.00195312c5.33301 -40.667 19.333 -73 42 -97s52.334 -36 89.001 -36c42 0 74.5 12.833 97.5 38.5s35.5 57.167 37.5 94.5h138c-1.33301 -83.333 -25.833 -150.166 -73.5 -200.499
s-113.5 -75.5 -197.5 -75.5c-88 0 -154.667 25.833 -200 77.5s-68.666 117.834 -69.999 198.501z" />
    <glyph glyph-name="Aogonek" unicode="&#x104;" horiz-adv-x="1302" 
d="M807 1380l448 -1380l-127 -2c-50 -66 -75 -120.667 -75 -164c0 -32.667 10 -59.167 30 -79.5s46 -30.5 78 -30.5c29.333 0 59.333 5.33301 90 16l37 -119c-23.333 -18.667 -52.5 -32.834 -87.5 -42.501s-68.5 -14.5 -100.5 -14.5c-66 0 -118 17 -156 51s-57 83 -57 147
c0 76.667 32 158 96 244l-123 385h-438l-119 -391h-260l442 1380h322zM463 582.001h354l-108 340c-16.667 51.333 -40 137.333 -70 258h-4c-38.667 -154 -60.667 -240 -66 -258z" />
    <glyph glyph-name="aogonek" unicode="&#x105;" horiz-adv-x="1040" 
d="M909 598l-0.00195312 -358.001c0 -101.333 5 -181.333 15 -240h-84c-40 -62.667 -60 -118.667 -60 -168c0 -34 9 -59.833 27 -77.5s42 -26.5 72 -26.5c31.333 0 62 6.66699 92 20l37 -123c-53.333 -40.667 -119 -61 -197 -61c-58.667 0 -106.167 16.833 -142.5 50.5
s-54.5 80.834 -54.5 141.501c0 69.333 27.333 152 82 248l-16 107h-6c-30.667 -40.667 -71.667 -73.167 -123 -97.5s-108.666 -36.5 -171.999 -36.5c-96 0 -172.167 29.333 -228.5 88s-84.5 128.334 -84.5 209.001c0 123.333 51.833 217.333 155.5 282
s248.834 96.334 435.501 95.001v17c0 20 -2.5 38.667 -7.5 56s-14 35.666 -27 54.999s-33.833 34.666 -62.5 45.999s-63.667 17 -105 17c-48 0 -96.167 -6.83301 -144.5 -20.5s-89.833 -31.5 -124.5 -53.5l-49 164c41.333 25.333 93.333 46.333 156 63s131 25 205 25
c76.667 0 142.667 -11.5 198 -34.5s98 -54.833 128 -95.5s51.667 -85 65 -133s20 -101 20 -159zM663.998 349.999l-0.000976562 137c-232.667 2.66699 -349 -59.333 -349 -186c0 -46.667 13.333 -82.167 40 -106.5s61.334 -36.5 104.001 -36.5
c48.667 0 90.5 13.167 125.5 39.5s59.167 58.833 72.5 97.5c4.66699 14 7 32.333 7 55z" />
    <glyph glyph-name="Cacute" unicode="&#x106;" horiz-adv-x="1204" 
d="M1094 238l41.0029 -199.001c-34 -16.667 -83 -31.167 -147 -43.5s-134.667 -18.5 -212 -18.5c-217.333 0 -389 63 -515 189s-189 295.333 -189 508c0 111.333 18.667 213 56 305s89 168.833 155 230.5s144.167 109.334 234.5 143.001s188.166 50.5 293.499 50.5
c75.333 0 142.166 -6.33301 200.499 -19s102.833 -27 133.5 -43l-53 -200c-80.667 35.333 -171 53 -271 53c-144.667 0 -261.334 -44.167 -350.001 -132.5s-133 -213.5 -133 -375.5c0 -154 42.333 -275.5 127 -364.5s202.667 -133.5 354 -133.5c105.333 0 197 16.667 275 50
zM793.003 1702h278l-256 -246h-203z" />
    <glyph glyph-name="cacute" unicode="&#x107;" horiz-adv-x="919" 
d="M834 217l34 -186.002c-72 -34 -166 -51 -282 -51c-155.333 0 -279.833 46.167 -373.5 138.5s-140.5 215.833 -140.5 370.5c0 74.667 12.667 144.334 38 209.001s61.333 120.834 108 168.501s105.167 85.167 175.5 112.5s148.166 41 233.499 41
c93.333 0 174.333 -15 243 -45l-45 -191c-53.333 26 -116.666 39 -189.999 39c-94 0 -168.667 -30.5 -224 -91.5s-82.333 -138.167 -81 -231.5c0 -100 28.667 -178.667 86 -236s130.333 -86 219 -86c68.667 0 135 13 199 39zM606 1430h246l-250 -304h-174z" />
    <glyph glyph-name="Ccircumflex" unicode="&#x108;" horiz-adv-x="1204" 
d="M1094 238l41.0029 -199.001c-34 -16.667 -83 -31.167 -147 -43.5s-134.667 -18.5 -212 -18.5c-217.333 0 -389 63 -515 189s-189 295.333 -189 508c0 111.333 18.667 213 56 305s89 168.833 155 230.5s144.167 109.334 234.5 143.001s188.166 50.5 293.499 50.5
c75.333 0 142.166 -6.33301 200.499 -19s102.833 -27 133.5 -43l-53 -200c-80.667 35.333 -171 53 -271 53c-144.667 0 -261.334 -44.167 -350.001 -132.5s-133 -213.5 -133 -375.5c0 -154 42.333 -275.5 127 -364.5s202.667 -133.5 354 -133.5c105.333 0 197 16.667 275 50
zM629.003 1706h190l211 -244h-188l-115 133h-4l-115 -133h-186z" />
    <glyph glyph-name="ccircumflex" unicode="&#x109;" horiz-adv-x="919" 
d="M834 217l34 -186.002c-72 -34 -166 -51 -282 -51c-155.333 0 -279.833 46.167 -373.5 138.5s-140.5 215.833 -140.5 370.5c0 74.667 12.667 144.334 38 209.001s61.333 120.834 108 168.501s105.167 85.167 175.5 112.5s148.166 41 233.499 41
c93.333 0 174.333 -15 243 -45l-45 -191c-53.333 26 -116.666 39 -189.999 39c-94 0 -168.667 -30.5 -224 -91.5s-82.333 -138.167 -81 -231.5c0 -100 28.667 -178.667 86 -236s130.333 -86 219 -86c68.667 0 135 13 199 39zM453 1430h170l200 -304h-174l-110 185h-4
l-109 -185h-172z" />
    <glyph glyph-name="Cdotaccent" unicode="&#x10a;" horiz-adv-x="1204" 
d="M1094 238l41.0029 -199.001c-34 -16.667 -83 -31.167 -147 -43.5s-134.667 -18.5 -212 -18.5c-217.333 0 -389 63 -515 189s-189 295.333 -189 508c0 111.333 18.667 213 56 305s89 168.833 155 230.5s144.167 109.334 234.5 143.001s188.166 50.5 293.499 50.5
c75.333 0 142.166 -6.33301 200.499 -19s102.833 -27 133.5 -43l-53 -200c-80.667 35.333 -171 53 -271 53c-144.667 0 -261.334 -44.167 -350.001 -132.5s-133 -213.5 -133 -375.5c0 -154 42.333 -275.5 127 -364.5s202.667 -133.5 354 -133.5c105.333 0 197 16.667 275 50
zM725.003 1464c-34 0 -62.999 12.501 -86.999 37.501s-36 53.5 -36 85.5c0 35.333 12.167 65 36.5 89s54.5 36 90.5 36c34 0 62.333 -12 85 -36s34 -53.667 34 -89c0 -32.667 -11.833 -61.334 -35.5 -86.001s-52.834 -37 -87.501 -37z" />
    <glyph glyph-name="cdotaccent" unicode="&#x10b;" horiz-adv-x="919" 
d="M834 217l34 -186.002c-72 -34 -166 -51 -282 -51c-155.333 0 -279.833 46.167 -373.5 138.5s-140.5 215.833 -140.5 370.5c0 74.667 12.667 144.334 38 209.001s61.333 120.834 108 168.501s105.167 85.167 175.5 112.5s148.166 41 233.499 41
c93.333 0 174.333 -15 243 -45l-45 -191c-53.333 26 -116.666 39 -189.999 39c-94 0 -168.667 -30.5 -224 -91.5s-82.333 -138.167 -81 -231.5c0 -100 28.667 -178.667 86 -236s130.333 -86 219 -86c68.667 0 135 13 199 39zM555 1151c-34.667 0 -64.168 12.333 -88.501 37
s-36.5 54.667 -36.5 90c0 36 12.333 66.167 37 90.5s55.334 36.5 92.001 36.5c34 0 62.667 -12.167 86 -36.5s35 -54.5 35 -90.5c0 -35.333 -11.667 -65.333 -35 -90s-53.333 -37 -90 -37z" />
    <glyph glyph-name="Ccaron" unicode="&#x10c;" horiz-adv-x="1204" 
d="M1094 238l41.0029 -199.001c-34 -16.667 -83 -31.167 -147 -43.5s-134.667 -18.5 -212 -18.5c-217.333 0 -389 63 -515 189s-189 295.333 -189 508c0 111.333 18.667 213 56 305s89 168.833 155 230.5s144.167 109.334 234.5 143.001s188.166 50.5 293.499 50.5
c75.333 0 142.166 -6.33301 200.499 -19s102.833 -27 133.5 -43l-53 -200c-80.667 35.333 -171 53 -271 53c-144.667 0 -261.334 -44.167 -350.001 -132.5s-133 -213.5 -133 -375.5c0 -154 42.333 -275.5 127 -364.5s202.667 -133.5 354 -133.5c105.333 0 197 16.667 275 50
zM827.003 1456h-190l-211 244h188l117 -135h4l113 135h186z" />
    <glyph glyph-name="ccaron" unicode="&#x10d;" horiz-adv-x="919" 
d="M834 217l34 -186.002c-72 -34 -166 -51 -282 -51c-155.333 0 -279.833 46.167 -373.5 138.5s-140.5 215.833 -140.5 370.5c0 74.667 12.667 144.334 38 209.001s61.333 120.834 108 168.501s105.167 85.167 175.5 112.5s148.166 41 233.499 41
c93.333 0 174.333 -15 243 -45l-45 -191c-53.333 26 -116.666 39 -189.999 39c-94 0 -168.667 -30.5 -224 -91.5s-82.333 -138.167 -81 -231.5c0 -100 28.667 -178.667 86 -236s130.333 -86 219 -86c68.667 0 135 13 199 39zM631 1126h-174l-201 304h174l113 -187h4l110 187
h172z" />
    <glyph glyph-name="Dcaron" unicode="&#x10e;" horiz-adv-x="1398" 
d="M145 4l-0.000976562 1358c136.667 19.333 270.667 29 402 29c246 0 433 -53.333 561 -160c144.667 -116.667 217 -286 217 -508c0 -236 -71.667 -419 -215 -549c-137.333 -125.333 -345.666 -188 -624.999 -188c-126 0 -239.333 6 -340 18zM396.999 1180
l-0.00195312 -990c23.333 -4 70 -6 140 -6c166 -1.33301 294.5 43.5 385.5 134.5s136.5 223.167 136.5 396.5c1.33301 152 -40.667 269.833 -126 353.5s-206.666 125.5 -363.999 125.5c-71.333 0 -128.666 -4.66699 -171.999 -14zM742.997 1456h-190l-211 244h188l117 -135
h4l113 135h186z" />
    <glyph glyph-name="dcaron" unicode="&#x10f;" horiz-adv-x="1210" 
d="M803 1454l252.002 0.00292969v-1173c0 -96.667 2.66699 -190.334 8 -281.001h-223l-13 158h-4c-30 -56 -73.5 -100.167 -130.5 -132.5s-121.167 -48.5 -192.5 -48.5c-122 0 -223.833 47.167 -305.5 141.5s-122.5 217.166 -122.5 368.499
c-0.666992 161.333 42.166 290.5 128.499 387.5s192.166 145.5 317.499 145.5c66 0 123.5 -11.833 172.5 -35.5s85.167 -54.834 108.5 -93.501h4v563zM803.002 432.003l0.000976562 149.999c0 24.667 -2 47 -6 67c-12 50.667 -37.333 92.667 -76 126s-85.667 50 -141 50
c-78.667 0 -140.334 -30.667 -185.001 -92s-67 -139.666 -67 -234.999c0 -94.667 22.167 -171.334 66.5 -230.001s105.5 -88 183.5 -88c52 0 98 16.167 138 48.5s66.333 75.5 79 129.5c5.33301 20.667 8 45.334 8 74.001zM1247 1038l-106 73.999
c42 60.667 63 125.667 63 195c0 52.667 -17 98.334 -51 137.001l166 31c18.667 -13.333 35 -34 49 -62s21 -58 21 -90c0 -112.667 -47.333 -207.667 -142 -285z" />
    <glyph glyph-name="Dcroat" unicode="&#x110;" horiz-adv-x="1411" 
d="M2 602l-0.000976562 199h156v567c136.667 19.333 270.334 29 401.001 29c249.333 0 437 -52.667 563 -158c144.667 -116.667 217 -288.667 217 -516c0 -236 -71.667 -420.333 -215 -553c-139.333 -125.333 -348 -188 -626 -188c-126 0 -239.333 6 -340 18v602h-156z
M726.999 801l-0.00195312 -199.001h-317v-416c23.333 -4 70.333 -6 141 -6c167.333 0 296.166 45.5 386.499 136.5s135.5 224.5 135.5 400.5c0.666992 156.667 -41.166 276.334 -125.499 359.001s-206.166 124 -365.499 124c-71.333 0 -128.666 -4.66699 -171.999 -14v-385
h317z" />
    <glyph glyph-name="dcroat" unicode="&#x111;" horiz-adv-x="1189" 
d="M1217 1116l-161.998 0.00292969v-835c0 -96.667 2.66699 -190.334 8 -281.001h-223l-13 158h-4c-30 -56 -73.5 -100.167 -130.5 -132.5s-121.167 -48.5 -192.5 -48.5c-122 0 -223.833 47.167 -305.5 141.5s-122.5 217.166 -122.5 368.499
c-0.666992 161.333 42.166 290.5 128.499 387.5s192.166 145.5 317.499 145.5c66 0 123.5 -11.833 172.5 -35.5s85.167 -54.834 108.5 -93.501h4v225h-387v146h387v192h252v-192h162v-146zM803.002 432.003l0.000976562 149.999c0 24.667 -2 47 -6 67
c-12 50.667 -37.333 92.667 -76 126s-85.667 50 -141 50c-78.667 0 -140.334 -30.667 -185.001 -92s-67 -139.666 -67 -234.999c0 -94.667 22.167 -171.334 66.5 -230.001s105.5 -88 183.5 -88c52 0 98 16.167 138 48.5s66.333 75.5 79 129.5
c5.33301 20.667 8 45.334 8 74.001z" />
    <glyph glyph-name="Emacron" unicode="&#x112;" horiz-adv-x="1054" 
d="M918 817v-205h-521v-405h582v-207h-834v1380h803v-206h-551v-357h521zM289 1645h512v-142h-512v142z" />
    <glyph glyph-name="emacron" unicode="&#x113;" horiz-adv-x="1056" 
d="M981 428l-668 0.000976562c2 -58 17.667 -106.833 47 -146.5s66.166 -68.167 110.499 -85.5s94.5 -26 150.5 -26c97.333 0 189.333 15 276 45l37 -172c-97.333 -42 -213.333 -63 -348 -63c-160.667 0 -286.5 45.333 -377.5 136s-136.5 213 -136.5 367
c0 70 10.667 136.833 32 200.5s51.833 120.667 91.5 171s90.834 90.5 153.501 120.5s132.667 45 210 45c62.667 0 119 -9.83301 169 -29.5s91 -45.5 123 -77.5s58.667 -69.5 80 -112.5s36.333 -86.5 45 -130.5s13 -89 13 -135c0 -40.667 -2.66699 -76.334 -8 -107.001z
M313 604.001h438.999c0.666992 26 -2.16602 52 -8.49902 78s-16.666 52 -30.999 78s-36 47.167 -65 63.5s-63.167 24.5 -102.5 24.5c-37.333 0 -70.833 -7.83301 -100.5 -23.5s-53.334 -36 -71.001 -61s-31.5 -51 -41.5 -78s-16.333 -54.167 -19 -81.5zM290.999 1341h489
v-145h-489v145z" />
    <glyph glyph-name="Ebreve" unicode="&#x114;" horiz-adv-x="1054" 
d="M918 817v-205h-521v-405h582v-207h-834v1380h803v-206h-551v-357h521zM272 1702h139.999c4.66699 -26.667 17.5 -49.334 38.5 -68.001s52.5 -28 94.5 -28c78.667 0 124.334 32 137.001 96h135c-2 -72 -25.833 -130 -71.5 -174s-113.167 -66 -202.5 -66
s-156.333 21.833 -201 65.5s-68 101.834 -70 174.501z" />
    <glyph glyph-name="ebreve" unicode="&#x115;" horiz-adv-x="1056" 
d="M981 428l-668 0.000976562c2 -58 17.667 -106.833 47 -146.5s66.166 -68.167 110.499 -85.5s94.5 -26 150.5 -26c97.333 0 189.333 15 276 45l37 -172c-97.333 -42 -213.333 -63 -348 -63c-160.667 0 -286.5 45.333 -377.5 136s-136.5 213 -136.5 367
c0 70 10.667 136.833 32 200.5s51.833 120.667 91.5 171s90.834 90.5 153.501 120.5s132.667 45 210 45c62.667 0 119 -9.83301 169 -29.5s91 -45.5 123 -77.5s58.667 -69.5 80 -112.5s36.333 -86.5 45 -130.5s13 -89 13 -135c0 -40.667 -2.66699 -76.334 -8 -107.001z
M313 604.001h438.999c0.666992 26 -2.16602 52 -8.49902 78s-16.666 52 -30.999 78s-36 47.167 -65 63.5s-63.167 24.5 -102.5 24.5c-37.333 0 -70.833 -7.83301 -100.5 -23.5s-53.334 -36 -71.001 -61s-31.5 -51 -41.5 -78s-16.333 -54.167 -19 -81.5zM263.999 1409
l137 -0.00195312c5.33301 -40.667 19.5 -73 42.5 -97s53.5 -36 91.5 -36c42 0 74.5 12.833 97.5 38.5s35.5 57.167 37.5 94.5h137c-1.33301 -83.333 -25.833 -150.166 -73.5 -200.499s-113.834 -75.5 -198.501 -75.5c-88.667 0 -155.667 25.833 -201 77.5
s-68.666 117.834 -69.999 198.501z" />
    <glyph glyph-name="Edotaccent" unicode="&#x116;" horiz-adv-x="1054" 
d="M918 817v-205h-521v-405h582v-207h-834v1380h803v-206h-551v-357h521zM532 1468c-34 0 -62.832 12.333 -86.499 37s-35.5 53.334 -35.5 86.001c0 35.333 12.167 65 36.5 89s54.5 36 90.5 36c34 0 62.167 -12 84.5 -36s33.5 -53.667 33.5 -89
c0 -32.667 -11.833 -61.334 -35.5 -86.001s-52.834 -37 -87.501 -37z" />
    <glyph glyph-name="edotaccent" unicode="&#x117;" horiz-adv-x="1056" 
d="M981 428l-668 0.000976562c2 -58 17.667 -106.833 47 -146.5s66.166 -68.167 110.499 -85.5s94.5 -26 150.5 -26c97.333 0 189.333 15 276 45l37 -172c-97.333 -42 -213.333 -63 -348 -63c-160.667 0 -286.5 45.333 -377.5 136s-136.5 213 -136.5 367
c0 70 10.667 136.833 32 200.5s51.833 120.667 91.5 171s90.834 90.5 153.501 120.5s132.667 45 210 45c62.667 0 119 -9.83301 169 -29.5s91 -45.5 123 -77.5s58.667 -69.5 80 -112.5s36.333 -86.5 45 -130.5s13 -89 13 -135c0 -40.667 -2.66699 -76.334 -8 -107.001z
M313 604.001h438.999c0.666992 26 -2.16602 52 -8.49902 78s-16.666 52 -30.999 78s-36 47.167 -65 63.5s-63.167 24.5 -102.5 24.5c-37.333 0 -70.833 -7.83301 -100.5 -23.5s-53.334 -36 -71.001 -61s-31.5 -51 -41.5 -78s-16.333 -54.167 -19 -81.5zM536.999 1151
c-34.667 0 -64.168 12.333 -88.501 37s-36.5 54.667 -36.5 90c0 36 12.333 66.167 37 90.5s55.334 36.5 92.001 36.5c34 0 62.667 -12.167 86 -36.5s35 -54.5 35 -90.5c0 -35.333 -11.667 -65.333 -35 -90s-53.333 -37 -90 -37z" />
    <glyph glyph-name="Eogonek" unicode="&#x118;" horiz-adv-x="1054" 
d="M954 -258l37.001 -123c-52.667 -36.667 -118 -55 -196 -55c-62 0 -111 15.667 -147 47s-54 75 -54 131c0 52.667 15.333 101.5 46 146.5s66.667 82.167 108 111.5h-603v1380h803v-206h-551v-357h521v-205h-521v-405h582v-207h-45c-41.333 -27.333 -77 -59.5 -107 -96.5
s-45 -71.833 -45 -104.5c0 -22.667 7.66699 -40.5 23 -53.5s35.666 -19.5 60.999 -19.5c32.667 0 62 5.33301 88 16z" />
    <glyph glyph-name="eogonek" unicode="&#x119;" horiz-adv-x="1056" 
d="M829 -254l39 -120.999c-52.667 -40.667 -118 -61 -196 -61c-60.667 0 -108.667 15.167 -144 45.5s-53 71.833 -53 124.5c0 48 14.333 93.333 43 136s62 79.334 100 110.001v2c-9.33301 -1.33301 -22.666 -2 -39.999 -2c-157.333 0.666992 -281 46.5 -371 137.5
s-135 212.833 -135 365.5c0 70 10.667 136.833 32 200.5s51.833 120.667 91.5 171s90.834 90.5 153.501 120.5s132.667 45 210 45c62.667 0 119.167 -9.83301 169.5 -29.5s91.333 -45.5 123 -77.5s58.167 -69.667 79.5 -113s36.333 -86.833 45 -130.5s13 -88.5 13 -134.5
c0 -44.667 -2.66699 -80.334 -8 -107.001h-668c1.33301 -43.333 10.666 -81.833 27.999 -115.5s40.333 -60.667 69 -81s61 -35.666 97 -45.999s74.667 -15.5 116 -15.5c98 0 189.333 15 274 45l37 -172c-26.667 -12 -56.667 -23 -90 -33
c-43.333 -20.667 -85 -51.834 -125 -93.501s-60 -80.167 -60 -115.5c0 -24.667 7.33301 -43.334 22 -56.001s32.667 -19 54 -19c35.333 0 66.666 6.66699 93.999 20zM313 604.001l438.997 -0.000976562c0.666992 26 -2.16602 52 -8.49902 78s-16.666 52 -30.999 78
s-36 47.167 -65 63.5s-63.167 24.5 -102.5 24.5c-37.333 0 -70.666 -7.66699 -99.999 -23s-52.833 -35.666 -70.5 -60.999s-31.5 -51.333 -41.5 -78s-16.667 -54 -20 -82z" />
    <glyph glyph-name="Ecaron" unicode="&#x11a;" horiz-adv-x="1054" 
d="M918 817v-205h-521v-405h582v-207h-834v1380h803v-206h-551v-357h521zM639 1454h-190l-211 244h188l117 -135h4l112 135h187z" />
    <glyph glyph-name="ecaron" unicode="&#x11b;" horiz-adv-x="1056" 
d="M981 428l-668 0.000976562c2 -58 17.667 -106.833 47 -146.5s66.166 -68.167 110.499 -85.5s94.5 -26 150.5 -26c97.333 0 189.333 15 276 45l37 -172c-97.333 -42 -213.333 -63 -348 -63c-160.667 0 -286.5 45.333 -377.5 136s-136.5 213 -136.5 367
c0 70 10.667 136.833 32 200.5s51.833 120.667 91.5 171s90.834 90.5 153.501 120.5s132.667 45 210 45c62.667 0 119 -9.83301 169 -29.5s91 -45.5 123 -77.5s58.667 -69.5 80 -112.5s36.333 -86.5 45 -130.5s13 -89 13 -135c0 -40.667 -2.66699 -76.334 -8 -107.001z
M313 604.001h438.999c0.666992 26 -2.16602 52 -8.49902 78s-16.666 52 -30.999 78s-36 47.167 -65 63.5s-63.167 24.5 -102.5 24.5c-37.333 0 -70.833 -7.83301 -100.5 -23.5s-53.334 -36 -71.001 -61s-31.5 -51 -41.5 -78s-16.333 -54.167 -19 -81.5zM622.999 1126h-174
l-201 304h174l110 -187h5l112 187h172z" />
    <glyph glyph-name="Gcircumflex" unicode="&#x11c;" horiz-adv-x="1363" 
d="M1251 762l-0.00390625 -699.002c-53.333 -20 -119.666 -37.833 -198.999 -53.5s-160.333 -23.5 -243 -23.5c-233.333 0 -414.333 61.333 -543 184c-61.333 58.667 -108.666 131.834 -141.999 219.501s-50 183.834 -50 288.501c0.666992 144 33.167 270.333 97.5 379
s154.333 192.167 270 250.5s249.167 87.5 400.5 87.5c78.667 0 150.334 -6.5 215.001 -19.5s115 -28.5 151 -46.5l-55 -203c-86.667 40 -191 60 -313 60c-151.333 0 -272.833 -43.333 -364.5 -130s-137.5 -208.667 -137.5 -366c0 -154.667 43.5 -276.667 130.5 -366
s203.167 -134 348.5 -134c84.667 0 148.334 9 191.001 27v346h-244v199h487zM656.996 1704h189l211 -244h-189l-114 133h-4l-115 -133h-186z" />
    <glyph glyph-name="gcircumflex" unicode="&#x11d;" horiz-adv-x="1173" 
d="M1038 711l0.000976562 -565.998c0 -212.667 -49 -363.334 -147 -452.001c-89.333 -80.667 -217.666 -121 -384.999 -121c-64.667 0 -128.167 7 -190.5 21s-114.833 33.667 -157.5 59l55 190c85.333 -50 182.333 -75 291 -75c87.333 0 157 24.5 209 73.5
s78 124.833 78 227.5v86h-5c-29.333 -46 -68.833 -82.167 -118.5 -108.5s-106.834 -39.5 -171.501 -39.5c-124 0 -225.667 45.833 -305 137.5s-119 208.5 -119 350.5c0 80 12.333 153.333 37 220s57.667 122.167 99 166.5s89.333 78.666 144 102.999s112 36.5 172 36.5
c133.333 0 229.666 -52 288.999 -156h4l10 133h220c-6 -102 -9 -197.333 -9 -286zM786.001 436.002l0.000976562 162c0 27.333 -2.66699 50 -8 68c-14 48 -38.833 86.833 -74.5 116.5s-79.167 44.5 -130.5 44.5c-72 0 -130.833 -29.333 -176.5 -88
s-68.5 -137.667 -68.5 -237c0 -88.667 21.5 -162 64.5 -220s102.5 -87 178.5 -87c47.333 0 89.666 14 126.999 42s63.333 65 78 111c6.66699 20.667 10 50 10 88zM502.002 1434h170l200 -304h-174l-108 185h-4l-111 -185h-172z" />
    <glyph glyph-name="Gbreve" unicode="&#x11e;" horiz-adv-x="1363" 
d="M1251 762l-0.00390625 -699.002c-53.333 -20 -119.666 -37.833 -198.999 -53.5s-160.333 -23.5 -243 -23.5c-233.333 0 -414.333 61.333 -543 184c-61.333 58.667 -108.666 131.834 -141.999 219.501s-50 183.834 -50 288.501c0.666992 144 33.167 270.333 97.5 379
s154.333 192.167 270 250.5s249.167 87.5 400.5 87.5c78.667 0 150.334 -6.5 215.001 -19.5s115 -28.5 151 -46.5l-55 -203c-86.667 40 -191 60 -313 60c-151.333 0 -272.833 -43.333 -364.5 -130s-137.5 -208.667 -137.5 -366c0 -154.667 43.5 -276.667 130.5 -366
s203.167 -134 348.5 -134c84.667 0 148.334 9 191.001 27v346h-244v199h487zM478.996 1708h138.999c4.66699 -26.667 17.667 -49.334 39 -68.001s53 -28 95 -28c78.667 0 124.334 32 137.001 96h135c-2 -72 -25.833 -130 -71.5 -174s-113.167 -66 -202.5 -66
s-156.333 21.833 -201 65.5s-68 101.834 -70 174.501z" />
    <glyph glyph-name="gbreve" unicode="&#x11f;" horiz-adv-x="1173" 
d="M1038 711l0.000976562 -565.998c0 -212.667 -49 -363.334 -147 -452.001c-89.333 -80.667 -217.666 -121 -384.999 -121c-64.667 0 -128.167 7 -190.5 21s-114.833 33.667 -157.5 59l55 190c85.333 -50 182.333 -75 291 -75c87.333 0 157 24.5 209 73.5
s78 124.833 78 227.5v86h-5c-29.333 -46 -68.833 -82.167 -118.5 -108.5s-106.834 -39.5 -171.501 -39.5c-124 0 -225.667 45.833 -305 137.5s-119 208.5 -119 350.5c0 80 12.333 153.333 37 220s57.667 122.167 99 166.5s89.333 78.666 144 102.999s112 36.5 172 36.5
c133.333 0 229.666 -52 288.999 -156h4l10 133h220c-6 -102 -9 -197.333 -9 -286zM786.001 436.002l0.000976562 162c0 27.333 -2.66699 50 -8 68c-14 48 -38.833 86.833 -74.5 116.5s-79.167 44.5 -130.5 44.5c-72 0 -130.833 -29.333 -176.5 -88
s-68.5 -137.667 -68.5 -237c0 -88.667 21.5 -162 64.5 -220s102.5 -87 178.5 -87c47.333 0 89.666 14 126.999 42s63.333 65 78 111c6.66699 20.667 10 50 10 88zM309.002 1409l136.999 -0.00195312c5.33301 -40 19.5 -72.167 42.5 -96.5s52.833 -36.5 89.5 -36.5
c42 0 74.5 12.833 97.5 38.5s35.5 57.167 37.5 94.5h137c-1.33301 -83.333 -25.833 -150.166 -73.5 -200.499s-113.167 -75.5 -196.5 -75.5c-88.667 0 -155.667 25.833 -201 77.5s-68.666 117.834 -69.999 198.501z" />
    <glyph glyph-name="Gdotaccent" unicode="&#x120;" horiz-adv-x="1363" 
d="M1251 762l-0.00390625 -699.002c-53.333 -20 -119.666 -37.833 -198.999 -53.5s-160.333 -23.5 -243 -23.5c-233.333 0 -414.333 61.333 -543 184c-61.333 58.667 -108.666 131.834 -141.999 219.501s-50 183.834 -50 288.501c0.666992 144 33.167 270.333 97.5 379
s154.333 192.167 270 250.5s249.167 87.5 400.5 87.5c78.667 0 150.334 -6.5 215.001 -19.5s115 -28.5 151 -46.5l-55 -203c-86.667 40 -191 60 -313 60c-151.333 0 -272.833 -43.333 -364.5 -130s-137.5 -208.667 -137.5 -366c0 -154.667 43.5 -276.667 130.5 -366
s203.167 -134 348.5 -134c84.667 0 148.334 9 191.001 27v346h-244v199h487zM757.996 1464l-4 0.000976562c-34 0 -63 12.5 -87 37.5s-36 53.5 -36 85.5c0 35.333 12.167 65 36.5 89s54.5 36 90.5 36c34 0 62.333 -12 85 -36s34 -53.667 34 -89
c0 -32.667 -11.5 -61.334 -34.5 -86.001s-51.167 -37 -84.5 -37z" />
    <glyph glyph-name="gdotaccent" unicode="&#x121;" horiz-adv-x="1173" 
d="M1038 711l0.000976562 -565.998c0 -212.667 -49 -363.334 -147 -452.001c-89.333 -80.667 -217.666 -121 -384.999 -121c-64.667 0 -128.167 7 -190.5 21s-114.833 33.667 -157.5 59l55 190c85.333 -50 182.333 -75 291 -75c87.333 0 157 24.5 209 73.5
s78 124.833 78 227.5v86h-5c-29.333 -46 -68.833 -82.167 -118.5 -108.5s-106.834 -39.5 -171.501 -39.5c-124 0 -225.667 45.833 -305 137.5s-119 208.5 -119 350.5c0 80 12.333 153.333 37 220s57.667 122.167 99 166.5s89.333 78.666 144 102.999s112 36.5 172 36.5
c133.333 0 229.666 -52 288.999 -156h4l10 133h220c-6 -102 -9 -197.333 -9 -286zM786.001 436.002l0.000976562 162c0 27.333 -2.66699 50 -8 68c-14 48 -38.833 86.833 -74.5 116.5s-79.167 44.5 -130.5 44.5c-72 0 -130.833 -29.333 -176.5 -88
s-68.5 -137.667 -68.5 -237c0 -88.667 21.5 -162 64.5 -220s102.5 -87 178.5 -87c47.333 0 89.666 14 126.999 42s63.333 65 78 111c6.66699 20.667 10 50 10 88zM586.002 1157h-4.00098c-34.667 0 -64.167 12.333 -88.5 37s-36.5 54.667 -36.5 90
c0 36 12.333 66.167 37 90.5s55.334 36.5 92.001 36.5c34 0 62.667 -12.167 86 -36.5s35 -54.5 35 -90.5c0 -35.333 -11.5 -65.333 -34.5 -90s-51.833 -37 -86.5 -37z" />
    <glyph glyph-name="Gcommaaccent" unicode="&#x122;" horiz-adv-x="1363" 
d="M1251 762l-0.00390625 -699.002c-53.333 -20 -119.666 -37.833 -198.999 -53.5s-160.333 -23.5 -243 -23.5c-233.333 0 -414.333 61.333 -543 184c-61.333 58.667 -108.666 131.834 -141.999 219.501s-50 183.834 -50 288.501c0.666992 144 33.167 270.333 97.5 379
s154.333 192.167 270 250.5s249.167 87.5 400.5 87.5c78.667 0 150.334 -6.5 215.001 -19.5s115 -28.5 151 -46.5l-55 -203c-86.667 40 -191 60 -313 60c-151.333 0 -272.833 -43.333 -364.5 -130s-137.5 -208.667 -137.5 -366c0 -154.667 43.5 -276.667 130.5 -366
s203.167 -134 348.5 -134c84.667 0 148.334 9 191.001 27v346h-244v199h487zM597.996 -477.002l-41.001 110.001c40 6.66699 73.833 21.167 101.5 43.5s41.5 50.833 41.5 85.5c0 40 -21 81 -63 123l178 33c22.667 -16 41.667 -37.833 57 -65.5s23 -58.5 23 -92.5
c0 -51.333 -14.167 -94.833 -42.5 -130.5s-64.166 -61.834 -107.499 -78.501s-92.333 -26 -147 -28z" />
    <glyph glyph-name="gcommaaccent" unicode="&#x123;" horiz-adv-x="1173" 
d="M1038 711l0.000976562 -565.998c0 -212.667 -49 -363.334 -147 -452.001c-89.333 -80.667 -217.666 -121 -384.999 -121c-64.667 0 -128.167 7 -190.5 21s-114.833 33.667 -157.5 59l55 190c85.333 -50 182.333 -75 291 -75c87.333 0 157 24.5 209 73.5
s78 124.833 78 227.5v86h-5c-29.333 -46 -68.833 -82.167 -118.5 -108.5s-106.834 -39.5 -171.501 -39.5c-124 0 -225.667 45.833 -305 137.5s-119 208.5 -119 350.5c0 80 12.333 153.333 37 220s57.667 122.167 99 166.5s89.333 78.666 144 102.999s112 36.5 172 36.5
c133.333 0 229.666 -52 288.999 -156h4l10 133h220c-6 -102 -9 -197.333 -9 -286zM786.001 436.002l0.000976562 162c0 27.333 -2.66699 50 -8 68c-14 48 -38.833 86.833 -74.5 116.5s-79.167 44.5 -130.5 44.5c-72 0 -130.833 -29.333 -176.5 -88
s-68.5 -137.667 -68.5 -237c0 -88.667 21.5 -162 64.5 -220s102.5 -87 178.5 -87c47.333 0 89.666 14 126.999 42s63.333 65 78 111c6.66699 20.667 10 50 10 88zM725.002 1468l41.001 -93.9971c-46.667 -6.66699 -84.334 -20.5 -113.001 -41.5s-43 -49.5 -43 -85.5
c0 -40.667 22.667 -79.667 68 -117l-172 -30c-22.667 16 -41.667 37.167 -57 63.5s-23 54.166 -23 83.499c0 71.333 28.167 125.166 84.5 161.499s127.833 56.166 214.5 59.499z" />
    <glyph glyph-name="Hcircumflex" unicode="&#x124;" horiz-adv-x="1376" 
d="M145 1380h252v-553h584v553h252v-1380h-252v608h-584v-608h-252v1380zM592 1698h190l211 -244h-188l-115 133h-4l-115 -133h-186z" />
    <glyph glyph-name="hcircumflex" unicode="&#x125;" horiz-adv-x="1171" 
d="M135 0v1454h252v-592h4c31.333 48 73 85.667 125 113c52.667 30 110.667 45 174 45c44.667 0 86.834 -7.83301 126.501 -23.5s76.5 -39.667 110.5 -72s61 -77.333 81 -135s30 -124.834 30 -201.501v-588h-252v561c0 76.667 -15.5 138.167 -46.5 184.5
s-79.5 69.5 -145.5 69.5c-46.667 0 -87.334 -13.333 -122.001 -40s-59.667 -60.334 -75 -101.001c-6.66699 -19.333 -10 -44.666 -10 -75.999v-598h-252zM174 1743h191l210 -244h-188l-115 133h-4l-114 -133h-187z" />
    <glyph glyph-name="Hbar" unicode="&#x126;" horiz-adv-x="1394" 
d="M1366 973h-125v-973h-252v565h-583v-565h-252v973h-125v153h125v254h252v-254h583v254h252v-254h125v-153zM989 784v189h-583v-189h583z" />
    <glyph glyph-name="hbar" unicode="&#x127;" horiz-adv-x="1171" 
d="M1038 0l-252 0.000976562v561c0 76.667 -15.5 138.167 -46.5 184.5s-79.5 69.5 -145.5 69.5c-46.667 0 -87.334 -13.333 -122.001 -40s-59.667 -60.334 -75 -101.001c-6.66699 -19.333 -10 -44.666 -10 -75.999v-598h-252v1116h-160v146h160v192h252v-192h385v-146h-385
v-254h4c31.333 48 73 85.667 125 113c56.667 30 114.667 45 174 45c44.667 0 86.834 -7.83301 126.501 -23.5s76.5 -39.667 110.5 -72s61 -77.333 81 -135s30 -124.834 30 -201.501v-588z" />
    <glyph glyph-name="Itilde" unicode="&#x128;" horiz-adv-x="540" 
d="M145 1380h252v-1380h-252v1380zM121 1464l-122.999 -0.000976562c-2 75.333 10.5 133.833 37.5 175.5s64.167 62.5 111.5 62.5c38 0 80.333 -13.667 127 -41c45.333 -26 77 -39 95 -39c17.333 0 30.166 5.83301 38.499 17.5s13.833 33.834 16.5 66.501h121
c4 -152.667 -46.667 -229 -152 -229c-42 0 -85 13 -129 39l-26 14l-24.5 13c-5 2.66699 -11.5 5.16699 -19.5 7.5s-15.333 3.5 -22 3.5c-30 0 -47 -30 -51 -90z" />
    <glyph glyph-name="itilde" unicode="&#x129;" horiz-adv-x="524" 
d="M387 0h-252v997h252v-997zM115 1151h-125.001c-2.66699 76.667 10 136.5 38 179.5s67 64.5 117 64.5c32.667 0 75.667 -14.333 129 -43c3.33301 -2 9.5 -5.5 18.5 -10.5s15.5 -8.5 19.5 -10.5s9.33301 -4.5 16 -7.5s12.667 -5.16699 18 -6.5s10.666 -2 15.999 -2
c16.667 0 29.334 6.33301 38.001 19s14 35.667 16 69h123c4 -158.667 -48 -238 -156 -238c-36.667 0 -81.667 14.333 -135 43c-37.333 23.333 -64.666 35 -81.999 35c-30 0 -47 -30.667 -51 -92z" />
    <glyph glyph-name="Imacron" unicode="&#x12a;" horiz-adv-x="540" 
d="M145 1380h252v-1380h-252v1380zM16 1645h512v-142h-512v142z" />
    <glyph glyph-name="imacron" unicode="&#x12b;" horiz-adv-x="524" 
d="M387 0h-252v997h252v-997zM18 1341h490v-145h-490v145z" />
    <glyph glyph-name="Ibreve" unicode="&#x12c;" horiz-adv-x="540" 
d="M145 1380h252v-1380h-252v1380zM-2 1702h138.999c4.66699 -26.667 17.5 -49.334 38.5 -68.001s52.5 -28 94.5 -28c79.333 0 125.333 32 138 96h135c-2 -72 -25.833 -130 -71.5 -174s-113.5 -66 -203.5 -66c-89.333 0 -156.166 21.833 -200.499 65.5
s-67.5 101.834 -69.5 174.501z" />
    <glyph glyph-name="ibreve" unicode="&#x12d;" horiz-adv-x="524" 
d="M387 0h-252v997h252v-997zM-4 1409l136.998 -0.00195312c5.33301 -40.667 19.333 -73 42 -97s52.334 -36 89.001 -36c42 0 74.5 12.833 97.5 38.5s35.5 57.167 37.5 94.5h138c-1.33301 -83.333 -25.833 -150.166 -73.5 -200.499s-113.5 -75.5 -197.5 -75.5
c-88 0 -154.667 25.833 -200 77.5s-68.666 117.834 -69.999 198.501z" />
    <glyph glyph-name="Iogonek" unicode="&#x12e;" horiz-adv-x="540" 
d="M397 1380v-1380h-106c-41.333 -64.667 -62 -120.667 -62 -168c0 -34 10.167 -61 30.5 -81s46.5 -30 78.5 -30s62 5.66699 90 17l37 -121c-50 -38 -113.667 -57 -191 -57c-65.333 0 -116.833 17 -154.5 51s-56.5 83 -56.5 147c0 66 27.333 146.667 82 242v1380h252z" />
    <glyph glyph-name="iogonek" unicode="&#x12f;" horiz-adv-x="524" 
d="M260 1145c-42 0 -76.333 13.5 -103 40.5s-40 60.5 -40 100.5c0 39.333 13.5 72.333 40.5 99s61.833 40 104.5 40c43.333 0 78.5 -13.167 105.5 -39.5s40.5 -59.5 40.5 -99.5s-13.5 -73.5 -40.5 -100.5s-62.833 -40.5 -107.5 -40.5zM387 997v-996.999h-104
c-41.333 -64.667 -62 -120.667 -62 -168c0 -33.333 10.167 -60.166 30.5 -80.499s46.5 -30.5 78.5 -30.5s62 5.66699 90 17l37 -121c-50 -38 -113.667 -57 -191 -57c-65.333 0 -116.833 17.167 -154.5 51.5s-56.5 83.833 -56.5 148.5c0 29.333 5.83301 62.166 17.5 98.499
s21.167 61.666 28.5 75.999l34 65.5v997h252z" />
    <glyph glyph-name="Idotaccent" unicode="&#x130;" horiz-adv-x="540" 
d="M145 1380h252v-1380h-252v1380zM270 1468c-34 0 -62.999 12.501 -86.999 37.501s-36 53.5 -36 85.5c0 35.333 12.167 65 36.5 89s54.5 36 90.5 36c34 0 62.333 -12 85 -36s34 -53.667 34 -89c0 -32.667 -11.833 -61.334 -35.5 -86.001s-52.834 -37 -87.501 -37z" />
    <glyph glyph-name="dotlessi" unicode="&#x131;" horiz-adv-x="524" 
d="M387 0h-252v997h252v-997z" />
    <glyph glyph-name="IJ" unicode="&#x132;" horiz-adv-x="1345" 
d="M145 1380h252v-1380h-252v1380zM961 494l0.000976562 886h251v-895c0 -93.333 -10.833 -173.333 -32.5 -240s-53.167 -119.167 -94.5 -157.5s-88.833 -66.333 -142.5 -84s-115.834 -26.5 -186.501 -26.5c-82.667 0 -153 11 -211 33l30 203
c46.667 -16.667 98.667 -25 156 -25c76.667 0 134.167 22.5 172.5 67.5s57.5 124.5 57.5 238.5z" />
    <glyph glyph-name="ij" unicode="&#x133;" horiz-adv-x="1077" 
d="M387 0h-252v997h252v-997zM262 1413c42 0 75.6689 -12.833 101.002 -38.5s38.666 -58.5 39.999 -98.5c0 -38 -13.167 -70 -39.5 -96s-60.833 -39 -103.5 -39c-41.333 0 -74.833 13 -100.5 39s-38.5 58 -38.5 96c0 39.333 13.167 72 39.5 98s60.166 39 101.499 39z
M463.002 -436l-25 196.002c88 6.66699 151 30.667 189 72c24 26 40.833 63.667 50.5 113s14.5 127 14.5 233v819h252v-891c0 -102.667 -10.5 -187.834 -31.5 -255.501s-54.167 -124.167 -99.5 -169.5c-40.667 -38.667 -92.5 -67.834 -155.5 -87.501
s-127.833 -29.5 -194.5 -29.5zM819.002 1413c41.333 0 74.5 -12.832 99.5 -38.499s38.167 -58.5 39.5 -98.5c0 -38.667 -13 -70.834 -39 -96.501s-60.667 -38.5 -104 -38.5c-42 0 -75.667 13 -101 39s-38 58 -38 96c0 39.333 13.167 72 39.5 98s60.833 39 103.5 39z" />
    <glyph glyph-name="Jcircumflex" unicode="&#x134;" horiz-adv-x="802" 
d="M420 494l-0.000976562 886h252v-895c0 -93.333 -10.833 -173.333 -32.5 -240s-53.167 -119.167 -94.5 -157.5s-89 -66.333 -143 -84s-116.333 -26.5 -187 -26.5c-81.333 0 -152.333 11 -213 33l31 203c48.667 -16.667 100.334 -25 155.001 -25
c76.667 0 134.5 22.5 173.5 67.5s58.5 124.5 58.5 238.5zM443.999 1698h191l211 -244h-189l-114 133h-4l-115 -133h-186z" />
    <glyph glyph-name="jcircumflex" unicode="&#x135;" horiz-adv-x="552" 
d="M-61 -436l-25 196.002c85.333 6 148 30 188 72c24 26 41 63.667 51 113s15 127 15 233v819h252v-891c0 -102.667 -10.5 -187.834 -31.5 -255.501s-54.167 -124.167 -99.5 -169.5c-40.667 -38.667 -92.5 -67.834 -155.5 -87.501s-127.833 -29.5 -194.5 -29.5zM195 1421
h170l200 -303h-174l-110 185h-5l-108 -185h-172z" />
    <glyph glyph-name="Kcommaaccent" unicode="&#x136;" horiz-adv-x="1191" 
d="M145 0l-0.000976562 1380h250v-635h6c22.667 36 56.334 86 101.001 150l362 485h310l-476 -587l506 -793h-295l-389 633l-125 -148v-485h-250zM468.999 -475l-41.001 110.001c40 6.66699 73.833 21.167 101.5 43.5s41.5 50.833 41.5 85.5c0 40 -21 81 -63 123l178 33
c22.667 -16 41.667 -37.833 57 -65.5s23 -58.5 23 -92.5c0 -51.333 -14.167 -94.833 -42.5 -130.5s-64.166 -61.834 -107.499 -78.501s-92.333 -26 -147 -28z" />
    <glyph glyph-name="kcommaaccent" unicode="&#x137;" horiz-adv-x="1042" 
d="M387 1454v-895h4c32.667 50.667 58.667 89.667 78 117l244 321h303l-371 -407l422 -590h-309l-287 440l-84 -100v-340h-252v1454h252zM391 -477l-41.002 110.001c40.667 6.66699 74.834 21 102.501 43s41.5 50.667 41.5 86c0 39.333 -21.333 80.333 -64 123l178 33
c22 -16 40.833 -38.167 56.5 -66.5s23.5 -58.833 23.5 -91.5c0 -51.333 -14.167 -94.833 -42.5 -130.5s-64.166 -61.834 -107.499 -78.501s-92.333 -26 -147 -28z" />
    <glyph glyph-name="kgreenlandic" unicode="&#x138;" horiz-adv-x="1042" 
d="M387 997v-438h4c32.667 50.667 58.667 89.667 78 117l244 321h303l-371 -407l422 -590h-309l-287 440l-84 -100v-340h-252v997h252z" />
    <glyph glyph-name="Lacute" unicode="&#x139;" horiz-adv-x="1009" 
d="M145 0v1380h252v-1169h568v-211h-820zM350 1700h279l-256 -246h-203z" />
    <glyph glyph-name="lacute" unicode="&#x13a;" horiz-adv-x="526" 
d="M135 0v1454h252v-1454h-252zM305 1761h279l-256 -245h-203z" />
    <glyph glyph-name="Lcommaaccent" unicode="&#x13b;" horiz-adv-x="1009" 
d="M145 0v1380h252v-1169h568v-211h-820zM385 -477l-41.001 110.001c40 6.66699 73.833 21.167 101.5 43.5s41.5 50.833 41.5 85.5c0 40 -21 81 -63 123l178 33c22.667 -16 41.667 -37.833 57 -65.5s23 -58.5 23 -92.5c0 -51.333 -14.167 -94.833 -42.5 -130.5
s-64.166 -61.834 -107.499 -78.501s-92.333 -26 -147 -28z" />
    <glyph glyph-name="lcommaaccent" unicode="&#x13c;" horiz-adv-x="526" 
d="M135 0v1454h252v-1454h-252zM115 -477l-41.001 110.001c40.667 6.66699 74.667 21 102 43s41 50.667 41 86c0 40 -21 81 -63 123l178 33c22 -16 40.833 -38.167 56.5 -66.5s23.5 -58.833 23.5 -91.5c0 -51.333 -14.167 -94.833 -42.5 -130.5
s-64.166 -61.834 -107.499 -78.501s-92.333 -26 -147 -28z" />
    <glyph glyph-name="Lcaron" unicode="&#x13d;" horiz-adv-x="1009" 
d="M145 0v1380h252v-1169h568v-211h-820zM569 1010l-41 110c41.333 8 75.666 22.833 102.999 44.5s41 49.834 41 84.501c0 39.333 -21.333 80.333 -64 123l178 33c22.667 -16 41.667 -37.833 57 -65.5s23 -58.5 23 -92.5c0 -51.333 -14.167 -94.833 -42.5 -130.5
s-64.166 -61.834 -107.499 -78.501s-92.333 -26 -147 -28z" />
    <glyph glyph-name="lcaron" unicode="&#x13e;" horiz-adv-x="544" 
d="M135 0v1454h252v-1454h-252zM582 1038l-115 74c42 66.667 63 131.667 63 195c0 52.667 -17 98.334 -51 137.001l166 31c18.667 -13.333 35 -34.5 49 -63.5s21 -60.5 21 -94.5c0 -17.333 -1 -34.166 -3 -50.499s-5.33301 -31.833 -10 -46.5
s-9.16699 -27.834 -13.5 -39.501s-10.5 -23.667 -18.5 -36l-19 -29.5c-4.66699 -7.33301 -11.5 -16 -20.5 -26l-18.5 -20.5c-3.33301 -3.66699 -9.33301 -9.83398 -18 -18.501z" />
    <glyph glyph-name="Ldot" unicode="&#x13f;" horiz-adv-x="1009" 
d="M145 0v1380h252v-1169h568v-211h-820zM743 645c-34 0 -62.832 12.333 -86.499 37s-35.5 53.334 -35.5 86.001c0 35.333 12.167 65 36.5 89s54.5 36 90.5 36c34 0 62.167 -12 84.5 -36s33.5 -53.667 33.5 -89c0 -32.667 -11.833 -61.334 -35.5 -86.001
s-52.834 -37 -87.501 -37z" />
    <glyph glyph-name="ldot" unicode="&#x140;" horiz-adv-x="649" 
d="M135 0v1454h252v-1454h-252zM586 686c-32.667 0 -60.001 12.1699 -82.001 36.5029s-33 53.166 -33 86.499c0 35.333 11.333 64.666 34 87.999s51 35 85 35c30.667 0 56.667 -11.833 78 -35.5s32 -52.834 32 -87.501c0 -34 -10.667 -63 -32 -87s-48.666 -36 -81.999 -36z
" />
    <glyph glyph-name="Lslash" unicode="&#x141;" horiz-adv-x="1021" 
d="M975 0h-819v514l-162 -115v181l162 114v686h252v-518l264 187v-183l-264 -186v-469h567v-211z" />
    <glyph glyph-name="lslash" unicode="&#x142;" horiz-adv-x="546" 
d="M399 0h-252v524l-135 -112v186l135 113v743h252v-555l146 121v-189l-146 -118v-713z" />
    <glyph glyph-name="Nacute" unicode="&#x143;" horiz-adv-x="1384" 
d="M377 0h-233.999v1380h289l356 -592c99.333 -170 178 -324 236 -462h4c-14.667 150 -22 341 -22 573v481h233v-1380h-262l-361 608c-102.667 176.667 -184.334 335 -245.001 475l-9 -2c10 -178 15 -373.667 15 -587v-494zM737.001 1700h279l-256 -246h-203z" />
    <glyph glyph-name="nacute" unicode="&#x144;" horiz-adv-x="1171" 
d="M135 0l0.00292969 699.997c0 83.333 -2.66699 182.333 -8 297h219l12 -149h7c26.667 46 67.5 86.167 122.5 120.5s120.5 51.5 196.5 51.5c46 0 89.167 -7.83301 129.5 -23.5s77.666 -39.5 111.999 -71.5s61.666 -76.667 81.999 -134s30.5 -123.666 30.5 -198.999v-592
h-252v563c0 76.667 -15.333 137.834 -46 183.501s-78.667 68.5 -144 68.5c-47.333 0 -88.333 -14.167 -123 -42.5s-59.334 -63.166 -74.001 -104.499c-8 -20 -12 -46.667 -12 -80v-588h-252zM635.003 1430h248l-250 -304h-174z" />
    <glyph glyph-name="Ncommaaccent" unicode="&#x145;" horiz-adv-x="1384" 
d="M377 0h-233.999v1380h289l356 -592c99.333 -170 178 -324 236 -462h4c-14.667 150 -22 341 -22 573v481h233v-1380h-262l-361 608c-102.667 176.667 -184.334 335 -245.001 475l-9 -2c10 -178 15 -373.667 15 -587v-494zM559.001 -473l-41.002 111.001
c40.667 6.66699 74.834 21.167 102.501 43.5s41.5 50.833 41.5 85.5c0 40 -22 80.667 -66 122l180 33c22.667 -16 41.667 -37.833 57 -65.5s23 -58.5 23 -92.5c0 -51.333 -14.167 -94.833 -42.5 -130.5s-64.166 -61.834 -107.499 -78.501s-92.333 -26 -147 -28z" />
    <glyph glyph-name="ncommaaccent" unicode="&#x146;" horiz-adv-x="1171" 
d="M135 0l0.00292969 699.997c0 83.333 -2.66699 182.333 -8 297h219l12 -149h7c26.667 46 67.5 86.167 122.5 120.5s120.5 51.5 196.5 51.5c46 0 89.167 -7.83301 129.5 -23.5s77.666 -39.5 111.999 -71.5s61.666 -76.667 81.999 -134s30.5 -123.666 30.5 -198.999v-592
h-252v563c0 76.667 -15.333 137.834 -46 183.501s-78.667 68.5 -144 68.5c-47.333 0 -88.333 -14.167 -123 -42.5s-59.334 -63.166 -74.001 -104.499c-8 -20 -12 -46.667 -12 -80v-588h-252zM455.003 -475.003l-41 110c40.667 6.66699 75 21 103 43s42 50.667 42 86
c0 38.667 -21.667 79.667 -65 123l180 33c22 -16 40.833 -38.167 56.5 -66.5s23.5 -58.833 23.5 -91.5c0 -75.333 -28.333 -132.833 -85 -172.5s-128 -61.167 -214 -64.5z" />
    <glyph glyph-name="Ncaron" unicode="&#x147;" horiz-adv-x="1384" 
d="M377 0h-233.999v1380h289l356 -592c99.333 -170 178 -324 236 -462h4c-14.667 150 -22 341 -22 573v481h233v-1380h-262l-361 608c-102.667 176.667 -184.334 335 -245.001 475l-9 -2c10 -178 15 -373.667 15 -587v-494zM793.001 1448h-189l-211 244h189l116 -136h4
l113 136h186z" />
    <glyph glyph-name="ncaron" unicode="&#x148;" horiz-adv-x="1171" 
d="M135 0l0.00292969 699.997c0 83.333 -2.66699 182.333 -8 297h219l12 -149h7c26.667 46 67.5 86.167 122.5 120.5s120.5 51.5 196.5 51.5c46 0 89.167 -7.83301 129.5 -23.5s77.666 -39.5 111.999 -71.5s61.666 -76.667 81.999 -134s30.5 -123.666 30.5 -198.999v-592
h-252v563c0 76.667 -15.333 137.834 -46 183.501s-78.667 68.5 -144 68.5c-47.333 0 -88.333 -14.167 -123 -42.5s-59.334 -63.166 -74.001 -104.499c-8 -20 -12 -46.667 -12 -80v-588h-252zM672.003 1126h-172l-201 304h174l111 -187h4l112 187h172z" />
    <glyph glyph-name="napostrophe" unicode="&#x149;" horiz-adv-x="1171" 
d="M135 0l0.00292969 699.997c0 83.333 -2.66699 182.333 -8 297h219l12 -149h7c26.667 46 67.5 86.167 122.5 120.5s120.5 51.5 196.5 51.5c46 0 89.167 -7.83301 129.5 -23.5s77.666 -39.5 111.999 -71.5s61.666 -76.667 81.999 -134s30.5 -123.666 30.5 -198.999v-592
h-252v563c0 76.667 -15.333 137.834 -46 183.501s-78.667 68.5 -144 68.5c-47.333 0 -88.333 -14.167 -123 -42.5s-59.334 -63.166 -74.001 -104.499c-8 -20 -12 -46.667 -12 -80v-588h-252zM135.003 1085l-108 71.999c44.667 62.667 67 120.667 67 174
c0 46.667 -17 85.667 -51 117l170 43c17.333 -11.333 33 -30.666 47 -57.999s21 -58.666 21 -93.999c0 -96.667 -48.667 -181.334 -146 -254.001z" />
    <glyph glyph-name="Eng" unicode="&#x14a;" horiz-adv-x="1384" 
d="M377 0h-233.999v1380h289l356 -592c99.333 -170 178 -324 236 -462l4 2c-14.667 148 -22 338.333 -22 571v481h233v-1290c0 -306.667 -144.667 -478.667 -434 -516l-55 193c74.667 16.667 131.667 41.667 171 75s63.333 78.333 72 135l-377 631
c-102.667 176.667 -184.334 335 -245.001 475l-9 -2c10 -178 15 -373.667 15 -587v-494z" />
    <glyph glyph-name="eng" unicode="&#x14b;" horiz-adv-x="1171" 
d="M135 0l0.00195312 699.997c0 83.333 -2.66699 182.333 -8 297h219l12 -149h7c26.667 46 67.5 86.167 122.5 120.5s120.5 51.5 196.5 51.5c46 0 89.167 -7.83301 129.5 -23.5s77.666 -39.5 111.999 -71.5s61.666 -76.667 81.999 -134s30.5 -123.666 30.5 -198.999v-471
c0 -300 -135.667 -468.667 -407 -506l-49 199c70.667 14 122.334 42.333 155.001 85s49 105 49 187v477c0 76.667 -15.333 137.834 -46 183.501s-78.667 68.5 -144 68.5c-47.333 0 -88.333 -14.167 -123 -42.5s-59.334 -63.166 -74.001 -104.499c-8 -20 -12 -46.667 -12 -80
v-588h-252z" />
    <glyph glyph-name="Omacron" unicode="&#x14c;" horiz-adv-x="1441" 
d="M731 1405c98 0 187.502 -18.001 268.502 -54.001s148.333 -85.333 202 -148s95.167 -136.667 124.5 -222s44 -177.333 44 -276c0 -113.333 -16.5 -216.166 -49.5 -308.499s-78.833 -169 -137.5 -230s-128.334 -107.833 -209.001 -140.5s-168.334 -49 -263.001 -49
c-128 0 -240.5 30.5 -337.5 91.5s-171.167 144.667 -222.5 251s-77 226.5 -77 360.5c0 140.667 27.5 266 82.5 376s132.5 195.667 232.5 257s214 92 342 92zM723.002 1202c-60.667 0 -115.5 -13.499 -164.5 -40.499s-89.333 -64 -121 -111s-55.834 -101.5 -72.501 -163.5
s-25 -129 -25 -201c0 -95.333 14.833 -180.833 44.5 -256.5s73.834 -136.167 132.501 -181.5s127.334 -68 206.001 -68c79.333 0 148.166 23 206.499 69s102 107.667 131 185s43.5 164.666 43.5 261.999c0 89.333 -13.833 171.5 -41.5 246.5s-71 137 -130 186
s-128.833 73.5 -209.5 73.5zM467.002 1651h512v-142h-512v142z" />
    <glyph glyph-name="omacron" unicode="&#x14d;" horiz-adv-x="1155" 
d="M588 1020c148 0 267.499 -47.332 358.499 -141.999s136.5 -218 136.5 -370c0 -88 -14.667 -166.833 -44 -236.5s-68.5 -125.5 -117.5 -167.5s-103.333 -73.667 -163 -95s-122.167 -32 -187.5 -32c-144 0 -263.167 46.5 -357.5 139.5s-141.5 218.167 -141.5 375.5
c0 161.333 47.833 289.666 143.5 384.999s219.834 143 372.501 143zM581.999 838.001c-42.667 0 -80.5 -9.83105 -113.5 -29.498s-59.167 -46 -78.5 -79s-33.833 -69 -43.5 -108s-14.5 -80.167 -14.5 -123.5c0 -98 22.667 -178.833 68 -242.5s105.333 -95.5 180 -95.5
c71.333 0 129.666 31.667 174.999 95s68 145.666 68 246.999c0 40.667 -4.66699 80.167 -14 118.5s-23.166 74.166 -41.499 107.499s-43.5 60 -75.5 80s-68.667 30 -110 30zM333.999 1341h489v-145h-489v145z" />
    <glyph glyph-name="Obreve" unicode="&#x14e;" horiz-adv-x="1441" 
d="M731 1405c98 0 187.502 -18.001 268.502 -54.001s148.333 -85.333 202 -148s95.167 -136.667 124.5 -222s44 -177.333 44 -276c0 -113.333 -16.5 -216.166 -49.5 -308.499s-78.833 -169 -137.5 -230s-128.334 -107.833 -209.001 -140.5s-168.334 -49 -263.001 -49
c-128 0 -240.5 30.5 -337.5 91.5s-171.167 144.667 -222.5 251s-77 226.5 -77 360.5c0 140.667 27.5 266 82.5 376s132.5 195.667 232.5 257s214 92 342 92zM723.002 1202c-60.667 0 -115.5 -13.499 -164.5 -40.499s-89.333 -64 -121 -111s-55.834 -101.5 -72.501 -163.5
s-25 -129 -25 -201c0 -95.333 14.833 -180.833 44.5 -256.5s73.834 -136.167 132.501 -181.5s127.334 -68 206.001 -68c79.333 0 148.166 23 206.499 69s102 107.667 131 185s43.5 164.666 43.5 261.999c0 89.333 -13.833 171.5 -41.5 246.5s-71 137 -130 186
s-128.833 73.5 -209.5 73.5zM449.002 1714l138.998 0.000976562c4.66699 -26.667 17.5 -49.334 38.5 -68.001s52.5 -28 94.5 -28c78.667 0 124.334 32 137.001 96h135c-2 -72 -25.667 -129.833 -71 -173.5s-113 -65.5 -203 -65.5c-89.333 0 -156.166 21.667 -200.499 65
s-67.5 101.333 -69.5 174z" />
    <glyph glyph-name="obreve" unicode="&#x14f;" horiz-adv-x="1155" 
d="M588 1020c148 0 267.499 -47.332 358.499 -141.999s136.5 -218 136.5 -370c0 -88 -14.667 -166.833 -44 -236.5s-68.5 -125.5 -117.5 -167.5s-103.333 -73.667 -163 -95s-122.167 -32 -187.5 -32c-144 0 -263.167 46.5 -357.5 139.5s-141.5 218.167 -141.5 375.5
c0 161.333 47.833 289.666 143.5 384.999s219.834 143 372.501 143zM581.999 838.001c-42.667 0 -80.5 -9.83105 -113.5 -29.498s-59.167 -46 -78.5 -79s-33.833 -69 -43.5 -108s-14.5 -80.167 -14.5 -123.5c0 -98 22.667 -178.833 68 -242.5s105.333 -95.5 180 -95.5
c71.333 0 129.666 31.667 174.999 95s68 145.666 68 246.999c0 40.667 -4.66699 80.167 -14 118.5s-23.166 74.166 -41.499 107.499s-43.5 60 -75.5 80s-68.667 30 -110 30zM304.999 1409l136.999 -0.00195312c5.33301 -40.667 19.333 -73 42 -97s53 -36 91 -36
c42 0 74.667 12.833 98 38.5s36 57.167 38 94.5h137c-1.33301 -83.333 -26 -150.166 -74 -200.499s-114.333 -75.5 -199 -75.5c-88 0 -154.667 25.833 -200 77.5s-68.666 117.834 -69.999 198.501z" />
    <glyph glyph-name="Ohungarumlaut" unicode="&#x150;" horiz-adv-x="1441" 
d="M731 1405c98 0 187.502 -18.001 268.502 -54.001s148.333 -85.333 202 -148s95.167 -136.667 124.5 -222s44 -177.333 44 -276c0 -113.333 -16.5 -216.166 -49.5 -308.499s-78.833 -169 -137.5 -230s-128.334 -107.833 -209.001 -140.5s-168.334 -49 -263.001 -49
c-128 0 -240.5 30.5 -337.5 91.5s-171.167 144.667 -222.5 251s-77 226.5 -77 360.5c0 140.667 27.5 266 82.5 376s132.5 195.667 232.5 257s214 92 342 92zM723.002 1202c-60.667 0 -115.5 -13.499 -164.5 -40.499s-89.333 -64 -121 -111s-55.834 -101.5 -72.501 -163.5
s-25 -129 -25 -201c0 -95.333 14.833 -180.833 44.5 -256.5s73.834 -136.167 132.501 -181.5s127.334 -68 206.001 -68c79.333 0 148.166 23 206.499 69s102 107.667 131 185s43.5 164.666 43.5 261.999c0 89.333 -13.833 171.5 -41.5 246.5s-71 137 -130 186
s-128.833 73.5 -209.5 73.5zM612.002 1706h246l-217 -233h-176zM950.002 1706h248l-217 -233h-176z" />
    <glyph glyph-name="ohungarumlaut" unicode="&#x151;" horiz-adv-x="1155" 
d="M588 1020c148 0 267.499 -47.332 358.499 -141.999s136.5 -218 136.5 -370c0 -88 -14.667 -166.833 -44 -236.5s-68.5 -125.5 -117.5 -167.5s-103.333 -73.667 -163 -95s-122.167 -32 -187.5 -32c-144 0 -263.167 46.5 -357.5 139.5s-141.5 218.167 -141.5 375.5
c0 161.333 47.833 289.666 143.5 384.999s219.834 143 372.501 143zM581.999 838.001c-42.667 0 -80.5 -9.83105 -113.5 -29.498s-59.167 -46 -78.5 -79s-33.833 -69 -43.5 -108s-14.5 -80.167 -14.5 -123.5c0 -98 22.667 -178.833 68 -242.5s105.333 -95.5 180 -95.5
c71.333 0 129.666 31.667 174.999 95s68 145.666 68 246.999c0 40.667 -4.66699 80.167 -14 118.5s-23.166 74.166 -41.499 107.499s-43.5 60 -75.5 80s-68.667 30 -110 30zM443.999 1427h215l-210 -292h-148zM773.999 1427h213l-211 -292h-147z" />
    <glyph glyph-name="OE" unicode="&#x152;" horiz-adv-x="1878" 
d="M1800 209l-0.00195312 -208.999h-745c-6 0 -49.667 -3.33301 -131 -10c-70.667 -8.66699 -126.667 -13 -168 -13c-88.667 0 -170.167 12.167 -244.5 36.5s-138.166 58 -191.499 101s-98.666 94 -135.999 153s-65 123.167 -83 192.5s-27 142.666 -27 219.999
c0 222 63.167 398.333 189.5 529s292.5 196 498.5 196c64 0 124.667 -4.66699 182 -14c8.66699 -0.666992 29 -2.66699 61 -6s55.333 -5 70 -5h694v-206h-550v-357h520v-205h-520v-403h581zM966.998 205.001v968.999c-46.667 18.667 -109 28 -187 28
c-130.667 0 -236.667 -46.167 -318 -138.5s-122 -216.833 -122 -373.5c0 -153.333 40.5 -276.666 121.5 -369.999s193.5 -140 337.5 -140c69.333 0 125.333 8.33301 168 25z" />
    <glyph glyph-name="oe" unicode="&#x153;" horiz-adv-x="1773" 
d="M1700 432l-651.002 -0.00195312c2 -82 31 -146.5 87 -193.5s126.667 -70.5 212 -70.5c88.667 0 179.334 17.667 272.001 53l37 -172c-44 -24.667 -97.833 -42.834 -161.5 -54.501s-124.5 -17.5 -182.5 -17.5c-174 0 -300.333 67.667 -379 203h-6
c-38.667 -66.667 -91.667 -117.167 -159 -151.5s-140.666 -51.5 -219.999 -51.5c-88.667 0 -169 20.667 -241 62s-129.333 101.5 -172 180.5s-64 170.5 -64 274.5c0 158.667 46.167 286 138.5 382s210.5 144 354.5 144c79.333 0 151.5 -17.833 216.5 -53.5
s113.833 -86.167 146.5 -151.5h4c38.667 67.333 88.667 118.333 150 153s130 52 206 52c60.667 0 115.5 -10 164.5 -30s89 -46.167 120 -78.5s56.833 -70.166 77.5 -113.499s35.167 -86.666 43.5 -129.999s12.5 -87.666 12.5 -132.999c0 -32.667 -2 -67 -6 -103z
M572.998 837.998c-43.333 0 -81.3301 -10.332 -113.997 -30.999s-57.834 -48.334 -75.501 -83.001s-30.667 -71 -39 -109s-12.5 -77.667 -12.5 -119c0 -96 22.167 -176 66.5 -240s102.5 -96 174.5 -96c73.333 0 131.666 30.833 174.999 92.5s65 143.5 65 245.5
c0 44.667 -4.83301 86.667 -14.5 126s-23.834 75.333 -42.501 108s-43.667 58.5 -75 77.5s-67.333 28.5 -108 28.5zM1044 605.999l426.003 0.00195312c0.666992 26 -1.83301 51.5 -7.5 76.5s-15.334 50.667 -29.001 77s-34.834 47.666 -63.501 63.999
s-63.334 24.5 -104.001 24.5c-35.333 0 -67.333 -7.83301 -96 -23.5s-51.5 -35.834 -68.5 -60.501s-30.333 -50.5 -40 -77.5s-15.5 -53.833 -17.5 -80.5z" />
    <glyph glyph-name="Racute" unicode="&#x154;" horiz-adv-x="1165" 
d="M145 0v1360c110 20.667 237 31 381 31c194.667 0 336.667 -37 426 -111c79.333 -66 119 -159 119 -279c0 -84 -24.167 -156.167 -72.5 -216.5s-108.166 -102.833 -179.499 -127.5v-6c93.333 -34.667 157.666 -123.334 192.999 -266.001l25.5 -99.5l25 -96.5l20.5 -78.5
c7.33301 -27.667 14 -50.5 20 -68.5s11.667 -32 17 -42h-258c-26 53.333 -56.667 162 -92 326c-20 89.333 -48.333 151.333 -85 186s-91 53 -163 55h-127v-567h-250zM395 1188v-436h150c84.667 0 151.5 20.667 200.5 62s73.5 96.333 73.5 165
c0 73.333 -23.667 128.5 -71 165.5s-113 55.5 -197 55.5c-70.667 0 -122.667 -4 -156 -12zM610 1704h279l-256 -246h-203z" />
    <glyph glyph-name="racute" unicode="&#x155;" horiz-adv-x="729" 
d="M135 0l0.00195312 676c0 136 -2.66699 243 -8 321h217l10 -188h6c23.333 66.667 60.666 118.5 111.999 155.5s105.666 55.5 162.999 55.5c19.333 0 39 -2 59 -6v-236c-22.667 4 -48 6 -76 6c-58.667 0 -108 -17.167 -148 -51.5s-65.667 -80.5 -77 -138.5
c-4 -22.667 -6 -48 -6 -76v-518h-252zM436.002 1430h248l-250 -304h-174z" />
    <glyph glyph-name="Rcommaaccent" unicode="&#x156;" horiz-adv-x="1165" 
d="M145 0v1360c110 20.667 237 31 381 31c194.667 0 336.667 -37 426 -111c79.333 -66 119 -159 119 -279c0 -84 -24.167 -156.167 -72.5 -216.5s-108.166 -102.833 -179.499 -127.5v-6c93.333 -34.667 157.666 -123.334 192.999 -266.001l25.5 -99.5l25 -96.5l20.5 -78.5
c7.33301 -27.667 14 -50.5 20 -68.5s11.667 -32 17 -42h-258c-26 53.333 -56.667 162 -92 326c-20 89.333 -48.333 151.333 -85 186s-91 53 -163 55h-127v-567h-250zM395 1188v-436h150c84.667 0 151.5 20.667 200.5 62s73.5 96.333 73.5 165
c0 73.333 -23.667 128.5 -71 165.5s-113 55.5 -197 55.5c-70.667 0 -122.667 -4 -156 -12zM451 -466.999l-40.999 111c40 6.66699 73.833 21.167 101.5 43.5s41.5 50.833 41.5 85.5c0 39.333 -21.333 80.333 -64 123l179 32c22.667 -16 41.667 -37.667 57 -65s23 -58 23 -92
c0 -75.333 -28.333 -133 -85 -173s-127.334 -61.667 -212.001 -65z" />
    <glyph glyph-name="rcommaaccent" unicode="&#x157;" horiz-adv-x="729" 
d="M135 0l0.00195312 676c0 136 -2.66699 243 -8 321h217l10 -188h6c23.333 66.667 60.666 118.5 111.999 155.5s105.666 55.5 162.999 55.5c19.333 0 39 -2 59 -6v-236c-22.667 4 -48 6 -76 6c-58.667 0 -108 -17.167 -148 -51.5s-65.667 -80.5 -77 -138.5
c-4 -22.667 -6 -48 -6 -76v-518h-252zM129.002 -477l-41.001 110.001c40.667 6.66699 74.667 21 102 43s41 50.667 41 86c0 40 -21 81 -63 123l178 33c22 -16 40.833 -38.167 56.5 -66.5s23.5 -58.833 23.5 -91.5c0 -51.333 -14.167 -94.833 -42.5 -130.5
s-64.166 -61.834 -107.499 -78.501s-92.333 -26 -147 -28z" />
    <glyph glyph-name="Rcaron" unicode="&#x158;" horiz-adv-x="1165" 
d="M145 0v1360c110 20.667 237 31 381 31c194.667 0 336.667 -37 426 -111c79.333 -66 119 -159 119 -279c0 -84 -24.167 -156.167 -72.5 -216.5s-108.166 -102.833 -179.499 -127.5v-6c93.333 -34.667 157.666 -123.334 192.999 -266.001l25.5 -99.5l25 -96.5l20.5 -78.5
c7.33301 -27.667 14 -50.5 20 -68.5s11.667 -32 17 -42h-258c-26 53.333 -56.667 162 -92 326c-20 89.333 -48.333 151.333 -85 186s-91 53 -163 55h-127v-567h-250zM395 1188v-436h150c84.667 0 151.5 20.667 200.5 62s73.5 96.333 73.5 165
c0 73.333 -23.667 128.5 -71 165.5s-113 55.5 -197 55.5c-70.667 0 -122.667 -4 -156 -12zM666 1456h-191l-211 244h189l116 -135h4l113 135h186z" />
    <glyph glyph-name="rcaron" unicode="&#x159;" horiz-adv-x="729" 
d="M135 0l0.00195312 676c0 136 -2.66699 243 -8 321h217l10 -188h6c23.333 66.667 60.666 118.5 111.999 155.5s105.666 55.5 162.999 55.5c19.333 0 39 -2 59 -6v-236c-22.667 4 -48 6 -76 6c-58.667 0 -108 -17.167 -148 -51.5s-65.667 -80.5 -77 -138.5
c-4 -22.667 -6 -48 -6 -76v-518h-252zM479.002 1126h-172l-201 304h175l108 -187h4l115 187h172z" />
    <glyph glyph-name="Sacute" unicode="&#x15a;" horiz-adv-x="1062" 
d="M84 66l57.0029 208.001c43.333 -25.333 94.5 -46.333 153.5 -63s119.167 -25 180.5 -25c78.667 0 140 17.167 184 51.5s66 80.166 66 137.499c0 51.333 -18.667 94.333 -56 129s-100 68 -188 100c-121.333 43.333 -214.166 97.333 -278.499 162s-96.5 144.667 -96.5 240
c0 115.333 44.667 210.333 134 285s208 112 356 112c129.333 0 239.333 -23.333 330 -70l-60 -203c-83.333 44 -175.333 66 -276 66c-74.667 0 -131.334 -16.333 -170.001 -49s-58 -71.667 -58 -117c0 -50.667 19.5 -91.5 58.5 -122.5s107.833 -65.833 206.5 -104.5
c122 -46 211.5 -101.333 268.5 -166s85.5 -146 85.5 -244c0 -56.667 -10.833 -109.667 -32.5 -159s-53.334 -93.333 -95.001 -132s-96.334 -69.167 -164.001 -91.5s-144.5 -33.5 -230.5 -33.5c-70.667 0 -140.834 8.66699 -210.501 26s-124.5 38.333 -164.5 63z
M606.003 1704h277l-256 -246h-203z" />
    <glyph glyph-name="sacute" unicode="&#x15b;" horiz-adv-x="854" 
d="M74 49l50.999 184.001c30 -18.667 69.167 -35.5 117.5 -50.5s93.833 -22.5 136.5 -22.5c53.333 0 93.333 10 120 30s40 47.333 40 82c0 33.333 -11.667 60.333 -35 81s-66.333 42.334 -129 65.001c-94 32 -163.333 73 -208 123s-67 106 -67 168
c0 90 34.5 164.333 103.5 223s160.167 88 273.5 88c107.333 0 196 -19.667 266 -59l-51 -177c-24.667 15.333 -56 28.833 -94 40.5s-77 17.5 -117 17.5c-44 0 -78.167 -10 -102.5 -30s-36.5 -45.667 -36.5 -77c0 -30.667 12.333 -55.334 37 -74.001
s70.334 -40.334 137.001 -65.001c91.333 -31.333 158.333 -71.333 201 -120s64.334 -109.667 65.001 -183c0 -94 -35.333 -169.667 -106 -227s-170.334 -86 -299.001 -86c-118.667 0 -219.667 23 -303 69zM499.999 1430h245l-249 -304h-174z" />
    <glyph glyph-name="Scircumflex" unicode="&#x15c;" horiz-adv-x="1062" 
d="M84 66l57.0029 208.001c43.333 -25.333 94.5 -46.333 153.5 -63s119.167 -25 180.5 -25c78.667 0 140 17.167 184 51.5s66 80.166 66 137.499c0 51.333 -18.667 94.333 -56 129s-100 68 -188 100c-121.333 43.333 -214.166 97.333 -278.499 162s-96.5 144.667 -96.5 240
c0 115.333 44.667 210.333 134 285s208 112 356 112c129.333 0 239.333 -23.333 330 -70l-60 -203c-83.333 44 -175.333 66 -276 66c-74.667 0 -131.334 -16.333 -170.001 -49s-58 -71.667 -58 -117c0 -50.667 19.5 -91.5 58.5 -122.5s107.833 -65.833 206.5 -104.5
c122 -46 211.5 -101.333 268.5 -166s85.5 -146 85.5 -244c0 -56.667 -10.833 -109.667 -32.5 -159s-53.334 -93.333 -95.001 -132s-96.334 -69.167 -164.001 -91.5s-144.5 -33.5 -230.5 -33.5c-70.667 0 -140.834 8.66699 -210.501 26s-124.5 38.333 -164.5 63z
M440.003 1702h189l211 -244h-189l-114 133h-5l-114 -133h-187z" />
    <glyph glyph-name="scircumflex" unicode="&#x15d;" horiz-adv-x="854" 
d="M74 49l50.999 184.001c30 -18.667 69.167 -35.5 117.5 -50.5s93.833 -22.5 136.5 -22.5c53.333 0 93.333 10 120 30s40 47.333 40 82c0 33.333 -11.667 60.333 -35 81s-66.333 42.334 -129 65.001c-94 32 -163.333 73 -208 123s-67 106 -67 168
c0 90 34.5 164.333 103.5 223s160.167 88 273.5 88c107.333 0 196 -19.667 266 -59l-51 -177c-24.667 15.333 -56 28.833 -94 40.5s-77 17.5 -117 17.5c-44 0 -78.167 -10 -102.5 -30s-36.5 -45.667 -36.5 -77c0 -30.667 12.333 -55.334 37 -74.001
s70.334 -40.334 137.001 -65.001c91.333 -31.333 158.333 -71.333 201 -120s64.334 -109.667 65.001 -183c0 -94 -35.333 -169.667 -106 -227s-170.334 -86 -299.001 -86c-118.667 0 -219.667 23 -303 69zM345.999 1430h170l201 -304h-174l-109 185h-4l-111 -185h-172z" />
    <glyph glyph-name="Scedilla" unicode="&#x15e;" horiz-adv-x="1062" 
d="M84 66l57 208.004c43.333 -25.333 94.5 -46.333 153.5 -63s119.167 -25 180.5 -25c78.667 0 140 17.167 184 51.5s66 80.166 66 137.499c0 51.333 -18.667 94.333 -56 129s-100 68 -188 100c-121.333 43.333 -214.166 97.333 -278.499 162s-96.5 144.667 -96.5 240
c0 115.333 44.667 210.333 134 285s208 112 356 112c129.333 0 239.333 -23.333 330 -70l-60 -203c-83.333 44 -175.333 66 -276 66c-74.667 0 -131.334 -16.333 -170.001 -49s-58 -71.667 -58 -117c0 -50.667 19.5 -91.5 58.5 -122.5s107.833 -65.833 206.5 -104.5
c122 -46 211.5 -101.333 268.5 -166s85.5 -146 85.5 -244c0 -98.667 -32.167 -184.834 -96.5 -258.501s-157.833 -121.834 -280.5 -144.501l-51 -86c40 -5.33301 74.167 -21.5 102.5 -48.5s42.5 -59.5 42.5 -97.5c0 -58.667 -21.833 -102 -65.5 -130
s-98.834 -42 -165.501 -42c-62 0 -114 13 -156 39l37 101c40 -20.667 77.667 -31 113 -31c22.667 0 41.334 4.66699 56.001 14s22 23.666 22 42.999c0 45.333 -53.333 72 -160 80l78 145h-8c-60.667 0 -126 8.5 -196 25.5s-126.333 38.167 -169 63.5z" />
    <glyph glyph-name="scedilla" unicode="&#x15f;" horiz-adv-x="854" 
d="M72 49l53.001 181.998c30.667 -18 70.167 -34.333 118.5 -49s93.5 -22 135.5 -22c53.333 0 93.333 10 120 30s40 47.333 40 82c0 33.333 -11.667 60.333 -35 81s-66.333 42.334 -129 65.001c-94 32 -163.333 73 -208 123s-67 106 -67 168c0 90 34.5 164.333 103.5 223
s160.167 88 273.5 88c107.333 0 196 -19.667 266 -59l-51 -177c-24.667 15.333 -56 28.833 -94 40.5s-77 17.5 -117 17.5c-44 0 -78.167 -10 -102.5 -30s-36.5 -45.667 -36.5 -77c0 -30.667 12.333 -55.334 37 -74.001s70.334 -40.334 137.001 -65.001
c91.333 -31.333 158.5 -71.5 201.5 -120.5s64.5 -109.833 64.5 -182.5c0 -77.333 -24.667 -142.833 -74 -196.5s-120 -89.167 -212 -106.5l-50 -86c40 -5.33301 74.333 -21.166 103 -47.499s43 -59.166 43 -98.499c0 -59.333 -22 -102.833 -66 -130.5s-100 -41.5 -168 -41.5
c-61.333 0 -112.333 13 -153 39l37 101c40 -20.667 76.667 -31 110 -31c53.333 0 80 19 80 57c0 45.333 -53.333 72 -160 80l78 148h-4c-38.667 0 -83.334 5.83301 -134.001 17.5s-97.334 28.834 -140.001 51.501z" />
    <glyph glyph-name="Scaron" unicode="&#x160;" horiz-adv-x="1062" 
d="M84 66l57.0029 208.001c43.333 -25.333 94.5 -46.333 153.5 -63s119.167 -25 180.5 -25c78.667 0 140 17.167 184 51.5s66 80.166 66 137.499c0 51.333 -18.667 94.333 -56 129s-100 68 -188 100c-121.333 43.333 -214.166 97.333 -278.499 162s-96.5 144.667 -96.5 240
c0 115.333 44.667 210.333 134 285s208 112 356 112c129.333 0 239.333 -23.333 330 -70l-60 -203c-83.333 44 -175.333 66 -276 66c-74.667 0 -131.334 -16.333 -170.001 -49s-58 -71.667 -58 -117c0 -50.667 19.5 -91.5 58.5 -122.5s107.833 -65.833 206.5 -104.5
c122 -46 211.5 -101.333 268.5 -166s85.5 -146 85.5 -244c0 -56.667 -10.833 -109.667 -32.5 -159s-53.334 -93.333 -95.001 -132s-96.334 -69.167 -164.001 -91.5s-144.5 -33.5 -230.5 -33.5c-70.667 0 -140.834 8.66699 -210.501 26s-124.5 38.333 -164.5 63z
M649.003 1456h-190l-211 244h188l117 -135h4l113 135h186z" />
    <glyph glyph-name="scaron" unicode="&#x161;" horiz-adv-x="854" 
d="M74 49l50.999 184.001c30 -18.667 69.167 -35.5 117.5 -50.5s93.833 -22.5 136.5 -22.5c53.333 0 93.333 10 120 30s40 47.333 40 82c0 33.333 -11.667 60.333 -35 81s-66.333 42.334 -129 65.001c-94 32 -163.333 73 -208 123s-67 106 -67 168
c0 90 34.5 164.333 103.5 223s160.167 88 273.5 88c107.333 0 196 -19.667 266 -59l-51 -177c-24.667 15.333 -56 28.833 -94 40.5s-77 17.5 -117 17.5c-44 0 -78.167 -10 -102.5 -30s-36.5 -45.667 -36.5 -77c0 -30.667 12.333 -55.334 37 -74.001
s70.334 -40.334 137.001 -65.001c91.333 -31.333 158.333 -71.333 201 -120s64.334 -109.667 65.001 -183c0 -94 -35.333 -169.667 -106 -227s-170.334 -86 -299.001 -86c-118.667 0 -219.667 23 -303 69zM521.999 1126h-174l-201 304h175l112 -187h4l111 187h172z" />
    <glyph glyph-name="Tcommaaccent" unicode="&#x162;" horiz-adv-x="1075" 
d="M410 0v1169h-394v211h1043v-211h-397v-1169h-252zM383 -477l-41.001 110.001c40 6.66699 73.833 21.167 101.5 43.5s41.5 50.833 41.5 85.5c0 40 -21 81 -63 123l178 33c22.667 -16 41.667 -37.833 57 -65.5s23 -58.5 23 -92.5c0 -51.333 -14.167 -94.833 -42.5 -130.5
s-64.166 -61.834 -107.499 -78.501s-92.333 -26 -147 -28z" />
    <glyph glyph-name="tcommaaccent" unicode="&#x163;" horiz-adv-x="718" 
d="M176 1184l247.998 69v-256h240v-188h-240v-440c0 -63.333 9.83301 -110 29.5 -140s52.834 -45 99.501 -45c38.667 0 71.334 3.66699 98.001 11l4 -191c-47.333 -18 -108 -27 -182 -27c-94 0 -166.333 27.333 -217 82c-53.333 55.333 -80 149 -80 281v469h-141v188h141
v187zM253.998 -483l-41.001 110.001c40.667 6.66699 74.667 21 102 43s41 50.667 41 86c0 40 -21 81 -63 123l178 33c22 -16 40.833 -38.167 56.5 -66.5s23.5 -58.833 23.5 -91.5c0 -51.333 -14.167 -94.833 -42.5 -130.5s-64.166 -61.834 -107.499 -78.501
s-92.333 -26 -147 -28z" />
    <glyph glyph-name="Tcaron" unicode="&#x164;" horiz-adv-x="1075" 
d="M410 0v1169h-394v211h1043v-211h-397v-1169h-252zM633 1454h-191l-211 244h189l117 -135h4l112 135h187z" />
    <glyph glyph-name="tcaron" unicode="&#x165;" horiz-adv-x="731" 
d="M176 1184l247.998 69v-256h240v-188h-240v-440c0 -63.333 9.83301 -110 29.5 -140s52.834 -45 99.501 -45c38.667 0 71.334 3.66699 98.001 11l4 -191c-47.333 -18 -108 -27 -182 -27c-94 0 -166.333 27.333 -217 82c-53.333 55.333 -80 149 -80 281v469h-141v188h141
v187zM624.998 1104l-66.0029 94c20 14.667 37 35 51 61s21 54 21 84c0 41.333 -16.333 79.666 -49 114.999l170 31c18 -12.667 33.667 -32.167 47 -58.5s20 -53.833 20 -82.5c0 -34.667 -6.66699 -66.834 -20 -96.501s-30.666 -54.167 -51.999 -73.5
s-42.166 -35.166 -62.499 -47.499s-40.166 -21.166 -59.499 -26.499z" />
    <glyph glyph-name="Tbar" unicode="&#x166;" horiz-adv-x="1075" 
d="M1059 1169h-397v-393h243v-155h-243v-621h-252v621h-246v155h246v393h-394v211h1043v-211z" />
    <glyph glyph-name="tbar" unicode="&#x167;" horiz-adv-x="718" 
d="M664 809l-240.002 -0.000976562v-184h184v-140h-184v-133c0 -57.333 10.333 -99.666 31 -126.999s53.334 -41 98.001 -41c38.667 0 71.334 3.66699 98.001 11l4 -191c-47.333 -18 -108 -27 -182 -27c-94 0 -166.333 27.333 -217 82c-53.333 55.333 -80 149 -80 281v145
h-131v140h131v184h-141v188h141v187l248 69v-256h240v-188z" />
    <glyph glyph-name="Utilde" unicode="&#x168;" horiz-adv-x="1363" 
d="M143 1380l252.001 0.000976562v-805c0 -131.333 25.167 -230 75.5 -296s119.5 -99 207.5 -99c93.333 0 165.166 32.833 215.499 98.5s75.5 164.5 75.5 296.5v805h252v-788c0 -206.667 -48.833 -360.834 -146.5 -462.501s-232.5 -152.5 -404.5 -152.5
c-166.667 0 -296.167 49.833 -388.5 149.5s-138.5 254.167 -138.5 463.5v790zM532.001 1464l-122 -0.000976562c-2 75.333 10.5 133.833 37.5 175.5s64.167 62.5 111.5 62.5c36.667 0 78.334 -13.667 125.001 -41c45.333 -26 76.666 -39 93.999 -39s30.333 5.83301 39 17.5
s14.334 33.834 17.001 66.501h120c4 -152.667 -46.333 -229 -151 -229c-39.333 0 -82.333 13 -129 39l-24.5 14c-11.667 6.66699 -19.834 11 -24.501 13s-11 4.33301 -19 7s-15.333 4 -22 4c-30.667 0 -48 -30 -52 -90z" />
    <glyph glyph-name="utilde" unicode="&#x169;" horiz-adv-x="1165" 
d="M1028 997v-697.998c0 -90 2.66699 -189.667 8 -299h-219l-12 150h-6c-12 -20 -26.667 -39 -44 -57s-38.833 -36.333 -64.5 -55s-57 -33.5 -94 -44.5s-76.833 -16.5 -119.5 -16.5c-47.333 0 -90.833 7.66699 -130.5 23s-76.167 39.166 -109.5 71.499
s-59.333 77.5 -78 135.5s-28 126.333 -28 205v585h252v-542c0 -182 62 -273 186 -273c47.333 0 87.833 13.167 121.5 39.5s57.5 58.166 71.5 95.499c9.33301 18.667 14 44.667 14 78v602h252zM434 1151h-124.999c-2.66699 76.667 10.166 136.5 38.499 179.5
s67.5 64.5 117.5 64.5c32.667 0 75.667 -14.333 129 -43c4 -2 10.167 -5.5 18.5 -10.5s14.666 -8.5 18.999 -10.5l16.5 -7.5c6.66699 -3 12.5 -5.16699 17.5 -6.5s9.83301 -2 14.5 -2c17.333 0 30.333 6.33301 39 19s14 35.667 16 69h123c4 -158.667 -48 -238 -156 -238
c-37.333 0 -81.666 14.333 -132.999 43c-35.333 20.667 -59 32 -71 34c-4 0.666992 -8.33301 1 -13 1c-30 0 -47 -30.667 -51 -92z" />
    <glyph glyph-name="Umacron" unicode="&#x16a;" horiz-adv-x="1363" 
d="M143 1380l252.001 0.000976562v-805c0 -131.333 25.167 -230 75.5 -296s119.5 -99 207.5 -99c93.333 0 165.166 32.833 215.499 98.5s75.5 164.5 75.5 296.5v805h252v-788c0 -206.667 -48.833 -360.834 -146.5 -462.501s-232.5 -152.5 -404.5 -152.5
c-166.667 0 -296.167 49.833 -388.5 149.5s-138.5 254.167 -138.5 463.5v790zM426.001 1645h512v-142h-512v142z" />
    <glyph glyph-name="umacron" unicode="&#x16b;" horiz-adv-x="1165" 
d="M1028 997v-697.998c0 -90 2.66699 -189.667 8 -299h-219l-12 150h-6c-12 -20 -26.667 -39 -44 -57s-38.833 -36.333 -64.5 -55s-57 -33.5 -94 -44.5s-76.833 -16.5 -119.5 -16.5c-47.333 0 -90.833 7.66699 -130.5 23s-76.167 39.166 -109.5 71.499
s-59.333 77.5 -78 135.5s-28 126.333 -28 205v585h252v-542c0 -182 62 -273 186 -273c47.333 0 87.833 13.167 121.5 39.5s57.5 58.166 71.5 95.499c9.33301 18.667 14 44.667 14 78v602h252zM338 1341h489v-145h-489v145z" />
    <glyph glyph-name="Ubreve" unicode="&#x16c;" horiz-adv-x="1363" 
d="M143 1380l252.001 0.000976562v-805c0 -131.333 25.167 -230 75.5 -296s119.5 -99 207.5 -99c93.333 0 165.166 32.833 215.499 98.5s75.5 164.5 75.5 296.5v805h252v-788c0 -206.667 -48.833 -360.834 -146.5 -462.501s-232.5 -152.5 -404.5 -152.5
c-166.667 0 -296.167 49.833 -388.5 149.5s-138.5 254.167 -138.5 463.5v790zM410.001 1704h138.998c4.66699 -26.667 17.5 -49.334 38.5 -68.001s52.5 -28 94.5 -28c78.667 0 124.334 32 137.001 96h135c-2 -72 -25.833 -130 -71.5 -174s-113.167 -66 -202.5 -66
s-156.166 21.833 -200.499 65.5s-67.5 101.834 -69.5 174.501z" />
    <glyph glyph-name="ubreve" unicode="&#x16d;" horiz-adv-x="1165" 
d="M1028 997v-697.998c0 -90 2.66699 -189.667 8 -299h-219l-12 150h-6c-12 -20 -26.667 -39 -44 -57s-38.833 -36.333 -64.5 -55s-57 -33.5 -94 -44.5s-76.833 -16.5 -119.5 -16.5c-47.333 0 -90.833 7.66699 -130.5 23s-76.167 39.166 -109.5 71.499
s-59.333 77.5 -78 135.5s-28 126.333 -28 205v585h252v-542c0 -182 62 -273 186 -273c47.333 0 87.833 13.167 121.5 39.5s57.5 58.166 71.5 95.499c9.33301 18.667 14 44.667 14 78v602h252zM311 1409l138 -0.00195312c5.33301 -40.667 19.333 -73 42 -97s53 -36 91 -36
c42 0 74.5 12.833 97.5 38.5s35.5 57.167 37.5 94.5h137c-1.33301 -83.333 -25.833 -150.166 -73.5 -200.499s-113.834 -75.5 -198.501 -75.5c-88.667 0 -155.667 25.833 -201 77.5s-68.666 117.834 -69.999 198.501z" />
    <glyph glyph-name="Uring" unicode="&#x16e;" horiz-adv-x="1363" 
d="M143 1380l252.001 0.000976562v-805c0 -131.333 25.167 -230 75.5 -296s119.5 -99 207.5 -99c93.333 0 165.166 32.833 215.499 98.5s75.5 164.5 75.5 296.5v805h252v-788c0 -206.667 -48.833 -360.834 -146.5 -462.501s-232.5 -152.5 -404.5 -152.5
c-166.667 0 -296.167 49.833 -388.5 149.5s-138.5 254.167 -138.5 463.5v790zM686.001 1802c67.333 0 120.333 -18.167 159 -54.5s58 -82.833 58 -139.5c0 -55.333 -20.167 -101.333 -60.5 -138s-93.166 -55 -158.499 -55c-66.667 0 -120.5 18.5 -161.5 55.5
s-61.5 82.167 -61.5 135.5c0 56.667 20.167 103.5 60.5 140.5s95.166 55.5 164.499 55.5zM678.001 1712c-27.333 0 -49.168 -10.5 -65.501 -31.5s-24.5 -45.833 -24.5 -74.5c0 -26 8.66699 -49 26 -69s39.333 -30 66 -30c28.667 0 51.834 9.83301 69.501 29.5
s26.5 44.167 26.5 73.5c0 28 -9 52 -27 72s-41.667 30 -71 30z" />
    <glyph glyph-name="uring" unicode="&#x16f;" horiz-adv-x="1165" 
d="M1028 997v-697.998c0 -90 2.66699 -189.667 8 -299h-219l-12 150h-6c-12 -20 -26.667 -39 -44 -57s-38.833 -36.333 -64.5 -55s-57 -33.5 -94 -44.5s-76.833 -16.5 -119.5 -16.5c-47.333 0 -90.833 7.66699 -130.5 23s-76.167 39.166 -109.5 71.499
s-59.333 77.5 -78 135.5s-28 126.333 -28 205v585h252v-542c0 -182 62 -273 186 -273c47.333 0 87.833 13.167 121.5 39.5s57.5 58.166 71.5 95.499c9.33301 18.667 14 44.667 14 78v602h252zM584 1102c-66.667 0 -120.667 18.168 -162 54.501s-62 82.166 -62 137.499
c0 58 20.333 106 61 144s95.667 57 165 57c66.667 0 119.5 -18.5 158.5 -55.5s58.5 -84.833 58.5 -143.5c0 -56.667 -20.5 -103.167 -61.5 -139.5s-93.5 -54.5 -157.5 -54.5zM582 1192c29.333 0 53 10.333 71 31s27 45.667 27 75c0 30 -9 55.333 -27 76s-42.333 31 -73 31
c-28 0 -50.833 -10.833 -68.5 -32.5s-26.5 -47.167 -26.5 -76.5c0 -26.667 9.16699 -50.667 27.5 -72s41.5 -32 69.5 -32z" />
    <glyph glyph-name="Uhungarumlaut" unicode="&#x170;" horiz-adv-x="1363" 
d="M143 1380l252.001 0.000976562v-805c0 -131.333 25.167 -230 75.5 -296s119.5 -99 207.5 -99c93.333 0 165.166 32.833 215.499 98.5s75.5 164.5 75.5 296.5v805h252v-788c0 -206.667 -48.833 -360.834 -146.5 -462.501s-232.5 -152.5 -404.5 -152.5
c-166.667 0 -296.167 49.833 -388.5 149.5s-138.5 254.167 -138.5 463.5v790zM551.001 1702h246l-217 -234h-177zM889.001 1702h248l-217 -234h-177z" />
    <glyph glyph-name="uhungarumlaut" unicode="&#x171;" horiz-adv-x="1165" 
d="M1028 997v-697.998c0 -90 2.66699 -189.667 8 -299h-219l-12 150h-6c-12 -20 -26.667 -39 -44 -57s-38.833 -36.333 -64.5 -55s-57 -33.5 -94 -44.5s-76.833 -16.5 -119.5 -16.5c-47.333 0 -90.833 7.66699 -130.5 23s-76.167 39.166 -109.5 71.499
s-59.333 77.5 -78 135.5s-28 126.333 -28 205v585h252v-542c0 -182 62 -273 186 -273c47.333 0 87.833 13.167 121.5 39.5s57.5 58.166 71.5 95.499c9.33301 18.667 14 44.667 14 78v602h252zM473 1427h215l-211 -292h-147zM803 1427h213l-211 -292h-148z" />
    <glyph glyph-name="Uogonek" unicode="&#x172;" horiz-adv-x="1363" 
d="M893 -254l36.998 -119c-53.333 -39.333 -119.666 -59 -198.999 -59c-62 0 -110.667 15.333 -146 46s-53 72.667 -53 126c0 76 39 156 117 240h-12c-155.333 5.33301 -276.5 57.5 -363.5 156.5s-130.5 250.167 -130.5 453.5v790h252v-805c0 -131.333 25.333 -230 76 -296
s120.334 -99 209.001 -99c92 0 163.167 32.833 213.5 98.5s75.5 164.5 75.5 296.5v805h252v-788c0 -170 -34 -304.5 -102 -403.5s-163 -161.833 -285 -188.5c-78 -72 -117 -135.333 -117 -190c0 -26 8.16699 -46.167 24.5 -60.5s36.833 -21.5 61.5 -21.5
c31.333 0 61.333 6 90 18z" />
    <glyph glyph-name="uogonek" unicode="&#x173;" horiz-adv-x="1165" 
d="M1028 997v-697.997c0 -92.667 2.66699 -192.334 8 -299.001l-73 4c-41.333 -64.667 -62 -120.667 -62 -168c0 -33.333 10.167 -60 30.5 -80s46.5 -30 78.5 -30c33.333 0 63.333 5.33301 90 16l37 -121c-50 -38 -113.667 -57 -191 -57
c-65.333 0 -116.833 17.167 -154.5 51.5s-56.5 83.833 -56.5 148.5s27.333 144.667 82 240l-12 146h-6c-12 -20 -26.667 -39 -44 -57s-38.833 -36.333 -64.5 -55s-57 -33.5 -94 -44.5s-76.833 -16.5 -119.5 -16.5c-47.333 0 -90.833 7.66699 -130.5 23
s-76.167 39.166 -109.5 71.499s-59.333 77.5 -78 135.5s-28 126.333 -28 205v585h252v-542c0 -182 62 -273 186 -273c47.333 0 87.833 13.167 121.5 39.5s57.5 58.166 71.5 95.499c9.33301 18.667 14 44.667 14 78v602h252z" />
    <glyph glyph-name="Wcircumflex" unicode="&#x174;" horiz-adv-x="1779" 
d="M641 0l-271.999 -0.000976562l-338 1380h268l131 -626c31.333 -149.333 61.333 -310 90 -482h4c12 76 45.667 237.333 101 484l149 624h264l138 -635c43.333 -214.667 71.333 -370 84 -466h4c21.333 128.667 52.666 288.334 93.999 479.001l143 622h256l-373 -1380h-268
l-143 649c-37.333 167.333 -63.333 313.333 -78 438h-4c-24 -153.333 -54 -299.333 -90 -438zM801.001 1698h190l211 -244h-188l-115 133h-4l-115 -133h-186z" />
    <glyph glyph-name="wcircumflex" unicode="&#x175;" horiz-adv-x="1533" 
d="M29 997h257.999l102 -452c28 -118 50 -226 66 -324h4c4.66699 25.333 10.667 53.333 18 84l19 77l22.5 85l20.5 76l131 454h204l125 -442c31.333 -118 58 -229.333 80 -334h4c9.33301 72 31.333 183.333 66 334l111 442h247l-313 -997h-233l-119 406
c-28 94.667 -53.333 201 -76 319h-4c-21.333 -112.667 -46.666 -219 -75.999 -319l-127 -406h-235zM679.999 1430h170l201 -304h-174l-109 185h-4l-111 -185h-172z" />
    <glyph glyph-name="Ycircumflex" unicode="&#x176;" horiz-adv-x="1177" 
d="M711 0h-252v575l-436 805h288l164 -354c48.667 -106 89 -197.333 121 -274h4c26 68.667 65.667 160 119 274l166 354h284l-458 -798v-582zM492 1698h190l211 -244h-188l-115 133h-4l-115 -133h-186z" />
    <glyph glyph-name="ycircumflex" unicode="&#x177;" horiz-adv-x="1024" 
d="M16 997l279 0.000976562l178 -534c23.333 -71.333 42.333 -135.666 57 -192.999h7c24 94.667 41.667 159.667 53 195l155 532h269l-250 -680c-68 -184.667 -127.833 -324.834 -179.5 -420.501s-107.167 -169.167 -166.5 -220.5c-84.667 -72.667 -172.667 -115 -264 -127
l-58 211c48.667 11.333 97.334 34.666 146.001 69.999c25.333 16 50.666 38 75.999 66s46.333 58.667 63 92c9.33301 16.667 14 31.667 14 45c0 12.667 -4 29 -12 49zM434 1430h170l201 -304h-174l-109 185h-4l-110 -185h-172z" />
    <glyph glyph-name="Ydieresis" unicode="&#x178;" horiz-adv-x="1177" 
d="M711 0h-252v575l-436 805h288l164 -354c48.667 -106 89 -197.333 121 -274h4c26 68.667 65.667 160 119 274l166 354h284l-458 -798v-582zM403 1458c-34.667 0 -63.334 12 -86.001 36s-34 53 -34 87c0 35.333 11.833 65 35.5 89s52.834 36 87.501 36
c34 0 62.167 -11.833 84.5 -35.5s33.5 -53.5 33.5 -89.5c0 -34 -11.333 -63 -34 -87s-51.667 -36 -87 -36zM807 1458c-34 0 -62.332 12 -84.999 36s-34 53 -34 87c0 35.333 11.667 65 35 89s52.666 36 87.999 36c34 0 62.333 -11.833 85 -35.5s34 -53.5 34 -89.5
c0 -34 -11.5 -63 -34.5 -87s-52.5 -36 -88.5 -36z" />
    <glyph glyph-name="Zacute" unicode="&#x179;" horiz-adv-x="1159" 
d="M53 0v139l705 1026v6h-643v209h970v-147l-696 -1018v-6h707v-209h-1043zM635 1700h278l-256 -246h-202z" />
    <glyph glyph-name="zacute" unicode="&#x17a;" horiz-adv-x="921" 
d="M41 0l-0.000976562 145.001l375 480l145 168v4h-483v200h790v-153l-364 -469c-65.333 -78.667 -114.666 -135.334 -147.999 -170.001v-4h525v-201h-840zM529.999 1430h248l-250 -304h-174z" />
    <glyph glyph-name="Zdotaccent" unicode="&#x17b;" horiz-adv-x="1159" 
d="M53 0v139l705 1026v6h-643v209h970v-147l-696 -1018v-6h707v-209h-1043zM586 1466c-34 0 -62.999 12.501 -86.999 37.501s-36 53.5 -36 85.5c0 35.333 12.167 65 36.5 89s54.5 36 90.5 36c34 0 62.333 -12 85 -36s34 -53.667 34 -89
c0 -32.667 -11.833 -61.334 -35.5 -86.001s-52.834 -37 -87.501 -37z" />
    <glyph glyph-name="zdotaccent" unicode="&#x17c;" horiz-adv-x="921" 
d="M41 0l-0.000976562 145.001l375 480l145 168v4h-483v200h790v-153l-364 -469c-65.333 -78.667 -114.666 -135.334 -147.999 -170.001v-4h525v-201h-840zM464.999 1151c-34.667 0 -64.168 12.333 -88.501 37s-36.5 54.667 -36.5 90c0 36 12.333 66.167 37 90.5
s55.334 36.5 92.001 36.5c34 0 62.667 -12.167 86 -36.5s35 -54.5 35 -90.5c0 -35.333 -11.667 -65.333 -35 -90s-53.333 -37 -90 -37z" />
    <glyph glyph-name="Zcaron" unicode="&#x17d;" horiz-adv-x="1159" 
d="M53 0v139l705 1026v6h-643v209h970v-147l-696 -1018v-6h707v-209h-1043zM690 1454h-188l-211 244h188l117 -135h4l113 135h186z" />
    <glyph glyph-name="zcaron" unicode="&#x17e;" horiz-adv-x="921" 
d="M41 0l-0.000976562 145.001l375 480l145 168v4h-483v200h790v-153l-364 -469c-65.333 -78.667 -114.666 -135.334 -147.999 -170.001v-4h525v-201h-840zM564.999 1126h-172l-200 304h174l110 -187h4l113 187h172z" />
    <glyph glyph-name="florin" unicode="&#x192;" horiz-adv-x="1097" 
d="M231 655v179.002h193l10 79c2.66699 26 6.66699 51.667 12 77s13.166 53 23.499 83s22.5 57.833 36.5 83.5s32.167 51 54.5 76s47 46.167 74 63.5s59.333 31.333 97 42s78.5 16 122.5 16c67.333 -2 119.333 -13 156 -33l-41 -178c-34.667 12 -69 18 -103 18
c-56 0 -99.167 -20.667 -129.5 -62s-49.166 -97 -56.499 -167l-12 -98h225v-179h-248l-47 -389c-6.66699 -54.667 -15.334 -103.334 -26.001 -146.001s-25.667 -83.334 -45 -122.001s-42.666 -70.667 -69.999 -96s-61.333 -45.333 -102 -60s-87.334 -22 -140.001 -22
c-74.667 2 -132.667 13 -174 33l39 178c32.667 -14 67.334 -21 104.001 -21c55.333 0.666992 95.833 23.5 121.5 68.5s45.5 123.833 59.5 236.5l38 340h-172z" />
    <glyph glyph-name="Ohorn" unicode="&#x1a0;" horiz-adv-x="1441" 
d="M721 180c79.333 0 148.332 23.001 206.999 69.001s102.667 107.667 132 185s44 164.666 44 261.999c0 89.333 -13.833 171.5 -41.5 246.5s-71 137 -130 186s-128.833 73.5 -209.5 73.5c-61.333 0 -116.666 -13.833 -165.999 -41.5s-89.5 -65.334 -120.5 -113.001
s-54.833 -102.167 -71.5 -163.5s-25 -126.666 -25 -195.999c0 -93.333 14.667 -178 44 -254s73.333 -137.333 132 -184s127 -70 205 -70zM1223 1522l184.004 32.001c28.667 -61.333 43 -124.666 43 -189.999c0 -62.667 -18.167 -113 -54.5 -151s-89.833 -56.667 -160.5 -56
c90 -120 135 -270.667 135 -452c0 -113.333 -16.5 -216.166 -49.5 -308.499s-79 -169 -138 -230s-128.833 -107.833 -209.5 -140.5s-168.667 -49 -264 -49s-183 17.833 -263 53.5s-147 84.667 -201 147s-96 136.666 -126 222.999s-45 179.5 -45 279.5
c0 140.667 27.5 266 82.5 376s132.333 195.667 232 257s213.167 92 340.5 92c83.333 0 162 -13 236 -39c13.333 -4.66699 35.666 -13.834 66.999 -27.501s59.166 -24.5 83.499 -32.5s45.166 -12 62.499 -12c29.333 0 50.666 6.83301 63.999 20.5s20 35.5 20 65.5
c0 41.333 -13 88.666 -39 141.999z" />
    <glyph glyph-name="ohorn" unicode="&#x1a1;" horiz-adv-x="1173" 
d="M580 838c-42 0 -79.5 -9.83105 -112.5 -29.498s-59 -46 -78 -79s-33.333 -69 -43 -108s-14.5 -80.167 -14.5 -123.5c0 -98 22.667 -178.833 68 -242.5s105.333 -95.5 180 -95.5c71.333 0 129.666 31.667 174.999 95s68 145.666 68 246.999
c0 41.333 -4.66699 81.166 -14 119.499s-23.333 74 -42 107s-44.167 59.5 -76.5 79.5s-69.166 30 -110.499 30zM971 1149l181.998 31c27.333 -56 41 -114 41 -174c0 -59.333 -17.167 -106.833 -51.5 -142.5s-82.166 -53.834 -143.499 -54.501c56 -82.667 84 -183 84 -301
c0 -88 -14.667 -166.833 -44 -236.5s-68.5 -125.5 -117.5 -167.5s-103.333 -73.667 -163 -95s-122.167 -32 -187.5 -32c-144 0 -263.167 46.5 -357.5 139.5s-141.5 218.167 -141.5 375.5c0 161.333 47.833 289.666 143.5 384.999s219.834 143 372.501 143
c55.333 0 114 -9 176 -27c11.333 -3.33301 28.5 -10.166 51.5 -20.499s44.5 -18.666 64.5 -24.999s38 -9.5 54 -9.5c50.667 0 76 26 76 78c0 42 -13 86.333 -39 133z" />
    <glyph glyph-name="Uhorn" unicode="&#x1af;" horiz-adv-x="1443" 
d="M1235 1587l182.001 31.002c27.333 -58 41 -116 41 -174s-17.333 -104.833 -52 -140.5s-85.667 -55.834 -153 -60.501l-32 -2v-649c0 -206.667 -48.833 -360.834 -146.5 -462.501s-232.5 -152.5 -404.5 -152.5c-166.667 0 -296.167 49.833 -388.5 149.5
s-138.5 254.167 -138.5 463.5v790h252v-805c0 -131.333 25.167 -230 75.5 -296s119.5 -99 207.5 -99c93.333 0 165.166 32.833 215.499 98.5s75.5 164.5 75.5 296.5v805h202c37.333 0 63.5 6.33301 78.5 19s22.5 33 22.5 61c0 44 -12.333 86.333 -37 127z" />
    <glyph glyph-name="uhorn" unicode="&#x1b0;" horiz-adv-x="1165" 
d="M1006 1206l182 31.002c27.333 -51.333 41 -107.333 41 -168c0 -56 -16.833 -101 -50.5 -135s-77.5 -53 -131.5 -57l-19 -3v-575c0 -90 2.66699 -189.667 8 -299h-219l-12 152h-6c-12.667 -20 -27.5 -39.167 -44.5 -57.5s-38.333 -36.833 -64 -55.5s-57 -33.667 -94 -45
s-76.833 -17 -119.5 -17c-47.333 0 -90.833 7.66699 -130.5 23s-76.167 39.166 -109.5 71.499s-59.333 77.5 -78 135.5s-28 126.333 -28 205v585h252v-542c0 -180 62 -271 186 -273c47.333 0 87.833 13.167 121.5 39.5s57.5 58.166 71.5 95.499
c9.33301 18.667 14 44.667 14 78v602h168c68.667 0 103 27.333 103 82c0 40 -13.667 82.333 -41 127z" />
    <glyph glyph-name="Aringacute" unicode="&#x1fa;" horiz-adv-x="1302" 
d="M657 1417c-62 0 -111.5 16.334 -148.5 49.001s-55.5 73.667 -55.5 123s18.333 90.666 55 123.999s87 50 151 50s113.833 -16.5 149.5 -49.5s53.5 -74.5 53.5 -124.5s-18.667 -91.167 -56 -123.5s-87 -48.5 -149 -48.5zM655 1509c28.667 0 51.333 7.16699 68 21.5
s25 33.833 25 58.5c0 24 -8.66699 44.333 -26 61s-40.333 25 -69 25c-26.667 0 -47.667 -8.33301 -63 -25s-23 -37 -23 -61c0 -22 8.16699 -40.833 24.5 -56.5s37.5 -23.5 63.5 -23.5zM747.999 1985h292l-299 -185h-215zM859.999 391.001h-438l-119 -391h-260l442 1380h322
l448 -1380h-270zM462.999 582.001h356l-110 340c-16.667 51.333 -40 137.333 -70 258h-4c-34.667 -139.333 -56.667 -225.333 -66 -258z" />
    <glyph glyph-name="aringacute" unicode="&#x1fb;" horiz-adv-x="1040" 
d="M625 1739h247l-297 -228h-176zM909 598v-358.002c0 -98.667 5 -178.667 15 -240h-228l-16 111h-6c-32 -40.667 -73.5 -73.167 -124.5 -97.5s-107.833 -36.5 -170.5 -36.5c-96 0 -172.167 29.333 -228.5 88s-84.5 128.334 -84.5 209.001
c0 123.333 51.833 217.333 155.5 282s248.834 96.334 435.501 95.001v17c0 15.333 -1.33301 30 -4 44s-8.33398 29.167 -17.001 45.5s-20 30.5 -34 42.5s-33.833 22 -59.5 30s-55.5 12 -89.5 12c-46.667 0 -94.167 -6.83301 -142.5 -20.5s-89.833 -31.5 -124.5 -53.5
l-51 164c99.333 58.667 220.333 88 363 88c76.667 0 142.667 -11.5 198 -34.5s98 -54.833 128 -95.5s51.667 -85 65 -133s20 -101 20 -159zM664 349.998l-0.000976562 137c-232.667 2.66699 -349 -59.333 -349 -186c0 -46.667 13.333 -82.167 40 -106.5
s61.334 -36.5 104.001 -36.5c47.333 0 88.833 13.167 124.5 39.5s60.167 58.833 73.5 97.5c4.66699 14 7 32.333 7 55zM519.999 1071c-66.667 0 -120.498 18.335 -161.498 55.002s-61.5 82.667 -61.5 138c0 57.333 20.167 104.666 60.5 141.999s95.166 56 164.499 56
c67.333 0 120.333 -18.333 159 -55s58 -84.334 58 -143.001c0 -56 -20.333 -102.167 -61 -138.5s-93.334 -54.5 -158.001 -54.5zM518.001 1161c30 0 54.167 10.168 72.5 30.501s27.5 45.166 27.5 74.499c0 30 -9 55.167 -27 75.5s-43 30.5 -75 30.5
c-29.333 0 -52.333 -10.5 -69 -31.5s-25 -46.5 -25 -76.5c0 -26.667 9 -50.5 27 -71.5s41 -31.5 69 -31.5z" />
    <glyph glyph-name="AEacute" unicode="&#x1fc;" horiz-adv-x="1703" 
d="M262 0h-260l606 1380h967v-206h-574l43 -361h519v-205h-488l51 -401h516v-207h-733l-53 426h-412zM522 629l305 0.000976562l-43 362c-12 92.667 -20 163 -24 211h-8c-24 -70.667 -50 -140.334 -78 -209.001zM991 1700h279l-256 -246h-203z" />
    <glyph glyph-name="aeacute" unicode="&#x1fd;" horiz-adv-x="1617" 
d="M1544 442h-646.999c0 -86 26.833 -153.5 80.5 -202.5s123.834 -73.5 210.501 -73.5c96.667 0 188 18.333 274 55l39 -172c-94 -48 -210 -72 -348 -72c-86 0 -163.167 17.333 -231.5 52s-117.5 83 -147.5 145h-6c-36.667 -62 -86.834 -110.333 -150.501 -145
s-137.834 -52 -222.501 -52c-102 0 -182.333 29 -241 87s-88 128.667 -88 212c0 118 52.5 208.667 157.5 272s251.167 94.333 438.5 93v35c0 12 -2.83301 26 -8.5 42s-15.334 34 -29.001 54s-35.5 36.667 -65.5 50s-66 20 -108 20c-46 0 -93 -7.33301 -141 -22
s-88.667 -32.667 -122 -54l-51 162c44 26 95.833 47.833 155.5 65.5s119.167 26.5 178.5 26.5c162.667 0 271.334 -60.667 326.001 -182h6c36.667 58 84.167 102.833 142.5 134.5s124.833 47.5 199.5 47.5c58 0 110.5 -10 157.5 -30s85.5 -46.167 115.5 -78.5
s55.167 -69.833 75.5 -112.5s34.833 -85.5 43.5 -128.5s13 -86.167 13 -129.5c0 -20 -2 -53 -6 -99zM668.001 358l0.000976562 123c-48 0.666992 -91.833 -1.83301 -131.5 -7.5s-77 -15 -112 -28s-62.333 -32.333 -82 -58s-29.5 -56.5 -29.5 -92.5
c0 -42.667 14.167 -76.167 42.5 -100.5s63.5 -36.5 105.5 -36.5c49.333 0 90.666 12.5 123.999 37.5s57.333 56.833 72 95.5c7.33301 18.667 11 41 11 67zM895.002 616l420 -0.00292969c0.666992 22.667 -2 46.334 -8 71.001s-15.833 49.834 -29.5 75.501
s-34.5 46.667 -62.5 63s-61 24.5 -99 24.5c-36 0 -68.5 -7.66699 -97.5 -23s-52 -35.166 -69 -59.499s-30 -49.5 -39 -75.5s-14.167 -51.333 -15.5 -76zM862.002 1430h246l-250 -304h-174z" />
    <glyph glyph-name="Oslashacute" unicode="&#x1fe;" horiz-adv-x="1441" 
d="M279 -115l-139.997 111.001l121 176c-60 64 -106 140.167 -138 228.5s-48 184.166 -48 287.499c0 138 27.667 261.5 83 370.5s132.666 194 231.999 255s212 91.5 338 91.5c125.333 0 232.666 -30.667 321.999 -92l116 166l146 -99l-119 -174
c58 -62.667 102.167 -137.834 132.5 -225.501s45.5 -181.167 45.5 -280.5c0 -113.333 -16.833 -216.166 -50.5 -308.499s-79.834 -168.333 -138.501 -228s-127 -105.667 -205 -138s-162.333 -48.5 -253 -48.5c-117.333 0 -224 29.667 -320 89zM406.003 387.001l524 748
c-60 47.333 -128.333 71 -205 71c-83.333 0 -155.5 -23.5 -216.5 -70.5s-106.333 -108.833 -136 -185.5s-44.5 -162.667 -44.5 -258c0 -108 24.333 -209.667 73 -305h5zM1042 987.001l-520 -739c54 -48 121 -72 201 -72c80.667 0 151 23 211 69s105.333 108 136 186
s46 166.333 46 265c0 106.667 -22.333 203.667 -67 291h-7zM776.003 1712h279l-256 -246h-203z" />
    <glyph glyph-name="oslashacute" unicode="&#x1ff;" horiz-adv-x="1155" 
d="M582 1020c88.667 0 170.333 -20.666 245 -61.999l91 134l96 -68l-90 -131c106 -95.333 159 -225 159 -389c0 -86.667 -14.5 -164.5 -43.5 -233.5s-67.5 -124.333 -115.5 -166s-101.333 -73.334 -160 -95.001s-120 -32.5 -184 -32.5c-94 0 -176 20 -246 60l-94 -135
l-93 73l89 127c-109.333 94 -164 225.333 -164 394c0 158.667 47.5 285.667 142.5 381s217.5 143 367.5 143zM372.999 297.001l344 494.001c-37.333 31.333 -84.666 47 -141.999 47c-44.667 0 -84.334 -10.167 -119.001 -30.5s-62 -47.333 -82 -81
s-34.833 -69.834 -44.5 -108.501s-14.5 -78.667 -14.5 -120c0 -78.667 17.333 -145.667 52 -201h6zM785.999 694.002l-343.999 -487c33.333 -31.333 77.666 -47 132.999 -47c80 0 144.167 31.167 192.5 93.5s72.5 143.833 72.5 244.5c0 75.333 -16.333 140 -49 194z
M631 1430h248l-250 -304h-174z" />
    <glyph glyph-name="Scommaaccent" unicode="&#x218;" horiz-adv-x="1062" 
d="M84 66l57.0029 208.001c43.333 -25.333 94.5 -46.333 153.5 -63s119.167 -25 180.5 -25c78.667 0 140 17.167 184 51.5s66 80.166 66 137.499c0 51.333 -18.667 94.333 -56 129s-100 68 -188 100c-121.333 43.333 -214.166 97.333 -278.499 162s-96.5 144.667 -96.5 240
c0 115.333 44.667 210.333 134 285s208 112 356 112c129.333 0 239.333 -23.333 330 -70l-60 -203c-83.333 44 -175.333 66 -276 66c-74.667 0 -131.334 -16.333 -170.001 -49s-58 -71.667 -58 -117c0 -50.667 19.5 -91.5 58.5 -122.5s107.833 -65.833 206.5 -104.5
c122 -46 211.5 -101.333 268.5 -166s85.5 -146 85.5 -244c0 -56.667 -10.833 -109.667 -32.5 -159s-53.334 -93.333 -95.001 -132s-96.334 -69.167 -164.001 -91.5s-144.5 -33.5 -230.5 -33.5c-70.667 0 -140.834 8.66699 -210.501 26s-124.5 38.333 -164.5 63z
M395.003 -476.999l-41.002 110.001c40.667 6.66699 74.834 21.167 102.501 43.5s41.5 50.833 41.5 85.5c0 39.333 -21.333 80.333 -64 123l178 33c22.667 -16 41.667 -37.833 57 -65.5s23 -58.5 23 -92.5c0 -51.333 -14.167 -94.833 -42.5 -130.5
s-64.166 -61.834 -107.499 -78.501s-92.333 -26 -147 -28z" />
    <glyph glyph-name="scommaaccent" unicode="&#x219;" horiz-adv-x="854" 
d="M74 49l50.999 184.001c30 -18.667 69.167 -35.5 117.5 -50.5s93.833 -22.5 136.5 -22.5c53.333 0 93.333 10 120 30s40 47.333 40 82c0 33.333 -11.667 60.333 -35 81s-66.333 42.334 -129 65.001c-94 32 -163.333 73 -208 123s-67 106 -67 168
c0 90 34.5 164.333 103.5 223s160.167 88 273.5 88c107.333 0 196 -19.667 266 -59l-51 -177c-24.667 15.333 -56 28.833 -94 40.5s-77 17.5 -117 17.5c-44 0 -78.167 -10 -102.5 -30s-36.5 -45.667 -36.5 -77c0 -30.667 12.333 -55.334 37 -74.001
s70.334 -40.334 137.001 -65.001c91.333 -31.333 158.333 -71.333 201 -120s64.334 -109.667 65.001 -183c0 -94 -35.333 -169.667 -106 -227s-170.334 -86 -299.001 -86c-118.667 0 -219.667 23 -303 69zM288.999 -476.999l-41.001 110.001
c40.667 6.66699 74.667 21 102 43s41 50.667 41 86c0 40 -21 81 -63 123l178 33c22 -16 40.833 -38.167 56.5 -66.5s23.5 -58.833 23.5 -91.5c0 -51.333 -14.167 -94.833 -42.5 -130.5s-64.166 -61.834 -107.499 -78.501s-92.333 -26 -147 -28z" />
    <glyph glyph-name="uni021A" unicode="&#x21a;" horiz-adv-x="1075" 
d="M410 0v1169h-394v211h1043v-211h-397v-1169h-252zM383 -477l-41.001 110.001c40 6.66699 73.833 21.167 101.5 43.5s41.5 50.833 41.5 85.5c0 40 -21 81 -63 123l178 33c22.667 -16 41.667 -37.833 57 -65.5s23 -58.5 23 -92.5c0 -51.333 -14.167 -94.833 -42.5 -130.5
s-64.166 -61.834 -107.499 -78.501s-92.333 -26 -147 -28z" />
    <glyph glyph-name="uni021B" unicode="&#x21b;" horiz-adv-x="718" 
d="M176 1184l247.998 69v-256h240v-188h-240v-440c0 -63.333 9.83301 -110 29.5 -140s52.834 -45 99.501 -45c38.667 0 71.334 3.66699 98.001 11l4 -191c-47.333 -18 -108 -27 -182 -27c-94 0 -166.333 27.333 -217 82c-53.333 55.333 -80 149 -80 281v469h-141v188h141
v187zM253.998 -483l-41.001 110.001c40.667 6.66699 74.667 21 102 43s41 50.667 41 86c0 40 -21 81 -63 123l178 33c22 -16 40.833 -38.167 56.5 -66.5s23.5 -58.833 23.5 -91.5c0 -51.333 -14.167 -94.833 -42.5 -130.5s-64.166 -61.834 -107.499 -78.501
s-92.333 -26 -147 -28z" />
    <glyph glyph-name="uni021C" unicode="&#x21c;" horiz-adv-x="1048" 
d="M143 -248l-29.9971 195.003c53.333 6.66699 107.166 18 161.499 34s107.166 36.667 158.499 62s96.833 53.833 136.5 85.5s71.5 68.167 95.5 109.5s35.667 84.333 35 129c0 64.667 -23.167 119 -69.5 163s-111.833 66 -196.5 66c-65.333 0 -132.333 -11.667 -201 -35
l-30 172c112 23.333 206.333 62.666 283 117.999s114.667 119.666 114 192.999c0 48 -18.833 87 -56.5 117s-86.5 45.667 -146.5 47c-47.333 0 -96.666 -7.5 -147.999 -22.5s-94 -31.833 -128 -50.5l-51 168c46 27.333 103.667 51.166 173 71.499s138.666 30.5 207.999 30.5
c118.667 0 215.167 -28.667 289.5 -86s111.5 -133 111.5 -227c0 -72 -22.833 -137 -68.5 -195s-105.5 -104.333 -179.5 -139v-4c106 -13.333 193.167 -52.5 261.5 -117.5s102.166 -150.167 101.499 -255.5c0 -110 -35.833 -211 -107.5 -303s-170 -166.5 -295 -223.5
s-265.5 -91.167 -421.5 -102.5z" />
    <glyph glyph-name="uni021D" unicode="&#x21d;" horiz-adv-x="927" 
d="M98 -428l-26.002 191.998c17.333 0.666992 37.666 2.33398 60.999 5.00098s52.666 7.5 87.999 14.5s70 15.667 104 26s68.667 24.5 104 42.5s66 38 92 60s47.333 49.333 64 82s25 68 25 106c0 53.333 -18.667 98.5 -56 135.5s-96.333 55.5 -177 55.5
c-43.333 0 -102.666 -11 -177.999 -33l-33 174c240 54 360 137.333 360 250c0 44.667 -16.833 79.667 -50.5 105s-80.167 38 -139.5 38c-73.333 0 -156 -24.333 -248 -73l-49 163c45.333 30 100.333 55 165 75s130.334 30 197.001 30c112.667 0 202.667 -26 270 -78
s101 -122.333 101 -211c0 -125.333 -71 -218 -213 -278v-4c94.667 -12.667 170.167 -47.667 226.5 -105s84.5 -129.666 84.5 -216.999c0 -100.667 -33.167 -192 -99.5 -274s-158.166 -147.5 -275.499 -196.5s-249.666 -77.167 -396.999 -84.5z" />
    <glyph glyph-name="uni0232" unicode="&#x232;" horiz-adv-x="1177" 
d="M711 0h-252v575l-436 805h288l164 -354c48.667 -106 89 -197.333 121 -274h4c26 68.667 65.667 160 119 274l166 354h284l-458 -798v-582zM334 1645h512v-142h-512v142z" />
    <glyph glyph-name="uni0233" unicode="&#x233;" horiz-adv-x="1024" 
d="M16 997l279 0.000976562l178 -534c23.333 -71.333 42.333 -135.666 57 -192.999h7c24 94.667 41.667 159.667 53 195l155 532h269l-250 -680c-68 -184.667 -127.833 -324.834 -179.5 -420.501s-107.167 -169.167 -166.5 -220.5c-84.667 -72.667 -172.667 -115 -264 -127
l-58 211c48.667 11.333 97.334 34.666 146.001 69.999c25.333 16 50.666 38 75.999 66s46.333 58.667 63 92c9.33301 16.667 14 31.667 14 45c0 12.667 -4 29 -12 49zM268 1341h490v-145h-490v145z" />
    <glyph glyph-name="circumflex" unicode="&#x2c6;" 
d="M221 1430h170l201 -304h-174l-109 185h-4l-110 -185h-172z" />
    <glyph glyph-name="caron" unicode="&#x2c7;" 
d="M395 1126h-174l-201 304h175l110 -187h4l113 187h172z" />
    <glyph glyph-name="uni02C9" unicode="&#x2c9;" 
d="M63 1341h490v-145h-490v145z" />
    <glyph glyph-name="breve" unicode="&#x2d8;" 
d="M37 1409l136.998 -0.00195312c5.33301 -40.667 19.333 -73 42 -97s52.334 -36 89.001 -36c42 0 74.5 12.833 97.5 38.5s35.5 57.167 37.5 94.5h138c-1.33301 -83.333 -25.833 -150.166 -73.5 -200.499s-113.5 -75.5 -197.5 -75.5c-88 0 -154.667 25.833 -200 77.5
s-68.666 117.834 -69.999 198.501z" />
    <glyph glyph-name="dotaccent" unicode="&#x2d9;" 
d="M264 1151c-34.667 0 -64.168 12.333 -88.501 37s-36.5 54.667 -36.5 90c0 36 12.333 66.167 37 90.5s55.334 36.5 92.001 36.5c34 0 62.667 -12.167 86 -36.5s35 -54.5 35 -90.5c0 -35.333 -11.667 -65.333 -35 -90s-53.333 -37 -90 -37z" />
    <glyph glyph-name="ring" unicode="&#x2da;" 
d="M291 1102c-66.667 0 -120.498 18.168 -161.498 54.501s-61.5 82.166 -61.5 137.499c0 58 20.167 106 60.5 144s95.166 57 164.499 57c67.333 0 120.666 -18.5 159.999 -55.5s59 -84.833 59 -143.5c0 -56.667 -20.5 -103.167 -61.5 -139.5s-94.167 -54.5 -159.5 -54.5z
M289.002 1192c30.667 0 54.999 10.167 72.999 30.5s27 45.5 27 75.5s-9 55.333 -27 76s-42.333 31 -73 31c-29.333 0 -52.666 -10.833 -69.999 -32.5s-26 -47.167 -26 -76.5c0 -27.333 9 -51.5 27 -72.5s41 -31.5 69 -31.5z" />
    <glyph glyph-name="ogonek" unicode="&#x2db;" 
d="M205 6l142.999 0.000976562c-38.667 -57.333 -62.334 -102.333 -71.001 -135c-3.33301 -14 -5 -27 -5 -39c0 -32 9.66699 -57.667 29 -77s45.333 -29 78 -29c34 0 64.667 6 92 18l37 -123c-23.333 -18.667 -52.666 -32.834 -87.999 -42.501s-69 -14.5 -101 -14.5
c-66 0 -118 17 -156 51s-57 83.667 -57 149c0 43.333 10.333 87 31 131s43.334 81 68.001 111z" />
    <glyph glyph-name="tilde" unicode="&#x2dc;" 
d="M158 1151h-124.999c-2.66699 76.667 10 136.5 38 179.5s67 64.5 117 64.5c31.333 0 75 -14.333 131 -43c3.33301 -2 9.66602 -5.5 18.999 -10.5l19.5 -10.5c3.66699 -2 9 -4.66699 16 -8s13 -5.5 18 -6.5s9.83301 -1.5 14.5 -1.5c17.333 0 30.333 6.33301 39 19
s14 35.667 16 69h123c4 -158.667 -48 -238 -156 -238c-36.667 0 -81.667 14.333 -135 43c-35.333 20.667 -59 32 -71 34c-4 0.666992 -8.33301 1 -13 1c-30 0 -47 -30.667 -51 -92z" />
    <glyph glyph-name="hungarumlaut" unicode="&#x2dd;" 
d="M180 1427h215l-211 -292h-147zM510 1427h213l-211 -292h-147z" />
    <glyph glyph-name="uni037E" unicode="&#x37e;" horiz-adv-x="512" 
d="M223 -231l-170.001 -17c54.667 207.333 88.334 385 101.001 533l262 10c-20.667 -84 -49.5 -175.667 -86.5 -275s-72.5 -183 -106.5 -251zM271.999 618c-47.333 0 -86 16.167 -116 48.5s-45 72.833 -45 121.5c0 49.333 15.167 90 45.5 122s69.5 48 117.5 48
c48.667 0 88.167 -15.833 118.5 -47.5s45.5 -72.5 45.5 -122.5c0 -48.667 -15.333 -89.167 -46 -121.5s-70.667 -48.5 -120 -48.5z" />
    <glyph glyph-name="tonos" unicode="&#x384;" horiz-adv-x="618" 
d="M270 1430h234l-168 -304h-166z" />
    <glyph glyph-name="dieresistonos" unicode="&#x385;" horiz-adv-x="808" 
d="M344 1477h195l-107 -342h-133zM123 1163c-31.333 0 -57.999 11.5 -79.999 34.5s-33 49.833 -33 80.5c0 32.667 11.167 60 33.5 82s50.166 33 83.499 33c30.667 0 56.5 -11 77.5 -33s31.5 -49.333 31.5 -82c0 -31.333 -10.833 -58.333 -32.5 -81s-48.5 -34 -80.5 -34z
M678.001 1163c-31.333 0 -57.667 11.5 -79 34.5s-32 49.833 -32 80.5c0 32.667 10.833 60 32.5 82s48.5 33 80.5 33c32.667 0 59.667 -10.833 81 -32.5s32 -49.167 32 -82.5c0 -31.333 -10.833 -58.333 -32.5 -81s-49.167 -34 -82.5 -34z" />
    <glyph glyph-name="Alphatonos" unicode="&#x386;" horiz-adv-x="1314" 
d="M872 391h-440l-117 -391h-260l443 1380h321l449 -1380h-273zM475 582h354l-108 340c-16.667 51.333 -40 137.333 -70 258h-4c-40 -161.333 -61.667 -247.333 -65 -258zM88 1380h211l-74 -338h-145z" />
    <glyph glyph-name="anoteleia" unicode="&#x387;" horiz-adv-x="512" 
d="M254 473c-48.667 0 -88.833 16.833 -120.5 50.5s-47.5 75.5 -47.5 125.5c0 50.667 16 92.667 48 126s72.667 50 122 50c50 0 90.5 -16.333 121.5 -49s47.167 -75 48.5 -127c0 -50.667 -15.833 -92.667 -47.5 -126s-73.167 -50 -124.5 -50z" />
    <glyph glyph-name="Epsilontonos" unicode="&#x388;" horiz-adv-x="1241" 
d="M1104 817v-205h-520v-405h581v-207h-835v1380h805v-206h-551v-357h520zM10 1380h209l-74 -338h-145z" />
    <glyph glyph-name="Etatonos" unicode="&#x389;" horiz-adv-x="1562" 
d="M330 1380h252v-553h583v553h252v-1380h-252v608h-583v-608h-252v1380zM8 1380h211l-74 -338h-145z" />
    <glyph glyph-name="Iotatonos" unicode="&#x38a;" horiz-adv-x="727" 
d="M330 1380h254v-1380h-254v1380zM10 1380h209l-74 -338h-145z" />
    </font>
</defs>
</svg>
