<?xml version="1.0" standalone="no"?>
<!DOCTYPE svg PUBLIC "-//W3C//DTD SVG 1.1//EN" "http://www.w3.org/Graphics/SVG/1.1/DTD/svg11.dtd" >
<svg>
<metadata>
Created by FontForge 20090914 at Wed Jan 29 11:24:00 2014
 By www-data
Copyright &#194;&#169; 2000, 2002 Adobe Systems Incorporated. All Rights Reserved. U.S. Patent Des. pending.
</metadata>
<defs>
<font id="MyriadPro-SemiboldSemiCn" horiz-adv-x="614" >
  <font-face 
    font-family="Myriad Pro Light SemiCond"
    font-weight="600"
    font-stretch="semi-condensed"
    units-per-em="2048"
    panose-1="2 11 6 3 3 4 3 2 2 4"
    ascent="1536"
    descent="-512"
    x-height="997"
    cap-height="1380"
    bbox="-268 -512 2284 1815"
    underline-thickness="102"
    underline-position="-102"
    unicode-range="U+0020-U+FB04"
  />
<missing-glyph horiz-adv-x="1024" 
d="M0 0v1434h1024v-1434h-1024zM512 809l348 522h-696zM573 717l349 -522v1044zM164 102h696l-348 523zM102 1239v-1044l349 522z" />
    <glyph glyph-name="f_f_j" unicode="ffj" horiz-adv-x="1650" 
d="M1450 1411l-50.999 -184.001c-56 28.667 -121.667 43 -197 43c-147.333 0 -221 -77.333 -221 -232v-41h559v-903c0 -103.333 -10 -187.333 -30 -252s-52.333 -118.334 -97 -161.001c-38 -35.333 -86.167 -62 -144.5 -80s-117.833 -27.667 -178.5 -29l-23 190
c80 6.66699 137.333 29.334 172 68.001c22 24.667 37.333 60.834 46 108.501s13 121.5 13 221.5v659h-315v-819h-242v819h-342v-819h-241v819h-133v178h133v25c0 140 41.667 248 125 324c68 61.333 154.667 92 260 92c52.667 0 108 -11.667 166 -35l-60 -178
c-33.333 16 -65.333 24 -96 24c-44.667 0 -79.334 -14.333 -104.001 -43c-34.667 -36.667 -52 -96 -52 -178v-31h344v52c0 121.333 40 220.833 120 298.5s193 116.5 339 116.5c46.667 0 93 -5 139 -15s83 -22.667 111 -38z" />
    <glyph glyph-name="f_j" unicode="fj" horiz-adv-x="1079" 
d="M399 0l-241 0.000976562v819h-133v178h133v52c0 122 39.833 221.667 119.5 299s192.5 116 338.5 116c48.667 0 97.167 -5.33301 145.5 -16s85.833 -24.334 112.5 -41.001l-49 -184c-61.333 31.333 -130.333 47 -207 47c-147.333 0 -221 -77.333 -221 -232v-41h559v-903
c0 -103.333 -10 -187.333 -30 -252s-52.333 -118.334 -97 -161.001c-38 -35.333 -86.167 -62 -144.5 -80s-117.833 -27.667 -178.5 -29l-23 190c80 6.66699 137.333 29.334 172 68.001c22 25.333 37.5 61.833 46.5 109.5s13.5 121.167 13.5 220.5v659h-316v-819z" />
    <glyph glyph-name="ff" unicode="ff" horiz-adv-x="1193" 
d="M975 0l-242.001 0.00195312v819h-334v-819h-241v819h-133v178h133v25c0 140 35.333 246.333 106 319c64.667 64.667 154 97 268 97c46.667 0 90 -8.33301 130 -25l-41 -182c-27.333 12 -55.333 18 -84 18c-93.333 0 -140 -71.667 -140 -215v-37h336v45
c0 143.333 37.667 252.666 113 327.999c64.667 62.667 148 94 250 94c58.667 0 110.334 -8 155.001 -24l-22 -187c-35.333 11.333 -69 17 -101 17c-54.667 0 -94.167 -20.333 -118.5 -61s-36.5 -93.334 -36.5 -158.001v-54h207v-178h-205v-819z" />
    <glyph glyph-name="fi" unicode="fi" horiz-adv-x="1081" 
d="M399 0l-241 0.000976562v819h-133v178h133v52c0 122 39.833 221.667 119.5 299s192.5 116 338.5 116c48.667 0 97.167 -5.33301 145.5 -16s85.833 -24.334 112.5 -41.001l-49 -184c-61.333 31.333 -130.333 47 -207 47c-147.333 0 -221 -77.333 -221 -232v-41h559v-997
h-241v819h-316v-819z" />
    <glyph glyph-name="fl" unicode="fl" horiz-adv-x="1081" 
d="M399 0l-241 0.000976562v819h-133v178h133v43c0 59.333 11.833 118.166 35.5 176.499s57.5 106.833 101.5 145.5c84.667 68 196.667 102 336 102c127.333 0 235.666 -22.333 324.999 -67v-1397h-241v1257c-29.333 15.333 -69.666 23 -120.999 23
c-67.333 0 -117 -21.833 -149 -65.5s-48 -99.5 -48 -167.5v-50h191v-178h-189v-819z" />
    <glyph glyph-name="ffi" unicode="ffi" horiz-adv-x="1665" 
d="M1450 1411l-50.999 -184c-56 28.667 -121.667 43 -197 43c-147.333 0 -221 -77.333 -221 -232v-41h559v-997h-242v819h-315v-819h-242v819h-342v-819h-241v819h-133v178h133v25c0 140 41.667 248 125 324c68 61.333 154.667 92 260 92c52.667 0 108 -11.667 166 -35
l-60 -178c-33.333 16 -65.333 24 -96 24c-44.667 0 -79.334 -14.333 -104.001 -43c-34.667 -36.667 -52 -96 -52 -178v-31h344v52c0 121.333 40 220.833 120 298.5s193 116.5 339 116.5c46.667 0 93 -5 139 -15s83 -22.667 111 -38z" />
    <glyph glyph-name="ffl" unicode="ffl" horiz-adv-x="1665" 
d="M711 1407l-58.001 -177.999c-32 13.333 -64.667 20 -98 20c-44 0 -79.333 -14.333 -106 -43c-34.667 -36.667 -52 -95.334 -52 -176.001v-33h344v43c0 59.333 12 118.166 36 176.499s58 106.833 102 145.5c84.667 68 196.334 102 335.001 102
c128 0 236.667 -22.333 326 -67v-1397h-242v1257c-29.333 15.333 -69.333 23 -120 23c-67.333 0 -117 -22 -149 -66s-48 -100.667 -48 -170v-47h190v-178h-188v-819h-242v819h-342v-819h-241v819h-133v178h133v21c0 140.667 41 248.334 123 323.001
c72 64.667 163.333 97 274 97c47.333 0 99.333 -10.333 156 -31z" />
    <glyph glyph-name=".notdef" horiz-adv-x="1024" 
d="M0 0v1434h1024v-1434h-1024zM512 809l348 522h-696zM573 717l349 -522v1044zM164 102h696l-348 523zM102 1239v-1044l349 522z" />
    <glyph glyph-name="space" unicode=" " horiz-adv-x="393" 
 />
    <glyph glyph-name="exclam" unicode="!" horiz-adv-x="495" 
d="M342 424h-188l-35 956h258zM248 -20l-1.99902 0.000976562c-42 0 -76.833 14.5 -104.5 43.5s-41.5 65.5 -41.5 109.5c0 44.667 14.167 81.5 42.5 110.5s63.5 43.5 105.5 43.5c44 0 79.5 -14.333 106.5 -43s40.5 -65.667 40.5 -111
c0 -44.667 -13.333 -81.334 -40 -110.001s-62.334 -43 -107.001 -43z" />
    <glyph glyph-name="quotedbl" unicode="&#x22;" horiz-adv-x="729" 
d="M84 1411h219l-41 -520h-137zM426 1411h219l-41 -520h-137z" />
    <glyph glyph-name="numbersign" unicode="#" horiz-adv-x="1005" 
d="M395 539h183l34 264h-184zM319 0h-149l53 389h-160v150h183l37 264h-168v149h188l51 379h148l-51 -379h184l51 379h148l-52 -379h158v-149h-180l-33 -264h164v-150h-189l-51 -389h-149l53 389h-184z" />
    <glyph glyph-name="dollar" unicode="$" horiz-adv-x="1019" 
d="M580 -176l-161.999 -0.000976562v203c-57.333 2 -113 10.333 -167 25s-98.667 32.667 -134 54l51 187c92 -53.333 188.333 -80 289 -80c61.333 0 110.333 15 147 45s55 69 55 117c0 46.667 -16.5 86.5 -49.5 119.5s-85.167 64.833 -156.5 95.5
c-106.667 44.667 -187.334 94.667 -242.001 150s-82 125.333 -82 210c0 86 27 160 81 222s128 102.667 222 122v201h162v-188c99.333 -3.33301 185.333 -25.333 258 -66l-53 -180c-82 42 -164.667 63 -248 63c-61.333 0 -107.333 -14.167 -138 -42.5s-46 -62.5 -46 -102.5
c0 -41.333 16.667 -76.5 50 -105.5s93 -62.833 179 -101.5c105.333 -44 181.833 -95.667 229.5 -155s71.5 -132.666 71.5 -219.999c0 -90.667 -28.167 -168.5 -84.5 -233.5s-133.833 -106.5 -232.5 -124.5v-215z" />
    <glyph glyph-name="percent" unicode="%" horiz-adv-x="1605" 
d="M379 1352l1.99902 -0.000976562c96.667 0 172.334 -36.833 227.001 -110.5s82 -169.5 82 -287.5c0 -132.667 -30.833 -235.667 -92.5 -309s-137.167 -110 -226.5 -110c-91.333 0 -166.666 36.667 -225.999 110s-89.333 171 -90 293
c0 122.667 30.167 222.334 90.5 299.001s138.166 115 233.499 115zM374.999 1217l-1.99707 -0.000976562c-44.667 0 -78.667 -25.5 -102 -76.5s-35 -116.5 -35 -196.5c-1.33301 -80.667 10.167 -146.167 34.5 -196.5s59.166 -75.5 104.499 -75.5s79.166 24.333 101.499 73
s33.5 115 33.5 199c0 80.667 -10.833 146.334 -32.5 197.001s-55.834 76 -102.501 76zM492.002 -25.002h-138l756 1379h135zM1237 800.998l2 -0.000976562c96 0 171.5 -37 226.5 -111s82.5 -170.333 82.5 -289c0 -133.333 -30.667 -236.166 -92 -308.499
s-137 -108.5 -227 -108.5c-91.333 0 -166.666 36.333 -225.999 109s-89.333 170 -90 292c0 122.667 30.167 222.667 90.5 300s138.166 116 233.499 116zM1233 663.997l-1.99707 0.000976562c-44.667 0 -78.667 -25.333 -102 -76s-35 -116.334 -35 -197.001
c-1.33301 -80 10.167 -145.333 34.5 -196s59.166 -76 104.499 -76s79.166 24.667 101.499 74s33.5 116 33.5 200c0 80.667 -10.833 146 -32.5 196s-55.834 75 -102.501 75z" />
    <glyph glyph-name="ampersand" unicode="&#x26;" horiz-adv-x="1239" 
d="M1227 0l-279 0.000976562c-24 26 -56.667 63.667 -98 113c-96.667 -88.667 -217.667 -133 -363 -133c-68.667 0 -130.667 10.667 -186 32s-100.333 50.166 -135 86.499s-61.167 77.333 -79.5 123s-27.5 94.167 -27.5 145.5c0 166.667 83.333 298.334 250 395.001v6
c-70.667 92 -106 187 -106 285c0 44 8 86.667 24 128s38.833 78.5 68.5 111.5s68 59.333 115 79s99.167 29.5 156.5 29.5c94 0 171.5 -27.833 232.5 -83.5s91.5 -130.167 91.5 -223.5c0 -70.667 -21 -135.334 -63 -194.001s-111 -115 -207 -169l-3 -8
c140 -172.667 228.333 -280 265 -322c50.667 84.667 86.667 205.667 108 363h215c-34 -224.667 -100.667 -394.667 -200 -510zM524 158.001l2 0.000976562c85.333 0 156.333 30.667 213 92l-323 383c-84.667 -62.667 -127 -140 -127 -232
c0 -68.667 21.5 -126.334 64.5 -173.001s99.833 -70 170.5 -70zM557 1241h-2c-42 0 -75 -16.333 -99 -49s-36 -72.334 -36 -119.001c0 -71.333 30.667 -145.666 92 -222.999c59.333 39.333 102.833 76.833 130.5 112.5s41.5 76.5 41.5 122.5c0 42 -10.667 78.5 -32 109.5
s-53 46.5 -95 46.5z" />
    <glyph glyph-name="quotesingle" unicode="'" horiz-adv-x="387" 
d="M84 1411h219l-41 -520h-137z" />
    <glyph glyph-name="parenleft" unicode="(" horiz-adv-x="587" 
d="M358 1417l176.999 0.000976562c-150.667 -228.667 -226 -506.334 -226 -833.001c0 -316.667 75.333 -592.667 226 -828h-177c-69.333 96 -127.166 213 -173.499 351s-69.5 297.667 -69.5 479c0.666992 125.333 13.667 244.166 39 356.499s54.833 204.333 88.5 276
s72.167 137.834 115.5 198.501z" />
    <glyph glyph-name="parenright" unicode=")" horiz-adv-x="587" 
d="M229 -244h-176.001c150.667 232.667 226 510.667 226 834c0 320 -75.333 595.667 -226 827h176c162.667 -222.667 244 -499 244 -829c-1.33301 -328.667 -82.666 -606 -243.999 -832z" />
    <glyph glyph-name="asterisk" unicode="*" horiz-adv-x="858" 
d="M549 1401l149 -86l-202 -252v-6l309 51v-170l-309 45l-2 -4l206 -246l-153 -88l-119 297l-4 -2l-123 -297l-145 90l202 250v4l-303 -49v170l299 -49l2 4l-198 250l151 86l117 -293h6z" />
    <glyph glyph-name="plus" unicode="+" horiz-adv-x="1220" 
d="M530 1090h162v-465h447v-156h-447v-469h-162v469h-446v156h446v465z" />
    <glyph glyph-name="comma" unicode="," horiz-adv-x="471" 
d="M184 -236l-163.998 -16c28 78.667 54.667 167 80 265s44 187.333 56 268l254 20c-28.667 -95.333 -63.834 -192.833 -105.501 -292.5s-81.834 -181.167 -120.501 -244.5z" />
    <glyph glyph-name="hyphen" unicode="-" horiz-adv-x="616" 
d="M61 633h494v-170h-494v170z" />
    <glyph glyph-name="period" unicode="." horiz-adv-x="471" 
d="M250 -20h-1.99805c-42 0 -76.833 14.667 -104.5 44s-41.5 67 -41.5 113c0 46.667 14.167 85 42.5 115s64.166 45 107.499 45s78.666 -14.667 105.999 -44s41 -68 41 -116c0 -46.667 -13.667 -84.5 -41 -113.5s-63.333 -43.5 -108 -43.5z" />
    <glyph glyph-name="slash" unicode="/" horiz-adv-x="655" 
d="M174 -82h-168l488 1483h168z" />
    <glyph glyph-name="zero" unicode="0" horiz-adv-x="1019" 
d="M506 -20h-2c-94.667 0 -175.167 29.333 -241.5 88s-115.5 138.5 -147.5 239.5s-48.333 219.167 -49 354.5c0 138.667 17.167 259.5 51.5 362.5s85.666 183.333 153.999 241s150.5 86.5 246.5 86.5c74 0 139.333 -17.167 196 -51.5s102.334 -82.5 137.001 -144.5
s60.5 -133.333 77.5 -214s25.5 -170 25.5 -268c0 -221.333 -39.167 -392.333 -117.5 -513s-188.5 -181 -330.5 -181zM510 170l2.00098 -0.000976562c66.667 0 116.834 42.833 150.501 128.5s50.5 208.834 50.5 369.501c0 158 -16.5 279.667 -49.5 365s-83.5 128 -151.5 128
c-64 0 -114.167 -43 -150.5 -129s-54.5 -207.333 -54.5 -364c-0.666992 -160 16.666 -283 51.999 -369s85.666 -129 150.999 -129z" />
    <glyph glyph-name="one" unicode="1" horiz-adv-x="1019" 
d="M451 0v1108h-5l-237 -121l-43 184l317 160h203v-1331h-235z" />
    <glyph glyph-name="two" unicode="2" horiz-adv-x="1019" 
d="M918 0h-838.001v150l147 151c74 74 134.167 136.5 180.5 187.5s89.166 103.333 128.499 157s67.833 103.667 85.5 150s26.834 92.5 27.501 138.5c0 66 -18 119 -54 159s-91 60 -165 60c-82.667 0 -168.667 -32.667 -258 -98l-66 176
c46.667 34.667 102.167 63.5 166.5 86.5s132.5 34.5 204.5 34.5c69.333 0 130.833 -10.667 184.5 -32s97 -50.5 130 -87.5s57.833 -78.833 74.5 -125.5s25 -97 25 -151c0 -58 -9.16699 -114.833 -27.5 -170.5s-46.166 -111 -83.499 -166s-76 -105.5 -116 -151.5
s-90 -99 -150 -159l-104 -102v-4h508v-203z" />
    <glyph glyph-name="three" unicode="3" horiz-adv-x="1019" 
d="M76 61l48.999 187c30.667 -18.667 70.667 -35.667 120 -51s99.333 -23 150 -23c83.333 0 146.5 20.667 189.5 62s64.5 93 64.5 155c0 74.667 -27.833 131.667 -83.5 171s-124.834 59 -207.501 59h-92v176h86c29.333 0 58.333 3.66699 87 11s55.834 18.166 81.501 32.499
s46.334 34.166 62.001 59.499s23.5 54.333 23.5 87c0 51.333 -17 92.5 -51 123.5s-83 46.5 -147 46.5c-43.333 0 -86.833 -7.66699 -130.5 -23s-80.167 -33 -109.5 -53l-51 176c38 26.667 88.333 49.167 151 67.5s127.667 27.5 195 27.5c122.667 0 218.167 -31 286.5 -93
s102.5 -139 102.5 -231c0 -69.333 -19.667 -130.833 -59 -184.5s-95.333 -95.167 -168 -124.5v-4c78.667 -16 143.667 -53.5 195 -112.5s77 -132.833 77 -221.5c0 -55.333 -11 -107.166 -33 -155.499s-53.167 -90.666 -93.5 -126.999s-91.5 -65.166 -153.5 -86.499
s-131 -32 -207 -32c-68 0 -131.833 7.66699 -191.5 23s-107.167 34.666 -142.5 57.999z" />
    <glyph glyph-name="four" unicode="4" horiz-adv-x="1019" 
d="M819 0h-225v340h-557v160l510 831h272v-805h162v-186h-162v-340zM264 526h330v348c0 69.333 3.33301 147.333 10 234h-8c-57.333 -118 -95 -193 -113 -225l-219 -353v-4z" />
    <glyph glyph-name="five" unicode="5" horiz-adv-x="1019" 
d="M870 1331l-0.00292969 -202.999h-464l-41 -274c36 2.66699 63 4 81 4c119.333 0 220 -30 302 -90c103.333 -74 155 -183.333 155 -328c0 -130.667 -46.833 -240 -140.5 -328s-216.167 -132 -367.5 -132c-62.667 0 -122.5 6.83301 -179.5 20.5s-103.5 30.5 -139.5 50.5
l49 185c30.667 -16.667 69.834 -31.5 117.501 -44.5s95.834 -19.5 144.501 -19.5c74.667 0 138.334 22 191.001 66s79 104.667 79 182c0 83.333 -29.667 147.166 -89 191.499s-147 66.5 -263 66.5c-55.333 0 -108 -3.33301 -158 -10l84 663h639z" />
    <glyph glyph-name="six" unicode="6" horiz-adv-x="1019" 
d="M838 1350v-193.001c-38.667 0 -79 -2.66699 -121 -8c-61.333 -8.66699 -116.5 -25.5 -165.5 -50.5s-89.667 -55.667 -122 -92s-58.333 -75.333 -78 -117s-33.834 -86.167 -42.501 -133.5h6c67.333 82 159 123 275 123c108.667 0 198 -38.667 268 -116
s105 -181.333 105 -312c0 -84.667 -17.333 -162.5 -52 -233.5s-85.5 -128.333 -152.5 -172s-143.833 -65.5 -230.5 -65.5c-146.667 0 -261.167 52 -343.5 156s-123.5 240.333 -123.5 409c0 127.333 19.833 242 59.5 344s93.834 188 162.501 258
c112.667 112.667 256 177.334 430 194.001c40 6 81.667 9 125 9zM526 157.999l2.00098 0.000976562c58 0 104.333 25.5 139 76.5s52 119.5 52 205.5c0 78.667 -18.333 142 -55 190s-87.334 72 -152.001 72c-41.333 0 -79.5 -11.833 -114.5 -35.5s-61.833 -55.5 -80.5 -95.5
c-9.33301 -20.667 -14 -49.334 -14 -86.001c2 -98 22.333 -177 61 -237s92.667 -90 162 -90z" />
    <glyph glyph-name="seven" unicode="7" horiz-adv-x="1019" 
d="M98 1331h834v-153l-522 -1178h-248l516 1124v4h-580v203z" />
    <glyph glyph-name="eight" unicode="8" horiz-adv-x="1019" 
d="M522 1352l2 -0.00195312c62 0 118 -9.33301 168 -28s90.5 -43.667 121.5 -75s54.667 -66.666 71 -105.999s24.5 -80.333 24.5 -123c0 -59.333 -15.833 -115.333 -47.5 -168s-80.5 -97 -146.5 -133v-6c72 -32 129.833 -77.333 173.5 -136s65.5 -127.334 65.5 -206.001
c0 -116 -41.833 -210.167 -125.5 -282.5s-191.834 -108.5 -324.501 -108.5c-69.333 0 -132.5 9.83301 -189.5 29.5s-103.5 46.334 -139.5 80.001s-63.667 72.167 -83 115.5s-29 89 -29 137c0 154.667 79.333 271.334 238 350.001v6
c-63.333 34 -111.166 76.833 -143.499 128.5s-48.5 107.167 -48.5 166.5c0 106.667 39.333 193.167 118 259.5s177 99.5 295 99.5zM510 149.998h1.99805c60 0 108.5 18.833 145.5 56.5s55.5 86.834 55.5 147.501c0 118.667 -75.333 204 -226 256
c-57.333 -20.667 -101.666 -52 -132.999 -94s-47 -91 -47 -147c-1.33301 -60.667 16.834 -112.334 54.501 -155.001s87.167 -64 148.5 -64zM511.998 1184l-2.00098 -0.00195312c-54 0 -96.167 -17.167 -126.5 -51.5s-45.5 -77.166 -45.5 -128.499
c0 -99.333 65.667 -171.333 197 -216c42.667 17.333 77.834 44.5 105.501 81.5s41.5 78.833 41.5 125.5c0 52.667 -14.167 97.334 -42.5 134.001s-70.833 55 -127.5 55z" />
    <glyph glyph-name="nine" unicode="9" horiz-adv-x="1019" 
d="M176 -18l-0.000976562 194.004c36.667 -2 80.334 0 131.001 6c93.333 10.667 173.333 43.667 240 99c86 74.667 140 175.667 162 303h-4c-66.667 -74 -155 -111 -265 -111c-108 0 -197 37.667 -267 113s-105 173.666 -105 294.999c0 83.333 18.167 160.666 54.5 231.999
s89 129 158 173s146.833 66 233.5 66c140 0 248.333 -51.833 325 -155.5s115 -238.834 115 -405.501c0 -265.333 -74.333 -472.333 -223 -621c-106.667 -106.667 -244.667 -167.334 -414 -182.001c-42.667 -6.66699 -89.667 -8.66699 -141 -6zM501.999 1174
l-1.99805 0.000976562c-56 0 -102.333 -25.167 -139 -75.5s-54.667 -117.5 -54 -201.5c0 -74 17.667 -134.167 53 -180.5s84 -69.5 146 -69.5c41.333 0 78.666 10 111.999 30s58.666 45 75.999 75c10 25.333 15 54.666 15 87.999c0 100.667 -17.5 181.5 -52.5 242.5
s-86.5 91.5 -154.5 91.5z" />
    <glyph glyph-name="colon" unicode=":" horiz-adv-x="471" 
d="M252 674h-1.99902c-42 0 -76.833 14.667 -104.5 44s-41.5 66.333 -41.5 111c0 45.333 14 83 42 113s63.333 45 106 45c44 0 79.5 -14.5 106.5 -43.5s40.5 -67.167 40.5 -114.5c0 -45.333 -13.333 -82.5 -40 -111.5s-62.334 -43.5 -107.001 -43.5zM252.001 -20h-1.99902
c-42 0 -76.833 14.667 -104.5 44s-41.5 66.333 -41.5 111c0 45.333 14 83 42 113s63.333 45 106 45c44 0 79.5 -14.5 106.5 -43.5s40.5 -67.167 40.5 -114.5c0 -45.333 -13.333 -82.5 -40 -111.5s-62.334 -43.5 -107.001 -43.5z" />
    <glyph glyph-name="semicolon" unicode=";" horiz-adv-x="471" 
d="M182 -236l-161.999 -14c63.333 176 108.666 353.667 135.999 533l252 20c-29.333 -96 -64.833 -194 -106.5 -294s-81.5 -181.667 -119.5 -245zM266.001 674h-2.00098c-42 0 -76.667 14.667 -104 44s-41 66.333 -41 111c0 45.333 13.833 83 41.5 113s62.834 45 105.501 45
c44 0 79.667 -14.667 107 -44s41 -67.333 41 -114c0 -45.333 -13.5 -82.5 -40.5 -111.5s-62.833 -43.5 -107.5 -43.5z" />
    <glyph glyph-name="less" unicode="&#x3c;" horiz-adv-x="1220" 
d="M125 477v137l971 476v-181l-766 -362v-4l766 -363v-180z" />
    <glyph glyph-name="equal" unicode="=" horiz-adv-x="1220" 
d="M1139 674h-1057v155h1057v-155zM1139 268h-1057v156h1057v-156z" />
    <glyph glyph-name="greater" unicode="&#x3e;" horiz-adv-x="1220" 
d="M1096 623v-156l-969 -467v180l786 363v4l-786 362v181z" />
    <glyph glyph-name="question" unicode="?" horiz-adv-x="811" 
d="M469 418l-211.001 0.000976562l-4 47c-10 116.667 29 232 117 346c42.667 56 73.834 102.167 93.501 138.5s29.5 73.5 29.5 111.5c0 44.667 -14.167 79.834 -42.5 105.501s-68.833 38.834 -121.5 39.501c-70.667 0 -132.334 -17.667 -185.001 -53l-53 176
c32 22 74.333 40.167 127 54.5s107.334 21.5 164.001 21.5c118 0 206.833 -29.833 266.5 -89.5s89.5 -132.834 89.5 -219.501c0 -34.667 -4.33301 -68 -13 -100s-22.667 -64.333 -42 -97s-36 -58.5 -50 -77.5s-35 -45.833 -63 -80.5
c-38.667 -48.667 -66 -94.834 -82 -138.501s-22.667 -90.834 -20 -141.501v-43zM359.999 -19.999l-1.99805 0.000976562c-42 0 -76.667 14.5 -104 43.5s-41 65.5 -41 109.5c0 46 14 83.5 42 112.5s63 43.5 105 43.5c44 0 79.667 -14.5 107 -43.5s41.666 -66.5 42.999 -112.5
c0 -44.667 -13.833 -81.334 -41.5 -110.001s-63.834 -43 -108.501 -43z" />
    <glyph glyph-name="at" unicode="@" horiz-adv-x="1456" 
d="M852 504l41 233c-19.333 7.33301 -43.333 11 -72 11c-72.667 0 -135.5 -34.667 -188.5 -104s-79.5 -150.333 -79.5 -243c0 -41.333 9 -73.833 27 -97.5s43.667 -35.5 77 -35.5c42.667 0 83.167 24.167 121.5 72.5s62.833 102.833 73.5 163.5zM1001 -37l32.999 -96.0049
c-103.333 -52 -221.333 -78 -354 -78c-79.333 0 -154.5 14.333 -225.5 43s-133.833 69.334 -188.5 122.001s-98 119.334 -130 200.001s-48 169.334 -48 266.001c0 141.333 29.833 272.166 89.5 392.499s145.5 217.333 257.5 291s238.667 110.5 380 110.5
c84.667 0 162.334 -14.5 233.001 -43.5s130 -68.833 178 -119.5s85.333 -110.834 112 -180.501s40 -144.834 40 -225.501c0 -157.333 -33.833 -282 -101.5 -374s-153.834 -138 -258.501 -138c-46.667 0 -84.167 14.333 -112.5 43s-42.833 70.334 -43.5 125.001h-6
c-62.667 -112 -149.334 -168 -260.001 -168c-61.333 0 -111.5 22.833 -150.5 68.5s-58.5 107.5 -58.5 185.5c0 62.667 11 123.334 33 182.001s52.667 110.834 92 156.501s88.833 82.334 148.5 110.001s124.167 41.5 193.5 41.5c86 0 157 -14.333 213 -43l-68 -381
c-26.667 -136.667 -8.66699 -205 54 -205c51.333 -1.33301 97.5 32.667 138.5 102s61.5 162.333 61.5 279c0 144 -39.667 260.167 -119 348.5s-191.666 132.5 -336.999 132.5c-77.333 0 -151 -16.167 -221 -48.5s-131.667 -77.5 -185 -135.5s-95.666 -130 -126.999 -216
s-47 -179.333 -47 -280c0 -167.333 45.5 -298.166 136.5 -392.499s210.167 -141.5 357.5 -141.5c108 0 204.667 22.333 290 67z" />
    <glyph glyph-name="A" unicode="A" horiz-adv-x="1187" 
d="M780 381h-391l-104 -381h-246l403 1380h301l400 -1380h-254zM426 565l317 -0.000976562l-94 334c-16.667 64 -37.667 156.333 -63 277h-4c-19.333 -91.333 -40 -183.666 -62 -276.999z" />
    <glyph glyph-name="B" unicode="B" horiz-adv-x="1103" 
d="M137 4l0.000976562 1358c94 19.333 206.667 29 338 29c88 0 161.833 -6.83301 221.5 -20.5s111.5 -37.167 155.5 -70.5c86 -56.667 129 -141 129 -253c0 -66 -19.167 -126.167 -57.5 -180.5s-92.833 -94.833 -163.5 -121.5v-6
c79.333 -20.667 144.166 -60.667 194.499 -120s75.5 -132.666 75.5 -219.999c0 -112.667 -41 -206.667 -123 -282c-92 -86 -253.667 -129 -485 -129c-108.667 0 -203.667 5.33301 -285 16zM377.001 1202l-0.00195312 -389h110c76.667 0 137.834 19 183.501 57
s68.5 87.333 68.5 148c0 63.333 -20.167 111.5 -60.5 144.5s-99.166 49.5 -176.499 49.5c-55.333 0 -97 -3.33301 -125 -10zM376.999 636.999l0.000976562 -459c19.333 -4 57.666 -6 114.999 -6c83.333 0 151.5 19.167 204.5 57.5s79.5 97.166 79.5 176.499
c0 76.667 -27.333 134.334 -82 173.001s-125 58 -211 58h-106z" />
    <glyph glyph-name="C" unicode="C" horiz-adv-x="1079" 
d="M985 229l36.999 -191.999c-28.667 -15.333 -70.667 -28.333 -126 -39s-117 -16 -185 -16c-199.333 0 -356 62.333 -470 187s-171 293 -171 505c0 116 17.667 220.5 53 313.5s83.833 169.167 145.5 228.5s132.834 104.666 213.501 135.999s167.667 47 261 47
c66 0 124.167 -5.16699 174.5 -15.5s88.5 -22.833 114.5 -37.5l-51 -195c-66 30 -141.667 45 -227 45c-127.333 0 -230.833 -43.5 -310.5 -130.5s-119.5 -213.5 -119.5 -379.5c0 -160 38 -283 114 -369s180.667 -129 314 -129c93.333 0 171 13.667 233 41z" />
    <glyph glyph-name="D" unicode="D" horiz-adv-x="1267" 
d="M137 4l0.00195312 1358c105.333 19.333 223.666 29 354.999 29c219.333 0 386.333 -48.667 501 -146c138 -113.333 207 -288 207 -524c0 -246 -68.333 -433 -205 -561c-122.667 -114.667 -309 -172 -559 -172c-100.667 0 -200.334 5.33301 -299.001 16zM379.002 1188
l-0.000976562 -1002c20.667 -4 59 -6 115 -6c142 -1.33301 252.833 42.5 332.5 131.5s119.5 223.5 119.5 403.5c1.33301 154.667 -35 274.167 -109 358.5s-180.333 126.5 -319 126.5c-51.333 0 -97.666 -4 -138.999 -12z" />
    <glyph glyph-name="E" unicode="E" horiz-adv-x="968" 
d="M842 815v-199h-463v-413h518v-203h-760v1380h731v-202h-489v-363h463z" />
    <glyph glyph-name="F" unicode="F" horiz-adv-x="956" 
d="M137 0v1380h729v-202h-487v-390h452v-198h-452v-590h-242z" />
    <glyph glyph-name="G" unicode="G" horiz-adv-x="1234" 
d="M1130 758v-704.998c-123.333 -44.667 -253.666 -67 -390.999 -67c-206 0 -367 56 -483 168c-60.667 58.667 -107.167 133.334 -139.5 224.001s-48.5 190.667 -48.5 300c0.666992 113.333 19 215.666 55 306.999s85.5 166.666 148.5 225.999s137.333 104.833 223 136.5
s178.834 47.5 279.501 47.5c67.333 0 129.166 -5.83301 185.499 -17.5s101.166 -25.167 134.499 -40.5l-52 -198c-74 34 -162.667 51 -266 51c-136 0 -245.667 -42.833 -329 -128.5s-125 -210.834 -125 -375.501c0 -162 38.5 -286.167 115.5 -372.5
s178.833 -129.5 305.5 -129.5c69.333 0 121.333 7.66699 156 23v358h-215v193h446z" />
    <glyph glyph-name="H" unicode="H" horiz-adv-x="1265" 
d="M137 1380h242v-559h508v559h241v-1380h-241v608h-508v-608h-242v1380z" />
    <glyph glyph-name="I" unicode="I" horiz-adv-x="518" 
d="M137 1380h242v-1380h-242v1380z" />
    <glyph glyph-name="J" unicode="J" horiz-adv-x="735" 
d="M371 467l0.000976562 912.996h241v-915c0 -91.333 -10.333 -169.166 -31 -233.499s-50.667 -114.5 -90 -150.5s-84 -61.833 -134 -77.5s-107.667 -23.5 -173 -23.5c-74 0 -135.333 9.33301 -184 28l29 197c40.667 -14 85 -21 133 -21c33.333 0 62.166 4.33301 86.499 13
s46 23.334 65 44.001s33.333 49.834 43 87.501s14.5 83.834 14.5 138.501z" />
    <glyph glyph-name="K" unicode="K" horiz-adv-x="1101" 
d="M137 0l-0.000976562 1380h240v-635h6c54.667 93.333 85.334 145.333 92.001 156l320 479h288l-430 -589l455 -791h-279l-344 627l-108 -140v-487h-240z" />
    <glyph glyph-name="L" unicode="L" horiz-adv-x="929" 
d="M137 0v1380h242v-1177h508v-203h-750z" />
    <glyph glyph-name="M" unicode="M" horiz-adv-x="1566" 
d="M1233 0l-27.001 554.999c-12 254 -17.333 439 -16 555h-6c-34.667 -145.333 -82 -314.666 -142 -507.999l-186 -586h-180l-168 576c-51.333 176.667 -93.666 349.334 -126.999 518.001h-4c-6.66699 -198.667 -15 -386.334 -25 -563.001l-28 -547h-222l93 1380h301
l166 -555c50 -178.667 90 -339 120 -481h4c30 136.667 71.667 297 125 481l174 555h299l80 -1380h-231z" />
    <glyph glyph-name="N" unicode="N" horiz-adv-x="1271" 
d="M358 0l-221 -0.000976562v1380h262l320 -592c82.667 -151.333 153.667 -302.666 213 -453.999h4c-15.333 199.333 -23 397.333 -23 594v452h222v-1380h-244l-322 602c-91.333 168 -164.333 323 -219 465h-6c9.33301 -162.667 14 -364.667 14 -606v-461z" />
    <glyph glyph-name="O" unicode="O" horiz-adv-x="1296" 
d="M639 -20l-2.00098 0.000976562c-116 0 -217.5 30.333 -304.5 91s-152.833 144 -197.5 250s-67 227 -67 363c0 139.333 24.167 263.166 72.5 371.499s117.333 193 207 254s192.834 91.5 309.501 91.5c119.333 0 222.666 -31.167 309.999 -93.5s152.5 -145.5 195.5 -249.5
s64.5 -221.667 64.5 -353c0 -117.333 -14.667 -222.333 -44 -315s-70.333 -168.667 -123 -228s-114.667 -104.5 -186 -135.5s-149.666 -46.5 -234.999 -46.5zM646.999 178.001l1.99902 0.00292969c68.667 0 127.834 23.667 177.501 71s86.5 109.5 110.5 186.5
s36 163.833 36 260.5c0 65.333 -6.66699 127.666 -20 186.999s-32.833 113.166 -58.5 161.499s-59.667 86.666 -102 114.999s-90.166 42.5 -143.499 42.5c-70.667 0 -131.334 -24.5 -182.001 -73.5s-87.5 -111.333 -110.5 -187s-34.5 -160.167 -34.5 -253.5
c-0.666992 -92.667 11 -177 35 -253s61.167 -137.833 111.5 -185.5s109.833 -71.5 178.5 -71.5z" />
    <glyph glyph-name="P" unicode="P" horiz-adv-x="1064" 
d="M137 0v1362c101.333 19.333 216.666 29 345.999 29c175.333 0 305 -37 389 -111c40.667 -34.667 72.334 -78.167 95.001 -130.5s34 -109.833 34 -172.5c0 -130.667 -37.333 -234.334 -112 -311.001c-46.667 -48.667 -105.5 -85.5 -176.5 -110.5
s-148.167 -37.5 -231.5 -37.5c-42 0 -76.667 2.66699 -104 8v-526h-240zM377 1190l0.000976562 -473.001c24 -5.33301 58 -8 102 -8c88 0 156.833 22.833 206.5 68.5s74.5 108.834 74.5 189.501c0 73.333 -22.333 130.833 -67 172.5s-108.334 62.5 -191.001 62.5
c-50 0 -91.667 -4 -125 -12z" />
    <glyph glyph-name="Q" unicode="Q" horiz-adv-x="1296" 
d="M1247 -27l-73.001 -189.998c-146 44 -305.333 102 -478 174c-36 14 -63.333 21.667 -82 23c-76 3.33301 -146.667 20.666 -212 51.999s-123 75.666 -173 132.999s-89.333 130.333 -118 219s-43 188 -43 298c0 140 24 264.333 72 373s117 193.5 207 254.5
s194 91.5 312 91.5c72 0 138.833 -11.667 200.5 -35s114.834 -56.166 159.501 -98.499s82.667 -92.333 114 -150s54.833 -121.167 70.5 -190.5s23.5 -142.666 23.5 -219.999c0 -164.667 -28.667 -301.834 -86 -411.501s-134 -184.834 -230 -225.501v-9
c64 -20 176 -49.333 336 -88zM646.999 178.002h2c68.667 0 127.834 23.5 177.501 70.5s86.5 109 110.5 186s36 164.167 36 261.5c0 66.667 -6.66699 130 -20 190s-33 113.667 -59 161s-59.833 85 -101.5 113s-88.834 42 -141.501 42c-70 0 -130.5 -24.333 -181.5 -73
s-88.333 -111 -112 -187s-35.5 -160.667 -35.5 -254c-0.666992 -94 11 -179 35 -255s61.167 -137.5 111.5 -184.5s109.833 -70.5 178.5 -70.5z" />
    <glyph glyph-name="R" unicode="R" horiz-adv-x="1087" 
d="M137 0l0.000976562 1362c96.667 19.333 212 29 346 29c186 0 320 -36.333 402 -109c76 -66 114 -158.667 114 -278c0 -83.333 -22.333 -155.333 -67 -216s-102 -104.334 -172 -131.001v-6c48 -18 86.667 -49.333 116 -94s52.666 -104 69.999 -178
c48.667 -214.667 82.334 -341 101.001 -379h-248c-20.667 42.667 -49.334 152.667 -86.001 330c-18 88 -44.333 149.5 -79 184.5s-85.667 53.167 -153 54.5h-104v-569h-240zM377.001 1194l0.000976562 -445.999h123c79.333 0 142.166 21.333 188.499 64s69.5 99 69.5 169
c0 73.333 -21.5 129.166 -64.5 167.499s-104.167 57.5 -183.5 57.5c-66 0 -110.333 -4 -133 -12z" />
    <glyph glyph-name="S" unicode="S" horiz-adv-x="976" 
d="M76 59l48.9971 202.999c38 -22.667 83.5 -41.334 136.5 -56.001s106.5 -22 160.5 -22c76 0 135 17.167 177 51.5s63 80.166 63 137.499c0 51.333 -17.667 94.5 -53 129.5s-93.666 70.167 -174.999 105.5c-225.333 94.667 -338 227.334 -338 398.001
c0 113.333 41.833 207.166 125.5 281.499s196.167 111.5 337.5 111.5c116.667 0 214.334 -20.667 293.001 -62l-53 -200c-74 39.333 -156 59 -246 59c-70 0 -123.333 -16.333 -160 -49s-55 -71.667 -55 -117c0 -50.667 18 -91.667 54 -123s100 -67.333 192 -108
c110 -49.333 191 -106.666 243 -171.999s78 -143.333 78 -234c0 -58 -10.667 -111.667 -32 -161s-52.166 -92.666 -92.499 -129.999s-92.333 -66.666 -156 -87.999s-135.167 -32 -214.5 -32c-63.333 0 -126 7.66699 -188 23s-110.667 33.333 -146 54z" />
    <glyph glyph-name="T" unicode="T" horiz-adv-x="983" 
d="M369 0v1171h-351v209h945v-209h-353v-1171h-241z" />
    <glyph glyph-name="U" unicode="U" horiz-adv-x="1249" 
d="M135 1380h242v-837c0 -123.333 22 -215 66 -275s104 -90 180 -90c167.333 0 251 121.667 251 365v837h242v-815c0 -196 -44 -342.5 -132 -439.5s-210.667 -145.5 -368 -145.5c-154 0 -272.667 47.5 -356 142.5s-125 241.167 -125 438.5v819z" />
    <glyph glyph-name="V" unicode="V" horiz-adv-x="1130" 
d="M694 0l-274 0.000976562l-406 1380h265l165 -626c48.667 -172 89 -339.333 121 -502h4c22 119.333 62.333 286.666 121 501.999l174 626h260z" />
    <glyph glyph-name="W" unicode="W" horiz-adv-x="1656" 
d="M596 0l-254 -0.000976562l-311 1380h256l119 -618c32.667 -177.333 59 -339.333 79 -486h7c14 108.667 45.333 271.334 94 488.001l137 616h240l127 -622c37.333 -184 64.333 -343 81 -477h5c20 141.333 48 303 84 485l126 614h244l-338 -1380h-254l-131 621
c-34 155.333 -58.333 302.666 -73 441.999h-5c-24.667 -161.333 -54 -309.666 -88 -444.999z" />
    <glyph glyph-name="X" unicode="X" horiz-adv-x="1097" 
d="M1067 0h-272l-136 279c-40 80 -80 164.333 -120 253h-4c-29.333 -76.667 -66.333 -161 -111 -253l-125 -279h-266l366 700l-352 680h270l136 -284c28 -60 61.333 -136 100 -228h4c22 57.333 54 134 96 230l129 282h269l-361 -675z" />
    <glyph glyph-name="Y" unicode="Y" horiz-adv-x="1069" 
d="M651 0h-241v567l-398 813h273l147 -348c50 -121.333 86.333 -215.333 109 -282h4c21.333 63.333 57.333 158 108 284l146 346h266l-414 -805v-575z" />
    <glyph glyph-name="Z" unicode="Z" horiz-adv-x="1042" 
d="M47 0v135l629 1036v7h-574v202h877v-149l-619 -1022v-6h625v-203h-938z" />
    <glyph glyph-name="bracketleft" unicode="[" horiz-adv-x="587" 
d="M524 -229h-381v1634h381v-145h-200v-1344h200v-145z" />
    <glyph glyph-name="backslash" unicode="\" horiz-adv-x="632" 
d="M625 -82h-168l-453 1483h168z" />
    <glyph glyph-name="bracketright" unicode="]" horiz-adv-x="587" 
d="M61 1405h383v-1634h-383v145h201v1344h-201v145z" />
    <glyph glyph-name="asciicircum" unicode="^" horiz-adv-x="1220" 
d="M1116 375h-182l-322 760h-6l-319 -760h-181l426 956h158z" />
    <glyph glyph-name="underscore" unicode="_" horiz-adv-x="1024" 
d="M0 -154h1024v-102h-1024v102z" />
    <glyph glyph-name="grave" unicode="`" 
d="M39 1421h233l168 -297h-164z" />
    <glyph glyph-name="a" unicode="a" horiz-adv-x="970" 
d="M848 606l-0.000976562 -369.998c0 -98.667 4.66699 -177.334 14 -236.001h-217l-16 109h-4c-29.333 -40 -67.5 -71.5 -114.5 -94.5s-99.167 -34.5 -156.5 -34.5c-89.333 0 -160.833 28.667 -214.5 86s-80.5 127.333 -80.5 210c0 82 23.167 151.333 69.5 208
s109.833 98.334 190.5 125.001s176.334 40 287.001 40v19c0 22 -2.5 42.333 -7.5 61s-13.833 37.167 -26.5 55.5s-31.834 32.833 -57.501 43.5s-57.167 16 -94.5 16c-90.667 0 -172 -23.333 -244 -70l-47 160c38.667 23.333 87.334 43.166 146.001 59.499s122 24.5 190 24.5
c58 0 109.5 -7.5 154.5 -22.5s81.667 -35 110 -60s51.5 -55.333 69.5 -91s30.667 -72.834 38 -111.501s11 -81 11 -127zM611.999 340.002l-0.000976562 151.997c-41.333 0.666992 -79.166 -1.66602 -113.499 -6.99902s-67.5 -14.666 -99.5 -27.999s-57 -33.166 -75 -59.499
s-27 -58.5 -27 -96.5c0 -48 12.667 -84.167 38 -108.5s57 -36.5 95 -36.5c42 0 78.833 12.167 110.5 36.5s53.5 55.833 65.5 94.5c4 16 6 33.667 6 53z" />
    <glyph glyph-name="b" unicode="b" horiz-adv-x="1099" 
d="M125 276l0.00195312 1168h242v-576h4c60.667 100 156 150 286 150c111.333 0 201.5 -46.167 270.5 -138.5s103.167 -213.5 102.5 -363.5c0 -86 -11.5 -163.667 -34.5 -233s-53.833 -125.666 -92.5 -168.999s-82.334 -76.5 -131.001 -99.5s-100 -34.5 -154 -34.5
c-122.667 0 -215.334 53.667 -278.001 161h-4l-12 -141h-207c5.33301 93.333 8 185.333 8 276zM367.002 591.999v-197c0 -23.333 2 -43 6 -59c14.667 -50.667 39.167 -90.334 73.5 -119.001s73.833 -43 118.5 -43c70 0 124.333 29.5 163 88.5s58 139.5 58 241.5
c0 94 -18.833 171 -56.5 231s-92.5 90 -164.5 90c-44 0 -83.833 -15.667 -119.5 -47s-59.167 -71.666 -70.5 -120.999c-5.33301 -24 -8 -45.667 -8 -65z" />
    <glyph glyph-name="c" unicode="c" horiz-adv-x="837" 
d="M764 209l31.001 -182.001c-67.333 -30 -150 -45 -248 -45c-145.333 0 -261.166 45.333 -347.499 136s-129.5 214.334 -129.5 371.001c0 100 20.167 189.667 60.5 269s100.166 142.166 179.499 188.499s172 69.5 278 69.5c84 0 155 -13.667 213 -41l-41 -184
c-44 22.667 -99.333 34 -166 34c-86.667 0 -154.834 -30.667 -204.501 -92s-74.5 -139.666 -74.5 -234.999c0 -100 26 -179 78 -237s119 -87 201 -87c57.333 0 114 11.667 170 35z" />
    <glyph glyph-name="d" unicode="d" horiz-adv-x="1095" 
d="M727 1444l241.999 -0.000976562v-1168c0 -90.667 2.66699 -182.667 8 -276h-213l-12 145h-4c-27.333 -50 -66.5 -90 -117.5 -120s-108.167 -45 -171.5 -45c-113.333 0 -206.5 47 -279.5 141s-109.5 216.667 -109.5 368c0 82 11 156.833 33 224.5s51.667 123.5 89 167.5
s80.333 77.833 129 101.5s100 35.5 154 35.5c58.667 0 109.334 -11.167 152.001 -33.5s74.667 -52.166 96 -89.499h4v549zM726.999 407.999l-0.00195312 184c0 28.667 -1.33301 49.667 -4 63c-9.33301 48 -31.166 88.333 -65.499 121s-75.166 49 -122.499 49
c-70.667 0 -125.334 -31 -164.001 -93s-58 -140.667 -58 -236c0 -96 19.333 -173.667 58 -233s91.667 -89 159 -89c44.667 0 84.334 14.167 119.001 42.5s58 68.833 70 121.5c5.33301 18 8 41.333 8 70z" />
    <glyph glyph-name="e" unicode="e" horiz-adv-x="980" 
d="M909 432l-606.001 0.000976562c2 -90.667 29.167 -157.667 81.5 -201s118.833 -65 199.5 -65c86.667 0 169 14.333 247 43l35 -168c-87.333 -39.333 -193.666 -59 -318.999 -59c-150 0 -267 45 -351 135s-126 212 -126 366c0 73.333 10.167 142.166 30.5 206.499
s49.166 121 86.499 170s84.833 87.667 142.5 116s121.834 42.5 192.501 42.5c56 0 106.667 -9.16699 152 -27.5s82.833 -42.666 112.5 -72.999s54.667 -66.333 75 -108s34.833 -84.834 43.5 -129.501s13 -91 13 -139c0 -38 -3 -74.333 -9 -109zM302.999 602.001
l386.996 -0.00195312c0.666992 30 -2.16602 58.833 -8.49902 86.5s-16.166 53.834 -29.499 78.501s-32.666 44.334 -57.999 59.001s-54.666 22 -87.999 22c-32 0 -61 -7.66699 -87 -23s-46.833 -35.5 -62.5 -60.5s-28 -51.333 -37 -79s-14.5 -55.5 -16.5 -83.5z" />
    <glyph glyph-name="f" unicode="f" horiz-adv-x="618" 
d="M399 0l-241 0.000976562v819h-133v178h133v45c0 144 37.333 253.333 112 328c64.667 62.667 148 94 250 94c59.333 0 111.333 -8 156 -24l-23 -187c-35.333 11.333 -68.666 17 -99.999 17c-54.667 0 -94.334 -20.333 -119.001 -61s-37 -93.334 -37 -158.001v-54h207v-178
h-205v-819z" />
    <glyph glyph-name="g" unicode="g" horiz-adv-x="1083" 
d="M958 702l-0.000976562 -564.998c0 -108.667 -10.833 -198.334 -32.5 -269.001s-56.5 -128.334 -104.5 -173.001c-85.333 -78 -204.666 -117 -357.999 -117c-128 0 -232.333 23.333 -313 70l51 186c72.667 -44.667 159.334 -67 260.001 -67
c80.667 0 143.834 23.833 189.501 71.5s68.5 121.167 68.5 220.5v82h-4c-25.333 -42 -60.333 -75 -105 -99s-95.667 -36 -153 -36c-114.667 0 -207.834 46.333 -279.501 139s-107.5 209 -107.5 349c0 81.333 11.333 155.5 34 222.5s53.167 122.167 91.5 165.5
s82.166 76.833 131.499 100.5s101.333 35.5 156 35.5c116 0 202 -48.667 258 -146h4l11 125h211c-6 -108 -9 -206.333 -9 -295zM716.999 416.002v194.001c0 28.667 -2.66699 52 -8 70c-12 43.333 -33.5 78.666 -64.5 105.999s-69.167 41 -114.5 41
c-64.667 0 -117 -29.5 -157 -88.5s-60 -137.833 -60 -236.5c0 -93.333 19.167 -168.666 57.5 -225.999s90.833 -86 157.5 -86c40.667 0 77 12.167 109 36.5s54.667 58.166 68 101.499c8 26.667 12 56 12 88z" />
    <glyph glyph-name="h" unicode="h" horiz-adv-x="1085" 
d="M125 0l-0.000976562 1444h242v-574h4c30 44.667 67.333 80.334 112 107.001c51.333 27.333 105.333 41 162 41c43.333 0 83.5 -7.83301 120.5 -23.5s70.5 -39.667 100.5 -72s53.667 -76 71 -131s26 -118.833 26 -191.5v-600h-242v580c0 72.667 -13.333 130.667 -40 174
s-70 65 -130 65c-41.333 0 -77.166 -12.333 -107.499 -37s-52.5 -57.334 -66.5 -98.001c-6.66699 -19.333 -10 -44.666 -10 -75.999v-608h-242z" />
    <glyph glyph-name="i" unicode="i" horiz-adv-x="493" 
d="M367 0h-242v997h242v-997zM246 1139h-1.99902c-38.667 0 -70.167 12.5 -94.5 37.5s-36.5 56.833 -36.5 95.5s12.5 70.5 37.5 95.5s57.5 37.5 97.5 37.5s72.167 -12.333 96.5 -37s36.5 -56.667 36.5 -96c0 -38.667 -12.333 -70.5 -37 -95.5s-57.334 -37.5 -98.001 -37.5z
" />
    <glyph glyph-name="j" unicode="j" horiz-adv-x="514" 
d="M-57 -428l-23 190.001c80 6.66699 137.333 30 172 70c22 25.333 37.5 61.5 46.5 108.5s13.5 120.167 13.5 219.5v837h241v-903c0 -103.333 -10 -187.333 -30 -252s-52.333 -118.334 -97 -161.001c-38 -35.333 -86.167 -62 -144.5 -80s-117.833 -27.667 -178.5 -29z
M270 1139h-2c-38.667 0 -70.167 12.5 -94.5 37.5s-36.5 56.833 -36.5 95.5s12.5 70.5 37.5 95.5s57.5 37.5 97.5 37.5c39.333 0 71.5 -12.5 96.5 -37.5s37.5 -56.833 37.5 -95.5s-12.5 -70.5 -37.5 -95.5s-57.833 -37.5 -98.5 -37.5z" />
    <glyph glyph-name="k" unicode="k" horiz-adv-x="966" 
d="M367 1444v-887h4c26.667 50 49.667 89.667 69 119l219 321h283l-334 -409l375 -588h-289l-254 440l-73 -98v-342h-242v1444h242z" />
    <glyph glyph-name="l" unicode="l" horiz-adv-x="497" 
d="M125 0v1444h242v-1444h-242z" />
    <glyph glyph-name="m" unicode="m" horiz-adv-x="1617" 
d="M125 0v705.002c0 77.333 -2.66699 174.666 -8 291.999h209l10 -137h6c28 44.667 65.333 82.167 112 112.5s103.667 45.5 171 45.5c61.333 0 114.5 -15.167 159.5 -45.5s77.833 -71.833 98.5 -124.5h4c32 50 70 89.667 114 119c54.667 34 116.334 51 185.001 51
c88.667 0 162 -33.833 220 -101.5s87 -171.167 87 -310.5v-606h-238v567c0 169.333 -52.333 254 -157 254c-37.333 0 -70 -11.667 -98 -35s-48.667 -54 -62 -92c-6.66699 -28 -10 -56 -10 -84v-610h-238v596c0 67.333 -12.333 121.666 -37 162.999s-63.334 62 -116.001 62
c-39.333 0 -73.5 -13 -102.5 -39s-49.5 -58.667 -61.5 -98c-7.33301 -28 -11 -55.333 -11 -82v-602h-237z" />
    <glyph glyph-name="n" unicode="n" horiz-adv-x="1085" 
d="M125 0l0.000976562 705.002c0 77.333 -2.66699 174.666 -8 291.999h211l12 -139h4c25.333 44 63.833 81.667 115.5 113s111.5 47 179.5 47c92.667 0 169.834 -33.833 231.501 -101.5s92.5 -169.834 92.5 -306.501v-610h-242v584c0 71.333 -13.333 128.333 -40 171
s-69.334 64 -128.001 64c-42.667 0 -79.334 -13 -110.001 -39s-52 -59.333 -64 -100c-8 -22.667 -12 -50.667 -12 -84v-596h-242z" />
    <glyph glyph-name="o" unicode="o" horiz-adv-x="1060" 
d="M528 -20h-2.00098c-133.333 0 -242.666 45.833 -327.999 137.5s-128 217.167 -128 376.5c0 164 44 292.333 132 385s200.333 139 337 139c135.333 0 244.5 -46.667 327.5 -140s124.5 -217.333 124.5 -372c0 -72.667 -9.16699 -139 -27.5 -199
s-42.5 -109.833 -72.5 -149.5s-65.167 -73.167 -105.5 -100.5s-82 -47 -125 -59s-87.167 -18 -132.5 -18zM529.999 158h2c64 0 115.167 33 153.5 99s57.5 147 57.5 243c0 40.667 -3.83301 80.167 -11.5 118.5s-19.334 74.5 -35.001 108.5s-37.667 61.333 -66 82
s-61.166 31 -98.499 31c-38 0 -71.333 -10.167 -100 -30.5s-51 -47.333 -67 -81s-28 -70 -36 -109s-12 -79.5 -12 -121.5c0 -96 19 -176.667 57 -242s90 -98 156 -98z" />
    <glyph glyph-name="p" unicode="p" horiz-adv-x="1099" 
d="M125 -401l-0.000976562 1073c0 96.667 -2.66699 205 -8 325h213l12 -143h4c68 109.333 168.333 164 301 164c112 0 203.833 -46.667 275.5 -140s107.5 -216 107.5 -368c0 -87.333 -11.667 -165.666 -35 -234.999s-54.666 -125 -93.999 -167s-83 -73.833 -131 -95.5
s-98.667 -32.5 -152 -32.5c-56 0 -105.667 11.333 -149 34s-76 52.667 -98 90h-4v-505h-242zM366.999 587.999l-0.000976562 -186.999c0 -28 2.66699 -52.333 8 -73c12 -49.333 35.333 -88 70 -116s74 -42 118 -42c70.667 0 125.5 30.5 164.5 91.5s58.5 140.5 58.5 238.5
c0 94.667 -19 172.167 -57 232.5s-92 90.5 -162 90.5c-44 0 -84.167 -16 -120.5 -48s-60.166 -72.667 -71.499 -122c-5.33301 -26.667 -8 -48.334 -8 -65.001z" />
    <glyph glyph-name="q" unicode="q" horiz-adv-x="1093" 
d="M727 -401v526h-4c-28 -44.667 -65.167 -80 -111.5 -106s-100.5 -39 -162.5 -39c-106.667 0 -196.5 46.5 -269.5 139.5s-109.5 214.167 -109.5 363.5c0 86 11.667 163.833 35 233.5s54.5 126 93.5 169s82.5 75.833 130.5 98.5s98 34 150 34
c119.333 0 205.333 -48.667 258 -146h4l9 125h227c-5.33301 -117.333 -8 -216.333 -8 -297v-1101h-242zM727 401v196.999c0 22.667 -2 44 -6 64c-10.667 46 -32.667 84.333 -66 115s-73.333 46 -120 46c-70 0 -124.5 -30.167 -163.5 -90.5s-58.5 -139.166 -58.5 -236.499
c0 -95.333 19 -172.833 57 -232.5s91.333 -89.5 160 -89.5c42.667 0 81 13.333 115 40s58 64 72 112c6.66699 28 10 53 10 75z" />
    <glyph glyph-name="r" unicode="r" horiz-adv-x="677" 
d="M125 0l0.00292969 687.999c0 88.667 -2.66699 191.667 -8 309h209l10 -178h8c21.333 62 55.5 110.667 102.5 146s96.167 53 147.5 53c15.333 0 33.666 -1.33301 54.999 -4v-234c-18 4 -39.667 6 -65 6c-52.667 0 -97.834 -16.5 -135.501 -49.5
s-62.834 -77.833 -75.501 -134.5c-4 -23.333 -6 -50.666 -6 -81.999v-520h-242z" />
    <glyph glyph-name="s" unicode="s" horiz-adv-x="788" 
d="M66 47l46.999 176c28.667 -17.333 64.167 -32.5 106.5 -45.5s83.166 -19.5 122.499 -19.5c48.667 0 85.834 10 111.501 30s38.5 47.333 38.5 82c0 33.333 -11 60.833 -33 82.5s-61.667 44.167 -119 67.5c-168 69.333 -252 166.333 -252 291c0 88.667 32.667 162 98 220
s151.333 87 258 87c94 0 174.667 -19 242 -57l-49 -173c-59.333 36 -122 54 -188 54c-41.333 0 -73.666 -9.83301 -96.999 -29.5s-35 -44.834 -35 -75.501c0 -30 11.333 -54.667 34 -74s64 -41.666 124 -66.999c84.667 -35.333 147.167 -77.333 187.5 -126
s60.5 -107.667 60.5 -177c0 -95.333 -33.833 -171 -101.5 -227s-161.5 -84 -281.5 -84c-52.667 0 -103.5 5.83301 -152.5 17.5s-89.5 27.5 -121.5 47.5z" />
    <glyph glyph-name="t" unicode="t" horiz-adv-x="677" 
d="M168 1180l237.999 71.001v-254h225v-178h-225v-465c0 -60.667 9.5 -104.834 28.5 -132.501s49.5 -41.5 91.5 -41.5c36 0 65.333 3.33301 88 10l7 -186c-45.333 -14.667 -102.666 -22 -171.999 -22c-89.333 0 -157 25 -203 75c-52 54 -78 146.333 -78 277v485h-135v178
h135v183z" />
    <glyph glyph-name="u" unicode="u" horiz-adv-x="1077" 
d="M950 997v-699.998c0 -88.667 2.66699 -187.667 8 -297h-210l-13 137h-4c-25.333 -42 -62.5 -78.667 -111.5 -110s-108.833 -47 -179.5 -47c-97.333 0 -174.833 34.167 -232.5 102.5s-86.5 175.166 -86.5 320.499v594h241v-557c0 -174.667 54.667 -262 164 -262
c42 0 77.333 12.167 106 36.5s50 53.166 64 86.499c8.66699 24.667 13 52 13 82v614h241z" />
    <glyph glyph-name="v" unicode="v" horiz-adv-x="958" 
d="M20 997l261.001 -0.000976562l141 -503c25.333 -87.333 45.666 -172 60.999 -254h6c10.667 56.667 30.667 141.334 60 254.001l139 503h250l-346 -997h-232z" />
    <glyph glyph-name="w" unicode="w" horiz-adv-x="1437" 
d="M25 997h249l95 -452c23.333 -108 43 -214.667 59 -320h4c14 81.333 38.667 187.333 74 318l123 454h192l115 -444c37.333 -148 62 -257.333 74 -328h6c11.333 100.667 31 210 59 328l101 444h237l-295 -997h-219l-113 408c-24.667 92 -47 197 -67 315h-4
c-18.667 -111.333 -42.667 -217 -72 -317l-119 -406h-219z" />
    <glyph glyph-name="x" unicode="x" horiz-adv-x="935" 
d="M23 997h266.001l106 -188l80 -160h4l36.5 76.5l41.5 85.5l100 186h258l-303 -481l308 -516h-271l-110 201c-6 11.333 -32.667 65 -80 161h-4c-26.667 -58 -53.334 -111.667 -80.001 -161l-103 -201h-260l310 506z" />
    <glyph glyph-name="y" unicode="y" horiz-adv-x="944" 
d="M16 997h265.001l159 -536c20.667 -72 37 -135.667 49 -191h7l23 93l24 98l139 536h252l-232 -690c-56.667 -167.333 -108.667 -298.333 -156 -393s-99 -169.667 -155 -225c-42.667 -40.667 -86.334 -72.167 -131.001 -94.5s-83.667 -35.833 -117 -40.5l-61 204
c48 12.667 95.667 38.667 143 78c52.667 40.667 93.667 92 123 154c9.33301 16.667 14 31.667 14 45s-3.33301 28.333 -10 45z" />
    <glyph glyph-name="z" unicode="z" horiz-adv-x="849" 
d="M39 0v143l346 492l127 164v4h-436v194h723v-151l-336 -481l-42 -54l-48.5 -62l-40.5 -50v-4h477v-195h-770z" />
    <glyph glyph-name="braceleft" unicode="{" horiz-adv-x="587" 
d="M53 522v132.996c32 0.666992 58.667 5.16699 80 13.5s37 19.833 47 34.5s17 29.334 21 44.001s6 31.334 6 50.001c0 34.667 -4 90 -12 166c-10 68.667 -15 124.334 -15 167.001c0 92 26.833 160.833 80.5 206.5s127.167 68.5 220.5 68.5h49v-143h-34
c-89.333 -3.33301 -134 -55.333 -134 -156c0 -7.33301 3.66699 -52.333 11 -135c8 -60 12 -108 12 -144c0.666992 -69.333 -12.333 -122.333 -39 -159s-66.334 -62 -119.001 -76v-4c52.667 -13.333 92.334 -38.666 119.001 -75.999s39.667 -91.333 39 -162
c0 -18.667 -3.33301 -67 -10 -145c-8.66699 -64.667 -13 -109 -13 -133c0 -50 10.667 -88.333 32 -115s56 -41 104 -43h32v-143h-51c-92 0 -164.833 22.167 -218.5 66.5s-80.5 115.5 -80.5 213.5c0 42 5 97.333 15 166c8 73.333 12 128 12 164
c0 92.667 -51.333 139.667 -154 141z" />
    <glyph glyph-name="bar" unicode="|" horiz-adv-x="505" 
d="M164 1536h178v-2048h-178v2048z" />
    <glyph glyph-name="braceright" unicode="}" horiz-adv-x="587" 
d="M535 655v-132.997c-102.667 -1.33301 -154 -48.333 -154 -141c0 -45.333 4.66699 -100 14 -164c8.66699 -79.333 13 -134.666 13 -165.999c0 -98 -26.833 -169.167 -80.5 -213.5s-126.5 -66.5 -218.5 -66.5h-52v143h33c48 2 82.5 16.333 103.5 43s31.5 65 31.5 115
c0 14 -3.33301 58.333 -10 133c-8 62.667 -12 111 -12 145c-0.666992 70.667 12.166 124.667 38.499 162s65.833 62.666 118.5 75.999v4c-52.667 14 -92.167 39.333 -118.5 76s-39.166 89.667 -38.499 159c0 36 4 84 12 144c6.66699 75.333 10 120.333 10 135
c0 100.667 -44.333 152.667 -133 156h-35v143h49c93.333 0 167 -22.833 221 -68.5s81 -114.5 81 -206.5c0 -42.667 -5 -98.334 -15 -167.001c-8 -76 -12 -131.333 -12 -166c0 -18.667 2 -35.334 6 -50.001s11 -29.334 21 -44.001s25.667 -26.167 47 -34.5
s48 -12.833 80 -13.5z" />
    <glyph glyph-name="asciitilde" unicode="~" horiz-adv-x="1220" 
d="M262 418h-158.001c-2 112.667 21.667 197.167 71 253.5s114 84.5 194 84.5c41.333 0 81.5 -7.16699 120.5 -21.5s92.167 -39.5 159.5 -75.5c56 -29.333 99.667 -50.166 131 -62.499s60 -18.5 86 -18.5c61.333 0 93 55.667 95 167h155
c4.66699 -116.667 -16 -202.834 -62 -258.501s-108 -83.5 -186 -83.5c-42 0 -83.167 7.16699 -123.5 21.5s-93.166 38.833 -158.499 73.5c-42 22.667 -72.333 38.667 -91 48s-40.167 18.333 -64.5 27s-45.5 13 -63.5 13c-66.667 0 -101.667 -56 -105 -168z" />
    <glyph glyph-name="uni00A0" unicode="&#xa0;" horiz-adv-x="393" 
 />
    <glyph glyph-name="exclamdown" unicode="&#xa1;" horiz-adv-x="495" 
d="M377 -393h-258l35 952h188zM248 1008h2c42.667 0 77.5 -14.333 104.5 -43s40.5 -65.667 40.5 -111c0 -44.667 -13.5 -81.5 -40.5 -110.5s-62.5 -43.5 -106.5 -43.5c-42.667 0 -78 14.667 -106 44s-42 66 -42 110c0 44.667 14.167 81.5 42.5 110.5s63.5 43.5 105.5 43.5z
" />
    <glyph glyph-name="cent" unicode="&#xa2;" horiz-adv-x="1019" 
d="M680 -23l-160 -0.000976562v203c-109.333 15.333 -199.333 63.333 -270 144c-74 82.667 -111 197.334 -111 344.001c0 127.333 34.167 236.5 102.5 327.5s161.166 148.167 278.499 171.5v199h162v-190c69.333 -2 131.333 -16.333 186 -43l-41 -183
c-47.333 27.333 -107.333 41 -180 41c-81.333 0 -145.666 -30.167 -192.999 -90.5s-71 -135.833 -71 -226.5c0 -98 24.833 -174.833 74.5 -230.5s113.5 -83.5 191.5 -83.5c65.333 0 131 13 197 39l31 -176c-51.333 -27.333 -117 -43 -197 -47v-199z" />
    <glyph glyph-name="sterling" unicode="&#xa3;" horiz-adv-x="1019" 
d="M932 0h-833.998v137c60.667 27.333 112 71.333 154 132s63 125.334 63 194.001c0 43.333 -2.66699 82.333 -8 117h-192v168h164c-14 77.333 -21 143.333 -21 198c0 120.667 37.667 218.5 113 293.5s173.666 112.5 294.999 112.5c90.667 0 161.667 -15.667 213 -47
l-43 -187c-43.333 24.667 -97.333 37 -162 37s-112.334 -19.5 -143.001 -58.5s-46 -89.833 -46 -152.5c0 -52.667 7.66699 -118 23 -196h266v-168h-244c4.66699 -80.667 0 -145 -14 -193c-21.333 -70.667 -60.333 -131.334 -117 -182.001v-4h533v-201z" />
    <glyph glyph-name="currency" unicode="&#xa4;" horiz-adv-x="1019" 
d="M510 1106l2.00195 -0.000976562c88 0 162.333 -26 223 -78l146 160l110 -113l-166 -153c41.333 -74 62 -154 62 -240c0 -96.667 -21.333 -178.667 -64 -246l160 -160l-109 -110l-143 164c-28.667 -26 -63.5 -46.167 -104.5 -60.5s-81.167 -21.5 -120.5 -21.5
c-40.667 0 -81.334 7 -122.001 21s-74.334 33.667 -101.001 59l-138 -162l-108 110l156 154c-45.333 70 -68 151.333 -68 244c0 94.667 23.333 177.334 70 248.001l-164 151l110 115l144 -162c62 53.333 137 80 225 80zM506.002 937.999l-2 -0.000976562
c-56 0 -101.167 -24.5 -135.5 -73.5s-51.5 -111.833 -51.5 -188.5c0 -80 19 -143.333 57 -190s82 -70 132 -70c52 -1.33301 96.333 21.334 133 68.001s55 112 55 196c0 72 -16.833 133 -50.5 183s-79.5 75 -137.5 75z" />
    <glyph glyph-name="yen" unicode="&#xa5;" horiz-adv-x="1019" 
d="M614 0l-227 0.000976562v346h-301v123h301v139h-301v123h242l-310 600h254l160 -373l78 -208h4c30 89.333 56 159.666 78 210.999l164 370h245l-325 -600h242v-123h-304v-139h304v-123h-304v-346z" />
    <glyph glyph-name="brokenbar" unicode="&#xa6;" horiz-adv-x="505" 
d="M164 356h178v-716h-178v716zM164 1380h178v-716h-178v716z" />
    <glyph glyph-name="section" unicode="&#xa7;" horiz-adv-x="1034" 
d="M281 713v-1.99902c0 -66 61.333 -122.667 184 -170c120.667 -46.667 193.667 -78.334 219 -95.001c20.667 14.667 37.167 34 49.5 58s18.5 48.667 18.5 74c0 70.667 -50.667 125.667 -152 165l-60.5 23l-67.5 26.5c-17.333 7 -36.833 15.333 -58.5 25
s-39.5 18.5 -53.5 26.5c-52.667 -35.333 -79 -79 -79 -131zM846 1339l-44.9971 -153.002c-64.667 38 -143.334 57 -236.001 57c-55.333 0 -99.833 -10.833 -133.5 -32.5s-50.5 -51.167 -50.5 -88.5c0 -39.333 16.833 -70.666 50.5 -93.999s89.167 -48 166.5 -74
c53.333 -17.333 98.666 -34.833 135.999 -52.5s72.666 -39.667 105.999 -66s58.333 -57.666 75 -93.999s25 -78.166 25 -125.499c0 -99.333 -44.333 -183 -133 -251c20.667 -18 39.167 -43 55.5 -75s24.5 -67.333 24.5 -106c0 -53.333 -11.833 -100.833 -35.5 -142.5
s-55.167 -74.667 -94.5 -99s-82.333 -42.666 -129 -54.999s-95 -18.5 -145 -18.5c-138.667 0 -248.334 27.333 -329.001 82l51 151c30.667 -20 70.5 -37.833 119.5 -53.5s100.5 -23.5 154.5 -23.5c57.333 0 103.833 11.5 139.5 34.5s53.5 55.833 53.5 98.5
c0 38.667 -16.5 71.167 -49.5 97.5s-90.833 54.5 -173.5 84.5c-56.667 20 -104 39.167 -142 57.5s-74.667 40.666 -110 66.999s-61.666 56.833 -78.999 91.5s-26 74 -26 118c0 44.667 13 88.667 39 132s65 81.333 117 114c-21.333 18.667 -39.333 44 -54 76
s-22 65.333 -22 100c0 93.333 37.5 167.166 112.5 221.499s169.167 81.5 282.5 81.5c104 0 197 -20 279 -60z" />
    <glyph glyph-name="dieresis" unicode="&#xa8;" 
d="M115 1153l-2 -0.000976562c-34 0 -62.667 11.833 -86 35.5s-35 52.167 -35 85.5c0 34.667 12 63.834 36 87.501s53 35.5 87 35.5c33.333 0 61 -11.5 83 -34.5s33 -52.5 33 -88.5c0 -33.333 -11 -61.833 -33 -85.5s-49.667 -35.5 -83 -35.5zM502 1153l-2 -0.000976562
c-33.333 0 -61.5 11.833 -84.5 35.5s-34.5 52.167 -34.5 85.5c0 34.667 11.667 63.834 35 87.501s52 35.5 86 35.5s62.333 -11.5 85 -34.5s34 -52.5 34 -88.5c0 -33.333 -11.167 -61.833 -33.5 -85.5s-50.833 -35.5 -85.5 -35.5z" />
    <glyph glyph-name="copyright" unicode="&#xa9;" horiz-adv-x="1386" 
d="M696 1327h2.00195c85.333 0 166.5 -16.667 243.5 -50s143 -78.166 198 -134.499s98.667 -123.5 131 -201.5s48.5 -159.667 48.5 -245c0 -116 -27.333 -222.5 -82 -319.5s-129.834 -173.833 -225.501 -230.5s-200.834 -85 -315.501 -85s-220.167 28.333 -316.5 85
s-172.333 133.667 -228 231s-83.5 203.666 -83.5 318.999c0 114 27.833 219.5 83.5 316.5s131.667 173.667 228 230s201.833 84.5 316.5 84.5zM696.002 1225l-2 -0.00195312c-142 0 -262.167 -51.667 -360.5 -155s-147.5 -229.333 -147.5 -378
c0 -96.667 22.333 -185.5 67 -266.5s106.167 -144.833 184.5 -191.5s164.5 -70 258.5 -70c92 -0.666992 176.667 22.333 254 69s138.333 110.834 183 192.501s67 171.167 67 268.5c0 96.667 -22.333 185.834 -67 267.501s-105.667 146 -183 193s-162 70.5 -254 70.5z
M971.002 1010l-26.999 -97c-58 30 -123.333 45 -196 45c-86 0 -152.667 -24.167 -200 -72.5s-71 -113.5 -71 -195.5c0 -79.333 24 -144.166 72 -194.499s113.333 -75.5 196 -75.5c84 0 152.333 16.333 205 49l29 -92c-65.333 -42.667 -149.333 -64 -252 -64
c-116.667 0 -208.667 35 -276 105s-101 158.667 -101 266c0 113.333 38.667 205.166 116 275.499s171.333 105.5 282 105.5c47.333 0 92.666 -5.83301 135.999 -17.5s72.333 -24.167 87 -37.5z" />
    <glyph glyph-name="ordfeminine" unicode="&#xaa;" horiz-adv-x="698" 
d="M623 543h-150.002l-12 73h-4c-46.667 -56 -109.667 -84 -189 -84c-61.333 0 -110.333 18.5 -147 55.5s-55 84.167 -55 141.5c0 77.333 34 136.666 102 177.999s160 61.333 276 60v18c0 23.333 -9.83301 45.833 -29.5 67.5s-53.5 32.5 -101.5 32.5
c-62 0 -117.333 -16.333 -166 -49l-34 111c65.333 40.667 143 61 233 61c48.667 0 90.834 -7.33301 126.501 -22s63.334 -35.334 83.001 -62.001s34 -56.167 43 -88.5s13.5 -68.166 13.5 -107.499v-228c0 -63.333 3.66699 -115.666 11 -156.999zM448.998 760v100
c-38 0.666992 -72.5 -2 -103.5 -8s-58.167 -18.333 -81.5 -37s-35 -42.667 -35 -72c0 -27.333 9.5 -49.5 28.5 -66.5s41.833 -25.5 68.5 -25.5c22 0 43 6 63 18s35 27.333 45 46c10 17.333 15 32.333 15 45z" />
    <glyph glyph-name="guillemotleft" unicode="&#xab;" horiz-adv-x="864" 
d="M471 897l-246 -379l246 -381h-178l-242 381l240 379h180zM823 897l-245 -379l245 -381h-178l-242 381l242 379h178z" />
    <glyph glyph-name="logicalnot" unicode="&#xac;" horiz-adv-x="1220" 
d="M82 844h1057v-613h-162v457h-895v156z" />
    <glyph glyph-name="uni00AD" unicode="&#xad;" horiz-adv-x="616" 
d="M61 633h494v-170h-494v170z" />
    <glyph glyph-name="registered" unicode="&#xae;" horiz-adv-x="862" 
d="M383 1018l-0.000976562 -123.001h-86v322c33.333 8 77 12 131 12c52.667 0 93 -9 121 -27c22 -14.667 33 -37.667 33 -69c0 -16 -6.5 -30.833 -19.5 -44.5s-29.833 -23.5 -50.5 -29.5v-4c30.667 -9.33301 51 -36.666 61 -81.999
c8.66699 -40.667 16.334 -66.667 23.001 -78h-94c-8 10 -15.667 34.667 -23 74c-7.33301 32.667 -28.333 49 -63 49h-33zM384.999 1163v-84h33c44.667 0 67 14.333 67 43s-21 43 -63 43c-5.33301 0 -12.333 -0.333008 -21 -1s-14 -1 -16 -1zM431.999 1401h1.99902
c94.667 0 175.334 -33 242.001 -99s100 -145.667 100 -239c0 -95.333 -33.333 -176.166 -100 -242.499s-148 -99.5 -244 -99.5c-97.333 0 -179.666 33.167 -246.999 99.5s-101 147.166 -101 242.499c0 93.333 33.667 173 101 239s149.666 99 246.999 99zM429.998 1323
l-1.99902 0.000976562c-70 0 -129.167 -25.5 -177.5 -76.5s-72.5 -112.833 -72.5 -185.5s24.167 -134.5 72.5 -185.5s108.166 -76.5 179.499 -76.5c72 -0.666992 132 24.666 180 75.999s72 114 72 188c0 72 -24 133.333 -72 184s-108 76 -180 76z" />
    <glyph glyph-name="macron" unicode="&#xaf;" 
d="M74 1335h469v-141h-469v141z" />
    <glyph glyph-name="degree" unicode="&#xb0;" horiz-adv-x="659" 
d="M336 1403h3.99902c80.667 0 146.834 -26.833 198.501 -80.5s77.5 -118.5 77.5 -194.5c0 -81.333 -28.167 -148.333 -84.5 -201s-122.166 -79 -197.499 -79c-80.667 0 -147.334 26.333 -200.001 79s-79 117 -79 193c0 78.667 27.5 145.5 82.5 200.5
s121.167 82.5 198.5 82.5zM335.999 1288l-2 0.000976562c-43.333 0 -78.833 -16.5 -106.5 -49.5s-41.5 -71.833 -41.5 -116.5s14.5 -82.334 43.5 -113.001s64.5 -46 106.5 -46c42.667 0 78.167 15.333 106.5 46s42.5 69 42.5 115c0 44 -13.167 82.333 -39.5 115
s-62.833 49 -109.5 49z" />
    <glyph glyph-name="plusminus" unicode="&#xb1;" horiz-adv-x="1220" 
d="M530 1174h162v-373h447v-156h-447v-383h-162v383h-446v156h446v373zM84 156h1055v-156h-1055v156z" />
    <glyph glyph-name="twosuperior" unicode="&#xb2;" horiz-adv-x="636" 
d="M23 891l0.00390625 94.001l114 115c84.667 81.333 145.167 145.5 181.5 192.5s54.5 93.5 54.5 139.5c0 36.667 -11.333 65.5 -34 86.5s-54.334 31.5 -95.001 31.5c-56.667 0 -110.667 -19 -162 -57l-49 125c30 23.333 67.667 42.833 113 58.5s93.666 23.5 144.999 23.5
c90.667 0 159.667 -22.833 207 -68.5s71 -101.5 71 -167.5c0 -36 -6 -70.5 -18 -103.5s-30.833 -65.833 -56.5 -98.5s-49.834 -60.334 -72.501 -83.001s-53.334 -51.667 -92.001 -87l-54 -52v-4h306v-145h-559z" />
    <glyph glyph-name="threesuperior" unicode="&#xb3;" horiz-adv-x="622" 
d="M86 1518l-36.9971 122.001c66 40 146.667 60 242 60c84 0 148.333 -18.833 193 -56.5s67 -83.834 67 -138.501c0 -42 -13.833 -79 -41.5 -111s-65.167 -56.333 -112.5 -73v-4c52 -7.33301 95.5 -29 130.5 -65s52.5 -79.333 52.5 -130c0 -70 -30 -127.667 -90 -173
s-140.667 -68 -242 -68c-98.667 0 -176 17.667 -232 53l37 129c52.667 -32.667 112.667 -49 180 -49c46 0 82.833 11.167 110.5 33.5s41.5 49.833 41.5 82.5c0 40.667 -17.833 71.667 -53.5 93s-79.834 32 -132.501 32h-47v117h45c41.333 0 79.166 9 113.499 27
s51.5 44.667 51.5 80c0 26 -9.5 47.167 -28.5 63.5s-46.833 24.5 -83.5 24.5c-56.667 0 -111.334 -16.333 -164.001 -49z" />
    <glyph glyph-name="acute" unicode="&#xb4;" 
d="M358 1421h234l-238 -297h-164z" />
    <glyph glyph-name="mu" unicode="&#xb5;" horiz-adv-x="1081" 
d="M750 133l-6.99902 -0.000976562c-18.667 -39.333 -48.5 -73.333 -89.5 -102s-88.833 -43 -143.5 -43c-73.333 0 -127.333 25 -162 75v-104c0 -167.333 7.66699 -287.333 23 -360h-217c-19.333 56.667 -29 176.667 -29 360v1038h242v-591
c0 -70.667 13.333 -126.667 40 -168s67 -62 121 -62c41.333 0 77.333 12.667 108 38s52.667 54.333 66 87c8.66699 22 13 49.333 13 82v614h241v-708c0 -45.333 6.16699 -77.666 18.5 -96.999s33.5 -29.333 63.5 -30l-16 -170c-22.667 -8 -50.667 -12 -84 -12
c-100.667 0 -163.334 51 -188.001 153z" />
    <glyph glyph-name="paragraph" unicode="&#xb6;" horiz-adv-x="1013" 
d="M573 -100l-153 0.000976562v643h-14c-32 0 -66.5 7.66699 -103.5 23s-73.5 37.666 -109.5 66.999s-66.333 69.5 -91 120.5s-37.667 107.833 -39 170.5c-1.33301 46.667 3 91 13 133s28 83.333 54 124s59.5 75.667 100.5 105s94.5 53 160.5 71s141 27 225 27
c108 0 191.333 -6 250 -18v-1466h-153v1333h-140v-1333z" />
    <glyph glyph-name="periodcentered" unicode="&#xb7;" horiz-adv-x="471" 
d="M236 379l-2.99805 -0.00195312c-41.333 0 -75.833 14.833 -103.5 44.5s-41.5 67.5 -41.5 113.5c0 46.667 14.167 84.834 42.5 114.501s64.166 44.5 107.499 44.5s78.666 -14.667 105.999 -44s41 -67.666 41 -114.999c0 -46.667 -13.667 -84.667 -41 -114
s-63.333 -44 -108 -44z" />
    <glyph glyph-name="cedilla" unicode="&#xb8;" 
d="M268 8h134.999l-57 -102c38.667 -5.33301 71.834 -21.5 99.501 -48.5s41.5 -60.167 41.5 -99.5c0 -59.333 -21 -102.833 -63 -130.5s-96 -41.5 -162 -41.5c-59.333 0 -109 12.333 -149 37l34 103c40 -20.667 77 -31 111 -31c50.667 0 76 19 76 57
c0 46.667 -51.333 74 -154 82z" />
    <glyph glyph-name="onesuperior" unicode="&#xb9;" horiz-adv-x="532" 
d="M408 891h-187v641h-4l-151 -72l-29 135l209 95h162v-799z" />
    <glyph glyph-name="ordmasculine" unicode="&#xba;" horiz-adv-x="720" 
d="M362 1208l3.00195 0.000976562c94 0 168.333 -30.667 223 -92s82 -142 82 -242c-0.666992 -46.667 -6.83398 -89.334 -18.501 -128.001s-27.5 -71 -47.5 -97s-43.333 -48 -70 -66s-54.834 -31 -84.501 -39s-60.167 -12 -91.5 -12c-90 0 -164 30.333 -222 91
s-87 141.667 -87 243c0 104 29.833 187 89.5 249s134.167 93 223.5 93zM358.002 1081l-2 -0.000976562c-30.667 0 -56.667 -11.833 -78 -35.5s-36.166 -51 -44.499 -82s-12.5 -62.833 -12.5 -95.5c0 -58.667 12.667 -108.167 38 -148.5s59 -60.5 101 -60.5
c43.333 0 77.166 20.167 101.499 60.5s36.5 90.5 36.5 150.5c0 34 -4.5 66.333 -13.5 97s-24.5 57.334 -46.5 80.001s-48.667 34 -80 34z" />
    <glyph glyph-name="guillemotright" unicode="&#xbb;" horiz-adv-x="864" 
d="M287 518l-246 379h176l244 -379l-242 -381h-178zM637 518l-246 379h176l244 -379l-242 -381h-178z" />
    <glyph glyph-name="onequarter" unicode="&#xbc;" horiz-adv-x="1540" 
d="M440 543h-186v641h-4l-152 -72l-28 135l209 94h161v-798zM432 -20h-137l745 1372h140zM1362 0h-172v197h-375v104l346 506h201v-483h106v-127h-106v-197zM1190 324v186c0 39.333 2.66699 86.333 8 141h-6c-37.333 -70 -60 -111 -68 -123l-137 -202l2 -2h201z" />
    <glyph glyph-name="onehalf" unicode="&#xbd;" horiz-adv-x="1540" 
d="M414 543h-187v641h-4l-151 -72l-29 135l209 94h162v-798zM385 -20h-137l747 1372h138zM895 0v94.0029l115 115c86 83.333 146.667 148.166 182 194.499s53 92.166 53 137.499c0 36.667 -11.333 65.5 -34 86.5s-54.334 31.5 -95.001 31.5c-56.667 0 -110.667 -19 -162 -57
l-49 125c30 23.333 67.667 42.833 113 58.5s93.666 23.5 144.999 23.5c90.667 0 159.834 -22.833 207.501 -68.5s71.5 -101.5 71.5 -167.5c0 -36 -6 -70.5 -18 -103.5s-31 -65.833 -57 -98.5s-50.167 -60.334 -72.5 -83.001s-53.166 -51.667 -92.499 -87l-53 -51v-5h305
v-145h-559z" />
    <glyph glyph-name="threequarters" unicode="&#xbe;" horiz-adv-x="1540" 
d="M127 1169l-36.9971 121.001c27.333 18 62.666 32.833 105.999 44.5s88.666 17.5 135.999 17.5c84 0 148.333 -18.833 193 -56.5s67 -83.834 67 -138.501c0 -42 -13.833 -79 -41.5 -111s-65.167 -56.333 -112.5 -73v-4c52 -7.33301 95.5 -28.833 130.5 -64.5
s52.5 -78.5 52.5 -128.5c0 -71.333 -30 -129.833 -90 -175.5s-140.667 -68.5 -242 -68.5c-98 0 -175.333 18 -232 54l37 129c58 -31.333 118 -47 180 -47c46 0 82.833 10.833 110.5 32.5s41.5 49.5 41.5 83.5c0 40 -17.833 70.5 -53.5 91.5s-79.834 31.5 -132.501 31.5h-47
v117h45c42 0 80 8.83301 114 26.5s51 44.167 51 79.5c0 26 -9.33301 47.333 -28 64s-46.667 25 -84 25c-56 0 -110.667 -16.667 -164 -50zM492.003 -19.999h-138l748 1372h137zM1378 0.000976562h-172v197h-372v104l346 506h198v-483h107v-127h-107v-197zM1206 324.001v186
c0 38 2.66699 84.333 8 139h-6c-6 -10.667 -16.167 -30 -30.5 -58s-25.833 -49 -34.5 -63l-137 -202l2 -2h198z" />
    <glyph glyph-name="questiondown" unicode="&#xbf;" horiz-adv-x="811" 
d="M461 1008h2c42.667 0 77.5 -14.5 104.5 -43.5s40.5 -66.5 40.5 -112.5c0 -44.667 -13.5 -81.5 -40.5 -110.5s-62.5 -43.5 -106.5 -43.5c-43.333 0 -78.833 14.5 -106.5 43.5s-41.5 65.833 -41.5 110.5c0 46 13.833 83.5 41.5 112.5s63.167 43.5 106.5 43.5zM352 569
h211.001l4 -47c10.667 -116 -28 -230.667 -116 -344c-29.333 -39.333 -51.166 -69.666 -65.499 -90.999s-27.5 -46.5 -39.5 -75.5s-18 -56.833 -18 -83.5c0 -44.667 14.167 -79.834 42.5 -105.501s68.833 -38.834 121.5 -39.501c71.333 0 132.666 18.333 183.999 55l53 -178
c-33.333 -21.333 -76.166 -39.333 -128.499 -54s-106.5 -22 -162.5 -22c-60.667 0 -114.5 8.5 -161.5 25.5s-84.167 40.167 -111.5 69.5s-48 61.833 -62 97.5s-21 73.834 -21 114.501c0 34.667 4.33301 68.167 13 100.5s22.667 64.666 42 96.999s36.166 58.5 50.499 78.5
s35.166 47 62.499 81c38.667 47.333 66 92.833 82 136.5s22.667 90.834 20 141.501v43z" />
    <glyph glyph-name="Agrave" unicode="&#xc0;" horiz-adv-x="1187" 
d="M780 381h-391l-104 -381h-246l403 1380h301l400 -1380h-254zM426 565l317 -0.000976562l-94 334c-16.667 64 -37.667 156.333 -63 277h-4c-19.333 -91.333 -40 -183.666 -62 -276.999zM276 1696h265l180 -240h-191z" />
    <glyph glyph-name="Aacute" unicode="&#xc1;" horiz-adv-x="1187" 
d="M780 381h-391l-104 -381h-246l403 1380h301l400 -1380h-254zM426 565l317 -0.000976562l-94 334c-16.667 64 -37.667 156.333 -63 277h-4c-19.333 -91.333 -40 -183.666 -62 -276.999zM651 1694h264l-253 -240h-191z" />
    <glyph glyph-name="Acircumflex" unicode="&#xc2;" horiz-adv-x="1187" 
d="M780 381h-391l-104 -381h-246l403 1380h301l400 -1380h-254zM426 565l317 -0.000976562l-94 334c-16.667 64 -37.667 156.333 -63 277h-4c-19.333 -91.333 -40 -183.666 -62 -276.999zM506 1688h184l201 -234h-182l-109 125h-4l-109 -125h-178z" />
    <glyph glyph-name="Atilde" unicode="&#xc3;" horiz-adv-x="1187" 
d="M778 381h-389l-104 -381h-246l401 1380h301l400 -1380h-254zM426 565l317 -0.000976562l-94 334c-12.667 44.667 -33.667 137 -63 277h-6c-30 -143.333 -50.667 -235.666 -62 -276.999zM459 1466h-116.998c-2 72 10 128.333 36 169s61.667 61 107 61
c15.333 0 30.666 -2.16699 45.999 -6.5s27 -8.5 35 -12.5l38 -20c3.33301 -2 9.5 -5.5 18.5 -10.5s15.5 -8.5 19.5 -10.5s9.5 -4.5 16.5 -7.5s13.333 -5.16699 19 -6.5s11.167 -2 16.5 -2c16 0 28.333 6 37 18s14.334 33.333 17.001 64h114c4 -150 -44.333 -225 -145 -225
c-37.333 0 -78.333 12 -123 36l-16 9.5c-7.33301 4.33301 -12.666 7.33301 -15.999 9l-13.5 7c-5.66699 3 -10.334 5.16699 -14.001 6.5s-7.83398 2.5 -12.501 3.5s-9.33398 1.5 -14.001 1.5c-28.667 0 -45 -28 -49 -84z" />
    <glyph glyph-name="Adieresis" unicode="&#xc4;" horiz-adv-x="1187" 
d="M778 381h-389l-104 -381h-246l401 1380h301l400 -1380h-252zM426 565l317 -0.000976562l-94 334c-16.667 64 -37.667 156.333 -63 277h-6c-30 -143.333 -50.667 -235.666 -62 -276.999zM408 1464h-1.99902c-32.667 0 -60.334 11.833 -83.001 35.5s-34 52.167 -34 85.5
c0 34 11.5 62.667 34.5 86s51.167 35 84.5 35c32.667 0 59.834 -11.667 81.501 -35s32.5 -52 32.5 -86c0 -33.333 -10.833 -61.833 -32.5 -85.5s-48.834 -35.5 -81.501 -35.5zM797.001 1464h-2.00098c-32.667 0 -60 11.833 -82 35.5s-33 52.167 -33 85.5
c0 34 11.333 62.667 34 86s51 35 85 35c32.667 0 59.834 -11.667 81.501 -35s32.5 -52 32.5 -86c0 -33.333 -11 -61.833 -33 -85.5s-49.667 -35.5 -83 -35.5z" />
    <glyph glyph-name="Aring" unicode="&#xc5;" horiz-adv-x="1187" 
d="M778 381h-389l-104 -381h-246l401 1380h301l400 -1380h-254zM426 565l317 -0.000976562l-94 334c-16.667 64 -37.667 156.333 -63 277h-6c-30 -143.333 -50.667 -235.666 -62 -276.999zM594 1815l1.99902 -0.000976562c66.667 0 118.834 -18.333 156.501 -55
s56.5 -82.667 56.5 -138c0 -53.333 -19.667 -98 -59 -134s-91.333 -54 -156 -54c-66 0 -118.667 18 -158 54s-59 80 -59 132c0 54.667 19.5 100.834 58.5 138.501s91.833 56.5 158.5 56.5zM591.999 1724l-1.99902 -0.000976562c-27.333 0 -48.833 -10.333 -64.5 -31
s-23.5 -45 -23.5 -73c0 -25.333 8.16699 -47.666 24.5 -66.999s38.166 -29 65.499 -29c28.667 0 51.167 9.5 67.5 28.5s24.5 42.833 24.5 71.5c0 28 -8.16699 51.667 -24.5 71s-38.833 29 -67.5 29z" />
    <glyph glyph-name="AE" unicode="&#xc6;" horiz-adv-x="1546" 
d="M248 0h-246l549 1380h887l-2 -202h-512l37 -371h464v-199h-438l43 -405h465v-203h-674l-47 422h-366zM475 614h277l-37 367l-10.5 109.5c-5 53 -8.5 92.833 -10.5 119.5h-8c-42.667 -134 -68.667 -213.667 -78 -239z" />
    <glyph glyph-name="Ccedilla" unicode="&#xc7;" horiz-adv-x="1093" 
d="M985 229l36.998 -193.998c-63.333 -33.333 -160.333 -51 -291 -53l-43 -78c40.667 -7.33301 74.667 -24.833 102 -52.5s41 -62.167 41 -103.5c0 -30.667 -6.33301 -57.834 -19 -81.501s-30 -42.167 -52 -55.5s-45.667 -23.166 -71 -29.499s-52.333 -9.5 -81 -9.5
c-60.667 0 -113 12.333 -157 37l34 108c38.667 -18.667 76.334 -28 113.001 -28c22 0 40.167 4.66699 54.5 14s21.5 23.666 21.5 42.999c0 42 -51.333 69.333 -154 82l80 162c-167.333 23.333 -297.5 94.833 -390.5 214.5s-139.5 276.167 -139.5 469.5
c0 116 17.667 220.5 53 313.5s83.833 169.167 145.5 228.5s132.834 104.666 213.501 135.999s167.667 47 261 47c66 0 124.5 -5.33301 175.5 -16s88.833 -23 113.5 -37l-51 -197c-61.333 31.333 -137 47 -227 47c-127.333 0 -230.833 -43.5 -310.5 -130.5
s-119.5 -213.5 -119.5 -379.5c0 -160.667 38 -284.167 114 -370.5s180.667 -129.5 314 -129.5c92 0 169.667 14.333 233 43z" />
    <glyph glyph-name="Egrave" unicode="&#xc8;" horiz-adv-x="968" 
d="M842 815v-199h-463v-413h518v-203h-760v1380h731v-202h-489v-363h463zM201 1694h264l180 -238h-190z" />
    <glyph glyph-name="Eacute" unicode="&#xc9;" horiz-adv-x="968" 
d="M842 815v-199h-463v-413h518v-203h-760v1380h731v-202h-489v-363h463zM569 1694h265l-254 -240h-191z" />
    <glyph glyph-name="Ecircumflex" unicode="&#xca;" horiz-adv-x="968" 
d="M842 815v-199h-463v-413h518v-203h-760v1380h731v-202h-489v-363h463zM414 1688h186l201 -234h-183l-108 125h-4l-109 -125h-178z" />
    <glyph glyph-name="Edieresis" unicode="&#xcb;" horiz-adv-x="968" 
d="M842 815v-199h-463v-413h518v-203h-760v1380h731v-202h-489v-363h463zM309 1468h-1.99902c-32.667 0 -60.334 11.667 -83.001 35s-34 52 -34 86s11.5 62.667 34.5 86s51.167 35 84.5 35c32.667 0 60 -11.667 82 -35s33 -52 33 -86s-11 -62.667 -33 -86
s-49.333 -35 -82 -35zM696.001 1468h-1.99902c-32.667 0 -59.834 11.667 -81.501 35s-32.5 52 -32.5 86s11.167 62.667 33.5 86s50.5 35 84.5 35c32.667 0 60 -11.667 82 -35s33 -52 33 -86s-11 -62.667 -33 -86s-50 -35 -84 -35z" />
    <glyph glyph-name="Igrave" unicode="&#xcc;" horiz-adv-x="518" 
d="M137 1380h242v-1380h-242v1380zM-61 1696h264l180 -240h-190z" />
    <glyph glyph-name="Iacute" unicode="&#xcd;" horiz-adv-x="518" 
d="M137 1380h242v-1380h-242v1380zM309 1694h264l-254 -240h-190z" />
    <glyph glyph-name="Icircumflex" unicode="&#xce;" horiz-adv-x="518" 
d="M137 1380h242v-1380h-242v1380zM166 1688h184l201 -234h-182l-109 125h-4l-109 -125h-178z" />
    <glyph glyph-name="Idieresis" unicode="&#xcf;" horiz-adv-x="518" 
d="M137 1380h242v-1380h-242v1380zM66 1468h-3c-32.667 0 -60.167 11.833 -82.5 35.5s-33.5 52.167 -33.5 85.5c0 34 11.5 62.667 34.5 86s51.167 35 84.5 35c32.667 0 59.834 -11.667 81.501 -35s32.5 -52 32.5 -86c0 -33.333 -10.833 -61.833 -32.5 -85.5
s-48.834 -35.5 -81.501 -35.5zM455 1468h-2.00098c-32.667 0 -60 11.833 -82 35.5s-33 52.167 -33 85.5c0 34 11.333 62.667 34 86s51 35 85 35c32.667 0 59.834 -11.667 81.501 -35s32.5 -52 32.5 -86c0 -33.333 -11 -61.833 -33 -85.5s-49.667 -35.5 -83 -35.5z" />
    <glyph glyph-name="Eth" unicode="&#xd0;" horiz-adv-x="1280" 
d="M0 612l0.00195312 187.001h150v565c105.333 19.333 223.333 29 354 29c221.333 0 388.666 -48 501.999 -144c137.333 -112.667 206 -289.334 206 -530.001c0 -126.667 -18 -237.167 -54 -331.5s-86 -170.833 -150 -229.5c-122 -116 -308.333 -174 -559 -174
c-100.667 0 -200.334 5.33301 -299.001 16v612h-150zM668.002 799.001l-0.000976562 -187h-277v-430c20.667 -4 59 -6 115 -6c142.667 0 253.667 44.5 333 133.5s119 224.833 119 407.5c1.33301 156.667 -34.667 276.667 -108 360s-180 125 -320 125
c-51.333 0 -97.666 -4 -138.999 -12v-391h277z" />
    <glyph glyph-name="Ntilde" unicode="&#xd1;" horiz-adv-x="1271" 
d="M358 0l-221 -0.000976562v1380h262l320 -592c82.667 -151.333 153.667 -302.666 213 -453.999h4c-15.333 199.333 -23 397.333 -23 594v452h222v-1380h-244l-322 602c-91.333 168 -164.333 323 -219 465h-6c9.33301 -162.667 14 -364.667 14 -606v-461zM500 1466
h-116.997c-2 72 10 128.333 36 169s61.667 61 107 61c15.333 0 30.666 -2.16699 45.999 -6.5s27 -8.5 35 -12.5l38 -20c3.33301 -2 9.5 -5.5 18.5 -10.5s15.5 -8.5 19.5 -10.5s9.5 -4.5 16.5 -7.5s13.333 -5.16699 19 -6.5s11.167 -2 16.5 -2c16 0 28.167 6 36.5 18
s13.833 33.333 16.5 64h115c4 -150 -44.333 -225 -145 -225c-37.333 0 -78.333 12 -123 36l-16 9.5c-7.33301 4.33301 -12.666 7.33301 -15.999 9l-13.5 7c-5.66699 3 -10.334 5.16699 -14.001 6.5s-7.83398 2.5 -12.501 3.5s-9.33398 1.5 -14.001 1.5
c-28.667 0 -45 -28 -49 -84z" />
    <glyph glyph-name="Ograve" unicode="&#xd2;" horiz-adv-x="1296" 
d="M639 -20l-2.00098 0.000976562c-116 0 -217.5 30.333 -304.5 91s-152.833 144 -197.5 250s-67 227 -67 363c0 139.333 24.167 263.166 72.5 371.499s117.333 193 207 254s192.834 91.5 309.501 91.5c119.333 0 222.666 -31.167 309.999 -93.5s152.5 -145.5 195.5 -249.5
s64.5 -221.667 64.5 -353c0 -117.333 -14.667 -222.333 -44 -315s-70.333 -168.667 -123 -228s-114.667 -104.5 -186 -135.5s-149.666 -46.5 -234.999 -46.5zM646.999 178.001l1.99902 0.00292969c68.667 0 127.834 23.667 177.501 71s86.5 109.5 110.5 186.5
s36 163.833 36 260.5c0 65.333 -6.66699 127.666 -20 186.999s-32.833 113.166 -58.5 161.499s-59.667 86.666 -102 114.999s-90.166 42.5 -143.499 42.5c-70.667 0 -131.334 -24.5 -182.001 -73.5s-87.5 -111.333 -110.5 -187s-34.5 -160.167 -34.5 -253.5
c-0.666992 -92.667 11 -177 35 -253s61.167 -137.833 111.5 -185.5s109.833 -71.5 178.5 -71.5zM329.998 1698h266l180 -240h-190z" />
    <glyph glyph-name="Oacute" unicode="&#xd3;" horiz-adv-x="1296" 
d="M639 -20l-2.00098 0.000976562c-116 0 -217.5 30.333 -304.5 91s-152.833 144 -197.5 250s-67 227 -67 363c0 139.333 24.167 263.166 72.5 371.499s117.333 193 207 254s192.834 91.5 309.501 91.5c119.333 0 222.666 -31.167 309.999 -93.5s152.5 -145.5 195.5 -249.5
s64.5 -221.667 64.5 -353c0 -117.333 -14.667 -222.333 -44 -315s-70.333 -168.667 -123 -228s-114.667 -104.5 -186 -135.5s-149.666 -46.5 -234.999 -46.5zM646.999 178.001l1.99902 0.00292969c68.667 0 127.834 23.667 177.501 71s86.5 109.5 110.5 186.5
s36 163.833 36 260.5c0 65.333 -6.66699 127.666 -20 186.999s-32.833 113.166 -58.5 161.499s-59.667 86.666 -102 114.999s-90.166 42.5 -143.499 42.5c-70.667 0 -131.334 -24.5 -182.001 -73.5s-87.5 -111.333 -110.5 -187s-34.5 -160.167 -34.5 -253.5
c-0.666992 -92.667 11 -177 35 -253s61.167 -137.833 111.5 -185.5s109.833 -71.5 178.5 -71.5zM706.998 1696h266l-256 -240h-191z" />
    <glyph glyph-name="Ocircumflex" unicode="&#xd4;" horiz-adv-x="1296" 
d="M639 -20l-2.00098 0.000976562c-116 0 -217.5 30.333 -304.5 91s-152.833 144 -197.5 250s-67 227 -67 363c0 139.333 24.167 263.166 72.5 371.499s117.333 193 207 254s192.834 91.5 309.501 91.5c119.333 0 222.666 -31.167 309.999 -93.5s152.5 -145.5 195.5 -249.5
s64.5 -221.667 64.5 -353c0 -117.333 -14.667 -222.333 -44 -315s-70.333 -168.667 -123 -228s-114.667 -104.5 -186 -135.5s-149.666 -46.5 -234.999 -46.5zM646.999 178.001l1.99902 0.00292969c68.667 0 127.834 23.667 177.501 71s86.5 109.5 110.5 186.5
s36 163.833 36 260.5c0 65.333 -6.66699 127.666 -20 186.999s-32.833 113.166 -58.5 161.499s-59.667 86.666 -102 114.999s-90.166 42.5 -143.499 42.5c-70.667 0 -131.334 -24.5 -182.001 -73.5s-87.5 -111.333 -110.5 -187s-34.5 -160.167 -34.5 -253.5
c-0.666992 -92.667 11 -177 35 -253s61.167 -137.833 111.5 -185.5s109.833 -71.5 178.5 -71.5zM552.998 1690h186l201 -234h-182l-109 125h-4l-108 -125h-181z" />
    <glyph glyph-name="Otilde" unicode="&#xd5;" horiz-adv-x="1296" 
d="M641 -20l-2 0.000976562c-116.667 0 -218.5 30.333 -305.5 91s-153 144 -198 250s-67.5 227 -67.5 363c0 139.333 24.167 263.166 72.5 371.499s117.5 193 207.5 254s193.667 91.5 311 91.5c89.333 0 170.333 -18 243 -54s132.5 -85.5 179.5 -148.5s83 -136.5 108 -220.5
s37.5 -175 37.5 -273c0 -117.333 -14.667 -222.333 -44 -315s-70.333 -168.667 -123 -228s-114.5 -104.5 -185.5 -135.5s-148.833 -46.5 -233.5 -46.5zM649 178.001h2c68.667 0 127.667 23.667 177 71s85.833 109.333 109.5 186s35.5 163.667 35.5 261
c0 65.333 -6.66699 127.833 -20 187.5s-32.833 113.5 -58.5 161.5s-59.5 86.167 -101.5 114.5s-89.333 42.5 -142 42.5c-70.667 0 -131.5 -24.5 -182.5 -73.5s-88.167 -111.5 -111.5 -187.5s-35 -160.333 -35 -253c-0.666992 -92.667 11.166 -177 35.499 -253
s61.833 -137.833 112.5 -185.5s110.334 -71.5 179.001 -71.5zM506 1464h-116.998c-2 72.667 10 129.5 36 170.5s61.667 61.5 107 61.5c15.333 0 30.666 -2.16699 45.999 -6.5s27 -8.5 35 -12.5l38 -20c3.33301 -2 9.5 -5.5 18.5 -10.5s15.5 -8.5 19.5 -10.5
s9.5 -4.5 16.5 -7.5s13.333 -5.16699 19 -6.5s11.167 -2 16.5 -2c16 0 28.333 6 37 18s14.334 33.333 17.001 64h114c4 -150 -44.333 -225 -145 -225c-37.333 0 -78.333 12 -123 36l-16 9.5c-7.33301 4.33301 -12.666 7.33301 -15.999 9l-13.5 7
c-5.66699 3 -10.334 5.16699 -14.001 6.5s-7.83398 2.5 -12.501 3.5s-9.33398 1.5 -14.001 1.5c-28.667 0 -45 -28.667 -49 -86z" />
    <glyph glyph-name="Odieresis" unicode="&#xd6;" horiz-adv-x="1296" 
d="M641 -20l-2 0.000976562c-116.667 0 -218.5 30.333 -305.5 91s-153 144 -198 250s-67.5 227 -67.5 363c0 139.333 24.167 263.166 72.5 371.499s117.5 193 207.5 254s193.667 91.5 311 91.5c89.333 0 170.333 -18 243 -54s132.5 -85.5 179.5 -148.5s83 -136.5 108 -220.5
s37.5 -175 37.5 -273c0 -117.333 -14.667 -222.333 -44 -315s-70.333 -168.667 -123 -228s-114.5 -104.5 -185.5 -135.5s-148.833 -46.5 -233.5 -46.5zM649 178.001h2c68.667 0 127.667 23.667 177 71s85.833 109.333 109.5 186s35.5 163.667 35.5 261
c0 65.333 -6.66699 127.833 -20 187.5s-32.833 113.5 -58.5 161.5s-59.5 86.167 -101.5 114.5s-89.333 42.5 -142 42.5c-70.667 0 -131.5 -24.5 -182.5 -73.5s-88.167 -111.5 -111.5 -187.5s-35 -160.333 -35 -253c-0.666992 -92.667 11.166 -177 35.499 -253
s61.833 -137.833 112.5 -185.5s110.334 -71.5 179.001 -71.5zM455 1468h-1.99902c-32.667 0 -60.334 11.833 -83.001 35.5s-34 52.167 -34 85.5c0 34 11.5 62.667 34.5 86s51.167 35 84.5 35c32.667 0 59.834 -11.667 81.501 -35s32.5 -52 32.5 -86
c0 -33.333 -10.833 -61.833 -32.5 -85.5s-48.834 -35.5 -81.501 -35.5zM844.001 1468h-2.00098c-32.667 0 -60 11.833 -82 35.5s-33 52.167 -33 85.5c0 34 11.333 62.667 34 86s51 35 85 35c32.667 0 60 -11.667 82 -35s33 -52 33 -86
c0 -33.333 -11.167 -61.833 -33.5 -85.5s-50.166 -35.5 -83.499 -35.5z" />
    <glyph glyph-name="multiply" unicode="&#xd7;" horiz-adv-x="1220" 
d="M82 965l108 112l420 -428l420 428l109 -112l-418 -426l418 -426l-111 -113l-418 426l-417 -426l-111 113l418 426z" />
    <glyph glyph-name="Oslash" unicode="&#xd8;" horiz-adv-x="1296" 
d="M252 -106l-128.999 94.002l110 182c-110 128 -165 300.667 -165 518c0 137.333 24.167 260.166 72.5 368.499s117 192.833 206 253.5s190.5 91 304.5 91c108 0 203.667 -27.333 287 -82l100 158l138 -84l-109 -179c52 -63.333 91.667 -139.5 119 -228.5
s41 -183.5 41 -283.5c0 -116.667 -14.833 -221.334 -44.5 -314.001s-70.667 -168.5 -123 -227.5s-113.333 -103.833 -183 -134.5s-145.5 -46 -227.5 -46c-108.667 0 -204.334 28.667 -287.001 86zM371.001 397.002l457.998 735.999c-51.333 47.333 -111.333 71 -180 71
c-71.333 0 -133.166 -23.167 -185.499 -69.5s-91.166 -107.666 -116.499 -183.999s-38 -162.5 -38 -258.5c0 -102 20 -200.333 60 -295h2zM925.999 979.001l-457.001 -729.001c47.333 -49.333 106.666 -74 177.999 -74c70.667 0 131.834 22.833 183.501 68.5
s90.334 107.334 116.001 185.001s38.5 166.5 38.5 266.5c0 104.667 -18.333 199 -55 283h-4z" />
    <glyph glyph-name="Ugrave" unicode="&#xd9;" horiz-adv-x="1249" 
d="M135 1380h242v-837c0 -123.333 22 -215 66 -275s104 -90 180 -90c167.333 0 251 121.667 251 365v837h242v-815c0 -196 -44 -342.5 -132 -439.5s-210.667 -145.5 -368 -145.5c-154 0 -272.667 47.5 -356 142.5s-125 241.167 -125 438.5v819zM313 1696h267l180 -240h-191z
" />
    <glyph glyph-name="Uacute" unicode="&#xda;" horiz-adv-x="1249" 
d="M135 1380h242v-837c0 -123.333 22 -215 66 -275s104 -90 180 -90c167.333 0 251 121.667 251 365v837h242v-815c0 -196 -44 -342.5 -132 -439.5s-210.667 -145.5 -368 -145.5c-154 0 -272.667 47.5 -356 142.5s-125 241.167 -125 438.5v819zM678 1694h266l-256 -240h-190
z" />
    <glyph glyph-name="Ucircumflex" unicode="&#xdb;" horiz-adv-x="1249" 
d="M135 1380h242v-837c0 -123.333 22 -215 66 -275s104 -90 180 -90c167.333 0 251 121.667 251 365v837h242v-815c0 -196 -44 -342.5 -132 -439.5s-210.667 -145.5 -368 -145.5c-154 0 -272.667 47.5 -356 142.5s-125 241.167 -125 438.5v819zM545 1688h188l199 -234h-182
l-109 125h-4l-109 -125h-180z" />
    <glyph glyph-name="Udieresis" unicode="&#xdc;" horiz-adv-x="1249" 
d="M135 1380h242v-837c0 -123.333 22 -215 66 -275s104 -90 180 -90c167.333 0 251 121.667 251 365v837h242v-815c0 -196 -44 -342.5 -132 -439.5s-210.667 -145.5 -368 -145.5c-154 0 -272.667 47.5 -356 142.5s-125 241.167 -125 438.5v819zM438 1468h-1.99902
c-32.667 0 -60.334 11.833 -83.001 35.5s-34 52.167 -34 85.5c0 34 11.5 62.667 34.5 86s51.167 35 84.5 35c32.667 0 60 -11.667 82 -35s33 -52 33 -86c0 -33.333 -11 -61.833 -33 -85.5s-49.333 -35.5 -82 -35.5zM827.001 1468h-2c-32.667 0 -59.834 11.833 -81.501 35.5
s-32.5 52.167 -32.5 85.5c0 34 11.167 62.667 33.5 86s50.5 35 84.5 35c32.667 0 60 -11.667 82 -35s33 -52 33 -86c0 -33.333 -11.167 -61.833 -33.5 -85.5s-50.166 -35.5 -83.499 -35.5z" />
    <glyph glyph-name="Yacute" unicode="&#xdd;" horiz-adv-x="1069" 
d="M651 0h-241v567l-398 813h273l147 -348c50 -121.333 86.333 -215.333 109 -282h4c21.333 63.333 57.333 158 108 284l146 346h266l-414 -805v-575zM606 1690h264l-254 -240h-190z" />
    <glyph glyph-name="Thorn" unicode="&#xde;" horiz-adv-x="1062" 
d="M137 0v1380h238v-258c50 7.33301 101.667 11 155 11c152 0 268.333 -35.667 349 -107c80 -70 120 -165.667 120 -287c0 -76.667 -13.167 -144.5 -39.5 -203.5s-62.666 -106 -108.999 -141s-98.833 -61.333 -157.5 -79s-122.334 -26.5 -191.001 -26.5
c-50 0 -92.333 3.33301 -127 10v-299h-238zM375 932v-440c30 -7.33301 69 -11 117 -11c86 0 152.167 21.333 198.5 64s69.5 100.667 69.5 174c0 72 -21.833 127.5 -65.5 166.5s-105.834 58.5 -186.501 58.5c-61.333 0 -105.666 -4 -132.999 -12z" />
    <glyph glyph-name="germandbls" unicode="&#xdf;" horiz-adv-x="1112" 
d="M367 0l-241.998 -0.00390625v903c0 110.667 12.167 201.667 36.5 273s60.5 129.333 108.5 174c80 76 187.333 114 322 114c112 0 204.167 -32.167 276.5 -96.5s108.5 -150.166 108.5 -257.499c0 -69.333 -15.667 -125.333 -47 -168c-84.667 -38 -127 -88.333 -127 -151
c0 -27.333 6.66699 -52.5 20 -75.5s34.666 -50.5 63.999 -82.5c50 -52 88.333 -101.833 115 -149.5s40 -103.834 40 -168.501c0 -100.667 -34 -181.667 -102 -243s-158.667 -92 -272 -92c-84.667 0 -153 11.333 -205 34l35 183c42.667 -20.667 91.667 -31 147 -31
c49.333 0 88 12.833 116 38.5s42 57.834 42 96.501c0 32 -7.33301 61.5 -22 88.5s-38 56.833 -70 89.5c-24.667 26 -43.334 46.333 -56.001 61s-27.5 34.334 -44.5 59.001s-29.167 49.834 -36.5 75.501s-11 52.834 -11 81.501c0 52 14.667 100 44 144s70 79.333 122 106
c10.667 24 16 52.667 16 86c0 57.333 -16 102.333 -48 135s-73.333 49 -124 49c-66 0 -116.833 -27.833 -152.5 -83.5s-53.5 -147.167 -53.5 -274.5v-918z" />
    <glyph glyph-name="agrave" unicode="&#xe0;" horiz-adv-x="970" 
d="M848 606l-0.000976562 -369.998c0 -98.667 4.66699 -177.334 14 -236.001h-217l-16 109h-4c-29.333 -40 -67.5 -71.5 -114.5 -94.5s-99.167 -34.5 -156.5 -34.5c-89.333 0 -160.833 28.667 -214.5 86s-80.5 127.333 -80.5 210c0 82 23.167 151.333 69.5 208
s109.833 98.334 190.5 125.001s176.334 40 287.001 40v19c0 22 -2.5 42.333 -7.5 61s-13.833 37.167 -26.5 55.5s-31.834 32.833 -57.501 43.5s-57.167 16 -94.5 16c-90.667 0 -172 -23.333 -244 -70l-47 160c38.667 23.333 87.334 43.166 146.001 59.499s122 24.5 190 24.5
c58 0 109.5 -7.5 154.5 -22.5s81.667 -35 110 -60s51.5 -55.333 69.5 -91s30.667 -72.834 38 -111.501s11 -81 11 -127zM611.999 340.002l-0.000976562 151.997c-41.333 0.666992 -79.166 -1.66602 -113.499 -6.99902s-67.5 -14.666 -99.5 -27.999s-57 -33.166 -75 -59.499
s-27 -58.5 -27 -96.5c0 -48 12.667 -84.167 38 -108.5s57 -36.5 95 -36.5c42 0 78.833 12.167 110.5 36.5s53.5 55.833 65.5 94.5c4 16 6 33.667 6 53zM183.998 1421h234l168 -297h-164z" />
    <glyph glyph-name="aacute" unicode="&#xe1;" horiz-adv-x="970" 
d="M848 606l-0.000976562 -369.998c0 -98.667 4.66699 -177.334 14 -236.001h-217l-16 109h-4c-29.333 -40 -67.5 -71.5 -114.5 -94.5s-99.167 -34.5 -156.5 -34.5c-89.333 0 -160.833 28.667 -214.5 86s-80.5 127.333 -80.5 210c0 82 23.167 151.333 69.5 208
s109.833 98.334 190.5 125.001s176.334 40 287.001 40v19c0 22 -2.5 42.333 -7.5 61s-13.833 37.167 -26.5 55.5s-31.834 32.833 -57.501 43.5s-57.167 16 -94.5 16c-90.667 0 -172 -23.333 -244 -70l-47 160c38.667 23.333 87.334 43.166 146.001 59.499s122 24.5 190 24.5
c58 0 109.5 -7.5 154.5 -22.5s81.667 -35 110 -60s51.5 -55.333 69.5 -91s30.667 -72.834 38 -111.501s11 -81 11 -127zM611.999 340.002l-0.000976562 151.997c-41.333 0.666992 -79.166 -1.66602 -113.499 -6.99902s-67.5 -14.666 -99.5 -27.999s-57 -33.166 -75 -59.499
s-27 -58.5 -27 -96.5c0 -48 12.667 -84.167 38 -108.5s57 -36.5 95 -36.5c42 0 78.833 12.167 110.5 36.5s53.5 55.833 65.5 94.5c4 16 6 33.667 6 53zM538.998 1421h231l-238 -297h-163z" />
    <glyph glyph-name="acircumflex" unicode="&#xe2;" horiz-adv-x="970" 
d="M848 606l-0.000976562 -369.998c0 -98.667 4.66699 -177.334 14 -236.001h-217l-16 109h-4c-29.333 -40 -67.5 -71.5 -114.5 -94.5s-99.167 -34.5 -156.5 -34.5c-89.333 0 -160.833 28.667 -214.5 86s-80.5 127.333 -80.5 210c0 82 23.167 151.333 69.5 208
s109.833 98.334 190.5 125.001s176.334 40 287.001 40v19c0 22 -2.5 42.333 -7.5 61s-13.833 37.167 -26.5 55.5s-31.834 32.833 -57.501 43.5s-57.167 16 -94.5 16c-90.667 0 -172 -23.333 -244 -70l-47 160c38.667 23.333 87.334 43.166 146.001 59.499s122 24.5 190 24.5
c58 0 109.5 -7.5 154.5 -22.5s81.667 -35 110 -60s51.5 -55.333 69.5 -91s30.667 -72.834 38 -111.501s11 -81 11 -127zM611.999 340.002l-0.000976562 151.997c-41.333 0.666992 -79.166 -1.66602 -113.499 -6.99902s-67.5 -14.666 -99.5 -27.999s-57 -33.166 -75 -59.499
s-27 -58.5 -27 -96.5c0 -48 12.667 -84.167 38 -108.5s57 -36.5 95 -36.5c42 0 78.833 12.167 110.5 36.5s53.5 55.833 65.5 94.5c4 16 6 33.667 6 53zM396.998 1421h164l191 -297h-166l-105 181h-4l-102 -181h-168z" />
    <glyph glyph-name="atilde" unicode="&#xe3;" horiz-adv-x="970" 
d="M848 606v-369.997c0 -98.667 4.66699 -177.334 14 -236.001h-217l-16 109h-4c-29.333 -40 -67.5 -71.5 -114.5 -94.5s-99.167 -34.5 -156.5 -34.5c-89.333 0 -160.833 28.667 -214.5 86s-80.5 127.333 -80.5 210c0 122 49.167 214.667 147.5 278s231.5 95 399.5 95v19
c0 22 -2.5 42.333 -7.5 61s-13.833 37.167 -26.5 55.5s-31.834 32.833 -57.501 43.5s-57.167 16 -94.5 16c-90.667 0 -172 -23.333 -244 -70l-47 160c38.667 23.333 87.334 43.166 146.001 59.499s122 24.5 190 24.5c58 0 109.5 -7.5 154.5 -22.5s81.667 -35 110 -60
s51.5 -55.333 69.5 -91s30.667 -72.834 38 -111.501s11 -81 11 -127zM612 340.003l-0.000976562 151.997c-41.333 0.666992 -79.166 -1.66602 -113.499 -6.99902s-67.5 -14.666 -99.5 -27.999s-57 -33.166 -75 -59.499s-27 -58.5 -27 -96.5c0 -48 12.667 -84.167 38 -108.5
s57 -36.5 95 -36.5c42.667 0 79.667 12 111 36s53 55.667 65 95c4 16 6 33.667 6 53zM333.999 1149l-121.001 -0.000976562c-2 72 10.833 129.5 38.5 172.5s65.5 64.5 113.5 64.5c14.667 0 30 -2.33301 46 -7s27.833 -8.83398 35.5 -12.501s21.167 -10.5 40.5 -20.5
c4 -2 11.5 -6.16699 22.5 -12.5s18.833 -10.666 23.5 -12.999s10.834 -4.83301 18.501 -7.5s14.834 -4 21.501 -4c16.667 0 29 5.83301 37 17.5s13 33.834 15 66.501h116c2 -153.333 -47.667 -230 -149 -230c-31.333 0 -73.666 13.667 -126.999 41
c-4 2 -10.333 5.66699 -19 11s-14.667 8.83301 -18 10.5l-13.5 6.5c-5.66699 2.66699 -10.834 4.5 -15.501 5.5s-9.33398 1.5 -14.001 1.5c-30 0 -47 -30 -51 -90z" />
    <glyph glyph-name="adieresis" unicode="&#xe4;" horiz-adv-x="970" 
d="M848 606l-0.000976562 -369.998c0 -98.667 4.66699 -177.334 14 -236.001h-217l-16 109h-4c-29.333 -40 -67.5 -71.5 -114.5 -94.5s-99.167 -34.5 -156.5 -34.5c-89.333 0 -160.833 28.667 -214.5 86s-80.5 127.333 -80.5 210c0 82 23.167 151.333 69.5 208
s109.833 98.334 190.5 125.001s176.334 40 287.001 40v19c0 22 -2.5 42.333 -7.5 61s-13.833 37.167 -26.5 55.5s-31.834 32.833 -57.501 43.5s-57.167 16 -94.5 16c-90.667 0 -172 -23.333 -244 -70l-47 160c38.667 23.333 87.334 43.166 146.001 59.499s122 24.5 190 24.5
c58 0 109.5 -7.5 154.5 -22.5s81.667 -35 110 -60s51.5 -55.333 69.5 -91s30.667 -72.834 38 -111.501s11 -81 11 -127zM611.999 340.002l-0.000976562 151.997c-41.333 0.666992 -79.166 -1.66602 -113.499 -6.99902s-67.5 -14.666 -99.5 -27.999s-57 -33.166 -75 -59.499
s-27 -58.5 -27 -96.5c0 -48 12.667 -84.167 38 -108.5s57 -36.5 95 -36.5c42 0 78.833 12.167 110.5 36.5s53.5 55.833 65.5 94.5c4 16 6 33.667 6 53zM292.998 1153l-2 -0.000976562c-34 0 -62.667 11.833 -86 35.5s-35 52.167 -35 85.5c0 34.667 12 63.834 36 87.501
s53 35.5 87 35.5c33.333 0 61.166 -11.5 83.499 -34.5s33.5 -52.5 33.5 -88.5c0 -33.333 -11.167 -61.833 -33.5 -85.5s-50.166 -35.5 -83.499 -35.5zM679.998 1153l-2 -0.000976562c-33.333 0 -61.5 11.833 -84.5 35.5s-34.5 52.167 -34.5 85.5
c0 34.667 11.667 63.834 35 87.501s52 35.5 86 35.5s62.333 -11.5 85 -34.5s34 -52.5 34 -88.5c0 -33.333 -11.167 -61.833 -33.5 -85.5s-50.833 -35.5 -85.5 -35.5z" />
    <glyph glyph-name="aring" unicode="&#xe5;" horiz-adv-x="970" 
d="M848 606l-0.000976562 -369.998c0 -98.667 4.66699 -177.334 14 -236.001h-217l-16 109h-4c-29.333 -40 -67.5 -71.5 -114.5 -94.5s-99.167 -34.5 -156.5 -34.5c-89.333 0 -160.833 28.667 -214.5 86s-80.5 127.333 -80.5 210c0 82 23.167 151.333 69.5 208
s109.833 98.334 190.5 125.001s176.334 40 287.001 40v19c0 22 -2.5 42.333 -7.5 61s-13.833 37.167 -26.5 55.5s-31.834 32.833 -57.501 43.5s-57.167 16 -94.5 16c-90.667 0 -172 -23.333 -244 -70l-47 160c38.667 23.333 87.334 43.166 146.001 59.499s122 24.5 190 24.5
c58 0 109.5 -7.5 154.5 -22.5s81.667 -35 110 -60s51.5 -55.333 69.5 -91s30.667 -72.834 38 -111.501s11 -81 11 -127zM611.999 340.002l-0.000976562 151.997c-41.333 0.666992 -79.166 -1.66602 -113.499 -6.99902s-67.5 -14.666 -99.5 -27.999s-57 -33.166 -75 -59.499
s-27 -58.5 -27 -96.5c0 -48 12.667 -84.167 38 -108.5s57 -36.5 95 -36.5c42 0 78.833 12.167 110.5 36.5s53.5 55.833 65.5 94.5c4 16 6 33.667 6 53zM486.998 1485l2.00098 0.000976562c64.667 0 116 -18.333 154 -55s57 -83.334 57 -140.001
c0 -55.333 -19.833 -100.833 -59.5 -136.5s-90.834 -53.5 -153.501 -53.5c-65.333 0 -117.833 18 -157.5 54s-59.5 80.667 -59.5 134c0 56.667 19.333 103.667 58 141s91.667 56 159 56zM484.999 1397l-2 -0.000976562c-28.667 0 -51.167 -10.833 -67.5 -32.5
s-24.5 -47.167 -24.5 -76.5c0 -26 8.5 -49.167 25.5 -69.5s39.833 -30.5 68.5 -30.5c30 0 53.667 10 71 30s26 44.667 26 74c0 28.667 -8.66699 53.334 -26 74.001s-41 31 -71 31z" />
    <glyph glyph-name="ae" unicode="&#xe6;" horiz-adv-x="1501" 
d="M1430 449l-593.995 0.00195312c0 -94 24.667 -165.333 74 -214s115.333 -73 198 -73c92.667 0 174.667 17 246 51l37 -166c-84 -44.667 -190.667 -67 -320 -67c-80 0 -152 16.667 -216 50s-110 80.666 -138 141.999h-6c-34 -60.667 -80.167 -107.834 -138.5 -141.501
s-126.166 -50.5 -203.499 -50.5c-94.667 0 -170 28.667 -226 86s-84 128.333 -84 213c0 117.333 49.667 207 149 269s232.666 92.333 399.999 91v37c0 16 -2.83301 32.667 -8.5 50s-15.167 35.333 -28.5 54s-33.5 34 -60.5 46s-59.167 18 -96.5 18
c-42 0 -84.5 -6.66699 -127.5 -20s-79.167 -30 -108.5 -50l-49 158c41.333 24.667 89.666 45.167 144.999 61.5s110.666 24.5 165.999 24.5c75.333 0 138.333 -15.333 189 -46s88 -74.667 112 -132h4c34 56.667 78.5 100.5 133.5 131.5s116.5 46.5 184.5 46.5
c52 0 99.167 -9.16699 141.5 -27.5s77.666 -43 105.999 -74s52.166 -67 71.499 -108s33.166 -83.5 41.499 -127.5s12.5 -89.333 12.5 -136c0 -14 -2 -46 -6 -96zM614.005 346.002l-0.000976562 138.998c-42 0.666992 -80.5 -1.66602 -115.5 -6.99902
s-68.667 -14.5 -101 -27.5s-57.833 -32.667 -76.5 -59s-28 -58.5 -28 -96.5c0 -44 13.333 -78.167 40 -102.5s59 -36.5 97 -36.5c42.667 0 79.334 11.833 110.001 35.5s52 54.834 64 93.501c6.66699 14.667 10 35 10 61zM836.004 614l373.999 -0.000976562
c1.33301 26.667 -1 53.334 -7 80.001s-15.5 52.167 -28.5 76.5s-31.667 44 -56 59s-52.5 22.5 -84.5 22.5c-42 0 -78.667 -13.5 -110 -40.5s-53.666 -58 -66.999 -93s-20.333 -69.833 -21 -104.5z" />
    <glyph glyph-name="ccedilla" unicode="&#xe7;" horiz-adv-x="835" 
d="M766 209l31.002 -180.001c-56.667 -28 -129.667 -43.667 -219 -47l-43 -78c40.667 -7.33301 74.667 -24.666 102 -51.999s41 -62 41 -104c0 -60.667 -21.5 -105.5 -64.5 -134.5s-95.833 -43.5 -158.5 -43.5c-63.333 0 -115.333 12.333 -156 37l35 108
c32 -18.667 68.667 -28 110 -28c52 0 78 19 78 57c0 44 -51.667 71.333 -155 82l82 166c-116.667 18.667 -209 72 -277 160s-102 200.333 -102 337c0 100 20.167 189.667 60.5 269s100.166 142.166 179.499 188.499s172 69.5 278 69.5c84 0 155 -13.667 213 -41l-41 -184
c-46.667 22.667 -102 34 -166 34c-86.667 0 -154.834 -30.667 -204.501 -92s-74.5 -139.666 -74.5 -234.999c0 -100 26 -179 78 -237s119 -87 201 -87c58.667 0 116 11.667 172 35z" />
    <glyph glyph-name="egrave" unicode="&#xe8;" horiz-adv-x="980" 
d="M909 432l-606.001 0.000976562c2 -90.667 29.167 -157.667 81.5 -201s118.833 -65 199.5 -65c86.667 0 169 14.333 247 43l35 -168c-87.333 -39.333 -193.666 -59 -318.999 -59c-150 0 -267 45 -351 135s-126 212 -126 366c0 73.333 10.167 142.166 30.5 206.499
s49.166 121 86.499 170s84.833 87.667 142.5 116s121.834 42.5 192.501 42.5c56 0 106.667 -9.16699 152 -27.5s82.833 -42.666 112.5 -72.999s54.667 -66.333 75 -108s34.833 -84.834 43.5 -129.501s13 -91 13 -139c0 -38 -3 -74.333 -9 -109zM302.999 602.001
l386.996 -0.00195312c0.666992 30 -2.16602 58.833 -8.49902 86.5s-16.166 53.834 -29.499 78.501s-32.666 44.334 -57.999 59.001s-54.666 22 -87.999 22c-32 0 -61 -7.66699 -87 -23s-46.833 -35.5 -62.5 -60.5s-28 -51.333 -37 -79s-14.5 -55.5 -16.5 -83.5z
M235.995 1421h233l168 -297h-164z" />
    <glyph glyph-name="eacute" unicode="&#xe9;" horiz-adv-x="980" 
d="M909 432l-606.001 0.000976562c2 -90.667 29.167 -157.667 81.5 -201s118.833 -65 199.5 -65c86.667 0 169 14.333 247 43l35 -168c-87.333 -39.333 -193.666 -59 -318.999 -59c-150 0 -267 45 -351 135s-126 212 -126 366c0 73.333 10.167 142.166 30.5 206.499
s49.166 121 86.499 170s84.833 87.667 142.5 116s121.834 42.5 192.501 42.5c56 0 106.667 -9.16699 152 -27.5s82.833 -42.666 112.5 -72.999s54.667 -66.333 75 -108s34.833 -84.834 43.5 -129.501s13 -91 13 -139c0 -38 -3 -74.333 -9 -109zM302.999 602.001
l386.996 -0.00195312c0.666992 30 -2.16602 58.833 -8.49902 86.5s-16.166 53.834 -29.499 78.501s-32.666 44.334 -57.999 59.001s-54.666 22 -87.999 22c-32 0 -61 -7.66699 -87 -23s-46.833 -35.5 -62.5 -60.5s-28 -51.333 -37 -79s-14.5 -55.5 -16.5 -83.5z
M583.995 1421h231l-237 -297h-164z" />
    <glyph glyph-name="ecircumflex" unicode="&#xea;" horiz-adv-x="980" 
d="M909 432l-606.001 0.000976562c2 -90.667 29.167 -157.667 81.5 -201s118.833 -65 199.5 -65c86.667 0 169 14.333 247 43l35 -168c-87.333 -39.333 -193.666 -59 -318.999 -59c-150 0 -267 45 -351 135s-126 212 -126 366c0 73.333 10.167 142.166 30.5 206.499
s49.166 121 86.499 170s84.833 87.667 142.5 116s121.834 42.5 192.501 42.5c56 0 106.667 -9.16699 152 -27.5s82.833 -42.666 112.5 -72.999s54.667 -66.333 75 -108s34.833 -84.834 43.5 -129.501s13 -91 13 -139c0 -38 -3 -74.333 -9 -109zM302.999 602.001
l386.996 -0.00195312c0.666992 30 -2.16602 58.833 -8.49902 86.5s-16.166 53.834 -29.499 78.501s-32.666 44.334 -57.999 59.001s-54.666 22 -87.999 22c-32 0 -61 -7.66699 -87 -23s-46.833 -35.5 -62.5 -60.5s-28 -51.333 -37 -79s-14.5 -55.5 -16.5 -83.5z
M433.995 1421h166l191 -297h-168l-105 181h-4l-102 -181h-168z" />
    <glyph glyph-name="edieresis" unicode="&#xeb;" horiz-adv-x="980" 
d="M909 432l-608.002 0.000976562c1.33301 -46.667 9.83301 -87.5 25.5 -122.5s36.834 -62.667 63.501 -83s56.167 -35.5 88.5 -45.5s67.5 -15 105.5 -15c86.667 0 169 14.333 247 43l35 -168c-87.333 -39.333 -193.666 -59 -318.999 -59c-150 0 -267 45 -351 135
s-126 212 -126 366c0 73.333 10.167 142.166 30.5 206.499s49.166 121 86.499 170s84.833 87.667 142.5 116s121.834 42.5 192.501 42.5c56 0 106.667 -9.16699 152 -27.5s82.833 -42.666 112.5 -72.999s54.667 -66.333 75 -108s34.833 -84.834 43.5 -129.501
s13 -91 13 -139c0 -38 -3 -74.333 -9 -109zM300.998 602.001l388.996 -0.00195312c0.666992 30 -2.16602 58.833 -8.49902 86.5s-16.166 53.834 -29.499 78.501s-32.666 44.334 -57.999 59.001s-54.666 22 -87.999 22c-32.667 0 -62 -7.66699 -88 -23
s-46.833 -35.5 -62.5 -60.5s-28 -51.167 -37 -78.5s-14.833 -55.333 -17.5 -84zM333.994 1153l-2 -0.000976562c-33.333 0 -61.5 11.833 -84.5 35.5s-34.5 52.167 -34.5 85.5c0 34.667 11.667 63.834 35 87.501s52 35.5 86 35.5c33.333 0 61.166 -11.5 83.499 -34.5
s33.5 -52.5 33.5 -88.5c0 -33.333 -11.167 -61.833 -33.5 -85.5s-50.166 -35.5 -83.499 -35.5zM720.994 1153l-2 -0.000976562c-33.333 0 -61.5 11.833 -84.5 35.5s-34.5 52.167 -34.5 85.5c0 34.667 11.667 63.834 35 87.501s52 35.5 86 35.5s62.333 -11.5 85 -34.5
s34 -52.5 34 -88.5c0 -33.333 -11.167 -61.833 -33.5 -85.5s-50.833 -35.5 -85.5 -35.5z" />
    <glyph glyph-name="igrave" unicode="&#xec;" horiz-adv-x="493" 
d="M367 0h-242v997h242v-997zM-59 1421h233l168 -297h-164z" />
    <glyph glyph-name="iacute" unicode="&#xed;" horiz-adv-x="493" 
d="M367 0h-242v997h242v-997zM305 1421h234l-238 -297h-164z" />
    <glyph glyph-name="icircumflex" unicode="&#xee;" horiz-adv-x="493" 
d="M367 0h-242v997h242v-997zM164 1421h166l190 -297h-168l-102 181h-4l-105 -181h-166z" />
    <glyph glyph-name="idieresis" unicode="&#xef;" horiz-adv-x="493" 
d="M367 0h-242v997h242v-997zM55 1153l-2 -0.000976562c-34 0 -62.667 11.833 -86 35.5s-35 52.167 -35 85.5c0 34.667 12 63.834 36 87.501s53 35.5 87 35.5c33.333 0 61.166 -11.5 83.499 -34.5s33.5 -52.5 33.5 -88.5c0 -33.333 -11.167 -61.833 -33.5 -85.5
s-50.166 -35.5 -83.499 -35.5zM442 1153l-2 -0.000976562c-33.333 0 -61.333 11.833 -84 35.5s-34 52.167 -34 85.5c0 34.667 11.5 63.834 34.5 87.501s51.5 35.5 85.5 35.5s62.333 -11.5 85 -34.5s34 -52.5 34 -88.5c0 -33.333 -11.167 -61.833 -33.5 -85.5
s-50.833 -35.5 -85.5 -35.5z" />
    <glyph glyph-name="eth" unicode="&#xf0;" horiz-adv-x="1052" 
d="M526 158l2.00098 -0.00292969c65.333 0 116.166 32 152.499 96s54.5 144 54.5 240c0 114.667 -15.667 197.667 -47 249c-38.667 57.333 -91.334 86 -158.001 86c-31.333 0 -59.5 -7.33301 -84.5 -22s-45.333 -33.667 -61 -57s-28.667 -50.166 -39 -80.499
s-17.666 -60.166 -21.999 -89.499s-6.5 -58.666 -6.5 -87.999c0 -93.333 18.667 -172.333 56 -237s88.333 -97 153 -97zM211.001 1014l-49.001 100l209 100c-44 34 -105 71.667 -183 113l115 137c90 -40.667 178.667 -93.667 266 -159l248 116l53 -100l-202 -94
c98.667 -86.667 175 -186.334 229 -299.001c57.333 -116 86 -251.333 86 -406c0 -76 -8.83301 -145 -26.5 -207s-41.334 -113.333 -71.001 -154s-64.667 -75 -105 -103s-82 -48 -125 -60s-87.5 -18 -133.5 -18c-132.667 0 -241.167 45.667 -325.5 137
s-126.5 214.666 -126.5 369.999c0 76 11.5 145.333 34.5 208s54 114.334 93 155.001s83.333 72.5 133 95.5s101.834 35.5 156.501 37.5c64.667 2.66699 119.334 -13.666 164.001 -48.999l4 6c-48 76 -108 142.333 -180 199z" />
    <glyph glyph-name="ntilde" unicode="&#xf1;" horiz-adv-x="1085" 
d="M125 0l-0.000976562 705.002c0 77.333 -2.66699 174.666 -8 291.999h213l12 -139h4c25.333 44 63.5 81.667 114.5 113s110.5 47 178.5 47c44.667 0 85.834 -7.83301 123.501 -23.5s71.834 -39.334 102.501 -71.001s54.667 -74.167 72 -127.5s26 -115.333 26 -186v-610
h-242v584c0 71.333 -13.333 128.333 -40 171s-69.334 64 -128.001 64c-41.333 0 -77.333 -13 -108 -39s-52.667 -59.333 -66 -100c-6.66699 -25.333 -10 -53.333 -10 -84v-596h-244zM402.999 1149l-120.002 -0.00292969c-2 72.667 10.667 130.334 38 173.001s65 64 113 64
c30 0 71 -13.333 123 -40c4 -2 11.5 -6.16699 22.5 -12.5s18.833 -10.666 23.5 -12.999s10.834 -4.83301 18.501 -7.5s14.834 -4 21.501 -4c16.667 0 28.834 5.83301 36.501 17.5s12.5 33.834 14.5 66.501h117c2 -153.333 -47.667 -230 -149 -230
c-31.333 0 -73.666 13.667 -126.999 41c-4 2 -10.333 5.66699 -19 11s-14.667 8.83301 -18 10.5l-13.5 6.5c-5.66699 2.66699 -10.834 4.5 -15.501 5.5s-9.33398 1.5 -14.001 1.5c-30.667 0 -48 -30 -52 -90z" />
    <glyph glyph-name="ograve" unicode="&#xf2;" horiz-adv-x="1060" 
d="M528 -20h-2.00098c-133.333 0 -242.666 45.833 -327.999 137.5s-128 217.167 -128 376.5c0 164 44 292.333 132 385s200.333 139 337 139c135.333 0 244.5 -46.667 327.5 -140s124.5 -217.333 124.5 -372c0 -72.667 -9.16699 -139 -27.5 -199
s-42.5 -109.833 -72.5 -149.5s-65.167 -73.167 -105.5 -100.5s-82 -47 -125 -59s-87.167 -18 -132.5 -18zM529.999 158h2c64 0 115.167 33 153.5 99s57.5 147 57.5 243c0 40.667 -3.83301 80.167 -11.5 118.5s-19.334 74.5 -35.001 108.5s-37.667 61.333 -66 82
s-61.166 31 -98.499 31c-38 0 -71.333 -10.167 -100 -30.5s-51 -47.333 -67 -81s-28 -70 -36 -109s-12 -79.5 -12 -121.5c0 -96 19 -176.667 57 -242s90 -98 156 -98zM249.999 1421h233l168 -297h-164z" />
    <glyph glyph-name="oacute" unicode="&#xf3;" horiz-adv-x="1060" 
d="M528 -20h-2.00098c-133.333 0 -242.666 45.833 -327.999 137.5s-128 217.167 -128 376.5c0 164 44 292.333 132 385s200.333 139 337 139c135.333 0 244.5 -46.667 327.5 -140s124.5 -217.333 124.5 -372c0 -72.667 -9.16699 -139 -27.5 -199
s-42.5 -109.833 -72.5 -149.5s-65.167 -73.167 -105.5 -100.5s-82 -47 -125 -59s-87.167 -18 -132.5 -18zM529.999 158h2c64 0 115.167 33 153.5 99s57.5 147 57.5 243c0 40.667 -3.83301 80.167 -11.5 118.5s-19.334 74.5 -35.001 108.5s-37.667 61.333 -66 82
s-61.166 31 -98.499 31c-38 0 -71.333 -10.167 -100 -30.5s-51 -47.333 -67 -81s-28 -70 -36 -109s-12 -79.5 -12 -121.5c0 -96 19 -176.667 57 -242s90 -98 156 -98zM587.999 1421h233l-237 -297h-164z" />
    <glyph glyph-name="ocircumflex" unicode="&#xf4;" horiz-adv-x="1060" 
d="M528 -20h-2.00098c-133.333 0 -242.666 45.833 -327.999 137.5s-128 217.167 -128 376.5c0 164 44 292.333 132 385s200.333 139 337 139c135.333 0 244.5 -46.667 327.5 -140s124.5 -217.333 124.5 -372c0 -72.667 -9.16699 -139 -27.5 -199
s-42.5 -109.833 -72.5 -149.5s-65.167 -73.167 -105.5 -100.5s-82 -47 -125 -59s-87.167 -18 -132.5 -18zM529.999 158h2c64 0 115.167 33 153.5 99s57.5 147 57.5 243c0 40.667 -3.83301 80.167 -11.5 118.5s-19.334 74.5 -35.001 108.5s-37.667 61.333 -66 82
s-61.166 31 -98.499 31c-38 0 -71.333 -10.167 -100 -30.5s-51 -47.333 -67 -81s-28 -70 -36 -109s-12 -79.5 -12 -121.5c0 -96 19 -176.667 57 -242s90 -98 156 -98zM448.999 1421h163l191 -297h-166l-105 181h-4l-102 -181h-166z" />
    <glyph glyph-name="otilde" unicode="&#xf5;" horiz-adv-x="1060" 
d="M526 -20h-2c-132.667 0 -241.5 45.833 -326.5 137.5s-127.5 217.167 -127.5 376.5c0 164 44 292.333 132 385s200.333 139 337 139c135.333 0 244.5 -46.667 327.5 -140s124.5 -217.333 124.5 -372c0 -72.667 -9 -139 -27 -199s-42 -109.833 -72 -149.5
s-65.333 -73.167 -106 -100.5s-82.667 -47 -126 -59s-88 -18 -134 -18zM530 158h1.99902c65.333 0 117.166 33 155.499 99s57.5 147 57.5 243c0 40.667 -4 80.167 -12 118.5s-20 74.5 -36 108.5s-38.167 61.333 -66.5 82s-61.166 31 -98.499 31
c-38 0 -71.333 -10.167 -100 -30.5s-51 -47.333 -67 -81s-28 -70 -36 -109s-12 -79.5 -12 -121.5c0 -96.667 18.833 -177.5 56.5 -242.5s89.834 -97.5 156.501 -97.5zM386.999 1149l-119.002 -0.00292969c-2 72.667 10.5 130.334 37.5 173.001s64.5 64 112.5 64
c30 0 71 -13.333 123 -40c4 -2 11.5 -6.16699 22.5 -12.5s18.833 -10.666 23.5 -12.999s10.834 -4.83301 18.501 -7.5s14.834 -4 21.501 -4c16.667 0 28.834 5.83301 36.501 17.5s12.5 33.834 14.5 66.501h117c2 -153.333 -48 -230 -150 -230
c-31.333 0 -73.666 13.667 -126.999 41c-4 2 -10.333 5.66699 -19 11s-14.667 8.83301 -18 10.5l-13.5 6.5c-5.66699 2.66699 -10.834 4.5 -15.501 5.5s-9.33398 1.5 -14.001 1.5c-30 0 -47 -30 -51 -90z" />
    <glyph glyph-name="odieresis" unicode="&#xf6;" horiz-adv-x="1060" 
d="M526 -20h-2c-132.667 0 -241.5 45.833 -326.5 137.5s-127.5 217.167 -127.5 376.5c0 164 43.833 292.333 131.5 385s200.167 139 337.5 139c135.333 0 244.5 -46.667 327.5 -140s124.5 -217.333 124.5 -372c0 -72.667 -9 -139 -27 -199s-42 -109.833 -72 -149.5
s-65.333 -73.167 -106 -100.5s-82.667 -47 -126 -59s-88 -18 -134 -18zM530 158h2c64 0 115.167 33 153.5 99s57.5 147 57.5 243c0 40.667 -3.83301 80.167 -11.5 118.5s-19.334 74.5 -35.001 108.5s-37.667 61.333 -66 82s-61.166 31 -98.499 31
c-38 0 -71.667 -10.167 -101 -30.5s-52 -47.333 -68 -81s-28 -70 -36 -109s-12 -79.5 -12 -121.5c0 -96.667 19.167 -177.5 57.5 -242.5s90.833 -97.5 157.5 -97.5zM338 1153l-2 -0.000976562c-33.333 0 -61.5 11.833 -84.5 35.5s-34.5 52.167 -34.5 85.5
c0 34.667 11.667 63.834 35 87.501s52 35.5 86 35.5c33.333 0 61.166 -11.5 83.499 -34.5s33.5 -52.5 33.5 -88.5c0 -33.333 -11.167 -61.833 -33.5 -85.5s-50.166 -35.5 -83.499 -35.5zM725 1153l-2 -0.000976562c-33.333 0 -61.5 11.833 -84.5 35.5
s-34.5 52.167 -34.5 85.5c0 34.667 11.667 63.834 35 87.501s52 35.5 86 35.5s62.333 -11.5 85 -34.5s34 -52.5 34 -88.5c0 -33.333 -11.167 -61.833 -33.5 -85.5s-50.833 -35.5 -85.5 -35.5z" />
    <glyph glyph-name="divide" unicode="&#xf7;" horiz-adv-x="1220" 
d="M610 776h-2.00098c-36 0 -65.167 11.833 -87.5 35.5s-33.5 54.167 -33.5 91.5c0 38 11.667 69 35 93s53.333 36 90 36s66.334 -12 89.001 -36s34 -55 34 -93c0 -37.333 -11.167 -67.833 -33.5 -91.5s-52.833 -35.5 -91.5 -35.5zM1139 469h-1057v156h1057v-156z
M609.999 61h-2.00098c-36 0 -65.167 11.833 -87.5 35.5s-33.5 54.167 -33.5 91.5c0 38 11.667 69 35 93s53.333 36 90 36s66.334 -12 89.001 -36s34 -55 34 -93c0 -37.333 -11.167 -67.833 -33.5 -91.5s-52.833 -35.5 -91.5 -35.5z" />
    <glyph glyph-name="oslash" unicode="&#xf8;" horiz-adv-x="1060" 
d="M532 1018l3 0.00195312c84 0 158.333 -20 223 -60l82 127l98 -63l-86 -137c92.667 -94.667 139 -222.334 139 -383.001c0 -71.333 -9 -136.666 -27 -195.999s-42 -108.833 -72 -148.5s-65 -73.167 -105 -100.5s-81.333 -47 -124 -59s-86.334 -18 -131.001 -18
c-86 0 -161 19 -225 57l-84 -129l-92 72l82 131c-95.333 91.333 -143 219.666 -143 384.999c0 81.333 11.833 155.333 35.5 222s56.334 121.667 98.001 165s90.5 76.666 146.5 99.999s116.667 35 182 35zM348 305.002l307.001 486c-32.667 32.667 -74.334 49 -125.001 49
c-40.667 0 -76.5 -10.5 -107.5 -31.5s-55 -49 -72 -84s-29.5 -71.5 -37.5 -109.5s-12 -77 -12 -117c0 -75.333 13.667 -139 41 -191zM715.001 682.002l-305 -475c30.667 -32.667 70.667 -49 120 -49c71.333 0 127.5 32 168.5 96s61.5 143.333 61.5 238
c0 74 -13 137.333 -39 190h-6z" />
    <glyph glyph-name="ugrave" unicode="&#xf9;" horiz-adv-x="1077" 
d="M950 997v-699.998c0 -88.667 2.66699 -187.667 8 -297h-210l-13 137h-4c-25.333 -42 -62.5 -78.667 -111.5 -110s-108.833 -47 -179.5 -47c-97.333 0 -174.833 34.167 -232.5 102.5s-86.5 175.166 -86.5 320.499v594h241v-557c0 -174.667 54.667 -262 164 -262
c42 0 77.333 12.167 106 36.5s50 53.166 64 86.499c8.66699 24.667 13 52 13 82v614h241zM250 1421h233l170 -297h-164z" />
    <glyph glyph-name="uacute" unicode="&#xfa;" horiz-adv-x="1077" 
d="M950 997v-699.998c0 -88.667 2.66699 -187.667 8 -297h-210l-13 137h-4c-25.333 -42 -62.5 -78.667 -111.5 -110s-108.833 -47 -179.5 -47c-97.333 0 -174.833 34.167 -232.5 102.5s-86.5 175.166 -86.5 320.499v594h241v-557c0 -174.667 54.667 -262 164 -262
c42 0 77.333 12.167 106 36.5s50 53.166 64 86.499c8.66699 24.667 13 52 13 82v614h241zM608 1421h234l-238 -297h-164z" />
    <glyph glyph-name="ucircumflex" unicode="&#xfb;" horiz-adv-x="1077" 
d="M950 997v-699.998c0 -88.667 2.66699 -187.667 8 -297h-210l-13 137h-4c-25.333 -42 -62.5 -78.667 -111.5 -110s-108.833 -47 -179.5 -47c-97.333 0 -174.833 34.167 -232.5 102.5s-86.5 175.166 -86.5 320.499v594h241v-557c0 -174.667 54.667 -262 164 -262
c42 0 77.333 12.167 106 36.5s50 53.166 64 86.499c8.66699 24.667 13 52 13 82v614h241zM457 1421h164l190 -297h-166l-104 181h-4l-103 -181h-168z" />
    <glyph glyph-name="udieresis" unicode="&#xfc;" horiz-adv-x="1077" 
d="M950 997v-699.998c0 -88.667 2.66699 -187.667 8 -297h-210l-13 137h-4c-25.333 -42 -62.5 -78.667 -111.5 -110s-108.833 -47 -179.5 -47c-97.333 0 -174.833 34.167 -232.5 102.5s-86.5 175.166 -86.5 320.499v594h241v-557c0 -174.667 54.667 -262 164 -262
c42 0 77.333 12.167 106 36.5s50 53.166 64 86.499c8.66699 24.667 13 52 13 82v614h241zM352 1153l-2 -0.000976562c-34 0 -62.667 11.833 -86 35.5s-35 52.167 -35 85.5c0 34.667 12 63.834 36 87.501s53 35.5 87 35.5c33.333 0 61.166 -11.5 83.499 -34.5
s33.5 -52.5 33.5 -88.5c0 -33.333 -11.167 -61.833 -33.5 -85.5s-50.166 -35.5 -83.499 -35.5zM739 1153l-2 -0.000976562c-33.333 0 -61.5 11.833 -84.5 35.5s-34.5 52.167 -34.5 85.5c0 34.667 11.667 63.834 35 87.501s52 35.5 86 35.5s62.333 -11.5 85 -34.5
s34 -52.5 34 -88.5c0 -33.333 -11.167 -61.833 -33.5 -85.5s-50.833 -35.5 -85.5 -35.5z" />
    <glyph glyph-name="yacute" unicode="&#xfd;" horiz-adv-x="944" 
d="M16 997h265.001l159 -536c20.667 -72 37 -135.667 49 -191h7l23 93l24 98l139 536h252l-232 -690c-56.667 -167.333 -108.667 -298.333 -156 -393s-99 -169.667 -155 -225c-42.667 -40.667 -86.334 -72.167 -131.001 -94.5s-83.667 -35.833 -117 -40.5l-61 204
c48 12.667 95.667 38.667 143 78c52.667 40.667 93.667 92 123 154c9.33301 16.667 14 31.667 14 45s-3.33301 28.333 -10 45zM553.001 1421h233l-237 -297h-166z" />
    <glyph glyph-name="thorn" unicode="&#xfe;" horiz-adv-x="1099" 
d="M125 1376l242.001 -0.000976562v-512h4c60.667 102.667 154 154 280 154c108.667 1.33301 199 -45 271 -139s108 -218.333 108 -373c0 -70.667 -7.83301 -135.5 -23.5 -194.5s-36.667 -108.667 -63 -149s-57 -74.5 -92 -102.5s-71.5 -48.333 -109.5 -61s-77 -19 -117 -19
c-57.333 0 -107.833 11.333 -151.5 34s-77.834 53.334 -102.501 92.001h-4v-507h-242v1777zM367.001 593.999v-203.001c0 -33.333 6.66699 -64 20 -92c16 -41.333 40 -73.166 72 -95.499s67.333 -33.5 106 -33.5c68.667 0 122.667 30.667 162 92s59 142 59 242
c0 92.667 -19.167 169 -57.5 229s-90.833 90 -157.5 90c-41.333 0 -79 -13.167 -113 -39.5s-58.333 -60.833 -73 -103.5c-12 -30 -18 -58.667 -18 -86z" />
    <glyph glyph-name="ydieresis" unicode="&#xff;" horiz-adv-x="944" 
d="M16 997h265.001l159 -536c20.667 -72 37 -135.667 49 -191h7l23 93l24 98l139 536h252l-232 -690c-56.667 -167.333 -108.667 -298.333 -156 -393s-99 -169.667 -155 -225c-42.667 -40.667 -86.334 -72.167 -131.001 -94.5s-83.667 -35.833 -117 -40.5l-61 204
c48 12.667 95.667 38.667 143 78c52.667 40.667 93.667 92 123 154c9.33301 16.667 14 31.667 14 45s-3.33301 28.333 -10 45zM299.001 1153l-2 -0.000976562c-34 0 -62.667 11.833 -86 35.5s-35 52.167 -35 85.5c0 34.667 12 63.834 36 87.501s53 35.5 87 35.5
c33.333 0 61.166 -11.5 83.499 -34.5s33.5 -52.5 33.5 -88.5c0 -33.333 -11.167 -61.833 -33.5 -85.5s-50.166 -35.5 -83.499 -35.5zM686.001 1153l-2 -0.000976562c-33.333 0 -61.5 11.833 -84.5 35.5s-34.5 52.167 -34.5 85.5c0 34.667 11.667 63.834 35 87.501
s52 35.5 86 35.5s62.333 -11.5 85 -34.5s34 -52.5 34 -88.5c0 -33.333 -11.167 -61.833 -33.5 -85.5s-50.833 -35.5 -85.5 -35.5z" />
    <glyph glyph-name="Amacron" unicode="&#x100;" horiz-adv-x="1187" 
d="M780 381h-391l-104 -381h-246l403 1380h301l400 -1380h-254zM426 565l317 -0.000976562l-94 334c-16.667 64 -37.667 156.333 -63 277h-4c-19.333 -91.333 -40 -183.666 -62 -276.999zM342 1645h498v-142h-498v142z" />
    <glyph glyph-name="amacron" unicode="&#x101;" horiz-adv-x="970" 
d="M848 606l-0.000976562 -369.998c0 -98.667 4.66699 -177.334 14 -236.001h-217l-16 109h-4c-29.333 -40 -67.5 -71.5 -114.5 -94.5s-99.167 -34.5 -156.5 -34.5c-89.333 0 -160.833 28.667 -214.5 86s-80.5 127.333 -80.5 210c0 82 23.167 151.333 69.5 208
s109.833 98.334 190.5 125.001s176.334 40 287.001 40v19c0 22 -2.5 42.333 -7.5 61s-13.833 37.167 -26.5 55.5s-31.834 32.833 -57.501 43.5s-57.167 16 -94.5 16c-90.667 0 -172 -23.333 -244 -70l-47 160c38.667 23.333 87.334 43.166 146.001 59.499s122 24.5 190 24.5
c58 0 109.5 -7.5 154.5 -22.5s81.667 -35 110 -60s51.5 -55.333 69.5 -91s30.667 -72.834 38 -111.501s11 -81 11 -127zM611.999 340.002l-0.000976562 151.997c-41.333 0.666992 -79.166 -1.66602 -113.499 -6.99902s-67.5 -14.666 -99.5 -27.999s-57 -33.166 -75 -59.499
s-27 -58.5 -27 -96.5c0 -48 12.667 -84.167 38 -108.5s57 -36.5 95 -36.5c42 0 78.833 12.167 110.5 36.5s53.5 55.833 65.5 94.5c4 16 6 33.667 6 53zM251.998 1335h469v-141h-469v141z" />
    <glyph glyph-name="Abreve" unicode="&#x102;" horiz-adv-x="1187" 
d="M778 381h-389l-104 -381h-246l401 1380h301l402 -1380h-254zM426 565l317 -0.000976562l-94 334c-16.667 64 -37.667 156.333 -63 277h-6c-30 -143.333 -50.667 -235.666 -62 -276.999zM332 1686h133c4.66699 -27.333 17.167 -50 37.5 -68s50.166 -27 89.499 -27
c75.333 0 119 31.667 131 95h129c-1.33301 -70.667 -23.833 -127.334 -67.5 -170.001s-107.834 -64 -192.501 -64c-85.333 0 -149.666 21.333 -192.999 64s-65.666 99.334 -66.999 170.001z" />
    <glyph glyph-name="abreve" unicode="&#x103;" horiz-adv-x="970" 
d="M848 606l-0.000976562 -369.998c0 -98.667 4.66699 -177.334 14 -236.001h-217l-16 109h-4c-29.333 -40 -67.5 -71.5 -114.5 -94.5s-99.167 -34.5 -156.5 -34.5c-89.333 0 -160.833 28.667 -214.5 86s-80.5 127.333 -80.5 210c0 82 23.167 151.333 69.5 208
s109.833 98.334 190.5 125.001s176.334 40 287.001 40v19c0 22 -2.5 42.333 -7.5 61s-13.833 37.167 -26.5 55.5s-31.834 32.833 -57.501 43.5s-57.167 16 -94.5 16c-90.667 0 -172 -23.333 -244 -70l-47 160c38.667 23.333 87.334 43.166 146.001 59.499s122 24.5 190 24.5
c58 0 109.5 -7.5 154.5 -22.5s81.667 -35 110 -60s51.5 -55.333 69.5 -91s30.667 -72.834 38 -111.501s11 -81 11 -127zM611.999 340.002l-0.000976562 151.997c-41.333 0.666992 -79.166 -1.66602 -113.499 -6.99902s-67.5 -14.666 -99.5 -27.999s-57 -33.166 -75 -59.499
s-27 -58.5 -27 -96.5c0 -48 12.667 -84.167 38 -108.5s57 -36.5 95 -36.5c42 0 78.833 12.167 110.5 36.5s53.5 55.833 65.5 94.5c4 16 6 33.667 6 53zM226.998 1401h129.002c5.33301 -38.667 19 -69.5 41 -92.5s50.667 -34.5 86 -34.5c40.667 0 72.167 12.167 94.5 36.5
s34.5 54.5 36.5 90.5h129c0 -79.333 -23.167 -143.5 -69.5 -192.5s-109.833 -73.5 -190.5 -73.5c-82.667 0 -146.334 25.167 -191.001 75.5s-66.334 113.833 -65.001 190.5z" />
    <glyph glyph-name="Aogonek" unicode="&#x104;" horiz-adv-x="1187" 
d="M741 1380l400 -1380l-109 -2c-50.667 -64.667 -76 -120.667 -76 -168c0 -30.667 9.83301 -55.667 29.5 -75s43.5 -29 71.5 -29s57.333 5.33301 88 16l35 -119c-48.667 -35.333 -109.667 -53 -183 -53c-64 0 -114 16.667 -150 50s-54 81.333 -54 144
c0 72 31.333 152.667 94 242l-109 375h-389l-104 -381h-246l401 1380h301zM426 565l315 -0.000976562l-92 334c-12.667 44.667 -33.667 137 -63 277h-6c-30 -143.333 -50.667 -235.666 -62 -276.999z" />
    <glyph glyph-name="aogonek" unicode="&#x105;" horiz-adv-x="970" 
d="M848 606l-0.000976562 -367.998c0 -104.667 5.33301 -184 16 -238h-76c-40.667 -62 -61 -120 -61 -174c0 -30.667 8.83301 -54.667 26.5 -72s40.167 -26 67.5 -26c35.333 0 64.666 6 87.999 18l35 -121c-50.667 -38 -112.667 -57 -186 -57
c-59.333 0 -106.666 16.667 -141.999 50s-53 80 -53 140c0 12.667 0.833008 25.667 2.5 39s3.66699 25.333 6 36s5.83301 22.5 10.5 35.5l11.5 32c3 8.33301 7.66699 18.666 14 30.999l13.5 26.5l13 25.5c6 11.667 9.66699 18.5 11 20.5l-16 105h-4
c-29.333 -40 -67.5 -71.5 -114.5 -94.5s-99.167 -34.5 -156.5 -34.5c-89.333 0 -160.833 28.667 -214.5 86s-80.5 127.333 -80.5 210c0 82 23.167 151.333 69.5 208s109.833 98.334 190.5 125.001s176.334 40 287.001 40v19c0 22 -2.5 42.333 -7.5 61
s-13.833 37.167 -26.5 55.5s-31.834 32.833 -57.501 43.5s-57.167 16 -94.5 16c-90.667 0 -172 -23.333 -244 -70l-47 160c38.667 23.333 87.334 43.166 146.001 59.499s122 24.5 190 24.5c58 0 109.5 -7.5 154.5 -22.5s81.667 -35 110 -60s51.5 -55.333 69.5 -91
s30.667 -72.834 38 -111.501s11 -81 11 -127zM611.999 340.002l-0.000976562 151.997c-41.333 0.666992 -79.166 -1.66602 -113.499 -6.99902s-67.5 -14.666 -99.5 -27.999s-57 -33.166 -75 -59.499s-27 -58.5 -27 -96.5c0 -48 12.667 -84.167 38 -108.5s57 -36.5 95 -36.5
c42 0 78.833 12.167 110.5 36.5s53.5 55.833 65.5 94.5c4 16 6 33.667 6 53z" />
    <glyph glyph-name="Cacute" unicode="&#x106;" horiz-adv-x="1079" 
d="M985 229l36.999 -191.999c-28.667 -15.333 -70.667 -28.333 -126 -39s-117 -16 -185 -16c-199.333 0 -356 62.333 -470 187s-171 293 -171 505c0 116 17.667 220.5 53 313.5s83.833 169.167 145.5 228.5s132.834 104.666 213.501 135.999s167.667 47 261 47
c66 0 124.167 -5.16699 174.5 -15.5s88.5 -22.833 114.5 -37.5l-51 -195c-66 30 -141.667 45 -227 45c-127.333 0 -230.833 -43.5 -310.5 -130.5s-119.5 -213.5 -119.5 -379.5c0 -160 38 -283 114 -369s180.667 -129 314 -129c93.333 0 171 13.667 233 41zM728.999 1696h264
l-254 -240h-190z" />
    <glyph glyph-name="cacute" unicode="&#x107;" horiz-adv-x="837" 
d="M764 209l31.001 -182.001c-67.333 -30 -150 -45 -248 -45c-145.333 0 -261.166 45.333 -347.499 136s-129.5 214.334 -129.5 371.001c0 100 20.167 189.667 60.5 269s100.166 142.166 179.499 188.499s172 69.5 278 69.5c84 0 155 -13.667 213 -41l-41 -184
c-44 22.667 -99.333 34 -166 34c-86.667 0 -154.834 -30.667 -204.501 -92s-74.5 -139.666 -74.5 -234.999c0 -100 26 -179 78 -237s119 -87 201 -87c57.333 0 114 11.667 170 35zM567.001 1421h234l-238 -297h-164z" />
    <glyph glyph-name="Ccircumflex" unicode="&#x108;" horiz-adv-x="1079" 
d="M985 229l36.999 -191.999c-28.667 -15.333 -70.667 -28.333 -126 -39s-117 -16 -185 -16c-199.333 0 -356 62.333 -470 187s-171 293 -171 505c0 116 17.667 220.5 53 313.5s83.833 169.167 145.5 228.5s132.834 104.666 213.501 135.999s167.667 47 261 47
c66 0 124.167 -5.16699 174.5 -15.5s88.5 -22.833 114.5 -37.5l-51 -195c-66 30 -141.667 45 -227 45c-127.333 0 -230.833 -43.5 -310.5 -130.5s-119.5 -213.5 -119.5 -379.5c0 -160 38 -283 114 -369s180.667 -129 314 -129c93.333 0 171 13.667 233 41zM562.999 1694h187
l200 -234h-184l-107 125h-4l-108 -125h-180z" />
    <glyph glyph-name="ccircumflex" unicode="&#x109;" horiz-adv-x="837" 
d="M764 209l31.001 -182.001c-67.333 -30 -150 -45 -248 -45c-145.333 0 -261.166 45.333 -347.499 136s-129.5 214.334 -129.5 371.001c0 100 20.167 189.667 60.5 269s100.166 142.166 179.499 188.499s172 69.5 278 69.5c84 0 155 -13.667 213 -41l-41 -184
c-44 22.667 -99.333 34 -166 34c-86.667 0 -154.834 -30.667 -204.501 -92s-74.5 -139.666 -74.5 -234.999c0 -100 26 -179 78 -237s119 -87 201 -87c57.333 0 114 11.667 170 35zM418.001 1421h164l190 -297h-166l-104 181h-4l-103 -181h-168z" />
    <glyph glyph-name="Cdotaccent" unicode="&#x10a;" horiz-adv-x="1079" 
d="M985 229l35 -191.999c-28.667 -15.333 -70.5 -28.333 -125.5 -39s-116.833 -16 -185.5 -16c-198.667 0 -354.834 62.333 -468.501 187s-170.5 293 -170.5 505c0 116 17.667 220.5 53 313.5s83.833 169.167 145.5 228.5s132.834 104.666 213.501 135.999
s167.667 47 261 47c65.333 0 123.333 -5.33301 174 -16s89 -23 115 -37l-51 -195c-66 30 -141.667 45 -227 45c-127.333 0 -230.833 -43.5 -310.5 -130.5s-119.5 -213.5 -119.5 -379.5c0 -160 38 -283 114 -369s180.667 -129 314 -129c93.333 0 171 13.667 233 41zM662 1466
h-3c-32.667 0 -60.5 12.167 -83.5 36.5s-34.5 52.5 -34.5 84.5c0 33.333 11.667 61.833 35 85.5s52 35.5 86 35.5c32.667 0 60.167 -11.833 82.5 -35.5s33.5 -52.167 33.5 -85.5c0 -32 -11.167 -60.167 -33.5 -84.5s-49.833 -36.5 -82.5 -36.5z" />
    <glyph glyph-name="cdotaccent" unicode="&#x10b;" horiz-adv-x="837" 
d="M764 209l30.998 -181.998c-70.667 -30 -153.334 -45 -248.001 -45c-145.333 0 -261.166 45.333 -347.499 136s-129.5 214.334 -129.5 371.001c0 100 20.167 189.667 60.5 269s100 142.166 179 188.499s171.167 69.5 276.5 69.5c84 0 155 -13.667 213 -41l-41 -184
c-44 22.667 -99.333 34 -166 34c-85.333 0 -152.833 -30.833 -202.5 -92.5s-74.5 -139.834 -74.5 -234.501c0 -100.667 25.833 -179.834 77.5 -237.501s118.834 -86.5 201.501 -86.5c54.667 0 111.334 11.667 170.001 35zM511.998 1153h-2.00098c-34 0 -62.667 12 -86 36
s-35 53 -35 87c0 34.667 11.833 63.834 35.5 87.501s52.834 35.5 87.501 35.5c33.333 0 61.166 -11.5 83.499 -34.5s33.5 -52.5 33.5 -88.5c0 -34.667 -11.167 -63.834 -33.5 -87.501s-50.166 -35.5 -83.499 -35.5z" />
    <glyph glyph-name="Ccaron" unicode="&#x10c;" horiz-adv-x="1079" 
d="M985 229l36.999 -191.999c-28.667 -15.333 -70.667 -28.333 -126 -39s-117 -16 -185 -16c-199.333 0 -356 62.333 -470 187s-171 293 -171 505c0 116 17.667 220.5 53 313.5s83.833 169.167 145.5 228.5s132.834 104.666 213.501 135.999s167.667 47 261 47
c66 0 124.167 -5.16699 174.5 -15.5s88.5 -22.833 114.5 -37.5l-51 -195c-66 30 -141.667 45 -227 45c-127.333 0 -230.833 -43.5 -310.5 -130.5s-119.5 -213.5 -119.5 -379.5c0 -160 38 -283 114 -369s180.667 -129 314 -129c93.333 0 171 13.667 233 41zM761.999 1456
h-187l-198 234h182l109 -127h4l106 127h180z" />
    <glyph glyph-name="ccaron" unicode="&#x10d;" horiz-adv-x="837" 
d="M764 209l31.001 -182.001c-67.333 -30 -150 -45 -248 -45c-145.333 0 -261.166 45.333 -347.499 136s-129.5 214.334 -129.5 371.001c0 100 20.167 189.667 60.5 269s100.166 142.166 179.499 188.499s172 69.5 278 69.5c84 0 155 -13.667 213 -41l-41 -184
c-44 22.667 -99.333 34 -166 34c-86.667 0 -154.834 -30.667 -204.501 -92s-74.5 -139.666 -74.5 -234.999c0 -100 26 -179 78 -237s119 -87 201 -87c57.333 0 114 11.667 170 35zM586.001 1124h-166l-191 297h166l107 -180h4l104 180h166z" />
    <glyph glyph-name="Dcaron" unicode="&#x10e;" horiz-adv-x="1267" 
d="M137 4l0.00195312 1358c105.333 19.333 223.666 29 354.999 29c219.333 0 386.333 -48.667 501 -146c138 -113.333 207 -288 207 -524c0 -246 -68.333 -433 -205 -561c-122.667 -114.667 -309 -172 -559 -172c-100.667 0 -200.334 5.33301 -299.001 16zM379.002 1188
l-0.000976562 -1002c20.667 -4 59 -6 115 -6c142 -1.33301 252.833 42.5 332.5 131.5s119.5 223.5 119.5 403.5c1.33301 154.667 -35 274.167 -109 358.5s-180.333 126.5 -319 126.5c-51.333 0 -97.666 -4 -138.999 -12zM674.001 1456h-187l-198 234h182l109 -127h4l108 127
h180z" />
    <glyph glyph-name="dcaron" unicode="&#x10f;" horiz-adv-x="1116" 
d="M727 1444l241.999 -0.000976562v-1168c0 -90.667 2.66699 -182.667 8 -276h-213l-12 145h-4c-27.333 -50 -66.5 -90 -117.5 -120s-108.167 -45 -171.5 -45c-113.333 0 -206.5 47 -279.5 141s-109.5 216.667 -109.5 368c0 82 11 156.833 33 224.5s51.667 123.5 89 167.5
s80.333 77.833 129 101.5s100 35.5 154 35.5c58.667 0 109.334 -11.167 152.001 -33.5s74.667 -52.166 96 -89.499h4v549zM726.999 407.999l-0.00195312 184c0 28.667 -1.33301 49.667 -4 63c-9.33301 48 -31.166 88.333 -65.499 121s-75.166 49 -122.499 49
c-70.667 0 -125.334 -31 -164.001 -93s-58 -140.667 -58 -236c0 -96 19.333 -173.667 58 -233s91.667 -89 159 -89c44.667 0 84.334 14.167 119.001 42.5s58 68.833 70 121.5c5.33301 18 8 41.333 8 70zM1155 1032l-100 70c42 58 63 122 63 192c0 52 -17.667 98 -53 138
l160 28c18 -14 33.667 -34.667 47 -62s20 -57 20 -89c0 -104 -45.667 -196.333 -137 -277z" />
    <glyph glyph-name="Dcroat" unicode="&#x110;" horiz-adv-x="1280" 
d="M0 612l0.00195312 187.001h150v565c105.333 19.333 223.333 29 354 29c221.333 0 388.666 -48 501.999 -144c137.333 -112.667 206 -289.334 206 -530.001c0 -126.667 -18 -237.167 -54 -331.5s-86 -170.833 -150 -229.5c-122 -116 -308.333 -174 -559 -174
c-100.667 0 -200.334 5.33301 -299.001 16v612h-150zM668.002 799.001l-0.000976562 -187h-277v-430c20.667 -4 59 -6 115 -6c142.667 0 253.667 44.5 333 133.5s119 224.833 119 407.5c1.33301 156.667 -34.667 276.667 -108 360s-180 125 -320 125
c-51.333 0 -97.666 -4 -138.999 -12v-391h277z" />
    <glyph glyph-name="dcroat" unicode="&#x111;" horiz-adv-x="1095" 
d="M1118 1112l-149.001 -0.000976562v-836c0 -90.667 2.66699 -182.667 8 -276h-213l-12 145h-4c-27.333 -50 -66.5 -90 -117.5 -120s-108.167 -45 -171.5 -45c-113.333 0 -206.5 47 -279.5 141s-109.5 216.667 -109.5 368c0 82 11 156.833 33 224.5s51.667 123.5 89 167.5
s80.333 77.833 129 101.5s100 35.5 154 35.5c58.667 0 109.334 -11.167 152.001 -33.5s74.667 -52.166 96 -89.499h4v217h-350v143h350v189h242v-189h149v-143zM726.999 407.999l-0.00195312 184c0 28.667 -1.33301 49.667 -4 63c-9.33301 48 -31.166 88.333 -65.499 121
s-75.166 49 -122.499 49c-70.667 0 -125.334 -31 -164.001 -93s-58 -140.667 -58 -236c0 -96 19.333 -173.667 58 -233s91.667 -89 159 -89c44.667 0 84.334 14.167 119.001 42.5s58 68.833 70 121.5c5.33301 18 8 41.333 8 70z" />
    <glyph glyph-name="Emacron" unicode="&#x112;" horiz-adv-x="968" 
d="M842 815v-199h-463v-413h518v-203h-760v1380h731v-202h-489v-363h463zM254 1645h498v-142h-498v142z" />
    <glyph glyph-name="emacron" unicode="&#x113;" horiz-adv-x="980" 
d="M909 432l-606.001 0.000976562c2 -90.667 29.167 -157.667 81.5 -201s118.833 -65 199.5 -65c86.667 0 169 14.333 247 43l35 -168c-87.333 -39.333 -193.666 -59 -318.999 -59c-150 0 -267 45 -351 135s-126 212 -126 366c0 73.333 10.167 142.166 30.5 206.499
s49.166 121 86.499 170s84.833 87.667 142.5 116s121.834 42.5 192.501 42.5c56 0 106.667 -9.16699 152 -27.5s82.833 -42.666 112.5 -72.999s54.667 -66.333 75 -108s34.833 -84.834 43.5 -129.501s13 -91 13 -139c0 -38 -3 -74.333 -9 -109zM302.999 602.001
l386.996 -0.00195312c0.666992 30 -2.16602 58.833 -8.49902 86.5s-16.166 53.834 -29.499 78.501s-32.666 44.334 -57.999 59.001s-54.666 22 -87.999 22c-32 0 -61 -7.66699 -87 -23s-46.833 -35.5 -62.5 -60.5s-28 -51.333 -37 -79s-14.5 -55.5 -16.5 -83.5z
M265.995 1335h467v-141h-467v141z" />
    <glyph glyph-name="Ebreve" unicode="&#x114;" horiz-adv-x="968" 
d="M842 815v-199h-463v-413h518v-203h-760v1380h731v-202h-489v-363h463zM246 1696h133c4.66699 -27.333 17.167 -49.833 37.5 -67.5s50.166 -26.5 89.499 -26.5c75.333 0 119 31.333 131 94h129c-1.33301 -70.667 -23.833 -127.334 -67.5 -170.001
s-107.834 -64 -192.501 -64c-85.333 0 -149.666 21.333 -192.999 64s-65.666 99.334 -66.999 170.001z" />
    <glyph glyph-name="ebreve" unicode="&#x115;" horiz-adv-x="980" 
d="M909 432l-606.001 0.000976562c2 -90.667 29.167 -157.667 81.5 -201s118.833 -65 199.5 -65c86.667 0 169 14.333 247 43l35 -168c-87.333 -39.333 -193.666 -59 -318.999 -59c-150 0 -267 45 -351 135s-126 212 -126 366c0 73.333 10.167 142.166 30.5 206.499
s49.166 121 86.499 170s84.833 87.667 142.5 116s121.834 42.5 192.501 42.5c56 0 106.667 -9.16699 152 -27.5s82.833 -42.666 112.5 -72.999s54.667 -66.333 75 -108s34.833 -84.834 43.5 -129.501s13 -91 13 -139c0 -38 -3 -74.333 -9 -109zM302.999 602.001
l386.996 -0.00195312c0.666992 30 -2.16602 58.833 -8.49902 86.5s-16.166 53.834 -29.499 78.501s-32.666 44.334 -57.999 59.001s-54.666 22 -87.999 22c-32 0 -61 -7.66699 -87 -23s-46.833 -35.5 -62.5 -60.5s-28 -51.333 -37 -79s-14.5 -55.5 -16.5 -83.5z
M243.995 1401h129.002c5.33301 -38.667 19 -69.5 41 -92.5s50.667 -34.5 86 -34.5c40.667 0 72.167 12.167 94.5 36.5s34.5 54.5 36.5 90.5h129c1.33301 -79.333 -21.5 -143.5 -68.5 -192.5s-110.833 -73.5 -191.5 -73.5c-82.667 0 -146.334 25.167 -191.001 75.5
s-66.334 113.833 -65.001 190.5z" />
    <glyph glyph-name="Edotaccent" unicode="&#x116;" horiz-adv-x="968" 
d="M842 815v-199h-463v-413h518v-203h-760v1380h731v-202h-489v-363h463zM498 1470h-2c-32.667 0 -60.667 12.167 -84 36.5s-35 52.5 -35 84.5c0 33.333 11.667 61.833 35 85.5s52 35.5 86 35.5c32.667 0 60.167 -11.833 82.5 -35.5s33.5 -52.167 33.5 -85.5
c0 -32 -11.167 -60.167 -33.5 -84.5s-49.833 -36.5 -82.5 -36.5z" />
    <glyph glyph-name="edotaccent" unicode="&#x117;" horiz-adv-x="980" 
d="M909 432l-606.001 0.000976562c2 -90.667 29.167 -157.667 81.5 -201s118.833 -65 199.5 -65c86.667 0 169 14.333 247 43l35 -168c-87.333 -39.333 -193.666 -59 -318.999 -59c-150 0 -267 45 -351 135s-126 212 -126 366c0 73.333 10.167 142.166 30.5 206.499
s49.166 121 86.499 170s84.833 87.667 142.5 116s121.834 42.5 192.501 42.5c56 0 106.667 -9.16699 152 -27.5s82.833 -42.666 112.5 -72.999s54.667 -66.333 75 -108s34.833 -84.834 43.5 -129.501s13 -91 13 -139c0 -38 -3 -74.333 -9 -109zM302.999 602.001
l386.997 -0.00195312c0.666992 30 -2.16602 58.833 -8.49902 86.5s-16.166 53.834 -29.499 78.501s-32.666 44.334 -57.999 59.001s-54.666 22 -87.999 22c-32.667 0 -62 -7.66699 -88 -23s-46.833 -35.5 -62.5 -60.5s-27.834 -51.167 -36.501 -78.5s-14 -55.333 -16 -84z
M505.996 1153h-2.00098c-34 0 -62.667 12 -86 36s-35 53 -35 87c0 34.667 11.833 63.834 35.5 87.501s52.834 35.5 87.501 35.5c33.333 0 61.166 -11.5 83.499 -34.5s33.5 -52.5 33.5 -88.5c0 -34.667 -11.167 -63.834 -33.5 -87.501s-50.166 -35.5 -83.499 -35.5z" />
    <glyph glyph-name="Eogonek" unicode="&#x118;" horiz-adv-x="968" 
d="M881 -256l32.001 -121.002c-50.667 -35.333 -114 -53 -190 -53c-60 0 -107.167 15.5 -141.5 46.5s-51.5 74.167 -51.5 129.5c0 50.667 14.833 98.334 44.5 143.001s65.5 82.334 107.5 113.001h-545v1378h733v-202h-491v-363h463v-199h-463v-411h520v-203
c-4 0 -10.333 -0.333008 -19 -1s-15.334 -1 -20.001 -1c-42 -28.667 -77.333 -61 -106 -97s-43 -70 -43 -102c0 -23.333 7.5 -41.333 22.5 -54s34.833 -19 59.5 -19c32.667 0 62 5.33301 88 16z" />
    <glyph glyph-name="eogonek" unicode="&#x119;" horiz-adv-x="980" 
d="M768 -250l39 -118.998c-52.667 -39.333 -116.334 -59 -191.001 -59c-60 0 -107 15 -141 45s-51 70.333 -51 121c0 46.667 14.333 91.667 43 135s62 79.666 100 108.999v2c-6.66699 -1.33301 -16.667 -2 -30 -2c-146 0.666992 -260.333 46.167 -343 136.5
s-124 211.833 -124 364.5c0 73.333 10.167 142.166 30.5 206.499s49.166 121 86.499 170s84.833 87.667 142.5 116s121.834 42.5 192.501 42.5c56 0 106.667 -9.16699 152 -27.5s82.833 -42.666 112.5 -72.999s54.667 -66.333 75 -108s34.833 -84.834 43.5 -129.501
s13 -91 13 -139c0 -38 -3 -74.333 -9 -109h-606c2 -90.667 29.167 -157.667 81.5 -201s118.833 -65 199.5 -65c86.667 0 169 14.333 247 43l35 -168c-11.333 -5.33301 -27.166 -11.666 -47.499 -18.999s-32.5 -12 -36.5 -14c-45.333 -22 -87 -53.333 -125 -94
s-57 -78.334 -57 -113.001c0 -24 7.16699 -42.167 21.5 -54.5s31.833 -18.5 52.5 -18.5c32 0 63.333 7.33301 94 22zM303 602.002l386.997 -0.00195312c0.666992 30 -2.16602 58.833 -8.49902 86.5s-16.166 53.834 -29.499 78.501s-32.666 44.334 -57.999 59.001
s-54.666 22 -87.999 22c-32.667 0 -62 -7.66699 -88 -23s-46.833 -35.5 -62.5 -60.5s-27.834 -51.167 -36.501 -78.5s-14 -55.333 -16 -84z" />
    <glyph glyph-name="Ecaron" unicode="&#x11a;" horiz-adv-x="968" 
d="M842 815v-199h-463v-413h518v-203h-760v1380h731v-202h-489v-363h463zM596 1454h-186l-199 234h182l107 -127h4l108 127h181z" />
    <glyph glyph-name="ecaron" unicode="&#x11b;" horiz-adv-x="980" 
d="M909 432l-606.001 0.000976562c2 -90.667 29.167 -157.667 81.5 -201s118.833 -65 199.5 -65c86.667 0 169 14.333 247 43l35 -168c-87.333 -39.333 -193.666 -59 -318.999 -59c-150 0 -267 45 -351 135s-126 212 -126 366c0 73.333 10.167 142.166 30.5 206.499
s49.166 121 86.499 170s84.833 87.667 142.5 116s121.834 42.5 192.501 42.5c56 0 106.667 -9.16699 152 -27.5s82.833 -42.666 112.5 -72.999s54.667 -66.333 75 -108s34.833 -84.834 43.5 -129.501s13 -91 13 -139c0 -38 -3 -74.333 -9 -109zM302.999 602.001
l386.996 -0.00195312c0.666992 30 -2.16602 58.833 -8.49902 86.5s-16.166 53.834 -29.499 78.501s-32.666 44.334 -57.999 59.001s-54.666 22 -87.999 22c-32 0 -61 -7.66699 -87 -23s-46.833 -35.5 -62.5 -60.5s-28 -51.333 -37 -79s-14.5 -55.5 -16.5 -83.5z
M583.995 1124h-168l-191 297h168l105 -180h4l104 180h168z" />
    <glyph glyph-name="Gcircumflex" unicode="&#x11c;" horiz-adv-x="1234" 
d="M1130 758v-704.998c-123.333 -44.667 -253.666 -67 -390.999 -67c-206 0 -367 56 -483 168c-60.667 58.667 -107.167 133.334 -139.5 224.001s-48.5 190.667 -48.5 300c0.666992 113.333 19 215.666 55 306.999s85.5 166.666 148.5 225.999s137.333 104.833 223 136.5
s178.834 47.5 279.501 47.5c67.333 0 129.166 -5.83301 185.499 -17.5s101.166 -25.167 134.499 -40.5l-52 -198c-74 34 -162.667 51 -266 51c-136 0 -245.667 -42.833 -329 -128.5s-125 -210.834 -125 -375.501c0 -162 38.5 -286.167 115.5 -372.5
s178.833 -129.5 305.5 -129.5c69.333 0 121.333 7.66699 156 23v358h-215v193h446zM596 1694h186l199 -234h-182l-109 125h-4l-108 -125h-179z" />
    <glyph glyph-name="gcircumflex" unicode="&#x11d;" horiz-adv-x="1083" 
d="M958 702l-0.000976562 -564.998c0 -108.667 -10.833 -198.334 -32.5 -269.001s-56.5 -128.334 -104.5 -173.001c-85.333 -78 -204.666 -117 -357.999 -117c-128 0 -232.333 23.333 -313 70l51 186c72.667 -44.667 159.334 -67 260.001 -67
c80.667 0 143.834 23.833 189.501 71.5s68.5 121.167 68.5 220.5v82h-4c-25.333 -42 -60.333 -75 -105 -99s-95.667 -36 -153 -36c-114.667 0 -207.834 46.333 -279.501 139s-107.5 209 -107.5 349c0 81.333 11.333 155.5 34 222.5s53.167 122.167 91.5 165.5
s82.166 76.833 131.499 100.5s101.333 35.5 156 35.5c116 0 202 -48.667 258 -146h4l11 125h211c-6 -108 -9 -206.333 -9 -295zM716.999 416.002v194.001c0 28.667 -2.66699 52 -8 70c-12 43.333 -33.5 78.666 -64.5 105.999s-69.167 41 -114.5 41
c-64.667 0 -117 -29.5 -157 -88.5s-60 -137.833 -60 -236.5c0 -93.333 19.167 -168.666 57.5 -225.999s90.833 -86 157.5 -86c40.667 0 77 12.167 109 36.5s54.667 58.166 68 101.499c8 26.667 12 56 12 88zM460.999 1425h166l190 -297h-168l-104 181h-4l-103 -181h-168z
" />
    <glyph glyph-name="Gbreve" unicode="&#x11e;" horiz-adv-x="1234" 
d="M1130 758v-704.998c-123.333 -44.667 -253.666 -67 -390.999 -67c-206 0 -367 56 -483 168c-60.667 58.667 -107.167 133.334 -139.5 224.001s-48.5 190.667 -48.5 300c0.666992 113.333 19 215.666 55 306.999s85.5 166.666 148.5 225.999s137.333 104.833 223 136.5
s178.834 47.5 279.501 47.5c67.333 0 129.166 -5.83301 185.499 -17.5s101.166 -25.167 134.499 -40.5l-52 -198c-74 34 -162.667 51 -266 51c-136 0 -245.667 -42.833 -329 -128.5s-125 -210.834 -125 -375.501c0 -162 38.5 -286.167 115.5 -372.5
s178.833 -129.5 305.5 -129.5c69.333 0 121.333 7.66699 156 23v358h-215v193h446zM430 1698h132.998c4.66699 -27.333 17.167 -49.833 37.5 -67.5s50.166 -26.5 89.499 -26.5c75.333 0 119 31.333 131 94h131c-1.33301 -70.667 -24.166 -127.334 -68.499 -170.001
s-108.833 -64 -193.5 -64c-85.333 0 -149.666 21.333 -192.999 64s-65.666 99.334 -66.999 170.001z" />
    <glyph glyph-name="gbreve" unicode="&#x11f;" horiz-adv-x="1083" 
d="M958 702l-0.000976562 -564.998c0 -108.667 -10.833 -198.334 -32.5 -269.001s-56.5 -128.334 -104.5 -173.001c-85.333 -78 -204.666 -117 -357.999 -117c-128 0 -232.333 23.333 -313 70l51 186c72.667 -44.667 159.334 -67 260.001 -67
c80.667 0 143.834 23.833 189.501 71.5s68.5 121.167 68.5 220.5v82h-4c-25.333 -42 -60.333 -75 -105 -99s-95.667 -36 -153 -36c-114.667 0 -207.834 46.333 -279.501 139s-107.5 209 -107.5 349c0 81.333 11.333 155.5 34 222.5s53.167 122.167 91.5 165.5
s82.166 76.833 131.499 100.5s101.333 35.5 156 35.5c118.667 0 204.667 -48.667 258 -146h4l11 125h211c-6 -108 -9 -206.333 -9 -295zM716.999 416.002v194.001c0 28.667 -2.66699 52 -8 70c-12 43.333 -33.333 78.666 -64 105.999s-69 41 -115 41
c-64.667 0 -117 -29.5 -157 -88.5s-60 -137.833 -60 -236.5c0 -93.333 19.167 -168.666 57.5 -225.999s90.833 -86 157.5 -86c40.667 0 77.167 12.167 109.5 36.5s55.5 58.166 69.5 101.499c6.66699 22.667 10 52 10 88zM280.999 1401h130.999
c4 -38.667 17.167 -69.5 39.5 -92.5s51.5 -34.5 87.5 -34.5c40.667 0 72.167 12.167 94.5 36.5s34.5 54.5 36.5 90.5h129c0 -79.333 -23.167 -143.5 -69.5 -192.5s-109.833 -73.5 -190.5 -73.5c-83.333 0 -147.166 25.167 -191.499 75.5s-66.5 113.833 -66.5 190.5z" />
    <glyph glyph-name="Gdotaccent" unicode="&#x120;" horiz-adv-x="1234" 
d="M1130 758v-704.998c-123.333 -44.667 -253.666 -67 -390.999 -67c-206 0 -367 56 -483 168c-60.667 58.667 -107.167 133.334 -139.5 224.001s-48.5 190.667 -48.5 300c0.666992 113.333 19 215.666 55 306.999s85.5 166.666 148.5 225.999s137.333 104.833 223 136.5
s178.834 47.5 279.501 47.5c67.333 0 129.166 -5.83301 185.499 -17.5s101.166 -25.167 134.499 -40.5l-52 -198c-74 34 -163.333 51 -268 51c-135.333 0 -244.5 -42.833 -327.5 -128.5s-124.5 -210.834 -124.5 -375.501c0 -162 38.5 -286.167 115.5 -372.5
s178.833 -129.5 305.5 -129.5c69.333 0 121.333 7.66699 156 23v358h-215v193h446zM694 1466h-2c-32.667 0 -60.667 12.167 -84 36.5s-35 52.5 -35 84.5c0 33.333 11.667 61.833 35 85.5s52 35.5 86 35.5c32.667 0 60.334 -11.833 83.001 -35.5s34 -52.167 34 -85.5
c0 -32 -11.333 -60.167 -34 -84.5s-50.334 -36.5 -83.001 -36.5z" />
    <glyph glyph-name="gdotaccent" unicode="&#x121;" horiz-adv-x="1083" 
d="M958 702l-0.000976562 -564.998c0 -108.667 -10.833 -198.334 -32.5 -269.001s-56.5 -128.334 -104.5 -173.001c-85.333 -78 -204.666 -117 -357.999 -117c-128 0 -232.333 23.333 -313 70l51 186c72.667 -44.667 159.334 -67 260.001 -67
c80.667 0 143.834 23.833 189.501 71.5s68.5 121.167 68.5 220.5v82h-4c-25.333 -42 -60.333 -75 -105 -99s-95.667 -36 -153 -36c-114.667 0 -207.834 46.333 -279.501 139s-107.5 209 -107.5 349c0 81.333 11.333 155.5 34 222.5s53.167 122.167 91.5 165.5
s82.166 76.833 131.499 100.5s101.333 35.5 156 35.5c118.667 0 204.667 -48.667 258 -146h4l11 125h211c-6 -108 -9 -206.333 -9 -295zM716.999 416.002l0.000976562 194.002c0 28.667 -2.66699 52 -8 70c-12 43.333 -33.333 78.666 -64 105.999s-68.334 41 -113.001 41
c-66 0 -119 -29.5 -159 -88.5s-60 -137.833 -60 -236.5c0 -93.333 19.333 -168.666 58 -225.999s91.667 -86 159 -86c40 0 75.833 12.167 107.5 36.5s54.167 58.166 67.5 101.499c8 21.333 12 50.666 12 87.999zM545 1155h-1.99902c-34 0 -62.667 12 -86 36s-35 53 -35 87
c0 34.667 11.667 63.834 35 87.501s52.666 35.5 87.999 35.5c33.333 0 61.166 -11.5 83.499 -34.5s33.5 -52.5 33.5 -88.5c0 -34.667 -11.167 -63.834 -33.5 -87.501s-50.166 -35.5 -83.499 -35.5z" />
    <glyph glyph-name="Gcommaaccent" unicode="&#x122;" horiz-adv-x="1234" 
d="M1130 758v-704.998c-123.333 -44.667 -253.666 -67 -390.999 -67c-206 0 -367 56 -483 168c-60.667 58.667 -107.167 133.334 -139.5 224.001s-48.5 190.667 -48.5 300c0.666992 113.333 19 215.666 55 306.999s85.5 166.666 148.5 225.999s137.333 104.833 223 136.5
s178.834 47.5 279.501 47.5c67.333 0 129.166 -5.83301 185.499 -17.5s101.166 -25.167 134.499 -40.5l-52 -198c-74 34 -163.333 51 -268 51c-135.333 0 -244.5 -42.833 -327.5 -128.5s-124.5 -210.834 -124.5 -375.501c0 -162 38.5 -286.167 115.5 -372.5
s178.833 -129.5 305.5 -129.5c69.333 0 121.333 7.66699 156 23v358h-215v193h446zM547 -466.998l-41 107c38.667 8 71.167 22.333 97.5 43s39.5 47.667 39.5 81c0 41.333 -21.667 82.333 -65 123l176 31c22 -16 40.333 -37.5 55 -64.5s22 -56.833 22 -89.5
c0 -72.667 -26.833 -128.167 -80.5 -166.5s-121.5 -59.833 -203.5 -64.5z" />
    <glyph glyph-name="gcommaaccent" unicode="&#x123;" horiz-adv-x="1083" 
d="M958 702v-564.998c0 -108.667 -10.833 -198.334 -32.5 -269.001s-56.5 -128.334 -104.5 -173.001c-85.333 -78 -204.666 -117 -357.999 -117c-128 0 -232.333 23.333 -313 70l51 186c72.667 -44.667 159.334 -67 260.001 -67c80.667 0 143.834 23.833 189.501 71.5
s68.5 121.167 68.5 220.5v82h-4c-24.667 -42 -59.334 -75 -104.001 -99s-95.334 -36 -152.001 -36c-116 0 -209.833 46.167 -281.5 138.5s-107.5 208.833 -107.5 349.5c0 81.333 11.333 155.5 34 222.5s53.167 122.167 91.5 165.5s82.166 76.833 131.499 100.5
s101.333 35.5 156 35.5c118.667 0 204.667 -48.667 258 -146h4l11 125h211c-6 -108 -9 -206.333 -9 -295zM717 416.002v194.001c0 28.667 -2.66699 52 -8 70c-12 43.333 -33.333 78.666 -64 105.999s-68.334 41 -113.001 41c-65.333 0 -118.166 -29.5 -158.499 -88.5
s-60.5 -137.833 -60.5 -236.5c0 -93.333 19.333 -168.666 58 -225.999s91.667 -86 159 -86c40 0 75.833 12.167 107.5 36.5s54.167 58.166 67.5 101.499c8 26.667 12 56 12 88zM678 1466l40.999 -92.001c-98.667 -17.333 -148 -59.666 -148 -126.999
c0 -42 22.667 -81.667 68 -119l-166 -28c-21.333 14.667 -39.666 35.167 -54.999 61.5s-23 54.833 -23 85.5c0 68.667 27 121.167 81 157.5s121.333 56.833 202 61.5z" />
    <glyph glyph-name="Hcircumflex" unicode="&#x124;" horiz-adv-x="1265" 
d="M137 1380h242v-559h508v559h241v-1380h-241v608h-508v-608h-242v1380zM541 1688h186l201 -234h-185l-108 125h-4l-109 -125h-178z" />
    <glyph glyph-name="hcircumflex" unicode="&#x125;" horiz-adv-x="1085" 
d="M125 0l-0.000976562 1444h242v-574h4c30 44.667 67.333 80.334 112 107.001c51.333 27.333 105.333 41 162 41c43.333 0 83.5 -7.83301 120.5 -23.5s70.5 -39.667 100.5 -72s53.667 -76 71 -131s26 -118.833 26 -191.5v-600h-242v580c0 72.667 -13.333 130.667 -40 174
s-70 65 -130 65c-41.333 0 -77.166 -12.333 -107.499 -37s-52.5 -57.334 -66.5 -98.001c-6.66699 -19.333 -10 -44.666 -10 -75.999v-608h-242zM157.999 1726h186l201 -233h-185l-106 125h-4l-109 -125h-178z" />
    <glyph glyph-name="Hbar" unicode="&#x126;" horiz-adv-x="1277" 
d="M1249 973h-114v-973h-242v571h-508v-571h-242v973h-114v153h114v254h242v-254h508v254h242v-254h114v-153zM893 784v189h-508v-189h508z" />
    <glyph glyph-name="hbar" unicode="&#x127;" horiz-adv-x="1085" 
d="M963 0l-242.001 -0.000976562v580c0 72.667 -13.333 130.667 -40 174s-70 65 -130 65c-41.333 0 -77.166 -12.333 -107.499 -37s-52.5 -57.334 -66.5 -98.001c-6.66699 -19.333 -10 -44.666 -10 -75.999v-608h-242v1112h-150v143h150v189h242v-189h352v-143h-352v-242h4
c30 44.667 67.333 80.334 112 107.001c51.333 27.333 105.333 41 162 41c43.333 0 83.5 -7.83301 120.5 -23.5s70.5 -39.667 100.5 -72s53.667 -76 71 -131s26 -118.833 26 -191.5v-600z" />
    <glyph glyph-name="Itilde" unicode="&#x128;" horiz-adv-x="518" 
d="M137 1380h242v-1380h-242v1380zM117 1466h-116.997c-2 72 10 128.333 36 169s61.667 61 107 61c15.333 0 30.666 -2.16699 45.999 -6.5s27 -8.5 35 -12.5l38 -20c3.33301 -2 9.5 -5.5 18.5 -10.5s15.5 -8.5 19.5 -10.5s9.33301 -4.5 16 -7.5s12.667 -5.16699 18 -6.5
s10.666 -2 15.999 -2c17.333 0 30.333 6 39 18s14.334 33.333 17.001 64h114c4 -150 -45 -225 -147 -225c-36 0 -76.333 12 -121 36l-16 9.5c-7.33301 4.33301 -12.666 7.33301 -15.999 9l-13.5 7c-5.66699 3 -10.334 5.16699 -14.001 6.5s-7.83398 2.5 -12.501 3.5
s-9.33398 1.5 -14.001 1.5c-28.667 0 -45 -28 -49 -84z" />
    <glyph glyph-name="itilde" unicode="&#x129;" horiz-adv-x="493" 
d="M367 0h-242v997h242v-997zM104 1149l-118.002 -0.000976562c-2 72.667 10.333 130.334 37 173.001s63.334 64 110.001 64c31.333 0 73 -13.333 125 -40l17.5 -10.5c8.33301 -5 14.5 -8.5 18.5 -10.5l15.5 -7.5c6.33301 -3 12 -5.16699 17 -6.5s10.167 -2 15.5 -2
c16.667 0 29.167 6 37.5 18s13.5 34 15.5 66h117c2 -153.333 -48.667 -230 -152 -230c-14.667 0 -30.167 2.5 -46.5 7.5s-28.5 9.33301 -36.5 13s-21.667 10.5 -41 20.5l-24 13.5l-21.5 12c-4.33301 2.33301 -9.66602 4.5 -15.999 6.5s-12.5 3 -18.5 3
c-30.667 0 -48 -30 -52 -90z" />
    <glyph glyph-name="Imacron" unicode="&#x12a;" horiz-adv-x="518" 
d="M137 1380h242v-1380h-242v1380zM12 1645h496v-142h-496v142z" />
    <glyph glyph-name="imacron" unicode="&#x12b;" horiz-adv-x="493" 
d="M367 0h-242v997h242v-997zM14 1335h467v-141h-467v141z" />
    <glyph glyph-name="Ibreve" unicode="&#x12c;" horiz-adv-x="518" 
d="M137 1380h242v-1380h-242v1380zM-2 1696h132.998c4.66699 -27.333 17.167 -49.833 37.5 -67.5s50.166 -26.5 89.499 -26.5c38.667 0 68.834 8.66699 90.501 26s34.5 40 38.5 68h131c-1.33301 -70.667 -24 -127.334 -68 -170.001s-108 -64 -192 -64
c-85.333 0 -149.666 21.333 -192.999 64s-65.666 99.334 -66.999 170.001z" />
    <glyph glyph-name="ibreve" unicode="&#x12d;" horiz-adv-x="493" 
d="M367 0h-242v997h242v-997zM-10 1401h130.999c5.33301 -39.333 18.833 -70.333 40.5 -93s50.5 -34 86.5 -34c40.667 0 72.167 12.167 94.5 36.5s34.5 54.5 36.5 90.5h129c0 -79.333 -23.167 -143.5 -69.5 -192.5s-109.833 -73.5 -190.5 -73.5
c-83.333 0 -147.166 25.167 -191.499 75.5s-66.5 113.833 -66.5 190.5z" />
    <glyph glyph-name="Iogonek" unicode="&#x12e;" horiz-adv-x="518" 
d="M379 1380l-0.000976562 -1380h-96c-42.667 -64.667 -64 -122 -64 -172c0 -33.333 9.33301 -59.5 28 -78.5s42.667 -28.5 72 -28.5c36.667 0 66.334 5.66699 89.001 17l34 -119c-48 -36.667 -108.667 -55 -182 -55c-64 0 -114.167 16.833 -150.5 50.5
s-54.5 81.5 -54.5 143.5c0 66 27.333 146.667 82 242v1380h242z" />
    <glyph glyph-name="iogonek" unicode="&#x12f;" horiz-adv-x="493" 
d="M246 1143h-2.00098c-39.333 0 -71.666 13 -96.999 39s-38 58.667 -38 98s12.833 71.666 38.5 96.999s58.5 38 98.5 38c40.667 0 73.667 -12.667 99 -38s38 -57.666 38 -96.999s-12.667 -72 -38 -98s-58.333 -39 -99 -39zM366.999 997v-997.001h-97
c-42 -64 -63 -122 -63 -174c0 -31.333 9.5 -56.666 28.5 -75.999s42.833 -29 71.5 -29c36 0 65.333 5.66699 88 17l35 -119c-48 -36.667 -108.667 -55 -182 -55c-64 0 -114.167 16.833 -150.5 50.5s-54.5 81.5 -54.5 143.5c0 66 27.333 146.667 82 242v997h242z" />
    <glyph glyph-name="Idotaccent" unicode="&#x130;" horiz-adv-x="518" 
d="M137 1380h242v-1380h-242v1380zM260 1470h-2.00098c-32.667 0 -60.667 12.167 -84 36.5s-35 52.5 -35 84.5c0 33.333 12 61.833 36 85.5s53 35.5 87 35.5c32.667 0 60 -11.833 82 -35.5s33 -52.167 33 -85.5c0 -32.667 -11.167 -61 -33.5 -85s-50.166 -36 -83.499 -36z
" />
    <glyph glyph-name="dotlessi" unicode="&#x131;" horiz-adv-x="493" 
d="M367 0h-242v997h242v-997z" />
    <glyph glyph-name="IJ" unicode="&#x132;" horiz-adv-x="1253" 
d="M137 1380h242v-1380h-242v1380zM889 469v911h241v-915c0 -91.333 -10.333 -169.166 -31 -233.499s-50.667 -114.5 -90 -150.5s-84 -61.833 -134 -77.5s-107.667 -23.5 -173 -23.5c-76 0 -137.333 9.33301 -184 28l27 197c40.667 -14 85 -21 133 -21
c70 0 122.667 20.667 158 62s53 115.666 53 222.999z" />
    <glyph glyph-name="ij" unicode="&#x133;" horiz-adv-x="1007" 
d="M367 0h-242v997h242v-997zM246 1139h-1.99902c-38.667 0 -70.167 12.5 -94.5 37.5s-36.5 56.833 -36.5 95.5s12.5 70.5 37.5 95.5s57.5 37.5 97.5 37.5s72.167 -12.333 96.5 -37s36.5 -56.667 36.5 -96c0 -38.667 -12.333 -70.5 -37 -95.5s-57.334 -37.5 -98.001 -37.5z
M436.001 -428l-23.999 189.998c79.333 6.66699 136.666 29.334 171.999 68.001c22 24.667 37.333 60.834 46 108.501s13 121.5 13 221.5v837h242v-903c0 -103.333 -10 -187.333 -30 -252s-52.333 -118.334 -97 -161.001c-38 -34.667 -86.167 -61.167 -144.5 -79.5
s-117.5 -28.166 -177.5 -29.499zM764.002 1139h-1.99902c-38.667 0 -70.167 12.5 -94.5 37.5s-36.5 56.833 -36.5 95.5s12.5 70.5 37.5 95.5s57.5 37.5 97.5 37.5c39.333 0 71.333 -12.5 96 -37.5s37 -56.833 37 -95.5s-12.333 -70.5 -37 -95.5s-57.334 -37.5 -98.001 -37.5
z" />
    <glyph glyph-name="Jcircumflex" unicode="&#x134;" horiz-adv-x="735" 
d="M371 467l0.000976562 912.996h241v-915c0 -91.333 -10.333 -169.166 -31 -233.499s-50.667 -114.5 -90 -150.5s-84 -61.833 -134 -77.5s-107.667 -23.5 -173 -23.5c-74 0 -135.333 9.33301 -184 28l29 197c40.667 -14 85 -21 133 -21c33.333 0 62.166 4.33301 86.499 13
s46 23.334 65 44.001s33.333 49.834 43 87.501s14.5 83.834 14.5 138.501zM393.001 1688h185l200 -234h-182l-109 125h-4l-106 -125h-180z" />
    <glyph glyph-name="jcircumflex" unicode="&#x135;" horiz-adv-x="514" 
d="M-57 -428l-23 190.001c80 6.66699 137.333 30 172 70c22 25.333 37.5 61.5 46.5 108.5s13.5 120.167 13.5 219.5v837h241v-903c0 -103.333 -10 -187.333 -30 -252s-52.333 -118.334 -97 -161.001c-38 -35.333 -86.167 -62 -144.5 -80s-117.833 -27.667 -178.5 -29z
M186 1413h148l190 -297h-159l-103 178h-4l-102 -178h-156z" />
    <glyph glyph-name="Kcommaaccent" unicode="&#x136;" horiz-adv-x="1101" 
d="M137 0v1380h240v-635h6c38 65.333 69.333 117.333 94 156l318 479h290l-430 -589l453 -791h-279l-344 627l-108 -140v-487h-240zM430 -463l-39 107.001c38.667 8 71.167 22.5 97.5 43.5s39.5 48.167 39.5 81.5c0 40.667 -21.667 81.334 -65 122.001l176 31
c22 -15.333 40.5 -36.333 55.5 -63s22.5 -56.667 22.5 -90c0 -72.667 -27.167 -128.334 -81.5 -167.001s-122.833 -60.334 -205.5 -65.001z" />
    <glyph glyph-name="kcommaaccent" unicode="&#x137;" horiz-adv-x="966" 
d="M367 1444v-887h4c26.667 50 49.667 89.667 69 119l219 321h283l-334 -409l375 -588h-289l-254 440l-73 -98v-342h-242v1444h242zM358 -469l-41 106.998c38.667 8 71.334 22.333 98.001 43s40 47.667 40 81c0 42 -22 83.667 -66 125l176 31c22 -16 40.5 -37.667 55.5 -65
s22.5 -57.666 22.5 -90.999c0 -72 -26.833 -127.167 -80.5 -165.5s-121.834 -60.166 -204.501 -65.499z" />
    <glyph glyph-name="kgreenlandic" unicode="&#x138;" horiz-adv-x="966" 
d="M367 997v-440h4c26.667 50 49.667 89.667 69 119l219 321h283l-334 -409l375 -588h-289l-254 440l-73 -98v-342h-242v997h242z" />
    <glyph glyph-name="Lacute" unicode="&#x139;" horiz-adv-x="929" 
d="M137 0v1380h242v-1177h508v-203h-750zM342 1694h264l-254 -240h-190z" />
    <glyph glyph-name="lacute" unicode="&#x13a;" horiz-adv-x="497" 
d="M125 0v1444h242v-1444h-242zM297 1745h264l-254 -240h-190z" />
    <glyph glyph-name="Lcommaaccent" unicode="&#x13b;" horiz-adv-x="929" 
d="M137 0v1380h242v-1177h508v-203h-750zM346 -467l-39 107c38.667 8 71.167 22.333 97.5 43s39.5 47.667 39.5 81c0 41.333 -21.667 82.333 -65 123l176 31c22 -15.333 40.5 -36.5 55.5 -63.5s22.5 -57.167 22.5 -90.5c0 -72.667 -27.167 -128.167 -81.5 -166.5
s-122.833 -59.833 -205.5 -64.5z" />
    <glyph glyph-name="lcommaaccent" unicode="&#x13c;" horiz-adv-x="497" 
d="M125 0v1444h242v-1444h-242zM106 -469l-39.999 106.998c38.667 8 71.167 22.333 97.5 43s39.5 47.667 39.5 81c0 42 -22 83.667 -66 125l176 31c22 -16 40.5 -37.667 55.5 -65s22.5 -57.666 22.5 -90.999c0 -72 -26.833 -127.167 -80.5 -165.5
s-121.834 -60.166 -204.501 -65.499z" />
    <glyph glyph-name="Lcaron" unicode="&#x13d;" horiz-adv-x="929" 
d="M137 0v1380h242v-1177h510v-203h-752zM535 1014l-39 106c38.667 8 71.167 22.5 97.5 43.5s39.5 48.167 39.5 81.5c0 40.667 -22 81.667 -66 123l176 31c22 -15.333 40.5 -36.5 55.5 -63.5s22.5 -57.167 22.5 -90.5c0 -72.667 -27 -128.167 -81 -166.5
s-122.333 -59.833 -205 -64.5z" />
    <glyph glyph-name="lcaron" unicode="&#x13e;" horiz-adv-x="514" 
d="M125 0v1444h242v-1444h-242zM553 1034l-107 67.999c42.667 64.667 64 128.667 64 192c0 52 -17.667 98 -53 138l159 28c18 -14 33.833 -35 47.5 -63s20.5 -58.667 20.5 -92c0 -103.333 -43.667 -193.666 -131 -270.999z" />
    <glyph glyph-name="Ldot" unicode="&#x13f;" horiz-adv-x="929" 
d="M137 0v1380h242v-1177h510v-203h-752zM690 641h-2c-32.667 0 -60.667 12.167 -84 36.5s-35 52.5 -35 84.5c0 33.333 11.667 61.833 35 85.5s52 35.5 86 35.5c32.667 0 60.334 -11.833 83.001 -35.5s34 -52.167 34 -85.5c0 -32 -11.333 -60.167 -34 -84.5
s-50.334 -36.5 -83.001 -36.5z" />
    <glyph glyph-name="ldot" unicode="&#x140;" horiz-adv-x="626" 
d="M125 0v1444h242v-1444h-242zM563 696h-2c-30.667 0 -56.667 11.667 -78 35s-32 52 -32 86s10.833 62.333 32.5 85s48.167 34 79.5 34c30.667 0 56.5 -11.333 77.5 -34s31.5 -51 31.5 -85s-10.333 -62.667 -31 -86s-46.667 -35 -78 -35z" />
    <glyph glyph-name="Lslash" unicode="&#x141;" horiz-adv-x="940" 
d="M897 0h-750v508l-153 -113v183l153 114v688h242v-522l246 182v-184l-246 -182v-471h508v-203z" />
    <glyph glyph-name="lslash" unicode="&#x142;" horiz-adv-x="514" 
d="M377 0h-242v543l-131 -113v186l131 113v715h242v-541l137 119v-186l-137 -119v-717z" />
    <glyph glyph-name="Nacute" unicode="&#x143;" horiz-adv-x="1271" 
d="M358 0l-221 -0.000976562v1380h262l320 -592c82.667 -151.333 153.667 -302.666 213 -453.999h4c-15.333 199.333 -23 397.333 -23 594v452h222v-1380h-244l-322 602c-91.333 168 -164.333 323 -219 465h-6c9.33301 -162.667 14 -364.667 14 -606v-461zM694 1694h267
l-256 -240h-191z" />
    <glyph glyph-name="nacute" unicode="&#x144;" horiz-adv-x="1085" 
d="M125 0l0.000976562 705.002c0 77.333 -2.66699 174.666 -8 291.999h211l12 -139h4c25.333 44 63.833 81.667 115.5 113s111.5 47 179.5 47c92.667 0 169.834 -33.833 231.501 -101.5s92.5 -169.834 92.5 -306.501v-610h-242v584c0 71.333 -13.333 128.333 -40 171
s-69.334 64 -128.001 64c-42.667 0 -79.334 -13 -110.001 -39s-52 -59.333 -64 -100c-8 -22.667 -12 -50.667 -12 -84v-596h-242zM600.001 1421h234l-238 -297h-166z" />
    <glyph glyph-name="Ncommaaccent" unicode="&#x145;" horiz-adv-x="1271" 
d="M358 0h-221v1380h262l320 -592c77.333 -138.667 148.333 -290 213 -454h4c-15.333 199.333 -23 397.333 -23 594v452h222v-1380h-244l-322 602c-91.333 168 -164.333 323 -219 465h-6c9.33301 -162.667 14 -364.667 14 -606v-461zM506 -463l-39 107.002
c38 8 70.333 22.667 97 44s40 48.333 40 81c0 40 -21.667 81.667 -65 125l176 28c22 -15.333 40.5 -36.333 55.5 -63s22.5 -56.667 22.5 -90c0 -72.667 -27.167 -128.334 -81.5 -167.001s-122.833 -60.334 -205.5 -65.001z" />
    <glyph glyph-name="ncommaaccent" unicode="&#x146;" horiz-adv-x="1085" 
d="M125 0l0.000976562 705.002c0 77.333 -2.66699 174.666 -8 291.999h211l12 -139h4c25.333 44 63.833 81.667 115.5 113s111.5 47 179.5 47c92.667 0 169.834 -33.833 231.501 -101.5s92.5 -169.834 92.5 -306.501v-610h-242v584c0 71.333 -13.333 128.333 -40 171
s-69.334 64 -128.001 64c-42.667 0 -79.334 -13 -110.001 -39s-52 -59.333 -64 -100c-8 -22.667 -12 -50.667 -12 -84v-596h-242zM418.001 -464.998l-39 107c38.667 8 71.167 22.5 97.5 43.5s39.5 48.167 39.5 81.5c0 39.333 -21.667 80.666 -65 123.999l176 29
c22 -15.333 40.5 -36.333 55.5 -63s22.5 -56.667 22.5 -90c0 -49.333 -13.667 -91.333 -41 -126s-61.833 -60.167 -103.5 -76.5s-89.167 -26.166 -142.5 -29.499z" />
    <glyph glyph-name="Ncaron" unicode="&#x147;" horiz-adv-x="1271" 
d="M358 0l-221 -0.000976562v1380h262l320 -592c82.667 -151.333 153.667 -302.666 213 -453.999h4c-15.333 199.333 -23 397.333 -23 594v452h222v-1380h-244l-322 602c-91.333 168 -164.333 323 -219 465h-6c9.33301 -162.667 14 -364.667 14 -606v-461zM733 1450h-186
l-201 233h184l109 -127h4l107 127h180z" />
    <glyph glyph-name="ncaron" unicode="&#x148;" horiz-adv-x="1085" 
d="M125 0l0.000976562 705.002c0 77.333 -2.66699 174.666 -8 291.999h211l12 -139h4c25.333 44 63.833 81.667 115.5 113s111.5 47 179.5 47c92.667 0 169.834 -33.833 231.501 -101.5s92.5 -169.834 92.5 -306.501v-610h-242v584c0 71.333 -13.333 128.333 -40 171
s-69.334 64 -128.001 64c-42.667 0 -79.334 -13 -110.001 -39s-52 -59.333 -64 -100c-8 -22.667 -12 -50.667 -12 -84v-596h-242zM627.001 1124h-168l-191 297h168l105 -180h4l104 180h168z" />
    <glyph glyph-name="napostrophe" unicode="&#x149;" horiz-adv-x="1085" 
d="M125 0l0.000976562 705.002c0 77.333 -2.66699 174.666 -8 291.999h211l12 -139h4c25.333 44 63.833 81.667 115.5 113s111.5 47 179.5 47c92.667 0 169.834 -33.833 231.501 -101.5s92.5 -169.834 92.5 -306.501v-610h-242v584c0 71.333 -13.333 128.333 -40 171
s-69.334 64 -128.001 64c-42.667 0 -79.334 -13 -110.001 -39s-52 -59.333 -64 -100c-8 -22.667 -12 -50.667 -12 -84v-596h-242zM127.001 1081l-107.001 67.998c44 57.333 66 114 66 170c0 46.667 -17.667 86.334 -53 119.001l164 37
c18.667 -11.333 34.834 -30.166 48.501 -56.499s20.5 -56.833 20.5 -91.5c0 -91.333 -46.333 -173.333 -139 -246z" />
    <glyph glyph-name="Eng" unicode="&#x14a;" horiz-adv-x="1271" 
d="M358 0l-221 -0.000976562v1380h262l320 -592c82.667 -151.333 153.667 -302.666 213 -453.999h4c-15.333 199.333 -23 397.333 -23 594v452h222v-1302c0 -294 -133.333 -460 -400 -498l-55 184c70 16.667 123.167 42.167 159.5 76.5s57.5 79.833 63.5 136.5l-334 625
c-91.333 168 -164.333 323 -219 465h-6c9.33301 -162.667 14 -364.667 14 -606v-461z" />
    <glyph glyph-name="eng" unicode="&#x14b;" horiz-adv-x="1085" 
d="M125 0l0.000976562 705c0 77.333 -2.66699 174.666 -8 291.999h211l12 -139h4c25.333 44 63.833 81.667 115.5 113s111.5 47 179.5 47c92.667 0 169.834 -33.833 231.501 -101.5s92.5 -169.834 92.5 -306.501v-504c0 -79.333 -9.66699 -149.166 -29 -209.499
s-46.833 -109.333 -82.5 -147s-75.5 -67 -119.5 -88s-94 -35.167 -150 -42.5l-50 188c64 14 111.5 41.833 142.5 83.5s46.5 102.834 46.5 183.501v510c0 71.333 -13.333 128.333 -40 171s-69.334 64 -128.001 64c-42.667 0 -79.334 -13 -110.001 -39s-52 -59.333 -64 -100
c-8 -22.667 -12 -50.667 -12 -84v-596h-242z" />
    <glyph glyph-name="Omacron" unicode="&#x14c;" horiz-adv-x="1296" 
d="M639 -20l-2.00098 0.000976562c-116 0 -217.5 30.333 -304.5 91s-152.833 144 -197.5 250s-67 227 -67 363c0 139.333 24.167 263.166 72.5 371.499s117.333 193 207 254s192.834 91.5 309.501 91.5c119.333 0 222.666 -31.167 309.999 -93.5s152.5 -145.5 195.5 -249.5
s64.5 -221.667 64.5 -353c0 -117.333 -14.667 -222.333 -44 -315s-70.333 -168.667 -123 -228s-114.667 -104.5 -186 -135.5s-149.666 -46.5 -234.999 -46.5zM646.999 178.001l1.99902 0.00292969c68.667 0 127.834 23.667 177.501 71s86.5 109.5 110.5 186.5
s36 163.833 36 260.5c0 65.333 -6.66699 127.666 -20 186.999s-32.833 113.166 -58.5 161.499s-59.667 86.666 -102 114.999s-90.166 42.5 -143.499 42.5c-70.667 0 -131.334 -24.5 -182.001 -73.5s-87.5 -111.333 -110.5 -187s-34.5 -160.167 -34.5 -253.5
c-0.666992 -92.667 11 -177 35 -253s61.167 -137.833 111.5 -185.5s109.833 -71.5 178.5 -71.5zM398.998 1649h500v-142h-500v142z" />
    <glyph glyph-name="omacron" unicode="&#x14d;" horiz-adv-x="1060" 
d="M528 -20h-2.00098c-133.333 0 -242.666 45.833 -327.999 137.5s-128 217.167 -128 376.5c0 164 44 292.333 132 385s200.333 139 337 139c135.333 0 244.5 -46.667 327.5 -140s124.5 -217.333 124.5 -372c0 -72.667 -9.16699 -139 -27.5 -199
s-42.5 -109.833 -72.5 -149.5s-65.167 -73.167 -105.5 -100.5s-82 -47 -125 -59s-87.167 -18 -132.5 -18zM529.999 158h2c64 0 115.167 33 153.5 99s57.5 147 57.5 243c0 40.667 -3.83301 80.167 -11.5 118.5s-19.334 74.5 -35.001 108.5s-37.667 61.333 -66 82
s-61.166 31 -98.499 31c-38 0 -71.333 -10.167 -100 -30.5s-51 -47.333 -67 -81s-28 -70 -36 -109s-12 -79.5 -12 -121.5c0 -96 19 -176.667 57 -242s90 -98 156 -98zM298.999 1335h467v-141h-467v141z" />
    <glyph glyph-name="Obreve" unicode="&#x14e;" horiz-adv-x="1296" 
d="M641 -20l-2 0.000976562c-116.667 0 -218.5 30.333 -305.5 91s-153 144 -198 250s-67.5 227 -67.5 363c0 139.333 24.167 263.166 72.5 371.499s117.5 193 207.5 254s193.667 91.5 311 91.5c89.333 0 170.333 -18 243 -54s132.5 -85.5 179.5 -148.5s83 -136.5 108 -220.5
s37.5 -175 37.5 -273c0 -117.333 -14.667 -222.333 -44 -315s-70.333 -168.667 -123 -228s-114.5 -104.5 -185.5 -135.5s-148.833 -46.5 -233.5 -46.5zM649 178.001l1.99805 0.00292969c68 0 126.833 23.667 176.5 71s86.334 109.5 110.001 186.5s35.5 163.833 35.5 260.5
c0 65.333 -6.66699 127.666 -20 186.999s-32.833 113.166 -58.5 161.499s-59.667 86.666 -102 114.999s-90.166 42.5 -143.499 42.5c-70 0 -130.333 -24.5 -181 -73.5s-87.667 -111.5 -111 -187.5s-35 -160.333 -35 -253c-0.666992 -92.667 11.166 -177 35.499 -253
s61.833 -137.833 112.5 -185.5s110.334 -71.5 179.001 -71.5zM386.998 1704h133c4.66699 -27.333 17.167 -49.833 37.5 -67.5s50.166 -26.5 89.499 -26.5c75.333 0 119 31.333 131 94h129c-1.33301 -70.667 -23.833 -127.334 -67.5 -170.001s-107.834 -64 -192.501 -64
c-85.333 0 -149.666 21.333 -192.999 64s-65.666 99.334 -66.999 170.001z" />
    <glyph glyph-name="obreve" unicode="&#x14f;" horiz-adv-x="1060" 
d="M528 -20h-2.00293c-133.333 0 -242.666 45.833 -327.999 137.5s-128 217.167 -128 376.5c0 164 44.167 292.333 132.5 385s201.166 139 338.499 139c134.667 0 243.334 -46.667 326.001 -140s124 -217.333 124 -372c0 -72.667 -9 -139 -27 -199s-42 -109.833 -72 -149.5
s-65.167 -73.167 -105.5 -100.5s-82.166 -47 -125.499 -59s-87.666 -18 -132.999 -18zM531.997 158h3c64 0 115 33 153 99s57 147 57 243c0 40.667 -3.83301 80.167 -11.5 118.5s-19.334 74.5 -35.001 108.5s-37.667 61.333 -66 82s-60.833 31 -97.5 31
c-38 0 -71.667 -10.167 -101 -30.5s-52.166 -47.333 -68.499 -81s-28.5 -70 -36.5 -109s-12 -79.5 -12 -121.5c0 -96.667 19.167 -177.5 57.5 -242.5s90.833 -97.5 157.5 -97.5zM271.997 1401h129.002c5.33301 -38.667 19 -69.5 41 -92.5s50.667 -34.5 86 -34.5
c40.667 0 72.167 12.167 94.5 36.5s34.5 54.5 36.5 90.5h129c0 -79.333 -23.167 -143.5 -69.5 -192.5s-109.833 -73.5 -190.5 -73.5c-82.667 0 -146.334 25.167 -191.001 75.5s-66.334 113.833 -65.001 190.5z" />
    <glyph glyph-name="Ohungarumlaut" unicode="&#x150;" horiz-adv-x="1296" 
d="M639 -20l-2.00098 0.000976562c-116 0 -217.5 30.333 -304.5 91s-152.833 144 -197.5 250s-67 227 -67 363c0 139.333 24.167 263.166 72.5 371.499s117.333 193 207 254s192.834 91.5 309.501 91.5c119.333 0 222.666 -31.167 309.999 -93.5s152.5 -145.5 195.5 -249.5
s64.5 -221.667 64.5 -353c0 -117.333 -14.667 -222.333 -44 -315s-70.333 -168.667 -123 -228s-114.667 -104.5 -186 -135.5s-149.666 -46.5 -234.999 -46.5zM646.999 178.001l1.99902 0.00292969c68.667 0 127.834 23.667 177.501 71s86.5 109.5 110.5 186.5
s36 163.833 36 260.5c0 65.333 -6.66699 127.666 -20 186.999s-32.833 113.166 -58.5 161.499s-59.667 86.666 -102 114.999s-90.166 42.5 -143.499 42.5c-70.667 0 -131.334 -24.5 -182.001 -73.5s-87.5 -111.333 -110.5 -187s-34.5 -160.167 -34.5 -253.5
c-0.666992 -92.667 11 -177 35 -253s61.167 -137.833 111.5 -185.5s109.833 -71.5 178.5 -71.5zM548.998 1698h231l-211 -228h-163zM871.998 1698h232l-211 -228h-164z" />
    <glyph glyph-name="ohungarumlaut" unicode="&#x151;" horiz-adv-x="1060" 
d="M528 -20h-2.00098c-133.333 0 -242.666 45.833 -327.999 137.5s-128 217.167 -128 376.5c0 164 44 292.333 132 385s200.333 139 337 139c135.333 0 244.5 -46.667 327.5 -140s124.5 -217.333 124.5 -372c0 -72.667 -9.16699 -139 -27.5 -199
s-42.5 -109.833 -72.5 -149.5s-65.167 -73.167 -105.5 -100.5s-82 -47 -125 -59s-87.167 -18 -132.5 -18zM529.999 158h2c64 0 115.167 33 153.5 99s57.5 147 57.5 243c0 40.667 -3.83301 80.167 -11.5 118.5s-19.334 74.5 -35.001 108.5s-37.667 61.333 -66 82
s-61.166 31 -98.499 31c-38 0 -71.333 -10.167 -100 -30.5s-51 -47.333 -67 -81s-28 -70 -36 -109s-12 -79.5 -12 -121.5c0 -96 19 -176.667 57 -242s90 -98 156 -98zM423.999 1421h201l-211 -291h-138zM732.999 1421h201l-211 -291h-137z" />
    <glyph glyph-name="OE" unicode="&#x152;" horiz-adv-x="1701" 
d="M1630 203l0.000976562 -203.001h-678c-8 0 -46 -3.33301 -114 -10c-48 -6.66699 -96 -10 -144 -10c-84.667 0 -161.834 12.333 -231.501 37s-128.667 58.5 -177 101.5s-89 94.167 -122 153.5s-57.167 123.333 -72.5 192s-23 141.334 -23 218.001
c0 219.333 57.667 394 173 524s269 195 461 195c54.667 0 106 -3.33301 154 -10c8 -0.666992 26 -2.66699 54 -6s48.333 -5 61 -5h631v-202h-490v-363h463v-199h-463v-413h518zM870.001 200.999l-0.000976562 975c-42 17.333 -95 26 -159 26
c-114 0 -207.333 -44.667 -280 -134s-109 -215.333 -109 -378c-0.666992 -162 35 -287.833 107 -377.5s171.333 -134.5 298 -134.5c56.667 0 104.334 7.66699 143.001 23z" />
    <glyph glyph-name="oe" unicode="&#x153;" horiz-adv-x="1634" 
d="M1565 436l-595.999 0.000976562c2.66699 -89.333 29.334 -157.333 80.001 -204s115.334 -70 194.001 -70c75.333 0 157.333 16.333 246 49l37 -164c-80.667 -44.667 -186.667 -67 -318 -67c-76 0 -144.5 16 -205.5 48s-109.833 81.333 -146.5 148h-4
c-34.667 -64.667 -82.834 -113.5 -144.501 -146.5s-128.167 -49.5 -199.5 -49.5c-126.667 0 -231.334 46.167 -314.001 138.5s-124 217.5 -124 375.5c0 161.333 42.833 289 128.5 383s194.167 141 325.5 141c72 0 137.833 -17.167 197.5 -51.5s103.834 -83.5 132.501 -147.5
h4c35.333 64.667 81.666 114 138.999 148s121 51 191 51c54 0 103 -9.33301 147 -28s80.5 -43.334 109.5 -74.001s53.167 -66.834 72.5 -108.501s33.166 -84.667 41.499 -129s12.5 -90.166 12.5 -137.499c0 -30 -2 -65 -6 -105zM532.001 840.001h-2
c-39.333 0 -73.5 -10.667 -102.5 -32s-51.167 -49.666 -66.5 -84.999s-26.5 -71.833 -33.5 -109.5s-10.5 -76.834 -10.5 -117.501c0 -95.333 18.833 -175.5 56.5 -240.5s89.834 -97.5 156.501 -97.5c68 0 120.167 32 156.5 96s54.5 146 54.5 246
c0 42.667 -3.83301 83.5 -11.5 122.5s-19.5 75.167 -35.5 108.5s-37.833 59.833 -65.5 79.5s-59.834 29.5 -96.501 29.5zM967.001 602.001l376.003 0.000976562c0.666992 30 -1.83301 58.667 -7.5 86s-14.834 53.333 -27.501 78s-31.334 44.5 -56.001 59.5
s-53.667 22.5 -87 22.5c-41.333 0 -77.333 -13.5 -108 -40.5s-52.834 -58.333 -66.501 -94s-21.5 -72.834 -23.5 -111.501z" />
    <glyph glyph-name="Racute" unicode="&#x154;" horiz-adv-x="1087" 
d="M137 0l0.000976562 1362c96.667 19.333 212 29 346 29c186 0 320 -36.333 402 -109c76 -66 114 -158.667 114 -278c0 -83.333 -22.333 -155.333 -67 -216s-102 -104.334 -172 -131.001v-6c48 -18 86.667 -49.333 116 -94s52.666 -104 69.999 -178
c48.667 -214.667 82.334 -341 101.001 -379h-248c-20.667 42.667 -49.334 152.667 -86.001 330c-18 88 -44.333 149.5 -79 184.5s-85.667 53.167 -153 54.5h-104v-569h-240zM377.001 1194l0.000976562 -445.999h123c79.333 0 142.166 21.333 188.499 64s69.5 99 69.5 169
c0 73.333 -21.5 129.166 -64.5 167.499s-104.167 57.5 -183.5 57.5c-66 0 -110.333 -4 -133 -12zM582.002 1696h266l-256 -240h-191z" />
    <glyph glyph-name="racute" unicode="&#x155;" horiz-adv-x="677" 
d="M125 0l0.00292969 687.999c0 88.667 -2.66699 191.667 -8 309h209l10 -178h8c21.333 62 55.5 110.667 102.5 146s96.167 53 147.5 53c15.333 0 33.666 -1.33301 54.999 -4v-234c-18 4 -39.667 6 -65 6c-52.667 0 -97.834 -16.5 -135.501 -49.5
s-62.834 -77.833 -75.501 -134.5c-4 -23.333 -6 -50.666 -6 -81.999v-520h-242zM414.003 1421h233l-237 -297h-164z" />
    <glyph glyph-name="Rcommaaccent" unicode="&#x156;" horiz-adv-x="1087" 
d="M137 0l0.000976562 1362c96.667 19.333 212 29 346 29c186 0 320 -36.333 402 -109c76 -66 114 -158.667 114 -278c0 -83.333 -22.333 -155.333 -67 -216s-102 -104.334 -172 -131.001v-6c48 -18 86.667 -49.333 116 -94s52.666 -104 69.999 -178
c48.667 -214.667 82.334 -341 101.001 -379h-248c-20.667 42.667 -49.334 152.667 -86.001 330c-18 88 -44.333 149.5 -79 184.5s-85.667 53.167 -153 54.5h-104v-569h-240zM377.001 1194l0.000976562 -446.001h123c79.333 0 142.166 21.333 188.499 64s69.5 99 69.5 169
c0 72.667 -21.667 128.334 -65 167.001s-104.333 58 -183 58c-66 0 -110.333 -4 -133 -12zM418.002 -459l-41 107.002c39.333 8 72.333 22.5 99 43.5s40 48.167 40 81.5c0 41.333 -21.667 82.333 -65 123l176 30c22 -15.333 40.5 -36.333 55.5 -63s22.5 -56.667 22.5 -90
c0 -72.667 -27.167 -128.334 -81.5 -167.001s-122.833 -60.334 -205.5 -65.001z" />
    <glyph glyph-name="rcommaaccent" unicode="&#x157;" horiz-adv-x="677" 
d="M125 0l0.00292969 687.999c0 88.667 -2.66699 191.667 -8 309h209l10 -178h8c21.333 62 55.5 110.667 102.5 146s96.167 53 147.5 53c15.333 0 33.666 -1.33301 54.999 -4v-234c-18 4 -39.667 6 -65 6c-52.667 0 -97.834 -16.5 -135.501 -49.5
s-62.834 -77.833 -75.501 -134.5c-4 -23.333 -6 -50.666 -6 -81.999v-520h-242zM129.003 -469.001l-40.999 106.997c38.667 8 71.167 22.333 97.5 43s39.5 47.667 39.5 81c0 42.667 -21.667 84.334 -65 125.001l176 31c22 -16 40.5 -37.667 55.5 -65
s22.5 -57.666 22.5 -90.999c0 -72 -26.833 -127.167 -80.5 -165.5s-121.834 -60.166 -204.501 -65.499z" />
    <glyph glyph-name="Rcaron" unicode="&#x158;" horiz-adv-x="1087" 
d="M137 0l0.000976562 1362c96.667 19.333 212 29 346 29c186 0 320 -36.333 402 -109c76 -66 114 -158.667 114 -278c0 -83.333 -22.333 -155.333 -67 -216s-102 -104.334 -172 -131.001v-6c48 -18 86.667 -49.333 116 -94s52.666 -104 69.999 -178
c48.667 -214.667 82.334 -341 101.001 -379h-248c-20.667 42.667 -49.334 152.667 -86.001 330c-18 88 -44.333 149.5 -79 184.5s-85.667 53.167 -153 54.5h-104v-569h-240zM377.001 1194l0.000976562 -445.999h123c79.333 0 142.166 21.333 188.499 64s69.5 99 69.5 169
c0 73.333 -21.5 129.166 -64.5 167.499s-104.167 57.5 -183.5 57.5c-66 0 -110.333 -4 -133 -12zM629.002 1456h-189l-198 234h182l108 -127h5l108 127h180z" />
    <glyph glyph-name="rcaron" unicode="&#x159;" horiz-adv-x="677" 
d="M125 0l0.00292969 687.999c0 88.667 -2.66699 191.667 -8 309h209l10 -178h8c21.333 62 55.5 110.667 102.5 146s96.167 53 147.5 53c15.333 0 33.666 -1.33301 54.999 -4v-234c-18 4 -39.667 6 -65 6c-52.667 0 -97.834 -16.5 -135.501 -49.5
s-62.834 -77.833 -75.501 -134.5c-4 -23.333 -6 -50.666 -6 -81.999v-520h-242zM449.003 1124h-168l-191 297h168l104 -180h5l104 180h168z" />
    <glyph glyph-name="Sacute" unicode="&#x15a;" horiz-adv-x="976" 
d="M76 59l48.9971 202.999c38 -22.667 83.5 -41.334 136.5 -56.001s106.5 -22 160.5 -22c76 0 135 17.167 177 51.5s63 80.166 63 137.499c0 51.333 -17.667 94.5 -53 129.5s-93.666 70.167 -174.999 105.5c-225.333 94.667 -338 227.334 -338 398.001
c0 113.333 41.833 207.166 125.5 281.499s196.167 111.5 337.5 111.5c116.667 0 214.334 -20.667 293.001 -62l-53 -200c-74 39.333 -156 59 -246 59c-70 0 -123.333 -16.333 -160 -49s-55 -71.667 -55 -117c0 -50.667 18 -91.667 54 -123s100 -67.333 192 -108
c110 -49.333 191 -106.666 243 -171.999s78 -143.333 78 -234c0 -58 -10.667 -111.667 -32 -161s-52.166 -92.666 -92.499 -129.999s-92.333 -66.666 -156 -87.999s-135.167 -32 -214.5 -32c-63.333 0 -126 7.66699 -188 23s-110.667 33.333 -146 54zM564.997 1696h264
l-254 -240h-192z" />
    <glyph glyph-name="sacute" unicode="&#x15b;" horiz-adv-x="788" 
d="M66 47l46.999 176c28.667 -17.333 64.167 -32.5 106.5 -45.5s83.166 -19.5 122.499 -19.5c48.667 0 85.834 10 111.501 30s38.5 47.333 38.5 82c0 33.333 -11 60.833 -33 82.5s-61.667 44.167 -119 67.5c-168 69.333 -252 166.333 -252 291c0 88.667 32.667 162 98 220
s151.333 87 258 87c94 0 174.667 -19 242 -57l-49 -173c-59.333 36 -122 54 -188 54c-41.333 0 -73.666 -9.83301 -96.999 -29.5s-35 -44.834 -35 -75.501c0 -30 11.333 -54.667 34 -74s64 -41.666 124 -66.999c84.667 -35.333 147.167 -77.333 187.5 -126
s60.5 -107.667 60.5 -177c0 -95.333 -33.833 -171 -101.5 -227s-161.5 -84 -281.5 -84c-52.667 0 -103.5 5.83301 -152.5 17.5s-89.5 27.5 -121.5 47.5zM464.999 1421h233l-237 -297h-164z" />
    <glyph glyph-name="Scircumflex" unicode="&#x15c;" horiz-adv-x="976" 
d="M76 59l48.9971 202.999c38 -22.667 83.5 -41.334 136.5 -56.001s106.5 -22 160.5 -22c76 0 135 17.167 177 51.5s63 80.166 63 137.499c0 51.333 -17.667 94.5 -53 129.5s-93.666 70.167 -174.999 105.5c-225.333 94.667 -338 227.334 -338 398.001
c0 113.333 41.833 207.166 125.5 281.499s196.167 111.5 337.5 111.5c116.667 0 214.334 -20.667 293.001 -62l-53 -200c-74 39.333 -156 59 -246 59c-70 0 -123.333 -16.333 -160 -49s-55 -71.667 -55 -117c0 -50.667 18 -91.667 54 -123s100 -67.333 192 -108
c110 -49.333 191 -106.666 243 -171.999s78 -143.333 78 -234c0 -58 -10.667 -111.667 -32 -161s-52.166 -92.666 -92.499 -129.999s-92.333 -66.666 -156 -87.999s-135.167 -32 -214.5 -32c-63.333 0 -126 7.66699 -188 23s-110.667 33.333 -146 54zM402.997 1692h187
l201 -234h-183l-110 125h-4l-109 -125h-178z" />
    <glyph glyph-name="scircumflex" unicode="&#x15d;" horiz-adv-x="788" 
d="M66 47l46.999 176c28.667 -17.333 64.167 -32.5 106.5 -45.5s83.166 -19.5 122.499 -19.5c48.667 0 85.834 10 111.501 30s38.5 47.333 38.5 82c0 33.333 -11 60.833 -33 82.5s-61.667 44.167 -119 67.5c-168 69.333 -252 166.333 -252 291c0 88.667 32.667 162 98 220
s151.333 87 258 87c94 0 174.667 -19 242 -57l-49 -173c-59.333 36 -122 54 -188 54c-41.333 0 -73.666 -9.83301 -96.999 -29.5s-35 -44.834 -35 -75.501c0 -30 11.333 -54.667 34 -74s64 -41.666 124 -66.999c84.667 -35.333 147.167 -77.333 187.5 -126
s60.5 -107.667 60.5 -177c0 -95.333 -33.833 -171 -101.5 -227s-161.5 -84 -281.5 -84c-52.667 0 -103.5 5.83301 -152.5 17.5s-89.5 27.5 -121.5 47.5zM314.999 1421h166l191 -297h-168l-105 181h-4l-102 -181h-166z" />
    <glyph glyph-name="Scedilla" unicode="&#x15e;" horiz-adv-x="976" 
d="M76 59l48.999 203.004c38 -22.667 83.5 -41.334 136.5 -56.001s106.5 -22 160.5 -22c76 0 135 17.167 177 51.5s63 80.166 63 137.499c0 51.333 -17.667 94.5 -53 129.5s-93.666 70.167 -174.999 105.5c-225.333 94.667 -338 227.334 -338 398.001
c0 113.333 41.833 207.166 125.5 281.499s196.167 111.5 337.5 111.5c116.667 0 214.334 -20.667 293.001 -62l-53 -200c-74 39.333 -156 59 -246 59c-70 0 -123.333 -16.333 -160 -49s-55 -71.667 -55 -117c0 -50 17.833 -90.833 53.5 -122.5
s99.167 -67.834 190.5 -108.501c110.667 -49.333 192.167 -106.666 244.5 -171.999s78.5 -143.333 78.5 -234c0 -98 -30.167 -183 -90.5 -255s-146.833 -119.333 -259.5 -142l-51 -90c40 -6 73.833 -22.5 101.5 -49.5s41.5 -59.833 41.5 -98.5c0 -40 -11 -73.333 -33 -100
s-49.333 -45.334 -82 -56.001s-69.334 -16 -110.001 -16c-58 0 -108.667 12.333 -152 37l35 103c38 -20.667 75 -31 111 -31c21.333 0 39.333 4.66699 54 14s22 23.666 22 42.999c0 44 -51.333 71.333 -154 82l76 148h-11c-56.667 0 -116.167 7.33301 -178.5 22
s-111.833 33 -148.5 55z" />
    <glyph glyph-name="scedilla" unicode="&#x15f;" horiz-adv-x="788" 
d="M66 47l47.001 175.999c28.667 -17.333 64.167 -32.5 106.5 -45.5s83.166 -19.5 122.499 -19.5c48.667 0 85.834 10 111.501 30s38.5 47.333 38.5 82c0 33.333 -11 60.833 -33 82.5s-61.667 44.167 -119 67.5c-168 69.333 -252 166.333 -252 291
c0 88.667 32.5 162 97.5 220s150.5 87 256.5 87c95.333 0 176.666 -19 243.999 -57l-49 -173c-59.333 36 -122 54 -188 54c-41.333 0 -73.666 -9.83301 -96.999 -29.5s-35 -44.834 -35 -75.501c0 -30 11.333 -54.667 34 -74s64 -41.666 124 -66.999
c84.667 -35.333 147.167 -77.333 187.5 -126s60.5 -107.667 60.5 -177c0 -77.333 -22.833 -142.166 -68.5 -194.499s-110.834 -87.166 -195.501 -104.499l-49 -90c38.667 -5.33301 72.167 -21.333 100.5 -48s42.5 -59.334 42.5 -98.001
c0 -59.333 -21.333 -102.833 -64 -130.5s-97 -41.5 -163 -41.5c-60 0 -110 12.333 -150 37l37 103c38 -20.667 74.333 -31 109 -31c50 0 75 19 75 57c0 45.333 -51 72 -153 80l75 150h-6c-35.333 0 -75.833 5.5 -121.5 16.5s-87.5 27.167 -125.5 48.5z" />
    <glyph glyph-name="Scaron" unicode="&#x160;" horiz-adv-x="976" 
d="M76 59l48.9971 202.999c38 -22.667 83.5 -41.334 136.5 -56.001s106.5 -22 160.5 -22c76 0 135 17.167 177 51.5s63 80.166 63 137.499c0 51.333 -17.667 94.5 -53 129.5s-93.666 70.167 -174.999 105.5c-225.333 94.667 -338 227.334 -338 398.001
c0 113.333 41.833 207.166 125.5 281.499s196.167 111.5 337.5 111.5c116.667 0 214.334 -20.667 293.001 -62l-53 -200c-74 39.333 -156 59 -246 59c-70 0 -123.333 -16.333 -160 -49s-55 -71.667 -55 -117c0 -50.667 18 -91.667 54 -123s100 -67.333 192 -108
c110 -49.333 191 -106.666 243 -171.999s78 -143.333 78 -234c0 -58 -10.667 -111.667 -32 -161s-52.166 -92.666 -92.499 -129.999s-92.333 -66.666 -156 -87.999s-135.167 -32 -214.5 -32c-63.333 0 -126 7.66699 -188 23s-110.667 33.333 -146 54zM607.997 1456h-188
l-199 234h182l109 -127h4l109 127h180z" />
    <glyph glyph-name="scaron" unicode="&#x161;" horiz-adv-x="788" 
d="M66 47l46.999 176c28.667 -17.333 64.167 -32.5 106.5 -45.5s83.166 -19.5 122.499 -19.5c48.667 0 85.834 10 111.501 30s38.5 47.333 38.5 82c0 33.333 -11 60.833 -33 82.5s-61.667 44.167 -119 67.5c-168 69.333 -252 166.333 -252 291c0 88.667 32.667 162 98 220
s151.333 87 258 87c94 0 174.667 -19 242 -57l-49 -173c-59.333 36 -122 54 -188 54c-41.333 0 -73.666 -9.83301 -96.999 -29.5s-35 -44.834 -35 -75.501c0 -30 11.333 -54.667 34 -74s64 -41.666 124 -66.999c84.667 -35.333 147.167 -77.333 187.5 -126
s60.5 -107.667 60.5 -177c0 -95.333 -33.833 -171 -101.5 -227s-161.5 -84 -281.5 -84c-52.667 0 -103.5 5.83301 -152.5 17.5s-89.5 27.5 -121.5 47.5zM484.999 1124h-168l-190 297h168l104 -180h4l105 180h166z" />
    <glyph glyph-name="Tcommaaccent" unicode="&#x162;" horiz-adv-x="983" 
d="M369 0v1171h-351v209h945v-209h-353v-1171h-241zM346 -467l-41 107c38.667 8 71.167 22.333 97.5 43s39.5 47.667 39.5 81c0 41.333 -21.667 82.333 -65 123l176 31c22 -15.333 40.5 -36.5 55.5 -63.5s22.5 -57.167 22.5 -90.5c0 -72.667 -27 -128.167 -81 -166.5
s-122 -59.833 -204 -64.5z" />
    <glyph glyph-name="tcommaaccent" unicode="&#x163;" horiz-adv-x="677" 
d="M168 1180l237.999 71.001v-254h227v-178h-227v-465c0 -60.667 9.5 -104.834 28.5 -132.501s49.5 -41.5 91.5 -41.5c37.333 0 67.333 3.33301 90 10l5 -186c-45.333 -14.667 -102.666 -22 -171.999 -22c-89.333 0 -157 25 -203 75c-52 54 -78 146.333 -78 277v485h-135
v178h135v183zM235.999 -472.999l-41 105.998c38.667 8 71.167 22.5 97.5 43.5s39.5 48.167 39.5 81.5c0 39.333 -22 81 -66 125l176 31c22 -16 40.5 -37.667 55.5 -65s22.5 -57.666 22.5 -90.999c0 -72 -26.667 -127.167 -80 -165.5s-121.333 -60.166 -204 -65.499z" />
    <glyph glyph-name="Tcaron" unicode="&#x164;" horiz-adv-x="983" 
d="M369 0v1171h-351v209h945v-209h-353v-1171h-241zM584 1454h-185l-200 234h182l108 -127h5l108 127h178z" />
    <glyph glyph-name="tcaron" unicode="&#x165;" horiz-adv-x="692" 
d="M168 1180l238 69.001v-252h227v-178h-227v-465c0 -60.667 9.5 -104.834 28.5 -132.501s49.5 -41.5 91.5 -41.5c37.333 0 67.333 3.33301 90 10l5 -186c-42.667 -14.667 -100 -22 -172 -22c-89.333 0 -157 25 -203 75c-52 54 -78 146.333 -78 277v485h-135v178h135v183z
M618 1104l-75.001 84.001c18.667 14.667 34.834 35.667 48.501 63s20.5 56.666 20.5 87.999c0 45.333 -16.333 84.333 -49 117l164 29c18 -12.667 33.833 -31.667 47.5 -57s20.5 -52.666 20.5 -81.999c0 -32.667 -6.16699 -63.334 -18.5 -92.001
s-28.5 -52.834 -48.5 -72.501s-39 -35.667 -57 -48s-35.667 -22.166 -53 -29.499z" />
    <glyph glyph-name="Tbar" unicode="&#x166;" horiz-adv-x="983" 
d="M963 1171h-353v-391h221v-153h-221v-627h-241v627h-222v153h222v391h-351v209h945v-209z" />
    <glyph glyph-name="tbar" unicode="&#x167;" horiz-adv-x="677" 
d="M631 819h-225.002v-186h174v-139h-174v-150c0 -57.333 9.83301 -99 29.5 -125s49.834 -39 90.501 -39c36 0 65.333 3.33301 88 10l7 -186c-45.333 -14.667 -102.666 -22 -171.999 -22c-89.333 0 -157 25 -203 75c-52 54 -78 146.333 -78 277v160h-127v139h127v186h-135
v178h135v183l238 71v-254h225v-178z" />
    <glyph glyph-name="Utilde" unicode="&#x168;" horiz-adv-x="1249" 
d="M135 1380h244v-837c0 -123.333 21.667 -215 65 -275s103 -90 179 -90c167.333 0 251 121.667 251 365v837h242v-815c0 -196 -44 -342.5 -132 -439.5s-210.667 -145.5 -368 -145.5c-154 0 -272.667 47.5 -356 142.5s-125 241.167 -125 438.5v819zM483 1466h-117.997
c-2 71.333 10.333 127.5 37 168.5s62.667 61.5 108 61.5c15.333 0 30.666 -2.16699 45.999 -6.5s27 -8.5 35 -12.5l38 -20c3.33301 -2 9.5 -5.5 18.5 -10.5s15.5 -8.5 19.5 -10.5s9.5 -4.5 16.5 -7.5s13.333 -5.16699 19 -6.5s11.167 -2 16.5 -2c16 0 28.167 6 36.5 18
s13.833 33.333 16.5 64h115c4 -150 -44.667 -225 -146 -225c-37.333 0 -78.333 12 -123 36l-16 9.5c-7.33301 4.33301 -12.666 7.33301 -15.999 9l-13.5 7c-5.66699 3 -10.334 5.16699 -14.001 6.5s-7.83398 2.5 -12.501 3.5s-9.33398 1.5 -14.001 1.5
c-28.667 0 -45 -28 -49 -84z" />
    <glyph glyph-name="utilde" unicode="&#x169;" horiz-adv-x="1077" 
d="M950 997l0.000976562 -699.998c0 -88.667 2.66699 -187.667 8 -297h-210l-13 137h-4c-26.667 -42.667 -64.334 -79.5 -113.001 -110.5s-108 -46.5 -178 -46.5c-97.333 0 -174.833 34.167 -232.5 102.5s-86.5 175.166 -86.5 320.499v594h241v-557
c0 -174.667 54.667 -262 164 -262c42 0 77.333 12.167 106 36.5s50 53.166 64 86.499c8.66699 24.667 13 52 13 82v614h241zM395.001 1149l-119.002 -0.00292969c-2 72.667 10.5 130.334 37.5 173.001s64.5 64 112.5 64c30 0 71 -13.333 123 -40
c4 -2 11.5 -6.16699 22.5 -12.5s18.833 -10.666 23.5 -12.999s10.834 -4.83301 18.501 -7.5s14.834 -4 21.501 -4c16.667 0 28.834 5.83301 36.501 17.5s12.5 33.834 14.5 66.501h117c2 -153.333 -48 -230 -150 -230c-31.333 0 -73.666 13.667 -126.999 41
c-4 2 -10.333 5.66699 -19 11s-14.667 8.83301 -18 10.5l-13.5 6.5c-5.66699 2.66699 -10.834 4.5 -15.501 5.5s-9.33398 1.5 -14.001 1.5c-30 0 -47 -30 -51 -90z" />
    <glyph glyph-name="Umacron" unicode="&#x16a;" horiz-adv-x="1249" 
d="M135 1380h242v-837c0 -123.333 22 -215 66 -275s104 -90 180 -90c167.333 0 251 121.667 251 365v837h242v-815c0 -196 -44 -342.5 -132 -439.5s-210.667 -145.5 -368 -145.5c-154 0 -272.667 47.5 -356 142.5s-125 241.167 -125 438.5v819zM377 1645h500v-142h-500v142z
" />
    <glyph glyph-name="umacron" unicode="&#x16b;" horiz-adv-x="1077" 
d="M950 997v-699.998c0 -88.667 2.66699 -187.667 8 -297h-210l-13 137h-4c-25.333 -42 -62.5 -78.667 -111.5 -110s-108.833 -47 -179.5 -47c-97.333 0 -174.833 34.167 -232.5 102.5s-86.5 175.166 -86.5 320.499v594h241v-557c0 -174.667 54.667 -262 164 -262
c42 0 77.333 12.167 106 36.5s50 53.166 64 86.499c8.66699 24.667 13 52 13 82v614h241zM305 1335h467v-141h-467v141z" />
    <glyph glyph-name="Ubreve" unicode="&#x16c;" horiz-adv-x="1249" 
d="M135 1380h242v-837c0 -123.333 22 -215 66 -275s104 -90 180 -90c167.333 0 251 121.667 251 365v837h242v-815c0 -196 -44 -342.5 -132 -439.5s-210.667 -145.5 -368 -145.5c-154 0 -272.667 47.5 -356 142.5s-125 241.167 -125 438.5v819zM365 1694h132.998
c4.66699 -27.333 17.167 -50 37.5 -68s50.166 -27 89.499 -27c40 0 70.833 8.66699 92.5 26s34.5 40.333 38.5 69h131c-1.33301 -70.667 -24.166 -127.334 -68.499 -170.001s-108.833 -64 -193.5 -64c-85.333 0 -149.666 21.333 -192.999 64s-65.666 99.334 -66.999 170.001
z" />
    <glyph glyph-name="ubreve" unicode="&#x16d;" horiz-adv-x="1077" 
d="M950 997v-699.998c0 -88.667 2.66699 -187.667 8 -297h-210l-13 137h-4c-25.333 -42 -62.5 -78.667 -111.5 -110s-108.833 -47 -179.5 -47c-97.333 0 -174.833 34.167 -232.5 102.5s-86.5 175.166 -86.5 320.499v594h241v-557c0 -174.667 54.667 -262 164 -262
c42 0 77.333 12.167 106 36.5s50 53.166 64 86.499c8.66699 24.667 13 52 13 82v614h241zM281 1401h129.002c5.33301 -39.333 18.833 -70.333 40.5 -93s50.5 -34 86.5 -34c40.667 0 72.167 12.167 94.5 36.5s34.5 54.5 36.5 90.5h129
c1.33301 -79.333 -21.5 -143.5 -68.5 -192.5s-110.833 -73.5 -191.5 -73.5c-82.667 0 -146.334 25.167 -191.001 75.5s-66.334 113.833 -65.001 190.5z" />
    <glyph glyph-name="Uring" unicode="&#x16e;" horiz-adv-x="1249" 
d="M135 1380h242v-837c0 -123.333 22 -215 66 -275s104 -90 180 -90c80 0 141.833 29.833 185.5 89.5s65.5 151.5 65.5 275.5v837h242v-815c0 -196 -44 -342.5 -132 -439.5s-210.667 -145.5 -368 -145.5c-154 0 -272.667 47.5 -356 142.5s-125 241.167 -125 438.5v819z
M627 1796l2.00098 -0.00195312c67.333 0 119.666 -18.167 156.999 -54.5s56 -82.166 56 -137.499c0 -53.333 -19.667 -98.166 -59 -134.499s-91.333 -54.5 -156 -54.5c-66 0 -118.667 18.167 -158 54.5s-59 80.5 -59 132.5c0 54.667 19.5 100.667 58.5 138
s91.833 56 158.5 56zM625.001 1706h-1.99902c-27.333 0 -48.833 -10.333 -64.5 -31s-23.5 -45 -23.5 -73c0 -25.333 8.16699 -47.833 24.5 -67.5s38.166 -29.5 65.499 -29.5c28.667 0 51.167 9.66699 67.5 29s24.5 43.333 24.5 72c0 28 -8.16699 51.667 -24.5 71
s-38.833 29 -67.5 29z" />
    <glyph glyph-name="uring" unicode="&#x16f;" horiz-adv-x="1077" 
d="M950 997v-700.001c0 -88.667 2.66699 -187.667 8 -297h-210l-13 137h-4c-25.333 -42 -62.5 -78.667 -111.5 -110s-109.5 -47 -181.5 -47c-96 0 -172.833 34.333 -230.5 103s-86.5 175.334 -86.5 320.001v594h241v-557c0 -174.667 54.667 -262 164 -262
c42 0 77.833 12.5 107.5 37.5s50.5 53.5 62.5 85.5c10 28.667 15 56 15 82v614h239zM541 1485l2 -0.000976562c66 0 117.667 -18.167 155 -54.5s56 -83.166 56 -140.499c0 -55.333 -19.5 -100.833 -58.5 -136.5s-90.5 -53.5 -154.5 -53.5c-65.333 0 -117.833 18 -157.5 54
s-59.5 80.667 -59.5 134c0 56.667 19.333 103.667 58 141s91.667 56 159 56zM539 1397l-1.99902 -0.000976562c-28.667 0 -51.334 -10.833 -68.001 -32.5s-25 -47.167 -25 -76.5c0 -25.333 8.83301 -48.333 26.5 -69s40.5 -31 68.5 -31c30 0 53.833 10.167 71.5 30.5
s26.5 44.833 26.5 73.5s-8.5 53.334 -25.5 74.001s-41.167 31 -72.5 31z" />
    <glyph glyph-name="Uhungarumlaut" unicode="&#x170;" horiz-adv-x="1249" 
d="M135 1380h242v-837c0 -123.333 22 -215 66 -275s104 -90 180 -90c167.333 0 251 121.667 251 365v837h242v-815c0 -196 -44 -342.5 -132 -439.5s-210.667 -145.5 -368 -145.5c-154 0 -272.667 47.5 -356 142.5s-125 241.167 -125 438.5v819zM506 1696h233l-213 -228h-161
zM829 1696h232l-209 -228h-164z" />
    <glyph glyph-name="uhungarumlaut" unicode="&#x171;" horiz-adv-x="1077" 
d="M950 997v-699.998c0 -88.667 2.66699 -187.667 8 -297h-210l-13 137h-4c-25.333 -42 -62.5 -78.667 -111.5 -110s-108.833 -47 -179.5 -47c-97.333 0 -174.833 34.167 -232.5 102.5s-86.5 175.166 -86.5 320.499v594h241v-557c0 -174.667 54.667 -262 164 -262
c42 0 77.333 12.167 106 36.5s50 53.166 64 86.499c8.66699 24.667 13 52 13 82v614h241zM449 1421h202l-211 -291h-139zM760 1421h201l-211 -291h-138z" />
    <glyph glyph-name="Uogonek" unicode="&#x172;" horiz-adv-x="1249" 
d="M836 -250l32 -119.001c-50.667 -36.667 -113.334 -55 -188.001 -55c-62 0 -110.333 15.5 -145 46.5s-52 72.833 -52 125.5c0 71.333 37.667 149.333 113 234h-14c-142 6 -252 56.333 -330 151s-117 237.334 -117 428.001v819h242v-837c0 -123.333 21.833 -215 65.5 -275
s103.834 -90 180.501 -90c167.333 0 251 121.667 251 365v837h242v-815c0 -158.667 -29.667 -285 -89 -379s-143 -154.667 -251 -182c-32 -27.333 -59.5 -58.5 -82.5 -93.5s-34.5 -67.833 -34.5 -98.5c0 -25.333 8.16699 -45 24.5 -59s36.833 -21 61.5 -21
c32 0 62.333 6 91 18z" />
    <glyph glyph-name="uogonek" unicode="&#x173;" horiz-adv-x="1077" 
d="M950 997l0.000976562 -699.998c0 -100 3.66699 -199 11 -297l-68 2c-42.667 -64.667 -64 -122 -64 -172c0 -30.667 9.83301 -55.667 29.5 -75s43.5 -29 71.5 -29c37.333 0 66.666 5.33301 87.999 16l35 -119c-48 -36.667 -109 -55 -183 -55c-64 0 -114 16.833 -150 50.5
s-54 81.5 -54 143.5c0 66 27.333 146.667 82 242l-13 133h-4c-25.333 -42 -62.5 -78.667 -111.5 -110s-108.833 -47 -179.5 -47c-97.333 0 -174.833 34.167 -232.5 102.5s-86.5 175.166 -86.5 320.499v594h241v-557c0 -174.667 54.667 -262 164 -262
c42 0 77.333 12.167 106 36.5s50 53.166 64 86.499c8.66699 24.667 13 52 13 82v614h241z" />
    <glyph glyph-name="Wcircumflex" unicode="&#x174;" horiz-adv-x="1656" 
d="M596 0l-254 -0.000976562l-311 1380h256l119 -618c32.667 -177.333 59 -339.333 79 -486h7c14 108.667 45.333 271.334 94 488.001l137 616h240l127 -622c37.333 -184 64.333 -343 81 -477h5c20 141.333 48 303 84 485l126 614h244l-338 -1380h-254l-131 621
c-34 155.333 -58.333 302.666 -73 441.999h-5c-24.667 -161.333 -54 -309.666 -88 -444.999zM743 1688h185l200 -234h-182l-108 125h-4l-109 -125h-178z" />
    <glyph glyph-name="wcircumflex" unicode="&#x175;" horiz-adv-x="1437" 
d="M25 997h249l95 -452c23.333 -108 43 -214.667 59 -320h4c14 81.333 38.667 187.333 74 318l123 454h192l115 -444c37.333 -148 62 -257.333 74 -328h6c11.333 100.667 31 210 59 328l101 444h237l-295 -997h-219l-113 408c-24.667 92 -47 197 -67 315h-4
c-18.667 -111.333 -42.667 -217 -72 -317l-119 -406h-219zM637 1421h166l190 -297h-168l-104 181h-4l-103 -181h-168z" />
    <glyph glyph-name="Ycircumflex" unicode="&#x176;" horiz-adv-x="1069" 
d="M651 0h-241v567l-398 813h273l147 -348c50 -121.333 86.333 -215.333 109 -282h4c21.333 63.333 57.333 158 108 284l146 346h266l-414 -805v-575zM442 1688h187l200 -234h-184l-106 125h-4l-109 -125h-178z" />
    <glyph glyph-name="ycircumflex" unicode="&#x177;" horiz-adv-x="944" 
d="M16 997h265.001l159 -536c20.667 -72 37 -135.667 49 -191h7l23 93l24 98l139 536h252l-232 -690c-56.667 -167.333 -108.667 -298.333 -156 -393s-99 -169.667 -155 -225c-42.667 -40.667 -86.334 -72.167 -131.001 -94.5s-83.667 -35.833 -117 -40.5l-61 204
c48 12.667 95.667 38.667 143 78c52.667 40.667 93.667 92 123 154c9.33301 16.667 14 31.667 14 45s-3.33301 28.333 -10 45zM397.001 1421h166l191 -297h-168l-105 181h-4l-102 -181h-168z" />
    <glyph glyph-name="Ydieresis" unicode="&#x178;" horiz-adv-x="1069" 
d="M651 0h-241v567l-398 813h273l147 -348c50 -121.333 86.333 -215.333 109 -282h4c21.333 63.333 57.333 158 108 284l146 346h266l-414 -805v-575zM358 1460h-2c-32.667 0 -60.167 11.833 -82.5 35.5s-33.5 52.167 -33.5 85.5c0 34 11.333 62.667 34 86s50.667 35 84 35
c32.667 0 60 -11.667 82 -35s33 -52 33 -86c0 -33.333 -11 -61.833 -33 -85.5s-49.333 -35.5 -82 -35.5zM748 1460h-3.00098c-32.667 0 -60.167 11.833 -82.5 35.5s-33.5 52.167 -33.5 85.5c0 34 11.667 62.667 35 86s52 35 86 35c32.667 0 59.834 -11.667 81.501 -35
s32.5 -52 32.5 -86c0 -33.333 -11 -61.833 -33 -85.5s-49.667 -35.5 -83 -35.5z" />
    <glyph glyph-name="Zacute" unicode="&#x179;" horiz-adv-x="1042" 
d="M47 0v135l629 1036v7h-574v202h877v-149l-619 -1022v-6h625v-203h-938zM586 1696h264l-254 -242h-190z" />
    <glyph glyph-name="zacute" unicode="&#x17a;" horiz-adv-x="849" 
d="M39 0v143l346 492l127 164v4h-436v194h723v-151l-336 -481l-42 -54l-48.5 -62l-40.5 -50v-4h477v-195h-770zM496 1421h233l-237 -297h-164z" />
    <glyph glyph-name="Zdotaccent" unicode="&#x17b;" horiz-adv-x="1042" 
d="M47 0v135l629 1036v7h-574v202h877v-149l-619 -1022v-6h625v-203h-938zM535 1466h-3c-32.667 0 -60.5 12.167 -83.5 36.5s-34.5 52.5 -34.5 84.5c0 33.333 11.667 61.833 35 85.5s52 35.5 86 35.5c32.667 0 60.167 -11.833 82.5 -35.5s33.5 -52.167 33.5 -85.5
c0 -32 -11.167 -60.167 -33.5 -84.5s-49.833 -36.5 -82.5 -36.5z" />
    <glyph glyph-name="zdotaccent" unicode="&#x17c;" horiz-adv-x="849" 
d="M41 0v143l344 492l129 164v4h-438v194h725v-151l-338 -481c-62 -82 -105 -137.333 -129 -166v-4h477v-195h-770zM434 1153h-2.00098c-34 0 -62.667 12 -86 36s-35 53 -35 87c0 34.667 11.833 63.834 35.5 87.501s52.834 35.5 87.501 35.5
c33.333 0 61.166 -11.5 83.499 -34.5s33.5 -52.5 33.5 -88.5c0 -34.667 -11.167 -63.834 -33.5 -87.501s-50.166 -35.5 -83.499 -35.5z" />
    <glyph glyph-name="Zcaron" unicode="&#x17d;" horiz-adv-x="1042" 
d="M47 0v135l629 1036v7h-574v202h877v-149l-619 -1022v-6h625v-203h-938zM633 1454h-187l-198 236h182l109 -129h4l106 129h180z" />
    <glyph glyph-name="zcaron" unicode="&#x17e;" horiz-adv-x="849" 
d="M39 0v143l346 492l127 164v4h-436v194h723v-151l-336 -481l-42 -54l-48.5 -62l-40.5 -50v-4h477v-195h-770zM528 1124h-168l-190 297h168l104 -180h4l105 180h166z" />
    <glyph glyph-name="florin" unicode="&#x192;" horiz-adv-x="1019" 
d="M207 655l0.00292969 176.001h184l10 87c4.66699 40.667 11.667 79.5 21 116.5s24.333 75.5 45 115.5s45.167 74.333 73.5 103s65.166 52.334 110.499 71.001s96 28 152 28c61.333 -2 109.666 -11.667 144.999 -29l-39 -174c-28.667 10.667 -60.667 16 -96 16
c-53.333 0 -94.5 -21 -123.5 -63s-47.167 -98 -54.5 -168l-12 -103h213v-176h-232l-47 -397c-6.66699 -52.667 -15.167 -99.667 -25.5 -141s-24.833 -80.833 -43.5 -118.5s-41.167 -68.834 -67.5 -93.501s-59 -44.334 -98 -59.001s-83.833 -22 -134.5 -22
c-70.667 2 -124.334 13.667 -161.001 35l36 170c32.667 -12.667 65.667 -19 99 -19c50 0 87.5 21.5 112.5 64.5s44.167 117.833 57.5 224.5l39 356h-164z" />
    <glyph glyph-name="AEacute" unicode="&#x1fc;" horiz-adv-x="1546" 
d="M248 0h-246l549 1380h887l-2 -202h-512l37 -371h464v-199h-438l43 -405h465v-203h-674l-47 422h-366zM475 614h277l-37 367l-10.5 109.5c-5 53 -8.5 92.833 -10.5 119.5h-8c-42.667 -134 -68.667 -213.667 -78 -239zM928 1694h264l-254 -240h-190z" />
    <glyph glyph-name="aeacute" unicode="&#x1fd;" horiz-adv-x="1501" 
d="M1430 449l-593.995 0.00195312c0 -94 24.667 -165.333 74 -214s115.333 -73 198 -73c92.667 0 174.667 17 246 51l37 -166c-84 -44.667 -190.667 -67 -320 -67c-80 0 -152 16.667 -216 50s-110 80.666 -138 141.999h-6c-34 -60.667 -80.167 -107.834 -138.5 -141.501
s-126.166 -50.5 -203.499 -50.5c-94.667 0 -170 28.667 -226 86s-84 128.333 -84 213c0 117.333 49.667 207 149 269s232.666 92.333 399.999 91v37c0 16 -2.83301 32.667 -8.5 50s-15.167 35.333 -28.5 54s-33.5 34 -60.5 46s-59.167 18 -96.5 18
c-42 0 -84.5 -6.66699 -127.5 -20s-79.167 -30 -108.5 -50l-49 158c41.333 24.667 89.666 45.167 144.999 61.5s110.666 24.5 165.999 24.5c75.333 0 138.333 -15.333 189 -46s88 -74.667 112 -132h4c34 56.667 78.5 100.5 133.5 131.5s116.5 46.5 184.5 46.5
c52 0 99.167 -9.16699 141.5 -27.5s77.666 -43 105.999 -74s52.166 -67 71.499 -108s33.166 -83.5 41.499 -127.5s12.5 -89.333 12.5 -136c0 -14 -2 -46 -6 -96zM614.005 346.002l-0.000976562 138.998c-42 0.666992 -80.5 -1.66602 -115.5 -6.99902
s-68.667 -14.5 -101 -27.5s-57.833 -32.667 -76.5 -59s-28 -58.5 -28 -96.5c0 -44 13.333 -78.167 40 -102.5s59 -36.5 97 -36.5c42.667 0 79.334 11.833 110.001 35.5s52 54.834 64 93.501c6.66699 14.667 10 35 10 61zM836.004 614l373.999 -0.000976562
c1.33301 26.667 -1 53.334 -7 80.001s-15.5 52.167 -28.5 76.5s-31.667 44 -56 59s-52.5 22.5 -84.5 22.5c-42 0 -78.667 -13.5 -110 -40.5s-53.666 -58 -66.999 -93s-20.333 -69.833 -21 -104.5zM809.003 1421h235l-239 -297h-164z" />
    <glyph glyph-name="Oslashacute" unicode="&#x1fe;" horiz-adv-x="1296" 
d="M252 -106l-128.999 94.002l110 182c-110 128 -165 300.667 -165 518c0 137.333 24.167 260.166 72.5 368.499s117 192.833 206 253.5s190.5 91 304.5 91c108 0 203.667 -27.333 287 -82l100 158l138 -84l-109 -179c52 -63.333 91.667 -139.5 119 -228.5
s41 -183.5 41 -283.5c0 -116.667 -14.833 -221.334 -44.5 -314.001s-70.667 -168.5 -123 -227.5s-113.333 -103.833 -183 -134.5s-145.5 -46 -227.5 -46c-108.667 0 -204.334 28.667 -287.001 86zM371.001 397.002l457.998 735.999c-51.333 47.333 -111.333 71 -180 71
c-71.333 0 -133.166 -23.167 -185.499 -69.5s-91.166 -107.666 -116.499 -183.999s-38 -162.5 -38 -258.5c0 -102 20 -200.333 60 -295h2zM925.999 979.001l-457.001 -729.001c47.333 -49.333 106.666 -74 177.999 -74c70.667 0 131.834 22.833 183.501 68.5
s90.334 107.334 116.001 185.001s38.5 166.5 38.5 266.5c0 104.667 -18.333 199 -55 283h-4zM708.998 1704h266l-254 -240h-193z" />
    <glyph glyph-name="oslashacute" unicode="&#x1ff;" horiz-adv-x="1060" 
d="M532 1018l3 0.00195312c84 0 158.333 -20 223 -60l82 127l98 -63l-86 -137c92.667 -94.667 139 -222.334 139 -383.001c0 -71.333 -9 -136.666 -27 -195.999s-42 -108.833 -72 -148.5s-65 -73.167 -105 -100.5s-81.333 -47 -124 -59s-86.334 -18 -131.001 -18
c-86 0 -161 19 -225 57l-84 -129l-92 72l82 131c-95.333 91.333 -143 219.666 -143 384.999c0 81.333 11.833 155.333 35.5 222s56.334 121.667 98.001 165s90.5 76.666 146.5 99.999s116.667 35 182 35zM348 305.002l307.001 486c-32.667 32.667 -74.334 49 -125.001 49
c-40.667 0 -76.5 -10.5 -107.5 -31.5s-55 -49 -72 -84s-29.5 -71.5 -37.5 -109.5s-12 -77 -12 -117c0 -75.333 13.667 -139 41 -191zM715.001 682.002l-305 -475c30.667 -32.667 70.667 -49 120 -49c71.333 0 127.5 32 168.5 96s61.5 143.333 61.5 238
c0 74 -13 137.333 -39 190h-6zM586.001 1421h235l-239 -297h-164z" />
    <glyph glyph-name="Scommaaccent" unicode="&#x218;" horiz-adv-x="976" 
d="M76 59l48.998 203.001c38 -22.667 83.5 -41.334 136.5 -56.001s106.5 -22 160.5 -22c76 0 135 17.167 177 51.5s63 80.166 63 137.499c0 51.333 -17.5 94.5 -52.5 129.5s-92.833 70.167 -173.5 105.5c-226.667 94 -340 226.667 -340 398
c0 113.333 41.833 207.166 125.5 281.499s196.167 111.5 337.5 111.5c116.667 0 214.334 -20.667 293.001 -62l-53 -200c-74 39.333 -155.333 59 -244 59c-71.333 0 -125.333 -16.333 -162 -49s-55 -71.667 -55 -117c0 -50.667 18 -91.667 54 -123s100 -67.333 192 -108
c110 -49.333 191 -106.666 243 -171.999s78 -143.333 78 -234c0 -119.333 -43.167 -217.666 -129.5 -294.999s-207.5 -116 -363.5 -116c-64 0 -127.167 7.66699 -189.5 23s-111.166 33.333 -146.499 54zM351.998 -466.999l-41 107c39.333 8 72.5 22.333 99.5 43
s40.5 47.667 40.5 81c0 40.667 -22 81.667 -66 123l176 31c22 -15.333 40.5 -36.5 55.5 -63.5s22.5 -57.167 22.5 -90.5c0 -72.667 -27.167 -128.167 -81.5 -166.5s-122.833 -59.833 -205.5 -64.5z" />
    <glyph glyph-name="scommaaccent" unicode="&#x219;" horiz-adv-x="788" 
d="M66 47l47 176c28.667 -17.333 64.167 -32.5 106.5 -45.5s83.166 -19.5 122.499 -19.5c48.667 0 85.834 10 111.501 30s38.5 47.333 38.5 82c0 33.333 -11 60.833 -33 82.5s-61.667 44.167 -119 67.5c-168 69.333 -252 166.333 -252 291c0 88.667 32.5 162 97.5 220
s150.5 87 256.5 87c95.333 0 176.666 -19 243.999 -57l-49 -173c-59.333 36 -122 54 -188 54c-41.333 0 -73.666 -9.83301 -96.999 -29.5s-35 -44.834 -35 -75.501c0 -30 11.333 -54.667 34 -74s64 -41.666 124 -66.999c84.667 -35.333 147.167 -77.333 187.5 -126
s60.5 -107.667 60.5 -177c0 -95.333 -33.833 -171 -101.5 -227s-161.5 -84 -281.5 -84c-52.667 0 -103.5 5.83301 -152.5 17.5s-89.5 27.5 -121.5 47.5zM258 -469l-40.998 106.999c38.667 8 71.167 22.333 97.5 43s39.5 47.667 39.5 81c0 44 -21 85.667 -63 125l174 31
c21.333 -14.667 39.666 -36 54.999 -64s23 -58.667 23 -92c0 -72 -26.833 -127.167 -80.5 -165.5s-121.834 -60.166 -204.501 -65.499z" />
    <glyph glyph-name="uni021A" unicode="&#x21a;" horiz-adv-x="983" 
d="M369 0v1171h-351v209h945v-209h-353v-1171h-241zM346 -467l-41 107c38.667 8 71.167 22.333 97.5 43s39.5 47.667 39.5 81c0 41.333 -21.667 82.333 -65 123l176 31c22 -15.333 40.5 -36.5 55.5 -63.5s22.5 -57.167 22.5 -90.5c0 -72.667 -27 -128.167 -81 -166.5
s-122 -59.833 -204 -64.5z" />
    <glyph glyph-name="uni021B" unicode="&#x21b;" horiz-adv-x="677" 
d="M168 1180l237.999 71.001v-254h227v-178h-227v-465c0 -60.667 9.5 -104.834 28.5 -132.501s49.5 -41.5 91.5 -41.5c37.333 0 67.333 3.33301 90 10l5 -186c-45.333 -14.667 -102.666 -22 -171.999 -22c-89.333 0 -157 25 -203 75c-52 54 -78 146.333 -78 277v485h-135
v178h135v183zM235.999 -472.999l-41 105.998c38.667 8 71.167 22.5 97.5 43.5s39.5 48.167 39.5 81.5c0 39.333 -22 81 -66 125l176 31c22 -16 40.5 -37.667 55.5 -65s22.5 -57.666 22.5 -90.999c0 -72 -26.667 -127.167 -80 -165.5s-121.333 -60.166 -204 -65.499z" />
    <glyph glyph-name="circumflex" unicode="&#x2c6;" 
d="M225 1421h166l191 -297h-168l-105 181h-4l-102 -181h-168z" />
    <glyph glyph-name="caron" unicode="&#x2c7;" 
d="M391 1124h-168l-190 297h168l104 -180h4l105 180h168z" />
    <glyph glyph-name="uni02C9" unicode="&#x2c9;" 
d="M74 1335h469v-141h-469v141z" />
    <glyph glyph-name="breve" unicode="&#x2d8;" 
d="M47 1401h131.001c5.33301 -39.333 18.833 -70.333 40.5 -93s50.5 -34 86.5 -34c40.667 0 72.167 12.167 94.5 36.5s34.5 54.5 36.5 90.5h129c0 -79.333 -23.167 -143.5 -69.5 -192.5s-109.833 -73.5 -190.5 -73.5c-82.667 0 -146.334 25.167 -191.001 75.5
s-67 113.833 -67 190.5z" />
    <glyph glyph-name="dotaccent" unicode="&#x2d9;" 
d="M281 1153h-1.99902c-34 0 -62.667 12 -86 36s-35 53 -35 87c0 34.667 11.667 63.834 35 87.501s52.666 35.5 87.999 35.5c33.333 0 61 -11.5 83 -34.5s33 -52.5 33 -88.5c0 -34.667 -11 -63.834 -33 -87.501s-49.667 -35.5 -83 -35.5z" />
    <glyph glyph-name="ring" unicode="&#x2da;" horiz-adv-x="819" 
d="M412 1485l2.00098 0.000976562c64.667 0 116 -18.333 154 -55s57 -83.334 57 -140.001c0 -55.333 -19.833 -100.833 -59.5 -136.5s-90.834 -53.5 -153.501 -53.5c-65.333 0 -117.833 18 -157.5 54s-59.5 80.667 -59.5 134c0 56.667 19.333 103.667 58 141
s91.667 56 159 56zM410.001 1397l-1.99902 -0.000976562c-28.667 0 -51.334 -10.833 -68.001 -32.5s-25 -47.167 -25 -76.5c0 -25.333 8.66699 -48.333 26 -69s40.333 -31 69 -31c30 0 53.5 10 70.5 30s25.5 44.667 25.5 74c0 28.667 -8.5 53.334 -25.5 74.001
s-40.5 31 -70.5 31z" />
    <glyph glyph-name="ogonek" unicode="&#x2db;" 
d="M209 8h143c-50.667 -76.667 -76 -136.667 -76 -180c0 -29.333 9.5 -53.333 28.5 -72s43.167 -28 72.5 -28c28 0 57.333 5.33301 88 16l35 -119c-48.667 -35.333 -109.667 -53 -183 -53c-64 0 -114 16.5 -150 49.5s-54 80.5 -54 142.5c0 44 10 88 30 132s42 81.333 66 112
z" />
    <glyph glyph-name="tilde" unicode="&#x2dc;" 
d="M164 1149l-119.001 -0.00195312c-2 72.667 10.5 130.334 37.5 173.001s64.5 64 112.5 64c14.667 0 30 -2.33301 46 -7s27.833 -8.83398 35.5 -12.501s21.167 -10.5 40.5 -20.5c4 -2 11.5 -6.16699 22.5 -12.5s18.833 -10.666 23.5 -12.999s10.834 -4.83301 18.501 -7.5
s14.834 -4 21.501 -4c16.667 0 29 5.83301 37 17.5s13 33.834 15 66.501h116c2 -153.333 -47.667 -230 -149 -230c-31.333 0 -73.666 13.667 -126.999 41c-4 2 -10.333 5.66699 -19 11s-14.667 8.83301 -18 10.5l-13.5 6.5c-5.66699 2.66699 -10.834 4.5 -15.501 5.5
s-9.33398 1.5 -14.001 1.5c-30 0 -47 -30 -51 -90z" />
    <glyph glyph-name="hungarumlaut" unicode="&#x2dd;" 
d="M199 1421h200l-211 -291h-137zM510 1421h201l-211 -291h-138z" />
    <glyph glyph-name="uni037E" unicode="&#x37e;" horiz-adv-x="497" 
d="M215 -233l-160.002 -17c57.333 216 90.333 391.333 99 526l252 11c-21.333 -84.667 -50.166 -176 -86.499 -274s-71.166 -180 -104.499 -246zM267.998 623h-1.99805c-44.667 0 -81.334 15.667 -110.001 47s-43 70.666 -43 117.999c0 48 14.667 87.667 44 119
s66.333 47 111 47c46 0 83.5 -15.5 112.5 -46.5s43.5 -70.833 43.5 -119.5c0 -47.333 -14.333 -86.666 -43 -117.999s-66.334 -47 -113.001 -47z" />
    <glyph glyph-name="tonos" unicode="&#x384;" horiz-adv-x="622" 
d="M260 1423h217l-153 -297h-154z" />
    <glyph glyph-name="dieresistonos" unicode="&#x385;" horiz-adv-x="808" 
d="M340 1464h190l-100 -334h-127zM135 1163h-2.00098c-29.333 0 -54.666 10.833 -75.999 32.5s-32 47.834 -32 78.501c0 31.333 10.833 57.5 32.5 78.5s47.5 31.5 77.5 31.5s55.333 -10.5 76 -31.5s31 -47.167 31 -78.5c0 -30.667 -10.333 -56.834 -31 -78.501
s-46 -32.5 -76 -32.5zM665.999 1163h-2.00195c-29.333 0 -54.5 10.833 -75.5 32.5s-31.5 47.834 -31.5 78.501c0 31.333 10.667 57.5 32 78.5s47 31.5 77 31.5c30.667 0 56.334 -10.5 77.001 -31.5s31 -47.167 31 -78.5c0 -30.667 -10.167 -56.834 -30.5 -78.501
s-46.166 -32.5 -77.499 -32.5z" />
    <glyph glyph-name="Alphatonos" unicode="&#x386;" horiz-adv-x="1206" 
d="M799 381h-391l-105 -381h-246l404 1380h301l399 -1380h-254zM444 565l318 0.000976562l-94 334c-20 77.333 -41.333 169.666 -64 276.999h-4c-24 -114.667 -44.333 -207 -61 -277zM80 1380h199l-72 -333h-135z" />
    <glyph glyph-name="anoteleia" unicode="&#x387;" horiz-adv-x="497" 
d="M248 477l-1.99902 -0.00195312c-45.333 0 -83.333 16.333 -114 49s-46 73.667 -46 123c0 50.667 15.667 92.334 47 125.001s70.333 49 117 49c47.333 0 86.166 -16.167 116.499 -48.5s45.5 -74.166 45.5 -125.499c0 -50 -15.167 -91.167 -45.5 -123.5
s-69.833 -48.5 -118.5 -48.5z" />
    <glyph glyph-name="Epsilontonos" unicode="&#x388;" horiz-adv-x="1140" 
d="M1014 815v-199h-463v-413h518v-203h-760v1380h731v-202h-489v-363h463zM8 1380h199l-72 -333h-135z" />
    <glyph glyph-name="Etatonos" unicode="&#x389;" horiz-adv-x="1437" 
d="M309 1380h242v-559h508v559h241v-1380h-241v608h-508v-608h-242v1380zM8 1380h199l-72 -333h-135z" />
    <glyph glyph-name="Iotatonos" unicode="&#x38a;" horiz-adv-x="690" 
d="M309 1380h242v-1380h-242v1380zM8 1380h199l-72 -333h-135z" />
    <glyph glyph-name="Omicrontonos" unicode="&#x38c;" horiz-adv-x="1413" 
d="M756 -20l-2 0.000976562c-116 0 -217.5 30.333 -304.5 91s-153 144 -198 250s-67.5 227 -67.5 363c0 139.333 24.167 263.166 72.5 371.499s117.5 193 207.5 254s193.333 91.5 310 91.5c90 0 171.333 -18 244 -54s132.5 -85.5 179.5 -148.5s83 -136.5 108 -220.5
s37.5 -175 37.5 -273c0 -117.333 -14.667 -222.333 -44 -315s-70.333 -168.667 -123 -228s-114.5 -104.5 -185.5 -135.5s-149.167 -46.5 -234.5 -46.5zM764 178.001l2 0.00292969c68.667 0 127.834 23.667 177.501 71s86.5 109.5 110.5 186.5s36 163.833 36 260.5
c0 65.333 -6.66699 127.666 -20 186.999s-32.833 113.166 -58.5 161.499s-59.667 86.666 -102 114.999s-90.166 42.5 -143.499 42.5s-101.333 -14 -144 -42s-77.167 -66 -103.5 -114s-46.333 -102.5 -60 -163.5s-20.5 -125.833 -20.5 -194.5
c-0.666992 -92.667 11.166 -177 35.499 -253s61.666 -137.833 111.999 -185.5s109.833 -71.5 178.5 -71.5zM8 1380h199l-72 -333h-135z" />
    <glyph glyph-name="Upsilontonos" unicode="&#x38e;" horiz-adv-x="1411" 
d="M276 1190l42.999 202.997c46.667 -2 100 -17 160 -45s112 -65.667 156 -113c54.667 -56 99.667 -126.333 135 -211s58 -179 68 -283h10c12.667 98.667 38.334 188.834 77.001 270.501s84 150.834 136 207.501c44.667 48.667 95.167 88.834 151.5 120.501
s104.833 49.5 145.5 53.5l41 -207c-88 -30.667 -171.5 -99.667 -250.5 -207s-135.5 -235 -169.5 -383c-20.667 -98.667 -31 -188.667 -31 -270v-326h-241v328c0 88.667 -7 176 -21 262c-28.667 165.333 -78.667 300.5 -150 405.5s-158 169.833 -260 194.5zM7.99902 1380h199
l-70 -333h-135z" />
    <glyph glyph-name="Omegatonos" unicode="&#x38f;" horiz-adv-x="1458" 
d="M1137 197l-0.00195312 -6.99609h258v-190h-518v147c71.333 57.333 129.5 135.666 174.5 234.999s67.167 213 66.5 341c0 60.667 -7.16699 119.167 -21.5 175.5s-35 107.333 -62 153s-62 82.167 -105 109.5s-90.833 41 -143.5 41c-69.333 0 -130.333 -23 -183 -69
s-92 -105 -118 -177s-39 -150.333 -39 -235c0 -122 23.667 -235.833 71 -341.5s105 -183.167 173 -232.5v-147h-522v190h258v7c-66.667 64 -122.167 143.667 -166.5 239s-66.5 200.666 -66.5 315.999c0 123.333 25.5 234.333 76.5 333s122.5 176 214.5 232
s195.667 84 311 84c89.333 0 170.833 -17 244.5 -51s134.334 -80.167 182.001 -138.5s84.334 -125.333 110.001 -201s38.5 -155.834 38.5 -240.501c0 -122 -22.5 -231.833 -67.5 -329.5s-100.167 -178.834 -165.5 -243.501zM7.99805 1380h199l-72 -333h-135z" />
    <glyph glyph-name="iotadieresistonos" unicode="&#x390;" horiz-adv-x="503" 
d="M369 997v-726.999c0 -40.667 6.66699 -69 20 -85s36.666 -23 69.999 -21l-15 -170c-21.333 -9.33301 -54.666 -14 -99.999 -14c-33.333 0 -62.333 4 -87 12s-47.167 21.5 -67.5 40.5s-35.833 46.667 -46.5 83s-16 81.166 -16 134.499v747h242zM209 1442h186l-100 -330
h-123zM6 1143h-2.00293c-29.333 0 -54.666 10.667 -75.999 32s-32 47.333 -32 78s10.667 56.5 32 77.5s47.333 31.5 78 31.5c28.667 0 53.334 -10.333 74.001 -31s31 -46.667 31 -78c0 -30.667 -10.167 -56.667 -30.5 -78s-45.166 -32 -74.499 -32zM529.997 1143h-1.99902
c-29.333 0 -54.333 10.667 -75 32s-31 47.333 -31 78c0 30 10.667 55.667 32 77s46.666 32 75.999 32c30 0 55.333 -10.333 76 -31s31 -46.667 31 -78c0 -30.667 -10.333 -56.667 -31 -78s-46 -32 -76 -32z" />
    <glyph glyph-name="Alpha" unicode="&#x391;" horiz-adv-x="1187" 
d="M780 381h-391l-104 -381h-246l403 1380h301l400 -1380h-254zM426 565l317 -0.000976562l-94 334c-16.667 64 -37.667 156.333 -63 277h-4c-19.333 -91.333 -40 -183.666 -62 -276.999z" />
    <glyph glyph-name="Beta" unicode="&#x392;" horiz-adv-x="1103" 
d="M137 4l0.000976562 1358c94 19.333 206.667 29 338 29c88 0 161.833 -6.83301 221.5 -20.5s111.5 -37.167 155.5 -70.5c86 -56.667 129 -141 129 -253c0 -66 -19.167 -126.167 -57.5 -180.5s-92.833 -94.833 -163.5 -121.5v-6
c79.333 -20.667 144.166 -60.667 194.499 -120s75.5 -132.666 75.5 -219.999c0 -112.667 -41 -206.667 -123 -282c-92 -86 -253.667 -129 -485 -129c-108.667 0 -203.667 5.33301 -285 16zM377.001 1202l-0.00195312 -389h110c76.667 0 137.834 19 183.501 57
s68.5 87.333 68.5 148c0 63.333 -20.167 111.5 -60.5 144.5s-99.166 49.5 -176.499 49.5c-55.333 0 -97 -3.33301 -125 -10zM376.999 636.999l0.000976562 -459c19.333 -4 57.666 -6 114.999 -6c83.333 0 151.5 19.167 204.5 57.5s79.5 97.166 79.5 176.499
c0 76.667 -27.333 134.334 -82 173.001s-125 58 -211 58h-106z" />
    <glyph glyph-name="Gamma" unicode="&#x393;" horiz-adv-x="884" 
d="M137 1380h727v-202h-485v-1178h-242v1380z" />
    <glyph glyph-name="uni0394" unicode="&#x394;" horiz-adv-x="1189" 
d="M39 0v125l414 1255h286l404 -1251v-129h-1104zM295 203l582.001 0.000976562l-203 639c-30.667 97.333 -59.334 205.666 -86.001 324.999h-6c-13.333 -66 -40 -169 -80 -309z" />
    <glyph glyph-name="Epsilon" unicode="&#x395;" horiz-adv-x="968" 
d="M842 815v-199h-463v-413h518v-203h-760v1380h731v-202h-489v-363h463z" />
    <glyph glyph-name="Zeta" unicode="&#x396;" horiz-adv-x="1042" 
d="M47 0v135l629 1036v7h-574v202h877v-149l-619 -1022v-6h625v-203h-938z" />
    <glyph glyph-name="Eta" unicode="&#x397;" horiz-adv-x="1265" 
d="M137 1380h242v-559h508v559h241v-1380h-241v608h-508v-608h-242v1380z" />
    <glyph glyph-name="Theta" unicode="&#x398;" horiz-adv-x="1300" 
d="M641 -20h-1.99902c-116 0 -217.5 30.167 -304.5 90.5s-153.167 143.333 -198.5 249s-68 226.5 -68 362.5c0 139.333 24.5 263.5 73.5 372.5s118.667 194 209 255s194.166 91.5 311.499 91.5c90 0 171.5 -18 244.5 -54s133 -85.5 180 -148.5s83.167 -136.5 108.5 -220.5
s38 -175 38 -273c0 -117.333 -14.833 -222.333 -44.5 -315s-71 -168.667 -124 -228s-115.333 -104.5 -187 -135.5s-150.5 -46.5 -236.5 -46.5zM649.001 176l2.00293 -0.00195312c69.333 0 129.166 23.667 179.499 71s87.666 109.5 111.999 186.5s36.5 163.833 36.5 260.5
c0 90 -11.5 172.667 -34.5 248s-59.833 137.833 -110.5 187.5s-111.667 74.5 -183 74.5c-70.667 0 -131.5 -24.667 -182.5 -74s-88.167 -112.166 -111.5 -188.499s-35 -160.833 -35 -253.5c0 -94 12.167 -179.167 36.5 -255.5s61.666 -138.166 111.999 -185.499
s109.833 -71 178.5 -71zM440.004 806.998h418v-203h-418v203z" />
    <glyph glyph-name="Iota" unicode="&#x399;" horiz-adv-x="518" 
d="M137 1380h242v-1380h-242v1380z" />
    <glyph glyph-name="Kappa" unicode="&#x39a;" horiz-adv-x="1101" 
d="M137 0l-0.000976562 1380h240v-635h6c54.667 93.333 85.334 145.333 92.001 156l320 479h288l-430 -589l455 -791h-279l-344 627l-108 -140v-487h-240z" />
    <glyph glyph-name="Lambda" unicode="&#x39b;" horiz-adv-x="1177" 
d="M1145 0h-260l-234 838c-10 41.333 -23.167 100.333 -39.5 177l-29.5 138h-4c-20 -114 -41.333 -219.667 -64 -317l-223 -836h-252l403 1380h293z" />
    <glyph glyph-name="Mu" unicode="&#x39c;" horiz-adv-x="1566" 
d="M1233 0l-27.001 554.999c-12 254 -17.333 439 -16 555h-6c-34.667 -145.333 -82 -314.666 -142 -507.999l-186 -586h-180l-168 576c-51.333 176.667 -93.666 349.334 -126.999 518.001h-4c-6.66699 -198.667 -15 -386.334 -25 -563.001l-28 -547h-222l93 1380h301
l166 -555c50 -178.667 90 -339 120 -481h4c30 136.667 71.667 297 125 481l174 555h299l80 -1380h-231z" />
    <glyph glyph-name="Nu" unicode="&#x39d;" horiz-adv-x="1271" 
d="M358 0l-221 -0.000976562v1380h262l320 -592c82.667 -151.333 153.667 -302.666 213 -453.999h4c-15.333 199.333 -23 397.333 -23 594v452h222v-1380h-244l-322 602c-91.333 168 -164.333 323 -219 465h-6c9.33301 -162.667 14 -364.667 14 -606v-461z" />
    <glyph glyph-name="Xi" unicode="&#x39e;" horiz-adv-x="1042" 
d="M102 1380h846v-200h-846v200zM158 811h733v-201h-733v201zM80 203h891v-203h-891v203z" />
    </font>
</defs>
</svg>
